  0
SECTION
  2
HEADER
  9
$ACADVER
  1
AC1015
  9
$ACADMAINTVER
 70
     6
  9
$DWGCODEPAGE
  3
ANSI_1252
  9
$INSBASE
 10
0.0
 20
0.0
 30
0.0
  9
$EXTMIN
 10
0.0
 20
0.0
 30
0.0
  9
$EXTMAX
 10
24.0
 20
9.0
 30
0.0
  9
$LIMMIN
 10
0.0
 20
0.0
  9
$LIMMAX
 10
24.0
 20
9.0
  9
$ORTHOMODE
 70
     0
  9
$REGENMODE
 70
     1
  9
$FILLMODE
 70
     1
  9
$QTEXTMODE
 70
     0
  9
$MIRRTEXT
 70
     1
  9
$LTSCALE
 40
1.0
  9
$ATTMODE
 70
     1
  9
$TEXTSIZE
 40
0.1377952756
  9
$TRACEWID
 40
0.05
  9
$TEXTSTYLE
  7
Standard
  9
$CLAYER
  8
0
  9
$CELTYPE
  6
ByLayer
  9
$CECOLOR
 62
   256
  9
$CELTSCALE
 40
1.0
  9
$DISPSILH
 70
     0
  9
$DIMSCALE
 40
1.0
  9
$DIMASZ
 40
0.13
  9
$DIMEXO
 40
0.0393700787
  9
$DIMDLI
 40
0.38
  9
$DIMRND
 40
0.0
  9
$DIMDLE
 40
0.0
  9
$DIMEXE
 40
0.0393700787
  9
$DIMTP
 40
0.0
  9
$DIMTM
 40
0.0
  9
$DIMTXT
 40
0.1377952756
  9
$DIMCEN
 40
0.09
  9
$DIMTSZ
 40
0.0
  9
$DIMTOL
 70
     0
  9
$DIMLIM
 70
     0
  9
$DIMTIH
 70
     1
  9
$DIMTOH
 70
     1
  9
$DIMSE1
 70
     0
  9
$DIMSE2
 70
     0
  9
$DIMTAD
 70
     1
  9
$DIMZIN
 70
     0
  9
$DIMBLK
  1

  9
$DIMASO
 70
     1
  9
$DIMSHO
 70
     1
  9
$DIMPOST
  1

  9
$DIMAPOST
  1

  9
$DIMALT
 70
     0
  9
$DIMALTD
 70
     2
  9
$DIMALTF
 40
25.4
  9
$DIMLFAC
 40
2.0
  9
$DIMTOFL
 70
     0
  9
$DIMTVP
 40
0.0
  9
$DIMTIX
 70
     0
  9
$DIMSOXD
 70
     0
  9
$DIMSAH
 70
     0
  9
$DIMBLK1
  1

  9
$DIMBLK2
  1

  9
$DIMSTYLE
  2
Standard
  9
$DIMCLRD
 70
     0
  9
$DIMCLRE
 70
     0
  9
$DIMCLRT
 70
     0
  9
$DIMTFAC
 40
1.0
  9
$DIMGAP
 40
0.06
  9
$DIMJUST
 70
     0
  9
$DIMSD1
 70
     0
  9
$DIMSD2
 70
     0
  9
$DIMTOLJ
 70
     1
  9
$DIMTZIN
 70
     0
  9
$DIMALTZ
 70
     0
  9
$DIMALTTZ
 70
     0
  9
$DIMUPT
 70
     0
  9
$DIMDEC
 70
     2
  9
$DIMTDEC
 70
     2
  9
$DIMALTU
 70
     2
  9
$DIMALTTD
 70
     2
  9
$DIMTXSTY
  7
Standard
  9
$DIMAUNIT
 70
     0
  9
$DIMADEC
 70
     2
  9
$DIMALTRND
 40
0.0
  9
$DIMAZIN
 70
     0
  9
$DIMDSEP
 70
    46
  9
$DIMATFIT
 70
     3
  9
$DIMFRAC
 70
     0
  9
$DIMLDRBLK
  1

  9
$DIMLUNIT
 70
     2
  9
$DIMLWD
 70
    -2
  9
$DIMLWE
 70
    -2
  9
$DIMTMOVE
 70
     0
  9
$LUNITS
 70
     2
  9
$LUPREC
 70
     2
  9
$SKETCHINC
 40
0.1
  9
$FILLETRAD
 40
0.5
  9
$AUNITS
 70
     0
  9
$AUPREC
 70
     2
  9
$MENU
  1
.
  9
$ELEVATION
 40
0.0
  9
$PELEVATION
 40
0.0
  9
$THICKNESS
 40
0.0
  9
$LIMCHECK
 70
     0
  9
$CHAMFERA
 40
0.0
  9
$CHAMFERB
 40
0.0
  9
$CHAMFERC
 40
0.0
  9
$CHAMFERD
 40
0.0
  9
$SKPOLY
 70
     0
  9
$TDCREATE
 40
2457071.136102963
  9
$TDUCREATE
 40
2457071.344436296
  9
$TDUPDATE
 40
2457071.136114699
  9
$TDUUPDATE
 40
2457071.344448032
  9
$TDINDWG
 40
0.0000000116
  9
$TDUSRTIMER
 40
0.0000000116
  9
$USRTIMER
 70
     1
  9
$ANGBASE
 50
0.0
  9
$ANGDIR
 70
     0
  9
$PDMODE
 70
     0
  9
$PDSIZE
 40
-1.0
  9
$PLINEWID
 40
0.0
  9
$SPLFRAME
 70
     0
  9
$SPLINETYPE
 70
     6
  9
$SPLINESEGS
 70
     8
  9
$HANDSEED
  5
1CA
  9
$SURFTAB1
 70
     6
  9
$SURFTAB2
 70
     6
  9
$SURFTYPE
 70
     6
  9
$SURFU
 70
     6
  9
$SURFV
 70
     6
  9
$UCSBASE
  2

  9
$UCSNAME
  2

  9
$UCSORG
 10
0.0
 20
0.0
 30
0.0
  9
$UCSXDIR
 10
1.0
 20
0.0
 30
0.0
  9
$UCSYDIR
 10
0.0
 20
1.0
 30
0.0
  9
$UCSORTHOREF
  2

  9
$UCSORTHOVIEW
 70
     0
  9
$UCSORGTOP
 10
0.0
 20
0.0
 30
0.0
  9
$UCSORGBOTTOM
 10
0.0
 20
0.0
 30
0.0
  9
$UCSORGLEFT
 10
0.0
 20
0.0
 30
0.0
  9
$UCSORGRIGHT
 10
0.0
 20
0.0
 30
0.0
  9
$UCSORGFRONT
 10
0.0
 20
0.0
 30
0.0
  9
$UCSORGBACK
 10
0.0
 20
0.0
 30
0.0
  9
$PUCSBASE
  2

  9
$PUCSNAME
  2

  9
$PUCSORG
 10
0.0
 20
0.0
 30
0.0
  9
$PUCSXDIR
 10
1.0
 20
0.0
 30
0.0
  9
$PUCSYDIR
 10
0.0
 20
1.0
 30
0.0
  9
$PUCSORTHOREF
  2

  9
$PUCSORTHOVIEW
 70
     0
  9
$PUCSORGTOP
 10
0.0
 20
0.0
 30
0.0
  9
$PUCSORGBOTTOM
 10
0.0
 20
0.0
 30
0.0
  9
$PUCSORGLEFT
 10
0.0
 20
0.0
 30
0.0
  9
$PUCSORGRIGHT
 10
0.0
 20
0.0
 30
0.0
  9
$PUCSORGFRONT
 10
0.0
 20
0.0
 30
0.0
  9
$PUCSORGBACK
 10
0.0
 20
0.0
 30
0.0
  9
$USERI1
 70
     0
  9
$USERI2
 70
     0
  9
$USERI3
 70
     0
  9
$USERI4
 70
     0
  9
$USERI5
 70
     0
  9
$USERR1
 40
0.0
  9
$USERR2
 40
0.0
  9
$USERR3
 40
0.0
  9
$USERR4
 40
0.0
  9
$USERR5
 40
0.0
  9
$WORLDVIEW
 70
     1
  9
$SHADEDGE
 70
     3
  9
$SHADEDIF
 70
    70
  9
$TILEMODE
 70
     0
  9
$MAXACTVP
 70
    64
  9
$PINSBASE
 10
0.0
 20
0.0
 30
0.0
  9
$PLIMCHECK
 70
     0
  9
$PEXTMIN
 10
0.0
 20
0.0
 30
0.0
  9
$PEXTMAX
 10
24.0
 20
9.0
 30
0.0
  9
$PLIMMIN
 10
0.0
 20
0.0
  9
$PLIMMAX
 10
24.0
 20
9.0
  9
$UNITMODE
 70
     0
  9
$VISRETAIN
 70
     1
  9
$PLINEGEN
 70
     0
  9
$PSLTSCALE
 70
     1
  9
$TREEDEPTH
 70
  3020
  9
$CMLSTYLE
  2
Standard
  9
$CMLJUST
 70
     0
  9
$CMLSCALE
 40
1.0
  9
$PROXYGRAPHICS
 70
     1
  9
$MEASUREMENT
 70
     0
  9
$CELWEIGHT
370
    -1
  9
$ENDCAPS
280
     0
  9
$JOINSTYLE
280
     0
  9
$LWDISPLAY
290
     1
  9
$INSUNITS
 70
     1
  9
$HYPERLINKBASE
  1

  9
$STYLESHEET
  1

  9
$XEDIT
290
     1
  9
$CEPSNTYPE
380
     0
  9
$PSTYLEMODE
290
     1
  9
$FINGERPRINTGUID
  2
{FD1C62C4-35D2-462F-88E2-4BA91EFBBAEF}
  9
$VERSIONGUID
  2
{FAEB1C32-E019-11D5-929B-00C0DF256EC4}
  9
$EXTNAMES
290
     1
  9
$PSVPSCALE
 40
0.0
  9
$OLESTARTUP
290
     0
  0
ENDSEC
  0
SECTION
  2
CLASSES
  0
CLASS
  1
ACDBDICTIONARYWDFLT
  2
AcDbDictionaryWithDefault
  3
ObjectDBX Classes
 90
        0
280
     0
281
     0
  0
CLASS
  1
VISUALSTYLE
  2
AcDbVisualStyle
  3
ObjectDBX Classes
 90
     4095
280
     0
281
     0
  0
CLASS
  1
MATERIAL
  2
AcDbMaterial
  3
ObjectDBX Classes
 90
     1153
280
     0
281
     0
  0
CLASS
  1
SCALE
  2
AcDbScale
  3
ObjectDBX Classes
 90
     1153
280
     0
281
     0
  0
CLASS
  1
SUN
  2
AcDbSun
  3
SCENEOE
 90
     1153
280
     0
281
     0
  0
CLASS
  1
ACDBPLACEHOLDER
  2
AcDbPlaceHolder
  3
ObjectDBX Classes
 90
        0
280
     0
281
     0
  0
CLASS
  1
LAYOUT
  2
AcDbLayout
  3
ObjectDBX Classes
 90
        0
280
     0
281
     0
  0
ENDSEC
  0
SECTION
  2
TABLES
  0
TABLE
  2
VPORT
  5
8
330
0
100
AcDbSymbolTable
 70
     1
  0
VPORT
  5
29
330
8
100
AcDbSymbolTableRecord
100
AcDbViewportTableRecord
  2
*Active
 70
     0
 10
0.0
 20
0.0
 11
1.0
 21
1.0
 12
12.0
 22
4.5
 13
0.0
 23
0.0
 14
0.5
 24
0.5
 15
0.5
 25
0.5
 16
0.0
 26
0.0
 36
1.0
 17
0.0
 27
0.0
 37
0.0
 40
9.0
 41
2.6666666667
 42
50.0
 43
0.0
 44
0.0
 50
0.0
 51
0.0
 71
     0
 72
  2000
 73
     1
 74
     3
 75
     0
 76
     0
 77
     0
 78
     0
281
     0
 65
     1
110
0.0
120
0.0
130
0.0
111
1.0
121
0.0
131
0.0
112
0.0
122
1.0
132
0.0
 79
     0
146
0.0
  0
ENDTAB
  0
TABLE
  2
LTYPE
  5
5
330
0
100
AcDbSymbolTable
 70
     6
  0
LTYPE
  5
14
330
5
100
AcDbSymbolTableRecord
100
AcDbLinetypeTableRecord
  2
ByBlock
 70
     0
  3

 72
    65
 73
     0
 40
0.0
  0
LTYPE
  5
15
330
5
100
AcDbSymbolTableRecord
100
AcDbLinetypeTableRecord
  2
ByLayer
 70
     0
  3

 72
    65
 73
     0
 40
0.0
  0
LTYPE
  5
16
330
5
100
AcDbSymbolTableRecord
100
AcDbLinetypeTableRecord
  2
Continuous
 70
     0
  3
Solid line
 72
    65
 73
     0
 40
0.0
  0
LTYPE
  5
6A
330
5
100
AcDbSymbolTableRecord
100
AcDbLinetypeTableRecord
  2
HIDDEN
 70
     0
  3
Hidden __ __ __ __ __ __ __ __ __ __ __ __ __ __
 72
    65
 73
     2
 40
0.075
 49
0.05
 74
     0
 49
-0.025
 74
     0
  0
LTYPE
  5
6B
330
5
100
AcDbSymbolTableRecord
100
AcDbLinetypeTableRecord
  2
PHANTOM
 70
     0
  3
Phantom ______  __  __  ______  __  __  ______
 72
    65
 73
     6
 40
0.5
 49
0.25
 74
     0
 49
-0.05
 74
     0
 49
0.05
 74
     0
 49
-0.05
 74
     0
 49
0.05
 74
     0
 49
-0.05
 74
     0
  0
LTYPE
  5
6C
330
5
100
AcDbSymbolTableRecord
100
AcDbLinetypeTableRecord
  2
CENTER
 70
     0
  3
Center ____ _ ____ _ ____ _ ____ _ ____ _ ____
 72
    65
 73
     4
 40
0.4
 49
0.25
 74
     0
 49
-0.05
 74
     0
 49
0.05
 74
     0
 49
-0.05
 74
     0
  0
LTYPE
  5
6D
330
5
100
AcDbSymbolTableRecord
100
AcDbLinetypeTableRecord
  2
CENTERX2
 70
     0
  3
Center (2x) ________  __  ________  __  _____
 72
    65
 73
     4
 40
0.8
 49
0.5
 74
     0
 49
-0.1
 74
     0
 49
0.1
 74
     0
 49
-0.1
 74
     0
  0
LTYPE
  5
6E
330
5
100
AcDbSymbolTableRecord
100
AcDbLinetypeTableRecord
  2
DOT2
 70
     0
  3
Dot (.5x) ........................................
 72
    65
 73
     2
 40
0.025
 49
0.0
 74
     0
 49
-0.025
 74
     0
  0
ENDTAB
  0
TABLE
  2
LAYER
  5
2
330
0
100
AcDbSymbolTable
 70
     1
  0
LAYER
  5
10
330
2
100
AcDbSymbolTableRecord
100
AcDbLayerTableRecord
  2
0
 70
     0
 62
     7
  6
Continuous
370
    -3
390
F
  0
ENDTAB
  0
TABLE
  2
STYLE
  5
3
330
0
100
AcDbSymbolTable
 70
     1
  0
STYLE
  5
11
330
3
100
AcDbSymbolTableRecord
100
AcDbTextStyleTableRecord
  2
Standard
 70
     0
 40
0.0
 41
1.0
 50
0.0
 71
     0
 42
0.1377952756
  3
txt
  4

  0
ENDTAB
  0
TABLE
  2
VIEW
  5
6
330
0
100
AcDbSymbolTable
 70
     0
  0
ENDTAB
  0
TABLE
  2
UCS
  5
7
330
0
100
AcDbSymbolTable
 70
     0
  0
ENDTAB
  0
TABLE
  2
APPID
  5
9
330
0
100
AcDbSymbolTable
 70
     1
  0
APPID
  5
12
330
9
100
AcDbSymbolTableRecord
100
AcDbRegAppTableRecord
  2
ACAD
 70
     0
  0
ENDTAB
  0
TABLE
  2
DIMSTYLE
  5
A
330
0
100
AcDbSymbolTable
 70
     1
100
AcDbDimStyleTable
  0
DIMSTYLE
105
27
330
A
100
AcDbSymbolTableRecord
100
AcDbDimStyleTableRecord
  2
Standard
 70
     0
178
     0
340
11
  0
ENDTAB
  0
TABLE
  2
BLOCK_RECORD
  5
1
330
0
100
AcDbSymbolTable
 70
     4
  0
BLOCK_RECORD
  5
1F
330
1
100
AcDbSymbolTableRecord
100
AcDbBlockTableRecord
  2
*Model_Space
340
22
  0
BLOCK_RECORD
  5
1B
330
1
100
AcDbSymbolTableRecord
100
AcDbBlockTableRecord
  2
*Paper_Space
340
1E
  0
BLOCK_RECORD
  5
23
330
1
100
AcDbSymbolTableRecord
100
AcDbBlockTableRecord
  2
*Paper_Space0
340
26
  0
BLOCK_RECORD
  5
102
330
1
100
AcDbSymbolTableRecord
100
AcDbBlockTableRecord
  2
*Paper_Space1
340
103
  0
BLOCK_RECORD
  5
13E
330
1
100
AcDbSymbolTableRecord
100
AcDbBlockTableRecord
  2
*Paper_Space2
340
13F
  0
BLOCK_RECORD
  5
184
330
1
100
AcDbSymbolTableRecord
100
AcDbBlockTableRecord
  2
*Paper_Space3
340
185
  0
ENDTAB
  0
ENDSEC
  0
SECTION
  2
BLOCKS
  0
BLOCK
  5
20
330
1F
100
AcDbEntity
  8
0
100
AcDbBlockBegin
  2
*Model_Space
 70
     0
 10
0.0
 20
0.0
 30
0.0
  3
*Model_Space
  1
*Model_Space
  0
ENDBLK
  5
21
330
1F
100
AcDbEntity
  8
0
100
AcDbBlockEnd
  0
BLOCK
  5
1C
330
1B
100
AcDbEntity
 67
     1
  8
0
100
AcDbBlockBegin
  2
*Paper_Space
 70
     0
 10
0.0
 20
0.0
 30
0.0
  3
*Paper_Space
  1
*Paper_Space
  0
ENDBLK
  5
1D
330
1B
100
AcDbEntity
 67
     1
  8
0
100
AcDbBlockEnd
  0
BLOCK
  5
24
330
23
100
AcDbEntity
  8
0
100
AcDbBlockBegin
  2
*Paper_Space0
 70
     0
 10
0.0
 20
0.0
 30
0.0
  3
*Paper_Space0
  1
*Paper_Space0
  0
LINE
  5
C8
330
23
100
AcDbEntity
  8
0
  6
Continuous
 62
     1
370
    15
100
AcDbLine
 10
0.5040798845
 20
8.7053399029
 30
0.0
 11
1.1165798845
 21
5.2322289056
 31
0.0
  0
LINE
  5
C9
330
23
100
AcDbEntity
  8
0
  6
Continuous
 62
     1
370
    15
100
AcDbLine
 10
5.5244704466
 20
8.7053399029
 30
0.0
 11
0.5040798845
 21
8.7053399029
 31
0.0
  0
LINE
  5
CA
330
23
100
AcDbEntity
  8
0
  6
Continuous
 62
     1
370
    15
100
AcDbLine
 10
5.3112294705
 20
7.4961814062
 30
0.0
 11
5.5244704466
 21
8.7053399029
 31
0.0
  0
LINE
  5
CB
330
23
100
AcDbEntity
  8
0
  6
Continuous
 62
     1
370
    15
100
AcDbLine
 10
5.3112294705
 20
7.4961814062
 30
0.0
 11
5.5096672866
 21
7.4611859331
 31
0.0
  0
LINE
  5
CC
330
23
100
AcDbEntity
  8
0
  6
Continuous
 62
     1
370
    15
100
AcDbLine
 10
5.3359924823
 20
6.4763828754
 30
0.0
 11
5.5096672866
 21
7.4611859331
 31
0.0
  0
LINE
  5
CD
330
23
100
AcDbEntity
  8
0
  6
Continuous
 62
     1
370
    15
100
AcDbLine
 10
5.1375546662
 20
6.5113783485
 30
0.0
 11
5.3359924823
 21
6.4763828754
 31
0.0
  0
LINE
  5
CE
330
23
100
AcDbEntity
  8
0
  6
Continuous
 62
     1
370
    15
100
AcDbLine
 10
4.9119704466
 20
5.2322289056
 30
0.0
 11
5.1375546662
 21
6.5113783485
 31
0.0
  0
LINE
  5
CF
330
23
100
AcDbEntity
  8
0
  6
Continuous
 62
     1
370
    15
100
AcDbLine
 10
1.1165798845
 20
5.2322289056
 30
0.0
 11
4.9119704466
 21
5.2322289056
 31
0.0
  0
LINE
  5
D0
330
23
100
AcDbEntity
  8
0
  6
Continuous
 62
     1
370
    15
100
AcDbLine
 10
4.9278109314
 20
4.8619493423
 30
0.0
 11
5.1533951509
 21
3.5827998994
 31
0.0
  0
LINE
  5
D1
330
23
100
AcDbEntity
  8
0
  6
Continuous
 62
     1
370
    15
100
AcDbLine
 10
5.1533951509
 20
3.5827998994
 30
0.0
 11
5.3518329671
 21
3.6177953724
 31
0.0
  0
LINE
  5
D2
330
23
100
AcDbEntity
  8
0
  6
Continuous
 62
     1
370
    15
100
AcDbLine
 10
5.3518329671
 20
3.6177953724
 30
0.0
 11
5.5255077714
 21
2.6329923148
 31
0.0
  0
LINE
  5
D3
330
23
100
AcDbEntity
  8
0
  6
Continuous
 62
     1
370
    15
100
AcDbLine
 10
5.3270699553
 20
2.5979968417
 30
0.0
 11
5.5255077714
 21
2.6329923148
 31
0.0
  0
LINE
  5
D4
330
23
100
AcDbEntity
  8
0
  6
Continuous
 62
     1
370
    15
100
AcDbLine
 10
5.3270699553
 20
2.5979968417
 30
0.0
 11
5.5403109314
 21
1.3888383449
 31
0.0
  0
LINE
  5
D5
330
23
100
AcDbEntity
  8
0
  6
Continuous
 62
     1
370
    15
100
AcDbLine
 10
5.5403109314
 20
1.3888383449
 30
0.0
 11
0.5199203692
 21
1.3888383449
 31
0.0
  0
LINE
  5
D6
330
23
100
AcDbEntity
  8
0
  6
Continuous
 62
     1
370
    15
100
AcDbLine
 10
0.5199203692
 20
1.3888383449
 30
0.0
 11
1.1324203692
 21
4.8619493423
 31
0.0
  0
LINE
  5
D7
330
23
100
AcDbEntity
  8
0
  6
Continuous
 62
     1
370
    15
100
AcDbLine
 10
1.1324203692
 20
4.8619493423
 30
0.0
 11
4.9278109314
 21
4.8619493423
 31
0.0
  0
LINE
  5
D8
330
23
100
AcDbEntity
  8
0
  6
Continuous
 62
     1
370
    15
100
AcDbLine
 10
13.7165541677
 20
5.3016639102
 30
0.0
 11
13.8415541677
 21
5.3016639102
 31
0.0
  0
LINE
  5
D9
330
23
100
AcDbEntity
  8
0
  6
Continuous
 62
     1
370
    15
100
AcDbLine
 10
13.8415541677
 20
5.3016639102
 30
0.0
 11
13.8415541677
 21
7.3016639102
 31
0.0
  0
LINE
  5
DA
330
23
100
AcDbEntity
  8
0
  6
Continuous
 62
     1
370
    15
100
AcDbLine
 10
13.7165541677
 20
7.3016639102
 30
0.0
 11
13.8415541677
 21
7.3016639102
 31
0.0
  0
LINE
  5
DB
330
23
100
AcDbEntity
  8
0
  6
Continuous
 62
     1
370
    15
100
AcDbLine
 10
13.7165541677
 20
5.3016639102
 30
0.0
 11
13.7165541677
 21
7.3016639102
 31
0.0
  0
LINE
  5
DC
330
23
100
AcDbEntity
  8
0
  6
Continuous
 62
     1
370
    15
100
AcDbLine
 10
13.470151924
 20
8.3016639102
 30
0.0
 11
10.595151924
 21
8.3016639102
 31
0.0
  0
LINE
  5
DD
330
23
100
AcDbEntity
  8
0
  6
Continuous
 62
     1
370
    15
100
AcDbLine
 10
13.470151924
 20
8.3016639102
 30
0.0
 11
13.470151924
 21
8.7046639102
 31
0.0
  0
LINE
  5
DE
330
23
100
AcDbEntity
  8
0
  6
Continuous
 62
     1
370
    15
100
AcDbLine
 10
13.470151924
 20
8.7046639102
 30
0.0
 11
15.470151924
 21
8.7046639102
 31
0.0
  0
LINE
  5
DF
330
23
100
AcDbEntity
  8
0
  6
Continuous
 62
     1
370
    15
100
AcDbLine
 10
15.470151924
 20
8.3016639102
 30
0.0
 11
15.470151924
 21
8.7046639102
 31
0.0
  0
LINE
  5
E0
330
23
100
AcDbEntity
  8
0
  6
Continuous
 62
     1
370
    15
100
AcDbLine
 10
18.345151924
 20
8.3016639102
 30
0.0
 11
15.470151924
 21
8.3016639102
 31
0.0
  0
LINE
  5
E1
330
23
100
AcDbEntity
  8
0
  6
Continuous
 62
     1
370
    15
100
AcDbLine
 10
17.470151924
 20
4.8583506439
 30
0.0
 11
18.345151924
 21
8.3016639102
 31
0.0
  0
LINE
  5
E2
330
23
100
AcDbEntity
  8
0
  6
Continuous
 62
     1
370
    15
100
AcDbLine
 10
16.3954779754
 20
4.1941692734
 30
0.0
 11
17.470151924
 21
4.8583506439
 31
0.0
  0
LINE
  5
E3
330
23
100
AcDbEntity
  8
0
  6
Continuous
 62
     1
370
    15
100
AcDbLine
 10
16.3954779754
 20
4.1941692734
 30
0.0
 11
16.2895435783
 21
4.3655756721
 31
0.0
  0
LINE
  5
E4
330
23
100
AcDbEntity
  8
0
  6
Continuous
 62
     1
370
    15
100
AcDbLine
 10
16.2895435783
 20
4.3655756721
 30
0.0
 11
15.4388914756
 21
3.8398466543
 31
0.0
  0
LINE
  5
E5
330
23
100
AcDbEntity
  8
0
  6
Continuous
 62
     1
370
    15
100
AcDbLine
 10
15.5448258727
 20
3.6684402556
 30
0.0
 11
15.4388914756
 21
3.8398466543
 31
0.0
  0
LINE
  5
E6
330
23
100
AcDbEntity
  8
0
  6
Continuous
 62
     1
370
    15
100
AcDbLine
 10
14.470151924
 20
3.0042588851
 30
0.0
 11
15.5448258727
 21
3.6684402556
 31
0.0
  0
LINE
  5
E7
330
23
100
AcDbEntity
  8
0
  6
Continuous
 62
     1
370
    15
100
AcDbLine
 10
13.3954779754
 20
3.6684402556
 30
0.0
 11
14.470151924
 21
3.0042588851
 31
0.0
  0
LINE
  5
E8
330
23
100
AcDbEntity
  8
0
  6
Continuous
 62
     1
370
    15
100
AcDbLine
 10
13.5014123725
 20
3.8398466543
 30
0.0
 11
13.3954779754
 21
3.6684402556
 31
0.0
  0
LINE
  5
E9
330
23
100
AcDbEntity
  8
0
  6
Continuous
 62
     1
370
    15
100
AcDbLine
 10
13.5014123725
 20
3.8398466543
 30
0.0
 11
12.6507602697
 21
4.3655756721
 31
0.0
  0
LINE
  5
EA
330
23
100
AcDbEntity
  8
0
  6
Continuous
 62
     1
370
    15
100
AcDbLine
 10
12.6507602697
 20
4.3655756721
 30
0.0
 11
12.5448258727
 21
4.1941692734
 31
0.0
  0
LINE
  5
EB
330
23
100
AcDbEntity
  8
0
  6
Continuous
 62
     1
370
    15
100
AcDbLine
 10
11.470151924
 20
4.8583506439
 30
0.0
 11
12.5448258727
 21
4.1941692734
 31
0.0
  0
LINE
  5
EC
330
23
100
AcDbEntity
  8
0
  6
Continuous
 62
     1
370
    15
100
AcDbLine
 10
10.595151924
 20
8.3016639102
 30
0.0
 11
11.470151924
 21
4.8583506439
 31
0.0
  0
LINE
  5
ED
330
23
100
AcDbEntity
  8
0
  6
Continuous
 62
     1
370
    15
100
AcDbLine
 10
22.0798319974
 20
3.8973069553
 30
0.0
 11
19.2550620515
 21
5.643101181
 31
0.0
  0
LINE
  5
EE
330
23
100
AcDbEntity
  8
0
  6
Continuous
 62
     1
370
    15
100
AcDbLine
 10
22.9221579102
 20
0.5825732521
 30
0.0
 11
22.0798319974
 21
3.8973069553
 31
0.0
  0
LINE
  5
EF
330
23
100
AcDbEntity
  8
0
  6
Continuous
 62
     1
370
    15
100
AcDbLine
 10
15.5879661928
 20
0.5825732521
 30
0.0
 11
22.9221579102
 21
0.5825732521
 31
0.0
  0
LINE
  5
F0
330
23
100
AcDbEntity
  8
0
  6
Continuous
 62
     1
370
    15
100
AcDbLine
 10
16.4302921056
 20
3.8973069553
 30
0.0
 11
15.5879661928
 21
0.5825732521
 31
0.0
  0
LINE
  5
F1
330
23
100
AcDbEntity
  8
0
  6
Continuous
 62
     1
370
    15
100
AcDbLine
 10
19.2550620515
 20
5.643101181
 30
0.0
 11
16.4302921056
 21
3.8973069553
 31
0.0
  0
LINE
  5
F2
330
23
100
AcDbEntity
  8
0
  6
Continuous
 62
     1
370
    15
100
AcDbLine
 10
5.753919265
 20
4.7591385449
 30
0.0
 11
5.6427902088
 21
3.3567510454
 31
0.0
  0
LINE
  5
F3
330
23
100
AcDbEntity
  8
0
  6
Continuous
 62
     1
370
    15
100
AcDbLine
 10
5.4907442644
 20
4.7799932583
 30
0.0
 11
5.753919265
 21
4.7591385449
 31
0.0
  0
LINE
  5
F4
330
23
100
AcDbEntity
  8
0
  6
Continuous
 62
     1
370
    15
100
AcDbLine
 10
5.6487345177
 20
6.7737432627
 30
0.0
 11
5.4907442644
 21
4.7799932583
 31
0.0
  0
LINE
  5
F5
330
23
100
AcDbEntity
  8
0
  6
Continuous
 62
     1
370
    15
100
AcDbLine
 10
5.6487345177
 20
6.7737432627
 30
0.0
 11
5.9119095182
 21
6.7528885492
 31
0.0
  0
LINE
  5
F6
330
23
100
AcDbEntity
  8
0
  6
Continuous
 62
     1
370
    15
100
AcDbLine
 10
6.0263437445
 20
8.1969854756
 30
0.0
 11
5.9119095182
 21
6.7528885492
 31
0.0
  0
LINE
  5
F7
330
23
100
AcDbEntity
  8
0
  6
Continuous
 62
     1
370
    15
100
AcDbLine
 10
7.1592434316
 20
8.1969854756
 30
0.0
 11
6.0263437445
 21
8.1969854756
 31
0.0
  0
LINE
  5
F8
330
23
100
AcDbEntity
  8
0
  6
Continuous
 62
     1
370
    15
100
AcDbLine
 10
7.1592434316
 20
8.1969854756
 30
0.0
 11
7.1592434316
 21
8.0719854756
 31
0.0
  0
LINE
  5
F9
330
23
100
AcDbEntity
  8
0
  6
Continuous
 62
     1
370
    15
100
AcDbLine
 10
7.1592434316
 20
8.0719854756
 30
0.0
 11
9.1592434316
 21
8.0719854756
 31
0.0
  0
LINE
  5
FA
330
23
100
AcDbEntity
  8
0
  6
Continuous
 62
     1
370
    15
100
AcDbLine
 10
9.1592434316
 20
8.0719854756
 30
0.0
 11
9.1592434316
 21
8.1969854756
 31
0.0
  0
LINE
  5
FB
330
23
100
AcDbEntity
  8
0
  6
Continuous
 62
     1
370
    15
100
AcDbLine
 10
10.2921431187
 20
8.1969854756
 30
0.0
 11
9.1592434316
 21
8.1969854756
 31
0.0
  0
LINE
  5
FC
330
23
100
AcDbEntity
  8
0
  6
Continuous
 62
     1
370
    15
100
AcDbLine
 10
10.406577345
 20
6.7528885492
 30
0.0
 11
10.2921431187
 21
8.1969854756
 31
0.0
  0
LINE
  5
FD
330
23
100
AcDbEntity
  8
0
  6
Continuous
 62
     1
370
    15
100
AcDbLine
 10
10.6697523455
 20
6.7737432627
 30
0.0
 11
10.406577345
 21
6.7528885492
 31
0.0
  0
LINE
  5
FE
330
23
100
AcDbEntity
  8
0
  6
Continuous
 62
     1
370
    15
100
AcDbLine
 10
10.8277425988
 20
4.7799932583
 30
0.0
 11
10.6697523455
 21
6.7737432627
 31
0.0
  0
LINE
  5
FF
330
23
100
AcDbEntity
  8
0
  6
Continuous
 62
     1
370
    15
100
AcDbLine
 10
10.8277425988
 20
4.7799932583
 30
0.0
 11
10.5645675982
 21
4.7591385449
 31
0.0
  0
LINE
  5
100
330
23
100
AcDbEntity
  8
0
  6
Continuous
 62
     1
370
    15
100
AcDbLine
 10
10.6756966544
 20
3.3567510454
 30
0.0
 11
10.5645675982
 21
4.7591385449
 31
0.0
  0
LINE
  5
101
330
23
100
AcDbEntity
  8
0
  6
Continuous
 62
     1
370
    15
100
AcDbLine
 10
5.6427902088
 20
3.3567510454
 30
0.0
 11
10.6756966544
 21
3.3567510454
 31
0.0
  0
ENDBLK
  5
25
330
23
100
AcDbEntity
  8
0
100
AcDbBlockEnd
  0
BLOCK
  5
104
330
102
100
AcDbEntity
  8
0
100
AcDbBlockBegin
  2
*Paper_Space1
 70
     0
 10
0.0
 20
0.0
 30
0.0
  3
*Paper_Space1
  1
*Paper_Space1
  0
LINE
  5
106
330
102
100
AcDbEntity
  8
0
  6
Continuous
 62
     1
370
    15
100
AcDbLine
 10
16.459943662
 20
0.7614929577
 30
0.0
 11
16.459943662
 21
0.9629929577
 31
0.0
  0
LINE
  5
107
330
102
100
AcDbEntity
  8
0
  6
Continuous
 62
     1
370
    15
100
AcDbLine
 10
14.459943662
 20
0.7614929577
 30
0.0
 11
16.459943662
 21
0.7614929577
 31
0.0
  0
LINE
  5
108
330
102
100
AcDbEntity
  8
0
  6
Continuous
 62
     1
370
    15
100
AcDbLine
 10
14.459943662
 20
0.9629929577
 30
0.0
 11
14.459943662
 21
0.7614929577
 31
0.0
  0
LINE
  5
109
330
102
100
AcDbEntity
  8
0
  6
Continuous
 62
     1
370
    15
100
AcDbLine
 10
9.459943662
 20
0.9629929577
 30
0.0
 11
14.459943662
 21
0.9629929577
 31
0.0
  0
LINE
  5
10A
330
102
100
AcDbEntity
  8
0
  6
Continuous
 62
     1
370
    15
100
AcDbLine
 10
9.459943662
 20
0.7614929577
 30
0.0
 11
9.459943662
 21
0.9629929577
 31
0.0
  0
LINE
  5
10B
330
102
100
AcDbEntity
  8
0
  6
Continuous
 62
     1
370
    15
100
AcDbLine
 10
7.459943662
 20
0.7614929577
 30
0.0
 11
9.459943662
 21
0.7614929577
 31
0.0
  0
LINE
  5
10C
330
102
100
AcDbEntity
  8
0
  6
Continuous
 62
     1
370
    15
100
AcDbLine
 10
7.459943662
 20
0.7614929577
 30
0.0
 11
7.459943662
 21
0.9629929577
 31
0.0
  0
LINE
  5
10D
330
102
100
AcDbEntity
  8
0
  6
Continuous
 62
     1
370
    15
100
AcDbLine
 10
4.459943662
 20
0.9629929577
 30
0.0
 11
7.459943662
 21
0.9629929577
 31
0.0
  0
LINE
  5
10E
330
102
100
AcDbEntity
  8
0
  6
Continuous
 62
     1
370
    15
100
AcDbLine
 10
4.459943662
 20
0.7614929577
 30
0.0
 11
4.459943662
 21
0.9629929577
 31
0.0
  0
LINE
  5
10F
330
102
100
AcDbEntity
  8
0
  6
Continuous
 62
     1
370
    15
100
AcDbLine
 10
2.459943662
 20
0.7614929577
 30
0.0
 11
4.459943662
 21
0.7614929577
 31
0.0
  0
LINE
  5
110
330
102
100
AcDbEntity
  8
0
  6
Continuous
 62
     1
370
    15
100
AcDbLine
 10
2.459943662
 20
0.9629929577
 30
0.0
 11
2.459943662
 21
0.7614929577
 31
0.0
  0
LINE
  5
111
330
102
100
AcDbEntity
  8
0
  6
Continuous
 62
     1
370
    15
100
AcDbLine
 10
0.959943662
 20
0.9629929577
 30
0.0
 11
2.459943662
 21
0.9629929577
 31
0.0
  0
LINE
  5
112
330
102
100
AcDbEntity
  8
0
  6
Continuous
 62
     1
370
    15
100
AcDbLine
 10
0.959943662
 20
3.5114929577
 30
0.0
 11
0.959943662
 21
0.9629929577
 31
0.0
  0
LINE
  5
113
330
102
100
AcDbEntity
  8
0
  6
Continuous
 62
     1
370
    15
100
AcDbLine
 10
1.084943662
 20
3.5114929577
 30
0.0
 11
0.959943662
 21
3.5114929577
 31
0.0
  0
LINE
  5
114
330
102
100
AcDbEntity
  8
0
  6
Continuous
 62
     1
370
    15
100
AcDbLine
 10
1.084943662
 20
5.5114929577
 30
0.0
 11
1.084943662
 21
3.5114929577
 31
0.0
  0
LINE
  5
115
330
102
100
AcDbEntity
  8
0
  6
Continuous
 62
     1
370
    15
100
AcDbLine
 10
0.959943662
 20
5.5114929577
 30
0.0
 11
1.084943662
 21
5.5114929577
 31
0.0
  0
LINE
  5
116
330
102
100
AcDbEntity
  8
0
  6
Continuous
 62
     1
370
    15
100
AcDbLine
 10
0.959943662
 20
8.0599929577
 30
0.0
 11
0.959943662
 21
5.5114929577
 31
0.0
  0
LINE
  5
117
330
102
100
AcDbEntity
  8
0
  6
Continuous
 62
     1
370
    15
100
AcDbLine
 10
2.459943662
 20
8.0599929577
 30
0.0
 11
0.959943662
 21
8.0599929577
 31
0.0
  0
LINE
  5
118
330
102
100
AcDbEntity
  8
0
  6
Continuous
 62
     1
370
    15
100
AcDbLine
 10
2.459943662
 20
8.0599929577
 30
0.0
 11
2.459943662
 21
8.2614929577
 31
0.0
  0
LINE
  5
119
330
102
100
AcDbEntity
  8
0
  6
Continuous
 62
     1
370
    15
100
AcDbLine
 10
4.459943662
 20
8.2614929577
 30
0.0
 11
2.459943662
 21
8.2614929577
 31
0.0
  0
LINE
  5
11A
330
102
100
AcDbEntity
  8
0
  6
Continuous
 62
     1
370
    15
100
AcDbLine
 10
4.459943662
 20
8.0599929577
 30
0.0
 11
4.459943662
 21
8.2614929577
 31
0.0
  0
LINE
  5
11B
330
102
100
AcDbEntity
  8
0
  6
Continuous
 62
     1
370
    15
100
AcDbLine
 10
7.459943662
 20
8.0599929577
 30
0.0
 11
4.459943662
 21
8.0599929577
 31
0.0
  0
LINE
  5
11C
330
102
100
AcDbEntity
  8
0
  6
Continuous
 62
     1
370
    15
100
AcDbLine
 10
7.459943662
 20
8.0599929577
 30
0.0
 11
7.459943662
 21
8.2614929577
 31
0.0
  0
LINE
  5
11D
330
102
100
AcDbEntity
  8
0
  6
Continuous
 62
     1
370
    15
100
AcDbLine
 10
9.459943662
 20
8.2614929577
 30
0.0
 11
7.459943662
 21
8.2614929577
 31
0.0
  0
LINE
  5
11E
330
102
100
AcDbEntity
  8
0
  6
Continuous
 62
     1
370
    15
100
AcDbLine
 10
9.459943662
 20
8.0599929577
 30
0.0
 11
9.459943662
 21
8.2614929577
 31
0.0
  0
LINE
  5
11F
330
102
100
AcDbEntity
  8
0
  6
Continuous
 62
     1
370
    15
100
AcDbLine
 10
14.459943662
 20
8.0599929577
 30
0.0
 11
9.459943662
 21
8.0599929577
 31
0.0
  0
LINE
  5
120
330
102
100
AcDbEntity
  8
0
  6
Continuous
 62
     1
370
    15
100
AcDbLine
 10
14.459943662
 20
8.0599929577
 30
0.0
 11
14.459943662
 21
8.2614929577
 31
0.0
  0
LINE
  5
121
330
102
100
AcDbEntity
  8
0
  6
Continuous
 62
     1
370
    15
100
AcDbLine
 10
16.459943662
 20
8.2614929577
 30
0.0
 11
14.459943662
 21
8.2614929577
 31
0.0
  0
LINE
  5
122
330
102
100
AcDbEntity
  8
0
  6
Continuous
 62
     1
370
    15
100
AcDbLine
 10
16.459943662
 20
8.0599929577
 30
0.0
 11
16.459943662
 21
8.2614929577
 31
0.0
  0
LINE
  5
123
330
102
100
AcDbEntity
  8
0
  6
Continuous
 62
     1
370
    15
100
AcDbLine
 10
10.834943662
 20
5.5114929577
 30
0.0
 11
10.834943662
 21
3.5114929577
 31
0.0
  0
LINE
  5
124
330
102
100
AcDbEntity
  8
0
  6
Continuous
 62
     1
370
    15
100
AcDbLine
 10
10.834943662
 20
3.5114929577
 30
0.0
 11
11.084943662
 21
3.5114929577
 31
0.0
  0
LINE
  5
125
330
102
100
AcDbEntity
  8
0
  6
Continuous
 62
     1
370
    15
100
AcDbLine
 10
11.084943662
 20
5.5114929577
 30
0.0
 11
11.084943662
 21
3.5114929577
 31
0.0
  0
LINE
  5
126
330
102
100
AcDbEntity
  8
0
  6
Continuous
 62
     1
370
    15
100
AcDbLine
 10
10.834943662
 20
5.5114929577
 30
0.0
 11
11.084943662
 21
5.5114929577
 31
0.0
  0
LINE
  5
127
330
102
100
AcDbEntity
  8
0
  6
Continuous
 62
     1
370
    15
100
AcDbLine
 10
12.209943662
 20
6.3099929577
 30
0.0
 11
12.209943662
 21
2.7129929577
 31
0.0
  0
ARC
  5
128
330
102
100
AcDbEntity
  8
0
  6
Continuous
 62
     1
370
    15
100
AcDbCircle
 10
12.959943662
 20
2.7129929577
 30
0.0
 40
0.75
100
AcDbArc
 50
180.0
 51
270.0
  0
LINE
  5
129
330
102
100
AcDbEntity
  8
0
  6
Continuous
 62
     1
370
    15
100
AcDbLine
 10
12.959943662
 20
1.9629929577
 30
0.0
 11
18.209943662
 21
1.9629929577
 31
0.0
  0
ARC
  5
12A
330
102
100
AcDbEntity
  8
0
  6
Continuous
 62
     1
370
    15
100
AcDbCircle
 10
18.209943662
 20
2.7129929577
 30
0.0
 40
0.75
100
AcDbArc
 50
270.0
 51
0.0
  0
LINE
  5
12B
330
102
100
AcDbEntity
  8
0
  6
Continuous
 62
     1
370
    15
100
AcDbLine
 10
18.959943662
 20
6.3099929577
 30
0.0
 11
18.959943662
 21
2.7129929577
 31
0.0
  0
ARC
  5
12C
330
102
100
AcDbEntity
  8
0
  6
Continuous
 62
     1
370
    15
100
AcDbCircle
 10
18.209943662
 20
6.3099929577
 30
0.0
 40
0.7500000000000009
100
AcDbArc
 50
0.0
 51
90.0
  0
LINE
  5
12D
330
102
100
AcDbEntity
  8
0
  6
Continuous
 62
     1
370
    15
100
AcDbLine
 10
12.959943662
 20
7.0599929577
 30
0.0
 11
18.209943662
 21
7.0599929577
 31
0.0
  0
ARC
  5
12E
330
102
100
AcDbEntity
  8
0
  6
Continuous
 62
     1
370
    15
100
AcDbCircle
 10
12.959943662
 20
6.3099929577
 30
0.0
 40
0.7500000000000009
100
AcDbArc
 50
90.0
 51
180.0
  0
LINE
  5
12F
330
102
100
AcDbEntity
  8
0
  6
Continuous
 62
     1
370
    15
100
AcDbLine
 10
2.161443662
 20
6.3099929577
 30
0.0
 11
2.161443662
 21
2.7129929577
 31
0.0
  0
ARC
  5
130
330
102
100
AcDbEntity
  8
0
  6
Continuous
 62
     1
370
    15
100
AcDbCircle
 10
2.911443662
 20
2.7129929577
 30
0.0
 40
0.7500000000000004
100
AcDbArc
 50
180.0
 51
270.0
  0
LINE
  5
131
330
102
100
AcDbEntity
  8
0
  6
Continuous
 62
     1
370
    15
100
AcDbLine
 10
2.911443662
 20
1.9629929577
 30
0.0
 11
8.959943662
 21
1.9629929577
 31
0.0
  0
ARC
  5
132
330
102
100
AcDbEntity
  8
0
  6
Continuous
 62
     1
370
    15
100
AcDbCircle
 10
8.959943662
 20
2.7129929577
 30
0.0
 40
0.75
100
AcDbArc
 50
270.0
 51
0.0
  0
LINE
  5
133
330
102
100
AcDbEntity
  8
0
  6
Continuous
 62
     1
370
    15
100
AcDbLine
 10
9.709943662
 20
6.3099929577
 30
0.0
 11
9.709943662
 21
2.7129929577
 31
0.0
  0
ARC
  5
134
330
102
100
AcDbEntity
  8
0
  6
Continuous
 62
     1
370
    15
100
AcDbCircle
 10
8.959943662
 20
6.3099929577
 30
0.0
 40
0.7500000000000009
100
AcDbArc
 50
0.0
 51
90.0
  0
LINE
  5
135
330
102
100
AcDbEntity
  8
0
  6
Continuous
 62
     1
370
    15
100
AcDbLine
 10
2.911443662
 20
7.0599929577
 30
0.0
 11
8.959943662
 21
7.0599929577
 31
0.0
  0
ARC
  5
136
330
102
100
AcDbEntity
  8
0
  6
Continuous
 62
     1
370
    15
100
AcDbCircle
 10
2.911443662
 20
6.3099929577
 30
0.0
 40
0.7500000000000004
100
AcDbArc
 50
90.0
 51
180.0
  0
LINE
  5
137
330
102
100
AcDbEntity
  8
0
  6
Continuous
 62
     1
370
    15
100
AcDbLine
 10
19.834943662
 20
5.5114929577
 30
0.0
 11
19.959943662
 21
5.5114929577
 31
0.0
  0
LINE
  5
138
330
102
100
AcDbEntity
  8
0
  6
Continuous
 62
     1
370
    15
100
AcDbLine
 10
19.959943662
 20
8.0599929577
 30
0.0
 11
19.959943662
 21
5.5114929577
 31
0.0
  0
LINE
  5
139
330
102
100
AcDbEntity
  8
0
  6
Continuous
 62
     1
370
    15
100
AcDbLine
 10
19.959943662
 20
8.0599929577
 30
0.0
 11
16.459943662
 21
8.0599929577
 31
0.0
  0
LINE
  5
13A
330
102
100
AcDbEntity
  8
0
  6
Continuous
 62
     1
370
    15
100
AcDbLine
 10
16.459943662
 20
0.9629929577
 30
0.0
 11
19.959943662
 21
0.9629929577
 31
0.0
  0
LINE
  5
13B
330
102
100
AcDbEntity
  8
0
  6
Continuous
 62
     1
370
    15
100
AcDbLine
 10
19.959943662
 20
3.5114929577
 30
0.0
 11
19.959943662
 21
0.9629929577
 31
0.0
  0
LINE
  5
13C
330
102
100
AcDbEntity
  8
0
  6
Continuous
 62
     1
370
    15
100
AcDbLine
 10
19.959943662
 20
3.5114929577
 30
0.0
 11
19.834943662
 21
3.5114929577
 31
0.0
  0
LINE
  5
13D
330
102
100
AcDbEntity
  8
0
  6
Continuous
 62
     1
370
    15
100
AcDbLine
 10
19.834943662
 20
3.5114929577
 30
0.0
 11
19.834943662
 21
5.5114929577
 31
0.0
  0
ENDBLK
  5
105
330
102
100
AcDbEntity
  8
0
100
AcDbBlockEnd
  0
BLOCK
  5
140
330
13E
100
AcDbEntity
  8
0
100
AcDbBlockBegin
  2
*Paper_Space2
 70
     0
 10
0.0
 20
0.0
 30
0.0
  3
*Paper_Space2
  1
*Paper_Space2
  0
LINE
  5
142
330
13E
100
AcDbEntity
  8
0
  6
Continuous
 62
     1
370
    15
100
AcDbLine
 10
20.0118400325
 20
5.1003513824
 30
0.0
 11
20.0118400325
 21
3.1003513824
 31
0.0
  0
LINE
  5
143
330
13E
100
AcDbEntity
  8
0
  6
Continuous
 62
     1
370
    15
100
AcDbLine
 10
20.0118400325
 20
3.1003513824
 30
0.0
 11
20.2618400325
 21
3.1003513824
 31
0.0
  0
LINE
  5
144
330
13E
100
AcDbEntity
  8
0
  6
Continuous
 62
     1
370
    15
100
AcDbLine
 10
20.2618400325
 20
5.1003513824
 30
0.0
 11
20.2618400325
 21
3.1003513824
 31
0.0
  0
LINE
  5
145
330
13E
100
AcDbEntity
  8
0
  6
Continuous
 62
     1
370
    15
100
AcDbLine
 10
20.0118400325
 20
5.1003513824
 30
0.0
 11
20.2618400325
 21
5.1003513824
 31
0.0
  0
LINE
  5
146
330
13E
100
AcDbEntity
  8
0
  6
Continuous
 62
     1
370
    15
100
AcDbLine
 10
10.9739350227
 20
5.2029415115
 30
0.0
 11
10.9739350227
 21
3.2029415115
 31
0.0
  0
LINE
  5
147
330
13E
100
AcDbEntity
  8
0
  6
Continuous
 62
     1
370
    15
100
AcDbLine
 10
10.9739350227
 20
3.2029415115
 30
0.0
 11
11.0989350227
 21
3.2029415115
 31
0.0
  0
LINE
  5
148
330
13E
100
AcDbEntity
  8
0
  6
Continuous
 62
     1
370
    15
100
AcDbLine
 10
11.0989350227
 20
5.2029415115
 30
0.0
 11
11.0989350227
 21
3.2029415115
 31
0.0
  0
LINE
  5
149
330
13E
100
AcDbEntity
  8
0
  6
Continuous
 62
     1
370
    15
100
AcDbLine
 10
10.9739350227
 20
5.2029415115
 30
0.0
 11
11.0989350227
 21
5.2029415115
 31
0.0
  0
LINE
  5
14A
330
13E
100
AcDbEntity
  8
0
  6
Continuous
 62
     1
370
    15
100
AcDbLine
 10
17.9960462785
 20
3.2029415115
 30
0.0
 11
17.9960462785
 21
5.2029415115
 31
0.0
  0
LINE
  5
14B
330
13E
100
AcDbEntity
  8
0
  6
Continuous
 62
     1
370
    15
100
AcDbLine
 10
17.9960462785
 20
5.2029415115
 30
0.0
 11
17.8710462785
 21
5.2029415115
 31
0.0
  0
LINE
  5
14C
330
13E
100
AcDbEntity
  8
0
  6
Continuous
 62
     1
370
    15
100
AcDbLine
 10
17.8710462785
 20
3.2029415115
 30
0.0
 11
17.8710462785
 21
5.2029415115
 31
0.0
  0
LINE
  5
14D
330
13E
100
AcDbEntity
  8
0
  6
Continuous
 62
     1
370
    15
100
AcDbLine
 10
17.9960462785
 20
3.2029415115
 30
0.0
 11
17.8710462785
 21
3.2029415115
 31
0.0
  0
LINE
  5
14E
330
13E
100
AcDbEntity
  8
0
  6
Continuous
 62
     1
370
    15
100
AcDbLine
 10
2.1923475146
 20
3.4461107201
 30
0.0
 11
2.1923475146
 21
5.5732401589
 31
0.0
  0
ARC
  5
14F
330
13E
100
AcDbEntity
  8
0
  6
Continuous
 62
     1
370
    15
100
AcDbCircle
 10
2.9423475146
 20
3.4461107201
 30
0.0
 40
0.75
100
AcDbArc
 50
180.0
 51
270.0
  0
LINE
  5
150
330
13E
100
AcDbEntity
  8
0
  6
Continuous
 62
     1
370
    15
100
AcDbLine
 10
9.2864350227
 20
2.6961107201
 30
0.0
 11
2.9423475146
 21
2.6961107201
 31
0.0
  0
ARC
  5
151
330
13E
100
AcDbEntity
  8
0
  6
Continuous
 62
     1
370
    15
100
AcDbCircle
 10
9.2864350227
 20
3.4461107201
 30
0.0
 40
0.7500000000000018
100
AcDbArc
 50
270.0
 51
0.0
  0
LINE
  5
152
330
13E
100
AcDbEntity
  8
0
  6
Continuous
 62
     1
370
    15
100
AcDbLine
 10
10.0364350227
 20
5.2893722511
 30
0.0
 11
10.0364350227
 21
3.4461107201
 31
0.0
  0
ARC
  5
153
330
13E
100
AcDbEntity
  8
0
  6
Continuous
 62
     1
370
    15
100
AcDbCircle
 10
9.2864350227
 20
5.2893722511
 30
0.0
 40
0.7500000000000018
100
AcDbArc
 50
0.0
 51
87.4379938004
  0
LINE
  5
154
330
13E
100
AcDbEntity
  8
0
  6
Continuous
 62
     1
370
    15
100
AcDbLine
 10
2.9758729225
 20
6.3224904823
 30
0.0
 11
9.3199604307
 21
6.0386225744
 31
0.0
  0
ARC
  5
155
330
13E
100
AcDbEntity
  8
0
  6
Continuous
 62
     1
370
    15
100
AcDbCircle
 10
2.9423475146
 20
5.5732401589
 30
0.0
 40
0.7500000000000002
100
AcDbArc
 50
87.4379938004
 51
180.0
  0
LINE
  5
156
330
13E
100
AcDbEntity
  8
0
  6
Continuous
 62
     1
370
    15
100
AcDbLine
 10
16.2460462785
 20
2.6961107201
 30
0.0
 11
12.7864350227
 21
2.6961107201
 31
0.0
  0
ARC
  5
157
330
13E
100
AcDbEntity
  8
0
  6
Continuous
 62
     1
370
    15
100
AcDbCircle
 10
16.2460462785
 20
3.4461107201
 30
0.0
 40
0.75
100
AcDbArc
 50
270.0
 51
0.0
  0
LINE
  5
158
330
13E
100
AcDbEntity
  8
0
  6
Continuous
 62
     1
370
    15
100
AcDbLine
 10
16.9960462785
 20
4.8996233777
 30
0.0
 11
16.9960462785
 21
3.4461107201
 31
0.0
  0
ARC
  5
159
330
13E
100
AcDbEntity
  8
0
  6
Continuous
 62
     1
370
    15
100
AcDbCircle
 10
16.2460462785
 20
4.8996233777
 30
0.0
 40
0.75
100
AcDbArc
 50
0.0
 51
85.0156645869
  0
LINE
  5
15A
330
13E
100
AcDbEntity
  8
0
  6
Continuous
 62
     1
370
    15
100
AcDbLine
 10
14.4665408927
 20
5.8076665979
 30
0.0
 11
16.3112088144
 21
5.6467872446
 31
0.0
  0
ARC
  5
15B
330
13E
100
AcDbEntity
  8
0
  6
Continuous
 62
     1
370
    15
100
AcDbCircle
 10
14.4013783567
 20
5.0605027311
 30
0.0
 40
0.75
100
AcDbArc
 50
85.0156645869
 51
87.4379938004
  0
LINE
  5
15C
330
13E
100
AcDbEntity
  8
0
  6
Continuous
 62
     1
370
    15
100
AcDbLine
 10
12.8199604307
 20
5.8820141298
 30
0.0
 11
14.4349037647
 21
5.8097530544
 31
0.0
  0
ARC
  5
15D
330
13E
100
AcDbEntity
  8
0
  6
Continuous
 62
     1
370
    15
100
AcDbCircle
 10
12.7864350227
 20
5.1327638064
 30
0.0
 40
0.7500000000000018
100
AcDbArc
 50
87.4379938004
 51
180.0
  0
LINE
  5
15E
330
13E
100
AcDbEntity
  8
0
  6
Continuous
 62
     1
370
    15
100
AcDbLine
 10
12.0364350227
 20
3.4461107201
 30
0.0
 11
12.0364350227
 21
5.1327638064
 31
0.0
  0
ARC
  5
15F
330
13E
100
AcDbEntity
  8
0
  6
Continuous
 62
     1
370
    15
100
AcDbCircle
 10
12.7864350227
 20
3.4461107201
 30
0.0
 40
0.7500000000000018
100
AcDbArc
 50
180.0
 51
270.0
  0
LINE
  5
160
330
13E
100
AcDbEntity
  8
0
  6
Continuous
 62
     1
370
    15
100
AcDbLine
 10
8.9184096599
 20
7.0575906411
 30
0.0
 11
8.9072345239
 21
6.8078405333
 31
0.0
  0
LINE
  5
161
330
13E
100
AcDbEntity
  8
0
  6
Continuous
 62
     1
370
    15
100
AcDbLine
 10
10.9052353861
 20
6.7184394454
 30
0.0
 11
8.9072345239
 21
6.8078405333
 31
0.0
  0
LINE
  5
162
330
13E
100
AcDbEntity
  8
0
  6
Continuous
 62
     1
370
    15
100
AcDbLine
 10
10.9164105221
 20
6.9681895532
 30
0.0
 11
10.9052353861
 21
6.7184394454
 31
0.0
  0
LINE
  5
163
330
13E
100
AcDbEntity
  8
0
  6
Continuous
 62
     1
370
    15
100
AcDbLine
 10
10.9164105221
 20
6.9681895532
 30
0.0
 11
8.9184096599
 21
7.0575906411
 31
0.0
  0
LINE
  5
164
330
13E
100
AcDbEntity
  8
0
  6
Continuous
 62
     1
370
    15
100
AcDbLine
 10
5.0959770925
 20
6.9783762757
 30
0.0
 11
3.0979762303
 21
7.0677773636
 31
0.0
  0
LINE
  5
165
330
13E
100
AcDbEntity
  8
0
  6
Continuous
 62
     1
370
    15
100
AcDbLine
 10
5.1071522285
 20
7.2281263835
 30
0.0
 11
5.0959770925
 21
6.9783762757
 31
0.0
  0
LINE
  5
166
330
13E
100
AcDbEntity
  8
0
  6
Continuous
 62
     1
370
    15
100
AcDbLine
 10
5.1071522285
 20
7.2281263835
 30
0.0
 11
3.1091513663
 21
7.3175274714
 31
0.0
  0
LINE
  5
167
330
13E
100
AcDbEntity
  8
0
  6
Continuous
 62
     1
370
    15
100
AcDbLine
 10
3.1091513663
 20
7.3175274714
 30
0.0
 11
3.0979762303
 21
7.0677773636
 31
0.0
  0
LINE
  5
168
330
13E
100
AcDbEntity
  8
0
  6
Continuous
 62
     1
370
    15
100
AcDbLine
 10
14.5813043935
 20
7.0524025394
 30
0.0
 11
13.1589994867
 21
7.1764462716
 31
0.0
  0
LINE
  5
169
330
13E
100
AcDbEntity
  8
0
  6
Continuous
 62
     1
370
    15
100
AcDbLine
 10
14.5637973921
 20
6.8516645139
 30
0.0
 11
14.5813043935
 21
7.0524025394
 31
0.0
  0
LINE
  5
16A
330
13E
100
AcDbEntity
  8
0
  6
Continuous
 62
     1
370
    15
100
AcDbLine
 10
14.5637973921
 20
6.8516645139
 30
0.0
 11
16.5562343704
 21
6.6778977514
 31
0.0
  0
LINE
  5
16B
330
13E
100
AcDbEntity
  8
0
  6
Continuous
 62
     1
370
    15
100
AcDbLine
 10
16.5562343704
 20
6.6778977514
 30
0.0
 11
16.5737413717
 21
6.8786357769
 31
0.0
  0
LINE
  5
16C
330
13E
100
AcDbEntity
  8
0
  6
Continuous
 62
     1
370
    15
100
AcDbLine
 10
17.9960462785
 20
6.7545920448
 30
0.0
 11
16.5737413717
 21
6.8786357769
 31
0.0
  0
LINE
  5
16D
330
13E
100
AcDbEntity
  8
0
  6
Continuous
 62
     1
370
    15
100
AcDbLine
 10
23.0118400325
 20
5.8503513824
 30
0.0
 11
17.9960462785
 21
6.7545920448
 31
0.0
  0
LINE
  5
16E
330
13E
100
AcDbEntity
  8
0
  6
Continuous
 62
     1
370
    15
100
AcDbLine
 10
23.0118400325
 20
2.3503513824
 30
0.0
 11
23.0118400325
 21
5.8503513824
 31
0.0
  0
LINE
  5
16F
330
13E
100
AcDbEntity
  8
0
  6
Continuous
 62
     1
370
    15
100
AcDbLine
 10
17.9960462785
 20
1.4461107201
 30
0.0
 11
23.0118400325
 21
2.3503513824
 31
0.0
  0
LINE
  5
170
330
13E
100
AcDbEntity
  8
0
  6
Continuous
 62
     1
370
    15
100
AcDbLine
 10
15.998207211
 20
1.4461107201
 30
0.0
 11
17.9960462785
 21
1.4461107201
 31
0.0
  0
LINE
  5
171
330
13E
100
AcDbEntity
  8
0
  6
Continuous
 62
     1
370
    15
100
AcDbLine
 10
15.998207211
 20
1.6961107201
 30
0.0
 11
15.998207211
 21
1.4461107201
 31
0.0
  0
LINE
  5
172
330
13E
100
AcDbEntity
  8
0
  6
Continuous
 62
     1
370
    15
100
AcDbLine
 10
13.998207211
 20
1.6961107201
 30
0.0
 11
15.998207211
 21
1.6961107201
 31
0.0
  0
LINE
  5
173
330
13E
100
AcDbEntity
  8
0
  6
Continuous
 62
     1
370
    15
100
AcDbLine
 10
13.998207211
 20
1.6961107201
 30
0.0
 11
13.998207211
 21
1.4461107201
 31
0.0
  0
LINE
  5
174
330
13E
100
AcDbEntity
  8
0
  6
Continuous
 62
     1
370
    15
100
AcDbLine
 10
10.4901968965
 20
1.4461107201
 30
0.0
 11
13.998207211
 21
1.4461107201
 31
0.0
  0
LINE
  5
175
330
13E
100
AcDbEntity
  8
0
  6
Continuous
 62
     1
370
    15
100
AcDbLine
 10
10.4901968965
 20
1.4461107201
 30
0.0
 11
10.4901968965
 21
1.6961107201
 31
0.0
  0
LINE
  5
176
330
13E
100
AcDbEntity
  8
0
  6
Continuous
 62
     1
370
    15
100
AcDbLine
 10
8.4901968965
 20
1.6961107201
 30
0.0
 11
10.4901968965
 21
1.6961107201
 31
0.0
  0
LINE
  5
177
330
13E
100
AcDbEntity
  8
0
  6
Continuous
 62
     1
370
    15
100
AcDbLine
 10
8.4901968965
 20
1.6961107201
 30
0.0
 11
8.4901968965
 21
1.4461107201
 31
0.0
  0
LINE
  5
178
330
13E
100
AcDbEntity
  8
0
  6
Continuous
 62
     1
370
    15
100
AcDbLine
 10
4.982186582
 20
1.4461107201
 30
0.0
 11
8.4901968965
 21
1.4461107201
 31
0.0
  0
LINE
  5
179
330
13E
100
AcDbEntity
  8
0
  6
Continuous
 62
     1
370
    15
100
AcDbLine
 10
4.982186582
 20
1.4461107201
 30
0.0
 11
4.982186582
 21
1.6961107201
 31
0.0
  0
LINE
  5
17A
330
13E
100
AcDbEntity
  8
0
  6
Continuous
 62
     1
370
    15
100
AcDbLine
 10
2.982186582
 20
1.6961107201
 30
0.0
 11
4.982186582
 21
1.6961107201
 31
0.0
  0
LINE
  5
17B
330
13E
100
AcDbEntity
  8
0
  6
Continuous
 62
     1
370
    15
100
AcDbLine
 10
2.982186582
 20
1.6961107201
 30
0.0
 11
2.982186582
 21
1.4461107201
 31
0.0
  0
LINE
  5
17C
330
13E
100
AcDbEntity
  8
0
  6
Continuous
 62
     1
370
    15
100
AcDbLine
 10
0.9423475146
 20
1.4461107201
 30
0.0
 11
2.982186582
 21
1.4461107201
 31
0.0
  0
LINE
  5
17D
330
13E
100
AcDbEntity
  8
0
  6
Continuous
 62
     1
370
    15
100
AcDbLine
 10
0.9423475146
 20
3.6961107201
 30
0.0
 11
0.9423475146
 21
1.4461107201
 31
0.0
  0
LINE
  5
17E
330
13E
100
AcDbEntity
  8
0
  6
Continuous
 62
     1
370
    15
100
AcDbLine
 10
1.0673475146
 20
3.6961107201
 30
0.0
 11
0.9423475146
 21
3.6961107201
 31
0.0
  0
LINE
  5
17F
330
13E
100
AcDbEntity
  8
0
  6
Continuous
 62
     1
370
    15
100
AcDbLine
 10
1.0673475146
 20
5.6961107201
 30
0.0
 11
1.0673475146
 21
3.6961107201
 31
0.0
  0
LINE
  5
180
330
13E
100
AcDbEntity
  8
0
  6
Continuous
 62
     1
370
    15
100
AcDbLine
 10
0.9423475146
 20
5.6961107201
 30
0.0
 11
1.0673475146
 21
5.6961107201
 31
0.0
  0
LINE
  5
181
330
13E
100
AcDbEntity
  8
0
  6
Continuous
 62
     1
370
    15
100
AcDbLine
 10
0.9423475146
 20
7.9461107201
 30
0.0
 11
0.9423475146
 21
5.6961107201
 31
0.0
  0
LINE
  5
182
330
13E
100
AcDbEntity
  8
0
  6
Continuous
 62
     1
370
    15
100
AcDbLine
 10
2.4838522293
 20
7.9461107201
 30
0.0
 11
0.9423475146
 21
7.9461107201
 31
0.0
  0
LINE
  5
183
330
13E
100
AcDbEntity
  8
0
  6
Continuous
 62
     1
370
    15
100
AcDbLine
 10
13.1589994867
 20
7.1764462716
 30
0.0
 11
2.4838522293
 21
7.9461107201
 31
0.0
  0
ENDBLK
  5
141
330
13E
100
AcDbEntity
  8
0
100
AcDbBlockEnd
  0
BLOCK
  5
186
330
184
100
AcDbEntity
  8
0
100
AcDbBlockBegin
  2
*Paper_Space3
 70
     0
 10
0.0
 20
0.0
 30
0.0
  3
*Paper_Space3
  1
*Paper_Space3
  0
LINE
  5
188
330
184
100
AcDbEntity
  8
0
  6
Continuous
 62
     1
370
    15
100
AcDbLine
 10
3.3474790931
 20
5.5823251694
 30
0.0
 11
3.3474790931
 21
3.5823251694
 31
0.0
  0
LINE
  5
189
330
184
100
AcDbEntity
  8
0
  6
Continuous
 62
     1
370
    15
100
AcDbLine
 10
3.5974790931
 20
3.5823251694
 30
0.0
 11
3.3474790931
 21
3.5823251694
 31
0.0
  0
LINE
  5
18A
330
184
100
AcDbEntity
  8
0
  6
Continuous
 62
     1
370
    15
100
AcDbLine
 10
3.5974790931
 20
5.5823251694
 30
0.0
 11
3.5974790931
 21
3.5823251694
 31
0.0
  0
LINE
  5
18B
330
184
100
AcDbEntity
  8
0
  6
Continuous
 62
     1
370
    15
100
AcDbLine
 10
3.5974790931
 20
5.5823251694
 30
0.0
 11
3.3474790931
 21
5.5823251694
 31
0.0
  0
LINE
  5
18C
330
184
100
AcDbEntity
  8
0
  6
Continuous
 62
     1
370
    15
100
AcDbLine
 10
12.5103841029
 20
5.6849152985
 30
0.0
 11
12.5103841029
 21
3.6849152985
 31
0.0
  0
LINE
  5
18D
330
184
100
AcDbEntity
  8
0
  6
Continuous
 62
     1
370
    15
100
AcDbLine
 10
12.6353841029
 20
3.6849152985
 30
0.0
 11
12.5103841029
 21
3.6849152985
 31
0.0
  0
LINE
  5
18E
330
184
100
AcDbEntity
  8
0
  6
Continuous
 62
     1
370
    15
100
AcDbLine
 10
12.6353841029
 20
5.6849152985
 30
0.0
 11
12.6353841029
 21
3.6849152985
 31
0.0
  0
LINE
  5
18F
330
184
100
AcDbEntity
  8
0
  6
Continuous
 62
     1
370
    15
100
AcDbLine
 10
12.6353841029
 20
5.6849152985
 30
0.0
 11
12.5103841029
 21
5.6849152985
 31
0.0
  0
LINE
  5
190
330
184
100
AcDbEntity
  8
0
  6
Continuous
 62
     1
370
    15
100
AcDbLine
 10
5.7382728472
 20
3.6849152985
 30
0.0
 11
5.7382728472
 21
5.6849152985
 31
0.0
  0
LINE
  5
191
330
184
100
AcDbEntity
  8
0
  6
Continuous
 62
     1
370
    15
100
AcDbLine
 10
5.6132728472
 20
5.6849152985
 30
0.0
 11
5.7382728472
 21
5.6849152985
 31
0.0
  0
LINE
  5
192
330
184
100
AcDbEntity
  8
0
  6
Continuous
 62
     1
370
    15
100
AcDbLine
 10
5.6132728472
 20
3.6849152985
 30
0.0
 11
5.6132728472
 21
5.6849152985
 31
0.0
  0
LINE
  5
193
330
184
100
AcDbEntity
  8
0
  6
Continuous
 62
     1
370
    15
100
AcDbLine
 10
5.6132728472
 20
3.6849152985
 30
0.0
 11
5.7382728472
 21
3.6849152985
 31
0.0
  0
LINE
  5
194
330
184
100
AcDbEntity
  8
0
  6
Continuous
 62
     1
370
    15
100
AcDbLine
 10
20.6334462031
 20
6.8044642693
 30
0.0
 11
14.289358695
 21
6.5205963614
 31
0.0
  0
ARC
  5
195
330
184
100
AcDbEntity
  8
0
  6
Continuous
 62
     1
370
    15
100
AcDbCircle
 10
14.3228841029
 20
5.7713460381
 30
0.0
 40
0.7500000000000018
100
AcDbArc
 50
92.5620061996
 51
180.0
  0
LINE
  5
196
330
184
100
AcDbEntity
  8
0
  6
Continuous
 62
     1
370
    15
100
AcDbLine
 10
13.5728841029
 20
5.7713460381
 30
0.0
 11
13.5728841029
 21
3.928084507
 31
0.0
  0
ARC
  5
197
330
184
100
AcDbEntity
  8
0
  6
Continuous
 62
     1
370
    15
100
AcDbCircle
 10
14.3228841029
 20
3.928084507
 30
0.0
 40
0.7500000000000018
100
AcDbArc
 50
180.0
 51
270.0
  0
LINE
  5
198
330
184
100
AcDbEntity
  8
0
  6
Continuous
 62
     1
370
    15
100
AcDbLine
 10
14.3228841029
 20
3.178084507
 30
0.0
 11
20.6669716111
 21
3.178084507
 31
0.0
  0
ARC
  5
199
330
184
100
AcDbEntity
  8
0
  6
Continuous
 62
     1
370
    15
100
AcDbCircle
 10
20.6669716111
 20
3.928084507
 30
0.0
 40
0.75
100
AcDbArc
 50
270.0
 51
0.0
  0
LINE
  5
19A
330
184
100
AcDbEntity
  8
0
  6
Continuous
 62
     1
370
    15
100
AcDbLine
 10
21.4169716111
 20
3.928084507
 30
0.0
 11
21.4169716111
 21
6.0552139459
 31
0.0
  0
ARC
  5
19B
330
184
100
AcDbEntity
  8
0
  6
Continuous
 62
     1
370
    15
100
AcDbCircle
 10
20.6669716111
 20
6.0552139459
 30
0.0
 40
0.7500000000000001
100
AcDbArc
 50
0.0
 51
92.5620061996
  0
LINE
  5
19C
330
184
100
AcDbEntity
  8
0
  6
Continuous
 62
     1
370
    15
100
AcDbLine
 10
11.5728841029
 20
3.928084507
 30
0.0
 11
11.5728841029
 21
5.6147375934
 31
0.0
  0
ARC
  5
19D
330
184
100
AcDbEntity
  8
0
  6
Continuous
 62
     1
370
    15
100
AcDbCircle
 10
10.8228841029
 20
5.6147375934
 30
0.0
 40
0.7500000000000018
100
AcDbArc
 50
0.0
 51
92.5620061996
  0
LINE
  5
19E
330
184
100
AcDbEntity
  8
0
  6
Continuous
 62
     1
370
    15
100
AcDbLine
 10
10.789358695
 20
6.3639879167
 30
0.0
 11
9.174415361
 21
6.2917268414
 31
0.0
  0
ARC
  5
19F
330
184
100
AcDbEntity
  8
0
  6
Continuous
 62
     1
370
    15
100
AcDbCircle
 10
9.2079407689
 20
5.542476518
 30
0.0
 40
0.7500000000000001
100
AcDbArc
 50
92.5620061996
 51
94.9843354131
  0
LINE
  5
1A0
330
184
100
AcDbEntity
  8
0
  6
Continuous
 62
     1
370
    15
100
AcDbLine
 10
9.142778233
 20
6.2896403849
 30
0.0
 11
7.2981103113
 21
6.1287610316
 31
0.0
  0
ARC
  5
1A1
330
184
100
AcDbEntity
  8
0
  6
Continuous
 62
     1
370
    15
100
AcDbCircle
 10
7.3632728472
 20
5.3815971647
 30
0.0
 40
0.75
100
AcDbArc
 50
94.9843354131
 51
180.0
  0
LINE
  5
1A2
330
184
100
AcDbEntity
  8
0
  6
Continuous
 62
     1
370
    15
100
AcDbLine
 10
6.6132728472
 20
5.3815971647
 30
0.0
 11
6.6132728472
 21
3.928084507
 31
0.0
  0
ARC
  5
1A3
330
184
100
AcDbEntity
  8
0
  6
Continuous
 62
     1
370
    15
100
AcDbCircle
 10
7.3632728472
 20
3.928084507
 30
0.0
 40
0.7500000000000027
100
AcDbArc
 50
180.0
 51
270.0
  0
LINE
  5
1A4
330
184
100
AcDbEntity
  8
0
  6
Continuous
 62
     1
370
    15
100
AcDbLine
 10
7.3632728472
 20
3.178084507
 30
0.0
 11
10.8228841029
 21
3.178084507
 31
0.0
  0
ARC
  5
1A5
330
184
100
AcDbEntity
  8
0
  6
Continuous
 62
     1
370
    15
100
AcDbCircle
 10
10.8228841029
 20
3.928084507
 30
0.0
 40
0.7500000000000018
100
AcDbArc
 50
270.0
 51
0.0
  0
LINE
  5
1A6
330
184
100
AcDbEntity
  8
0
  6
Continuous
 62
     1
370
    15
100
AcDbLine
 10
12.6929086035
 20
7.4501633402
 30
0.0
 11
12.7040837395
 21
7.2004132324
 31
0.0
  0
LINE
  5
1A7
330
184
100
AcDbEntity
  8
0
  6
Continuous
 62
     1
370
    15
100
AcDbLine
 10
12.7040837395
 20
7.2004132324
 30
0.0
 11
14.7020846018
 21
7.2898143203
 31
0.0
  0
LINE
  5
1A8
330
184
100
AcDbEntity
  8
0
  6
Continuous
 62
     1
370
    15
100
AcDbLine
 10
14.6909094658
 20
7.5395644281
 30
0.0
 11
14.7020846018
 21
7.2898143203
 31
0.0
  0
LINE
  5
1A9
330
184
100
AcDbEntity
  8
0
  6
Continuous
 62
     1
370
    15
100
AcDbLine
 10
12.6929086035
 20
7.4501633402
 30
0.0
 11
14.6909094658
 21
7.5395644281
 31
0.0
  0
LINE
  5
1AA
330
184
100
AcDbEntity
  8
0
  6
Continuous
 62
     1
370
    15
100
AcDbLine
 10
18.5021668972
 20
7.7101001705
 30
0.0
 11
20.5001677594
 21
7.7995012583
 31
0.0
  0
LINE
  5
1AB
330
184
100
AcDbEntity
  8
0
  6
Continuous
 62
     1
370
    15
100
AcDbLine
 10
18.5021668972
 20
7.7101001705
 30
0.0
 11
18.5133420332
 21
7.4603500627
 31
0.0
  0
LINE
  5
1AC
330
184
100
AcDbEntity
  8
0
  6
Continuous
 62
     1
370
    15
100
AcDbLine
 10
18.5133420332
 20
7.4603500627
 30
0.0
 11
20.5113428954
 21
7.5497511506
 31
0.0
  0
LINE
  5
1AD
330
184
100
AcDbEntity
  8
0
  6
Continuous
 62
     1
370
    15
100
AcDbLine
 10
20.5001677594
 20
7.7995012583
 30
0.0
 11
20.5113428954
 21
7.5497511506
 31
0.0
  0
LINE
  5
1AE
330
184
100
AcDbEntity
  8
0
  6
Continuous
 62
     1
370
    15
100
AcDbLine
 10
21.1254668963
 20
8.428084507
 30
0.0
 11
22.6669716111
 21
8.428084507
 31
0.0
  0
LINE
  5
1AF
330
184
100
AcDbEntity
  8
0
  6
Continuous
 62
     1
370
    15
100
AcDbLine
 10
22.6669716111
 20
8.428084507
 30
0.0
 11
22.6669716111
 21
6.178084507
 31
0.0
  0
LINE
  5
1B0
330
184
100
AcDbEntity
  8
0
  6
Continuous
 62
     1
370
    15
100
AcDbLine
 10
22.6669716111
 20
6.178084507
 30
0.0
 11
22.5419716111
 21
6.178084507
 31
0.0
  0
LINE
  5
1B1
330
184
100
AcDbEntity
  8
0
  6
Continuous
 62
     1
370
    15
100
AcDbLine
 10
22.5419716111
 20
6.178084507
 30
0.0
 11
22.5419716111
 21
4.178084507
 31
0.0
  0
LINE
  5
1B2
330
184
100
AcDbEntity
  8
0
  6
Continuous
 62
     1
370
    15
100
AcDbLine
 10
22.5419716111
 20
4.178084507
 30
0.0
 11
22.6669716111
 21
4.178084507
 31
0.0
  0
LINE
  5
1B3
330
184
100
AcDbEntity
  8
0
  6
Continuous
 62
     1
370
    15
100
AcDbLine
 10
22.6669716111
 20
4.178084507
 30
0.0
 11
22.6669716111
 21
1.928084507
 31
0.0
  0
LINE
  5
1B4
330
184
100
AcDbEntity
  8
0
  6
Continuous
 62
     1
370
    15
100
AcDbLine
 10
22.6669716111
 20
1.928084507
 30
0.0
 11
20.6271325436
 21
1.928084507
 31
0.0
  0
LINE
  5
1B5
330
184
100
AcDbEntity
  8
0
  6
Continuous
 62
     1
370
    15
100
AcDbLine
 10
20.6271325436
 20
2.178084507
 30
0.0
 11
20.6271325436
 21
1.928084507
 31
0.0
  0
LINE
  5
1B6
330
184
100
AcDbEntity
  8
0
  6
Continuous
 62
     1
370
    15
100
AcDbLine
 10
20.6271325436
 20
2.178084507
 30
0.0
 11
18.6271325436
 21
2.178084507
 31
0.0
  0
LINE
  5
1B7
330
184
100
AcDbEntity
  8
0
  6
Continuous
 62
     1
370
    15
100
AcDbLine
 10
18.6271325436
 20
1.928084507
 30
0.0
 11
18.6271325436
 21
2.178084507
 31
0.0
  0
LINE
  5
1B8
330
184
100
AcDbEntity
  8
0
  6
Continuous
 62
     1
370
    15
100
AcDbLine
 10
18.6271325436
 20
1.928084507
 30
0.0
 11
15.1191222292
 21
1.928084507
 31
0.0
  0
LINE
  5
1B9
330
184
100
AcDbEntity
  8
0
  6
Continuous
 62
     1
370
    15
100
AcDbLine
 10
15.1191222292
 20
2.178084507
 30
0.0
 11
15.1191222292
 21
1.928084507
 31
0.0
  0
LINE
  5
1BA
330
184
100
AcDbEntity
  8
0
  6
Continuous
 62
     1
370
    15
100
AcDbLine
 10
15.1191222292
 20
2.178084507
 30
0.0
 11
13.1191222292
 21
2.178084507
 31
0.0
  0
LINE
  5
1BB
330
184
100
AcDbEntity
  8
0
  6
Continuous
 62
     1
370
    15
100
AcDbLine
 10
13.1191222292
 20
1.928084507
 30
0.0
 11
13.1191222292
 21
2.178084507
 31
0.0
  0
LINE
  5
1BC
330
184
100
AcDbEntity
  8
0
  6
Continuous
 62
     1
370
    15
100
AcDbLine
 10
13.1191222292
 20
1.928084507
 30
0.0
 11
9.6111119147
 21
1.928084507
 31
0.0
  0
LINE
  5
1BD
330
184
100
AcDbEntity
  8
0
  6
Continuous
 62
     1
370
    15
100
AcDbLine
 10
9.6111119147
 20
2.178084507
 30
0.0
 11
9.6111119147
 21
1.928084507
 31
0.0
  0
LINE
  5
1BE
330
184
100
AcDbEntity
  8
0
  6
Continuous
 62
     1
370
    15
100
AcDbLine
 10
9.6111119147
 20
2.178084507
 30
0.0
 11
7.6111119147
 21
2.178084507
 31
0.0
  0
LINE
  5
1BF
330
184
100
AcDbEntity
  8
0
  6
Continuous
 62
     1
370
    15
100
AcDbLine
 10
7.6111119147
 20
2.178084507
 30
0.0
 11
7.6111119147
 21
1.928084507
 31
0.0
  0
LINE
  5
1C0
330
184
100
AcDbEntity
  8
0
  6
Continuous
 62
     1
370
    15
100
AcDbLine
 10
7.6111119147
 20
1.928084507
 30
0.0
 11
5.6132728472
 21
1.928084507
 31
0.0
  0
LINE
  5
1C1
330
184
100
AcDbEntity
  8
0
  6
Continuous
 62
     1
370
    15
100
AcDbLine
 10
5.6132728472
 20
1.928084507
 30
0.0
 11
0.5974790931
 21
2.8323251694
 31
0.0
  0
LINE
  5
1C2
330
184
100
AcDbEntity
  8
0
  6
Continuous
 62
     1
370
    15
100
AcDbLine
 10
0.5974790931
 20
2.8323251694
 30
0.0
 11
0.5974790931
 21
6.3323251694
 31
0.0
  0
LINE
  5
1C3
330
184
100
AcDbEntity
  8
0
  6
Continuous
 62
     1
370
    15
100
AcDbLine
 10
0.5974790931
 20
6.3323251694
 30
0.0
 11
5.6132728472
 21
7.2365658317
 31
0.0
  0
LINE
  5
1C4
330
184
100
AcDbEntity
  8
0
  6
Continuous
 62
     1
370
    15
100
AcDbLine
 10
5.6132728472
 20
7.2365658317
 30
0.0
 11
7.035577754
 21
7.3606095639
 31
0.0
  0
LINE
  5
1C5
330
184
100
AcDbEntity
  8
0
  6
Continuous
 62
     1
370
    15
100
AcDbLine
 10
7.0530847553
 20
7.1598715384
 30
0.0
 11
7.035577754
 21
7.3606095639
 31
0.0
  0
LINE
  5
1C6
330
184
100
AcDbEntity
  8
0
  6
Continuous
 62
     1
370
    15
100
AcDbLine
 10
9.0455217335
 20
7.3336383008
 30
0.0
 11
7.0530847553
 21
7.1598715384
 31
0.0
  0
LINE
  5
1C7
330
184
100
AcDbEntity
  8
0
  6
Continuous
 62
     1
370
    15
100
AcDbLine
 10
9.0455217335
 20
7.3336383008
 30
0.0
 11
9.0280147322
 21
7.5343763264
 31
0.0
  0
LINE
  5
1C8
330
184
100
AcDbEntity
  8
0
  6
Continuous
 62
     1
370
    15
100
AcDbLine
 10
9.0280147322
 20
7.5343763264
 30
0.0
 11
10.4503196389
 21
7.6584200586
 31
0.0
  0
LINE
  5
1C9
330
184
100
AcDbEntity
  8
0
  6
Continuous
 62
     1
370
    15
100
AcDbLine
 10
10.4503196389
 20
7.6584200586
 30
0.0
 11
21.1254668963
 21
8.428084507
 31
0.0
  0
ENDBLK
  5
187
330
184
100
AcDbEntity
  8
0
100
AcDbBlockEnd
  0
ENDSEC
  0
SECTION
  2
ENTITIES
  0
LINE
  5
6F
330
1F
100
AcDbEntity
  8
0
  6
Continuous
 62
     1
370
    15
100
AcDbLine
 10
6.053360372
 20
1.264510993
 30
0.0
 11
4.0723758256
 21
1.5396477356
 31
0.0
  0
LINE
  5
70
330
1F
100
AcDbEntity
  8
0
  6
Continuous
 62
     1
370
    15
100
AcDbLine
 10
9.4206720524
 20
5.1568655865
 30
0.0
 11
9.4206720524
 21
3.1568655865
 31
0.0
  0
LINE
  5
71
330
1F
100
AcDbEntity
  8
0
  6
Continuous
 62
     1
370
    15
100
AcDbLine
 10
9.6706720524
 20
3.1568655865
 30
0.0
 11
9.4206720524
 21
3.1568655865
 31
0.0
  0
LINE
  5
72
330
1F
100
AcDbEntity
  8
0
  6
Continuous
 62
     1
370
    15
100
AcDbLine
 10
9.6706720524
 20
5.1568655865
 30
0.0
 11
9.6706720524
 21
3.1568655865
 31
0.0
  0
LINE
  5
73
330
1F
100
AcDbEntity
  8
0
  6
Continuous
 62
     1
370
    15
100
AcDbLine
 10
9.6706720524
 20
5.1568655865
 30
0.0
 11
9.4206720524
 21
5.1568655865
 31
0.0
  0
LINE
  5
74
330
1F
100
AcDbEntity
  8
0
  6
Continuous
 62
     1
370
    15
100
AcDbLine
 10
4.0551797792
 20
1.4158362014
 30
0.0
 11
4.0723758256
 21
1.5396477356
 31
0.0
  0
LINE
  5
75
330
1F
100
AcDbEntity
  8
0
  6
Continuous
 62
     1
370
    15
100
AcDbLine
 10
4.0551797792
 20
1.4158362014
 30
0.0
 11
0.5456720524
 21
1.9032678301
 31
0.0
  0
LINE
  5
76
330
1F
100
AcDbEntity
  8
0
  6
Continuous
 62
     1
370
    15
100
AcDbLine
 10
0.5456720524
 20
1.9032678301
 30
0.0
 11
0.5456720524
 21
4.1532678301
 31
0.0
  0
LINE
  5
77
330
1F
100
AcDbEntity
  8
0
  6
Continuous
 62
     1
370
    15
100
AcDbLine
 10
0.6706720524
 20
4.1532678301
 30
0.0
 11
0.5456720524
 21
4.1532678301
 31
0.0
  0
LINE
  5
78
330
1F
100
AcDbEntity
  8
0
  6
Continuous
 62
     1
370
    15
100
AcDbLine
 10
0.6706720524
 20
6.1532678301
 30
0.0
 11
0.6706720524
 21
4.1532678301
 31
0.0
  0
LINE
  5
79
330
1F
100
AcDbEntity
  8
0
  6
Continuous
 62
     1
370
    15
100
AcDbLine
 10
0.5456720524
 20
6.1532678301
 30
0.0
 11
0.6706720524
 21
6.1532678301
 31
0.0
  0
LINE
  5
7A
330
1F
100
AcDbEntity
  8
0
  6
Continuous
 62
     1
370
    15
100
AcDbLine
 10
0.5456720524
 20
6.1532678301
 30
0.0
 11
0.5456720524
 21
8.4032678301
 31
0.0
  0
LINE
  5
7B
330
1F
100
AcDbEntity
  8
0
  6
Continuous
 62
     1
370
    15
100
AcDbLine
 10
0.5456720524
 20
8.4032678301
 30
0.0
 11
4.0456720524
 21
8.4032678301
 31
0.0
  0
LINE
  5
7C
330
1F
100
AcDbEntity
  8
0
  6
Continuous
 62
     1
370
    15
100
AcDbLine
 10
4.0456720524
 20
8.4032678301
 30
0.0
 11
4.0456720524
 21
8.2017678301
 31
0.0
  0
LINE
  5
7D
330
1F
100
AcDbEntity
  8
0
  6
Continuous
 62
     1
370
    15
100
AcDbLine
 10
4.0456720524
 20
8.2017678301
 30
0.0
 11
6.0456720524
 21
8.2017678301
 31
0.0
  0
LINE
  5
7E
330
1F
100
AcDbEntity
  8
0
  6
Continuous
 62
     1
370
    15
100
AcDbLine
 10
6.0456720524
 20
8.4032678301
 30
0.0
 11
6.0456720524
 21
8.2017678301
 31
0.0
  0
LINE
  5
7F
330
1F
100
AcDbEntity
  8
0
  6
Continuous
 62
     1
370
    15
100
AcDbLine
 10
6.0456720524
 20
8.4032678301
 30
0.0
 11
11.0456720524
 21
8.4032678301
 31
0.0
  0
LINE
  5
80
330
1F
100
AcDbEntity
  8
0
  6
Continuous
 62
     1
370
    15
100
AcDbLine
 10
11.0456720524
 20
8.4032678301
 30
0.0
 11
11.0456720524
 21
8.2017678301
 31
0.0
  0
LINE
  5
81
330
1F
100
AcDbEntity
  8
0
  6
Continuous
 62
     1
370
    15
100
AcDbLine
 10
13.0456720524
 20
8.2017678301
 30
0.0
 11
11.0456720524
 21
8.2017678301
 31
0.0
  0
LINE
  5
82
330
1F
100
AcDbEntity
  8
0
  6
Continuous
 62
     1
370
    15
100
AcDbLine
 10
13.0456720524
 20
8.4032678301
 30
0.0
 11
13.0456720524
 21
8.2017678301
 31
0.0
  0
LINE
  5
83
330
1F
100
AcDbEntity
  8
0
  6
Continuous
 62
     1
370
    15
100
AcDbLine
 10
13.0456720524
 20
8.4032678301
 30
0.0
 11
16.0456720524
 21
8.4032678301
 31
0.0
  0
LINE
  5
84
330
1F
100
AcDbEntity
  8
0
  6
Continuous
 62
     1
370
    15
100
AcDbLine
 10
16.0456720524
 20
8.4032678301
 30
0.0
 11
16.0456720524
 21
8.2017678301
 31
0.0
  0
LINE
  5
85
330
1F
100
AcDbEntity
  8
0
  6
Continuous
 62
     1
370
    15
100
AcDbLine
 10
18.0456720524
 20
8.2017678301
 30
0.0
 11
16.0456720524
 21
8.2017678301
 31
0.0
  0
LINE
  5
86
330
1F
100
AcDbEntity
  8
0
  6
Continuous
 62
     1
370
    15
100
AcDbLine
 10
18.0456720524
 20
8.4032678301
 30
0.0
 11
18.0456720524
 21
8.2017678301
 31
0.0
  0
LINE
  5
87
330
1F
100
AcDbEntity
  8
0
  6
Continuous
 62
     1
370
    15
100
AcDbLine
 10
18.0456720524
 20
8.4032678301
 30
0.0
 11
19.5456720524
 21
8.4032678301
 31
0.0
  0
LINE
  5
88
330
1F
100
AcDbEntity
  8
0
  6
Continuous
 62
     1
370
    15
100
AcDbLine
 10
19.5456720524
 20
8.4032678301
 30
0.0
 11
19.5456720524
 21
5.5282678301
 31
0.0
  0
LINE
  5
89
330
1F
100
AcDbEntity
  8
0
  6
Continuous
 62
     1
370
    15
100
AcDbLine
 10
19.5456720524
 20
3.5282678301
 30
0.0
 11
19.5456720524
 21
0.6532678301
 31
0.0
  0
LINE
  5
8A
330
1F
100
AcDbEntity
  8
0
  6
Continuous
 62
     1
370
    15
100
AcDbLine
 10
19.5456720524
 20
0.6532678301
 30
0.0
 11
18.0456720524
 21
0.6532678301
 31
0.0
  0
LINE
  5
8B
330
1F
100
AcDbEntity
  8
0
  6
Continuous
 62
     1
370
    15
100
AcDbLine
 10
18.0456720524
 20
0.7782678301
 30
0.0
 11
18.0456720524
 21
0.6532678301
 31
0.0
  0
LINE
  5
8C
330
1F
100
AcDbEntity
  8
0
  6
Continuous
 62
     1
370
    15
100
AcDbLine
 10
18.0456720524
 20
0.7782678301
 30
0.0
 11
16.0456720524
 21
0.7782678301
 31
0.0
  0
LINE
  5
8D
330
1F
100
AcDbEntity
  8
0
  6
Continuous
 62
     1
370
    15
100
AcDbLine
 10
16.0456720524
 20
0.6532678301
 30
0.0
 11
16.0456720524
 21
0.7782678301
 31
0.0
  0
LINE
  5
8E
330
1F
100
AcDbEntity
  8
0
  6
Continuous
 62
     1
370
    15
100
AcDbLine
 10
16.0456720524
 20
0.6532678301
 30
0.0
 11
13.0456720524
 21
0.6532678301
 31
0.0
  0
LINE
  5
8F
330
1F
100
AcDbEntity
  8
0
  6
Continuous
 62
     1
370
    15
100
AcDbLine
 10
13.0456720524
 20
0.6532678301
 30
0.0
 11
13.0456720524
 21
0.7782678301
 31
0.0
  0
LINE
  5
90
330
1F
100
AcDbEntity
  8
0
  6
Continuous
 62
     1
370
    15
100
AcDbLine
 10
13.0456720524
 20
0.7782678301
 30
0.0
 11
11.0456720524
 21
0.7782678301
 31
0.0
  0
LINE
  5
91
330
1F
100
AcDbEntity
  8
0
  6
Continuous
 62
     1
370
    15
100
AcDbLine
 10
11.0456720524
 20
0.7782678301
 30
0.0
 11
11.0456720524
 21
0.6532678301
 31
0.0
  0
LINE
  5
92
330
1F
100
AcDbEntity
  8
0
  6
Continuous
 62
     1
370
    15
100
AcDbLine
 10
11.0456720524
 20
0.6532678301
 30
0.0
 11
9.5456720524
 21
0.6532678301
 31
0.0
  0
LINE
  5
93
330
1F
100
AcDbEntity
  8
0
  6
Continuous
 62
     1
370
    15
100
AcDbLine
 10
9.5456720524
 20
0.6532678301
 30
0.0
 11
6.0361643256
 21
1.1406994589
 31
0.0
  0
LINE
  5
94
330
1F
100
AcDbEntity
  8
0
  6
Continuous
 62
     1
370
    15
100
AcDbLine
 10
6.0361643256
 20
1.1406994589
 30
0.0
 11
6.053360372
 21
1.264510993
 31
0.0
  0
LINE
  5
95
330
1F
100
AcDbEntity
  8
0
  6
Continuous
 62
     1
370
    15
100
AcDbLine
 10
23.2994751553
 20
0.8150513935
 30
0.0
 11
23.2994751553
 21
8.1023547386
 31
0.0
  0
LINE
  5
96
330
1F
100
AcDbEntity
  8
0
  6
Continuous
 62
     1
370
    15
100
AcDbLine
 10
19.9337471508
 20
6.9648547386
 30
0.0
 11
19.9337471508
 21
1.9525513935
 31
0.0
  0
LINE
  5
97
330
1F
100
AcDbEntity
  8
0
  6
Continuous
 62
     1
370
    15
100
AcDbLine
 10
23.2994751553
 20
8.1023547386
 30
0.0
 11
19.9337471508
 21
6.9648547386
 31
0.0
  0
LINE
  5
98
330
1F
100
AcDbEntity
  8
0
  6
Continuous
 62
     1
370
    15
100
AcDbLine
 10
19.9337471508
 20
1.9525513935
 30
0.0
 11
23.2994751553
 21
0.8150513935
 31
0.0
  0
VIEWPORT
  5
99
330
1B
100
AcDbEntity
 67
     1
  8
0
100
AcDbViewport
 10
12.0
 20
4.5
 30
0.0
 40
25.392
 41
9.522
 68
     1
 69
     1
 12
12.0
 22
4.5
 13
0.0
 23
0.0
 14
0.5
 24
0.5
 15
0.5
 25
0.5
 16
0.0
 26
0.0
 36
1.0
 17
0.0
 27
0.0
 37
0.0
 42
50.0
 43
0.0
 44
0.0
 45
9.522
 50
0.0
 51
0.0
 72
   100
 90
   557152
  1

281
     0
 71
     1
 74
     0
110
0.0
120
0.0
130
0.0
111
1.0
121
0.0
131
0.0
112
0.0
122
1.0
132
0.0
 79
     0
146
0.0
  0
LINE
  5
9B
330
1B
100
AcDbEntity
 67
     1
  8
0
  6
Continuous
 62
     1
370
    15
100
AcDbLine
 10
13.9476664942
 20
1.2016457685
 30
0.0
 11
15.9286510406
 21
1.476782511
 31
0.0
  0
LINE
  5
9C
330
1B
100
AcDbEntity
 67
     1
  8
0
  6
Continuous
 62
     1
370
    15
100
AcDbLine
 10
10.5803548138
 20
5.094000362
 30
0.0
 11
10.5803548138
 21
3.094000362
 31
0.0
  0
LINE
  5
9D
330
1B
100
AcDbEntity
 67
     1
  8
0
  6
Continuous
 62
     1
370
    15
100
AcDbLine
 10
10.3303548138
 20
3.094000362
 30
0.0
 11
10.5803548138
 21
3.094000362
 31
0.0
  0
LINE
  5
9E
330
1B
100
AcDbEntity
 67
     1
  8
0
  6
Continuous
 62
     1
370
    15
100
AcDbLine
 10
10.3303548138
 20
5.094000362
 30
0.0
 11
10.3303548138
 21
3.094000362
 31
0.0
  0
LINE
  5
9F
330
1B
100
AcDbEntity
 67
     1
  8
0
  6
Continuous
 62
     1
370
    15
100
AcDbLine
 10
10.3303548138
 20
5.094000362
 30
0.0
 11
10.5803548138
 21
5.094000362
 31
0.0
  0
LINE
  5
A0
330
1B
100
AcDbEntity
 67
     1
  8
0
  6
Continuous
 62
     1
370
    15
100
AcDbLine
 10
15.945847087
 20
1.3529709769
 30
0.0
 11
15.9286510406
 21
1.476782511
 31
0.0
  0
LINE
  5
A1
330
1B
100
AcDbEntity
 67
     1
  8
0
  6
Continuous
 62
     1
370
    15
100
AcDbLine
 10
15.945847087
 20
1.3529709769
 30
0.0
 11
19.4553548138
 21
1.8404026056
 31
0.0
  0
LINE
  5
A2
330
1B
100
AcDbEntity
 67
     1
  8
0
  6
Continuous
 62
     1
370
    15
100
AcDbLine
 10
19.4553548138
 20
1.8404026056
 30
0.0
 11
19.4553548138
 21
4.0904026056
 31
0.0
  0
LINE
  5
A3
330
1B
100
AcDbEntity
 67
     1
  8
0
  6
Continuous
 62
     1
370
    15
100
AcDbLine
 10
19.3303548138
 20
4.0904026056
 30
0.0
 11
19.4553548138
 21
4.0904026056
 31
0.0
  0
LINE
  5
A4
330
1B
100
AcDbEntity
 67
     1
  8
0
  6
Continuous
 62
     1
370
    15
100
AcDbLine
 10
19.3303548138
 20
6.0904026056
 30
0.0
 11
19.3303548138
 21
4.0904026056
 31
0.0
  0
LINE
  5
A5
330
1B
100
AcDbEntity
 67
     1
  8
0
  6
Continuous
 62
     1
370
    15
100
AcDbLine
 10
19.4553548138
 20
6.0904026056
 30
0.0
 11
19.3303548138
 21
6.0904026056
 31
0.0
  0
LINE
  5
A6
330
1B
100
AcDbEntity
 67
     1
  8
0
  6
Continuous
 62
     1
370
    15
100
AcDbLine
 10
19.4553548138
 20
6.0904026056
 30
0.0
 11
19.4553548138
 21
8.3404026056
 31
0.0
  0
LINE
  5
A7
330
1B
100
AcDbEntity
 67
     1
  8
0
  6
Continuous
 62
     1
370
    15
100
AcDbLine
 10
19.4553548138
 20
8.3404026056
 30
0.0
 11
15.9553548138
 21
8.3404026056
 31
0.0
  0
LINE
  5
A8
330
1B
100
AcDbEntity
 67
     1
  8
0
  6
Continuous
 62
     1
370
    15
100
AcDbLine
 10
15.9553548138
 20
8.3404026056
 30
0.0
 11
15.9553548138
 21
8.1389026056
 31
0.0
  0
LINE
  5
A9
330
1B
100
AcDbEntity
 67
     1
  8
0
  6
Continuous
 62
     1
370
    15
100
AcDbLine
 10
15.9553548138
 20
8.1389026056
 30
0.0
 11
13.9553548138
 21
8.1389026056
 31
0.0
  0
LINE
  5
AA
330
1B
100
AcDbEntity
 67
     1
  8
0
  6
Continuous
 62
     1
370
    15
100
AcDbLine
 10
13.9553548138
 20
8.3404026056
 30
0.0
 11
13.9553548138
 21
8.1389026056
 31
0.0
  0
LINE
  5
AB
330
1B
100
AcDbEntity
 67
     1
  8
0
  6
Continuous
 62
     1
370
    15
100
AcDbLine
 10
13.9553548138
 20
8.3404026056
 30
0.0
 11
8.9553548138
 21
8.3404026056
 31
0.0
  0
LINE
  5
AC
330
1B
100
AcDbEntity
 67
     1
  8
0
  6
Continuous
 62
     1
370
    15
100
AcDbLine
 10
8.9553548138
 20
8.3404026056
 30
0.0
 11
8.9553548138
 21
8.1389026056
 31
0.0
  0
LINE
  5
AD
330
1B
100
AcDbEntity
 67
     1
  8
0
  6
Continuous
 62
     1
370
    15
100
AcDbLine
 10
6.9553548138
 20
8.1389026056
 30
0.0
 11
8.9553548138
 21
8.1389026056
 31
0.0
  0
LINE
  5
AE
330
1B
100
AcDbEntity
 67
     1
  8
0
  6
Continuous
 62
     1
370
    15
100
AcDbLine
 10
6.9553548138
 20
8.3404026056
 30
0.0
 11
6.9553548138
 21
8.1389026056
 31
0.0
  0
LINE
  5
AF
330
1B
100
AcDbEntity
 67
     1
  8
0
  6
Continuous
 62
     1
370
    15
100
AcDbLine
 10
6.9553548138
 20
8.3404026056
 30
0.0
 11
3.9553548138
 21
8.3404026056
 31
0.0
  0
LINE
  5
B0
330
1B
100
AcDbEntity
 67
     1
  8
0
  6
Continuous
 62
     1
370
    15
100
AcDbLine
 10
3.9553548138
 20
8.3404026056
 30
0.0
 11
3.9553548138
 21
8.1389026056
 31
0.0
  0
LINE
  5
B1
330
1B
100
AcDbEntity
 67
     1
  8
0
  6
Continuous
 62
     1
370
    15
100
AcDbLine
 10
1.9553548138
 20
8.1389026056
 30
0.0
 11
3.9553548138
 21
8.1389026056
 31
0.0
  0
LINE
  5
B2
330
1B
100
AcDbEntity
 67
     1
  8
0
  6
Continuous
 62
     1
370
    15
100
AcDbLine
 10
1.9553548138
 20
8.3404026056
 30
0.0
 11
1.9553548138
 21
8.1389026056
 31
0.0
  0
LINE
  5
B3
330
1B
100
AcDbEntity
 67
     1
  8
0
  6
Continuous
 62
     1
370
    15
100
AcDbLine
 10
1.9553548138
 20
8.3404026056
 30
0.0
 11
0.4553548138
 21
8.3404026056
 31
0.0
  0
LINE
  5
B4
330
1B
100
AcDbEntity
 67
     1
  8
0
  6
Continuous
 62
     1
370
    15
100
AcDbLine
 10
0.4553548138
 20
8.3404026056
 30
0.0
 11
0.4553548138
 21
5.4654026056
 31
0.0
  0
LINE
  5
B5
330
1B
100
AcDbEntity
 67
     1
  8
0
  6
Continuous
 62
     1
370
    15
100
AcDbLine
 10
0.4553548138
 20
5.4654026056
 30
0.0
 11
0.8583548138
 21
5.4654026056
 31
0.0
  0
LINE
  5
B6
330
1B
100
AcDbEntity
 67
     1
  8
0
  6
Continuous
 62
     1
370
    15
100
AcDbLine
 10
0.8583548138
 20
5.4654026056
 30
0.0
 11
0.8583548138
 21
3.4654026056
 31
0.0
  0
LINE
  5
B7
330
1B
100
AcDbEntity
 67
     1
  8
0
  6
Continuous
 62
     1
370
    15
100
AcDbLine
 10
0.8583548138
 20
3.4654026056
 30
0.0
 11
0.4553548138
 21
3.4654026056
 31
0.0
  0
LINE
  5
B8
330
1B
100
AcDbEntity
 67
     1
  8
0
  6
Continuous
 62
     1
370
    15
100
AcDbLine
 10
0.4553548138
 20
3.4654026056
 30
0.0
 11
0.4553548138
 21
0.5904026056
 31
0.0
  0
LINE
  5
B9
330
1B
100
AcDbEntity
 67
     1
  8
0
  6
Continuous
 62
     1
370
    15
100
AcDbLine
 10
0.4553548138
 20
0.5904026056
 30
0.0
 11
1.9553548138
 21
0.5904026056
 31
0.0
  0
LINE
  5
BA
330
1B
100
AcDbEntity
 67
     1
  8
0
  6
Continuous
 62
     1
370
    15
100
AcDbLine
 10
1.9553548138
 20
0.7154026056
 30
0.0
 11
1.9553548138
 21
0.5904026056
 31
0.0
  0
LINE
  5
BB
330
1B
100
AcDbEntity
 67
     1
  8
0
  6
Continuous
 62
     1
370
    15
100
AcDbLine
 10
1.9553548138
 20
0.7154026056
 30
0.0
 11
3.9553548138
 21
0.7154026056
 31
0.0
  0
LINE
  5
BC
330
1B
100
AcDbEntity
 67
     1
  8
0
  6
Continuous
 62
     1
370
    15
100
AcDbLine
 10
3.9553548138
 20
0.5904026056
 30
0.0
 11
3.9553548138
 21
0.7154026056
 31
0.0
  0
LINE
  5
BD
330
1B
100
AcDbEntity
 67
     1
  8
0
  6
Continuous
 62
     1
370
    15
100
AcDbLine
 10
3.9553548138
 20
0.5904026056
 30
0.0
 11
6.9553548138
 21
0.5904026056
 31
0.0
  0
LINE
  5
BE
330
1B
100
AcDbEntity
 67
     1
  8
0
  6
Continuous
 62
     1
370
    15
100
AcDbLine
 10
6.9553548138
 20
0.5904026056
 30
0.0
 11
6.9553548138
 21
0.7154026056
 31
0.0
  0
LINE
  5
BF
330
1B
100
AcDbEntity
 67
     1
  8
0
  6
Continuous
 62
     1
370
    15
100
AcDbLine
 10
6.9553548138
 20
0.7154026056
 30
0.0
 11
8.9553548138
 21
0.7154026056
 31
0.0
  0
LINE
  5
C0
330
1B
100
AcDbEntity
 67
     1
  8
0
  6
Continuous
 62
     1
370
    15
100
AcDbLine
 10
8.9553548138
 20
0.7154026056
 30
0.0
 11
8.9553548138
 21
0.5904026056
 31
0.0
  0
LINE
  5
C1
330
1B
100
AcDbEntity
 67
     1
  8
0
  6
Continuous
 62
     1
370
    15
100
AcDbLine
 10
8.9553548138
 20
0.5904026056
 30
0.0
 11
10.4553548138
 21
0.5904026056
 31
0.0
  0
LINE
  5
C2
330
1B
100
AcDbEntity
 67
     1
  8
0
  6
Continuous
 62
     1
370
    15
100
AcDbLine
 10
10.4553548138
 20
0.5904026056
 30
0.0
 11
13.9648625406
 21
1.0778342343
 31
0.0
  0
LINE
  5
C3
330
1B
100
AcDbEntity
 67
     1
  8
0
  6
Continuous
 62
     1
370
    15
100
AcDbLine
 10
13.9648625406
 20
1.0778342343
 30
0.0
 11
13.9476664942
 21
1.2016457685
 31
0.0
  0
LINE
  5
C4
330
1B
100
AcDbEntity
 67
     1
  8
0
  6
Continuous
 62
     1
370
    15
100
AcDbLine
 10
23.3807962987
 20
0.7555615022
 30
0.0
 11
23.3807962987
 21
8.0428648473
 31
0.0
  0
LINE
  5
C5
330
1B
100
AcDbEntity
 67
     1
  8
0
  6
Continuous
 62
     1
370
    15
100
AcDbLine
 10
20.0150682942
 20
6.9053648473
 30
0.0
 11
20.0150682942
 21
1.8930615022
 31
0.0
  0
LINE
  5
C6
330
1B
100
AcDbEntity
 67
     1
  8
0
  6
Continuous
 62
     1
370
    15
100
AcDbLine
 10
23.3807962987
 20
8.0428648473
 30
0.0
 11
20.0150682942
 21
6.9053648473
 31
0.0
  0
LINE
  5
C7
330
1B
100
AcDbEntity
 67
     1
  8
0
  6
Continuous
 62
     1
370
    15
100
AcDbLine
 10
20.0150682942
 20
1.8930615022
 30
0.0
 11
23.3807962987
 21
0.7555615022
 31
0.0
  0
ENDSEC
  0
SECTION
  2
OBJECTS
  0
DICTIONARY
  5
C
330
0
100
AcDbDictionary
281
     1
  3
ACAD_GROUP
350
D
  3
ACAD_LAYOUT
350
1A
  3
ACAD_MLINESTYLE
350
17
  3
ACAD_PLOTSETTINGS
350
19
  3
ACAD_PLOTSTYLENAME
350
E
  3
ACAD_SCALELIST
350
47
  0
DICTIONARY
  5
D
102
{ACAD_REACTORS
330
C
102
}
330
C
100
AcDbDictionary
281
     1
  0
DICTIONARY
  5
1A
102
{ACAD_REACTORS
330
C
102
}
330
C
100
AcDbDictionary
281
     1
  3
Model
350
22
  3
Sheet2
350
1E
  3
Sheet3
350
26
  3
Sheet4
350
103
  3
Sheet5
350
13F
  3
Sheet6
350
185
  0
DICTIONARY
  5
17
102
{ACAD_REACTORS
330
C
102
}
330
C
100
AcDbDictionary
281
     1
  3
Standard
350
18
  0
DICTIONARY
  5
19
102
{ACAD_REACTORS
330
C
102
}
330
C
100
AcDbDictionary
281
     1
  0
ACDBDICTIONARYWDFLT
  5
E
102
{ACAD_REACTORS
330
C
102
}
330
C
100
AcDbDictionary
281
     1
  3
Normal
350
F
100
AcDbDictionaryWithDefault
340
F
  0
DICTIONARY
  5
47
102
{ACAD_REACTORS
330
C
102
}
330
C
100
AcDbDictionary
281
     1
  3
A0
350
48
  3
A1
350
49
  3
A2
350
4A
  3
A3
350
4B
  3
A4
350
4C
  3
A5
350
4D
  3
A6
350
4E
  3
A7
350
4F
  3
A8
350
50
  3
A9
350
51
  3
B0
350
52
  3
B1
350
53
  3
B2
350
54
  3
B3
350
55
  3
B4
350
56
  3
B5
350
57
  3
B6
350
58
  3
B7
350
59
  3
B8
350
5A
  3
B9
350
5B
  3
C0
350
5C
  3
C1
350
5D
  3
C2
350
5E
  3
C3
350
5F
  3
C4
350
60
  3
C5
350
61
  3
C6
350
62
  3
C7
350
63
  3
C8
350
64
  3
C9
350
65
  3
D0
350
66
  3
D1
350
67
  3
D2
350
68
  0
LAYOUT
  5
22
102
{ACAD_REACTORS
330
1A
102
}
330
1A
100
AcDbPlotSettings
  1

  2
none_device
  4
Letter_(8.50_x_11.00_Inches)
  6

 40
6.35
 41
6.35
 42
6.35000508
 43
6.35000508
 44
215.9
 45
279.4
 46
0.0
 47
0.0
 48
0.0
 49
0.0
140
0.0
141
0.0
142
1.0
143
1.0
 70
  1712
 72
     0
 73
     0
 74
     0
  7

 75
     0
147
1.0
148
0.0
149
0.0
100
AcDbLayout
  1
Model
 70
     1
 71
     0
 10
0.0
 20
0.0
 11
24.0
 21
9.0
 12
0.0
 22
0.0
 32
0.0
 14
0.0
 24
0.0
 34
0.0
 15
24.0
 25
9.0
 35
0.0
146
0.0
 13
0.0
 23
0.0
 33
0.0
 16
1.0
 26
0.0
 36
0.0
 17
0.0
 27
1.0
 37
0.0
 76
     0
330
1F
331
29
  0
LAYOUT
  5
1E
102
{ACAD_REACTORS
330
1A
102
}
330
1A
100
AcDbPlotSettings
  1

  2
none_device
  4
ANSI_D_(34.00_x_22.00_Inches)
  6

 40
6.35
 41
19.05
 42
6.3499746
 43
19.0499873
 44
863.6
 45
558.8
 46
0.0
 47
0.0
 48
0.0
 49
0.0
140
0.0
141
0.0
142
1.0
143
1.0
 70
  4832
 72
     0
 73
     0
 74
     1
  7

 75
     0
147
1.0
148
0.0
149
0.0
100
AcDbLayout
  1
Sheet2
 70
     1
 71
     1
 10
0.0
 20
0.0
 11
24.0
 21
9.0
 12
0.0
 22
0.0
 32
0.0
 14
0.0
 24
0.0
 34
0.0
 15
24.0
 25
9.0
 35
0.0
146
0.0
 13
0.0
 23
0.0
 33
0.0
 16
1.0
 26
0.0
 36
0.0
 17
0.0
 27
1.0
 37
0.0
 76
     0
330
1B
331
99
  0
LAYOUT
  5
26
102
{ACAD_REACTORS
330
1A
102
}
330
1A
100
AcDbPlotSettings
  1

  2
none_device
  4
ANSI_D_(34.00_x_22.00_Inches)
  6

 40
6.35
 41
19.05
 42
6.3499746
 43
19.0499873
 44
863.6
 45
558.8
 46
0.0
 47
0.0
 48
0.0
 49
0.0
140
0.0
141
0.0
142
1.0
143
1.0
 70
  4832
 72
     0
 73
     0
 74
     1
  7

 75
    16
147
1.0
148
-11.5660122709
149
-14.9962261823
100
AcDbLayout
  1
Sheet3
 70
     1
 71
     2
 10
0.0
 20
0.0
 11
24.0
 21
9.0
 12
0.0
 22
0.0
 32
0.0
 14
0.0
 24
0.0
 34
0.0
 15
24.0
 25
9.0
 35
0.0
146
0.0
 13
0.0
 23
0.0
 33
0.0
 16
1.0
 26
0.0
 36
0.0
 17
0.0
 27
1.0
 37
0.0
 76
     0
330
23
  0
LAYOUT
  5
103
102
{ACAD_REACTORS
330
1A
102
}
330
1A
100
AcDbPlotSettings
  1

  2
none_device
  4
ANSI_D_(34.00_x_22.00_Inches)
  6

 40
6.35
 41
19.05
 42
6.3499746
 43
19.0499873
 44
863.6
 45
558.8
 46
0.0
 47
0.0
 48
0.0
 49
0.0
140
0.0
141
0.0
142
1.0
143
1.0
 70
  4832
 72
     0
 73
     0
 74
     1
  7

 75
    16
147
1.0
148
-11.5660122709
149
-14.9962261823
100
AcDbLayout
  1
Sheet4
 70
     1
 71
     3
 10
0.0
 20
0.0
 11
24.0
 21
9.0
 12
0.0
 22
0.0
 32
0.0
 14
0.0
 24
0.0
 34
0.0
 15
24.0
 25
9.0
 35
0.0
146
0.0
 13
0.0
 23
0.0
 33
0.0
 16
1.0
 26
0.0
 36
0.0
 17
0.0
 27
1.0
 37
0.0
 76
     0
330
102
  0
LAYOUT
  5
13F
102
{ACAD_REACTORS
330
1A
102
}
330
1A
100
AcDbPlotSettings
  1

  2
none_device
  4
ANSI_D_(34.00_x_22.00_Inches)
  6

 40
6.35
 41
19.05
 42
6.3499746
 43
19.0499873
 44
863.6
 45
558.8
 46
0.0
 47
0.0
 48
0.0
 49
0.0
140
0.0
141
0.0
142
1.0
143
1.0
 70
  4832
 72
     0
 73
     0
 74
     1
  7

 75
    16
147
1.0
148
-11.5660122709
149
-14.9962261823
100
AcDbLayout
  1
Sheet5
 70
     1
 71
     4
 10
0.0
 20
0.0
 11
24.0
 21
9.0
 12
0.0
 22
0.0
 32
0.0
 14
0.0
 24
0.0
 34
0.0
 15
24.0
 25
9.0
 35
0.0
146
0.0
 13
0.0
 23
0.0
 33
0.0
 16
1.0
 26
0.0
 36
0.0
 17
0.0
 27
1.0
 37
0.0
 76
     0
330
13E
  0
LAYOUT
  5
185
102
{ACAD_REACTORS
330
1A
102
}
330
1A
100
AcDbPlotSettings
  1

  2
none_device
  4
ANSI_D_(34.00_x_22.00_Inches)
  6

 40
6.35
 41
19.05
 42
6.3499746
 43
19.0499873
 44
863.6
 45
558.8
 46
0.0
 47
0.0
 48
0.0
 49
0.0
140
0.0
141
0.0
142
1.0
143
1.0
 70
  4832
 72
     0
 73
     0
 74
     1
  7

 75
    16
147
1.0
148
-11.5660122709
149
-14.9962261823
100
AcDbLayout
  1
Sheet6
 70
     1
 71
     5
 10
0.0
 20
0.0
 11
24.0
 21
9.0
 12
0.0
 22
0.0
 32
0.0
 14
0.0
 24
0.0
 34
0.0
 15
24.0
 25
9.0
 35
0.0
146
0.0
 13
0.0
 23
0.0
 33
0.0
 16
1.0
 26
0.0
 36
0.0
 17
0.0
 27
1.0
 37
0.0
 76
     0
330
184
  0
MLINESTYLE
  5
18
102
{ACAD_REACTORS
330
17
102
}
330
17
100
AcDbMlineStyle
  2
Standard
 70
     0
  3

 62
   256
 51
90.0
 52
90.0
 71
     2
 49
0.5
 62
   256
  6
BYLAYER
 49
-0.5
 62
   256
  6
BYLAYER
  0
ACDBPLACEHOLDER
  5
F
102
{ACAD_REACTORS
330
E
102
}
330
E
  0
SCALE
  5
48
102
{ACAD_REACTORS
330
47
102
}
330
47
100
AcDbScale
 70
     0
300
1:1
140
1.0
141
1.0
290
     1
  0
SCALE
  5
49
102
{ACAD_REACTORS
330
47
102
}
330
47
100
AcDbScale
 70
     0
300
1:2
140
1.0
141
2.0
290
     0
  0
SCALE
  5
4A
102
{ACAD_REACTORS
330
47
102
}
330
47
100
AcDbScale
 70
     0
300
1:4
140
1.0
141
4.0
290
     0
  0
SCALE
  5
4B
102
{ACAD_REACTORS
330
47
102
}
330
47
100
AcDbScale
 70
     0
300
1:5
140
1.0
141
5.0
290
     0
  0
SCALE
  5
4C
102
{ACAD_REACTORS
330
47
102
}
330
47
100
AcDbScale
 70
     0
300
1:8
140
1.0
141
8.0
290
     0
  0
SCALE
  5
4D
102
{ACAD_REACTORS
330
47
102
}
330
47
100
AcDbScale
 70
     0
300
1:10
140
1.0
141
10.0
290
     0
  0
SCALE
  5
4E
102
{ACAD_REACTORS
330
47
102
}
330
47
100
AcDbScale
 70
     0
300
1:16
140
1.0
141
16.0
290
     0
  0
SCALE
  5
4F
102
{ACAD_REACTORS
330
47
102
}
330
47
100
AcDbScale
 70
     0
300
1:20
140
1.0
141
20.0
290
     0
  0
SCALE
  5
50
102
{ACAD_REACTORS
330
47
102
}
330
47
100
AcDbScale
 70
     0
300
1:30
140
1.0
141
30.0
290
     0
  0
SCALE
  5
51
102
{ACAD_REACTORS
330
47
102
}
330
47
100
AcDbScale
 70
     0
300
1:40
140
1.0
141
40.0
290
     0
  0
SCALE
  5
52
102
{ACAD_REACTORS
330
47
102
}
330
47
100
AcDbScale
 70
     0
300
1:50
140
1.0
141
50.0
290
     0
  0
SCALE
  5
53
102
{ACAD_REACTORS
330
47
102
}
330
47
100
AcDbScale
 70
     0
300
1:100
140
1.0
141
100.0
290
     0
  0
SCALE
  5
54
102
{ACAD_REACTORS
330
47
102
}
330
47
100
AcDbScale
 70
     0
300
2:1
140
2.0
141
1.0
290
     0
  0
SCALE
  5
55
102
{ACAD_REACTORS
330
47
102
}
330
47
100
AcDbScale
 70
     0
300
4:1
140
4.0
141
1.0
290
     0
  0
SCALE
  5
56
102
{ACAD_REACTORS
330
47
102
}
330
47
100
AcDbScale
 70
     0
300
8:1
140
8.0
141
1.0
290
     0
  0
SCALE
  5
57
102
{ACAD_REACTORS
330
47
102
}
330
47
100
AcDbScale
 70
     0
300
10:1
140
10.0
141
1.0
290
     0
  0
SCALE
  5
58
102
{ACAD_REACTORS
330
47
102
}
330
47
100
AcDbScale
 70
     0
300
100:1
140
100.0
141
1.0
290
     0
  0
SCALE
  5
59
102
{ACAD_REACTORS
330
47
102
}
330
47
100
AcDbScale
 70
     0
300
1/128" = 1'-0"
140
0.0078125
141
12.0
290
     0
  0
SCALE
  5
5A
102
{ACAD_REACTORS
330
47
102
}
330
47
100
AcDbScale
 70
     0
300
1/64" = 1'-0"
140
0.015625
141
12.0
290
     0
  0
SCALE
  5
5B
102
{ACAD_REACTORS
330
47
102
}
330
47
100
AcDbScale
 70
     0
300
1/32" = 1'-0"
140
0.03125
141
12.0
290
     0
  0
SCALE
  5
5C
102
{ACAD_REACTORS
330
47
102
}
330
47
100
AcDbScale
 70
     0
300
1/16" = 1'-0"
140
0.0625
141
12.0
290
     0
  0
SCALE
  5
5D
102
{ACAD_REACTORS
330
47
102
}
330
47
100
AcDbScale
 70
     0
300
3/32" = 1'-0"
140
0.09375
141
12.0
290
     0
  0
SCALE
  5
5E
102
{ACAD_REACTORS
330
47
102
}
330
47
100
AcDbScale
 70
     0
300
1/8" = 1'-0"
140
0.125
141
12.0
290
     0
  0
SCALE
  5
5F
102
{ACAD_REACTORS
330
47
102
}
330
47
100
AcDbScale
 70
     0
300
3/16" = 1'-0"
140
0.1875
141
12.0
290
     0
  0
SCALE
  5
60
102
{ACAD_REACTORS
330
47
102
}
330
47
100
AcDbScale
 70
     0
300
1/4" = 1'-0"
140
0.25
141
12.0
290
     0
  0
SCALE
  5
61
102
{ACAD_REACTORS
330
47
102
}
330
47
100
AcDbScale
 70
     0
300
3/8" = 1'-0"
140
0.375
141
12.0
290
     0
  0
SCALE
  5
62
102
{ACAD_REACTORS
330
47
102
}
330
47
100
AcDbScale
 70
     0
300
1/2" = 1'-0"
140
0.5
141
12.0
290
     0
  0
SCALE
  5
63
102
{ACAD_REACTORS
330
47
102
}
330
47
100
AcDbScale
 70
     0
300
3/4" = 1'-0"
140
0.75
141
12.0
290
     0
  0
SCALE
  5
64
102
{ACAD_REACTORS
330
47
102
}
330
47
100
AcDbScale
 70
     0
300
1" = 1'-0"
140
1.0
141
12.0
290
     0
  0
SCALE
  5
65
102
{ACAD_REACTORS
330
47
102
}
330
47
100
AcDbScale
 70
     0
300
1-1/2" = 1'-0"
140
1.5
141
12.0
290
     0
  0
SCALE
  5
66
102
{ACAD_REACTORS
330
47
102
}
330
47
100
AcDbScale
 70
     0
300
3" = 1'-0"
140
3.0
141
12.0
290
     0
  0
SCALE
  5
67
102
{ACAD_REACTORS
330
47
102
}
330
47
100
AcDbScale
 70
     0
300
6" = 1'-0"
140
6.0
141
12.0
290
     0
  0
SCALE
  5
68
102
{ACAD_REACTORS
330
47
102
}
330
47
100
AcDbScale
 70
     0
300
1'-0" = 1'-0"
140
12.0
141
12.0
290
     0
  0
ENDSEC
  0
EOF
