  0
SECTION
  2
HEADER
  9
$ACADVER
  1
AC1015
  9
$ACADMAINTVER
 70
     6
  9
$DWGCODEPAGE
  3
ANSI_1252
  9
$INSBASE
 10
0.0
 20
0.0
 30
0.0
  9
$EXTMIN
 10
0.0
 20
0.0
 30
0.0
  9
$EXTMAX
 10
24.0
 20
12.0
 30
0.0
  9
$LIMMIN
 10
0.0
 20
0.0
  9
$LIMMAX
 10
24.0
 20
12.0
  9
$ORTHOMODE
 70
     0
  9
$REGENMODE
 70
     1
  9
$FILLMODE
 70
     1
  9
$QTEXTMODE
 70
     0
  9
$MIRRTEXT
 70
     1
  9
$LTSCALE
 40
1.0
  9
$ATTMODE
 70
     1
  9
$TEXTSIZE
 40
0.1377952756
  9
$TRACEWID
 40
0.05
  9
$TEXTSTYLE
  7
Standard
  9
$CLAYER
  8
0
  9
$CELTYPE
  6
ByLayer
  9
$CECOLOR
 62
   256
  9
$CELTSCALE
 40
1.0
  9
$DISPSILH
 70
     0
  9
$DIMSCALE
 40
1.0
  9
$DIMASZ
 40
0.13
  9
$DIMEXO
 40
0.0393700787
  9
$DIMDLI
 40
0.38
  9
$DIMRND
 40
0.0
  9
$DIMDLE
 40
0.0
  9
$DIMEXE
 40
0.0393700787
  9
$DIMTP
 40
0.0
  9
$DIMTM
 40
0.0
  9
$DIMTXT
 40
0.1377952756
  9
$DIMCEN
 40
0.09
  9
$DIMTSZ
 40
0.0
  9
$DIMTOL
 70
     0
  9
$DIMLIM
 70
     0
  9
$DIMTIH
 70
     1
  9
$DIMTOH
 70
     1
  9
$DIMSE1
 70
     0
  9
$DIMSE2
 70
     0
  9
$DIMTAD
 70
     1
  9
$DIMZIN
 70
     0
  9
$DIMBLK
  1

  9
$DIMASO
 70
     1
  9
$DIMSHO
 70
     1
  9
$DIMPOST
  1

  9
$DIMAPOST
  1

  9
$DIMALT
 70
     0
  9
$DIMALTD
 70
     2
  9
$DIMALTF
 40
25.4
  9
$DIMLFAC
 40
1.0
  9
$DIMTOFL
 70
     0
  9
$DIMTVP
 40
0.0
  9
$DIMTIX
 70
     0
  9
$DIMSOXD
 70
     0
  9
$DIMSAH
 70
     0
  9
$DIMBLK1
  1

  9
$DIMBLK2
  1

  9
$DIMSTYLE
  2
Standard
  9
$DIMCLRD
 70
     0
  9
$DIMCLRE
 70
     0
  9
$DIMCLRT
 70
     0
  9
$DIMTFAC
 40
1.0
  9
$DIMGAP
 40
0.06
  9
$DIMJUST
 70
     0
  9
$DIMSD1
 70
     0
  9
$DIMSD2
 70
     0
  9
$DIMTOLJ
 70
     1
  9
$DIMTZIN
 70
     0
  9
$DIMALTZ
 70
     0
  9
$DIMALTTZ
 70
     0
  9
$DIMUPT
 70
     0
  9
$DIMDEC
 70
     2
  9
$DIMTDEC
 70
     2
  9
$DIMALTU
 70
     2
  9
$DIMALTTD
 70
     2
  9
$DIMTXSTY
  7
Standard
  9
$DIMAUNIT
 70
     0
  9
$DIMADEC
 70
     2
  9
$DIMALTRND
 40
0.0
  9
$DIMAZIN
 70
     0
  9
$DIMDSEP
 70
    46
  9
$DIMATFIT
 70
     3
  9
$DIMFRAC
 70
     0
  9
$DIMLDRBLK
  1

  9
$DIMLUNIT
 70
     2
  9
$DIMLWD
 70
    -2
  9
$DIMLWE
 70
    -2
  9
$DIMTMOVE
 70
     0
  9
$LUNITS
 70
     2
  9
$LUPREC
 70
     2
  9
$SKETCHINC
 40
0.1
  9
$FILLETRAD
 40
0.5
  9
$AUNITS
 70
     0
  9
$AUPREC
 70
     2
  9
$MENU
  1
.
  9
$ELEVATION
 40
0.0
  9
$PELEVATION
 40
0.0
  9
$THICKNESS
 40
0.0
  9
$LIMCHECK
 70
     0
  9
$CHAMFERA
 40
0.0
  9
$CHAMFERB
 40
0.0
  9
$CHAMFERC
 40
0.0
  9
$CHAMFERD
 40
0.0
  9
$SKPOLY
 70
     0
  9
$TDCREATE
 40
2457065.849759745
  9
$TDUCREATE
 40
2457066.058093079
  9
$TDUPDATE
 40
2457065.849765486
  9
$TDUUPDATE
 40
2457066.05809882
  9
$TDINDWG
 40
0.0000000116
  9
$TDUSRTIMER
 40
0.0000000116
  9
$USRTIMER
 70
     1
  9
$ANGBASE
 50
0.0
  9
$ANGDIR
 70
     0
  9
$PDMODE
 70
     0
  9
$PDSIZE
 40
-1.0
  9
$PLINEWID
 40
0.0
  9
$SPLFRAME
 70
     0
  9
$SPLINETYPE
 70
     6
  9
$SPLINESEGS
 70
     8
  9
$HANDSEED
  5
2EC
  9
$SURFTAB1
 70
     6
  9
$SURFTAB2
 70
     6
  9
$SURFTYPE
 70
     6
  9
$SURFU
 70
     6
  9
$SURFV
 70
     6
  9
$UCSBASE
  2

  9
$UCSNAME
  2

  9
$UCSORG
 10
0.0
 20
0.0
 30
0.0
  9
$UCSXDIR
 10
1.0
 20
0.0
 30
0.0
  9
$UCSYDIR
 10
0.0
 20
1.0
 30
0.0
  9
$UCSORTHOREF
  2

  9
$UCSORTHOVIEW
 70
     0
  9
$UCSORGTOP
 10
0.0
 20
0.0
 30
0.0
  9
$UCSORGBOTTOM
 10
0.0
 20
0.0
 30
0.0
  9
$UCSORGLEFT
 10
0.0
 20
0.0
 30
0.0
  9
$UCSORGRIGHT
 10
0.0
 20
0.0
 30
0.0
  9
$UCSORGFRONT
 10
0.0
 20
0.0
 30
0.0
  9
$UCSORGBACK
 10
0.0
 20
0.0
 30
0.0
  9
$PUCSBASE
  2

  9
$PUCSNAME
  2

  9
$PUCSORG
 10
0.0
 20
0.0
 30
0.0
  9
$PUCSXDIR
 10
1.0
 20
0.0
 30
0.0
  9
$PUCSYDIR
 10
0.0
 20
1.0
 30
0.0
  9
$PUCSORTHOREF
  2

  9
$PUCSORTHOVIEW
 70
     0
  9
$PUCSORGTOP
 10
0.0
 20
0.0
 30
0.0
  9
$PUCSORGBOTTOM
 10
0.0
 20
0.0
 30
0.0
  9
$PUCSORGLEFT
 10
0.0
 20
0.0
 30
0.0
  9
$PUCSORGRIGHT
 10
0.0
 20
0.0
 30
0.0
  9
$PUCSORGFRONT
 10
0.0
 20
0.0
 30
0.0
  9
$PUCSORGBACK
 10
0.0
 20
0.0
 30
0.0
  9
$USERI1
 70
     0
  9
$USERI2
 70
     0
  9
$USERI3
 70
     0
  9
$USERI4
 70
     0
  9
$USERI5
 70
     0
  9
$USERR1
 40
0.0
  9
$USERR2
 40
0.0
  9
$USERR3
 40
0.0
  9
$USERR4
 40
0.0
  9
$USERR5
 40
0.0
  9
$WORLDVIEW
 70
     1
  9
$SHADEDGE
 70
     3
  9
$SHADEDIF
 70
    70
  9
$TILEMODE
 70
     1
  9
$MAXACTVP
 70
    64
  9
$PINSBASE
 10
0.0
 20
0.0
 30
0.0
  9
$PLIMCHECK
 70
     0
  9
$PEXTMIN
 10
0.0
 20
0.0
 30
0.0
  9
$PEXTMAX
 10
24.0
 20
12.0
 30
0.0
  9
$PLIMMIN
 10
0.0
 20
0.0
  9
$PLIMMAX
 10
24.0
 20
12.0
  9
$UNITMODE
 70
     0
  9
$VISRETAIN
 70
     1
  9
$PLINEGEN
 70
     0
  9
$PSLTSCALE
 70
     1
  9
$TREEDEPTH
 70
  3020
  9
$CMLSTYLE
  2
Standard
  9
$CMLJUST
 70
     0
  9
$CMLSCALE
 40
1.0
  9
$PROXYGRAPHICS
 70
     1
  9
$MEASUREMENT
 70
     0
  9
$CELWEIGHT
370
    -1
  9
$ENDCAPS
280
     0
  9
$JOINSTYLE
280
     0
  9
$LWDISPLAY
290
     1
  9
$INSUNITS
 70
     1
  9
$HYPERLINKBASE
  1

  9
$STYLESHEET
  1

  9
$XEDIT
290
     1
  9
$CEPSNTYPE
380
     0
  9
$PSTYLEMODE
290
     1
  9
$FINGERPRINTGUID
  2
{1EC049CF-9BED-4D2F-9496-E5ABD5690589}
  9
$VERSIONGUID
  2
{FAEB1C32-E019-11D5-929B-00C0DF256EC4}
  9
$EXTNAMES
290
     1
  9
$PSVPSCALE
 40
0.0
  9
$OLESTARTUP
290
     0
  0
ENDSEC
  0
SECTION
  2
CLASSES
  0
CLASS
  1
ACDBDICTIONARYWDFLT
  2
AcDbDictionaryWithDefault
  3
ObjectDBX Classes
 90
        0
280
     0
281
     0
  0
CLASS
  1
VISUALSTYLE
  2
AcDbVisualStyle
  3
ObjectDBX Classes
 90
     4095
280
     0
281
     0
  0
CLASS
  1
MATERIAL
  2
AcDbMaterial
  3
ObjectDBX Classes
 90
     1153
280
     0
281
     0
  0
CLASS
  1
SCALE
  2
AcDbScale
  3
ObjectDBX Classes
 90
     1153
280
     0
281
     0
  0
CLASS
  1
SUN
  2
AcDbSun
  3
SCENEOE
 90
     1153
280
     0
281
     0
  0
CLASS
  1
ACDBPLACEHOLDER
  2
AcDbPlaceHolder
  3
ObjectDBX Classes
 90
        0
280
     0
281
     0
  0
CLASS
  1
LAYOUT
  2
AcDbLayout
  3
ObjectDBX Classes
 90
        0
280
     0
281
     0
  0
ENDSEC
  0
SECTION
  2
TABLES
  0
TABLE
  2
VPORT
  5
8
330
0
100
AcDbSymbolTable
 70
     1
  0
VPORT
  5
29
330
8
100
AcDbSymbolTableRecord
100
AcDbViewportTableRecord
  2
*Active
 70
     0
 10
0.0
 20
0.0
 11
1.0
 21
1.0
 12
12.0
 22
6.0
 13
0.0
 23
0.0
 14
0.5
 24
0.5
 15
0.5
 25
0.5
 16
0.0
 26
0.0
 36
1.0
 17
0.0
 27
0.0
 37
0.0
 40
12.0
 41
2.0
 42
50.0
 43
0.0
 44
0.0
 50
0.0
 51
0.0
 71
     0
 72
  2000
 73
     1
 74
     3
 75
     0
 76
     0
 77
     0
 78
     0
281
     0
 65
     1
110
0.0
120
0.0
130
0.0
111
1.0
121
0.0
131
0.0
112
0.0
122
1.0
132
0.0
 79
     0
146
0.0
  0
ENDTAB
  0
TABLE
  2
LTYPE
  5
5
330
0
100
AcDbSymbolTable
 70
     6
  0
LTYPE
  5
14
330
5
100
AcDbSymbolTableRecord
100
AcDbLinetypeTableRecord
  2
ByBlock
 70
     0
  3

 72
    65
 73
     0
 40
0.0
  0
LTYPE
  5
15
330
5
100
AcDbSymbolTableRecord
100
AcDbLinetypeTableRecord
  2
ByLayer
 70
     0
  3

 72
    65
 73
     0
 40
0.0
  0
LTYPE
  5
16
330
5
100
AcDbSymbolTableRecord
100
AcDbLinetypeTableRecord
  2
Continuous
 70
     0
  3
Solid line
 72
    65
 73
     0
 40
0.0
  0
LTYPE
  5
6A
330
5
100
AcDbSymbolTableRecord
100
AcDbLinetypeTableRecord
  2
HIDDEN
 70
     0
  3
Hidden __ __ __ __ __ __ __ __ __ __ __ __ __ __
 72
    65
 73
     2
 40
0.075
 49
0.05
 74
     0
 49
-0.025
 74
     0
  0
LTYPE
  5
6B
330
5
100
AcDbSymbolTableRecord
100
AcDbLinetypeTableRecord
  2
PHANTOM
 70
     0
  3
Phantom ______  __  __  ______  __  __  ______
 72
    65
 73
     6
 40
0.5
 49
0.25
 74
     0
 49
-0.05
 74
     0
 49
0.05
 74
     0
 49
-0.05
 74
     0
 49
0.05
 74
     0
 49
-0.05
 74
     0
  0
LTYPE
  5
6C
330
5
100
AcDbSymbolTableRecord
100
AcDbLinetypeTableRecord
  2
CENTER
 70
     0
  3
Center ____ _ ____ _ ____ _ ____ _ ____ _ ____
 72
    65
 73
     4
 40
0.4
 49
0.25
 74
     0
 49
-0.05
 74
     0
 49
0.05
 74
     0
 49
-0.05
 74
     0
  0
LTYPE
  5
6D
330
5
100
AcDbSymbolTableRecord
100
AcDbLinetypeTableRecord
  2
CENTERX2
 70
     0
  3
Center (2x) ________  __  ________  __  _____
 72
    65
 73
     4
 40
0.8
 49
0.5
 74
     0
 49
-0.1
 74
     0
 49
0.1
 74
     0
 49
-0.1
 74
     0
  0
LTYPE
  5
6E
330
5
100
AcDbSymbolTableRecord
100
AcDbLinetypeTableRecord
  2
DOT2
 70
     0
  3
Dot (.5x) ........................................
 72
    65
 73
     2
 40
0.025
 49
0.0
 74
     0
 49
-0.025
 74
     0
  0
ENDTAB
  0
TABLE
  2
LAYER
  5
2
330
0
100
AcDbSymbolTable
 70
     1
  0
LAYER
  5
10
330
2
100
AcDbSymbolTableRecord
100
AcDbLayerTableRecord
  2
0
 70
     0
 62
     7
  6
Continuous
370
    -3
390
F
  0
ENDTAB
  0
TABLE
  2
STYLE
  5
3
330
0
100
AcDbSymbolTable
 70
     1
  0
STYLE
  5
11
330
3
100
AcDbSymbolTableRecord
100
AcDbTextStyleTableRecord
  2
Standard
 70
     0
 40
0.0
 41
1.0
 50
0.0
 71
     0
 42
0.1377952756
  3
txt
  4

  0
ENDTAB
  0
TABLE
  2
VIEW
  5
6
330
0
100
AcDbSymbolTable
 70
     0
  0
ENDTAB
  0
TABLE
  2
UCS
  5
7
330
0
100
AcDbSymbolTable
 70
     0
  0
ENDTAB
  0
TABLE
  2
APPID
  5
9
330
0
100
AcDbSymbolTable
 70
     1
  0
APPID
  5
12
330
9
100
AcDbSymbolTableRecord
100
AcDbRegAppTableRecord
  2
ACAD
 70
     0
  0
ENDTAB
  0
TABLE
  2
DIMSTYLE
  5
A
330
0
100
AcDbSymbolTable
 70
     1
100
AcDbDimStyleTable
  0
DIMSTYLE
105
27
330
A
100
AcDbSymbolTableRecord
100
AcDbDimStyleTableRecord
  2
Standard
 70
     0
178
     0
340
11
  0
ENDTAB
  0
TABLE
  2
BLOCK_RECORD
  5
1
330
0
100
AcDbSymbolTable
 70
     4
  0
BLOCK_RECORD
  5
1F
330
1
100
AcDbSymbolTableRecord
100
AcDbBlockTableRecord
  2
*Model_Space
340
22
  0
BLOCK_RECORD
  5
1B
330
1
100
AcDbSymbolTableRecord
100
AcDbBlockTableRecord
  2
*Paper_Space
340
1E
  0
BLOCK_RECORD
  5
23
330
1
100
AcDbSymbolTableRecord
100
AcDbBlockTableRecord
  2
*Paper_Space0
340
26
  0
BLOCK_RECORD
  5
1C0
330
1
100
AcDbSymbolTableRecord
100
AcDbBlockTableRecord
  2
*Paper_Space1
340
1C1
  0
BLOCK_RECORD
  5
21C
330
1
100
AcDbSymbolTableRecord
100
AcDbBlockTableRecord
  2
*Paper_Space2
340
21D
  0
BLOCK_RECORD
  5
2A0
330
1
100
AcDbSymbolTableRecord
100
AcDbBlockTableRecord
  2
*Paper_Space3
340
2A1
  0
ENDTAB
  0
ENDSEC
  0
SECTION
  2
BLOCKS
  0
BLOCK
  5
20
330
1F
100
AcDbEntity
  8
0
100
AcDbBlockBegin
  2
*Model_Space
 70
     0
 10
0.0
 20
0.0
 30
0.0
  3
*Model_Space
  1
*Model_Space
  0
ENDBLK
  5
21
330
1F
100
AcDbEntity
  8
0
100
AcDbBlockEnd
  0
BLOCK
  5
1C
330
1B
100
AcDbEntity
 67
     1
  8
0
100
AcDbBlockBegin
  2
*Paper_Space
 70
     0
 10
0.0
 20
0.0
 30
0.0
  3
*Paper_Space
  1
*Paper_Space
  0
ENDBLK
  5
1D
330
1B
100
AcDbEntity
 67
     1
  8
0
100
AcDbBlockEnd
  0
BLOCK
  5
24
330
23
100
AcDbEntity
  8
0
100
AcDbBlockBegin
  2
*Paper_Space0
 70
     0
 10
0.0
 20
0.0
 30
0.0
  3
*Paper_Space0
  1
*Paper_Space0
  0
LINE
  5
166
330
23
100
AcDbEntity
  8
0
  6
Continuous
 62
     1
370
    15
100
AcDbLine
 10
10.3986121815
 20
9.7290712132
 30
0.0
 11
10.555530373
 21
7.7352365457
 31
0.0
  0
LINE
  5
167
330
23
100
AcDbEntity
  8
0
  6
Continuous
 62
     1
370
    15
100
AcDbLine
 10
10.555530373
 20
7.7352365457
 30
0.0
 11
10.6801450397
 21
7.7450439327
 31
0.0
  0
LINE
  5
168
330
23
100
AcDbEntity
  8
0
  6
Continuous
 62
     1
370
    15
100
AcDbLine
 10
10.5232268482
 20
9.7388786002
 30
0.0
 11
10.6801450397
 21
7.7450439327
 31
0.0
  0
LINE
  5
169
330
23
100
AcDbEntity
  8
0
  6
Continuous
 62
     1
370
    15
100
AcDbLine
 10
10.3986121815
 20
9.7290712132
 30
0.0
 11
10.5232268482
 21
9.7388786002
 31
0.0
  0
CIRCLE
  5
16A
330
23
100
AcDbEntity
  8
0
  6
Continuous
 62
     1
370
    15
100
AcDbCircle
 10
3.9861673195
 20
9.3648337654
 30
0.0
 40
0.0624999999999997
  0
CIRCLE
  5
16B
330
23
100
AcDbEntity
  8
0
  6
Continuous
 62
     1
370
    15
100
AcDbCircle
 10
9.5067964385
 20
9.7993166999
 30
0.0
 40
0.0624999999999988
  0
CIRCLE
  5
16C
330
23
100
AcDbEntity
  8
0
  6
Continuous
 62
     1
370
    15
100
AcDbCircle
 10
9.6856831768
 20
7.5263451789
 30
0.0
 40
0.0625000000000005
  0
CIRCLE
  5
16D
330
23
100
AcDbEntity
  8
0
  6
Continuous
 62
     1
370
    15
100
AcDbCircle
 10
4.1650540578
 20
7.0918622445
 30
0.0
 40
0.0624999999999997
  0
LINE
  5
16E
330
23
100
AcDbEntity
  8
0
  6
Continuous
 62
     1
370
    15
100
AcDbLine
 10
4.7570180841
 20
8.6581355045
 30
0.0
 11
5.0345127103
 21
9.2399150868
 31
0.0
  0
ARC
  5
16F
330
23
100
AcDbEntity
  8
0
  6
Continuous
 62
     1
370
    15
100
AcDbCircle
 10
5.4339570474
 20
8.3352521819
 30
0.0
 40
0.75
100
AcDbArc
 50
154.5
 51
214.5
  0
LINE
  5
170
330
23
100
AcDbEntity
  8
0
  6
Continuous
 62
     1
370
    15
100
AcDbLine
 10
5.1809509905
 20
7.3792403173
 30
0.0
 11
4.8158624059
 21
7.9104475042
 31
0.0
  0
ARC
  5
171
330
23
100
AcDbEntity
  8
0
  6
Continuous
 62
     1
370
    15
100
AcDbCircle
 10
5.799045632
 20
7.804044995
 30
0.0
 40
0.7500000000000014
100
AcDbArc
 50
214.5
 51
279.0434867696
  0
LINE
  5
172
330
23
100
AcDbEntity
  8
0
  6
Continuous
 62
     1
370
    15
100
AcDbLine
 10
8.1680494516
 20
7.4216613532
 30
0.0
 11
5.9169336791
 21
7.0633680018
 31
0.0
  0
ARC
  5
173
330
23
100
AcDbEntity
  8
0
  6
Continuous
 62
     1
370
    15
100
AcDbCircle
 10
8.0501614045
 20
8.1623383465
 30
0.0
 40
0.7500000000000021
100
AcDbArc
 50
279.0434867696
 51
334.5
  0
LINE
  5
174
330
23
100
AcDbEntity
  8
0
  6
Continuous
 62
     1
370
    15
100
AcDbLine
 10
8.9148324122
 20
8.2330434399
 30
0.0
 11
8.7271003678
 21
7.8394550239
 31
0.0
  0
ARC
  5
175
330
23
100
AcDbEntity
  8
0
  6
Continuous
 62
     1
370
    15
100
AcDbCircle
 10
8.2378934489
 20
8.5559267625
 30
0.0
 40
0.7499999999999996
100
AcDbArc
 50
334.5
 51
34.5
  0
LINE
  5
176
330
23
100
AcDbEntity
  8
0
  6
Continuous
 62
     1
370
    15
100
AcDbLine
 10
8.6089965457
 20
9.3401063677
 30
0.0
 11
8.8559880904
 21
8.9807314402
 31
0.0
  0
ARC
  5
177
330
23
100
AcDbEntity
  8
0
  6
Continuous
 62
     1
370
    15
100
AcDbCircle
 10
7.9909019042
 20
8.9153016901
 30
0.0
 40
0.750000000000002
100
AcDbArc
 50
34.5
 51
89.9565132304
  0
LINE
  5
178
330
23
100
AcDbEntity
  8
0
  6
Continuous
 62
     1
370
    15
100
AcDbLine
 10
5.712020914
 20
9.6670315482
 30
0.0
 11
7.9914711446
 21
9.665301474
 31
0.0
  0
ARC
  5
179
330
23
100
AcDbEntity
  8
0
  6
Continuous
 62
     1
370
    15
100
AcDbCircle
 10
5.7114516735
 20
8.9170317642
 30
0.0
 40
0.749999999999999
100
AcDbArc
 50
89.9565132304
 51
154.5
  0
LINE
  5
17A
330
23
100
AcDbEntity
  8
0
  6
Continuous
 62
     1
370
    15
100
AcDbLine
 10
0.5783266917
 20
6.9500135867
 30
0.0
 11
0.7029413584
 21
6.9598209737
 31
0.0
  0
LINE
  5
17B
330
23
100
AcDbEntity
  8
0
  6
Continuous
 62
     1
370
    15
100
AcDbLine
 10
0.5783266917
 20
6.9500135867
 30
0.0
 11
0.4214085003
 21
8.9438482542
 31
0.0
  0
LINE
  5
17C
330
23
100
AcDbEntity
  8
0
  6
Continuous
 62
     1
370
    15
100
AcDbLine
 10
0.4214085003
 20
8.9438482542
 30
0.0
 11
0.546023167
 21
8.9536556411
 31
0.0
  0
LINE
  5
17D
330
23
100
AcDbEntity
  8
0
  6
Continuous
 62
     1
370
    15
100
AcDbLine
 10
0.546023167
 20
8.9536556411
 30
0.0
 11
0.3518310554
 21
11.4211003691
 31
0.0
  0
LINE
  5
17E
330
23
100
AcDbEntity
  8
0
  6
Continuous
 62
     1
370
    15
100
AcDbLine
 10
2.3724092922
 20
11.4195667755
 30
0.0
 11
0.3518310554
 21
11.4211003691
 31
0.0
  0
LINE
  5
17F
330
23
100
AcDbEntity
  8
0
  6
Continuous
 62
     1
370
    15
100
AcDbLine
 10
2.3726096648
 20
11.6835666995
 30
0.0
 11
2.3724092922
 21
11.4195667755
 31
0.0
  0
LINE
  5
180
330
23
100
AcDbEntity
  8
0
  6
Continuous
 62
     1
370
    15
100
AcDbLine
 10
4.3726090887
 20
11.682048725
 30
0.0
 11
2.3726096648
 21
11.6835666995
 31
0.0
  0
LINE
  5
181
330
23
100
AcDbEntity
  8
0
  6
Continuous
 62
     1
370
    15
100
AcDbLine
 10
4.3726090887
 20
11.682048725
 30
0.0
 11
4.3724087161
 21
11.4180488011
 31
0.0
  0
LINE
  5
182
330
23
100
AcDbEntity
  8
0
  6
Continuous
 62
     1
370
    15
100
AcDbLine
 10
8.1874784748
 20
11.415153211
 30
0.0
 11
4.3724087161
 21
11.4180488011
 31
0.0
  0
LINE
  5
183
330
23
100
AcDbEntity
  8
0
  6
Continuous
 62
     1
370
    15
100
AcDbLine
 10
8.1876788474
 20
11.6791531349
 30
0.0
 11
8.1874784748
 21
11.415153211
 31
0.0
  0
LINE
  5
184
330
23
100
AcDbEntity
  8
0
  6
Continuous
 62
     1
370
    15
100
AcDbLine
 10
10.1876782713
 20
11.6776351605
 30
0.0
 11
8.1876788474
 21
11.6791531349
 31
0.0
  0
LINE
  5
185
330
23
100
AcDbEntity
  8
0
  6
Continuous
 62
     1
370
    15
100
AcDbLine
 10
10.1876782713
 20
11.6776351605
 30
0.0
 11
10.1874778987
 21
11.4136352365
 31
0.0
  0
LINE
  5
186
330
23
100
AcDbEntity
  8
0
  6
Continuous
 62
     1
370
    15
100
AcDbLine
 10
12.7624299688
 20
11.4116808802
 30
0.0
 11
10.1874778987
 21
11.4136352365
 31
0.0
  0
LINE
  5
187
330
23
100
AcDbEntity
  8
0
  6
Continuous
 62
     1
370
    15
100
AcDbLine
 10
12.7624299688
 20
11.4116808802
 30
0.0
 11
13.1534637839
 21
6.4431251669
 31
0.0
  0
LINE
  5
188
330
23
100
AcDbEntity
  8
0
  6
Continuous
 62
     1
370
    15
100
AcDbLine
 10
10.6105193753
 20
6.0383836224
 30
0.0
 11
13.1534637839
 21
6.4431251669
 31
0.0
  0
LINE
  5
189
330
23
100
AcDbEntity
  8
0
  6
Continuous
 62
     1
370
    15
100
AcDbLine
 10
10.6105193753
 20
6.0383836224
 30
0.0
 11
10.6520159679
 21
5.7776653207
 31
0.0
  0
LINE
  5
18A
330
23
100
AcDbEntity
  8
0
  6
Continuous
 62
     1
370
    15
100
AcDbLine
 10
8.6768773192
 20
5.4632971951
 30
0.0
 11
10.6520159679
 21
5.7776653207
 31
0.0
  0
LINE
  5
18B
330
23
100
AcDbEntity
  8
0
  6
Continuous
 62
     1
370
    15
100
AcDbLine
 10
8.6353807266
 20
5.7240154967
 30
0.0
 11
8.6768773192
 21
5.4632971951
 31
0.0
  0
LINE
  5
18C
330
23
100
AcDbEntity
  8
0
  6
Continuous
 62
     1
370
    15
100
AcDbLine
 10
4.8677337775
 20
5.1243471594
 30
0.0
 11
8.6353807266
 21
5.7240154967
 31
0.0
  0
LINE
  5
18D
330
23
100
AcDbEntity
  8
0
  6
Continuous
 62
     1
370
    15
100
AcDbLine
 10
4.9092303701
 20
4.8636288577
 30
0.0
 11
4.8677337775
 21
5.1243471594
 31
0.0
  0
LINE
  5
18E
330
23
100
AcDbEntity
  8
0
  6
Continuous
 62
     1
370
    15
100
AcDbLine
 10
2.9340917214
 20
4.5492607321
 30
0.0
 11
4.9092303701
 21
4.8636288577
 31
0.0
  0
LINE
  5
18F
330
23
100
AcDbEntity
  8
0
  6
Continuous
 62
     1
370
    15
100
AcDbLine
 10
2.8925951288
 20
4.8099790337
 30
0.0
 11
2.9340917214
 21
4.5492607321
 31
0.0
  0
LINE
  5
190
330
23
100
AcDbEntity
  8
0
  6
Continuous
 62
     1
370
    15
100
AcDbLine
 10
0.89713347
 20
4.4923762457
 30
0.0
 11
2.8925951288
 21
4.8099790337
 31
0.0
  0
LINE
  5
191
330
23
100
AcDbEntity
  8
0
  6
Continuous
 62
     1
370
    15
100
AcDbLine
 10
0.89713347
 20
4.4923762457
 30
0.0
 11
0.7029413584
 21
6.9598209737
 31
0.0
  0
CIRCLE
  5
192
330
23
100
AcDbEntity
  8
0
  6
Continuous
 62
     1
370
    15
100
AcDbCircle
 10
1.7818887111
 20
5.6041895964
 30
0.0
 40
0.0624999999999996
  0
LINE
  5
193
330
23
100
AcDbEntity
  8
0
  6
Continuous
 62
     1
370
    15
100
AcDbLine
 10
13.3141837352
 20
2.280257166
 30
0.0
 11
13.1572655437
 21
4.2740918335
 31
0.0
  0
LINE
  5
194
330
23
100
AcDbEntity
  8
0
  6
Continuous
 62
     1
370
    15
100
AcDbLine
 10
13.1572655437
 20
4.2740918335
 30
0.0
 11
13.032650877
 21
4.2642844465
 31
0.0
  0
LINE
  5
195
330
23
100
AcDbEntity
  8
0
  6
Continuous
 62
     1
370
    15
100
AcDbLine
 10
13.1895690685
 20
2.270449779
 30
0.0
 11
13.032650877
 21
4.2642844465
 31
0.0
  0
LINE
  5
196
330
23
100
AcDbEntity
  8
0
  6
Continuous
 62
     1
370
    15
100
AcDbLine
 10
13.3141837352
 20
2.280257166
 30
0.0
 11
13.1895690685
 21
2.270449779
 31
0.0
  0
CIRCLE
  5
197
330
23
100
AcDbEntity
  8
0
  6
Continuous
 62
     1
370
    15
100
AcDbCircle
 10
19.7266285972
 20
2.6444946138
 30
0.0
 40
0.0625000000000024
  0
CIRCLE
  5
198
330
23
100
AcDbEntity
  8
0
  6
Continuous
 62
     1
370
    15
100
AcDbCircle
 10
14.2059994782
 20
2.2100116794
 30
0.0
 40
0.0624999999999988
  0
CIRCLE
  5
199
330
23
100
AcDbEntity
  8
0
  6
Continuous
 62
     1
370
    15
100
AcDbCircle
 10
14.0271127399
 20
4.4829832003
 30
0.0
 40
0.0624999999999988
  0
CIRCLE
  5
19A
330
23
100
AcDbEntity
  8
0
  6
Continuous
 62
     1
370
    15
100
AcDbCircle
 10
19.5477418589
 20
4.9174661347
 30
0.0
 40
0.0625000000000024
  0
LINE
  5
19B
330
23
100
AcDbEntity
  8
0
  6
Continuous
 62
     1
370
    15
100
AcDbLine
 10
18.9557778326
 20
3.3511928747
 30
0.0
 11
18.6782832064
 21
2.7694132924
 31
0.0
  0
ARC
  5
19C
330
23
100
AcDbEntity
  8
0
  6
Continuous
 62
     1
370
    15
100
AcDbCircle
 10
18.2788388693
 20
3.6740761973
 30
0.0
 40
0.750000000000003
100
AcDbArc
 50
334.5
 51
34.5
  0
LINE
  5
19D
330
23
100
AcDbEntity
  8
0
  6
Continuous
 62
     1
370
    15
100
AcDbLine
 10
18.5318449262
 20
4.6300880619
 30
0.0
 11
18.8969335108
 21
4.098880875
 31
0.0
  0
ARC
  5
19E
330
23
100
AcDbEntity
  8
0
  6
Continuous
 62
     1
370
    15
100
AcDbCircle
 10
17.9137502847
 20
4.2052833842
 30
0.0
 40
0.7499999999999997
100
AcDbArc
 50
34.5
 51
99.0434867696
  0
LINE
  5
19F
330
23
100
AcDbEntity
  8
0
  6
Continuous
 62
     1
370
    15
100
AcDbLine
 10
15.5447464651
 20
4.587667026
 30
0.0
 11
17.7958622376
 21
4.9459603775
 31
0.0
  0
ARC
  5
1A0
330
23
100
AcDbEntity
  8
0
  6
Continuous
 62
     1
370
    15
100
AcDbCircle
 10
15.6626345122
 20
3.8469900327
 30
0.0
 40
0.7500000000000012
100
AcDbArc
 50
99.0434867696
 51
154.5
  0
LINE
  5
1A1
330
23
100
AcDbEntity
  8
0
  6
Continuous
 62
     1
370
    15
100
AcDbLine
 10
14.7979635045
 20
3.7762849393
 30
0.0
 11
14.9856955489
 21
4.1698733553
 31
0.0
  0
ARC
  5
1A2
330
23
100
AcDbEntity
  8
0
  6
Continuous
 62
     1
370
    15
100
AcDbCircle
 10
15.4749024678
 20
3.4534016167
 30
0.0
 40
0.7500000000000003
100
AcDbArc
 50
154.5
 51
214.5
  0
LINE
  5
1A3
330
23
100
AcDbEntity
  8
0
  6
Continuous
 62
     1
370
    15
100
AcDbLine
 10
15.103799371
 20
2.6692220115
 30
0.0
 11
14.8568078263
 21
3.028596939
 31
0.0
  0
ARC
  5
1A4
330
23
100
AcDbEntity
  8
0
  6
Continuous
 62
     1
370
    15
100
AcDbCircle
 10
15.7218940125
 20
3.0940266892
 30
0.0
 40
0.7500000000000011
100
AcDbArc
 50
214.5
 51
269.9565132304
  0
LINE
  5
1A5
330
23
100
AcDbEntity
  8
0
  6
Continuous
 62
     1
370
    15
100
AcDbLine
 10
18.0007750027
 20
2.3422968311
 30
0.0
 11
15.7213247721
 21
2.3440269052
 31
0.0
  0
ARC
  5
1A6
330
23
100
AcDbEntity
  8
0
  6
Continuous
 62
     1
370
    15
100
AcDbCircle
 10
18.0013442432
 20
3.092296615
 30
0.0
 40
0.7499999999999998
100
AcDbArc
 50
269.9565132304
 51
334.5
  0
LINE
  5
1A7
330
23
100
AcDbEntity
  8
0
  6
Continuous
 62
     1
370
    15
100
AcDbLine
 10
23.134469225
 20
5.0593147925
 30
0.0
 11
23.0098545583
 21
5.0495074056
 31
0.0
  0
LINE
  5
1A8
330
23
100
AcDbEntity
  8
0
  6
Continuous
 62
     1
370
    15
100
AcDbLine
 10
23.134469225
 20
5.0593147925
 30
0.0
 11
23.2913874164
 21
3.0654801251
 31
0.0
  0
LINE
  5
1A9
330
23
100
AcDbEntity
  8
0
  6
Continuous
 62
     1
370
    15
100
AcDbLine
 10
23.2913874164
 20
3.0654801251
 30
0.0
 11
23.1667727497
 21
3.0556727381
 31
0.0
  0
LINE
  5
1AA
330
23
100
AcDbEntity
  8
0
  6
Continuous
 62
     1
370
    15
100
AcDbLine
 10
23.1667727497
 20
3.0556727381
 30
0.0
 11
23.3609648613
 21
0.5882280101
 31
0.0
  0
LINE
  5
1AB
330
23
100
AcDbEntity
  8
0
  6
Continuous
 62
     1
370
    15
100
AcDbLine
 10
21.3403866245
 20
0.5897616037
 30
0.0
 11
23.3609648613
 21
0.5882280101
 31
0.0
  0
LINE
  5
1AC
330
23
100
AcDbEntity
  8
0
  6
Continuous
 62
     1
370
    15
100
AcDbLine
 10
21.3401862519
 20
0.3257616797
 30
0.0
 11
21.3403866245
 21
0.5897616037
 31
0.0
  0
LINE
  5
1AD
330
23
100
AcDbEntity
  8
0
  6
Continuous
 62
     1
370
    15
100
AcDbLine
 10
19.340186828
 20
0.3272796542
 30
0.0
 11
21.3401862519
 21
0.3257616797
 31
0.0
  0
LINE
  5
1AE
330
23
100
AcDbEntity
  8
0
  6
Continuous
 62
     1
370
    15
100
AcDbLine
 10
19.340186828
 20
0.3272796542
 30
0.0
 11
19.3403872006
 21
0.5912795782
 31
0.0
  0
LINE
  5
1AF
330
23
100
AcDbEntity
  8
0
  6
Continuous
 62
     1
370
    15
100
AcDbLine
 10
15.5253174419
 20
0.5941751682
 30
0.0
 11
19.3403872006
 21
0.5912795782
 31
0.0
  0
LINE
  5
1B0
330
23
100
AcDbEntity
  8
0
  6
Continuous
 62
     1
370
    15
100
AcDbLine
 10
15.5251170693
 20
0.3301752443
 30
0.0
 11
15.5253174419
 21
0.5941751682
 31
0.0
  0
LINE
  5
1B1
330
23
100
AcDbEntity
  8
0
  6
Continuous
 62
     1
370
    15
100
AcDbLine
 10
13.5251176454
 20
0.3316932188
 30
0.0
 11
15.5251170693
 21
0.3301752443
 31
0.0
  0
LINE
  5
1B2
330
23
100
AcDbEntity
  8
0
  6
Continuous
 62
     1
370
    15
100
AcDbLine
 10
13.5251176454
 20
0.3316932188
 30
0.0
 11
13.525318018
 21
0.5956931427
 31
0.0
  0
LINE
  5
1B3
330
23
100
AcDbEntity
  8
0
  6
Continuous
 62
     1
370
    15
100
AcDbLine
 10
10.9503659479
 20
0.597647499
 30
0.0
 11
13.525318018
 21
0.5956931427
 31
0.0
  0
LINE
  5
1B4
330
23
100
AcDbEntity
  8
0
  6
Continuous
 62
     1
370
    15
100
AcDbLine
 10
10.9503659479
 20
0.597647499
 30
0.0
 11
10.5593321328
 21
5.5662032123
 31
0.0
  0
LINE
  5
1B5
330
23
100
AcDbEntity
  8
0
  6
Continuous
 62
     1
370
    15
100
AcDbLine
 10
13.1022765414
 20
5.9709447569
 30
0.0
 11
10.5593321328
 21
5.5662032123
 31
0.0
  0
LINE
  5
1B6
330
23
100
AcDbEntity
  8
0
  6
Continuous
 62
     1
370
    15
100
AcDbLine
 10
13.1022765414
 20
5.9709447569
 30
0.0
 11
13.0607799488
 21
6.2316630585
 31
0.0
  0
LINE
  5
1B7
330
23
100
AcDbEntity
  8
0
  6
Continuous
 62
     1
370
    15
100
AcDbLine
 10
15.0359185975
 20
6.5460311841
 30
0.0
 11
13.0607799488
 21
6.2316630585
 31
0.0
  0
LINE
  5
1B8
330
23
100
AcDbEntity
  8
0
  6
Continuous
 62
     1
370
    15
100
AcDbLine
 10
15.0774151901
 20
6.2853128825
 30
0.0
 11
15.0359185975
 21
6.5460311841
 31
0.0
  0
LINE
  5
1B9
330
23
100
AcDbEntity
  8
0
  6
Continuous
 62
     1
370
    15
100
AcDbLine
 10
18.8450621392
 20
6.8849812199
 30
0.0
 11
15.0774151901
 21
6.2853128825
 31
0.0
  0
LINE
  5
1BA
330
23
100
AcDbEntity
  8
0
  6
Continuous
 62
     1
370
    15
100
AcDbLine
 10
18.8035655466
 20
7.1456995215
 30
0.0
 11
18.8450621392
 21
6.8849812199
 31
0.0
  0
LINE
  5
1BB
330
23
100
AcDbEntity
  8
0
  6
Continuous
 62
     1
370
    15
100
AcDbLine
 10
20.7787041953
 20
7.4600676471
 30
0.0
 11
18.8035655466
 21
7.1456995215
 31
0.0
  0
LINE
  5
1BC
330
23
100
AcDbEntity
  8
0
  6
Continuous
 62
     1
370
    15
100
AcDbLine
 10
20.8202007878
 20
7.1993493455
 30
0.0
 11
20.7787041953
 21
7.4600676471
 31
0.0
  0
LINE
  5
1BD
330
23
100
AcDbEntity
  8
0
  6
Continuous
 62
     1
370
    15
100
AcDbLine
 10
22.8156624467
 20
7.5169521335
 30
0.0
 11
20.8202007878
 21
7.1993493455
 31
0.0
  0
LINE
  5
1BE
330
23
100
AcDbEntity
  8
0
  6
Continuous
 62
     1
370
    15
100
AcDbLine
 10
22.8156624467
 20
7.5169521335
 30
0.0
 11
23.0098545583
 21
5.0495074056
 31
0.0
  0
CIRCLE
  5
1BF
330
23
100
AcDbEntity
  8
0
  6
Continuous
 62
     1
370
    15
100
AcDbCircle
 10
21.9309072056
 20
6.4051387828
 30
0.0
 40
0.0625000000000024
  0
ENDBLK
  5
25
330
23
100
AcDbEntity
  8
0
100
AcDbBlockEnd
  0
BLOCK
  5
1C2
330
1C0
100
AcDbEntity
  8
0
100
AcDbBlockBegin
  2
*Paper_Space1
 70
     0
 10
0.0
 20
0.0
 30
0.0
  3
*Paper_Space1
  1
*Paper_Space1
  0
LINE
  5
1C4
330
1C0
100
AcDbEntity
  8
0
  6
Continuous
 62
     1
370
    15
100
AcDbLine
 10
10.6010742071
 20
9.8192969897
 30
0.0
 11
10.7256888738
 21
9.8291043767
 31
0.0
  0
LINE
  5
1C5
330
1C0
100
AcDbEntity
  8
0
  6
Continuous
 62
     1
370
    15
100
AcDbLine
 10
0.7565155365
 20
9.0445134194
 30
0.0
 11
0.9134337279
 21
7.0506787519
 31
0.0
  0
CIRCLE
  5
1C6
330
1C0
100
AcDbEntity
  8
0
  6
Continuous
 62
     1
370
    15
100
AcDbCircle
 10
10.0535786054
 20
10.4031407754
 30
0.0
 40
0.0624999999999988
  0
CIRCLE
  5
1C7
330
1C0
100
AcDbEntity
  8
0
  6
Continuous
 62
     1
370
    15
100
AcDbCircle
 10
9.3058906051
 20
10.3442964536
 30
0.0
 40
0.0624999999999972
  0
CIRCLE
  5
1C8
330
1C0
100
AcDbEntity
  8
0
  6
Continuous
 62
     1
370
    15
100
AcDbCircle
 10
10.3085706665
 20
7.1631594408
 30
0.0
 40
0.0625000000000006
  0
CIRCLE
  5
1C9
330
1C0
100
AcDbEntity
  8
0
  6
Continuous
 62
     1
370
    15
100
AcDbCircle
 10
9.5608826662
 20
7.104315119
 30
0.0
 40
0.0624999999999988
  0
LINE
  5
1CA
330
1C0
100
AcDbEntity
  8
0
  6
Continuous
 62
     1
370
    15
100
AcDbLine
 10
0.6319008697
 20
9.0347060324
 30
0.0
 11
0.7565155365
 21
9.0445134194
 31
0.0
  0
LINE
  5
1CB
330
1C0
100
AcDbEntity
  8
0
  6
Continuous
 62
     1
370
    15
100
AcDbLine
 10
0.6319008697
 20
9.0347060324
 30
0.0
 11
0.4369169856
 21
11.5122111845
 31
0.0
  0
LINE
  5
1CC
330
1C0
100
AcDbEntity
  8
0
  6
Continuous
 62
     1
370
    15
100
AcDbLine
 10
0.4369169856
 20
11.5122111845
 30
0.0
 11
2.4557553434
 21
11.5105183918
 31
0.0
  0
LINE
  5
1CD
330
1C0
100
AcDbEntity
  8
0
  6
Continuous
 62
     1
370
    15
100
AcDbLine
 10
2.4557553434
 20
11.5105183918
 30
0.0
 11
2.4559767069
 21
11.774518299
 31
0.0
  0
LINE
  5
1CE
330
1C0
100
AcDbEntity
  8
0
  6
Continuous
 62
     1
370
    15
100
AcDbLine
 10
2.4559767069
 20
11.774518299
 30
0.0
 11
4.4559760038
 21
11.7728413027
 31
0.0
  0
LINE
  5
1CF
330
1C0
100
AcDbEntity
  8
0
  6
Continuous
 62
     1
370
    15
100
AcDbLine
 10
4.4557546403
 20
11.5088413955
 30
0.0
 11
4.4559760038
 21
11.7728413027
 31
0.0
  0
LINE
  5
1D0
330
1C0
100
AcDbEntity
  8
0
  6
Continuous
 62
     1
370
    15
100
AcDbLine
 10
4.4557546403
 20
11.5088413955
 30
0.0
 11
7.9637637215
 21
11.5058999355
 31
0.0
  0
LINE
  5
1D1
330
1C0
100
AcDbEntity
  8
0
  6
Continuous
 62
     1
370
    15
100
AcDbLine
 10
7.9637637215
 20
11.5058999355
 30
0.0
 11
7.9639850851
 21
11.7698998426
 31
0.0
  0
LINE
  5
1D2
330
1C0
100
AcDbEntity
  8
0
  6
Continuous
 62
     1
370
    15
100
AcDbLine
 10
7.9639850851
 20
11.7698998426
 30
0.0
 11
9.963984382
 21
11.7682228464
 31
0.0
  0
LINE
  5
1D3
330
1C0
100
AcDbEntity
  8
0
  6
Continuous
 62
     1
370
    15
100
AcDbLine
 10
9.9637630185
 20
11.5042229392
 30
0.0
 11
9.963984382
 21
11.7682228464
 31
0.0
  0
LINE
  5
1D4
330
1C0
100
AcDbEntity
  8
0
  6
Continuous
 62
     1
370
    15
100
AcDbLine
 10
9.9637630185
 20
11.5042229392
 30
0.0
 11
13.4717720997
 21
11.5012814792
 31
0.0
  0
LINE
  5
1D5
330
1C0
100
AcDbEntity
  8
0
  6
Continuous
 62
     1
370
    15
100
AcDbLine
 10
13.4717720997
 20
11.5012814792
 30
0.0
 11
13.4719934632
 21
11.7652813863
 31
0.0
  0
LINE
  5
1D6
330
1C0
100
AcDbEntity
  8
0
  6
Continuous
 62
     1
370
    15
100
AcDbLine
 10
13.4719934632
 20
11.7652813863
 30
0.0
 11
15.4719927602
 21
11.7636043901
 31
0.0
  0
LINE
  5
1D7
330
1C0
100
AcDbEntity
  8
0
  6
Continuous
 62
     1
370
    15
100
AcDbLine
 10
15.4717713967
 20
11.4996044829
 30
0.0
 11
15.4719927602
 21
11.7636043901
 31
0.0
  0
LINE
  5
1D8
330
1C0
100
AcDbEntity
  8
0
  6
Continuous
 62
     1
370
    15
100
AcDbLine
 10
15.4717713967
 20
11.4996044829
 30
0.0
 11
17.4906097544
 21
11.4979116901
 31
0.0
  0
LINE
  5
1D9
330
1C0
100
AcDbEntity
  8
0
  6
Continuous
 62
     1
370
    15
100
AcDbLine
 10
17.4906097544
 20
11.4979116901
 30
0.0
 11
17.5794955432
 21
10.3685106598
 31
0.0
  0
LINE
  5
1DA
330
1C0
100
AcDbEntity
  8
0
  6
Continuous
 62
     1
370
    15
100
AcDbLine
 10
17.5794955432
 20
10.3685106598
 30
0.0
 11
17.4548808765
 21
10.3587032728
 31
0.0
  0
LINE
  5
1DB
330
1C0
100
AcDbEntity
  8
0
  6
Continuous
 62
     1
370
    15
100
AcDbLine
 10
17.4548808765
 20
10.3587032728
 30
0.0
 11
17.6117990679
 21
8.3648686054
 31
0.0
  0
LINE
  5
1DC
330
1C0
100
AcDbEntity
  8
0
  6
Continuous
 62
     1
370
    15
100
AcDbLine
 10
17.6117990679
 20
8.3648686054
 30
0.0
 11
17.7364137347
 21
8.3746759923
 31
0.0
  0
LINE
  5
1DD
330
1C0
100
AcDbEntity
  8
0
  6
Continuous
 62
     1
370
    15
100
AcDbLine
 10
17.7364137347
 20
8.3746759923
 30
0.0
 11
17.8252995234
 21
7.245274962
 31
0.0
  0
LINE
  5
1DE
330
1C0
100
AcDbEntity
  8
0
  6
Continuous
 62
     1
370
    15
100
AcDbLine
 10
17.8252995234
 20
7.245274962
 30
0.0
 11
15.8315812271
 21
6.9277871118
 31
0.0
  0
LINE
  5
1DF
330
1C0
100
AcDbEntity
  8
0
  6
Continuous
 62
     1
370
    15
100
AcDbLine
 10
15.8315812271
 20
6.9277871118
 30
0.0
 11
15.8730985495
 21
6.6670721104
 31
0.0
  0
LINE
  5
1E0
330
1C0
100
AcDbEntity
  8
0
  6
Continuous
 62
     1
370
    15
100
AcDbLine
 10
15.8730985495
 20
6.6670721104
 30
0.0
 11
13.8979849027
 21
6.3525469407
 31
0.0
  0
LINE
  5
1E1
330
1C0
100
AcDbEntity
  8
0
  6
Continuous
 62
     1
370
    15
100
AcDbLine
 10
13.8564675803
 20
6.6132619421
 30
0.0
 11
13.8979849027
 21
6.3525469407
 31
0.0
  0
LINE
  5
1E2
330
1C0
100
AcDbEntity
  8
0
  6
Continuous
 62
     1
370
    15
100
AcDbLine
 10
13.8564675803
 20
6.6132619421
 30
0.0
 11
10.3921080578
 21
6.0615831723
 31
0.0
  0
LINE
  5
1E3
330
1C0
100
AcDbEntity
  8
0
  6
Continuous
 62
     1
370
    15
100
AcDbLine
 10
10.3921080578
 20
6.0615831723
 30
0.0
 11
10.4336253802
 21
5.8008681709
 31
0.0
  0
LINE
  5
1E4
330
1C0
100
AcDbEntity
  8
0
  6
Continuous
 62
     1
370
    15
100
AcDbLine
 10
10.4336253802
 20
5.8008681709
 30
0.0
 11
8.4585117334
 21
5.4863430012
 31
0.0
  0
LINE
  5
1E5
330
1C0
100
AcDbEntity
  8
0
  6
Continuous
 62
     1
370
    15
100
AcDbLine
 10
8.416994411
 20
5.7470580025
 30
0.0
 11
8.4585117334
 21
5.4863430012
 31
0.0
  0
LINE
  5
1E6
330
1C0
100
AcDbEntity
  8
0
  6
Continuous
 62
     1
370
    15
100
AcDbLine
 10
8.416994411
 20
5.7470580025
 30
0.0
 11
4.9526348885
 21
5.1953792327
 31
0.0
  0
LINE
  5
1E7
330
1C0
100
AcDbEntity
  8
0
  6
Continuous
 62
     1
370
    15
100
AcDbLine
 10
4.9526348885
 20
5.1953792327
 30
0.0
 11
4.9941522109
 21
4.9346642314
 31
0.0
  0
LINE
  5
1E8
330
1C0
100
AcDbEntity
  8
0
  6
Continuous
 62
     1
370
    15
100
AcDbLine
 10
4.9941522109
 20
4.9346642314
 30
0.0
 11
3.0190385641
 21
4.6201390616
 31
0.0
  0
LINE
  5
1E9
330
1C0
100
AcDbEntity
  8
0
  6
Continuous
 62
     1
370
    15
100
AcDbLine
 10
2.9775212417
 20
4.880854063
 30
0.0
 11
3.0190385641
 21
4.6201390616
 31
0.0
  0
LINE
  5
1EA
330
1C0
100
AcDbEntity
  8
0
  6
Continuous
 62
     1
370
    15
100
AcDbLine
 10
2.9775212417
 20
4.880854063
 30
0.0
 11
0.9838029453
 21
4.5633662128
 31
0.0
  0
LINE
  5
1EB
330
1C0
100
AcDbEntity
  8
0
  6
Continuous
 62
     1
370
    15
100
AcDbLine
 10
0.9838029453
 20
4.5633662128
 30
0.0
 11
0.7888190612
 21
7.0408713649
 31
0.0
  0
LINE
  5
1EC
330
1C0
100
AcDbEntity
  8
0
  6
Continuous
 62
     1
370
    15
100
AcDbLine
 10
0.9134337279
 20
7.0506787519
 30
0.0
 11
0.7888190612
 21
7.0408713649
 31
0.0
  0
LINE
  5
1ED
330
1C0
100
AcDbEntity
  8
0
  6
Continuous
 62
     1
370
    15
100
AcDbLine
 10
10.6010742071
 20
9.8192969897
 30
0.0
 11
10.7579923985
 21
7.8254623222
 31
0.0
  0
LINE
  5
1EE
330
1C0
100
AcDbEntity
  8
0
  6
Continuous
 62
     1
370
    15
100
AcDbLine
 10
10.7579923985
 20
7.8254623222
 30
0.0
 11
10.8826070652
 21
7.8352697092
 31
0.0
  0
LINE
  5
1EF
330
1C0
100
AcDbEntity
  8
0
  6
Continuous
 62
     1
370
    15
100
AcDbLine
 10
10.7256888738
 20
9.8291043767
 30
0.0
 11
10.8826070652
 21
7.8352697092
 31
0.0
  0
LINE
  5
1F0
330
1C0
100
AcDbEntity
  8
0
  6
Continuous
 62
     1
370
    15
100
AcDbLine
 10
11.4969969532
 20
2.1313022612
 30
0.0
 11
11.3723822865
 21
2.1214948743
 31
0.0
  0
LINE
  5
1F1
330
1C0
100
AcDbEntity
  8
0
  6
Continuous
 62
     1
370
    15
100
AcDbLine
 10
21.3415556238
 20
2.9060858315
 30
0.0
 11
21.1846374323
 21
4.899920499
 31
0.0
  0
CIRCLE
  5
1F2
330
1C0
100
AcDbEntity
  8
0
  6
Continuous
 62
     1
370
    15
100
AcDbCircle
 10
12.0444925549
 20
1.5474584755
 30
0.0
 40
0.0624999999999995
  0
CIRCLE
  5
1F3
330
1C0
100
AcDbEntity
  8
0
  6
Continuous
 62
     1
370
    15
100
AcDbCircle
 10
12.7921805552
 20
1.6063027973
 30
0.0
 40
0.0624999999999993
  0
CIRCLE
  5
1F4
330
1C0
100
AcDbEntity
  8
0
  6
Continuous
 62
     1
370
    15
100
AcDbCircle
 10
11.7895004938
 20
4.7874398101
 30
0.0
 40
0.0624999999999997
  0
CIRCLE
  5
1F5
330
1C0
100
AcDbEntity
  8
0
  6
Continuous
 62
     1
370
    15
100
AcDbCircle
 10
12.5371884941
 20
4.8462841319
 30
0.0
 40
0.0624999999999997
  0
LINE
  5
1F6
330
1C0
100
AcDbEntity
  8
0
  6
Continuous
 62
     1
370
    15
100
AcDbLine
 10
21.4661702905
 20
2.9158932185
 30
0.0
 11
21.3415556238
 21
2.9060858315
 31
0.0
  0
LINE
  5
1F7
330
1C0
100
AcDbEntity
  8
0
  6
Continuous
 62
     1
370
    15
100
AcDbLine
 10
21.4661702905
 20
2.9158932185
 30
0.0
 11
21.6611541747
 21
0.4383880664
 31
0.0
  0
LINE
  5
1F8
330
1C0
100
AcDbEntity
  8
0
  6
Continuous
 62
     1
370
    15
100
AcDbLine
 10
21.6611541747
 20
0.4383880664
 30
0.0
 11
19.6423158169
 21
0.4400808592
 31
0.0
  0
LINE
  5
1F9
330
1C0
100
AcDbEntity
  8
0
  6
Continuous
 62
     1
370
    15
100
AcDbLine
 10
19.6423158169
 20
0.4400808592
 30
0.0
 11
19.6420944534
 21
0.176080952
 31
0.0
  0
LINE
  5
1FA
330
1C0
100
AcDbEntity
  8
0
  6
Continuous
 62
     1
370
    15
100
AcDbLine
 10
19.6420944534
 20
0.176080952
 30
0.0
 11
17.6420951565
 21
0.1777579482
 31
0.0
  0
LINE
  5
1FB
330
1C0
100
AcDbEntity
  8
0
  6
Continuous
 62
     1
370
    15
100
AcDbLine
 10
17.64231652
 20
0.4417578554
 30
0.0
 11
17.6420951565
 21
0.1777579482
 31
0.0
  0
LINE
  5
1FC
330
1C0
100
AcDbEntity
  8
0
  6
Continuous
 62
     1
370
    15
100
AcDbLine
 10
17.64231652
 20
0.4417578554
 30
0.0
 11
14.1343074387
 21
0.4446993155
 31
0.0
  0
LINE
  5
1FD
330
1C0
100
AcDbEntity
  8
0
  6
Continuous
 62
     1
370
    15
100
AcDbLine
 10
14.1343074387
 20
0.4446993155
 30
0.0
 11
14.1340860752
 21
0.1806994083
 31
0.0
  0
LINE
  5
1FE
330
1C0
100
AcDbEntity
  8
0
  6
Continuous
 62
     1
370
    15
100
AcDbLine
 10
14.1340860752
 20
0.1806994083
 30
0.0
 11
12.1340867783
 21
0.1823764045
 31
0.0
  0
LINE
  5
1FF
330
1C0
100
AcDbEntity
  8
0
  6
Continuous
 62
     1
370
    15
100
AcDbLine
 10
12.1343081418
 20
0.4463763117
 30
0.0
 11
12.1340867783
 21
0.1823764045
 31
0.0
  0
LINE
  5
200
330
1C0
100
AcDbEntity
  8
0
  6
Continuous
 62
     1
370
    15
100
AcDbLine
 10
12.1343081418
 20
0.4463763117
 30
0.0
 11
8.6262990605
 21
0.4493177718
 31
0.0
  0
LINE
  5
201
330
1C0
100
AcDbEntity
  8
0
  6
Continuous
 62
     1
370
    15
100
AcDbLine
 10
8.6262990605
 20
0.4493177718
 30
0.0
 11
8.626077697
 21
0.1853178646
 31
0.0
  0
LINE
  5
202
330
1C0
100
AcDbEntity
  8
0
  6
Continuous
 62
     1
370
    15
100
AcDbLine
 10
8.626077697
 20
0.1853178646
 30
0.0
 11
6.6260784001
 21
0.1869948608
 31
0.0
  0
LINE
  5
203
330
1C0
100
AcDbEntity
  8
0
  6
Continuous
 62
     1
370
    15
100
AcDbLine
 10
6.6262997636
 20
0.450994768
 30
0.0
 11
6.6260784001
 21
0.1869948608
 31
0.0
  0
LINE
  5
204
330
1C0
100
AcDbEntity
  8
0
  6
Continuous
 62
     1
370
    15
100
AcDbLine
 10
6.6262997636
 20
0.450994768
 30
0.0
 11
4.6074614058
 21
0.4526875608
 31
0.0
  0
LINE
  5
205
330
1C0
100
AcDbEntity
  8
0
  6
Continuous
 62
     1
370
    15
100
AcDbLine
 10
4.6074614058
 20
0.4526875608
 30
0.0
 11
4.5185756171
 21
1.5820885911
 31
0.0
  0
LINE
  5
206
330
1C0
100
AcDbEntity
  8
0
  6
Continuous
 62
     1
370
    15
100
AcDbLine
 10
4.5185756171
 20
1.5820885911
 30
0.0
 11
4.6431902838
 21
1.5918959781
 31
0.0
  0
LINE
  5
207
330
1C0
100
AcDbEntity
  8
0
  6
Continuous
 62
     1
370
    15
100
AcDbLine
 10
4.6431902838
 20
1.5918959781
 30
0.0
 11
4.4862720923
 21
3.5857306456
 31
0.0
  0
LINE
  5
208
330
1C0
100
AcDbEntity
  8
0
  6
Continuous
 62
     1
370
    15
100
AcDbLine
 10
4.4862720923
 20
3.5857306456
 30
0.0
 11
4.3616574256
 21
3.5759232586
 31
0.0
  0
LINE
  5
209
330
1C0
100
AcDbEntity
  8
0
  6
Continuous
 62
     1
370
    15
100
AcDbLine
 10
4.3616574256
 20
3.5759232586
 30
0.0
 11
4.2727716368
 21
4.705324289
 31
0.0
  0
LINE
  5
20A
330
1C0
100
AcDbEntity
  8
0
  6
Continuous
 62
     1
370
    15
100
AcDbLine
 10
4.2727716368
 20
4.705324289
 30
0.0
 11
6.2664899332
 21
5.0228121391
 31
0.0
  0
LINE
  5
20B
330
1C0
100
AcDbEntity
  8
0
  6
Continuous
 62
     1
370
    15
100
AcDbLine
 10
6.2664899332
 20
5.0228121391
 30
0.0
 11
6.2249726108
 21
5.2835271405
 31
0.0
  0
LINE
  5
20C
330
1C0
100
AcDbEntity
  8
0
  6
Continuous
 62
     1
370
    15
100
AcDbLine
 10
6.2249726108
 20
5.2835271405
 30
0.0
 11
8.2000862575
 21
5.5980523102
 31
0.0
  0
LINE
  5
20D
330
1C0
100
AcDbEntity
  8
0
  6
Continuous
 62
     1
370
    15
100
AcDbLine
 10
8.2416035799
 20
5.3373373089
 30
0.0
 11
8.2000862575
 21
5.5980523102
 31
0.0
  0
LINE
  5
20E
330
1C0
100
AcDbEntity
  8
0
  6
Continuous
 62
     1
370
    15
100
AcDbLine
 10
8.2416035799
 20
5.3373373089
 30
0.0
 11
11.7059631025
 21
5.8890160787
 31
0.0
  0
LINE
  5
20F
330
1C0
100
AcDbEntity
  8
0
  6
Continuous
 62
     1
370
    15
100
AcDbLine
 10
11.7059631025
 20
5.8890160787
 30
0.0
 11
11.6644457801
 21
6.14973108
 31
0.0
  0
LINE
  5
210
330
1C0
100
AcDbEntity
  8
0
  6
Continuous
 62
     1
370
    15
100
AcDbLine
 10
11.6644457801
 20
6.14973108
 30
0.0
 11
13.6395594268
 21
6.4642562498
 31
0.0
  0
LINE
  5
211
330
1C0
100
AcDbEntity
  8
0
  6
Continuous
 62
     1
370
    15
100
AcDbLine
 10
13.6810767493
 20
6.2035412484
 30
0.0
 11
13.6395594268
 21
6.4642562498
 31
0.0
  0
LINE
  5
212
330
1C0
100
AcDbEntity
  8
0
  6
Continuous
 62
     1
370
    15
100
AcDbLine
 10
13.6810767493
 20
6.2035412484
 30
0.0
 11
17.1454362718
 21
6.7552200182
 31
0.0
  0
LINE
  5
213
330
1C0
100
AcDbEntity
  8
0
  6
Continuous
 62
     1
370
    15
100
AcDbLine
 10
17.1454362718
 20
6.7552200182
 30
0.0
 11
17.1039189494
 21
7.0159350195
 31
0.0
  0
LINE
  5
214
330
1C0
100
AcDbEntity
  8
0
  6
Continuous
 62
     1
370
    15
100
AcDbLine
 10
17.1039189494
 20
7.0159350195
 30
0.0
 11
19.0790325962
 21
7.3304601893
 31
0.0
  0
LINE
  5
215
330
1C0
100
AcDbEntity
  8
0
  6
Continuous
 62
     1
370
    15
100
AcDbLine
 10
19.1205499186
 20
7.0697451879
 30
0.0
 11
19.0790325962
 21
7.3304601893
 31
0.0
  0
LINE
  5
216
330
1C0
100
AcDbEntity
  8
0
  6
Continuous
 62
     1
370
    15
100
AcDbLine
 10
19.1205499186
 20
7.0697451879
 30
0.0
 11
21.1142682149
 21
7.3872330381
 31
0.0
  0
LINE
  5
217
330
1C0
100
AcDbEntity
  8
0
  6
Continuous
 62
     1
370
    15
100
AcDbLine
 10
21.1142682149
 20
7.3872330381
 30
0.0
 11
21.3092520991
 21
4.909727886
 31
0.0
  0
LINE
  5
218
330
1C0
100
AcDbEntity
  8
0
  6
Continuous
 62
     1
370
    15
100
AcDbLine
 10
21.1846374323
 20
4.899920499
 30
0.0
 11
21.3092520991
 21
4.909727886
 31
0.0
  0
LINE
  5
219
330
1C0
100
AcDbEntity
  8
0
  6
Continuous
 62
     1
370
    15
100
AcDbLine
 10
11.4969969532
 20
2.1313022612
 30
0.0
 11
11.3400787617
 21
4.1251369287
 31
0.0
  0
LINE
  5
21A
330
1C0
100
AcDbEntity
  8
0
  6
Continuous
 62
     1
370
    15
100
AcDbLine
 10
11.3400787617
 20
4.1251369287
 30
0.0
 11
11.215464095
 21
4.1153295417
 31
0.0
  0
LINE
  5
21B
330
1C0
100
AcDbEntity
  8
0
  6
Continuous
 62
     1
370
    15
100
AcDbLine
 10
11.3723822865
 20
2.1214948743
 30
0.0
 11
11.215464095
 21
4.1153295417
 31
0.0
  0
ENDBLK
  5
1C3
330
1C0
100
AcDbEntity
  8
0
100
AcDbBlockEnd
  0
BLOCK
  5
21E
330
21C
100
AcDbEntity
  8
0
100
AcDbBlockBegin
  2
*Paper_Space2
 70
     0
 10
0.0
 20
0.0
 30
0.0
  3
*Paper_Space2
  1
*Paper_Space2
  0
LINE
  5
220
330
21C
100
AcDbEntity
  8
0
  6
Continuous
 62
     1
370
    15
100
AcDbLine
 10
9.4810693394
 20
9.0678066419
 30
0.0
 11
13.5780693394
 21
9.0678066419
 31
0.0
  0
LINE
  5
221
330
21C
100
AcDbEntity
  8
0
  6
Continuous
 62
     1
370
    15
100
AcDbLine
 10
10.7310693394
 20
7.1928066419
 30
0.0
 11
10.7310693394
 21
5.5642088856
 31
0.0
  0
LINE
  5
222
330
21C
100
AcDbEntity
  8
0
  6
Continuous
 62
     1
370
    15
100
AcDbLine
 10
10.5295693394
 20
8.5678066419
 30
0.0
 11
10.5295693394
 21
8.4428066419
 31
0.0
  0
LINE
  5
223
330
21C
100
AcDbEntity
  8
0
  6
Continuous
 62
     1
370
    15
100
AcDbLine
 10
15.0780693394
 20
4.0642088856
 30
0.0
 11
15.0780693394
 21
8.4428066419
 31
0.0
  0
ARC
  5
224
330
21C
100
AcDbEntity
  8
0
  6
Continuous
 62
     1
370
    15
100
AcDbCircle
 10
11.4810693394
 20
5.5642088856
 30
0.0
 40
0.7500000000000009
100
AcDbArc
 50
180.0
 51
270.0
  0
LINE
  5
225
330
21C
100
AcDbEntity
  8
0
  6
Continuous
 62
     1
370
    15
100
AcDbLine
 10
11.4810693394
 20
4.8142088856
 30
0.0
 11
13.3280693394
 21
4.8142088856
 31
0.0
  0
ARC
  5
226
330
21C
100
AcDbEntity
  8
0
  6
Continuous
 62
     1
370
    15
100
AcDbCircle
 10
13.3280693394
 20
5.5642088856
 30
0.0
 40
0.7500000000000018
100
AcDbArc
 50
270.0
 51
0.0
  0
LINE
  5
227
330
21C
100
AcDbEntity
  8
0
  6
Continuous
 62
     1
370
    15
100
AcDbLine
 10
14.0780693394
 20
7.1928066419
 30
0.0
 11
14.0780693394
 21
5.5642088856
 31
0.0
  0
ARC
  5
228
330
21C
100
AcDbEntity
  8
0
  6
Continuous
 62
     1
370
    15
100
AcDbCircle
 10
13.3280693394
 20
7.1928066419
 30
0.0
 40
0.75
100
AcDbArc
 50
0.0
 51
90.0
  0
LINE
  5
229
330
21C
100
AcDbEntity
  8
0
  6
Continuous
 62
     1
370
    15
100
AcDbLine
 10
11.4810693394
 20
7.9428066419
 30
0.0
 11
13.3280693394
 21
7.9428066419
 31
0.0
  0
ARC
  5
22A
330
21C
100
AcDbEntity
  8
0
  6
Continuous
 62
     1
370
    15
100
AcDbCircle
 10
11.4810693394
 20
7.1928066419
 30
0.0
 40
0.75
100
AcDbArc
 50
90.0
 51
180.0
  0
LINE
  5
22B
330
21C
100
AcDbEntity
  8
0
  6
Continuous
 62
     1
370
    15
100
AcDbLine
 10
10.5295693394
 20
8.4428066419
 30
0.0
 11
12.5295693394
 21
8.4428066419
 31
0.0
  0
LINE
  5
22C
330
21C
100
AcDbEntity
  8
0
  6
Continuous
 62
     1
370
    15
100
AcDbLine
 10
12.5295693394
 20
8.5678066419
 30
0.0
 11
12.5295693394
 21
8.4428066419
 31
0.0
  0
LINE
  5
22D
330
21C
100
AcDbEntity
  8
0
  6
Continuous
 62
     1
370
    15
100
AcDbLine
 10
10.5295693394
 20
8.5678066419
 30
0.0
 11
12.5295693394
 21
8.5678066419
 31
0.0
  0
LINE
  5
22E
330
21C
100
AcDbEntity
  8
0
  6
Continuous
 62
     1
370
    15
100
AcDbLine
 10
12.5295693394
 20
4.0642088856
 30
0.0
 11
15.0780693394
 21
4.0642088856
 31
0.0
  0
LINE
  5
22F
330
21C
100
AcDbEntity
  8
0
  6
Continuous
 62
     1
370
    15
100
AcDbLine
 10
12.5295693394
 20
3.9392088856
 30
0.0
 11
12.5295693394
 21
4.0642088856
 31
0.0
  0
LINE
  5
230
330
21C
100
AcDbEntity
  8
0
  6
Continuous
 62
     1
370
    15
100
AcDbLine
 10
10.5295693394
 20
3.9392088856
 30
0.0
 11
12.5295693394
 21
3.9392088856
 31
0.0
  0
LINE
  5
231
330
21C
100
AcDbEntity
  8
0
  6
Continuous
 62
     1
370
    15
100
AcDbLine
 10
10.5295693394
 20
4.0642088856
 30
0.0
 11
10.5295693394
 21
3.9392088856
 31
0.0
  0
LINE
  5
232
330
21C
100
AcDbEntity
  8
0
  6
Continuous
 62
     1
370
    15
100
AcDbLine
 10
7.9810693394
 20
4.0642088856
 30
0.0
 11
10.5295693394
 21
4.0642088856
 31
0.0
  0
LINE
  5
233
330
21C
100
AcDbEntity
  8
0
  6
Continuous
 62
     1
370
    15
100
AcDbLine
 10
7.9810693394
 20
4.0642088856
 30
0.0
 11
7.9810693394
 21
8.4428066419
 31
0.0
  0
LINE
  5
234
330
21C
100
AcDbEntity
  8
0
  6
Continuous
 62
     1
370
    15
100
AcDbLine
 10
8.9810693394
 20
8.4428066419
 30
0.0
 11
7.9810693394
 21
8.4428066419
 31
0.0
  0
LINE
  5
235
330
21C
100
AcDbEntity
  8
0
  6
Continuous
 62
     1
370
    15
100
AcDbLine
 10
8.9810693394
 20
8.5678066419
 30
0.0
 11
8.9810693394
 21
8.4428066419
 31
0.0
  0
LINE
  5
236
330
21C
100
AcDbEntity
  8
0
  6
Continuous
 62
     1
370
    15
100
AcDbLine
 10
7.9810693394
 20
8.5678066419
 30
0.0
 11
8.9810693394
 21
8.5678066419
 31
0.0
  0
LINE
  5
237
330
21C
100
AcDbEntity
  8
0
  6
Continuous
 62
     1
370
    15
100
AcDbLine
 10
7.9810693394
 20
8.5678066419
 30
0.0
 11
7.9810693394
 21
11.4877088856
 31
0.0
  0
LINE
  5
238
330
21C
100
AcDbEntity
  8
0
  6
Continuous
 62
     1
370
    15
100
AcDbLine
 10
10.5295693394
 20
11.4877088856
 30
0.0
 11
7.9810693394
 21
11.4877088856
 31
0.0
  0
LINE
  5
239
330
21C
100
AcDbEntity
  8
0
  6
Continuous
 62
     1
370
    15
100
AcDbLine
 10
10.5295693394
 20
11.4877088856
 30
0.0
 11
10.5295693394
 21
11.6892088856
 31
0.0
  0
LINE
  5
23A
330
21C
100
AcDbEntity
  8
0
  6
Continuous
 62
     1
370
    15
100
AcDbLine
 10
10.5295693394
 20
11.6892088856
 30
0.0
 11
12.5295693394
 21
11.6892088856
 31
0.0
  0
LINE
  5
23B
330
21C
100
AcDbEntity
  8
0
  6
Continuous
 62
     1
370
    15
100
AcDbLine
 10
12.5295693394
 20
11.6892088856
 30
0.0
 11
12.5295693394
 21
11.4877088856
 31
0.0
  0
LINE
  5
23C
330
21C
100
AcDbEntity
  8
0
  6
Continuous
 62
     1
370
    15
100
AcDbLine
 10
15.0780693394
 20
11.4877088856
 30
0.0
 11
12.5295693394
 21
11.4877088856
 31
0.0
  0
LINE
  5
23D
330
21C
100
AcDbEntity
  8
0
  6
Continuous
 62
     1
370
    15
100
AcDbLine
 10
15.0780693394
 20
8.5678066419
 30
0.0
 11
15.0780693394
 21
11.4877088856
 31
0.0
  0
LINE
  5
23E
330
21C
100
AcDbEntity
  8
0
  6
Continuous
 62
     1
370
    15
100
AcDbLine
 10
15.0780693394
 20
8.5678066419
 30
0.0
 11
14.0780693394
 21
8.5678066419
 31
0.0
  0
LINE
  5
23F
330
21C
100
AcDbEntity
  8
0
  6
Continuous
 62
     1
370
    15
100
AcDbLine
 10
14.0780693394
 20
8.5678066419
 30
0.0
 11
14.0780693394
 21
8.4428066419
 31
0.0
  0
LINE
  5
240
330
21C
100
AcDbEntity
  8
0
  6
Continuous
 62
     1
370
    15
100
AcDbLine
 10
14.0780693394
 20
8.4428066419
 30
0.0
 11
15.0780693394
 21
8.4428066419
 31
0.0
  0
ARC
  5
241
330
21C
100
AcDbEntity
  8
0
  6
Continuous
 62
     1
370
    15
100
AcDbCircle
 10
13.5780693394
 20
9.8178066419
 30
0.0
 40
0.7500000000000018
100
AcDbArc
 50
270.0
 51
0.0
  0
LINE
  5
242
330
21C
100
AcDbEntity
  8
0
  6
Continuous
 62
     1
370
    15
100
AcDbLine
 10
14.3280693394
 20
9.9877088856
 30
0.0
 11
14.3280693394
 21
9.8178066419
 31
0.0
  0
ARC
  5
243
330
21C
100
AcDbEntity
  8
0
  6
Continuous
 62
     1
370
    15
100
AcDbCircle
 10
13.5780693394
 20
9.9877088856
 30
0.0
 40
0.7500000000000018
100
AcDbArc
 50
0.0
 51
90.0
  0
LINE
  5
244
330
21C
100
AcDbEntity
  8
0
  6
Continuous
 62
     1
370
    15
100
AcDbLine
 10
9.4810693394
 20
10.7377088856
 30
0.0
 11
13.5780693394
 21
10.7377088856
 31
0.0
  0
ARC
  5
245
330
21C
100
AcDbEntity
  8
0
  6
Continuous
 62
     1
370
    15
100
AcDbCircle
 10
9.4810693394
 20
9.9877088856
 30
0.0
 40
0.7500000000000018
100
AcDbArc
 50
90.0
 51
180.0
  0
LINE
  5
246
330
21C
100
AcDbEntity
  8
0
  6
Continuous
 62
     1
370
    15
100
AcDbLine
 10
8.7310693394
 20
9.9877088856
 30
0.0
 11
8.7310693394
 21
9.8178066419
 31
0.0
  0
ARC
  5
247
330
21C
100
AcDbEntity
  8
0
  6
Continuous
 62
     1
370
    15
100
AcDbCircle
 10
9.4810693394
 20
9.8178066419
 30
0.0
 40
0.7500000000000018
100
AcDbArc
 50
180.0
 51
270.0
  0
LINE
  5
248
330
21C
100
AcDbEntity
  8
0
  6
Continuous
 62
     1
370
    15
100
AcDbLine
 10
21.5957702921
 20
8.555508971
 30
0.0
 11
21.5957702921
 21
8.430508971
 31
0.0
  0
CIRCLE
  5
249
330
21C
100
AcDbEntity
  8
0
  6
Continuous
 62
     1
370
    15
100
AcDbCircle
 10
19.7985202921
 20
5.5519112146
 30
0.0
 40
0.0624999999999964
  0
CIRCLE
  5
24A
330
21C
100
AcDbEntity
  8
0
  6
Continuous
 62
     1
370
    15
100
AcDbCircle
 10
18.2960202921
 20
5.5519112146
 30
0.0
 40
0.0625
  0
CIRCLE
  5
24B
330
21C
100
AcDbEntity
  8
0
  6
Continuous
 62
     1
370
    15
100
AcDbCircle
 10
19.7985202921
 20
6.6769112146
 30
0.0
 40
0.0624999999999964
  0
CIRCLE
  5
24C
330
21C
100
AcDbEntity
  8
0
  6
Continuous
 62
     1
370
    15
100
AcDbCircle
 10
18.2960202921
 20
6.6769112146
 30
0.0
 40
0.0625
  0
LINE
  5
24D
330
21C
100
AcDbEntity
  8
0
  6
Continuous
 62
     1
370
    15
100
AcDbLine
 10
16.4987702921
 20
9.805508971
 30
0.0
 11
16.4987702921
 21
9.9754112146
 31
0.0
  0
LINE
  5
24E
330
21C
100
AcDbEntity
  8
0
  6
Continuous
 62
     1
370
    15
100
AcDbLine
 10
20.0472702921
 20
9.9754112146
 30
0.0
 11
20.0472702921
 21
9.805508971
 31
0.0
  0
ARC
  5
24F
330
21C
100
AcDbEntity
  8
0
  6
Continuous
 62
     1
370
    15
100
AcDbCircle
 10
16.9987702921
 20
9.9754112146
 30
0.0
 40
0.5000000000000018
100
AcDbArc
 50
90.0
 51
180.0
  0
LINE
  5
250
330
21C
100
AcDbEntity
  8
0
  6
Continuous
 62
     1
370
    15
100
AcDbLine
 10
16.9987702921
 20
10.4754112146
 30
0.0
 11
17.5472702921
 21
10.4754112146
 31
0.0
  0
ARC
  5
251
330
21C
100
AcDbEntity
  8
0
  6
Continuous
 62
     1
370
    15
100
AcDbCircle
 10
17.5472702921
 20
9.9754112146
 30
0.0
 40
0.5000000000000036
100
AcDbArc
 50
0.0
 51
90.0
  0
LINE
  5
252
330
21C
100
AcDbEntity
  8
0
  6
Continuous
 62
     1
370
    15
100
AcDbLine
 10
18.0472702921
 20
9.9754112146
 30
0.0
 11
18.0472702921
 21
9.805508971
 31
0.0
  0
ARC
  5
253
330
21C
100
AcDbEntity
  8
0
  6
Continuous
 62
     1
370
    15
100
AcDbCircle
 10
17.5472702921
 20
9.805508971
 30
0.0
 40
0.5000000000000036
100
AcDbArc
 50
270.0
 51
0.0
  0
LINE
  5
254
330
21C
100
AcDbEntity
  8
0
  6
Continuous
 62
     1
370
    15
100
AcDbLine
 10
17.5472702921
 20
9.305508971
 30
0.0
 11
16.9987702921
 21
9.305508971
 31
0.0
  0
ARC
  5
255
330
21C
100
AcDbEntity
  8
0
  6
Continuous
 62
     1
370
    15
100
AcDbCircle
 10
16.9987702921
 20
9.805508971
 30
0.0
 40
0.5
100
AcDbArc
 50
180.0
 51
270.0
  0
ARC
  5
256
330
21C
100
AcDbEntity
  8
0
  6
Continuous
 62
     1
370
    15
100
AcDbCircle
 10
20.5472702921
 20
9.9754112146
 30
0.0
 40
0.5000000000000036
100
AcDbArc
 50
90.0
 51
180.0
  0
LINE
  5
257
330
21C
100
AcDbEntity
  8
0
  6
Continuous
 62
     1
370
    15
100
AcDbLine
 10
21.0957702921
 20
10.4754112146
 30
0.0
 11
20.5472702921
 21
10.4754112146
 31
0.0
  0
ARC
  5
258
330
21C
100
AcDbEntity
  8
0
  6
Continuous
 62
     1
370
    15
100
AcDbCircle
 10
21.0957702921
 20
9.9754112146
 30
0.0
 40
0.5000000000000036
100
AcDbArc
 50
0.0
 51
90.0
  0
LINE
  5
259
330
21C
100
AcDbEntity
  8
0
  6
Continuous
 62
     1
370
    15
100
AcDbLine
 10
21.5957702921
 20
9.805508971
 30
0.0
 11
21.5957702921
 21
9.9754112146
 31
0.0
  0
ARC
  5
25A
330
21C
100
AcDbEntity
  8
0
  6
Continuous
 62
     1
370
    15
100
AcDbCircle
 10
21.0957702921
 20
9.805508971
 30
0.0
 40
0.5000000000000036
100
AcDbArc
 50
270.0
 51
0.0
  0
LINE
  5
25B
330
21C
100
AcDbEntity
  8
0
  6
Continuous
 62
     1
370
    15
100
AcDbLine
 10
20.5472702921
 20
9.305508971
 30
0.0
 11
21.0957702921
 21
9.305508971
 31
0.0
  0
ARC
  5
25C
330
21C
100
AcDbEntity
  8
0
  6
Continuous
 62
     1
370
    15
100
AcDbCircle
 10
20.5472702921
 20
9.805508971
 30
0.0
 40
0.5000000000000036
100
AcDbArc
 50
180.0
 51
270.0
  0
LINE
  5
25D
330
21C
100
AcDbEntity
  8
0
  6
Continuous
 62
     1
370
    15
100
AcDbLine
 10
21.5957702921
 20
8.555508971
 30
0.0
 11
22.5957702921
 21
8.555508971
 31
0.0
  0
LINE
  5
25E
330
21C
100
AcDbEntity
  8
0
  6
Continuous
 62
     1
370
    15
100
AcDbLine
 10
22.5957702921
 20
11.4754112146
 30
0.0
 11
22.5957702921
 21
8.555508971
 31
0.0
  0
LINE
  5
25F
330
21C
100
AcDbEntity
  8
0
  6
Continuous
 62
     1
370
    15
100
AcDbLine
 10
20.0472702921
 20
11.4754112146
 30
0.0
 11
22.5957702921
 21
11.4754112146
 31
0.0
  0
LINE
  5
260
330
21C
100
AcDbEntity
  8
0
  6
Continuous
 62
     1
370
    15
100
AcDbLine
 10
20.0472702921
 20
11.4754112146
 30
0.0
 11
20.0472702921
 21
11.6769112146
 31
0.0
  0
LINE
  5
261
330
21C
100
AcDbEntity
  8
0
  6
Continuous
 62
     1
370
    15
100
AcDbLine
 10
20.0472702921
 20
11.6769112146
 30
0.0
 11
18.0472702921
 21
11.6769112146
 31
0.0
  0
LINE
  5
262
330
21C
100
AcDbEntity
  8
0
  6
Continuous
 62
     1
370
    15
100
AcDbLine
 10
18.0472702921
 20
11.4754112146
 30
0.0
 11
18.0472702921
 21
11.6769112146
 31
0.0
  0
LINE
  5
263
330
21C
100
AcDbEntity
  8
0
  6
Continuous
 62
     1
370
    15
100
AcDbLine
 10
18.0472702921
 20
11.4754112146
 30
0.0
 11
15.4987702921
 21
11.4754112146
 31
0.0
  0
LINE
  5
264
330
21C
100
AcDbEntity
  8
0
  6
Continuous
 62
     1
370
    15
100
AcDbLine
 10
15.4987702921
 20
11.4754112146
 30
0.0
 11
15.4987702921
 21
8.555508971
 31
0.0
  0
LINE
  5
265
330
21C
100
AcDbEntity
  8
0
  6
Continuous
 62
     1
370
    15
100
AcDbLine
 10
16.4987702921
 20
8.555508971
 30
0.0
 11
15.4987702921
 21
8.555508971
 31
0.0
  0
LINE
  5
266
330
21C
100
AcDbEntity
  8
0
  6
Continuous
 62
     1
370
    15
100
AcDbLine
 10
16.4987702921
 20
8.555508971
 30
0.0
 11
16.4987702921
 21
8.430508971
 31
0.0
  0
LINE
  5
267
330
21C
100
AcDbEntity
  8
0
  6
Continuous
 62
     1
370
    15
100
AcDbLine
 10
16.4987702921
 20
8.430508971
 30
0.0
 11
15.2972702921
 21
8.430508971
 31
0.0
  0
LINE
  5
268
330
21C
100
AcDbEntity
  8
0
  6
Continuous
 62
     1
370
    15
100
AcDbLine
 10
15.2972702921
 20
8.430508971
 30
0.0
 11
15.2972702921
 21
6.430508971
 31
0.0
  0
LINE
  5
269
330
21C
100
AcDbEntity
  8
0
  6
Continuous
 62
     1
370
    15
100
AcDbLine
 10
15.4987702921
 20
6.430508971
 30
0.0
 11
15.2972702921
 21
6.430508971
 31
0.0
  0
LINE
  5
26A
330
21C
100
AcDbEntity
  8
0
  6
Continuous
 62
     1
370
    15
100
AcDbLine
 10
15.4987702921
 20
4.0679187952
 30
0.0
 11
15.4987702921
 21
6.430508971
 31
0.0
  0
LINE
  5
26B
330
21C
100
AcDbEntity
  8
0
  6
Continuous
 62
     1
370
    15
100
AcDbLine
 10
18.0472702921
 20
4.0679187952
 30
0.0
 11
15.4987702921
 21
4.0679187952
 31
0.0
  0
LINE
  5
26C
330
21C
100
AcDbEntity
  8
0
  6
Continuous
 62
     1
370
    15
100
AcDbLine
 10
18.0472702921
 20
4.0679187952
 30
0.0
 11
18.0472702921
 21
3.9269112146
 31
0.0
  0
LINE
  5
26D
330
21C
100
AcDbEntity
  8
0
  6
Continuous
 62
     1
370
    15
100
AcDbLine
 10
20.0472702921
 20
3.9269112146
 30
0.0
 11
18.0472702921
 21
3.9269112146
 31
0.0
  0
LINE
  5
26E
330
21C
100
AcDbEntity
  8
0
  6
Continuous
 62
     1
370
    15
100
AcDbLine
 10
20.0472702921
 20
4.0679187952
 30
0.0
 11
20.0472702921
 21
3.9269112146
 31
0.0
  0
LINE
  5
26F
330
21C
100
AcDbEntity
  8
0
  6
Continuous
 62
     1
370
    15
100
AcDbLine
 10
20.0472702921
 20
4.0679187952
 30
0.0
 11
22.5957702921
 21
4.0679187952
 31
0.0
  0
LINE
  5
270
330
21C
100
AcDbEntity
  8
0
  6
Continuous
 62
     1
370
    15
100
AcDbLine
 10
22.5957702921
 20
4.0679187952
 30
0.0
 11
22.5957702921
 21
6.430508971
 31
0.0
  0
LINE
  5
271
330
21C
100
AcDbEntity
  8
0
  6
Continuous
 62
     1
370
    15
100
AcDbLine
 10
22.5957702921
 20
6.430508971
 30
0.0
 11
22.7972702921
 21
6.430508971
 31
0.0
  0
LINE
  5
272
330
21C
100
AcDbEntity
  8
0
  6
Continuous
 62
     1
370
    15
100
AcDbLine
 10
22.7972702921
 20
8.430508971
 30
0.0
 11
22.7972702921
 21
6.430508971
 31
0.0
  0
LINE
  5
273
330
21C
100
AcDbEntity
  8
0
  6
Continuous
 62
     1
370
    15
100
AcDbLine
 10
21.5957702921
 20
8.430508971
 30
0.0
 11
22.7972702921
 21
8.430508971
 31
0.0
  0
LINE
  5
274
330
21C
100
AcDbEntity
  8
0
  6
Continuous
 62
     1
370
    15
100
AcDbLine
 10
6.4851746952
 20
8.5693626086
 30
0.0
 11
6.4851746952
 21
8.4443626086
 31
0.0
  0
CIRCLE
  5
275
330
21C
100
AcDbEntity
  8
0
  6
Continuous
 62
     1
370
    15
100
AcDbCircle
 10
4.6879246952
 20
5.5657648523
 30
0.0
 40
0.0625
  0
CIRCLE
  5
276
330
21C
100
AcDbEntity
  8
0
  6
Continuous
 62
     1
370
    15
100
AcDbCircle
 10
3.1854246952
 20
5.5657648523
 30
0.0
 40
0.0624999999999996
  0
CIRCLE
  5
277
330
21C
100
AcDbEntity
  8
0
  6
Continuous
 62
     1
370
    15
100
AcDbCircle
 10
4.6879246952
 20
6.6907648523
 30
0.0
 40
0.0625
  0
CIRCLE
  5
278
330
21C
100
AcDbEntity
  8
0
  6
Continuous
 62
     1
370
    15
100
AcDbCircle
 10
3.1854246952
 20
6.6907648523
 30
0.0
 40
0.0625000000000004
  0
LINE
  5
279
330
21C
100
AcDbEntity
  8
0
  6
Continuous
 62
     1
370
    15
100
AcDbLine
 10
1.3881746952
 20
9.8193626086
 30
0.0
 11
1.3881746952
 21
9.9892648523
 31
0.0
  0
LINE
  5
27A
330
21C
100
AcDbEntity
  8
0
  6
Continuous
 62
     1
370
    15
100
AcDbLine
 10
4.9366746952
 20
9.9892648523
 30
0.0
 11
4.9366746952
 21
9.8193626086
 31
0.0
  0
ARC
  5
27B
330
21C
100
AcDbEntity
  8
0
  6
Continuous
 62
     1
370
    15
100
AcDbCircle
 10
1.8881746952
 20
9.9892648523
 30
0.0
 40
0.5000000000000002
100
AcDbArc
 50
90.0
 51
180.0
  0
LINE
  5
27C
330
21C
100
AcDbEntity
  8
0
  6
Continuous
 62
     1
370
    15
100
AcDbLine
 10
1.8881746952
 20
10.4892648523
 30
0.0
 11
2.4366746952
 21
10.4892648523
 31
0.0
  0
ARC
  5
27D
330
21C
100
AcDbEntity
  8
0
  6
Continuous
 62
     1
370
    15
100
AcDbCircle
 10
2.4366746952
 20
9.9892648523
 30
0.0
 40
0.5
100
AcDbArc
 50
0.0
 51
90.0
  0
LINE
  5
27E
330
21C
100
AcDbEntity
  8
0
  6
Continuous
 62
     1
370
    15
100
AcDbLine
 10
2.9366746952
 20
9.9892648523
 30
0.0
 11
2.9366746952
 21
9.8193626086
 31
0.0
  0
ARC
  5
27F
330
21C
100
AcDbEntity
  8
0
  6
Continuous
 62
     1
370
    15
100
AcDbCircle
 10
2.4366746952
 20
9.8193626086
 30
0.0
 40
0.5
100
AcDbArc
 50
270.0
 51
0.0
  0
LINE
  5
280
330
21C
100
AcDbEntity
  8
0
  6
Continuous
 62
     1
370
    15
100
AcDbLine
 10
2.4366746952
 20
9.3193626086
 30
0.0
 11
1.8881746952
 21
9.3193626086
 31
0.0
  0
ARC
  5
281
330
21C
100
AcDbEntity
  8
0
  6
Continuous
 62
     1
370
    15
100
AcDbCircle
 10
1.8881746952
 20
9.8193626086
 30
0.0
 40
0.5000000000000002
100
AcDbArc
 50
180.0
 51
270.0
  0
ARC
  5
282
330
21C
100
AcDbEntity
  8
0
  6
Continuous
 62
     1
370
    15
100
AcDbCircle
 10
5.4366746952
 20
9.9892648523
 30
0.0
 40
0.5000000000000018
100
AcDbArc
 50
90.0
 51
180.0
  0
LINE
  5
283
330
21C
100
AcDbEntity
  8
0
  6
Continuous
 62
     1
370
    15
100
AcDbLine
 10
5.9851746952
 20
10.4892648523
 30
0.0
 11
5.4366746952
 21
10.4892648523
 31
0.0
  0
ARC
  5
284
330
21C
100
AcDbEntity
  8
0
  6
Continuous
 62
     1
370
    15
100
AcDbCircle
 10
5.9851746952
 20
9.9892648523
 30
0.0
 40
0.5000000000000018
100
AcDbArc
 50
0.0
 51
90.0
  0
LINE
  5
285
330
21C
100
AcDbEntity
  8
0
  6
Continuous
 62
     1
370
    15
100
AcDbLine
 10
6.4851746952
 20
9.8193626086
 30
0.0
 11
6.4851746952
 21
9.9892648523
 31
0.0
  0
ARC
  5
286
330
21C
100
AcDbEntity
  8
0
  6
Continuous
 62
     1
370
    15
100
AcDbCircle
 10
5.9851746952
 20
9.8193626086
 30
0.0
 40
0.5000000000000009
100
AcDbArc
 50
270.0
 51
0.0
  0
LINE
  5
287
330
21C
100
AcDbEntity
  8
0
  6
Continuous
 62
     1
370
    15
100
AcDbLine
 10
5.4366746952
 20
9.3193626086
 30
0.0
 11
5.9851746952
 21
9.3193626086
 31
0.0
  0
ARC
  5
288
330
21C
100
AcDbEntity
  8
0
  6
Continuous
 62
     1
370
    15
100
AcDbCircle
 10
5.4366746952
 20
9.8193626086
 30
0.0
 40
0.5000000000000009
100
AcDbArc
 50
180.0
 51
270.0
  0
LINE
  5
289
330
21C
100
AcDbEntity
  8
0
  6
Continuous
 62
     1
370
    15
100
AcDbLine
 10
6.4851746952
 20
8.5693626086
 30
0.0
 11
7.4851746952
 21
8.5693626086
 31
0.0
  0
LINE
  5
28A
330
21C
100
AcDbEntity
  8
0
  6
Continuous
 62
     1
370
    15
100
AcDbLine
 10
7.4851746952
 20
11.4892648523
 30
0.0
 11
7.4851746952
 21
8.5693626086
 31
0.0
  0
LINE
  5
28B
330
21C
100
AcDbEntity
  8
0
  6
Continuous
 62
     1
370
    15
100
AcDbLine
 10
4.9366746952
 20
11.4892648523
 30
0.0
 11
7.4851746952
 21
11.4892648523
 31
0.0
  0
LINE
  5
28C
330
21C
100
AcDbEntity
  8
0
  6
Continuous
 62
     1
370
    15
100
AcDbLine
 10
4.9366746952
 20
11.4892648523
 30
0.0
 11
4.9366746952
 21
11.6907648523
 31
0.0
  0
LINE
  5
28D
330
21C
100
AcDbEntity
  8
0
  6
Continuous
 62
     1
370
    15
100
AcDbLine
 10
4.9366746952
 20
11.6907648523
 30
0.0
 11
2.9366746952
 21
11.6907648523
 31
0.0
  0
LINE
  5
28E
330
21C
100
AcDbEntity
  8
0
  6
Continuous
 62
     1
370
    15
100
AcDbLine
 10
2.9366746952
 20
11.4892648523
 30
0.0
 11
2.9366746952
 21
11.6907648523
 31
0.0
  0
LINE
  5
28F
330
21C
100
AcDbEntity
  8
0
  6
Continuous
 62
     1
370
    15
100
AcDbLine
 10
2.9366746952
 20
11.4892648523
 30
0.0
 11
0.3881746952
 21
11.4892648523
 31
0.0
  0
LINE
  5
290
330
21C
100
AcDbEntity
  8
0
  6
Continuous
 62
     1
370
    15
100
AcDbLine
 10
0.3881746952
 20
11.4892648523
 30
0.0
 11
0.3881746952
 21
8.5693626086
 31
0.0
  0
LINE
  5
291
330
21C
100
AcDbEntity
  8
0
  6
Continuous
 62
     1
370
    15
100
AcDbLine
 10
1.3881746952
 20
8.5693626086
 30
0.0
 11
0.3881746952
 21
8.5693626086
 31
0.0
  0
LINE
  5
292
330
21C
100
AcDbEntity
  8
0
  6
Continuous
 62
     1
370
    15
100
AcDbLine
 10
1.3881746952
 20
8.5693626086
 30
0.0
 11
1.3881746952
 21
8.4443626086
 31
0.0
  0
LINE
  5
293
330
21C
100
AcDbEntity
  8
0
  6
Continuous
 62
     1
370
    15
100
AcDbLine
 10
1.3881746952
 20
8.4443626086
 30
0.0
 11
0.1866746952
 21
8.4443626086
 31
0.0
  0
LINE
  5
294
330
21C
100
AcDbEntity
  8
0
  6
Continuous
 62
     1
370
    15
100
AcDbLine
 10
0.1866746952
 20
8.4443626086
 30
0.0
 11
0.1866746952
 21
6.4443626086
 31
0.0
  0
LINE
  5
295
330
21C
100
AcDbEntity
  8
0
  6
Continuous
 62
     1
370
    15
100
AcDbLine
 10
0.3881746952
 20
6.4443626086
 30
0.0
 11
0.1866746952
 21
6.4443626086
 31
0.0
  0
LINE
  5
296
330
21C
100
AcDbEntity
  8
0
  6
Continuous
 62
     1
370
    15
100
AcDbLine
 10
0.3881746952
 20
4.0817724328
 30
0.0
 11
0.3881746952
 21
6.4443626086
 31
0.0
  0
LINE
  5
297
330
21C
100
AcDbEntity
  8
0
  6
Continuous
 62
     1
370
    15
100
AcDbLine
 10
2.9366746952
 20
4.0817724328
 30
0.0
 11
0.3881746952
 21
4.0817724328
 31
0.0
  0
LINE
  5
298
330
21C
100
AcDbEntity
  8
0
  6
Continuous
 62
     1
370
    15
100
AcDbLine
 10
2.9366746952
 20
4.0817724328
 30
0.0
 11
2.9366746952
 21
3.9407648523
 31
0.0
  0
LINE
  5
299
330
21C
100
AcDbEntity
  8
0
  6
Continuous
 62
     1
370
    15
100
AcDbLine
 10
4.9366746952
 20
3.9407648523
 30
0.0
 11
2.9366746952
 21
3.9407648523
 31
0.0
  0
LINE
  5
29A
330
21C
100
AcDbEntity
  8
0
  6
Continuous
 62
     1
370
    15
100
AcDbLine
 10
4.9366746952
 20
4.0817724328
 30
0.0
 11
4.9366746952
 21
3.9407648523
 31
0.0
  0
LINE
  5
29B
330
21C
100
AcDbEntity
  8
0
  6
Continuous
 62
     1
370
    15
100
AcDbLine
 10
4.9366746952
 20
4.0817724328
 30
0.0
 11
7.4851746952
 21
4.0817724328
 31
0.0
  0
LINE
  5
29C
330
21C
100
AcDbEntity
  8
0
  6
Continuous
 62
     1
370
    15
100
AcDbLine
 10
7.4851746952
 20
4.0817724328
 30
0.0
 11
7.4851746952
 21
6.4443626086
 31
0.0
  0
LINE
  5
29D
330
21C
100
AcDbEntity
  8
0
  6
Continuous
 62
     1
370
    15
100
AcDbLine
 10
7.4851746952
 20
6.4443626086
 30
0.0
 11
7.6866746952
 21
6.4443626086
 31
0.0
  0
LINE
  5
29E
330
21C
100
AcDbEntity
  8
0
  6
Continuous
 62
     1
370
    15
100
AcDbLine
 10
7.6866746952
 20
8.4443626086
 30
0.0
 11
7.6866746952
 21
6.4443626086
 31
0.0
  0
LINE
  5
29F
330
21C
100
AcDbEntity
  8
0
  6
Continuous
 62
     1
370
    15
100
AcDbLine
 10
6.4851746952
 20
8.4443626086
 30
0.0
 11
7.6866746952
 21
8.4443626086
 31
0.0
  0
ENDBLK
  5
21F
330
21C
100
AcDbEntity
  8
0
100
AcDbBlockEnd
  0
BLOCK
  5
2A2
330
2A0
100
AcDbEntity
  8
0
100
AcDbBlockBegin
  2
*Paper_Space3
 70
     0
 10
0.0
 20
0.0
 30
0.0
  3
*Paper_Space3
  1
*Paper_Space3
  0
LINE
  5
2A4
330
2A0
100
AcDbEntity
  8
0
  6
Continuous
 62
     1
370
    15
100
AcDbLine
 10
10.1272727273
 20
6.2556093391
 30
0.0
 11
12.1272727273
 21
6.2556093391
 31
0.0
  0
LINE
  5
2A5
330
2A0
100
AcDbEntity
  8
0
  6
Continuous
 62
     1
370
    15
100
AcDbLine
 10
9.9358959883
 20
10.7619455074
 30
0.0
 11
12.6936494662
 21
10.7619455074
 31
0.0
  0
ARC
  5
2A6
330
2A0
100
AcDbEntity
  8
0
  6
Continuous
 62
     1
370
    15
100
AcDbCircle
 10
9.9358959883
 20
10.0119455074
 30
0.0
 40
0.75
100
AcDbArc
 50
90.0
 51
180.0
  0
LINE
  5
2A7
330
2A0
100
AcDbEntity
  8
0
  6
Continuous
 62
     1
370
    15
100
AcDbLine
 10
9.1858959883
 20
10.0119455074
 30
0.0
 11
9.1858959883
 21
8.0187780548
 31
0.0
  0
ARC
  5
2A8
330
2A0
100
AcDbEntity
  8
0
  6
Continuous
 62
     1
370
    15
100
AcDbCircle
 10
9.9358959883
 20
8.0187780548
 30
0.0
 40
0.75
100
AcDbArc
 50
180.0
 51
270.0
  0
LINE
  5
2A9
330
2A0
100
AcDbEntity
  8
0
  6
Continuous
 62
     1
370
    15
100
AcDbLine
 10
9.9358959883
 20
7.2687780548
 30
0.0
 11
12.3186494662
 21
7.2687780548
 31
0.0
  0
ARC
  5
2AA
330
2A0
100
AcDbEntity
  8
0
  6
Continuous
 62
     1
370
    15
100
AcDbCircle
 10
12.3186494662
 20
8.0187780548
 30
0.0
 40
0.75
100
AcDbArc
 50
270.0
 51
0.0
  0
LINE
  5
2AB
330
2A0
100
AcDbEntity
  8
0
  6
Continuous
 62
     1
370
    15
100
AcDbLine
 10
13.0686494662
 20
8.0187780548
 30
0.0
 11
13.0686494662
 21
9.7150677396
 31
0.0
  0
ARC
  5
2AC
330
2A0
100
AcDbEntity
  8
0
  6
Continuous
 62
     1
370
    15
100
AcDbCircle
 10
12.9436494662
 20
9.7150677396
 30
0.0
 40
0.1250000000000007
100
AcDbArc
 50
0.0
 51
75.0
  0
LINE
  5
2AD
330
2A0
100
AcDbEntity
  8
0
  6
Continuous
 62
     1
370
    15
100
AcDbLine
 10
12.4112970856
 20
9.9871206526
 30
0.0
 11
12.9760018469
 21
9.8358084679
 31
0.0
  0
ARC
  5
2AE
330
2A0
100
AcDbEntity
  8
0
  6
Continuous
 62
     1
370
    15
100
AcDbCircle
 10
12.4436494662
 20
10.1078613809
 30
0.0
 40
0.125
100
AcDbArc
 50
180.0
 51
255.0
  0
LINE
  5
2AF
330
2A0
100
AcDbEntity
  8
0
  6
Continuous
 62
     1
370
    15
100
AcDbLine
 10
12.3186494662
 20
10.1078613809
 30
0.0
 11
12.3186494662
 21
10.5119455074
 31
0.0
  0
ARC
  5
2B0
330
2A0
100
AcDbEntity
  8
0
  6
Continuous
 62
     1
370
    15
100
AcDbCircle
 10
12.4436494662
 20
10.5119455074
 30
0.0
 40
0.125
100
AcDbArc
 50
90.0
 51
180.0
  0
LINE
  5
2B1
330
2A0
100
AcDbEntity
  8
0
  6
Continuous
 62
     1
370
    15
100
AcDbLine
 10
12.4436494662
 20
10.6369455074
 30
0.0
 11
12.5686494662
 21
10.6369455074
 31
0.0
  0
LINE
  5
2B2
330
2A0
100
AcDbEntity
  8
0
  6
Continuous
 62
     1
370
    15
100
AcDbLine
 10
12.5686494662
 20
10.6369455074
 30
0.0
 11
12.5686494662
 21
10.3869455074
 31
0.0
  0
ARC
  5
2B3
330
2A0
100
AcDbEntity
  8
0
  6
Continuous
 62
     1
370
    15
100
AcDbCircle
 10
12.6936494662
 20
10.3869455074
 30
0.0
 40
0.1250000000000018
100
AcDbArc
 50
180.0
 51
270.0
  0
LINE
  5
2B4
330
2A0
100
AcDbEntity
  8
0
  6
Continuous
 62
     1
370
    15
100
AcDbLine
 10
12.6936494662
 20
10.2619455074
 30
0.0
 11
12.9436494662
 21
10.2619455074
 31
0.0
  0
ARC
  5
2B5
330
2A0
100
AcDbEntity
  8
0
  6
Continuous
 62
     1
370
    15
100
AcDbCircle
 10
12.9436494662
 20
10.3869455074
 30
0.0
 40
0.1250000000000018
100
AcDbArc
 50
270.0
 51
0.0
  0
ARC
  5
2B6
330
2A0
100
AcDbEntity
  8
0
  6
Continuous
 62
     1
370
    15
100
AcDbCircle
 10
12.6936494662
 20
10.3869455074
 30
0.0
 40
0.375
100
AcDbArc
 50
0.0
 51
90.0
  0
LINE
  5
2B7
330
2A0
100
AcDbEntity
  8
0
  6
Continuous
 62
     1
370
    15
100
AcDbLine
 10
10.1272727273
 20
6.5056093391
 30
0.0
 11
10.1272727273
 21
6.2556093391
 31
0.0
  0
LINE
  5
2B8
330
2A0
100
AcDbEntity
  8
0
  6
Continuous
 62
     1
370
    15
100
AcDbLine
 10
8.4358959883
 20
6.5056093391
 30
0.0
 11
10.1272727273
 21
6.5056093391
 31
0.0
  0
LINE
  5
2B9
330
2A0
100
AcDbEntity
  8
0
  6
Continuous
 62
     1
370
    15
100
AcDbLine
 10
8.4358959883
 20
8.0124401306
 30
0.0
 11
8.4358959883
 21
6.5056093391
 31
0.0
  0
LINE
  5
2BA
330
2A0
100
AcDbEntity
  8
0
  6
Continuous
 62
     1
370
    15
100
AcDbLine
 10
8.1727272727
 20
8.0124401306
 30
0.0
 11
8.4358959883
 21
8.0124401306
 31
0.0
  0
LINE
  5
2BB
330
2A0
100
AcDbEntity
  8
0
  6
Continuous
 62
     1
370
    15
100
AcDbLine
 10
8.1727272727
 20
10.0124401306
 30
0.0
 11
8.1727272727
 21
8.0124401306
 31
0.0
  0
LINE
  5
2BC
330
2A0
100
AcDbEntity
  8
0
  6
Continuous
 62
     1
370
    15
100
AcDbLine
 10
8.4358959883
 20
10.0124401306
 30
0.0
 11
8.1727272727
 21
10.0124401306
 31
0.0
  0
LINE
  5
2BD
330
2A0
100
AcDbEntity
  8
0
  6
Continuous
 62
     1
370
    15
100
AcDbLine
 10
8.4358959883
 20
11.525365694
 30
0.0
 11
8.4358959883
 21
10.0124401306
 31
0.0
  0
LINE
  5
2BE
330
2A0
100
AcDbEntity
  8
0
  6
Continuous
 62
     1
370
    15
100
AcDbLine
 10
10.1272727273
 20
11.525365694
 30
0.0
 11
8.4358959883
 21
11.525365694
 31
0.0
  0
LINE
  5
2BF
330
2A0
100
AcDbEntity
  8
0
  6
Continuous
 62
     1
370
    15
100
AcDbLine
 10
10.1272727273
 20
11.775114223
 30
0.0
 11
10.1272727273
 21
11.525365694
 31
0.0
  0
LINE
  5
2C0
330
2A0
100
AcDbEntity
  8
0
  6
Continuous
 62
     1
370
    15
100
AcDbLine
 10
10.1272727273
 20
11.775114223
 30
0.0
 11
12.1272727273
 21
11.775114223
 31
0.0
  0
LINE
  5
2C1
330
2A0
100
AcDbEntity
  8
0
  6
Continuous
 62
     1
370
    15
100
AcDbLine
 10
12.1272727273
 20
11.775114223
 30
0.0
 11
12.1272727273
 21
11.525365694
 31
0.0
  0
LINE
  5
2C2
330
2A0
100
AcDbEntity
  8
0
  6
Continuous
 62
     1
370
    15
100
AcDbLine
 10
12.1272727273
 20
11.525365694
 30
0.0
 11
13.8186494662
 21
11.525365694
 31
0.0
  0
LINE
  5
2C3
330
2A0
100
AcDbEntity
  8
0
  6
Continuous
 62
     1
370
    15
100
AcDbLine
 10
13.8186494662
 20
11.525365694
 30
0.0
 11
13.8186494662
 21
10.0124401306
 31
0.0
  0
LINE
  5
2C4
330
2A0
100
AcDbEntity
  8
0
  6
Continuous
 62
     1
370
    15
100
AcDbLine
 10
13.8186494662
 20
10.0124401306
 30
0.0
 11
14.0818181818
 21
10.0124401306
 31
0.0
  0
LINE
  5
2C5
330
2A0
100
AcDbEntity
  8
0
  6
Continuous
 62
     1
370
    15
100
AcDbLine
 10
14.0818181818
 20
10.0124401306
 30
0.0
 11
14.0818181818
 21
8.0124401306
 31
0.0
  0
LINE
  5
2C6
330
2A0
100
AcDbEntity
  8
0
  6
Continuous
 62
     1
370
    15
100
AcDbLine
 10
14.0818181818
 20
8.0124401306
 30
0.0
 11
13.8186494662
 21
8.0124401306
 31
0.0
  0
LINE
  5
2C7
330
2A0
100
AcDbEntity
  8
0
  6
Continuous
 62
     1
370
    15
100
AcDbLine
 10
13.8186494662
 20
8.0124401306
 30
0.0
 11
13.8186494662
 21
6.5056093391
 31
0.0
  0
LINE
  5
2C8
330
2A0
100
AcDbEntity
  8
0
  6
Continuous
 62
     1
370
    15
100
AcDbLine
 10
13.8186494662
 20
6.5056093391
 30
0.0
 11
12.1272727273
 21
6.5056093391
 31
0.0
  0
LINE
  5
2C9
330
2A0
100
AcDbEntity
  8
0
  6
Continuous
 62
     1
370
    15
100
AcDbLine
 10
12.1272727273
 20
6.5056093391
 30
0.0
 11
12.1272727273
 21
6.2556093391
 31
0.0
  0
LINE
  5
2CA
330
2A0
100
AcDbEntity
  8
0
  6
Continuous
 62
     1
370
    15
100
AcDbLine
 10
2.8015068733
 20
2.9667673599
 30
0.0
 11
1.6007194718
 21
2.9667673599
 31
0.0
  0
LINE
  5
2CB
330
2A0
100
AcDbEntity
  8
0
  6
Continuous
 62
     1
370
    15
100
AcDbLine
 10
1.6007194718
 20
2.5533815331
 30
0.0
 11
1.6007194718
 21
2.9667673599
 31
0.0
  0
LINE
  5
2CC
330
2A0
100
AcDbEntity
  8
0
  6
Continuous
 62
     1
370
    15
100
AcDbLine
 10
2.8015068733
 20
2.5533815331
 30
0.0
 11
1.6007194718
 21
2.5533815331
 31
0.0
  0
LINE
  5
2CD
330
2A0
100
AcDbEntity
  8
0
  6
Continuous
 62
     1
370
    15
100
AcDbLine
 10
2.8015068733
 20
2.5533815331
 30
0.0
 11
2.8015068733
 21
2.9667673599
 31
0.0
  0
LINE
  5
2CE
330
2A0
100
AcDbEntity
  8
0
  6
Continuous
 62
     1
370
    15
100
AcDbLine
 10
6.9996131725
 20
4.5533815331
 30
0.0
 11
6.9996131725
 21
9.7647724558
 31
0.0
  0
ARC
  5
2CF
330
2A0
100
AcDbEntity
  8
0
  6
Continuous
 62
     1
370
    15
100
AcDbCircle
 10
6.2496131725
 20
9.7647724558
 30
0.0
 40
0.7500000000000009
100
AcDbArc
 50
0.0
 51
90.0
  0
LINE
  5
2D0
330
2A0
100
AcDbEntity
  8
0
  6
Continuous
 62
     1
370
    15
100
AcDbLine
 10
6.2496131725
 20
10.5147724558
 30
0.0
 11
2.1526131725
 21
10.5147724558
 31
0.0
  0
ARC
  5
2D1
330
2A0
100
AcDbEntity
  8
0
  6
Continuous
 62
     1
370
    15
100
AcDbCircle
 10
2.1526131725
 20
9.7647724558
 30
0.0
 40
0.7500000000000002
100
AcDbArc
 50
90.0
 51
180.0
  0
LINE
  5
2D2
330
2A0
100
AcDbEntity
  8
0
  6
Continuous
 62
     1
370
    15
100
AcDbLine
 10
1.4026131725
 20
4.5533815331
 30
0.0
 11
1.4026131725
 21
9.7647724558
 31
0.0
  0
ARC
  5
2D3
330
2A0
100
AcDbEntity
  8
0
  6
Continuous
 62
     1
370
    15
100
AcDbCircle
 10
2.1526131725
 20
4.5533815331
 30
0.0
 40
0.75
100
AcDbArc
 50
180.0
 51
270.0
  0
LINE
  5
2D4
330
2A0
100
AcDbEntity
  8
0
  6
Continuous
 62
     1
370
    15
100
AcDbLine
 10
6.2496131725
 20
3.8033815331
 30
0.0
 11
2.1526131725
 21
3.8033815331
 31
0.0
  0
ARC
  5
2D5
330
2A0
100
AcDbEntity
  8
0
  6
Continuous
 62
     1
370
    15
100
AcDbCircle
 10
6.2496131725
 20
4.5533815331
 30
0.0
 40
0.7499999999999991
100
AcDbArc
 50
270.0
 51
0.0
  0
LINE
  5
2D6
330
2A0
100
AcDbEntity
  8
0
  6
Continuous
 62
     1
370
    15
100
AcDbLine
 10
4.0328267723
 20
2.5533815331
 30
0.0
 11
3.2011131725
 21
2.5533815331
 31
0.0
  0
LINE
  5
2D7
330
2A0
100
AcDbEntity
  8
0
  6
Continuous
 62
     1
370
    15
100
AcDbLine
 10
3.2011131725
 20
2.5533815331
 30
0.0
 11
3.2011131725
 21
2.4283815331
 31
0.0
  0
LINE
  5
2D8
330
2A0
100
AcDbEntity
  8
0
  6
Continuous
 62
     1
370
    15
100
AcDbLine
 10
3.2011131725
 20
2.4283815331
 30
0.0
 11
0.6526131725
 21
2.4283815331
 31
0.0
  0
LINE
  5
2D9
330
2A0
100
AcDbEntity
  8
0
  6
Continuous
 62
     1
370
    15
100
AcDbLine
 10
0.6526131725
 20
2.4283815331
 30
0.0
 11
0.6526131725
 21
5.9715769944
 31
0.0
  0
LINE
  5
2DA
330
2A0
100
AcDbEntity
  8
0
  6
Continuous
 62
     1
370
    15
100
AcDbLine
 10
0.6526131725
 20
5.9715769944
 30
0.0
 11
0.4511131725
 21
5.9715769944
 31
0.0
  0
LINE
  5
2DB
330
2A0
100
AcDbEntity
  8
0
  6
Continuous
 62
     1
370
    15
100
AcDbLine
 10
0.4511131725
 20
5.9715769944
 30
0.0
 11
0.4511131725
 21
7.9715769944
 31
0.0
  0
LINE
  5
2DC
330
2A0
100
AcDbEntity
  8
0
  6
Continuous
 62
     1
370
    15
100
AcDbLine
 10
0.6526131725
 20
7.9715769944
 30
0.0
 11
0.4511131725
 21
7.9715769944
 31
0.0
  0
LINE
  5
2DD
330
2A0
100
AcDbEntity
  8
0
  6
Continuous
 62
     1
370
    15
100
AcDbLine
 10
0.6526131725
 20
7.9715769944
 30
0.0
 11
0.6526131725
 21
11.5147724558
 31
0.0
  0
LINE
  5
2DE
330
2A0
100
AcDbEntity
  8
0
  6
Continuous
 62
     1
370
    15
100
AcDbLine
 10
0.6526131725
 20
11.5147724558
 30
0.0
 11
3.2011131725
 21
11.5147724558
 31
0.0
  0
LINE
  5
2DF
330
2A0
100
AcDbEntity
  8
0
  6
Continuous
 62
     1
370
    15
100
AcDbLine
 10
3.2011131725
 20
11.3897724558
 30
0.0
 11
3.2011131725
 21
11.5147724558
 31
0.0
  0
LINE
  5
2E0
330
2A0
100
AcDbEntity
  8
0
  6
Continuous
 62
     1
370
    15
100
AcDbLine
 10
5.2011131725
 20
11.3897724558
 30
0.0
 11
3.2011131725
 21
11.3897724558
 31
0.0
  0
LINE
  5
2E1
330
2A0
100
AcDbEntity
  8
0
  6
Continuous
 62
     1
370
    15
100
AcDbLine
 10
5.2011131725
 20
11.5147724558
 30
0.0
 11
5.2011131725
 21
11.3897724558
 31
0.0
  0
LINE
  5
2E2
330
2A0
100
AcDbEntity
  8
0
  6
Continuous
 62
     1
370
    15
100
AcDbLine
 10
5.2011131725
 20
11.5147724558
 30
0.0
 11
7.7496131725
 21
11.5147724558
 31
0.0
  0
LINE
  5
2E3
330
2A0
100
AcDbEntity
  8
0
  6
Continuous
 62
     1
370
    15
100
AcDbLine
 10
7.7496131725
 20
7.9715769944
 30
0.0
 11
7.7496131725
 21
11.5147724558
 31
0.0
  0
LINE
  5
2E4
330
2A0
100
AcDbEntity
  8
0
  6
Continuous
 62
     1
370
    15
100
AcDbLine
 10
7.9511131725
 20
7.9715769944
 30
0.0
 11
7.7496131725
 21
7.9715769944
 31
0.0
  0
LINE
  5
2E5
330
2A0
100
AcDbEntity
  8
0
  6
Continuous
 62
     1
370
    15
100
AcDbLine
 10
7.9511131725
 20
7.9715769944
 30
0.0
 11
7.9511131725
 21
5.9715769944
 31
0.0
  0
LINE
  5
2E6
330
2A0
100
AcDbEntity
  8
0
  6
Continuous
 62
     1
370
    15
100
AcDbLine
 10
7.9511131725
 20
5.9715769944
 30
0.0
 11
7.7496131725
 21
5.9715769944
 31
0.0
  0
LINE
  5
2E7
330
2A0
100
AcDbEntity
  8
0
  6
Continuous
 62
     1
370
    15
100
AcDbLine
 10
7.7496131725
 20
2.4283815331
 30
0.0
 11
7.7496131725
 21
5.9715769944
 31
0.0
  0
LINE
  5
2E8
330
2A0
100
AcDbEntity
  8
0
  6
Continuous
 62
     1
370
    15
100
AcDbLine
 10
7.7496131725
 20
2.4283815331
 30
0.0
 11
5.2011131725
 21
2.4283815331
 31
0.0
  0
LINE
  5
2E9
330
2A0
100
AcDbEntity
  8
0
  6
Continuous
 62
     1
370
    15
100
AcDbLine
 10
5.2011131725
 20
2.4283815331
 30
0.0
 11
5.2011131725
 21
2.5533815331
 31
0.0
  0
LINE
  5
2EA
330
2A0
100
AcDbEntity
  8
0
  6
Continuous
 62
     1
370
    15
100
AcDbLine
 10
5.2011131725
 20
2.5533815331
 30
0.0
 11
4.3693995728
 21
2.5533815331
 31
0.0
  0
ARC
  5
2EB
330
2A0
100
AcDbEntity
  8
0
  6
Continuous
 62
     1
370
    15
100
AcDbCircle
 10
4.2011131725
 20
2.9908815331
 30
0.0
 40
0.4687500000000022
100
AcDbArc
 50
291.0394697813
 51
248.9605302187
  0
ENDBLK
  5
2A3
330
2A0
100
AcDbEntity
  8
0
100
AcDbBlockEnd
  0
ENDSEC
  0
SECTION
  2
ENTITIES
  0
LINE
  5
6F
330
1F
100
AcDbEntity
  8
0
  6
Continuous
 62
     1
370
    15
100
AcDbLine
 10
3.8557571953
 20
4.6743857755
 30
0.0
 11
4.7672940054
 21
4.355347892
 31
0.0
  0
LINE
  5
70
330
1F
100
AcDbEntity
  8
0
  6
Continuous
 62
     1
370
    15
100
AcDbLine
 10
14.858049941
 20
10.452347892
 30
0.0
 11
4.733049941
 21
10.452347892
 31
0.0
  0
LINE
  5
71
330
1F
100
AcDbEntity
  8
0
  6
Continuous
 62
     1
370
    15
100
AcDbLine
 10
14.858049941
 20
10.452347892
 30
0.0
 11
14.858049941
 21
5.355347892
 31
0.0
  0
LINE
  5
72
330
1F
100
AcDbEntity
  8
0
  6
Continuous
 62
     1
370
    15
100
AcDbLine
 10
4.733049941
 20
5.355347892
 30
0.0
 11
14.858049941
 21
5.355347892
 31
0.0
  0
LINE
  5
73
330
1F
100
AcDbEntity
  8
0
  6
Continuous
 62
     1
370
    15
100
AcDbLine
 10
4.733049941
 20
6.903847892
 30
0.0
 11
4.733049941
 21
5.355347892
 31
0.0
  0
LINE
  5
74
330
1F
100
AcDbEntity
  8
0
  6
Continuous
 62
     1
370
    15
100
AcDbLine
 10
5.858049941
 20
6.903847892
 30
0.0
 11
4.733049941
 21
6.903847892
 31
0.0
  0
LINE
  5
75
330
1F
100
AcDbEntity
  8
0
  6
Continuous
 62
     1
370
    15
100
AcDbLine
 10
4.733049941
 20
8.903847892
 30
0.0
 11
5.858049941
 21
8.903847892
 31
0.0
  0
LINE
  5
76
330
1F
100
AcDbEntity
  8
0
  6
Continuous
 62
     1
370
    15
100
AcDbLine
 10
4.733049941
 20
10.452347892
 30
0.0
 11
4.733049941
 21
8.903847892
 31
0.0
  0
LINE
  5
77
330
1F
100
AcDbEntity
  8
0
  6
Continuous
 62
     1
370
    15
100
AcDbLine
 10
4.7672940054
 20
4.355347892
 30
0.0
 11
23.608049941
 21
4.355347892
 31
0.0
  0
LINE
  5
78
330
1F
100
AcDbEntity
  8
0
  6
Continuous
 62
     1
370
    15
100
AcDbLine
 10
23.608049941
 20
6.903847892
 30
0.0
 11
23.608049941
 21
4.355347892
 31
0.0
  0
LINE
  5
79
330
1F
100
AcDbEntity
  8
0
  6
Continuous
 62
     1
370
    15
100
AcDbLine
 10
23.733049941
 20
6.903847892
 30
0.0
 11
23.608049941
 21
6.903847892
 31
0.0
  0
LINE
  5
7A
330
1F
100
AcDbEntity
  8
0
  6
Continuous
 62
     1
370
    15
100
AcDbLine
 10
23.733049941
 20
8.903847892
 30
0.0
 11
23.733049941
 21
6.903847892
 31
0.0
  0
LINE
  5
7B
330
1F
100
AcDbEntity
  8
0
  6
Continuous
 62
     1
370
    15
100
AcDbLine
 10
23.608049941
 20
8.903847892
 30
0.0
 11
23.733049941
 21
8.903847892
 31
0.0
  0
LINE
  5
7C
330
1F
100
AcDbEntity
  8
0
  6
Continuous
 62
     1
370
    15
100
AcDbLine
 10
23.608049941
 20
11.452347892
 30
0.0
 11
23.608049941
 21
8.903847892
 31
0.0
  0
LINE
  5
7D
330
1F
100
AcDbEntity
  8
0
  6
Continuous
 62
     1
370
    15
100
AcDbLine
 10
23.608049941
 20
11.452347892
 30
0.0
 11
4.7672940054
 21
11.452347892
 31
0.0
  0
LINE
  5
7E
330
1F
100
AcDbEntity
  8
0
  6
Continuous
 62
     1
370
    15
100
AcDbLine
 10
4.7672940054
 20
11.452347892
 30
0.0
 11
0.3976486322
 21
9.9229720114
 31
0.0
  0
LINE
  5
7F
330
1F
100
AcDbEntity
  8
0
  6
Continuous
 62
     1
370
    15
100
AcDbLine
 10
0.3976486322
 20
9.9229720114
 30
0.0
 11
0.3976486322
 21
5.8847237726
 31
0.0
  0
LINE
  5
80
330
1F
100
AcDbEntity
  8
0
  6
Continuous
 62
     1
370
    15
100
AcDbLine
 10
0.3976486322
 20
5.8847237726
 30
0.0
 11
1.9680404825
 21
5.335086625
 31
0.0
  0
LINE
  5
81
330
1F
100
AcDbEntity
  8
0
  6
Continuous
 62
     1
370
    15
100
AcDbLine
 10
1.9680404825
 20
5.335086625
 30
0.0
 11
1.7930404825
 21
4.835086625
 31
0.0
  0
LINE
  5
82
330
1F
100
AcDbEntity
  8
0
  6
Continuous
 62
     1
370
    15
100
AcDbLine
 10
1.7930404825
 20
4.835086625
 30
0.0
 11
0.1726486322
 21
4.835086625
 31
0.0
  0
LINE
  5
83
330
1F
100
AcDbEntity
  8
0
  6
Continuous
 62
     1
370
    15
100
AcDbLine
 10
0.1726486322
 20
4.835086625
 30
0.0
 11
0.1726486322
 21
4.085086625
 31
0.0
  0
LINE
  5
84
330
1F
100
AcDbEntity
  8
0
  6
Continuous
 62
     1
370
    15
100
AcDbLine
 10
0.1726486322
 20
4.085086625
 30
0.0
 11
3.5292899821
 21
4.085086625
 31
0.0
  0
ARC
  5
85
330
1F
100
AcDbEntity
  8
0
  6
Continuous
 62
     1
370
    15
100
AcDbCircle
 10
1.9680404825
 20
5.335086625
 30
0.0
 40
1.999999999999999
100
AcDbArc
 50
321.3178125465
 51
340.7099537808
  0
LINE
  5
86
330
1F
100
AcDbEntity
  8
0
  6
Continuous
 62
     1
370
    15
100
AcDbLine
 10
6.1176880948
 20
5.8580899127
 30
0.0
 11
10.0274730616
 21
5.8580899127
 31
0.0
  0
LINE
  5
87
330
1F
100
AcDbEntity
  8
0
  6
Continuous
 62
     1
370
    15
100
AcDbLine
 10
7.9163305782
 20
9.25425691
 30
0.0
 11
8.2288305782
 21
9.25425691
 31
0.0
  0
CIRCLE
  5
88
330
1F
100
AcDbEntity
  8
0
  6
Continuous
 62
     1
370
    15
100
AcDbCircle
 10
7.2618826535
 20
7.0932243523
 30
0.0
 40
0.0624999999999991
  0
CIRCLE
  5
89
330
1F
100
AcDbEntity
  8
0
  6
Continuous
 62
     1
370
    15
100
AcDbCircle
 10
8.8832785028
 20
7.0932243523
 30
0.0
 40
0.0625
  0
CIRCLE
  5
8A
330
1F
100
AcDbEntity
  8
0
  6
Continuous
 62
     1
370
    15
100
AcDbCircle
 10
8.8832785028
 20
8.7146202016
 30
0.0
 40
0.0625
  0
CIRCLE
  5
8B
330
1F
100
AcDbEntity
  8
0
  6
Continuous
 62
     1
370
    15
100
AcDbCircle
 10
7.2618826535
 20
8.7146202016
 30
0.0
 40
0.0625
  0
CIRCLE
  5
8C
330
1F
100
AcDbEntity
  8
0
  6
Continuous
 62
     1
370
    15
100
AcDbCircle
 10
8.9269112868
 20
6.6157701618
 30
0.0
 40
0.0625
  0
CIRCLE
  5
8D
330
1F
100
AcDbEntity
  8
0
  6
Continuous
 62
     1
370
    15
100
AcDbCircle
 10
8.9269112868
 20
7.4850615004
 30
0.0
 40
0.0625
  0
CIRCLE
  5
8E
330
1F
100
AcDbEntity
  8
0
  6
Continuous
 62
     1
370
    15
100
AcDbCircle
 10
7.2182498695
 20
7.4850615004
 30
0.0
 40
0.0625
  0
CIRCLE
  5
8F
330
1F
100
AcDbEntity
  8
0
  6
Continuous
 62
     1
370
    15
100
AcDbCircle
 10
7.2182498695
 20
6.6157701618
 30
0.0
 40
0.0625
  0
CIRCLE
  5
90
330
1F
100
AcDbEntity
  8
0
  6
Continuous
 62
     1
370
    15
100
AcDbCircle
 10
8.0725805782
 20
7.903922277
 30
0.0
 40
0.28125
  0
ARC
  5
91
330
1F
100
AcDbEntity
  8
0
  6
Continuous
 62
     1
370
    15
100
AcDbCircle
 10
7.9163305782
 20
9.37925691
 30
0.0
 40
0.1250000000000018
100
AcDbArc
 50
90.0
 51
270.0
  0
LINE
  5
92
330
1F
100
AcDbEntity
  8
0
  6
Continuous
 62
     1
370
    15
100
AcDbLine
 10
7.9163305782
 20
9.50425691
 30
0.0
 11
8.2288305782
 21
9.50425691
 31
0.0
  0
ARC
  5
93
330
1F
100
AcDbEntity
  8
0
  6
Continuous
 62
     1
370
    15
100
AcDbCircle
 10
8.2288305782
 20
9.37925691
 30
0.0
 40
0.1250000000000018
100
AcDbArc
 50
270.0
 51
90.0
  0
LINE
  5
94
330
1F
100
AcDbEntity
  8
0
  6
Continuous
 62
     1
370
    15
100
AcDbLine
 10
10.0274730616
 20
6.903922277
 30
0.0
 11
10.0274730616
 21
5.8580899127
 31
0.0
  0
LINE
  5
95
330
1F
100
AcDbEntity
  8
0
  6
Continuous
 62
     1
370
    15
100
AcDbLine
 10
10.2913305782
 20
6.903922277
 30
0.0
 11
10.0274730616
 21
6.903922277
 31
0.0
  0
LINE
  5
96
330
1F
100
AcDbEntity
  8
0
  6
Continuous
 62
     1
370
    15
100
AcDbLine
 10
10.2913305782
 20
6.903922277
 30
0.0
 11
10.2913305782
 21
8.903922277
 31
0.0
  0
LINE
  5
97
330
1F
100
AcDbEntity
  8
0
  6
Continuous
 62
     1
370
    15
100
AcDbLine
 10
10.0274730616
 20
8.903922277
 30
0.0
 11
10.2913305782
 21
8.903922277
 31
0.0
  0
LINE
  5
98
330
1F
100
AcDbEntity
  8
0
  6
Continuous
 62
     1
370
    15
100
AcDbLine
 10
10.0274730616
 20
8.903922277
 30
0.0
 11
10.0274730616
 21
9.9497546413
 31
0.0
  0
LINE
  5
99
330
1F
100
AcDbEntity
  8
0
  6
Continuous
 62
     1
370
    15
100
AcDbLine
 10
6.1176880948
 20
9.9497546413
 30
0.0
 11
10.0274730616
 21
9.9497546413
 31
0.0
  0
LINE
  5
9A
330
1F
100
AcDbEntity
  8
0
  6
Continuous
 62
     1
370
    15
100
AcDbLine
 10
6.1176880948
 20
8.903922277
 30
0.0
 11
6.1176880948
 21
9.9497546413
 31
0.0
  0
LINE
  5
9B
330
1F
100
AcDbEntity
  8
0
  6
Continuous
 62
     1
370
    15
100
AcDbLine
 10
6.1176880948
 20
8.903922277
 30
0.0
 11
5.8538305782
 21
8.903922277
 31
0.0
  0
LINE
  5
9C
330
1F
100
AcDbEntity
  8
0
  6
Continuous
 62
     1
370
    15
100
AcDbLine
 10
5.8538305782
 20
8.903922277
 30
0.0
 11
5.8538305782
 21
6.903922277
 31
0.0
  0
LINE
  5
9D
330
1F
100
AcDbEntity
  8
0
  6
Continuous
 62
     1
370
    15
100
AcDbLine
 10
5.8538305782
 20
6.903922277
 30
0.0
 11
6.1176880948
 21
6.903922277
 31
0.0
  0
LINE
  5
9E
330
1F
100
AcDbEntity
  8
0
  6
Continuous
 62
     1
370
    15
100
AcDbLine
 10
6.1176880948
 20
6.903922277
 30
0.0
 11
6.1176880948
 21
5.8580899127
 31
0.0
  0
LINE
  5
9F
330
1F
100
AcDbEntity
  8
0
  6
Continuous
 62
     1
370
    15
100
AcDbLine
 10
10.6182399283
 20
5.8621240259
 30
0.0
 11
14.5280248951
 21
5.8621240259
 31
0.0
  0
LINE
  5
A0
330
1F
100
AcDbEntity
  8
0
  6
Continuous
 62
     1
370
    15
100
AcDbLine
 10
12.4168824117
 20
9.2582910232
 30
0.0
 11
12.7293824117
 21
9.2582910232
 31
0.0
  0
CIRCLE
  5
A1
330
1F
100
AcDbEntity
  8
0
  6
Continuous
 62
     1
370
    15
100
AcDbCircle
 10
11.7624344871
 20
7.0972584656
 30
0.0
 40
0.0625000000000018
  0
CIRCLE
  5
A2
330
1F
100
AcDbEntity
  8
0
  6
Continuous
 62
     1
370
    15
100
AcDbCircle
 10
13.3838303363
 20
7.0972584656
 30
0.0
 40
0.0625
  0
CIRCLE
  5
A3
330
1F
100
AcDbEntity
  8
0
  6
Continuous
 62
     1
370
    15
100
AcDbCircle
 10
13.3838303363
 20
8.7186543148
 30
0.0
 40
0.0624999999999982
  0
CIRCLE
  5
A4
330
1F
100
AcDbEntity
  8
0
  6
Continuous
 62
     1
370
    15
100
AcDbCircle
 10
11.7624344871
 20
8.7186543148
 30
0.0
 40
0.0624999999999982
  0
CIRCLE
  5
A5
330
1F
100
AcDbEntity
  8
0
  6
Continuous
 62
     1
370
    15
100
AcDbCircle
 10
13.4274631204
 20
6.6198042751
 30
0.0
 40
0.0625
  0
CIRCLE
  5
A6
330
1F
100
AcDbEntity
  8
0
  6
Continuous
 62
     1
370
    15
100
AcDbCircle
 10
13.4274631204
 20
7.4890956136
 30
0.0
 40
0.0625
  0
CIRCLE
  5
A7
330
1F
100
AcDbEntity
  8
0
  6
Continuous
 62
     1
370
    15
100
AcDbCircle
 10
11.718801703
 20
7.4890956136
 30
0.0
 40
0.0625
  0
CIRCLE
  5
A8
330
1F
100
AcDbEntity
  8
0
  6
Continuous
 62
     1
370
    15
100
AcDbCircle
 10
11.718801703
 20
6.6198042751
 30
0.0
 40
0.0625
  0
CIRCLE
  5
A9
330
1F
100
AcDbEntity
  8
0
  6
Continuous
 62
     1
370
    15
100
AcDbCircle
 10
12.5731324117
 20
7.9079563902
 30
0.0
 40
0.28125
  0
ARC
  5
AA
330
1F
100
AcDbEntity
  8
0
  6
Continuous
 62
     1
370
    15
100
AcDbCircle
 10
12.4168824117
 20
9.3832910232
 30
0.0
 40
0.1250000000000018
100
AcDbArc
 50
90.0
 51
270.0
  0
LINE
  5
AB
330
1F
100
AcDbEntity
  8
0
  6
Continuous
 62
     1
370
    15
100
AcDbLine
 10
12.4168824117
 20
9.5082910232
 30
0.0
 11
12.7293824117
 21
9.5082910232
 31
0.0
  0
ARC
  5
AC
330
1F
100
AcDbEntity
  8
0
  6
Continuous
 62
     1
370
    15
100
AcDbCircle
 10
12.7293824117
 20
9.3832910232
 30
0.0
 40
0.1250000000000018
100
AcDbArc
 50
270.0
 51
90.0
  0
LINE
  5
AD
330
1F
100
AcDbEntity
  8
0
  6
Continuous
 62
     1
370
    15
100
AcDbLine
 10
14.5280248951
 20
6.9079563902
 30
0.0
 11
14.5280248951
 21
5.8621240259
 31
0.0
  0
LINE
  5
AE
330
1F
100
AcDbEntity
  8
0
  6
Continuous
 62
     1
370
    15
100
AcDbLine
 10
14.7918824117
 20
6.9079563902
 30
0.0
 11
14.5280248951
 21
6.9079563902
 31
0.0
  0
LINE
  5
AF
330
1F
100
AcDbEntity
  8
0
  6
Continuous
 62
     1
370
    15
100
AcDbLine
 10
14.7918824117
 20
6.9079563902
 30
0.0
 11
14.7918824117
 21
8.9079563902
 31
0.0
  0
LINE
  5
B0
330
1F
100
AcDbEntity
  8
0
  6
Continuous
 62
     1
370
    15
100
AcDbLine
 10
14.5280248951
 20
8.9079563902
 30
0.0
 11
14.7918824117
 21
8.9079563902
 31
0.0
  0
LINE
  5
B1
330
1F
100
AcDbEntity
  8
0
  6
Continuous
 62
     1
370
    15
100
AcDbLine
 10
14.5280248951
 20
8.9079563902
 30
0.0
 11
14.5280248951
 21
9.9537887545
 31
0.0
  0
LINE
  5
B2
330
1F
100
AcDbEntity
  8
0
  6
Continuous
 62
     1
370
    15
100
AcDbLine
 10
10.6182399283
 20
9.9537887545
 30
0.0
 11
14.5280248951
 21
9.9537887545
 31
0.0
  0
LINE
  5
B3
330
1F
100
AcDbEntity
  8
0
  6
Continuous
 62
     1
370
    15
100
AcDbLine
 10
10.6182399283
 20
8.9079563902
 30
0.0
 11
10.6182399283
 21
9.9537887545
 31
0.0
  0
LINE
  5
B4
330
1F
100
AcDbEntity
  8
0
  6
Continuous
 62
     1
370
    15
100
AcDbLine
 10
10.6182399283
 20
8.9079563902
 30
0.0
 11
10.3543824117
 21
8.9079563902
 31
0.0
  0
LINE
  5
B5
330
1F
100
AcDbEntity
  8
0
  6
Continuous
 62
     1
370
    15
100
AcDbLine
 10
10.3543824117
 20
8.9079563902
 30
0.0
 11
10.3543824117
 21
6.9079563902
 31
0.0
  0
LINE
  5
B6
330
1F
100
AcDbEntity
  8
0
  6
Continuous
 62
     1
370
    15
100
AcDbLine
 10
10.3543824117
 20
6.9079563902
 30
0.0
 11
10.6182399283
 21
6.9079563902
 31
0.0
  0
LINE
  5
B7
330
1F
100
AcDbEntity
  8
0
  6
Continuous
 62
     1
370
    15
100
AcDbLine
 10
10.6182399283
 20
6.9079563902
 30
0.0
 11
10.6182399283
 21
5.8621240259
 31
0.0
  0
LINE
  5
B8
330
1B
100
AcDbEntity
 67
     1
  8
0
  6
Continuous
 62
     1
370
    15
100
AcDbLine
 10
5.3925788497
 20
11.1134415584
 30
0.0
 11
3.3925788497
 21
11.1134415584
 31
0.0
  0
ARC
  5
B9
330
1B
100
AcDbEntity
 67
     1
  8
0
  6
Continuous
 62
     1
370
    15
100
AcDbCircle
 10
7.0660788497
 20
8.3009415584
 30
0.0
 40
0.5
100
AcDbArc
 50
270.0
 51
0.0
  0
LINE
  5
BA
330
1B
100
AcDbEntity
 67
     1
  8
0
  6
Continuous
 62
     1
370
    15
100
AcDbLine
 10
7.0660788497
 20
7.1759415584
 30
0.0
 11
1.7190788497
 21
7.1759415584
 31
0.0
  0
LINE
  5
BB
330
1B
100
AcDbEntity
 67
     1
  8
0
  6
Continuous
 62
     1
370
    15
100
AcDbLine
 10
7.5660788497
 20
8.3009415584
 30
0.0
 11
7.5660788497
 21
9.4884415584
 31
0.0
  0
ARC
  5
BC
330
1B
100
AcDbEntity
 67
     1
  8
0
  6
Continuous
 62
     1
370
    15
100
AcDbCircle
 10
7.0660788497
 20
9.4884415584
 30
0.0
 40
0.4999999999999991
100
AcDbArc
 50
0.0
 51
90.0
  0
LINE
  5
BD
330
1B
100
AcDbEntity
 67
     1
  8
0
  6
Continuous
 62
     1
370
    15
100
AcDbLine
 10
7.0660788497
 20
9.9884415584
 30
0.0
 11
1.7190788497
 21
9.9884415584
 31
0.0
  0
ARC
  5
BE
330
1B
100
AcDbEntity
 67
     1
  8
0
  6
Continuous
 62
     1
370
    15
100
AcDbCircle
 10
1.7190788497
 20
9.4884415584
 30
0.0
 40
0.5000000000000002
100
AcDbArc
 50
90.0
 51
180.0
  0
LINE
  5
BF
330
1B
100
AcDbEntity
 67
     1
  8
0
  6
Continuous
 62
     1
370
    15
100
AcDbLine
 10
1.2190788497
 20
8.3009415584
 30
0.0
 11
1.2190788497
 21
9.4884415584
 31
0.0
  0
ARC
  5
C0
330
1B
100
AcDbEntity
 67
     1
  8
0
  6
Continuous
 62
     1
370
    15
100
AcDbCircle
 10
1.7190788497
 20
8.3009415584
 30
0.0
 40
0.5000000000000002
100
AcDbArc
 50
180.0
 51
270.0
  0
LINE
  5
C1
330
1B
100
AcDbEntity
 67
     1
  8
0
  6
Continuous
 62
     1
370
    15
100
AcDbLine
 10
7.0660788497
 20
7.8009415584
 30
0.0
 11
1.7190788497
 21
7.8009415584
 31
0.0
  0
ARC
  5
C2
330
1B
100
AcDbEntity
 67
     1
  8
0
  6
Continuous
 62
     1
370
    15
100
AcDbCircle
 10
1.7190788497
 20
6.6759415584
 30
0.0
 40
0.5000000000000002
100
AcDbArc
 50
90.0
 51
180.0
  0
LINE
  5
C3
330
1B
100
AcDbEntity
 67
     1
  8
0
  6
Continuous
 62
     1
370
    15
100
AcDbLine
 10
1.2190788497
 20
2.4884415584
 30
0.0
 11
1.2190788497
 21
6.6759415584
 31
0.0
  0
ARC
  5
C4
330
1B
100
AcDbEntity
 67
     1
  8
0
  6
Continuous
 62
     1
370
    15
100
AcDbCircle
 10
1.7190788497
 20
2.4884415584
 30
0.0
 40
0.5000000000000016
100
AcDbArc
 50
180.0
 51
270.0
  0
LINE
  5
C5
330
1B
100
AcDbEntity
 67
     1
  8
0
  6
Continuous
 62
     1
370
    15
100
AcDbLine
 10
7.0660788497
 20
1.9884415584
 30
0.0
 11
1.7190788497
 21
1.9884415584
 31
0.0
  0
ARC
  5
C6
330
1B
100
AcDbEntity
 67
     1
  8
0
  6
Continuous
 62
     1
370
    15
100
AcDbCircle
 10
7.0660788497
 20
2.4884415584
 30
0.0
 40
0.5000000000000016
100
AcDbArc
 50
270.0
 51
0.0
  0
LINE
  5
C7
330
1B
100
AcDbEntity
 67
     1
  8
0
  6
Continuous
 62
     1
370
    15
100
AcDbLine
 10
7.5660788497
 20
2.4884415584
 30
0.0
 11
7.5660788497
 21
6.6759415584
 31
0.0
  0
ARC
  5
C8
330
1B
100
AcDbEntity
 67
     1
  8
0
  6
Continuous
 62
     1
370
    15
100
AcDbCircle
 10
7.0660788497
 20
6.6759415584
 30
0.0
 40
0.5
100
AcDbArc
 50
0.0
 51
90.0
  0
LINE
  5
C9
330
1B
100
AcDbEntity
 67
     1
  8
0
  6
Continuous
 62
     1
370
    15
100
AcDbLine
 10
5.3925788497
 20
11.2384415584
 30
0.0
 11
5.3925788497
 21
11.1134415584
 31
0.0
  0
LINE
  5
CA
330
1B
100
AcDbEntity
 67
     1
  8
0
  6
Continuous
 62
     1
370
    15
100
AcDbLine
 10
5.3925788497
 20
11.2384415584
 30
0.0
 11
7.9410788497
 21
11.2384415584
 31
0.0
  0
LINE
  5
CB
330
1B
100
AcDbEntity
 67
     1
  8
0
  6
Continuous
 62
     1
370
    15
100
AcDbLine
 10
7.9410788497
 20
9.7384415584
 30
0.0
 11
7.9410788497
 21
11.2384415584
 31
0.0
  0
LINE
  5
CC
330
1B
100
AcDbEntity
 67
     1
  8
0
  6
Continuous
 62
     1
370
    15
100
AcDbLine
 10
8.1425788497
 20
9.7384415584
 30
0.0
 11
7.9410788497
 21
9.7384415584
 31
0.0
  0
LINE
  5
CD
330
1B
100
AcDbEntity
 67
     1
  8
0
  6
Continuous
 62
     1
370
    15
100
AcDbLine
 10
8.1425788497
 20
9.7384415584
 30
0.0
 11
8.1425788497
 21
7.7384415584
 31
0.0
  0
LINE
  5
CE
330
1B
100
AcDbEntity
 67
     1
  8
0
  6
Continuous
 62
     1
370
    15
100
AcDbLine
 10
8.1425788497
 20
7.7384415584
 30
0.0
 11
7.9410788497
 21
7.7384415584
 31
0.0
  0
LINE
  5
CF
330
1B
100
AcDbEntity
 67
     1
  8
0
  6
Continuous
 62
     1
370
    15
100
AcDbLine
 10
7.9410788497
 20
4.7384415584
 30
0.0
 11
7.9410788497
 21
7.7384415584
 31
0.0
  0
LINE
  5
D0
330
1B
100
AcDbEntity
 67
     1
  8
0
  6
Continuous
 62
     1
370
    15
100
AcDbLine
 10
8.1425788497
 20
4.7384415584
 30
0.0
 11
7.9410788497
 21
4.7384415584
 31
0.0
  0
LINE
  5
D1
330
1B
100
AcDbEntity
 67
     1
  8
0
  6
Continuous
 62
     1
370
    15
100
AcDbLine
 10
8.1425788497
 20
4.7384415584
 30
0.0
 11
8.1425788497
 21
2.7384415584
 31
0.0
  0
LINE
  5
D2
330
1B
100
AcDbEntity
 67
     1
  8
0
  6
Continuous
 62
     1
370
    15
100
AcDbLine
 10
8.1425788497
 20
2.7384415584
 30
0.0
 11
7.9410788497
 21
2.7384415584
 31
0.0
  0
LINE
  5
D3
330
1B
100
AcDbEntity
 67
     1
  8
0
  6
Continuous
 62
     1
370
    15
100
AcDbLine
 10
7.9410788497
 20
1.2384415584
 30
0.0
 11
7.9410788497
 21
2.7384415584
 31
0.0
  0
LINE
  5
D4
330
1B
100
AcDbEntity
 67
     1
  8
0
  6
Continuous
 62
     1
370
    15
100
AcDbLine
 10
7.9410788497
 20
1.2384415584
 30
0.0
 11
5.3925788497
 21
1.2384415584
 31
0.0
  0
LINE
  5
D5
330
1B
100
AcDbEntity
 67
     1
  8
0
  6
Continuous
 62
     1
370
    15
100
AcDbLine
 10
5.3925788497
 20
1.2384415584
 30
0.0
 11
5.3925788497
 21
1.3634415584
 31
0.0
  0
LINE
  5
D6
330
1B
100
AcDbEntity
 67
     1
  8
0
  6
Continuous
 62
     1
370
    15
100
AcDbLine
 10
5.3925788497
 20
1.3634415584
 30
0.0
 11
3.3925788497
 21
1.3634415584
 31
0.0
  0
LINE
  5
D7
330
1B
100
AcDbEntity
 67
     1
  8
0
  6
Continuous
 62
     1
370
    15
100
AcDbLine
 10
3.3925788497
 20
1.3634415584
 30
0.0
 11
3.3925788497
 21
1.2384415584
 31
0.0
  0
LINE
  5
D8
330
1B
100
AcDbEntity
 67
     1
  8
0
  6
Continuous
 62
     1
370
    15
100
AcDbLine
 10
3.3925788497
 20
1.2384415584
 30
0.0
 11
0.8440788497
 21
1.2384415584
 31
0.0
  0
LINE
  5
D9
330
1B
100
AcDbEntity
 67
     1
  8
0
  6
Continuous
 62
     1
370
    15
100
AcDbLine
 10
0.8440788497
 20
1.2384415584
 30
0.0
 11
0.8440788497
 21
2.7384415584
 31
0.0
  0
LINE
  5
DA
330
1B
100
AcDbEntity
 67
     1
  8
0
  6
Continuous
 62
     1
370
    15
100
AcDbLine
 10
0.8440788497
 20
2.7384415584
 30
0.0
 11
0.6425788497
 21
2.7384415584
 31
0.0
  0
LINE
  5
DB
330
1B
100
AcDbEntity
 67
     1
  8
0
  6
Continuous
 62
     1
370
    15
100
AcDbLine
 10
0.6425788497
 20
2.7384415584
 30
0.0
 11
0.6425788497
 21
4.7384415584
 31
0.0
  0
LINE
  5
DC
330
1B
100
AcDbEntity
 67
     1
  8
0
  6
Continuous
 62
     1
370
    15
100
AcDbLine
 10
0.8440788497
 20
4.7384415584
 30
0.0
 11
0.6425788497
 21
4.7384415584
 31
0.0
  0
LINE
  5
DD
330
1B
100
AcDbEntity
 67
     1
  8
0
  6
Continuous
 62
     1
370
    15
100
AcDbLine
 10
0.8440788497
 20
4.7384415584
 30
0.0
 11
0.8440788497
 21
7.7384415584
 31
0.0
  0
LINE
  5
DE
330
1B
100
AcDbEntity
 67
     1
  8
0
  6
Continuous
 62
     1
370
    15
100
AcDbLine
 10
0.8440788497
 20
7.7384415584
 30
0.0
 11
0.6425788497
 21
7.7384415584
 31
0.0
  0
LINE
  5
DF
330
1B
100
AcDbEntity
 67
     1
  8
0
  6
Continuous
 62
     1
370
    15
100
AcDbLine
 10
0.6425788497
 20
7.7384415584
 30
0.0
 11
0.6425788497
 21
9.7384415584
 31
0.0
  0
LINE
  5
E0
330
1B
100
AcDbEntity
 67
     1
  8
0
  6
Continuous
 62
     1
370
    15
100
AcDbLine
 10
0.8440788497
 20
9.7384415584
 30
0.0
 11
0.6425788497
 21
9.7384415584
 31
0.0
  0
LINE
  5
E1
330
1B
100
AcDbEntity
 67
     1
  8
0
  6
Continuous
 62
     1
370
    15
100
AcDbLine
 10
0.8440788497
 20
9.7384415584
 30
0.0
 11
0.8440788497
 21
11.2384415584
 31
0.0
  0
LINE
  5
E2
330
1B
100
AcDbEntity
 67
     1
  8
0
  6
Continuous
 62
     1
370
    15
100
AcDbLine
 10
0.8440788497
 20
11.2384415584
 30
0.0
 11
3.3925788497
 21
11.2384415584
 31
0.0
  0
LINE
  5
E3
330
1B
100
AcDbEntity
 67
     1
  8
0
  6
Continuous
 62
     1
370
    15
100
AcDbLine
 10
3.3925788497
 20
11.1134415584
 30
0.0
 11
3.3925788497
 21
11.2384415584
 31
0.0
  0
LINE
  5
E4
330
1B
100
AcDbEntity
 67
     1
  8
0
  6
Continuous
 62
     1
370
    15
100
AcDbLine
 10
18.7947081976
 20
10.792963064
 30
0.0
 11
20.7947081976
 21
10.792963064
 31
0.0
  0
ARC
  5
E5
330
1B
100
AcDbEntity
 67
     1
  8
0
  6
Continuous
 62
     1
370
    15
100
AcDbCircle
 10
22.281539482
 20
7.0942269905
 30
0.0
 40
0.25
100
AcDbArc
 50
235.2507061376
 51
0.0
  0
LINE
  5
E6
330
1B
100
AcDbEntity
 67
     1
  8
0
  6
Continuous
 62
     1
370
    15
100
AcDbLine
 10
18.2487284747
 20
6.5298444106
 30
0.0
 11
19.6522115386
 21
7.5034496347
 31
0.0
  0
ARC
  5
E7
330
1B
100
AcDbEntity
 67
     1
  8
0
  6
Continuous
 62
     1
370
    15
100
AcDbCircle
 10
17.3078769132
 20
9.0231669934
 30
0.0
 40
0.2500000000000013
100
AcDbArc
 50
55.2507061376
 51
180.0
  0
LINE
  5
E8
330
1B
100
AcDbEntity
 67
     1
  8
0
  6
Continuous
 62
     1
370
    15
100
AcDbLine
 10
19.9372048567
 20
8.6139443492
 30
0.0
 11
21.3406879205
 21
9.5875495733
 31
0.0
  0
CIRCLE
  5
E9
330
1B
100
AcDbEntity
 67
     1
  8
0
  6
Continuous
 62
     1
370
    15
100
AcDbCircle
 10
22.281539482
 20
6.3244309199
 30
0.0
 40
0.0625
  0
CIRCLE
  5
EA
330
1B
100
AcDbEntity
 67
     1
  8
0
  6
Continuous
 62
     1
370
    15
100
AcDbCircle
 10
22.281539482
 20
9.792963064
 30
0.0
 40
0.0625
  0
CIRCLE
  5
EB
330
1B
100
AcDbEntity
 67
     1
  8
0
  6
Continuous
 62
     1
370
    15
100
AcDbCircle
 10
17.3078769132
 20
9.792963064
 30
0.0
 40
0.0625
  0
CIRCLE
  5
EC
330
1B
100
AcDbEntity
 67
     1
  8
0
  6
Continuous
 62
     1
370
    15
100
AcDbCircle
 10
17.3078769132
 20
6.3244309199
 30
0.0
 40
0.0625
  0
LINE
  5
ED
330
1B
100
AcDbEntity
 67
     1
  8
0
  6
Continuous
 62
     1
370
    15
100
AcDbLine
 10
18.7947081976
 20
5.0744309199
 30
0.0
 11
20.7947081976
 21
5.0744309199
 31
0.0
  0
LINE
  5
EE
330
1B
100
AcDbEntity
 67
     1
  8
0
  6
Continuous
 62
     1
370
    15
100
AcDbLine
 10
22.531539482
 20
9.0231669934
 30
0.0
 11
22.531539482
 21
7.0942269905
 31
0.0
  0
ARC
  5
EF
330
1B
100
AcDbEntity
 67
     1
  8
0
  6
Continuous
 62
     1
370
    15
100
AcDbCircle
 10
22.281539482
 20
9.0231669934
 30
0.0
 40
0.2500000000000033
100
AcDbArc
 50
0.0
 51
124.7492938624
  0
LINE
  5
F0
330
1B
100
AcDbEntity
 67
     1
  8
0
  6
Continuous
 62
     1
370
    15
100
AcDbLine
 10
20.7487284747
 20
8.2641104826
 30
0.0
 11
22.139042823
 21
9.2285804841
 31
0.0
  0
ARC
  5
F1
330
1B
100
AcDbEntity
 67
     1
  8
0
  6
Continuous
 62
     1
370
    15
100
AcDbCircle
 10
20.8912251338
 20
8.0586969919
 30
0.0
 40
0.2500000000000013
100
AcDbArc
 50
124.7492938624
 51
235.2507061376
  0
LINE
  5
F2
330
1B
100
AcDbEntity
 67
     1
  8
0
  6
Continuous
 62
     1
370
    15
100
AcDbLine
 10
20.7487284747
 20
7.8532835013
 30
0.0
 11
22.139042823
 21
6.8888134998
 31
0.0
  0
ARC
  5
F3
330
1B
100
AcDbEntity
 67
     1
  8
0
  6
Continuous
 62
     1
370
    15
100
AcDbCircle
 10
18.3912251338
 20
6.3244309199
 30
0.0
 40
0.2500000000000013
100
AcDbArc
 50
124.7492938624
 51
270.0
  0
LINE
  5
F4
330
1B
100
AcDbEntity
 67
     1
  8
0
  6
Continuous
 62
     1
370
    15
100
AcDbLine
 10
18.3912251338
 20
6.0744309199
 30
0.0
 11
21.1981912615
 21
6.0744309199
 31
0.0
  0
ARC
  5
F5
330
1B
100
AcDbEntity
 67
     1
  8
0
  6
Continuous
 62
     1
370
    15
100
AcDbCircle
 10
21.1981912615
 20
6.3244309199
 30
0.0
 40
0.2500000000000013
100
AcDbArc
 50
270.0
 51
55.2507061376
  0
LINE
  5
F6
330
1B
100
AcDbEntity
 67
     1
  8
0
  6
Continuous
 62
     1
370
    15
100
AcDbLine
 10
19.9372048567
 20
7.5034496347
 30
0.0
 11
21.3406879205
 21
6.5298444106
 31
0.0
  0
ARC
  5
F7
330
1B
100
AcDbEntity
 67
     1
  8
0
  6
Continuous
 62
     1
370
    15
100
AcDbCircle
 10
19.7947081976
 20
7.298036144
 30
0.0
 40
0.2500000000000013
100
AcDbArc
 50
55.2507061376
 51
124.7492938624
  0
LINE
  5
F8
330
1B
100
AcDbEntity
 67
     1
  8
0
  6
Continuous
 62
     1
370
    15
100
AcDbLine
 10
17.0578769132
 20
9.0231669934
 30
0.0
 11
17.0578769132
 21
7.0942269905
 31
0.0
  0
ARC
  5
F9
330
1B
100
AcDbEntity
 67
     1
  8
0
  6
Continuous
 62
     1
370
    15
100
AcDbCircle
 10
17.3078769132
 20
7.0942269905
 30
0.0
 40
0.2500000000000013
100
AcDbArc
 50
180.0
 51
304.7492938624
  0
LINE
  5
FA
330
1B
100
AcDbEntity
 67
     1
  8
0
  6
Continuous
 62
     1
370
    15
100
AcDbLine
 10
17.4503735723
 20
6.8888134998
 30
0.0
 11
18.8406879205
 21
7.8532835013
 31
0.0
  0
ARC
  5
FB
330
1B
100
AcDbEntity
 67
     1
  8
0
  6
Continuous
 62
     1
370
    15
100
AcDbCircle
 10
18.6981912615
 20
8.0586969919
 30
0.0
 40
0.2500000000000006
100
AcDbArc
 50
304.7492938624
 51
55.2507061376
  0
LINE
  5
FC
330
1B
100
AcDbEntity
 67
     1
  8
0
  6
Continuous
 62
     1
370
    15
100
AcDbLine
 10
17.4503735723
 20
9.2285804841
 30
0.0
 11
18.8406879205
 21
8.2641104826
 31
0.0
  0
ARC
  5
FD
330
1B
100
AcDbEntity
 67
     1
  8
0
  6
Continuous
 62
     1
370
    15
100
AcDbCircle
 10
21.1981912615
 20
9.792963064
 30
0.0
 40
0.2500000000000013
100
AcDbArc
 50
304.7492938624
 51
90.0
  0
LINE
  5
FE
330
1B
100
AcDbEntity
 67
     1
  8
0
  6
Continuous
 62
     1
370
    15
100
AcDbLine
 10
18.3912251338
 20
10.042963064
 30
0.0
 11
21.1981912615
 21
10.042963064
 31
0.0
  0
ARC
  5
FF
330
1B
100
AcDbEntity
 67
     1
  8
0
  6
Continuous
 62
     1
370
    15
100
AcDbCircle
 10
18.3912251338
 20
9.792963064
 30
0.0
 40
0.25
100
AcDbArc
 50
90.0
 51
235.2507061376
  0
LINE
  5
100
330
1B
100
AcDbEntity
 67
     1
  8
0
  6
Continuous
 62
     1
370
    15
100
AcDbLine
 10
18.2487284747
 20
9.5875495733
 30
0.0
 11
19.6522115386
 21
8.6139443492
 31
0.0
  0
ARC
  5
101
330
1B
100
AcDbEntity
 67
     1
  8
0
  6
Continuous
 62
     1
370
    15
100
AcDbCircle
 10
19.7947081976
 20
8.8193578399
 30
0.0
 40
0.2499999999999999
100
AcDbArc
 50
235.2507061376
 51
304.7492938624
  0
LINE
  5
102
330
1B
100
AcDbEntity
 67
     1
  8
0
  6
Continuous
 62
     1
370
    15
100
AcDbLine
 10
18.7947081976
 20
5.3244309199
 30
0.0
 11
18.7947081976
 21
5.0744309199
 31
0.0
  0
LINE
  5
103
330
1B
100
AcDbEntity
 67
     1
  8
0
  6
Continuous
 62
     1
370
    15
100
AcDbLine
 10
16.3078769132
 20
5.3244309199
 30
0.0
 11
18.7947081976
 21
5.3244309199
 31
0.0
  0
LINE
  5
104
330
1B
100
AcDbEntity
 67
     1
  8
0
  6
Continuous
 62
     1
370
    15
100
AcDbLine
 10
16.3078769132
 20
7.3244309199
 30
0.0
 11
16.3078769132
 21
5.3244309199
 31
0.0
  0
LINE
  5
105
330
1B
100
AcDbEntity
 67
     1
  8
0
  6
Continuous
 62
     1
370
    15
100
AcDbLine
 10
16.0447081976
 20
7.3244309199
 30
0.0
 11
16.3078769132
 21
7.3244309199
 31
0.0
  0
LINE
  5
106
330
1B
100
AcDbEntity
 67
     1
  8
0
  6
Continuous
 62
     1
370
    15
100
AcDbLine
 10
16.0447081976
 20
9.3244309199
 30
0.0
 11
16.0447081976
 21
7.3244309199
 31
0.0
  0
LINE
  5
107
330
1B
100
AcDbEntity
 67
     1
  8
0
  6
Continuous
 62
     1
370
    15
100
AcDbLine
 10
16.3078769132
 20
9.3244309199
 30
0.0
 11
16.0447081976
 21
9.3244309199
 31
0.0
  0
LINE
  5
108
330
1B
100
AcDbEntity
 67
     1
  8
0
  6
Continuous
 62
     1
370
    15
100
AcDbLine
 10
16.3078769132
 20
11.5744309199
 30
0.0
 11
16.3078769132
 21
9.3244309199
 31
0.0
  0
LINE
  5
109
330
1B
100
AcDbEntity
 67
     1
  8
0
  6
Continuous
 62
     1
370
    15
100
AcDbLine
 10
23.281539482
 20
11.5744309199
 30
0.0
 11
16.3078769132
 21
11.5744309199
 31
0.0
  0
LINE
  5
10A
330
1B
100
AcDbEntity
 67
     1
  8
0
  6
Continuous
 62
     1
370
    15
100
AcDbLine
 10
23.281539482
 20
11.5744309199
 30
0.0
 11
23.281539482
 21
9.3244309199
 31
0.0
  0
LINE
  5
10B
330
1B
100
AcDbEntity
 67
     1
  8
0
  6
Continuous
 62
     1
370
    15
100
AcDbLine
 10
23.281539482
 20
9.3244309199
 30
0.0
 11
23.5447081976
 21
9.3244309199
 31
0.0
  0
LINE
  5
10C
330
1B
100
AcDbEntity
 67
     1
  8
0
  6
Continuous
 62
     1
370
    15
100
AcDbLine
 10
23.5447081976
 20
9.3244309199
 30
0.0
 11
23.5447081976
 21
7.3244309199
 31
0.0
  0
LINE
  5
10D
330
1B
100
AcDbEntity
 67
     1
  8
0
  6
Continuous
 62
     1
370
    15
100
AcDbLine
 10
23.5447081976
 20
7.3244309199
 30
0.0
 11
23.281539482
 21
7.3244309199
 31
0.0
  0
LINE
  5
10E
330
1B
100
AcDbEntity
 67
     1
  8
0
  6
Continuous
 62
     1
370
    15
100
AcDbLine
 10
23.281539482
 20
7.3244309199
 30
0.0
 11
23.281539482
 21
5.3244309199
 31
0.0
  0
LINE
  5
10F
330
1B
100
AcDbEntity
 67
     1
  8
0
  6
Continuous
 62
     1
370
    15
100
AcDbLine
 10
23.281539482
 20
5.3244309199
 30
0.0
 11
20.7947081976
 21
5.3244309199
 31
0.0
  0
LINE
  5
110
330
1B
100
AcDbEntity
 67
     1
  8
0
  6
Continuous
 62
     1
370
    15
100
AcDbLine
 10
20.7947081976
 20
5.3244309199
 30
0.0
 11
20.7947081976
 21
5.0744309199
 31
0.0
  0
LINE
  5
111
330
1B
100
AcDbEntity
 67
     1
  8
0
  6
Continuous
 62
     1
370
    15
100
AcDbLine
 10
20.7947081976
 20
10.792963064
 30
0.0
 11
20.7947081976
 21
11.0427115929
 31
0.0
  0
LINE
  5
112
330
1B
100
AcDbEntity
 67
     1
  8
0
  6
Continuous
 62
     1
370
    15
100
AcDbLine
 10
20.7947081976
 20
11.0427115929
 30
0.0
 11
18.7947081976
 21
11.0427115929
 31
0.0
  0
LINE
  5
113
330
1B
100
AcDbEntity
 67
     1
  8
0
  6
Continuous
 62
     1
370
    15
100
AcDbLine
 10
18.7947081976
 20
11.0427115929
 30
0.0
 11
18.7947081976
 21
10.792963064
 31
0.0
  0
CIRCLE
  5
114
330
1B
100
AcDbEntity
 67
     1
  8
0
  6
Continuous
 62
     1
370
    15
100
AcDbCircle
 10
14.6266466781
 20
9.8978246092
 30
0.0
 40
0.0625000000000018
  0
CIRCLE
  5
115
330
1B
100
AcDbEntity
 67
     1
  8
0
  6
Continuous
 62
     1
370
    15
100
AcDbCircle
 10
9.6529841093
 20
9.8978246092
 30
0.0
 40
0.0625
  0
CIRCLE
  5
116
330
1B
100
AcDbEntity
 67
     1
  8
0
  6
Continuous
 62
     1
370
    15
100
AcDbCircle
 10
14.6266466781
 20
6.4292924652
 30
0.0
 40
0.0625
  0
CIRCLE
  5
117
330
1B
100
AcDbEntity
 67
     1
  8
0
  6
Continuous
 62
     1
370
    15
100
AcDbCircle
 10
9.6529841093
 20
6.4292924652
 30
0.0
 40
0.0625
  0
LINE
  5
118
330
1B
100
AcDbEntity
 67
     1
  8
0
  6
Continuous
 62
     1
370
    15
100
AcDbLine
 10
10.2919551175
 20
9.9018275991
 30
0.0
 11
11.3919487361
 21
9.1387549542
 31
0.0
  0
ARC
  5
119
330
1B
100
AcDbEntity
 67
     1
  8
0
  6
Continuous
 62
     1
370
    15
100
AcDbCircle
 10
11.6503891124
 20
9.5113050209
 30
0.0
 40
0.453414799383153
100
AcDbArc
 50
235.2507061376
 51
270.0
  0
LINE
  5
11A
330
1B
100
AcDbEntity
 67
     1
  8
0
  6
Continuous
 62
     1
370
    15
100
AcDbLine
 10
11.6503891124
 20
9.0578902215
 30
0.0
 11
12.629241675
 21
9.0578902215
 31
0.0
  0
ARC
  5
11B
330
1B
100
AcDbEntity
 67
     1
  8
0
  6
Continuous
 62
     1
370
    15
100
AcDbCircle
 10
12.629241675
 20
9.5113050209
 30
0.0
 40
0.453414799383153
100
AcDbArc
 50
270.0
 51
304.7492938624
  0
LINE
  5
11C
330
1B
100
AcDbEntity
 67
     1
  8
0
  6
Continuous
 62
     1
370
    15
100
AcDbLine
 10
12.8876820513
 20
9.1387549542
 30
0.0
 11
13.9876756699
 21
9.9018275991
 31
0.0
  0
ARC
  5
11D
330
1B
100
AcDbEntity
 67
     1
  8
0
  6
Continuous
 62
     1
370
    15
100
AcDbCircle
 10
13.7292352936
 20
10.2743776658
 30
0.0
 40
0.453414799383153
100
AcDbArc
 50
304.7492938624
 51
90.0
  0
LINE
  5
11E
330
1B
100
AcDbEntity
 67
     1
  8
0
  6
Continuous
 62
     1
370
    15
100
AcDbLine
 10
13.7292352936
 20
10.7277924652
 30
0.0
 11
10.5503954938
 21
10.7277924652
 31
0.0
  0
ARC
  5
11F
330
1B
100
AcDbEntity
 67
     1
  8
0
  6
Continuous
 62
     1
370
    15
100
AcDbCircle
 10
10.5503954938
 20
10.2743776658
 30
0.0
 40
0.453414799383154
100
AcDbArc
 50
90.0
 51
235.2507061376
  0
LINE
  5
120
330
1B
100
AcDbEntity
 67
     1
  8
0
  6
Continuous
 62
     1
370
    15
100
AcDbLine
 10
9.7954807683
 20
6.9936750451
 30
0.0
 11
10.2966366522
 21
7.3413301035
 31
0.0
  0
ARC
  5
121
330
1B
100
AcDbEntity
 67
     1
  8
0
  6
Continuous
 62
     1
370
    15
100
AcDbCircle
 10
10.1897641579
 20
7.4953902215
 30
0.0
 40
0.1875000000000005
100
AcDbArc
 50
304.7492938624
 51
90.0
  0
LINE
  5
122
330
1B
100
AcDbEntity
 67
     1
  8
0
  6
Continuous
 62
     1
370
    15
100
AcDbLine
 10
10.1897641579
 20
7.6828902215
 30
0.0
 11
9.5904841093
 21
7.6828902215
 31
0.0
  0
ARC
  5
123
330
1B
100
AcDbEntity
 67
     1
  8
0
  6
Continuous
 62
     1
370
    15
100
AcDbCircle
 10
9.5904841093
 20
7.4953902215
 30
0.0
 40
0.1875
100
AcDbArc
 50
90.0
 51
180.0
  0
LINE
  5
124
330
1B
100
AcDbEntity
 67
     1
  8
0
  6
Continuous
 62
     1
370
    15
100
AcDbLine
 10
9.4029841093
 20
7.4953902215
 30
0.0
 11
9.4029841093
 21
7.1990885358
 31
0.0
  0
ARC
  5
125
330
1B
100
AcDbEntity
 67
     1
  8
0
  6
Continuous
 62
     1
370
    15
100
AcDbCircle
 10
9.6529841093
 20
7.1990885358
 30
0.0
 40
0.2500000000000006
100
AcDbArc
 50
180.0
 51
304.7492938624
  0
LINE
  5
126
330
1B
100
AcDbEntity
 67
     1
  8
0
  6
Continuous
 62
     1
370
    15
100
AcDbLine
 10
13.6857951166
 20
6.6347059559
 30
0.0
 11
12.2823120527
 21
7.60831118
 31
0.0
  0
ARC
  5
127
330
1B
100
AcDbEntity
 67
     1
  8
0
  6
Continuous
 62
     1
370
    15
100
AcDbCircle
 10
12.1398153937
 20
7.4028976893
 30
0.0
 40
0.2500000000000006
100
AcDbArc
 50
55.2507061376
 51
124.7492938624
  0
LINE
  5
128
330
1B
100
AcDbEntity
 67
     1
  8
0
  6
Continuous
 62
     1
370
    15
100
AcDbLine
 10
11.9973187346
 20
7.60831118
 30
0.0
 11
10.5938356708
 21
6.6347059559
 31
0.0
  0
ARC
  5
129
330
1B
100
AcDbEntity
 67
     1
  8
0
  6
Continuous
 62
     1
370
    15
100
AcDbCircle
 10
10.7363323298
 20
6.4292924652
 30
0.0
 40
0.2500000000000013
100
AcDbArc
 50
124.7492938624
 51
270.0
  0
LINE
  5
12A
330
1B
100
AcDbEntity
 67
     1
  8
0
  6
Continuous
 62
     1
370
    15
100
AcDbLine
 10
10.7363323298
 20
6.1792924652
 30
0.0
 11
13.5432984575
 21
6.1792924652
 31
0.0
  0
ARC
  5
12B
330
1B
100
AcDbEntity
 67
     1
  8
0
  6
Continuous
 62
     1
370
    15
100
AcDbCircle
 10
13.5432984575
 20
6.4292924652
 30
0.0
 40
0.2500000000000009
100
AcDbArc
 50
270.0
 51
55.2507061376
  0
LINE
  5
12C
330
1B
100
AcDbEntity
 67
     1
  8
0
  6
Continuous
 62
     1
370
    15
100
AcDbLine
 10
14.8766466781
 20
7.1990885358
 30
0.0
 11
14.8766466781
 21
7.4953902215
 31
0.0
  0
ARC
  5
12D
330
1B
100
AcDbEntity
 67
     1
  8
0
  6
Continuous
 62
     1
370
    15
100
AcDbCircle
 10
14.6891466781
 20
7.4953902215
 30
0.0
 40
0.1875
100
AcDbArc
 50
0.0
 51
90.0
  0
LINE
  5
12E
330
1B
100
AcDbEntity
 67
     1
  8
0
  6
Continuous
 62
     1
370
    15
100
AcDbLine
 10
14.6891466781
 20
7.6828902215
 30
0.0
 11
14.0898666295
 21
7.6828902215
 31
0.0
  0
LINE
  5
12F
330
1B
100
AcDbEntity
 67
     1
  8
0
  6
Continuous
 62
     1
370
    15
100
AcDbLine
 10
13.9829941352
 20
7.3413301035
 30
0.0
 11
14.484150019
 21
6.9936750451
 31
0.0
  0
ARC
  5
130
330
1B
100
AcDbEntity
 67
     1
  8
0
  6
Continuous
 62
     1
370
    15
100
AcDbCircle
 10
14.6266466781
 20
7.1990885358
 30
0.0
 40
0.2500000000000006
100
AcDbArc
 50
235.2507061376
 51
0.0
  0
LINE
  5
131
330
1B
100
AcDbEntity
 67
     1
  8
0
  6
Continuous
 62
     1
370
    15
100
AcDbLine
 10
11.1398153937
 20
8.4328902215
 30
0.0
 11
13.1398153937
 21
8.4328902215
 31
0.0
  0
LINE
  5
132
330
1B
100
AcDbEntity
 67
     1
  8
0
  6
Continuous
 62
     1
370
    15
100
AcDbLine
 10
13.1398153937
 20
8.4328902215
 30
0.0
 11
13.1398153937
 21
8.5578902215
 31
0.0
  0
LINE
  5
133
330
1B
100
AcDbEntity
 67
     1
  8
0
  6
Continuous
 62
     1
370
    15
100
AcDbLine
 10
13.1398153937
 20
8.5578902215
 30
0.0
 11
11.1398153937
 21
8.5578902215
 31
0.0
  0
LINE
  5
134
330
1B
100
AcDbEntity
 67
     1
  8
0
  6
Continuous
 62
     1
370
    15
100
AcDbLine
 10
11.1398153937
 20
8.5578902215
 30
0.0
 11
11.1398153937
 21
8.4328902215
 31
0.0
  0
ARC
  5
135
330
1B
100
AcDbEntity
 67
     1
  8
0
  6
Continuous
 62
     1
370
    15
100
AcDbCircle
 10
14.0898666295
 20
7.4953902215
 30
0.0
 40
0.1875
100
AcDbArc
 50
90.0
 51
235.2507061376
  0
LINE
  5
136
330
1B
100
AcDbEntity
 67
     1
  8
0
  6
Continuous
 62
     1
370
    15
100
AcDbLine
 10
8.3898153937
 20
9.4292924652
 30
0.0
 11
8.3898153937
 21
7.4292924652
 31
0.0
  0
LINE
  5
137
330
1B
100
AcDbEntity
 67
     1
  8
0
  6
Continuous
 62
     1
370
    15
100
AcDbLine
 10
8.3898153937
 20
7.4292924652
 30
0.0
 11
8.5913153937
 21
7.4292924652
 31
0.0
  0
LINE
  5
138
330
1B
100
AcDbEntity
 67
     1
  8
0
  6
Continuous
 62
     1
370
    15
100
AcDbLine
 10
8.5913153937
 20
7.4292924652
 30
0.0
 11
8.5913153937
 21
5.3031039993
 31
0.0
  0
LINE
  5
139
330
1B
100
AcDbEntity
 67
     1
  8
0
  6
Continuous
 62
     1
370
    15
100
AcDbLine
 10
8.5913153937
 20
5.3031039993
 30
0.0
 11
11.1398153937
 21
5.3031039993
 31
0.0
  0
LINE
  5
13A
330
1B
100
AcDbEntity
 67
     1
  8
0
  6
Continuous
 62
     1
370
    15
100
AcDbLine
 10
11.1398153937
 20
5.3031039993
 30
0.0
 11
11.1398153937
 21
5.1792924652
 31
0.0
  0
LINE
  5
13B
330
1B
100
AcDbEntity
 67
     1
  8
0
  6
Continuous
 62
     1
370
    15
100
AcDbLine
 10
11.1398153937
 20
5.1792924652
 30
0.0
 11
13.1398153937
 21
5.1792924652
 31
0.0
  0
LINE
  5
13C
330
1B
100
AcDbEntity
 67
     1
  8
0
  6
Continuous
 62
     1
370
    15
100
AcDbLine
 10
13.1398153937
 20
5.1792924652
 30
0.0
 11
13.1398153937
 21
5.3031039993
 31
0.0
  0
LINE
  5
13D
330
1B
100
AcDbEntity
 67
     1
  8
0
  6
Continuous
 62
     1
370
    15
100
AcDbLine
 10
13.1398153937
 20
5.3031039993
 30
0.0
 11
15.6883153937
 21
5.3031039993
 31
0.0
  0
LINE
  5
13E
330
1B
100
AcDbEntity
 67
     1
  8
0
  6
Continuous
 62
     1
370
    15
100
AcDbLine
 10
15.6883153937
 20
5.3031039993
 30
0.0
 11
15.6883153937
 21
7.4292924652
 31
0.0
  0
LINE
  5
13F
330
1B
100
AcDbEntity
 67
     1
  8
0
  6
Continuous
 62
     1
370
    15
100
AcDbLine
 10
15.6883153937
 20
7.4292924652
 30
0.0
 11
15.8898153937
 21
7.4292924652
 31
0.0
  0
LINE
  5
140
330
1B
100
AcDbEntity
 67
     1
  8
0
  6
Continuous
 62
     1
370
    15
100
AcDbLine
 10
15.8898153937
 20
7.4292924652
 30
0.0
 11
15.8898153937
 21
9.4292924652
 31
0.0
  0
LINE
  5
141
330
1B
100
AcDbEntity
 67
     1
  8
0
  6
Continuous
 62
     1
370
    15
100
AcDbLine
 10
15.8898153937
 20
9.4292924652
 30
0.0
 11
15.6883153937
 21
9.4292924652
 31
0.0
  0
LINE
  5
142
330
1B
100
AcDbEntity
 67
     1
  8
0
  6
Continuous
 62
     1
370
    15
100
AcDbLine
 10
15.6883153937
 20
9.4292924652
 30
0.0
 11
15.6883153937
 21
11.4777924652
 31
0.0
  0
LINE
  5
143
330
1B
100
AcDbEntity
 67
     1
  8
0
  6
Continuous
 62
     1
370
    15
100
AcDbLine
 10
15.6883153937
 20
11.4777924652
 30
0.0
 11
13.1398153937
 21
11.4777924652
 31
0.0
  0
LINE
  5
144
330
1B
100
AcDbEntity
 67
     1
  8
0
  6
Continuous
 62
     1
370
    15
100
AcDbLine
 10
13.1398153937
 20
11.4777924652
 30
0.0
 11
13.1398153937
 21
11.6792924652
 31
0.0
  0
LINE
  5
145
330
1B
100
AcDbEntity
 67
     1
  8
0
  6
Continuous
 62
     1
370
    15
100
AcDbLine
 10
13.1398153937
 20
11.6792924652
 30
0.0
 11
11.1398153937
 21
11.6792924652
 31
0.0
  0
LINE
  5
146
330
1B
100
AcDbEntity
 67
     1
  8
0
  6
Continuous
 62
     1
370
    15
100
AcDbLine
 10
11.1398153937
 20
11.6792924652
 30
0.0
 11
11.1398153937
 21
11.4777924652
 31
0.0
  0
LINE
  5
147
330
1B
100
AcDbEntity
 67
     1
  8
0
  6
Continuous
 62
     1
370
    15
100
AcDbLine
 10
11.1398153937
 20
11.4777924652
 30
0.0
 11
8.5913153937
 21
11.4777924652
 31
0.0
  0
LINE
  5
148
330
1B
100
AcDbEntity
 67
     1
  8
0
  6
Continuous
 62
     1
370
    15
100
AcDbLine
 10
8.5913153937
 20
11.4777924652
 30
0.0
 11
8.5913153937
 21
9.4292924652
 31
0.0
  0
LINE
  5
149
330
1B
100
AcDbEntity
 67
     1
  8
0
  6
Continuous
 62
     1
370
    15
100
AcDbLine
 10
8.5913153937
 20
9.4292924652
 30
0.0
 11
8.3898153937
 21
9.4292924652
 31
0.0
  0
LINE
  5
14A
330
1B
100
AcDbEntity
 67
     1
  8
0
  6
Continuous
 62
     1
370
    15
100
AcDbLine
 10
3.2774245137
 20
2.4305678697
 30
0.0
 11
3.2774245137
 21
2.1673991541
 31
0.0
  0
LINE
  5
14B
330
1B
100
AcDbEntity
 67
     1
  8
0
  6
Continuous
 62
     1
370
    15
100
AcDbLine
 10
3.238942696
 20
5.4496849839
 30
0.0
 11
3.238942696
 21
5.6996849839
 31
0.0
  0
CIRCLE
  5
14C
330
1B
100
AcDbEntity
 67
     1
  8
0
  6
Continuous
 62
     1
370
    15
100
AcDbCircle
 10
4.7988754193
 20
3.7107957181
 30
0.0
 40
0.0624999999999996
  0
CIRCLE
  5
14D
330
1B
100
AcDbEntity
 67
     1
  8
0
  6
Continuous
 62
     1
370
    15
100
AcDbCircle
 10
4.7988754193
 20
5.4194571355
 30
0.0
 40
0.0624999999999991
  0
CIRCLE
  5
14E
330
1B
100
AcDbEntity
 67
     1
  8
0
  6
Continuous
 62
     1
370
    15
100
AcDbCircle
 10
5.6681667579
 20
5.4194571355
 30
0.0
 40
0.0624999999999991
  0
CIRCLE
  5
14F
330
1B
100
AcDbEntity
 67
     1
  8
0
  6
Continuous
 62
     1
370
    15
100
AcDbCircle
 10
5.6681667579
 20
3.7107957181
 30
0.0
 40
0.0624999999999996
  0
ARC
  5
150
330
1B
100
AcDbEntity
 67
     1
  8
0
  6
Continuous
 62
     1
370
    15
100
AcDbCircle
 10
2.988942696
 20
5.4496849839
 30
0.0
 40
0.25
100
AcDbArc
 50
180.0
 51
0.0
  0
LINE
  5
151
330
1B
100
AcDbEntity
 67
     1
  8
0
  6
Continuous
 62
     1
370
    15
100
AcDbLine
 10
2.738942696
 20
5.4496849839
 30
0.0
 11
2.738942696
 21
5.6996849839
 31
0.0
  0
ARC
  5
152
330
1B
100
AcDbEntity
 67
     1
  8
0
  6
Continuous
 62
     1
370
    15
100
AcDbCircle
 10
2.988942696
 20
5.6996849839
 30
0.0
 40
0.25
100
AcDbArc
 50
0.0
 51
180.0
  0
LINE
  5
153
330
1B
100
AcDbEntity
 67
     1
  8
0
  6
Continuous
 62
     1
370
    15
100
AcDbLine
 10
3.2774245137
 20
2.1673991541
 30
0.0
 11
5.2774245137
 21
2.1673991541
 31
0.0
  0
LINE
  5
154
330
1B
100
AcDbEntity
 67
     1
  8
0
  6
Continuous
 62
     1
370
    15
100
AcDbLine
 10
5.2774245137
 20
2.4305678697
 30
0.0
 11
5.2774245137
 21
2.1673991541
 31
0.0
  0
LINE
  5
155
330
1B
100
AcDbEntity
 67
     1
  8
0
  6
Continuous
 62
     1
370
    15
100
AcDbLine
 10
6.7842553051
 20
2.4322330643
 30
0.0
 11
5.2774245137
 21
2.4305678697
 31
0.0
  0
LINE
  5
156
330
1B
100
AcDbEntity
 67
     1
  8
0
  6
Continuous
 62
     1
370
    15
100
AcDbLine
 10
6.7842553051
 20
3.5651264268
 30
0.0
 11
6.7842553051
 21
2.4322330643
 31
0.0
  0
LINE
  5
157
330
1B
100
AcDbEntity
 67
     1
  8
0
  6
Continuous
 62
     1
370
    15
100
AcDbLine
 10
6.7842553051
 20
3.5651264268
 30
0.0
 11
7.0342553051
 21
3.5651264268
 31
0.0
  0
LINE
  5
158
330
1B
100
AcDbEntity
 67
     1
  8
0
  6
Continuous
 62
     1
370
    15
100
AcDbLine
 10
7.0342553051
 20
5.5651264268
 30
0.0
 11
7.0342553051
 21
3.5651264268
 31
0.0
  0
LINE
  5
159
330
1B
100
AcDbEntity
 67
     1
  8
0
  6
Continuous
 62
     1
370
    15
100
AcDbLine
 10
6.7842553051
 20
5.5651264268
 30
0.0
 11
7.0342553051
 21
5.5651264268
 31
0.0
  0
LINE
  5
15A
330
1B
100
AcDbEntity
 67
     1
  8
0
  6
Continuous
 62
     1
370
    15
100
AcDbLine
 10
6.7842553051
 20
6.6980197893
 30
0.0
 11
6.7842553051
 21
5.5651264268
 31
0.0
  0
LINE
  5
15B
330
1B
100
AcDbEntity
 67
     1
  8
0
  6
Continuous
 62
     1
370
    15
100
AcDbLine
 10
6.7842553051
 20
6.6980197893
 30
0.0
 11
5.2774245137
 21
6.6980197893
 31
0.0
  0
LINE
  5
15C
330
1B
100
AcDbEntity
 67
     1
  8
0
  6
Continuous
 62
     1
370
    15
100
AcDbLine
 10
5.2774245137
 20
6.6980197893
 30
0.0
 11
5.2774245137
 21
6.9628536995
 31
0.0
  0
LINE
  5
15D
330
1B
100
AcDbEntity
 67
     1
  8
0
  6
Continuous
 62
     1
370
    15
100
AcDbLine
 10
5.2774245137
 20
6.9628536995
 30
0.0
 11
3.2774245137
 21
6.9628536995
 31
0.0
  0
LINE
  5
15E
330
1B
100
AcDbEntity
 67
     1
  8
0
  6
Continuous
 62
     1
370
    15
100
AcDbLine
 10
3.2774245137
 20
6.6980261139
 30
0.0
 11
3.2774245137
 21
6.9628536995
 31
0.0
  0
LINE
  5
15F
330
1B
100
AcDbEntity
 67
     1
  8
0
  6
Continuous
 62
     1
370
    15
100
AcDbLine
 10
1.9265072121
 20
6.6980261139
 30
0.0
 11
3.2774245137
 21
6.6980261139
 31
0.0
  0
LINE
  5
160
330
1B
100
AcDbEntity
 67
     1
  8
0
  6
Continuous
 62
     1
370
    15
100
AcDbLine
 10
1.9265072121
 20
5.5651264268
 30
0.0
 11
1.9265072121
 21
6.6980261139
 31
0.0
  0
LINE
  5
161
330
1B
100
AcDbEntity
 67
     1
  8
0
  6
Continuous
 62
     1
370
    15
100
AcDbLine
 10
1.9265072121
 20
5.5651264268
 30
0.0
 11
1.7257739804
 21
5.5651264268
 31
0.0
  0
LINE
  5
162
330
1B
100
AcDbEntity
 67
     1
  8
0
  6
Continuous
 62
     1
370
    15
100
AcDbLine
 10
1.7257739804
 20
5.5651264268
 30
0.0
 11
1.7257739804
 21
3.5651264268
 31
0.0
  0
LINE
  5
163
330
1B
100
AcDbEntity
 67
     1
  8
0
  6
Continuous
 62
     1
370
    15
100
AcDbLine
 10
1.9265072121
 20
3.5651264268
 30
0.0
 11
1.7257739804
 21
3.5651264268
 31
0.0
  0
LINE
  5
164
330
1B
100
AcDbEntity
 67
     1
  8
0
  6
Continuous
 62
     1
370
    15
100
AcDbLine
 10
1.9265072121
 20
2.4322267397
 30
0.0
 11
1.9265072121
 21
3.5651264268
 31
0.0
  0
LINE
  5
165
330
1B
100
AcDbEntity
 67
     1
  8
0
  6
Continuous
 62
     1
370
    15
100
AcDbLine
 10
1.9265072121
 20
2.4322267397
 30
0.0
 11
3.2774245137
 21
2.4305678697
 31
0.0
  0
ENDSEC
  0
SECTION
  2
OBJECTS
  0
DICTIONARY
  5
C
330
0
100
AcDbDictionary
281
     1
  3
ACAD_GROUP
350
D
  3
ACAD_LAYOUT
350
1A
  3
ACAD_MLINESTYLE
350
17
  3
ACAD_PLOTSETTINGS
350
19
  3
ACAD_PLOTSTYLENAME
350
E
  3
ACAD_SCALELIST
350
47
  0
DICTIONARY
  5
D
102
{ACAD_REACTORS
330
C
102
}
330
C
100
AcDbDictionary
281
     1
  0
DICTIONARY
  5
1A
102
{ACAD_REACTORS
330
C
102
}
330
C
100
AcDbDictionary
281
     1
  3
Model
350
22
  3
Sheet2
350
1E
  3
Sheet3
350
26
  3
Sheet4
350
1C1
  3
Sheet5
350
21D
  3
Sheet6
350
2A1
  0
DICTIONARY
  5
17
102
{ACAD_REACTORS
330
C
102
}
330
C
100
AcDbDictionary
281
     1
  3
Standard
350
18
  0
DICTIONARY
  5
19
102
{ACAD_REACTORS
330
C
102
}
330
C
100
AcDbDictionary
281
     1
  0
ACDBDICTIONARYWDFLT
  5
E
102
{ACAD_REACTORS
330
C
102
}
330
C
100
AcDbDictionary
281
     1
  3
Normal
350
F
100
AcDbDictionaryWithDefault
340
F
  0
DICTIONARY
  5
47
102
{ACAD_REACTORS
330
C
102
}
330
C
100
AcDbDictionary
281
     1
  3
A0
350
48
  3
A1
350
49
  3
A2
350
4A
  3
A3
350
4B
  3
A4
350
4C
  3
A5
350
4D
  3
A6
350
4E
  3
A7
350
4F
  3
A8
350
50
  3
A9
350
51
  3
B0
350
52
  3
B1
350
53
  3
B2
350
54
  3
B3
350
55
  3
B4
350
56
  3
B5
350
57
  3
B6
350
58
  3
B7
350
59
  3
B8
350
5A
  3
B9
350
5B
  3
C0
350
5C
  3
C1
350
5D
  3
C2
350
5E
  3
C3
350
5F
  3
C4
350
60
  3
C5
350
61
  3
C6
350
62
  3
C7
350
63
  3
C8
350
64
  3
C9
350
65
  3
D0
350
66
  3
D1
350
67
  3
D2
350
68
  0
LAYOUT
  5
22
102
{ACAD_REACTORS
330
1A
102
}
330
1A
100
AcDbPlotSettings
  1

  2
none_device
  4
Letter_(8.50_x_11.00_Inches)
  6

 40
6.35
 41
6.35
 42
6.35000508
 43
6.35000508
 44
215.9
 45
279.4
 46
0.0
 47
0.0
 48
0.0
 49
0.0
140
0.0
141
0.0
142
1.0
143
1.0
 70
  1712
 72
     0
 73
     0
 74
     0
  7

 75
     0
147
1.0
148
0.0
149
0.0
100
AcDbLayout
  1
Model
 70
     1
 71
     0
 10
0.0
 20
0.0
 11
24.0
 21
12.0
 12
0.0
 22
0.0
 32
0.0
 14
0.0
 24
0.0
 34
0.0
 15
24.0
 25
12.0
 35
0.0
146
0.0
 13
0.0
 23
0.0
 33
0.0
 16
1.0
 26
0.0
 36
0.0
 17
0.0
 27
1.0
 37
0.0
 76
     0
330
1F
331
29
  0
LAYOUT
  5
1E
102
{ACAD_REACTORS
330
1A
102
}
330
1A
100
AcDbPlotSettings
  1

  2
none_device
  4
ANSI_D_(34.00_x_22.00_Inches)
  6

 40
6.35
 41
19.05
 42
6.3499746
 43
19.0499873
 44
863.6
 45
558.8
 46
0.0
 47
0.0
 48
0.0
 49
0.0
140
0.0
141
0.0
142
1.0
143
1.0
 70
  4832
 72
     0
 73
     0
 74
     1
  7

 75
     0
147
1.0
148
0.0
149
0.0
100
AcDbLayout
  1
Sheet2
 70
     1
 71
     1
 10
0.0
 20
0.0
 11
24.0
 21
12.0
 12
0.0
 22
0.0
 32
0.0
 14
0.0
 24
0.0
 34
0.0
 15
24.0
 25
12.0
 35
0.0
146
0.0
 13
0.0
 23
0.0
 33
0.0
 16
1.0
 26
0.0
 36
0.0
 17
0.0
 27
1.0
 37
0.0
 76
     0
330
1B
  0
LAYOUT
  5
26
102
{ACAD_REACTORS
330
1A
102
}
330
1A
100
AcDbPlotSettings
  1

  2
none_device
  4
ANSI_D_(34.00_x_22.00_Inches)
  6

 40
6.35
 41
19.05
 42
6.3499746
 43
19.0499873
 44
863.6
 45
558.8
 46
0.0
 47
0.0
 48
0.0
 49
0.0
140
0.0
141
0.0
142
1.0
143
1.0
 70
  4832
 72
     0
 73
     0
 74
     1
  7

 75
    16
147
1.0
148
0.0
149
0.0
100
AcDbLayout
  1
Sheet3
 70
     1
 71
     2
 10
0.0
 20
0.0
 11
24.0
 21
12.0
 12
0.0
 22
0.0
 32
0.0
 14
0.0
 24
0.0
 34
0.0
 15
24.0
 25
12.0
 35
0.0
146
0.0
 13
0.0
 23
0.0
 33
0.0
 16
1.0
 26
0.0
 36
0.0
 17
0.0
 27
1.0
 37
0.0
 76
     0
330
23
  0
LAYOUT
  5
1C1
102
{ACAD_REACTORS
330
1A
102
}
330
1A
100
AcDbPlotSettings
  1

  2
none_device
  4
ANSI_D_(34.00_x_22.00_Inches)
  6

 40
6.35
 41
19.05
 42
6.3499746
 43
19.0499873
 44
863.6
 45
558.8
 46
0.0
 47
0.0
 48
0.0
 49
0.0
140
0.0
141
0.0
142
1.0
143
1.0
 70
  4832
 72
     0
 73
     0
 74
     1
  7

 75
    16
147
1.0
148
0.0
149
0.0
100
AcDbLayout
  1
Sheet4
 70
     1
 71
     3
 10
0.0
 20
0.0
 11
24.0
 21
12.0
 12
0.0
 22
0.0
 32
0.0
 14
0.0
 24
0.0
 34
0.0
 15
24.0
 25
12.0
 35
0.0
146
0.0
 13
0.0
 23
0.0
 33
0.0
 16
1.0
 26
0.0
 36
0.0
 17
0.0
 27
1.0
 37
0.0
 76
     0
330
1C0
  0
LAYOUT
  5
21D
102
{ACAD_REACTORS
330
1A
102
}
330
1A
100
AcDbPlotSettings
  1

  2
none_device
  4
ANSI_D_(34.00_x_22.00_Inches)
  6

 40
6.35
 41
19.05
 42
6.3499746
 43
19.0499873
 44
863.6
 45
558.8
 46
0.0
 47
0.0
 48
0.0
 49
0.0
140
0.0
141
0.0
142
1.0
143
1.0
 70
  4832
 72
     0
 73
     0
 74
     1
  7

 75
    16
147
1.0
148
0.0
149
0.0
100
AcDbLayout
  1
Sheet5
 70
     1
 71
     4
 10
0.0
 20
0.0
 11
24.0
 21
12.0
 12
0.0
 22
0.0
 32
0.0
 14
0.0
 24
0.0
 34
0.0
 15
24.0
 25
12.0
 35
0.0
146
0.0
 13
0.0
 23
0.0
 33
0.0
 16
1.0
 26
0.0
 36
0.0
 17
0.0
 27
1.0
 37
0.0
 76
     0
330
21C
  0
LAYOUT
  5
2A1
102
{ACAD_REACTORS
330
1A
102
}
330
1A
100
AcDbPlotSettings
  1

  2
none_device
  4
ANSI_D_(34.00_x_22.00_Inches)
  6

 40
6.35
 41
19.05
 42
6.3499746
 43
19.0499873
 44
863.6
 45
558.8
 46
0.0
 47
0.0
 48
0.0
 49
0.0
140
0.0
141
0.0
142
1.0
143
1.0
 70
  4832
 72
     0
 73
     0
 74
     1
  7

 75
    16
147
1.0
148
0.0
149
0.0
100
AcDbLayout
  1
Sheet6
 70
     1
 71
     5
 10
0.0
 20
0.0
 11
24.0
 21
12.0
 12
0.0
 22
0.0
 32
0.0
 14
0.0
 24
0.0
 34
0.0
 15
24.0
 25
12.0
 35
0.0
146
0.0
 13
0.0
 23
0.0
 33
0.0
 16
1.0
 26
0.0
 36
0.0
 17
0.0
 27
1.0
 37
0.0
 76
     0
330
2A0
  0
MLINESTYLE
  5
18
102
{ACAD_REACTORS
330
17
102
}
330
17
100
AcDbMlineStyle
  2
Standard
 70
     0
  3

 62
   256
 51
90.0
 52
90.0
 71
     2
 49
0.5
 62
   256
  6
BYLAYER
 49
-0.5
 62
   256
  6
BYLAYER
  0
ACDBPLACEHOLDER
  5
F
102
{ACAD_REACTORS
330
E
102
}
330
E
  0
SCALE
  5
48
102
{ACAD_REACTORS
330
47
102
}
330
47
100
AcDbScale
 70
     0
300
1:1
140
1.0
141
1.0
290
     1
  0
SCALE
  5
49
102
{ACAD_REACTORS
330
47
102
}
330
47
100
AcDbScale
 70
     0
300
1:2
140
1.0
141
2.0
290
     0
  0
SCALE
  5
4A
102
{ACAD_REACTORS
330
47
102
}
330
47
100
AcDbScale
 70
     0
300
1:4
140
1.0
141
4.0
290
     0
  0
SCALE
  5
4B
102
{ACAD_REACTORS
330
47
102
}
330
47
100
AcDbScale
 70
     0
300
1:5
140
1.0
141
5.0
290
     0
  0
SCALE
  5
4C
102
{ACAD_REACTORS
330
47
102
}
330
47
100
AcDbScale
 70
     0
300
1:8
140
1.0
141
8.0
290
     0
  0
SCALE
  5
4D
102
{ACAD_REACTORS
330
47
102
}
330
47
100
AcDbScale
 70
     0
300
1:10
140
1.0
141
10.0
290
     0
  0
SCALE
  5
4E
102
{ACAD_REACTORS
330
47
102
}
330
47
100
AcDbScale
 70
     0
300
1:16
140
1.0
141
16.0
290
     0
  0
SCALE
  5
4F
102
{ACAD_REACTORS
330
47
102
}
330
47
100
AcDbScale
 70
     0
300
1:20
140
1.0
141
20.0
290
     0
  0
SCALE
  5
50
102
{ACAD_REACTORS
330
47
102
}
330
47
100
AcDbScale
 70
     0
300
1:30
140
1.0
141
30.0
290
     0
  0
SCALE
  5
51
102
{ACAD_REACTORS
330
47
102
}
330
47
100
AcDbScale
 70
     0
300
1:40
140
1.0
141
40.0
290
     0
  0
SCALE
  5
52
102
{ACAD_REACTORS
330
47
102
}
330
47
100
AcDbScale
 70
     0
300
1:50
140
1.0
141
50.0
290
     0
  0
SCALE
  5
53
102
{ACAD_REACTORS
330
47
102
}
330
47
100
AcDbScale
 70
     0
300
1:100
140
1.0
141
100.0
290
     0
  0
SCALE
  5
54
102
{ACAD_REACTORS
330
47
102
}
330
47
100
AcDbScale
 70
     0
300
2:1
140
2.0
141
1.0
290
     0
  0
SCALE
  5
55
102
{ACAD_REACTORS
330
47
102
}
330
47
100
AcDbScale
 70
     0
300
4:1
140
4.0
141
1.0
290
     0
  0
SCALE
  5
56
102
{ACAD_REACTORS
330
47
102
}
330
47
100
AcDbScale
 70
     0
300
8:1
140
8.0
141
1.0
290
     0
  0
SCALE
  5
57
102
{ACAD_REACTORS
330
47
102
}
330
47
100
AcDbScale
 70
     0
300
10:1
140
10.0
141
1.0
290
     0
  0
SCALE
  5
58
102
{ACAD_REACTORS
330
47
102
}
330
47
100
AcDbScale
 70
     0
300
100:1
140
100.0
141
1.0
290
     0
  0
SCALE
  5
59
102
{ACAD_REACTORS
330
47
102
}
330
47
100
AcDbScale
 70
     0
300
1/128" = 1'-0"
140
0.0078125
141
12.0
290
     0
  0
SCALE
  5
5A
102
{ACAD_REACTORS
330
47
102
}
330
47
100
AcDbScale
 70
     0
300
1/64" = 1'-0"
140
0.015625
141
12.0
290
     0
  0
SCALE
  5
5B
102
{ACAD_REACTORS
330
47
102
}
330
47
100
AcDbScale
 70
     0
300
1/32" = 1'-0"
140
0.03125
141
12.0
290
     0
  0
SCALE
  5
5C
102
{ACAD_REACTORS
330
47
102
}
330
47
100
AcDbScale
 70
     0
300
1/16" = 1'-0"
140
0.0625
141
12.0
290
     0
  0
SCALE
  5
5D
102
{ACAD_REACTORS
330
47
102
}
330
47
100
AcDbScale
 70
     0
300
3/32" = 1'-0"
140
0.09375
141
12.0
290
     0
  0
SCALE
  5
5E
102
{ACAD_REACTORS
330
47
102
}
330
47
100
AcDbScale
 70
     0
300
1/8" = 1'-0"
140
0.125
141
12.0
290
     0
  0
SCALE
  5
5F
102
{ACAD_REACTORS
330
47
102
}
330
47
100
AcDbScale
 70
     0
300
3/16" = 1'-0"
140
0.1875
141
12.0
290
     0
  0
SCALE
  5
60
102
{ACAD_REACTORS
330
47
102
}
330
47
100
AcDbScale
 70
     0
300
1/4" = 1'-0"
140
0.25
141
12.0
290
     0
  0
SCALE
  5
61
102
{ACAD_REACTORS
330
47
102
}
330
47
100
AcDbScale
 70
     0
300
3/8" = 1'-0"
140
0.375
141
12.0
290
     0
  0
SCALE
  5
62
102
{ACAD_REACTORS
330
47
102
}
330
47
100
AcDbScale
 70
     0
300
1/2" = 1'-0"
140
0.5
141
12.0
290
     0
  0
SCALE
  5
63
102
{ACAD_REACTORS
330
47
102
}
330
47
100
AcDbScale
 70
     0
300
3/4" = 1'-0"
140
0.75
141
12.0
290
     0
  0
SCALE
  5
64
102
{ACAD_REACTORS
330
47
102
}
330
47
100
AcDbScale
 70
     0
300
1" = 1'-0"
140
1.0
141
12.0
290
     0
  0
SCALE
  5
65
102
{ACAD_REACTORS
330
47
102
}
330
47
100
AcDbScale
 70
     0
300
1-1/2" = 1'-0"
140
1.5
141
12.0
290
     0
  0
SCALE
  5
66
102
{ACAD_REACTORS
330
47
102
}
330
47
100
AcDbScale
 70
     0
300
3" = 1'-0"
140
3.0
141
12.0
290
     0
  0
SCALE
  5
67
102
{ACAD_REACTORS
330
47
102
}
330
47
100
AcDbScale
 70
     0
300
6" = 1'-0"
140
6.0
141
12.0
290
     0
  0
SCALE
  5
68
102
{ACAD_REACTORS
330
47
102
}
330
47
100
AcDbScale
 70
     0
300
1'-0" = 1'-0"
140
12.0
141
12.0
290
     0
  0
ENDSEC
  0
EOF
