  0
SECTION
  2
HEADER
  9
$ACADVER
  1
AC1015
  9
$ACADMAINTVER
 70
     6
  9
$DWGCODEPAGE
  3
ANSI_1252
  9
$INSBASE
 10
0.0
 20
0.0
 30
0.0
  9
$EXTMIN
 10
0.0
 20
0.0
 30
0.0
  9
$EXTMAX
 10
24.0
 20
9.0
 30
0.0
  9
$LIMMIN
 10
0.0
 20
0.0
  9
$LIMMAX
 10
24.0
 20
9.0
  9
$ORTHOMODE
 70
     0
  9
$REGENMODE
 70
     1
  9
$FILLMODE
 70
     1
  9
$QTEXTMODE
 70
     0
  9
$MIRRTEXT
 70
     1
  9
$LTSCALE
 40
1.0
  9
$ATTMODE
 70
     1
  9
$TEXTSIZE
 40
0.1377952756
  9
$TRACEWID
 40
0.05
  9
$TEXTSTYLE
  7
Standard
  9
$CLAYER
  8
0
  9
$CELTYPE
  6
ByLayer
  9
$CECOLOR
 62
   256
  9
$CELTSCALE
 40
1.0
  9
$DISPSILH
 70
     0
  9
$DIMSCALE
 40
1.0
  9
$DIMASZ
 40
0.13
  9
$DIMEXO
 40
0.0393700787
  9
$DIMDLI
 40
0.38
  9
$DIMRND
 40
0.0
  9
$DIMDLE
 40
0.0
  9
$DIMEXE
 40
0.0393700787
  9
$DIMTP
 40
0.0
  9
$DIMTM
 40
0.0
  9
$DIMTXT
 40
0.1377952756
  9
$DIMCEN
 40
0.09
  9
$DIMTSZ
 40
0.0
  9
$DIMTOL
 70
     0
  9
$DIMLIM
 70
     0
  9
$DIMTIH
 70
     1
  9
$DIMTOH
 70
     1
  9
$DIMSE1
 70
     0
  9
$DIMSE2
 70
     0
  9
$DIMTAD
 70
     1
  9
$DIMZIN
 70
     0
  9
$DIMBLK
  1

  9
$DIMASO
 70
     1
  9
$DIMSHO
 70
     1
  9
$DIMPOST
  1

  9
$DIMAPOST
  1

  9
$DIMALT
 70
     0
  9
$DIMALTD
 70
     2
  9
$DIMALTF
 40
25.4
  9
$DIMLFAC
 40
2.0
  9
$DIMTOFL
 70
     0
  9
$DIMTVP
 40
0.0
  9
$DIMTIX
 70
     0
  9
$DIMSOXD
 70
     0
  9
$DIMSAH
 70
     0
  9
$DIMBLK1
  1

  9
$DIMBLK2
  1

  9
$DIMSTYLE
  2
Standard
  9
$DIMCLRD
 70
     0
  9
$DIMCLRE
 70
     0
  9
$DIMCLRT
 70
     0
  9
$DIMTFAC
 40
1.0
  9
$DIMGAP
 40
0.06
  9
$DIMJUST
 70
     0
  9
$DIMSD1
 70
     0
  9
$DIMSD2
 70
     0
  9
$DIMTOLJ
 70
     1
  9
$DIMTZIN
 70
     0
  9
$DIMALTZ
 70
     0
  9
$DIMALTTZ
 70
     0
  9
$DIMUPT
 70
     0
  9
$DIMDEC
 70
     2
  9
$DIMTDEC
 70
     2
  9
$DIMALTU
 70
     2
  9
$DIMALTTD
 70
     2
  9
$DIMTXSTY
  7
Standard
  9
$DIMAUNIT
 70
     0
  9
$DIMADEC
 70
     2
  9
$DIMALTRND
 40
0.0
  9
$DIMAZIN
 70
     0
  9
$DIMDSEP
 70
    46
  9
$DIMATFIT
 70
     3
  9
$DIMFRAC
 70
     0
  9
$DIMLDRBLK
  1

  9
$DIMLUNIT
 70
     2
  9
$DIMLWD
 70
    -2
  9
$DIMLWE
 70
    -2
  9
$DIMTMOVE
 70
     0
  9
$LUNITS
 70
     2
  9
$LUPREC
 70
     2
  9
$SKETCHINC
 40
0.1
  9
$FILLETRAD
 40
0.5
  9
$AUNITS
 70
     0
  9
$AUPREC
 70
     2
  9
$MENU
  1
.
  9
$ELEVATION
 40
0.0
  9
$PELEVATION
 40
0.0
  9
$THICKNESS
 40
0.0
  9
$LIMCHECK
 70
     0
  9
$CHAMFERA
 40
0.0
  9
$CHAMFERB
 40
0.0
  9
$CHAMFERC
 40
0.0
  9
$CHAMFERD
 40
0.0
  9
$SKPOLY
 70
     0
  9
$TDCREATE
 40
2457122.722035718
  9
$TDUCREATE
 40
2457122.888702384
  9
$TDUPDATE
 40
2457122.722041111
  9
$TDUUPDATE
 40
2457122.888707778
  9
$TDINDWG
 40
0.0000000116
  9
$TDUSRTIMER
 40
0.0000000116
  9
$USRTIMER
 70
     1
  9
$ANGBASE
 50
0.0
  9
$ANGDIR
 70
     0
  9
$PDMODE
 70
     0
  9
$PDSIZE
 40
-1.0
  9
$PLINEWID
 40
0.0
  9
$SPLFRAME
 70
     0
  9
$SPLINETYPE
 70
     6
  9
$SPLINESEGS
 70
     8
  9
$HANDSEED
  5
1FA
  9
$SURFTAB1
 70
     6
  9
$SURFTAB2
 70
     6
  9
$SURFTYPE
 70
     6
  9
$SURFU
 70
     6
  9
$SURFV
 70
     6
  9
$UCSBASE
  2

  9
$UCSNAME
  2

  9
$UCSORG
 10
0.0
 20
0.0
 30
0.0
  9
$UCSXDIR
 10
1.0
 20
0.0
 30
0.0
  9
$UCSYDIR
 10
0.0
 20
1.0
 30
0.0
  9
$UCSORTHOREF
  2

  9
$UCSORTHOVIEW
 70
     0
  9
$UCSORGTOP
 10
0.0
 20
0.0
 30
0.0
  9
$UCSORGBOTTOM
 10
0.0
 20
0.0
 30
0.0
  9
$UCSORGLEFT
 10
0.0
 20
0.0
 30
0.0
  9
$UCSORGRIGHT
 10
0.0
 20
0.0
 30
0.0
  9
$UCSORGFRONT
 10
0.0
 20
0.0
 30
0.0
  9
$UCSORGBACK
 10
0.0
 20
0.0
 30
0.0
  9
$PUCSBASE
  2

  9
$PUCSNAME
  2

  9
$PUCSORG
 10
0.0
 20
0.0
 30
0.0
  9
$PUCSXDIR
 10
1.0
 20
0.0
 30
0.0
  9
$PUCSYDIR
 10
0.0
 20
1.0
 30
0.0
  9
$PUCSORTHOREF
  2

  9
$PUCSORTHOVIEW
 70
     0
  9
$PUCSORGTOP
 10
0.0
 20
0.0
 30
0.0
  9
$PUCSORGBOTTOM
 10
0.0
 20
0.0
 30
0.0
  9
$PUCSORGLEFT
 10
0.0
 20
0.0
 30
0.0
  9
$PUCSORGRIGHT
 10
0.0
 20
0.0
 30
0.0
  9
$PUCSORGFRONT
 10
0.0
 20
0.0
 30
0.0
  9
$PUCSORGBACK
 10
0.0
 20
0.0
 30
0.0
  9
$USERI1
 70
     0
  9
$USERI2
 70
     0
  9
$USERI3
 70
     0
  9
$USERI4
 70
     0
  9
$USERI5
 70
     0
  9
$USERR1
 40
0.0
  9
$USERR2
 40
0.0
  9
$USERR3
 40
0.0
  9
$USERR4
 40
0.0
  9
$USERR5
 40
0.0
  9
$WORLDVIEW
 70
     1
  9
$SHADEDGE
 70
     3
  9
$SHADEDIF
 70
    70
  9
$TILEMODE
 70
     1
  9
$MAXACTVP
 70
    64
  9
$PINSBASE
 10
0.0
 20
0.0
 30
0.0
  9
$PLIMCHECK
 70
     0
  9
$PEXTMIN
 10
0.0
 20
0.0
 30
0.0
  9
$PEXTMAX
 10
24.0
 20
9.0
 30
0.0
  9
$PLIMMIN
 10
0.0
 20
0.0
  9
$PLIMMAX
 10
24.0
 20
9.0
  9
$UNITMODE
 70
     0
  9
$VISRETAIN
 70
     1
  9
$PLINEGEN
 70
     0
  9
$PSLTSCALE
 70
     1
  9
$TREEDEPTH
 70
  3020
  9
$CMLSTYLE
  2
Standard
  9
$CMLJUST
 70
     0
  9
$CMLSCALE
 40
1.0
  9
$PROXYGRAPHICS
 70
     1
  9
$MEASUREMENT
 70
     0
  9
$CELWEIGHT
370
    -1
  9
$ENDCAPS
280
     0
  9
$JOINSTYLE
280
     0
  9
$LWDISPLAY
290
     1
  9
$INSUNITS
 70
     1
  9
$HYPERLINKBASE
  1

  9
$STYLESHEET
  1

  9
$XEDIT
290
     1
  9
$CEPSNTYPE
380
     0
  9
$PSTYLEMODE
290
     1
  9
$FINGERPRINTGUID
  2
{E6BC09A7-9D9D-45A2-B591-C4E98ACFDF92}
  9
$VERSIONGUID
  2
{FAEB1C32-E019-11D5-929B-00C0DF256EC4}
  9
$EXTNAMES
290
     1
  9
$PSVPSCALE
 40
0.0
  9
$OLESTARTUP
290
     0
  0
ENDSEC
  0
SECTION
  2
CLASSES
  0
CLASS
  1
ACDBDICTIONARYWDFLT
  2
AcDbDictionaryWithDefault
  3
ObjectDBX Classes
 90
        0
280
     0
281
     0
  0
CLASS
  1
VISUALSTYLE
  2
AcDbVisualStyle
  3
ObjectDBX Classes
 90
     4095
280
     0
281
     0
  0
CLASS
  1
MATERIAL
  2
AcDbMaterial
  3
ObjectDBX Classes
 90
     1153
280
     0
281
     0
  0
CLASS
  1
SCALE
  2
AcDbScale
  3
ObjectDBX Classes
 90
     1153
280
     0
281
     0
  0
CLASS
  1
SUN
  2
AcDbSun
  3
SCENEOE
 90
     1153
280
     0
281
     0
  0
CLASS
  1
ACDBPLACEHOLDER
  2
AcDbPlaceHolder
  3
ObjectDBX Classes
 90
        0
280
     0
281
     0
  0
CLASS
  1
LAYOUT
  2
AcDbLayout
  3
ObjectDBX Classes
 90
        0
280
     0
281
     0
  0
ENDSEC
  0
SECTION
  2
TABLES
  0
TABLE
  2
VPORT
  5
8
330
0
100
AcDbSymbolTable
 70
     1
  0
VPORT
  5
29
330
8
100
AcDbSymbolTableRecord
100
AcDbViewportTableRecord
  2
*Active
 70
     0
 10
0.0
 20
0.0
 11
1.0
 21
1.0
 12
12.0
 22
4.5
 13
0.0
 23
0.0
 14
0.5
 24
0.5
 15
0.5
 25
0.5
 16
0.0
 26
0.0
 36
1.0
 17
0.0
 27
0.0
 37
0.0
 40
9.0
 41
2.6666666667
 42
50.0
 43
0.0
 44
0.0
 50
0.0
 51
0.0
 71
     0
 72
  2000
 73
     1
 74
     3
 75
     0
 76
     0
 77
     0
 78
     0
281
     0
 65
     1
110
0.0
120
0.0
130
0.0
111
1.0
121
0.0
131
0.0
112
0.0
122
1.0
132
0.0
 79
     0
146
0.0
  0
ENDTAB
  0
TABLE
  2
LTYPE
  5
5
330
0
100
AcDbSymbolTable
 70
     6
  0
LTYPE
  5
14
330
5
100
AcDbSymbolTableRecord
100
AcDbLinetypeTableRecord
  2
ByBlock
 70
     0
  3

 72
    65
 73
     0
 40
0.0
  0
LTYPE
  5
15
330
5
100
AcDbSymbolTableRecord
100
AcDbLinetypeTableRecord
  2
ByLayer
 70
     0
  3

 72
    65
 73
     0
 40
0.0
  0
LTYPE
  5
16
330
5
100
AcDbSymbolTableRecord
100
AcDbLinetypeTableRecord
  2
Continuous
 70
     0
  3
Solid line
 72
    65
 73
     0
 40
0.0
  0
LTYPE
  5
6A
330
5
100
AcDbSymbolTableRecord
100
AcDbLinetypeTableRecord
  2
HIDDEN
 70
     0
  3
Hidden __ __ __ __ __ __ __ __ __ __ __ __ __ __
 72
    65
 73
     2
 40
0.075
 49
0.05
 74
     0
 49
-0.025
 74
     0
  0
LTYPE
  5
6B
330
5
100
AcDbSymbolTableRecord
100
AcDbLinetypeTableRecord
  2
PHANTOM
 70
     0
  3
Phantom ______  __  __  ______  __  __  ______
 72
    65
 73
     6
 40
0.5
 49
0.25
 74
     0
 49
-0.05
 74
     0
 49
0.05
 74
     0
 49
-0.05
 74
     0
 49
0.05
 74
     0
 49
-0.05
 74
     0
  0
LTYPE
  5
6C
330
5
100
AcDbSymbolTableRecord
100
AcDbLinetypeTableRecord
  2
CENTER
 70
     0
  3
Center ____ _ ____ _ ____ _ ____ _ ____ _ ____
 72
    65
 73
     4
 40
0.4
 49
0.25
 74
     0
 49
-0.05
 74
     0
 49
0.05
 74
     0
 49
-0.05
 74
     0
  0
LTYPE
  5
6D
330
5
100
AcDbSymbolTableRecord
100
AcDbLinetypeTableRecord
  2
CENTERX2
 70
     0
  3
Center (2x) ________  __  ________  __  _____
 72
    65
 73
     4
 40
0.8
 49
0.5
 74
     0
 49
-0.1
 74
     0
 49
0.1
 74
     0
 49
-0.1
 74
     0
  0
LTYPE
  5
6E
330
5
100
AcDbSymbolTableRecord
100
AcDbLinetypeTableRecord
  2
DOT2
 70
     0
  3
Dot (.5x) ........................................
 72
    65
 73
     2
 40
0.025
 49
0.0
 74
     0
 49
-0.025
 74
     0
  0
ENDTAB
  0
TABLE
  2
LAYER
  5
2
330
0
100
AcDbSymbolTable
 70
     1
  0
LAYER
  5
10
330
2
100
AcDbSymbolTableRecord
100
AcDbLayerTableRecord
  2
0
 70
     0
 62
     7
  6
Continuous
370
    -3
390
F
  0
ENDTAB
  0
TABLE
  2
STYLE
  5
3
330
0
100
AcDbSymbolTable
 70
     1
  0
STYLE
  5
11
330
3
100
AcDbSymbolTableRecord
100
AcDbTextStyleTableRecord
  2
Standard
 70
     0
 40
0.0
 41
1.0
 50
0.0
 71
     0
 42
0.1377952756
  3
txt
  4

  0
ENDTAB
  0
TABLE
  2
VIEW
  5
6
330
0
100
AcDbSymbolTable
 70
     0
  0
ENDTAB
  0
TABLE
  2
UCS
  5
7
330
0
100
AcDbSymbolTable
 70
     0
  0
ENDTAB
  0
TABLE
  2
APPID
  5
9
330
0
100
AcDbSymbolTable
 70
     1
  0
APPID
  5
12
330
9
100
AcDbSymbolTableRecord
100
AcDbRegAppTableRecord
  2
ACAD
 70
     0
  0
ENDTAB
  0
TABLE
  2
DIMSTYLE
  5
A
330
0
100
AcDbSymbolTable
 70
     1
100
AcDbDimStyleTable
  0
DIMSTYLE
105
27
330
A
100
AcDbSymbolTableRecord
100
AcDbDimStyleTableRecord
  2
Standard
 70
     0
178
     0
340
11
  0
ENDTAB
  0
TABLE
  2
BLOCK_RECORD
  5
1
330
0
100
AcDbSymbolTable
 70
     4
  0
BLOCK_RECORD
  5
1F
330
1
100
AcDbSymbolTableRecord
100
AcDbBlockTableRecord
  2
*Model_Space
340
22
  0
BLOCK_RECORD
  5
1B
330
1
100
AcDbSymbolTableRecord
100
AcDbBlockTableRecord
  2
*Paper_Space
340
1E
  0
BLOCK_RECORD
  5
23
330
1
100
AcDbSymbolTableRecord
100
AcDbBlockTableRecord
  2
*Paper_Space0
340
26
  0
BLOCK_RECORD
  5
12A
330
1
100
AcDbSymbolTableRecord
100
AcDbBlockTableRecord
  2
*Paper_Space1
340
12B
  0
BLOCK_RECORD
  5
16E
330
1
100
AcDbSymbolTableRecord
100
AcDbBlockTableRecord
  2
*Paper_Space2
340
16F
  0
BLOCK_RECORD
  5
1B4
330
1
100
AcDbSymbolTableRecord
100
AcDbBlockTableRecord
  2
*Paper_Space3
340
1B5
  0
ENDTAB
  0
ENDSEC
  0
SECTION
  2
BLOCKS
  0
BLOCK
  5
20
330
1F
100
AcDbEntity
  8
0
100
AcDbBlockBegin
  2
*Model_Space
 70
     0
 10
0.0
 20
0.0
 30
0.0
  3
*Model_Space
  1
*Model_Space
  0
ENDBLK
  5
21
330
1F
100
AcDbEntity
  8
0
100
AcDbBlockEnd
  0
BLOCK
  5
1C
330
1B
100
AcDbEntity
 67
     1
  8
0
100
AcDbBlockBegin
  2
*Paper_Space
 70
     0
 10
0.0
 20
0.0
 30
0.0
  3
*Paper_Space
  1
*Paper_Space
  0
ENDBLK
  5
1D
330
1B
100
AcDbEntity
 67
     1
  8
0
100
AcDbBlockEnd
  0
BLOCK
  5
24
330
23
100
AcDbEntity
  8
0
100
AcDbBlockBegin
  2
*Paper_Space0
 70
     0
 10
0.0
 20
0.0
 30
0.0
  3
*Paper_Space0
  1
*Paper_Space0
  0
LINE
  5
C6
330
23
100
AcDbEntity
  8
0
  6
Continuous
 62
     1
370
    15
100
AcDbLine
 10
5.2370522135
 20
5.4149842461
 30
0.0
 11
4.6245521558
 21
8.888095026
 31
0.0
  0
LINE
  5
C7
330
23
100
AcDbEntity
  8
0
  6
Continuous
 62
     1
370
    15
100
AcDbLine
 10
0.2166616628
 20
5.4149842461
 30
0.0
 11
5.2370522135
 21
5.4149842461
 31
0.0
  0
LINE
  5
C8
330
23
100
AcDbEntity
  8
0
  6
Continuous
 62
     1
370
    15
100
AcDbLine
 10
0.4299025594
 20
6.6241429825
 30
0.0
 11
0.2166616628
 21
5.4149842461
 31
0.0
  0
LINE
  5
C9
330
23
100
AcDbEntity
  8
0
  6
Continuous
 62
     1
370
    15
100
AcDbLine
 10
0.4299025594
 20
6.6241429825
 30
0.0
 11
0.2314647051
 21
6.6591382042
 31
0.0
  0
LINE
  5
CA
330
23
100
AcDbEntity
  8
0
  6
Continuous
 62
     1
370
    15
100
AcDbLine
 10
0.4051396455
 20
7.6439409888
 30
0.0
 11
0.2314647051
 21
6.6591382042
 31
0.0
  0
LINE
  5
CB
330
23
100
AcDbEntity
  8
0
  6
Continuous
 62
     1
370
    15
100
AcDbLine
 10
0.6035773531
 20
7.6089458938
 30
0.0
 11
0.4051396455
 21
7.6439409888
 31
0.0
  0
LINE
  5
CC
330
23
100
AcDbEntity
  8
0
  6
Continuous
 62
     1
370
    15
100
AcDbLine
 10
0.8291615738
 20
8.888095026
 30
0.0
 11
0.6035773531
 21
7.6089458938
 31
0.0
  0
LINE
  5
CD
330
23
100
AcDbEntity
  8
0
  6
Continuous
 62
     1
370
    15
100
AcDbLine
 10
4.6245521558
 20
8.888095026
 30
0.0
 11
0.8291615738
 21
8.888095026
 31
0.0
  0
LINE
  5
CE
330
23
100
AcDbEntity
  8
0
  6
Continuous
 62
     1
370
    15
100
AcDbLine
 10
11.4523404501
 20
5.4236446219
 30
0.0
 11
11.2267562294
 21
6.7027937541
 31
0.0
  0
LINE
  5
CF
330
23
100
AcDbEntity
  8
0
  6
Continuous
 62
     1
370
    15
100
AcDbLine
 10
11.2267562294
 20
6.7027937541
 30
0.0
 11
11.0283185218
 21
6.6677986591
 31
0.0
  0
LINE
  5
D0
330
23
100
AcDbEntity
  8
0
  6
Continuous
 62
     1
370
    15
100
AcDbLine
 10
11.0283185218
 20
6.6677986591
 30
0.0
 11
10.8546435814
 21
7.6526014437
 31
0.0
  0
LINE
  5
D1
330
23
100
AcDbEntity
  8
0
  6
Continuous
 62
     1
370
    15
100
AcDbLine
 10
11.0530814357
 20
7.6875978478
 30
0.0
 11
10.8546435814
 21
7.6526014437
 31
0.0
  0
LINE
  5
D2
330
23
100
AcDbEntity
  8
0
  6
Continuous
 62
     1
370
    15
100
AcDbLine
 10
11.0530814357
 20
7.6875978478
 30
0.0
 11
10.8398405391
 21
8.8967553859
 31
0.0
  0
LINE
  5
D3
330
23
100
AcDbEntity
  8
0
  6
Continuous
 62
     1
370
    15
100
AcDbLine
 10
10.8398405391
 20
8.8967553859
 30
0.0
 11
15.8602310898
 21
8.8967553859
 31
0.0
  0
LINE
  5
D4
330
23
100
AcDbEntity
  8
0
  6
Continuous
 62
     1
370
    15
100
AcDbLine
 10
15.8602310898
 20
8.8967553859
 30
0.0
 11
15.2477310321
 21
5.4236446219
 31
0.0
  0
LINE
  5
D5
330
23
100
AcDbEntity
  8
0
  6
Continuous
 62
     1
370
    15
100
AcDbLine
 10
15.2477310321
 20
5.4236446219
 30
0.0
 11
11.4523404501
 21
5.4236446219
 31
0.0
  0
ARC
  5
D6
330
23
100
AcDbEntity
  8
0
  6
Continuous
 62
     1
370
    15
100
AcDbCircle
 10
9.4688900049
 20
3.5983345297
 30
0.0
 40
0.1250000000000018
100
AcDbArc
 50
180.0
 51
300.0
  0
LINE
  5
D7
330
23
100
AcDbEntity
  8
0
  6
Continuous
 62
     1
370
    15
100
AcDbLine
 10
9.5313900846
 20
2.3563210059
 30
0.0
 11
9.5313900846
 21
3.4900819593
 31
0.0
  0
LINE
  5
D8
330
23
100
AcDbEntity
  8
0
  6
Continuous
 62
     1
370
    15
100
AcDbLine
 10
9.5313900846
 20
2.3563210059
 30
0.0
 11
9.6563900006
 21
2.3563210059
 31
0.0
  0
LINE
  5
D9
330
23
100
AcDbEntity
  8
0
  6
Continuous
 62
     1
370
    15
100
AcDbLine
 10
9.6563900006
 20
2.3563210059
 30
0.0
 11
9.6563900006
 21
4.3563209161
 31
0.0
  0
LINE
  5
DA
330
23
100
AcDbEntity
  8
0
  6
Continuous
 62
     1
370
    15
100
AcDbLine
 10
9.5313900846
 20
4.3563209161
 30
0.0
 11
9.6563900006
 21
4.3563209161
 31
0.0
  0
LINE
  5
DB
330
23
100
AcDbEntity
  8
0
  6
Continuous
 62
     1
370
    15
100
AcDbLine
 10
9.5313900846
 20
4.1150805772
 30
0.0
 11
9.5313900846
 21
4.3563209161
 31
0.0
  0
ARC
  5
DC
330
23
100
AcDbEntity
  8
0
  6
Continuous
 62
     1
370
    15
100
AcDbCircle
 10
9.4688900049
 20
4.0068281787
 30
0.0
 40
0.1250000000000049
100
AcDbArc
 50
60.0
 51
180.0
  0
LINE
  5
DD
330
23
100
AcDbEntity
  8
0
  6
Continuous
 62
     1
370
    15
100
AcDbLine
 10
9.343890064
 20
3.5983345822
 30
0.0
 11
9.343890064
 21
4.0068280511
 31
0.0
  0
LINE
  5
DE
330
23
100
AcDbEntity
  8
0
  6
Continuous
 62
     1
370
    15
100
AcDbLine
 10
9.2849877978
 20
5.3563209196
 30
0.0
 11
6.40998775
 21
5.3563209196
 31
0.0
  0
LINE
  5
DF
330
23
100
AcDbEntity
  8
0
  6
Continuous
 62
     1
370
    15
100
AcDbLine
 10
9.2849877978
 20
5.3563209196
 30
0.0
 11
9.2849877978
 21
5.7593198423
 31
0.0
  0
LINE
  5
E0
330
23
100
AcDbEntity
  8
0
  6
Continuous
 62
     1
370
    15
100
AcDbLine
 10
9.2849877978
 20
5.7593198423
 30
0.0
 11
11.2849877736
 21
5.7593198423
 31
0.0
  0
LINE
  5
E1
330
23
100
AcDbEntity
  8
0
  6
Continuous
 62
     1
370
    15
100
AcDbLine
 10
11.2849877736
 20
5.3563209196
 30
0.0
 11
11.2849877736
 21
5.7593198423
 31
0.0
  0
LINE
  5
E2
330
23
100
AcDbEntity
  8
0
  6
Continuous
 62
     1
370
    15
100
AcDbLine
 10
14.1599876014
 20
5.3563209196
 30
0.0
 11
11.2849877736
 21
5.3563209196
 31
0.0
  0
LINE
  5
E3
330
23
100
AcDbEntity
  8
0
  6
Continuous
 62
     1
370
    15
100
AcDbLine
 10
13.2849878961
 20
1.9130080253
 30
0.0
 11
14.1599876014
 21
5.3563209196
 31
0.0
  0
LINE
  5
E4
330
23
100
AcDbEntity
  8
0
  6
Continuous
 62
     1
370
    15
100
AcDbLine
 10
12.2103138042
 20
1.2488267734
 30
0.0
 11
13.2849878961
 21
1.9130080253
 31
0.0
  0
LINE
  5
E5
330
23
100
AcDbEntity
  8
0
  6
Continuous
 62
     1
370
    15
100
AcDbLine
 10
12.2103138042
 20
1.2488267734
 30
0.0
 11
12.1043794546
 21
1.4202318909
 31
0.0
  0
LINE
  5
E6
330
23
100
AcDbEntity
  8
0
  6
Continuous
 62
     1
370
    15
100
AcDbLine
 10
12.1043794546
 20
1.4202318909
 30
0.0
 11
11.2537273081
 21
0.8945032217
 31
0.0
  0
LINE
  5
E7
330
23
100
AcDbEntity
  8
0
  6
Continuous
 62
     1
370
    15
100
AcDbLine
 10
11.3596616576
 20
0.7230980558
 30
0.0
 11
11.2537273081
 21
0.8945032217
 31
0.0
  0
LINE
  5
E8
330
23
100
AcDbEntity
  8
0
  6
Continuous
 62
     1
370
    15
100
AcDbLine
 10
10.284987859
 20
0.0589168039
 30
0.0
 11
11.3596616576
 21
0.7230980558
 31
0.0
  0
LINE
  5
E9
330
23
100
AcDbEntity
  8
0
  6
Continuous
 62
     1
370
    15
100
AcDbLine
 10
9.2103137671
 20
0.7230980558
 30
0.0
 11
10.284987859
 21
0.0589168039
 31
0.0
  0
LINE
  5
EA
330
23
100
AcDbEntity
  8
0
  6
Continuous
 62
     1
370
    15
100
AcDbLine
 10
9.3162482633
 20
0.8945032217
 30
0.0
 11
9.2103137671
 21
0.7230980558
 31
0.0
  0
LINE
  5
EB
330
23
100
AcDbEntity
  8
0
  6
Continuous
 62
     1
370
    15
100
AcDbLine
 10
9.3162482633
 20
0.8945032217
 30
0.0
 11
8.4655961168
 21
1.4202318909
 31
0.0
  0
LINE
  5
EC
330
23
100
AcDbEntity
  8
0
  6
Continuous
 62
     1
370
    15
100
AcDbLine
 10
8.4655961168
 20
1.4202318909
 30
0.0
 11
8.3596617672
 21
1.2488267734
 31
0.0
  0
LINE
  5
ED
330
23
100
AcDbEntity
  8
0
  6
Continuous
 62
     1
370
    15
100
AcDbLine
 10
7.2849877669
 20
1.9130080253
 30
0.0
 11
8.3596617672
 21
1.2488267734
 31
0.0
  0
LINE
  5
EE
330
23
100
AcDbEntity
  8
0
  6
Continuous
 62
     1
370
    15
100
AcDbLine
 10
6.40998775
 20
5.3563209196
 30
0.0
 11
7.2849877669
 21
1.9130080253
 31
0.0
  0
LINE
  5
EF
330
23
100
AcDbEntity
  8
0
  6
Continuous
 62
     1
370
    15
100
AcDbLine
 10
6.6941748494
 20
3.5840812048
 30
0.0
 11
3.8694048414
 21
5.3298750902
 31
0.0
  0
LINE
  5
F0
330
23
100
AcDbEntity
  8
0
  6
Continuous
 62
     1
370
    15
100
AcDbLine
 10
7.5365005321
 20
0.269348094
 30
0.0
 11
6.6941748494
 21
3.5840812048
 31
0.0
  0
LINE
  5
F1
330
23
100
AcDbEntity
  8
0
  6
Continuous
 62
     1
370
    15
100
AcDbLine
 10
0.202308894
 20
0.269348094
 30
0.0
 11
7.5365005321
 21
0.269348094
 31
0.0
  0
LINE
  5
F2
330
23
100
AcDbEntity
  8
0
  6
Continuous
 62
     1
370
    15
100
AcDbLine
 10
1.0446347967
 20
3.5840812048
 30
0.0
 11
0.202308894
 21
0.269348094
 31
0.0
  0
LINE
  5
F3
330
23
100
AcDbEntity
  8
0
  6
Continuous
 62
     1
370
    15
100
AcDbLine
 10
3.8694048414
 20
5.3298750902
 30
0.0
 11
1.0446347967
 21
3.5840812048
 31
0.0
  0
LINE
  5
F4
330
23
100
AcDbEntity
  8
0
  6
Continuous
 62
     1
370
    15
100
AcDbLine
 10
24.5645044715
 20
1.9495087682
 30
0.0
 11
24.4533753953
 21
0.5471215191
 31
0.0
  0
LINE
  5
F5
330
23
100
AcDbEntity
  8
0
  6
Continuous
 62
     1
370
    15
100
AcDbLine
 10
24.3013295784
 20
1.9703640986
 30
0.0
 11
24.5645044715
 21
1.9495087682
 31
0.0
  0
LINE
  5
F6
330
23
100
AcDbEntity
  8
0
  6
Continuous
 62
     1
370
    15
100
AcDbLine
 10
24.4593197266
 20
3.9641137903
 30
0.0
 11
24.3013295784
 21
1.9703640986
 31
0.0
  0
LINE
  5
F7
330
23
100
AcDbEntity
  8
0
  6
Continuous
 62
     1
370
    15
100
AcDbLine
 10
24.4593197266
 20
3.9641137903
 30
0.0
 11
24.7224947664
 21
3.9432584599
 31
0.0
  0
LINE
  5
F8
330
23
100
AcDbEntity
  8
0
  6
Continuous
 62
     1
370
    15
100
AcDbLine
 10
24.8369289378
 20
5.3873563698
 30
0.0
 11
24.7224947664
 21
3.9432584599
 31
0.0
  0
LINE
  5
F9
330
23
100
AcDbEntity
  8
0
  6
Continuous
 62
     1
370
    15
100
AcDbLine
 10
25.9698286571
 20
5.3873563698
 30
0.0
 11
24.8369289378
 21
5.3873563698
 31
0.0
  0
LINE
  5
FA
330
23
100
AcDbEntity
  8
0
  6
Continuous
 62
     1
370
    15
100
AcDbLine
 10
25.9698286571
 20
5.3873563698
 30
0.0
 11
25.9698286571
 21
5.262356277
 31
0.0
  0
LINE
  5
FB
330
23
100
AcDbEntity
  8
0
  6
Continuous
 62
     1
370
    15
100
AcDbLine
 10
25.9698286571
 20
5.262356277
 30
0.0
 11
27.9698286329
 21
5.262356277
 31
0.0
  0
LINE
  5
FC
330
23
100
AcDbEntity
  8
0
  6
Continuous
 62
     1
370
    15
100
AcDbLine
 10
27.9698286329
 20
5.262356277
 30
0.0
 11
27.9698286329
 21
5.3873563698
 31
0.0
  0
LINE
  5
FD
330
23
100
AcDbEntity
  8
0
  6
Continuous
 62
     1
370
    15
100
AcDbLine
 10
29.1027283522
 20
5.3873563698
 30
0.0
 11
27.9698286329
 21
5.3873563698
 31
0.0
  0
LINE
  5
FE
330
23
100
AcDbEntity
  8
0
  6
Continuous
 62
     1
370
    15
100
AcDbLine
 10
29.2171625236
 20
3.9432584599
 30
0.0
 11
29.1027283522
 21
5.3873563698
 31
0.0
  0
LINE
  5
FF
330
23
100
AcDbEntity
  8
0
  6
Continuous
 62
     1
370
    15
100
AcDbLine
 10
29.4803375634
 20
3.9641137903
 30
0.0
 11
29.2171625236
 21
3.9432584599
 31
0.0
  0
LINE
  5
100
330
23
100
AcDbEntity
  8
0
  6
Continuous
 62
     1
370
    15
100
AcDbLine
 10
29.6383277116
 20
1.9703640986
 30
0.0
 11
29.4803375634
 21
3.9641137903
 31
0.0
  0
LINE
  5
101
330
23
100
AcDbEntity
  8
0
  6
Continuous
 62
     1
370
    15
100
AcDbLine
 10
29.6383277116
 20
1.9703640986
 30
0.0
 11
29.3751528185
 21
1.9495087682
 31
0.0
  0
LINE
  5
102
330
23
100
AcDbEntity
  8
0
  6
Continuous
 62
     1
370
    15
100
AcDbLine
 10
29.4862818947
 20
0.5471215191
 30
0.0
 11
29.3751528185
 21
1.9495087682
 31
0.0
  0
LINE
  5
103
330
23
100
AcDbEntity
  8
0
  6
Continuous
 62
     1
370
    15
100
AcDbLine
 10
24.4533753953
 20
0.5471215191
 30
0.0
 11
29.4862818947
 21
0.5471215191
 31
0.0
  0
LINE
  5
104
330
23
100
AcDbEntity
  8
0
  6
Continuous
 62
     1
370
    15
100
AcDbLine
 10
17.444127923
 20
5.5323701024
 30
0.0
 11
20.268897931
 21
3.786576217
 31
0.0
  0
LINE
  5
105
330
23
100
AcDbEntity
  8
0
  6
Continuous
 62
     1
370
    15
100
AcDbLine
 10
16.6018022403
 20
8.8471032132
 30
0.0
 11
17.444127923
 21
5.5323701024
 31
0.0
  0
LINE
  5
106
330
23
100
AcDbEntity
  8
0
  6
Continuous
 62
     1
370
    15
100
AcDbLine
 10
23.9359938784
 20
8.8471032132
 30
0.0
 11
16.6018022403
 21
8.8471032132
 31
0.0
  0
LINE
  5
107
330
23
100
AcDbEntity
  8
0
  6
Continuous
 62
     1
370
    15
100
AcDbLine
 10
23.0936679757
 20
5.5323701024
 30
0.0
 11
23.9359938784
 21
8.8471032132
 31
0.0
  0
LINE
  5
108
330
23
100
AcDbEntity
  8
0
  6
Continuous
 62
     1
370
    15
100
AcDbLine
 10
20.268897931
 20
3.786576217
 30
0.0
 11
23.0936679757
 21
5.5323701024
 31
0.0
  0
ARC
  5
109
330
23
100
AcDbEntity
  8
0
  6
Continuous
 62
     1
370
    15
100
AcDbCircle
 10
17.6989016322
 20
2.238092788
 30
0.0
 40
0.1250000000000006
100
AcDbArc
 50
0.0
 51
120.0
  0
LINE
  5
10A
330
23
100
AcDbEntity
  8
0
  6
Continuous
 62
     1
370
    15
100
AcDbLine
 10
17.6364015524
 20
3.4801063118
 30
0.0
 11
17.6364015524
 21
2.3463453584
 31
0.0
  0
LINE
  5
10B
330
23
100
AcDbEntity
  8
0
  6
Continuous
 62
     1
370
    15
100
AcDbLine
 10
17.6364015524
 20
3.4801063118
 30
0.0
 11
17.5114016365
 21
3.4801063118
 31
0.0
  0
LINE
  5
10C
330
23
100
AcDbEntity
  8
0
  6
Continuous
 62
     1
370
    15
100
AcDbLine
 10
17.5114016365
 20
3.4801063118
 30
0.0
 11
17.5114016365
 21
1.4801064016
 31
0.0
  0
LINE
  5
10D
330
23
100
AcDbEntity
  8
0
  6
Continuous
 62
     1
370
    15
100
AcDbLine
 10
17.6364015524
 20
1.4801064016
 30
0.0
 11
17.5114016365
 21
1.4801064016
 31
0.0
  0
LINE
  5
10E
330
23
100
AcDbEntity
  8
0
  6
Continuous
 62
     1
370
    15
100
AcDbLine
 10
17.6364015524
 20
1.7213467405
 30
0.0
 11
17.6364015524
 21
1.4801064016
 31
0.0
  0
ARC
  5
10F
330
23
100
AcDbEntity
  8
0
  6
Continuous
 62
     1
370
    15
100
AcDbCircle
 10
17.6989016322
 20
1.8295991389
 30
0.0
 40
0.1250000000000043
100
AcDbArc
 50
240.0
 51
0.0
  0
LINE
  5
110
330
23
100
AcDbEntity
  8
0
  6
Continuous
 62
     1
370
    15
100
AcDbLine
 10
17.8239015731
 20
2.2380927355
 30
0.0
 11
17.8239015731
 21
1.8295992665
 31
0.0
  0
LINE
  5
111
330
23
100
AcDbEntity
  8
0
  6
Continuous
 62
     1
370
    15
100
AcDbLine
 10
17.8828038393
 20
0.480106398
 30
0.0
 11
20.7578038871
 21
0.480106398
 31
0.0
  0
LINE
  5
112
330
23
100
AcDbEntity
  8
0
  6
Continuous
 62
     1
370
    15
100
AcDbLine
 10
17.8828038393
 20
0.480106398
 30
0.0
 11
17.8828038393
 21
0.0771074754
 31
0.0
  0
LINE
  5
113
330
23
100
AcDbEntity
  8
0
  6
Continuous
 62
     1
370
    15
100
AcDbLine
 10
17.8828038393
 20
0.0771074754
 30
0.0
 11
15.8828038635
 21
0.0771074754
 31
0.0
  0
LINE
  5
114
330
23
100
AcDbEntity
  8
0
  6
Continuous
 62
     1
370
    15
100
AcDbLine
 10
15.8828038635
 20
0.480106398
 30
0.0
 11
15.8828038635
 21
0.0771074754
 31
0.0
  0
LINE
  5
115
330
23
100
AcDbEntity
  8
0
  6
Continuous
 62
     1
370
    15
100
AcDbLine
 10
13.0078040357
 20
0.480106398
 30
0.0
 11
15.8828038635
 21
0.480106398
 31
0.0
  0
LINE
  5
116
330
23
100
AcDbEntity
  8
0
  6
Continuous
 62
     1
370
    15
100
AcDbLine
 10
13.882803741
 20
3.9234192924
 30
0.0
 11
13.0078040357
 21
0.480106398
 31
0.0
  0
LINE
  5
117
330
23
100
AcDbEntity
  8
0
  6
Continuous
 62
     1
370
    15
100
AcDbLine
 10
14.9574778329
 20
4.5876005443
 30
0.0
 11
13.882803741
 21
3.9234192924
 31
0.0
  0
LINE
  5
118
330
23
100
AcDbEntity
  8
0
  6
Continuous
 62
     1
370
    15
100
AcDbLine
 10
14.9574778329
 20
4.5876005443
 30
0.0
 11
15.0634121825
 21
4.4161954268
 31
0.0
  0
LINE
  5
119
330
23
100
AcDbEntity
  8
0
  6
Continuous
 62
     1
370
    15
100
AcDbLine
 10
15.0634121825
 20
4.4161954268
 30
0.0
 11
15.914064329
 21
4.941924096
 31
0.0
  0
LINE
  5
11A
330
23
100
AcDbEntity
  8
0
  6
Continuous
 62
     1
370
    15
100
AcDbLine
 10
15.8081299795
 20
5.1133292619
 30
0.0
 11
15.914064329
 21
4.941924096
 31
0.0
  0
LINE
  5
11B
330
23
100
AcDbEntity
  8
0
  6
Continuous
 62
     1
370
    15
100
AcDbLine
 10
16.8828037781
 20
5.7775105138
 30
0.0
 11
15.8081299795
 21
5.1133292619
 31
0.0
  0
LINE
  5
11C
330
23
100
AcDbEntity
  8
0
  6
Continuous
 62
     1
370
    15
100
AcDbLine
 10
17.95747787
 20
5.1133292619
 30
0.0
 11
16.8828037781
 21
5.7775105138
 31
0.0
  0
LINE
  5
11D
330
23
100
AcDbEntity
  8
0
  6
Continuous
 62
     1
370
    15
100
AcDbLine
 10
17.8515433738
 20
4.941924096
 30
0.0
 11
17.95747787
 21
5.1133292619
 31
0.0
  0
LINE
  5
11E
330
23
100
AcDbEntity
  8
0
  6
Continuous
 62
     1
370
    15
100
AcDbLine
 10
17.8515433738
 20
4.941924096
 30
0.0
 11
18.7021955203
 21
4.4161954268
 31
0.0
  0
LINE
  5
11F
330
23
100
AcDbEntity
  8
0
  6
Continuous
 62
     1
370
    15
100
AcDbLine
 10
18.7021955203
 20
4.4161954268
 30
0.0
 11
18.8081298699
 21
4.5876005443
 31
0.0
  0
LINE
  5
120
330
23
100
AcDbEntity
  8
0
  6
Continuous
 62
     1
370
    15
100
AcDbLine
 10
19.8828038701
 20
3.9234192924
 30
0.0
 11
18.8081298699
 21
4.5876005443
 31
0.0
  0
LINE
  5
121
330
23
100
AcDbEntity
  8
0
  6
Continuous
 62
     1
370
    15
100
AcDbLine
 10
20.7578038871
 20
0.480106398
 30
0.0
 11
19.8828038701
 21
3.9234192924
 31
0.0
  0
LINE
  5
122
330
23
100
AcDbEntity
  8
0
  6
Continuous
 62
     1
370
    15
100
AcDbLine
 10
4.7130372975
 20
8.9113787845
 30
0.0
 11
5.3255373552
 21
5.4382680046
 31
0.0
  0
LINE
  5
123
330
23
100
AcDbEntity
  8
0
  6
Continuous
 62
     1
370
    15
100
AcDbLine
 10
9.7334278482
 20
8.9113787845
 30
0.0
 11
4.7130372975
 21
8.9113787845
 31
0.0
  0
LINE
  5
124
330
23
100
AcDbEntity
  8
0
  6
Continuous
 62
     1
370
    15
100
AcDbLine
 10
9.5201869516
 20
7.7022200481
 30
0.0
 11
9.7334278482
 21
8.9113787845
 31
0.0
  0
LINE
  5
125
330
23
100
AcDbEntity
  8
0
  6
Continuous
 62
     1
370
    15
100
AcDbLine
 10
9.5201869516
 20
7.7022200481
 30
0.0
 11
9.7186248059
 21
7.6672248264
 31
0.0
  0
LINE
  5
126
330
23
100
AcDbEntity
  8
0
  6
Continuous
 62
     1
370
    15
100
AcDbLine
 10
9.5449498655
 20
6.6824220418
 30
0.0
 11
9.7186248059
 21
7.6672248264
 31
0.0
  0
LINE
  5
127
330
23
100
AcDbEntity
  8
0
  6
Continuous
 62
     1
370
    15
100
AcDbLine
 10
9.3465121579
 20
6.7174171368
 30
0.0
 11
9.5449498655
 21
6.6824220418
 31
0.0
  0
LINE
  5
128
330
23
100
AcDbEntity
  8
0
  6
Continuous
 62
     1
370
    15
100
AcDbLine
 10
9.1209279372
 20
5.4382680046
 30
0.0
 11
9.3465121579
 21
6.7174171368
 31
0.0
  0
LINE
  5
129
330
23
100
AcDbEntity
  8
0
  6
Continuous
 62
     1
370
    15
100
AcDbLine
 10
5.3255373552
 20
5.4382680046
 30
0.0
 11
9.1209279372
 21
5.4382680046
 31
0.0
  0
ENDBLK
  5
25
330
23
100
AcDbEntity
  8
0
100
AcDbBlockEnd
  0
BLOCK
  5
12C
330
12A
100
AcDbEntity
  8
0
100
AcDbBlockBegin
  2
*Paper_Space1
 70
     0
 10
0.0
 20
0.0
 30
0.0
  3
*Paper_Space1
  1
*Paper_Space1
  0
LINE
  5
12E
330
12A
100
AcDbEntity
  8
0
  6
Continuous
 62
     1
370
    15
100
AcDbLine
 10
15.8662387508
 20
0.8463078506
 30
0.0
 11
15.8662387508
 21
1.0478079228
 31
0.0
  0
LINE
  5
12F
330
12A
100
AcDbEntity
  8
0
  6
Continuous
 62
     1
370
    15
100
AcDbLine
 10
13.8662383349
 20
0.8463078506
 30
0.0
 11
15.8662387508
 21
0.8463078506
 31
0.0
  0
LINE
  5
130
330
12A
100
AcDbEntity
  8
0
  6
Continuous
 62
     1
370
    15
100
AcDbLine
 10
13.8662383349
 20
1.0478079228
 30
0.0
 11
13.8662383349
 21
0.8463078506
 31
0.0
  0
LINE
  5
131
330
12A
100
AcDbEntity
  8
0
  6
Continuous
 62
     1
370
    15
100
AcDbLine
 10
8.866238762
 20
1.0478079228
 30
0.0
 11
13.8662383349
 21
1.0478079228
 31
0.0
  0
LINE
  5
132
330
12A
100
AcDbEntity
  8
0
  6
Continuous
 62
     1
370
    15
100
AcDbLine
 10
8.866238762
 20
0.8463078506
 30
0.0
 11
8.866238762
 21
1.0478079228
 31
0.0
  0
LINE
  5
133
330
12A
100
AcDbEntity
  8
0
  6
Continuous
 62
     1
370
    15
100
AcDbLine
 10
6.8662389329
 20
0.8463078506
 30
0.0
 11
8.866238762
 21
0.8463078506
 31
0.0
  0
LINE
  5
134
330
12A
100
AcDbEntity
  8
0
  6
Continuous
 62
     1
370
    15
100
AcDbLine
 10
6.8662389329
 20
0.8463078506
 30
0.0
 11
6.8662389329
 21
1.0478079228
 31
0.0
  0
LINE
  5
135
330
12A
100
AcDbEntity
  8
0
  6
Continuous
 62
     1
370
    15
100
AcDbLine
 10
3.8662386025
 20
1.0478079228
 30
0.0
 11
6.8662389329
 21
1.0478079228
 31
0.0
  0
LINE
  5
136
330
12A
100
AcDbEntity
  8
0
  6
Continuous
 62
     1
370
    15
100
AcDbLine
 10
3.8662386025
 20
0.8463078506
 30
0.0
 11
3.8662386025
 21
1.0478079228
 31
0.0
  0
LINE
  5
137
330
12A
100
AcDbEntity
  8
0
  6
Continuous
 62
     1
370
    15
100
AcDbLine
 10
1.8662387733
 20
0.8463078506
 30
0.0
 11
3.8662386025
 21
0.8463078506
 31
0.0
  0
LINE
  5
138
330
12A
100
AcDbEntity
  8
0
  6
Continuous
 62
     1
370
    15
100
AcDbLine
 10
1.8662387733
 20
1.0478079228
 30
0.0
 11
1.8662387733
 21
0.8463078506
 31
0.0
  0
LINE
  5
139
330
12A
100
AcDbEntity
  8
0
  6
Continuous
 62
     1
370
    15
100
AcDbLine
 10
0.3662386081
 20
1.0478079228
 30
0.0
 11
1.8662387733
 21
1.0478079228
 31
0.0
  0
LINE
  5
13A
330
12A
100
AcDbEntity
  8
0
  6
Continuous
 62
     1
370
    15
100
AcDbLine
 10
0.3662386081
 20
3.5963079824
 30
0.0
 11
0.3662386081
 21
1.0478079228
 31
0.0
  0
LINE
  5
13B
330
12A
100
AcDbEntity
  8
0
  6
Continuous
 62
     1
370
    15
100
AcDbLine
 10
0.4912394041
 20
3.5963079824
 30
0.0
 11
0.3662386081
 21
3.5963079824
 31
0.0
  0
LINE
  5
13C
330
12A
100
AcDbEntity
  8
0
  6
Continuous
 62
     1
370
    15
100
AcDbLine
 10
0.4912394041
 20
5.5963079582
 30
0.0
 11
0.4912394041
 21
3.5963079824
 31
0.0
  0
LINE
  5
13D
330
12A
100
AcDbEntity
  8
0
  6
Continuous
 62
     1
370
    15
100
AcDbLine
 10
0.3662386081
 20
5.5963079582
 30
0.0
 11
0.4912394041
 21
5.5963079582
 31
0.0
  0
LINE
  5
13E
330
12A
100
AcDbEntity
  8
0
  6
Continuous
 62
     1
370
    15
100
AcDbLine
 10
0.3662386081
 20
8.1448080177
 30
0.0
 11
0.3662386081
 21
5.5963079582
 31
0.0
  0
LINE
  5
13F
330
12A
100
AcDbEntity
  8
0
  6
Continuous
 62
     1
370
    15
100
AcDbLine
 10
1.8662387733
 20
8.1448080177
 30
0.0
 11
0.3662386081
 21
8.1448080177
 31
0.0
  0
LINE
  5
140
330
12A
100
AcDbEntity
  8
0
  6
Continuous
 62
     1
370
    15
100
AcDbLine
 10
1.8662387733
 20
8.1448080177
 30
0.0
 11
1.8662387733
 21
8.3463080899
 31
0.0
  0
LINE
  5
141
330
12A
100
AcDbEntity
  8
0
  6
Continuous
 62
     1
370
    15
100
AcDbLine
 10
3.8662386025
 20
8.3463080899
 30
0.0
 11
1.8662387733
 21
8.3463080899
 31
0.0
  0
LINE
  5
142
330
12A
100
AcDbEntity
  8
0
  6
Continuous
 62
     1
370
    15
100
AcDbLine
 10
3.8662386025
 20
8.1448080177
 30
0.0
 11
3.8662386025
 21
8.3463080899
 31
0.0
  0
LINE
  5
143
330
12A
100
AcDbEntity
  8
0
  6
Continuous
 62
     1
370
    15
100
AcDbLine
 10
6.8662389329
 20
8.1448080177
 30
0.0
 11
3.8662386025
 21
8.1448080177
 31
0.0
  0
LINE
  5
144
330
12A
100
AcDbEntity
  8
0
  6
Continuous
 62
     1
370
    15
100
AcDbLine
 10
6.8662389329
 20
8.1448080177
 30
0.0
 11
6.8662389329
 21
8.3463080899
 31
0.0
  0
LINE
  5
145
330
12A
100
AcDbEntity
  8
0
  6
Continuous
 62
     1
370
    15
100
AcDbLine
 10
8.866238762
 20
8.3463080899
 30
0.0
 11
6.8662389329
 21
8.3463080899
 31
0.0
  0
LINE
  5
146
330
12A
100
AcDbEntity
  8
0
  6
Continuous
 62
     1
370
    15
100
AcDbLine
 10
8.866238762
 20
8.1448080177
 30
0.0
 11
8.866238762
 21
8.3463080899
 31
0.0
  0
LINE
  5
147
330
12A
100
AcDbEntity
  8
0
  6
Continuous
 62
     1
370
    15
100
AcDbLine
 10
13.8662383349
 20
8.1448080177
 30
0.0
 11
8.866238762
 21
8.1448080177
 31
0.0
  0
LINE
  5
148
330
12A
100
AcDbEntity
  8
0
  6
Continuous
 62
     1
370
    15
100
AcDbLine
 10
13.8662383349
 20
8.1448080177
 30
0.0
 11
13.8662383349
 21
8.3463080899
 31
0.0
  0
LINE
  5
149
330
12A
100
AcDbEntity
  8
0
  6
Continuous
 62
     1
370
    15
100
AcDbLine
 10
15.8662387508
 20
8.3463080899
 30
0.0
 11
13.8662383349
 21
8.3463080899
 31
0.0
  0
LINE
  5
14A
330
12A
100
AcDbEntity
  8
0
  6
Continuous
 62
     1
370
    15
100
AcDbLine
 10
15.8662387508
 20
8.1448080177
 30
0.0
 11
15.8662387508
 21
8.3463080899
 31
0.0
  0
LINE
  5
14B
330
12A
100
AcDbEntity
  8
0
  6
Continuous
 62
     1
370
    15
100
AcDbLine
 10
10.3037385292
 20
5.5963079582
 30
0.0
 11
10.3037385292
 21
3.5963079824
 31
0.0
  0
LINE
  5
14C
330
12A
100
AcDbEntity
  8
0
  6
Continuous
 62
     1
370
    15
100
AcDbLine
 10
10.3037385292
 20
3.5963079824
 30
0.0
 11
10.4287381519
 21
3.5963079824
 31
0.0
  0
LINE
  5
14D
330
12A
100
AcDbEntity
  8
0
  6
Continuous
 62
     1
370
    15
100
AcDbLine
 10
10.4287381519
 20
5.5963079582
 30
0.0
 11
10.4287381519
 21
3.5963079824
 31
0.0
  0
LINE
  5
14E
330
12A
100
AcDbEntity
  8
0
  6
Continuous
 62
     1
370
    15
100
AcDbLine
 10
10.3037385292
 20
5.5963079582
 30
0.0
 11
10.4287381519
 21
5.5963079582
 31
0.0
  0
LINE
  5
14F
330
12A
100
AcDbEntity
  8
0
  6
Continuous
 62
     1
370
    15
100
AcDbLine
 10
11.6162386738
 20
6.3948080205
 30
0.0
 11
11.6162386738
 21
2.79780792
 31
0.0
  0
ARC
  5
150
330
12A
100
AcDbEntity
  8
0
  6
Continuous
 62
     1
370
    15
100
AcDbCircle
 10
12.3662385743
 20
2.7978079703
 30
0.0
 40
0.75
100
AcDbArc
 50
180.0
 51
270.0
  0
LINE
  5
151
330
12A
100
AcDbEntity
  8
0
  6
Continuous
 62
     1
370
    15
100
AcDbLine
 10
12.3662387564
 20
2.0478078374
 30
0.0
 11
17.6162384546
 21
2.0478078374
 31
0.0
  0
ARC
  5
152
330
12A
100
AcDbEntity
  8
0
  6
Continuous
 62
     1
370
    15
100
AcDbCircle
 10
17.6162385743
 20
2.7978079703
 30
0.0
 40
0.75
100
AcDbArc
 50
270.0
 51
0.0
  0
LINE
  5
153
330
12A
100
AcDbEntity
  8
0
  6
Continuous
 62
     1
370
    15
100
AcDbLine
 10
18.3662385372
 20
6.3948080205
 30
0.0
 11
18.3662385372
 21
2.79780792
 31
0.0
  0
ARC
  5
154
330
12A
100
AcDbEntity
  8
0
  6
Continuous
 62
     1
370
    15
100
AcDbCircle
 10
17.6162385743
 20
6.3948079703
 30
0.0
 40
0.75
100
AcDbArc
 50
0.0
 51
90.0
  0
LINE
  5
155
330
12A
100
AcDbEntity
  8
0
  6
Continuous
 62
     1
370
    15
100
AcDbLine
 10
12.3662387564
 20
7.1448081031
 30
0.0
 11
17.6162384546
 21
7.1448081031
 31
0.0
  0
ARC
  5
156
330
12A
100
AcDbEntity
  8
0
  6
Continuous
 62
     1
370
    15
100
AcDbCircle
 10
12.3662385743
 20
6.3948079703
 30
0.0
 40
0.75
100
AcDbArc
 50
90.0
 51
180.0
  0
LINE
  5
157
330
12A
100
AcDbEntity
  8
0
  6
Continuous
 62
     1
370
    15
100
AcDbLine
 10
1.5677391816
 20
6.3948080205
 30
0.0
 11
1.5677391816
 21
2.79780792
 31
0.0
  0
ARC
  5
158
330
12A
100
AcDbEntity
  8
0
  6
Continuous
 62
     1
370
    15
100
AcDbCircle
 10
2.3177385743
 20
2.7978079703
 30
0.0
 40
0.7500000000000004
100
AcDbArc
 50
180.0
 51
270.0
  0
LINE
  5
159
330
12A
100
AcDbEntity
  8
0
  6
Continuous
 62
     1
370
    15
100
AcDbLine
 10
2.3177380909
 20
2.0478078374
 30
0.0
 11
8.3662390981
 21
2.0478078374
 31
0.0
  0
ARC
  5
15A
330
12A
100
AcDbEntity
  8
0
  6
Continuous
 62
     1
370
    15
100
AcDbCircle
 10
8.3662385743
 20
2.7978079703
 30
0.0
 40
0.75
100
AcDbArc
 50
270.0
 51
0.0
  0
LINE
  5
15B
330
12A
100
AcDbEntity
  8
0
  6
Continuous
 62
     1
370
    15
100
AcDbLine
 10
9.1162380074
 20
6.3948080205
 30
0.0
 11
9.1162380074
 21
2.79780792
 31
0.0
  0
ARC
  5
15C
330
12A
100
AcDbEntity
  8
0
  6
Continuous
 62
     1
370
    15
100
AcDbCircle
 10
8.3662385743
 20
6.3948079703
 30
0.0
 40
0.75
100
AcDbArc
 50
0.0
 51
90.0
  0
LINE
  5
15D
330
12A
100
AcDbEntity
  8
0
  6
Continuous
 62
     1
370
    15
100
AcDbLine
 10
2.3177380909
 20
7.1448081031
 30
0.0
 11
8.3662390981
 21
7.1448081031
 31
0.0
  0
ARC
  5
15E
330
12A
100
AcDbEntity
  8
0
  6
Continuous
 62
     1
370
    15
100
AcDbCircle
 10
2.3177385743
 20
6.3948079703
 30
0.0
 40
0.7500000000000009
100
AcDbArc
 50
90.0
 51
180.0
  0
LINE
  5
15F
330
12A
100
AcDbEntity
  8
0
  6
Continuous
 62
     1
370
    15
100
AcDbLine
 10
19.2412385358
 20
5.5963079582
 30
0.0
 11
19.3662385985
 21
5.5963079582
 31
0.0
  0
LINE
  5
160
330
12A
100
AcDbEntity
  8
0
  6
Continuous
 62
     1
370
    15
100
AcDbLine
 10
19.3662385985
 20
8.1448080177
 30
0.0
 11
19.3662385985
 21
5.5963079582
 31
0.0
  0
LINE
  5
161
330
12A
100
AcDbEntity
  8
0
  6
Continuous
 62
     1
370
    15
100
AcDbLine
 10
19.3662385985
 20
8.1448080177
 30
0.0
 11
15.8662387508
 21
8.1448080177
 31
0.0
  0
LINE
  5
162
330
12A
100
AcDbEntity
  8
0
  6
Continuous
 62
     1
370
    15
100
AcDbLine
 10
15.8662387508
 20
1.0478079228
 30
0.0
 11
19.3662385985
 21
1.0478079228
 31
0.0
  0
LINE
  5
163
330
12A
100
AcDbEntity
  8
0
  6
Continuous
 62
     1
370
    15
100
AcDbLine
 10
19.3662385985
 20
3.5963079824
 30
0.0
 11
19.3662385985
 21
1.0478079228
 31
0.0
  0
LINE
  5
164
330
12A
100
AcDbEntity
  8
0
  6
Continuous
 62
     1
370
    15
100
AcDbLine
 10
19.3662385985
 20
3.5963079824
 30
0.0
 11
19.2412385358
 21
3.5963079824
 31
0.0
  0
LINE
  5
165
330
12A
100
AcDbEntity
  8
0
  6
Continuous
 62
     1
370
    15
100
AcDbLine
 10
19.2412385358
 20
3.5963079824
 30
0.0
 11
19.2412385358
 21
5.5963079582
 31
0.0
  0
LINE
  5
166
330
12A
100
AcDbEntity
  8
0
  6
Continuous
 62
     1
370
    15
100
AcDbLine
 10
23.3078405765
 20
8.3624311788
 30
0.0
 11
19.8347297966
 21
7.7499311211
 31
0.0
  0
LINE
  5
167
330
12A
100
AcDbEntity
  8
0
  6
Continuous
 62
     1
370
    15
100
AcDbLine
 10
23.3078405765
 20
3.3420406281
 30
0.0
 11
23.3078405765
 21
8.3624311788
 31
0.0
  0
LINE
  5
168
330
12A
100
AcDbEntity
  8
0
  6
Continuous
 62
     1
370
    15
100
AcDbLine
 10
22.0986818401
 20
3.5552815247
 30
0.0
 11
23.3078405765
 21
3.3420406281
 31
0.0
  0
LINE
  5
169
330
12A
100
AcDbEntity
  8
0
  6
Continuous
 62
     1
370
    15
100
AcDbLine
 10
22.0986818401
 20
3.5552815247
 30
0.0
 11
22.0636866185
 21
3.3568436704
 31
0.0
  0
LINE
  5
16A
330
12A
100
AcDbEntity
  8
0
  6
Continuous
 62
     1
370
    15
100
AcDbLine
 10
21.0788838339
 20
3.5305186108
 30
0.0
 11
22.0636866185
 21
3.3568436704
 31
0.0
  0
LINE
  5
16B
330
12A
100
AcDbEntity
  8
0
  6
Continuous
 62
     1
370
    15
100
AcDbLine
 10
21.1138789289
 20
3.7289563184
 30
0.0
 11
21.0788838339
 21
3.5305186108
 31
0.0
  0
LINE
  5
16C
330
12A
100
AcDbEntity
  8
0
  6
Continuous
 62
     1
370
    15
100
AcDbLine
 10
19.8347297966
 20
3.9545405391
 30
0.0
 11
21.1138789289
 21
3.7289563184
 31
0.0
  0
LINE
  5
16D
330
12A
100
AcDbEntity
  8
0
  6
Continuous
 62
     1
370
    15
100
AcDbLine
 10
19.8347297966
 20
7.7499311211
 30
0.0
 11
19.8347297966
 21
3.9545405391
 31
0.0
  0
ENDBLK
  5
12D
330
12A
100
AcDbEntity
  8
0
100
AcDbBlockEnd
  0
BLOCK
  5
170
330
16E
100
AcDbEntity
  8
0
100
AcDbBlockBegin
  2
*Paper_Space2
 70
     0
 10
0.0
 20
0.0
 30
0.0
  3
*Paper_Space2
  1
*Paper_Space2
  0
LINE
  5
172
330
16E
100
AcDbEntity
  8
0
  6
Continuous
 62
     1
370
    15
100
AcDbLine
 10
20.01184032
 20
5.1003514257
 30
0.0
 11
20.01184032
 21
3.1003513032
 31
0.0
  0
LINE
  5
173
330
16E
100
AcDbEntity
  8
0
  6
Continuous
 62
     1
370
    15
100
AcDbLine
 10
20.01184032
 20
3.1003513032
 30
0.0
 11
20.2618394778
 21
3.1003513032
 31
0.0
  0
LINE
  5
174
330
16E
100
AcDbEntity
  8
0
  6
Continuous
 62
     1
370
    15
100
AcDbLine
 10
20.2618394778
 20
5.1003514257
 30
0.0
 11
20.2618394778
 21
3.1003513032
 31
0.0
  0
LINE
  5
175
330
16E
100
AcDbEntity
  8
0
  6
Continuous
 62
     1
370
    15
100
AcDbLine
 10
20.01184032
 20
5.1003514257
 30
0.0
 11
20.2618394778
 21
5.1003514257
 31
0.0
  0
LINE
  5
176
330
16E
100
AcDbEntity
  8
0
  6
Continuous
 62
     1
370
    15
100
AcDbLine
 10
10.9739349358
 20
5.2029415206
 30
0.0
 11
10.9739349358
 21
3.2029413981
 31
0.0
  0
LINE
  5
177
330
16E
100
AcDbEntity
  8
0
  6
Continuous
 62
     1
370
    15
100
AcDbLine
 10
10.9739349358
 20
3.2029413981
 30
0.0
 11
11.0989350763
 21
3.2029413981
 31
0.0
  0
LINE
  5
178
330
16E
100
AcDbEntity
  8
0
  6
Continuous
 62
     1
370
    15
100
AcDbLine
 10
11.0989350763
 20
5.2029415206
 30
0.0
 11
11.0989350763
 21
3.2029413981
 31
0.0
  0
LINE
  5
179
330
16E
100
AcDbEntity
  8
0
  6
Continuous
 62
     1
370
    15
100
AcDbLine
 10
10.9739349358
 20
5.2029415206
 30
0.0
 11
11.0989350763
 21
5.2029415206
 31
0.0
  0
LINE
  5
17A
330
16E
100
AcDbEntity
  8
0
  6
Continuous
 62
     1
370
    15
100
AcDbLine
 10
17.9960467597
 20
3.2029413981
 30
0.0
 11
17.9960467597
 21
5.2029415206
 31
0.0
  0
LINE
  5
17B
330
16E
100
AcDbEntity
  8
0
  6
Continuous
 62
     1
370
    15
100
AcDbLine
 10
17.9960467597
 20
5.2029415206
 30
0.0
 11
17.871046596
 21
5.2029415206
 31
0.0
  0
LINE
  5
17C
330
16E
100
AcDbEntity
  8
0
  6
Continuous
 62
     1
370
    15
100
AcDbLine
 10
17.871046596
 20
3.2029413981
 30
0.0
 11
17.871046596
 21
5.2029415206
 31
0.0
  0
LINE
  5
17D
330
16E
100
AcDbEntity
  8
0
  6
Continuous
 62
     1
370
    15
100
AcDbLine
 10
17.9960467597
 20
3.2029413981
 30
0.0
 11
17.871046596
 21
3.2029413981
 31
0.0
  0
LINE
  5
17E
330
16E
100
AcDbEntity
  8
0
  6
Continuous
 62
     1
370
    15
100
AcDbLine
 10
2.1923475349
 20
3.446110749
 30
0.0
 11
2.1923475349
 21
5.5732402162
 31
0.0
  0
ARC
  5
17F
330
16E
100
AcDbEntity
  8
0
  6
Continuous
 62
     1
370
    15
100
AcDbCircle
 10
2.9423475146
 20
3.4461107201
 30
0.0
 40
0.75
100
AcDbArc
 50
180.0
 51
270.0
  0
LINE
  5
180
330
16E
100
AcDbEntity
  8
0
  6
Continuous
 62
     1
370
    15
100
AcDbLine
 10
9.2864350997
 20
2.6961106664
 30
0.0
 11
2.9423475089
 21
2.6961106664
 31
0.0
  0
ARC
  5
181
330
16E
100
AcDbEntity
  8
0
  6
Continuous
 62
     1
370
    15
100
AcDbCircle
 10
9.2864350227
 20
3.4461107201
 30
0.0
 40
0.7500000000000018
100
AcDbArc
 50
270.0
 51
0.0
  0
LINE
  5
182
330
16E
100
AcDbEntity
  8
0
  6
Continuous
 62
     1
370
    15
100
AcDbLine
 10
10.0364348891
 20
5.2893722155
 30
0.0
 11
10.0364348891
 21
3.446110749
 31
0.0
  0
ARC
  5
183
330
16E
100
AcDbEntity
  8
0
  6
Continuous
 62
     1
370
    15
100
AcDbCircle
 10
9.2864350227
 20
5.2893722511
 30
0.0
 40
0.7500000000000018
100
AcDbArc
 50
0.0
 51
87.4379938004
  0
LINE
  5
184
330
16E
100
AcDbEntity
  8
0
  6
Continuous
 62
     1
370
    15
100
AcDbLine
 10
2.97587292
 20
6.3224904741
 30
0.0
 11
9.3199603366
 21
6.0386225467
 31
0.0
  0
ARC
  5
185
330
16E
100
AcDbEntity
  8
0
  6
Continuous
 62
     1
370
    15
100
AcDbCircle
 10
2.9423475146
 20
5.5732401589
 30
0.0
 40
0.7500000000000002
100
AcDbArc
 50
87.4379938004
 51
180.0
  0
LINE
  5
186
330
16E
100
AcDbEntity
  8
0
  6
Continuous
 62
     1
370
    15
100
AcDbLine
 10
16.2460468418
 20
2.6961106664
 30
0.0
 11
12.7864349124
 21
2.6961106664
 31
0.0
  0
ARC
  5
187
330
16E
100
AcDbEntity
  8
0
  6
Continuous
 62
     1
370
    15
100
AcDbCircle
 10
16.2460462785
 20
3.4461107201
 30
0.0
 40
0.75
100
AcDbArc
 50
270.0
 51
0.0
  0
LINE
  5
188
330
16E
100
AcDbEntity
  8
0
  6
Continuous
 62
     1
370
    15
100
AcDbLine
 10
16.9960466312
 20
4.8996233979
 30
0.0
 11
16.9960466312
 21
3.446110749
 31
0.0
  0
ARC
  5
189
330
16E
100
AcDbEntity
  8
0
  6
Continuous
 62
     1
370
    15
100
AcDbCircle
 10
16.2460462785
 20
4.8996233777
 30
0.0
 40
0.75
100
AcDbArc
 50
0.0
 51
85.0156645869
  0
LINE
  5
18A
330
16E
100
AcDbEntity
  8
0
  6
Continuous
 62
     1
370
    15
100
AcDbLine
 10
14.4665412518
 20
5.8076665747
 30
0.0
 11
16.3112093511
 21
5.6467872732
 31
0.0
  0
ARC
  5
18B
330
16E
100
AcDbEntity
  8
0
  6
Continuous
 62
     1
370
    15
100
AcDbCircle
 10
14.4013783567
 20
5.0605027311
 30
0.0
 40
0.75
100
AcDbArc
 50
85.0156645869
 51
87.4379938004
  0
LINE
  5
18C
330
16E
100
AcDbEntity
  8
0
  6
Continuous
 62
     1
370
    15
100
AcDbLine
 10
12.8199601494
 20
5.8820141292
 30
0.0
 11
14.4349039793
 21
5.8097530306
 31
0.0
  0
ARC
  5
18D
330
16E
100
AcDbEntity
  8
0
  6
Continuous
 62
     1
370
    15
100
AcDbCircle
 10
12.7864350227
 20
5.1327638064
 30
0.0
 40
0.7500000000000018
100
AcDbArc
 50
87.4379938004
 51
180.0
  0
LINE
  5
18E
330
16E
100
AcDbEntity
  8
0
  6
Continuous
 62
     1
370
    15
100
AcDbLine
 10
12.0364351229
 20
3.446110749
 30
0.0
 11
12.0364351229
 21
5.1327637979
 31
0.0
  0
ARC
  5
18F
330
16E
100
AcDbEntity
  8
0
  6
Continuous
 62
     1
370
    15
100
AcDbCircle
 10
12.7864350227
 20
3.4461107201
 30
0.0
 40
0.7500000000000018
100
AcDbArc
 50
180.0
 51
270.0
  0
LINE
  5
190
330
16E
100
AcDbEntity
  8
0
  6
Continuous
 62
     1
370
    15
100
AcDbLine
 10
8.9184096752
 20
7.0575906422
 30
0.0
 11
8.9072344013
 21
6.807840544
 31
0.0
  0
LINE
  5
191
330
16E
100
AcDbEntity
  8
0
  6
Continuous
 62
     1
370
    15
100
AcDbLine
 10
10.9052354432
 20
6.7184394434
 30
0.0
 11
8.9072344013
 21
6.807840544
 31
0.0
  0
LINE
  5
192
330
16E
100
AcDbEntity
  8
0
  6
Continuous
 62
     1
370
    15
100
AcDbLine
 10
10.9164107171
 20
6.9681895416
 30
0.0
 11
10.9052354432
 21
6.7184394434
 31
0.0
  0
LINE
  5
193
330
16E
100
AcDbEntity
  8
0
  6
Continuous
 62
     1
370
    15
100
AcDbLine
 10
10.9164107171
 20
6.9681895416
 30
0.0
 11
8.9184096752
 21
7.0575906422
 31
0.0
  0
LINE
  5
194
330
16E
100
AcDbEntity
  8
0
  6
Continuous
 62
     1
370
    15
100
AcDbLine
 10
5.095977107
 20
6.9783762673
 30
0.0
 11
3.0979762296
 21
7.0677773678
 31
0.0
  0
LINE
  5
195
330
16E
100
AcDbEntity
  8
0
  6
Continuous
 62
     1
370
    15
100
AcDbLine
 10
5.1071522348
 20
7.2281263838
 30
0.0
 11
5.095977107
 21
6.9783762673
 31
0.0
  0
LINE
  5
196
330
16E
100
AcDbEntity
  8
0
  6
Continuous
 62
     1
370
    15
100
AcDbLine
 10
5.1071522348
 20
7.2281263838
 30
0.0
 11
3.1091513756
 21
7.3175274712
 31
0.0
  0
LINE
  5
197
330
16E
100
AcDbEntity
  8
0
  6
Continuous
 62
     1
370
    15
100
AcDbLine
 10
3.1091513756
 20
7.3175274712
 30
0.0
 11
3.0979762296
 21
7.0677773678
 31
0.0
  0
LINE
  5
198
330
16E
100
AcDbEntity
  8
0
  6
Continuous
 62
     1
370
    15
100
AcDbLine
 10
14.5813048256
 20
7.0524025338
 30
0.0
 11
13.1589995361
 21
7.1764462675
 31
0.0
  0
LINE
  5
199
330
16E
100
AcDbEntity
  8
0
  6
Continuous
 62
     1
370
    15
100
AcDbLine
 10
14.5637977324
 20
6.8516645144
 30
0.0
 11
14.5813048256
 21
7.0524025338
 31
0.0
  0
LINE
  5
19A
330
16E
100
AcDbEntity
  8
0
  6
Continuous
 62
     1
370
    15
100
AcDbLine
 10
14.5637977324
 20
6.8516645144
 30
0.0
 11
16.5562343886
 21
6.6778977618
 31
0.0
  0
LINE
  5
19B
330
16E
100
AcDbEntity
  8
0
  6
Continuous
 62
     1
370
    15
100
AcDbLine
 10
16.5562343886
 20
6.6778977618
 30
0.0
 11
16.5737414819
 21
6.8786357628
 31
0.0
  0
LINE
  5
19C
330
16E
100
AcDbEntity
  8
0
  6
Continuous
 62
     1
370
    15
100
AcDbLine
 10
17.9960467597
 20
6.7545920291
 30
0.0
 11
16.5737414819
 21
6.8786357628
 31
0.0
  0
LINE
  5
19D
330
16E
100
AcDbEntity
  8
0
  6
Continuous
 62
     1
370
    15
100
AcDbLine
 10
23.0118406707
 20
5.8503513616
 30
0.0
 11
17.9960467597
 21
6.7545920291
 31
0.0
  0
LINE
  5
19E
330
16E
100
AcDbEntity
  8
0
  6
Continuous
 62
     1
370
    15
100
AcDbLine
 10
23.0118406707
 20
2.3503512206
 30
0.0
 11
23.0118406707
 21
5.8503513616
 31
0.0
  0
LINE
  5
19F
330
16E
100
AcDbEntity
  8
0
  6
Continuous
 62
     1
370
    15
100
AcDbLine
 10
17.9960467597
 20
1.4461106265
 30
0.0
 11
23.0118406707
 21
2.3503512206
 31
0.0
  0
LINE
  5
1A0
330
16E
100
AcDbEntity
  8
0
  6
Continuous
 62
     1
370
    15
100
AcDbLine
 10
15.9982075531
 20
1.4461106265
 30
0.0
 11
17.9960467597
 21
1.4461106265
 31
0.0
  0
LINE
  5
1A1
330
16E
100
AcDbEntity
  8
0
  6
Continuous
 62
     1
370
    15
100
AcDbLine
 10
15.9982075531
 20
1.6961104585
 30
0.0
 11
15.9982075531
 21
1.4461106265
 31
0.0
  0
LINE
  5
1A2
330
16E
100
AcDbEntity
  8
0
  6
Continuous
 62
     1
370
    15
100
AcDbLine
 10
13.9982073193
 20
1.6961104585
 30
0.0
 11
15.9982075531
 21
1.6961104585
 31
0.0
  0
LINE
  5
1A3
330
16E
100
AcDbEntity
  8
0
  6
Continuous
 62
     1
370
    15
100
AcDbLine
 10
13.9982073193
 20
1.6961104585
 30
0.0
 11
13.9982073193
 21
1.4461106265
 31
0.0
  0
LINE
  5
1A4
330
16E
100
AcDbEntity
  8
0
  6
Continuous
 62
     1
370
    15
100
AcDbLine
 10
10.490196657
 20
1.4461106265
 30
0.0
 11
13.9982073193
 21
1.4461106265
 31
0.0
  0
LINE
  5
1A5
330
16E
100
AcDbEntity
  8
0
  6
Continuous
 62
     1
370
    15
100
AcDbLine
 10
10.490196657
 20
1.4461106265
 30
0.0
 11
10.490196657
 21
1.6961104585
 31
0.0
  0
LINE
  5
1A6
330
16E
100
AcDbEntity
  8
0
  6
Continuous
 62
     1
370
    15
100
AcDbLine
 10
8.490197008
 20
1.6961104585
 30
0.0
 11
10.490196657
 21
1.6961104585
 31
0.0
  0
LINE
  5
1A7
330
16E
100
AcDbEntity
  8
0
  6
Continuous
 62
     1
370
    15
100
AcDbLine
 10
8.490197008
 20
1.6961104585
 30
0.0
 11
8.490197008
 21
1.4461106265
 31
0.0
  0
LINE
  5
1A8
330
16E
100
AcDbEntity
  8
0
  6
Continuous
 62
     1
370
    15
100
AcDbLine
 10
4.9821866614
 20
1.4461106265
 30
0.0
 11
8.490197008
 21
1.4461106265
 31
0.0
  0
LINE
  5
1A9
330
16E
100
AcDbEntity
  8
0
  6
Continuous
 62
     1
370
    15
100
AcDbLine
 10
4.9821866614
 20
1.4461106265
 30
0.0
 11
4.9821866614
 21
1.6961104585
 31
0.0
  0
LINE
  5
1AA
330
16E
100
AcDbEntity
  8
0
  6
Continuous
 62
     1
370
    15
100
AcDbLine
 10
2.9821865852
 20
1.6961104585
 30
0.0
 11
4.9821866614
 21
1.6961104585
 31
0.0
  0
LINE
  5
1AB
330
16E
100
AcDbEntity
  8
0
  6
Continuous
 62
     1
370
    15
100
AcDbLine
 10
2.9821865852
 20
1.6961104585
 30
0.0
 11
2.9821865852
 21
1.4461106265
 31
0.0
  0
LINE
  5
1AC
330
16E
100
AcDbEntity
  8
0
  6
Continuous
 62
     1
370
    15
100
AcDbLine
 10
0.9423475292
 20
1.4461106265
 30
0.0
 11
2.9821865852
 21
1.4461106265
 31
0.0
  0
LINE
  5
1AD
330
16E
100
AcDbEntity
  8
0
  6
Continuous
 62
     1
370
    15
100
AcDbLine
 10
0.9423475292
 20
3.696110581
 30
0.0
 11
0.9423475292
 21
1.4461106265
 31
0.0
  0
LINE
  5
1AE
330
16E
100
AcDbEntity
  8
0
  6
Continuous
 62
     1
370
    15
100
AcDbLine
 10
1.0673475467
 20
3.696110581
 30
0.0
 11
0.9423475292
 21
3.696110581
 31
0.0
  0
LINE
  5
1AF
330
16E
100
AcDbEntity
  8
0
  6
Continuous
 62
     1
370
    15
100
AcDbLine
 10
1.0673475467
 20
5.6961107034
 30
0.0
 11
1.0673475467
 21
3.696110581
 31
0.0
  0
LINE
  5
1B0
330
16E
100
AcDbEntity
  8
0
  6
Continuous
 62
     1
370
    15
100
AcDbLine
 10
0.9423475292
 20
5.6961107034
 30
0.0
 11
1.0673475467
 21
5.6961107034
 31
0.0
  0
LINE
  5
1B1
330
16E
100
AcDbEntity
  8
0
  6
Continuous
 62
     1
370
    15
100
AcDbLine
 10
0.9423475292
 20
7.9461107313
 30
0.0
 11
0.9423475292
 21
5.6961107034
 31
0.0
  0
LINE
  5
1B2
330
16E
100
AcDbEntity
  8
0
  6
Continuous
 62
     1
370
    15
100
AcDbLine
 10
2.4838522328
 20
7.9461107313
 30
0.0
 11
0.9423475292
 21
7.9461107313
 31
0.0
  0
LINE
  5
1B3
330
16E
100
AcDbEntity
  8
0
  6
Continuous
 62
     1
370
    15
100
AcDbLine
 10
13.1589995361
 20
7.1764462675
 30
0.0
 11
2.4838522328
 21
7.9461107313
 31
0.0
  0
ENDBLK
  5
171
330
16E
100
AcDbEntity
  8
0
100
AcDbBlockEnd
  0
BLOCK
  5
1B6
330
1B4
100
AcDbEntity
  8
0
100
AcDbBlockBegin
  2
*Paper_Space3
 70
     0
 10
0.0
 20
0.0
 30
0.0
  3
*Paper_Space3
  1
*Paper_Space3
  0
LINE
  5
1B8
330
1B4
100
AcDbEntity
  8
0
  6
Continuous
 62
     1
370
    15
100
AcDbLine
 10
3.3474789716
 20
5.5823252127
 30
0.0
 11
3.3474789716
 21
3.5823250902
 31
0.0
  0
LINE
  5
1B9
330
1B4
100
AcDbEntity
  8
0
  6
Continuous
 62
     1
370
    15
100
AcDbLine
 10
3.5974792991
 20
3.5823250902
 30
0.0
 11
3.3474789716
 21
3.5823250902
 31
0.0
  0
LINE
  5
1BA
330
1B4
100
AcDbEntity
  8
0
  6
Continuous
 62
     1
370
    15
100
AcDbLine
 10
3.5974792991
 20
5.5823252127
 30
0.0
 11
3.5974792991
 21
3.5823250902
 31
0.0
  0
LINE
  5
1BB
330
1B4
100
AcDbEntity
  8
0
  6
Continuous
 62
     1
370
    15
100
AcDbLine
 10
3.5974792991
 20
5.5823252127
 30
0.0
 11
3.3474789716
 21
5.5823252127
 31
0.0
  0
LINE
  5
1BC
330
1B4
100
AcDbEntity
  8
0
  6
Continuous
 62
     1
370
    15
100
AcDbLine
 10
12.5103839464
 20
5.6849153076
 30
0.0
 11
12.5103839464
 21
3.6849151851
 31
0.0
  0
LINE
  5
1BD
330
1B4
100
AcDbEntity
  8
0
  6
Continuous
 62
     1
370
    15
100
AcDbLine
 10
12.6353841101
 20
3.6849151851
 30
0.0
 11
12.5103839464
 21
3.6849151851
 31
0.0
  0
LINE
  5
1BE
330
1B4
100
AcDbEntity
  8
0
  6
Continuous
 62
     1
370
    15
100
AcDbLine
 10
12.6353841101
 20
5.6849153076
 30
0.0
 11
12.6353841101
 21
3.6849151851
 31
0.0
  0
LINE
  5
1BF
330
1B4
100
AcDbEntity
  8
0
  6
Continuous
 62
     1
370
    15
100
AcDbLine
 10
12.6353841101
 20
5.6849153076
 30
0.0
 11
12.5103839464
 21
5.6849153076
 31
0.0
  0
LINE
  5
1C0
330
1B4
100
AcDbEntity
  8
0
  6
Continuous
 62
     1
370
    15
100
AcDbLine
 10
5.7382730231
 20
3.6849151851
 30
0.0
 11
5.7382730231
 21
5.6849153076
 31
0.0
  0
LINE
  5
1C1
330
1B4
100
AcDbEntity
  8
0
  6
Continuous
 62
     1
370
    15
100
AcDbLine
 10
5.6132728594
 20
5.6849153076
 30
0.0
 11
5.7382730231
 21
5.6849153076
 31
0.0
  0
LINE
  5
1C2
330
1B4
100
AcDbEntity
  8
0
  6
Continuous
 62
     1
370
    15
100
AcDbLine
 10
5.6132728594
 20
3.6849151851
 30
0.0
 11
5.6132728594
 21
5.6849153076
 31
0.0
  0
LINE
  5
1C3
330
1B4
100
AcDbEntity
  8
0
  6
Continuous
 62
     1
370
    15
100
AcDbLine
 10
5.6132728594
 20
3.6849151851
 30
0.0
 11
5.7382730231
 21
3.6849151851
 31
0.0
  0
LINE
  5
1C4
330
1B4
100
AcDbEntity
  8
0
  6
Continuous
 62
     1
370
    15
100
AcDbLine
 10
20.6334461918
 20
6.8044642611
 30
0.0
 11
14.2893587093
 21
6.5205963337
 31
0.0
  0
ARC
  5
1C5
330
1B4
100
AcDbEntity
  8
0
  6
Continuous
 62
     1
370
    15
100
AcDbCircle
 10
14.3228841029
 20
5.7713460381
 30
0.0
 40
0.7500000000000018
100
AcDbArc
 50
92.5620061996
 51
180.0
  0
LINE
  5
1C6
330
1B4
100
AcDbEntity
  8
0
  6
Continuous
 62
     1
370
    15
100
AcDbLine
 10
13.5728841335
 20
5.7713460024
 30
0.0
 11
13.5728841335
 21
3.928084536
 31
0.0
  0
ARC
  5
1C7
330
1B4
100
AcDbEntity
  8
0
  6
Continuous
 62
     1
370
    15
100
AcDbCircle
 10
14.3228841029
 20
3.928084507
 30
0.0
 40
0.7500000000000018
100
AcDbArc
 50
180.0
 51
270.0
  0
LINE
  5
1C8
330
1B4
100
AcDbEntity
  8
0
  6
Continuous
 62
     1
370
    15
100
AcDbLine
 10
14.3228839462
 20
3.1780844534
 30
0.0
 11
20.6669716046
 21
3.1780844534
 31
0.0
  0
ARC
  5
1C9
330
1B4
100
AcDbEntity
  8
0
  6
Continuous
 62
     1
370
    15
100
AcDbCircle
 10
20.6669716111
 20
3.928084507
 30
0.0
 40
0.75
100
AcDbArc
 50
270.0
 51
0.0
  0
LINE
  5
1CA
330
1B4
100
AcDbEntity
  8
0
  6
Continuous
 62
     1
370
    15
100
AcDbLine
 10
21.4169716339
 20
3.928084536
 30
0.0
 11
21.4169716339
 21
6.0552140032
 31
0.0
  0
ARC
  5
1CB
330
1B4
100
AcDbEntity
  8
0
  6
Continuous
 62
     1
370
    15
100
AcDbCircle
 10
20.6669716111
 20
6.0552139459
 30
0.0
 40
0.7500000000000001
100
AcDbArc
 50
0.0
 51
92.5620061996
  0
LINE
  5
1CC
330
1B4
100
AcDbEntity
  8
0
  6
Continuous
 62
     1
370
    15
100
AcDbLine
 10
11.572883923
 20
3.928084536
 30
0.0
 11
11.572883923
 21
5.6147375849
 31
0.0
  0
ARC
  5
1CD
330
1B4
100
AcDbEntity
  8
0
  6
Continuous
 62
     1
370
    15
100
AcDbCircle
 10
10.8228841029
 20
5.6147375934
 30
0.0
 40
0.7500000000000018
100
AcDbArc
 50
0.0
 51
92.5620061996
  0
LINE
  5
1CE
330
1B4
100
AcDbEntity
  8
0
  6
Continuous
 62
     1
370
    15
100
AcDbLine
 10
10.7893588966
 20
6.3639879162
 30
0.0
 11
9.1744156514
 21
6.2917268176
 31
0.0
  0
ARC
  5
1CF
330
1B4
100
AcDbEntity
  8
0
  6
Continuous
 62
     1
370
    15
100
AcDbCircle
 10
9.2079407689
 20
5.542476518
 30
0.0
 40
0.7500000000000001
100
AcDbArc
 50
92.5620061996
 51
94.9843354131
  0
LINE
  5
1D0
330
1B4
100
AcDbEntity
  8
0
  6
Continuous
 62
     1
370
    15
100
AcDbLine
 10
9.1427783674
 20
6.2896403617
 30
0.0
 11
7.2981102563
 21
6.1287610602
 31
0.0
  0
ARC
  5
1D1
330
1B4
100
AcDbEntity
  8
0
  6
Continuous
 62
     1
370
    15
100
AcDbCircle
 10
7.3632728472
 20
5.3815971647
 30
0.0
 40
0.75
100
AcDbArc
 50
94.9843354131
 51
180.0
  0
LINE
  5
1D2
330
1B4
100
AcDbEntity
  8
0
  6
Continuous
 62
     1
370
    15
100
AcDbLine
 10
6.6132729763
 20
5.3815971849
 30
0.0
 11
6.6132729763
 21
3.928084536
 31
0.0
  0
ARC
  5
1D3
330
1B4
100
AcDbEntity
  8
0
  6
Continuous
 62
     1
370
    15
100
AcDbCircle
 10
7.3632728472
 20
3.928084507
 30
0.0
 40
0.7500000000000027
100
AcDbArc
 50
180.0
 51
270.0
  0
LINE
  5
1D4
330
1B4
100
AcDbEntity
  8
0
  6
Continuous
 62
     1
370
    15
100
AcDbLine
 10
7.3632727774
 20
3.1780844534
 30
0.0
 11
10.8228841103
 21
3.1780844534
 31
0.0
  0
ARC
  5
1D5
330
1B4
100
AcDbEntity
  8
0
  6
Continuous
 62
     1
370
    15
100
AcDbCircle
 10
10.8228841029
 20
3.928084507
 30
0.0
 40
0.7500000000000018
100
AcDbArc
 50
270.0
 51
0.0
  0
LINE
  5
1D6
330
1B4
100
AcDbEntity
  8
0
  6
Continuous
 62
     1
370
    15
100
AcDbLine
 10
12.6929083056
 20
7.4501633286
 30
0.0
 11
12.7040835795
 21
7.2004132304
 31
0.0
  0
LINE
  5
1D7
330
1B4
100
AcDbEntity
  8
0
  6
Continuous
 62
     1
370
    15
100
AcDbLine
 10
12.7040835795
 20
7.2004132304
 30
0.0
 11
14.7020846447
 21
7.289814331
 31
0.0
  0
LINE
  5
1D8
330
1B4
100
AcDbEntity
  8
0
  6
Continuous
 62
     1
370
    15
100
AcDbLine
 10
14.6909093707
 20
7.5395644292
 30
0.0
 11
14.7020846447
 21
7.289814331
 31
0.0
  0
LINE
  5
1D9
330
1B4
100
AcDbEntity
  8
0
  6
Continuous
 62
     1
370
    15
100
AcDbLine
 10
12.6929083056
 20
7.4501633286
 30
0.0
 11
14.6909093707
 21
7.5395644292
 31
0.0
  0
LINE
  5
1DA
330
1B4
100
AcDbEntity
  8
0
  6
Continuous
 62
     1
370
    15
100
AcDbLine
 10
18.5021669341
 20
7.7101001708
 30
0.0
 11
20.5001677617
 21
7.7995012582
 31
0.0
  0
LINE
  5
1DB
330
1B4
100
AcDbEntity
  8
0
  6
Continuous
 62
     1
370
    15
100
AcDbLine
 10
18.5021669341
 20
7.7101001708
 30
0.0
 11
18.5133420618
 21
7.4603500543
 31
0.0
  0
LINE
  5
1DC
330
1B4
100
AcDbEntity
  8
0
  6
Continuous
 62
     1
370
    15
100
AcDbLine
 10
18.5133420618
 20
7.4603500543
 30
0.0
 11
20.5113428986
 21
7.5497511548
 31
0.0
  0
LINE
  5
1DD
330
1B4
100
AcDbEntity
  8
0
  6
Continuous
 62
     1
370
    15
100
AcDbLine
 10
20.5001677617
 20
7.7995012582
 30
0.0
 11
20.5113428986
 21
7.5497511548
 31
0.0
  0
LINE
  5
1DE
330
1B4
100
AcDbEntity
  8
0
  6
Continuous
 62
     1
370
    15
100
AcDbLine
 10
21.1254668863
 20
8.4280845182
 30
0.0
 11
22.6669716397
 21
8.4280845182
 31
0.0
  0
LINE
  5
1DF
330
1B4
100
AcDbEntity
  8
0
  6
Continuous
 62
     1
370
    15
100
AcDbLine
 10
22.6669716397
 20
8.4280845182
 30
0.0
 11
22.6669716397
 21
6.1780844904
 31
0.0
  0
LINE
  5
1E0
330
1B4
100
AcDbEntity
  8
0
  6
Continuous
 62
     1
370
    15
100
AcDbLine
 10
22.6669716397
 20
6.1780844904
 30
0.0
 11
22.5419716222
 21
6.1780844904
 31
0.0
  0
LINE
  5
1E1
330
1B4
100
AcDbEntity
  8
0
  6
Continuous
 62
     1
370
    15
100
AcDbLine
 10
22.5419716222
 20
6.1780844904
 30
0.0
 11
22.5419716222
 21
4.1780843679
 31
0.0
  0
LINE
  5
1E2
330
1B4
100
AcDbEntity
  8
0
  6
Continuous
 62
     1
370
    15
100
AcDbLine
 10
22.5419716222
 20
4.1780843679
 30
0.0
 11
22.6669716397
 21
4.1780843679
 31
0.0
  0
LINE
  5
1E3
330
1B4
100
AcDbEntity
  8
0
  6
Continuous
 62
     1
370
    15
100
AcDbLine
 10
22.6669716397
 20
4.1780843679
 30
0.0
 11
22.6669716397
 21
1.9280844135
 31
0.0
  0
LINE
  5
1E4
330
1B4
100
AcDbEntity
  8
0
  6
Continuous
 62
     1
370
    15
100
AcDbLine
 10
22.6669716397
 20
1.9280844135
 30
0.0
 11
20.6271325498
 21
1.9280844135
 31
0.0
  0
LINE
  5
1E5
330
1B4
100
AcDbEntity
  8
0
  6
Continuous
 62
     1
370
    15
100
AcDbLine
 10
20.6271325498
 20
2.1780842454
 30
0.0
 11
20.6271325498
 21
1.9280844135
 31
0.0
  0
LINE
  5
1E6
330
1B4
100
AcDbEntity
  8
0
  6
Continuous
 62
     1
370
    15
100
AcDbLine
 10
20.6271325498
 20
2.1780842454
 30
0.0
 11
18.6271325307
 21
2.1780842454
 31
0.0
  0
LINE
  5
1E7
330
1B4
100
AcDbEntity
  8
0
  6
Continuous
 62
     1
370
    15
100
AcDbLine
 10
18.6271325307
 20
1.9280844135
 30
0.0
 11
18.6271325307
 21
2.1780842454
 31
0.0
  0
LINE
  5
1E8
330
1B4
100
AcDbEntity
  8
0
  6
Continuous
 62
     1
370
    15
100
AcDbLine
 10
18.6271325307
 20
1.9280844135
 30
0.0
 11
15.1191220147
 21
1.9280844135
 31
0.0
  0
LINE
  5
1E9
330
1B4
100
AcDbEntity
  8
0
  6
Continuous
 62
     1
370
    15
100
AcDbLine
 10
15.1191220147
 20
2.1780842454
 30
0.0
 11
15.1191220147
 21
1.9280844135
 31
0.0
  0
LINE
  5
1EA
330
1B4
100
AcDbEntity
  8
0
  6
Continuous
 62
     1
370
    15
100
AcDbLine
 10
15.1191220147
 20
2.1780842454
 30
0.0
 11
13.1191223657
 21
2.1780842454
 31
0.0
  0
LINE
  5
1EB
330
1B4
100
AcDbEntity
  8
0
  6
Continuous
 62
     1
370
    15
100
AcDbLine
 10
13.1191223657
 20
1.9280844135
 30
0.0
 11
13.1191223657
 21
2.1780842454
 31
0.0
  0
LINE
  5
1EC
330
1B4
100
AcDbEntity
  8
0
  6
Continuous
 62
     1
370
    15
100
AcDbLine
 10
13.1191223657
 20
1.9280844135
 30
0.0
 11
9.6111123115
 21
1.9280844135
 31
0.0
  0
LINE
  5
1ED
330
1B4
100
AcDbEntity
  8
0
  6
Continuous
 62
     1
370
    15
100
AcDbLine
 10
9.6111123115
 20
2.1780842454
 30
0.0
 11
9.6111123115
 21
1.9280844135
 31
0.0
  0
LINE
  5
1EE
330
1B4
100
AcDbEntity
  8
0
  6
Continuous
 62
     1
370
    15
100
AcDbLine
 10
9.6111123115
 20
2.1780842454
 30
0.0
 11
7.6111120777
 21
2.1780842454
 31
0.0
  0
LINE
  5
1EF
330
1B4
100
AcDbEntity
  8
0
  6
Continuous
 62
     1
370
    15
100
AcDbLine
 10
7.6111120777
 20
2.1780842454
 30
0.0
 11
7.6111120777
 21
1.9280844135
 31
0.0
  0
LINE
  5
1F0
330
1B4
100
AcDbEntity
  8
0
  6
Continuous
 62
     1
370
    15
100
AcDbLine
 10
7.6111120777
 20
1.9280844135
 30
0.0
 11
5.6132728594
 21
1.9280844135
 31
0.0
  0
LINE
  5
1F1
330
1B4
100
AcDbEntity
  8
0
  6
Continuous
 62
     1
370
    15
100
AcDbLine
 10
5.6132728594
 20
1.9280844135
 30
0.0
 11
0.5974789484
 21
2.8323250076
 31
0.0
  0
LINE
  5
1F2
330
1B4
100
AcDbEntity
  8
0
  6
Continuous
 62
     1
370
    15
100
AcDbLine
 10
0.5974789484
 20
2.8323250076
 30
0.0
 11
0.5974789484
 21
6.3323251486
 31
0.0
  0
LINE
  5
1F3
330
1B4
100
AcDbEntity
  8
0
  6
Continuous
 62
     1
370
    15
100
AcDbLine
 10
0.5974789484
 20
6.3323251486
 30
0.0
 11
5.6132728594
 21
7.2365658161
 31
0.0
  0
LINE
  5
1F4
330
1B4
100
AcDbEntity
  8
0
  6
Continuous
 62
     1
370
    15
100
AcDbLine
 10
5.6132728594
 20
7.2365658161
 30
0.0
 11
7.0355781372
 21
7.3606095498
 31
0.0
  0
LINE
  5
1F5
330
1B4
100
AcDbEntity
  8
0
  6
Continuous
 62
     1
370
    15
100
AcDbLine
 10
7.0530852189
 20
7.1598715487
 30
0.0
 11
7.0355781372
 21
7.3606095498
 31
0.0
  0
LINE
  5
1F6
330
1B4
100
AcDbEntity
  8
0
  6
Continuous
 62
     1
370
    15
100
AcDbLine
 10
9.0455218867
 20
7.3336383014
 30
0.0
 11
7.0530852189
 21
7.1598715487
 31
0.0
  0
LINE
  5
1F7
330
1B4
100
AcDbEntity
  8
0
  6
Continuous
 62
     1
370
    15
100
AcDbLine
 10
9.0455218867
 20
7.3336383014
 30
0.0
 11
9.0280148051
 21
7.5343763208
 31
0.0
  0
LINE
  5
1F8
330
1B4
100
AcDbEntity
  8
0
  6
Continuous
 62
     1
370
    15
100
AcDbLine
 10
9.0280148051
 20
7.5343763208
 30
0.0
 11
10.4503200714
 21
7.6584200545
 31
0.0
  0
LINE
  5
1F9
330
1B4
100
AcDbEntity
  8
0
  6
Continuous
 62
     1
370
    15
100
AcDbLine
 10
10.4503200714
 20
7.6584200545
 30
0.0
 11
21.1254668863
 21
8.4280845182
 31
0.0
  0
ENDBLK
  5
1B7
330
1B4
100
AcDbEntity
  8
0
100
AcDbBlockEnd
  0
ENDSEC
  0
SECTION
  2
ENTITIES
  0
LINE
  5
6F
330
1F
100
AcDbEntity
  8
0
  6
Continuous
 62
     1
370
    15
100
AcDbLine
 10
23.2994751908
 20
0.8150513885
 30
0.0
 11
23.2994751908
 21
8.1023548583
 31
0.0
  0
LINE
  5
70
330
1F
100
AcDbEntity
  8
0
  6
Continuous
 62
     1
370
    15
100
AcDbLine
 10
19.9337475917
 20
6.9648547721
 30
0.0
 11
19.9337475917
 21
1.952551328
 31
0.0
  0
LINE
  5
71
330
1F
100
AcDbEntity
  8
0
  6
Continuous
 62
     1
370
    15
100
AcDbLine
 10
23.2994751908
 20
8.1023548583
 30
0.0
 11
19.9337475917
 21
6.9648547721
 31
0.0
  0
LINE
  5
72
330
1F
100
AcDbEntity
  8
0
  6
Continuous
 62
     1
370
    15
100
AcDbLine
 10
19.9337475917
 20
1.952551328
 30
0.0
 11
23.2994751908
 21
0.8150513885
 31
0.0
  0
LINE
  5
73
330
1F
100
AcDbEntity
  8
0
  6
Continuous
 62
     1
370
    15
100
AcDbLine
 10
6.1187328266
 20
1.2001079516
 30
0.0
 11
4.1377482803
 21
1.4752446942
 31
0.0
  0
LINE
  5
74
330
1F
100
AcDbEntity
  8
0
  6
Continuous
 62
     1
370
    15
100
AcDbLine
 10
9.548544507
 20
5.0924625451
 30
0.0
 11
9.548544507
 21
3.0924625451
 31
0.0
  0
LINE
  5
75
330
1F
100
AcDbEntity
  8
0
  6
Continuous
 62
     1
370
    15
100
AcDbLine
 10
9.673544507
 20
3.0924625451
 30
0.0
 11
9.548544507
 21
3.0924625451
 31
0.0
  0
LINE
  5
76
330
1F
100
AcDbEntity
  8
0
  6
Continuous
 62
     1
370
    15
100
AcDbLine
 10
9.673544507
 20
5.0924625451
 30
0.0
 11
9.673544507
 21
3.0924625451
 31
0.0
  0
LINE
  5
77
330
1F
100
AcDbEntity
  8
0
  6
Continuous
 62
     1
370
    15
100
AcDbLine
 10
9.673544507
 20
5.0924625451
 30
0.0
 11
9.548544507
 21
5.0924625451
 31
0.0
  0
LINE
  5
78
330
1F
100
AcDbEntity
  8
0
  6
Continuous
 62
     1
370
    15
100
AcDbLine
 10
4.1205522339
 20
1.35143316
 30
0.0
 11
4.1377482803
 21
1.4752446942
 31
0.0
  0
LINE
  5
79
330
1F
100
AcDbEntity
  8
0
  6
Continuous
 62
     1
370
    15
100
AcDbLine
 10
4.1205522339
 20
1.35143316
 30
0.0
 11
0.611044507
 21
1.8388647887
 31
0.0
  0
LINE
  5
7A
330
1F
100
AcDbEntity
  8
0
  6
Continuous
 62
     1
370
    15
100
AcDbLine
 10
0.611044507
 20
1.8388647887
 30
0.0
 11
0.611044507
 21
4.0888647887
 31
0.0
  0
LINE
  5
7B
330
1F
100
AcDbEntity
  8
0
  6
Continuous
 62
     1
370
    15
100
AcDbLine
 10
0.736044507
 20
4.0888647887
 30
0.0
 11
0.611044507
 21
4.0888647887
 31
0.0
  0
LINE
  5
7C
330
1F
100
AcDbEntity
  8
0
  6
Continuous
 62
     1
370
    15
100
AcDbLine
 10
0.736044507
 20
6.0888647887
 30
0.0
 11
0.736044507
 21
4.0888647887
 31
0.0
  0
LINE
  5
7D
330
1F
100
AcDbEntity
  8
0
  6
Continuous
 62
     1
370
    15
100
AcDbLine
 10
0.611044507
 20
6.0888647887
 30
0.0
 11
0.736044507
 21
6.0888647887
 31
0.0
  0
LINE
  5
7E
330
1F
100
AcDbEntity
  8
0
  6
Continuous
 62
     1
370
    15
100
AcDbLine
 10
0.611044507
 20
6.0888647887
 30
0.0
 11
0.611044507
 21
8.3388647887
 31
0.0
  0
LINE
  5
7F
330
1F
100
AcDbEntity
  8
0
  6
Continuous
 62
     1
370
    15
100
AcDbLine
 10
0.611044507
 20
8.3388647887
 30
0.0
 11
4.111044507
 21
8.3388647887
 31
0.0
  0
LINE
  5
80
330
1F
100
AcDbEntity
  8
0
  6
Continuous
 62
     1
370
    15
100
AcDbLine
 10
4.111044507
 20
8.3388647887
 30
0.0
 11
4.111044507
 21
8.1373647887
 31
0.0
  0
LINE
  5
81
330
1F
100
AcDbEntity
  8
0
  6
Continuous
 62
     1
370
    15
100
AcDbLine
 10
4.111044507
 20
8.1373647887
 30
0.0
 11
6.111044507
 21
8.1373647887
 31
0.0
  0
LINE
  5
82
330
1F
100
AcDbEntity
  8
0
  6
Continuous
 62
     1
370
    15
100
AcDbLine
 10
6.111044507
 20
8.3388647887
 30
0.0
 11
6.111044507
 21
8.1373647887
 31
0.0
  0
LINE
  5
83
330
1F
100
AcDbEntity
  8
0
  6
Continuous
 62
     1
370
    15
100
AcDbLine
 10
6.111044507
 20
8.3388647887
 30
0.0
 11
11.111044507
 21
8.3388647887
 31
0.0
  0
LINE
  5
84
330
1F
100
AcDbEntity
  8
0
  6
Continuous
 62
     1
370
    15
100
AcDbLine
 10
11.111044507
 20
8.3388647887
 30
0.0
 11
11.111044507
 21
8.1373647887
 31
0.0
  0
LINE
  5
85
330
1F
100
AcDbEntity
  8
0
  6
Continuous
 62
     1
370
    15
100
AcDbLine
 10
13.111044507
 20
8.1373647887
 30
0.0
 11
11.111044507
 21
8.1373647887
 31
0.0
  0
LINE
  5
86
330
1F
100
AcDbEntity
  8
0
  6
Continuous
 62
     1
370
    15
100
AcDbLine
 10
13.111044507
 20
8.3388647887
 30
0.0
 11
13.111044507
 21
8.1373647887
 31
0.0
  0
LINE
  5
87
330
1F
100
AcDbEntity
  8
0
  6
Continuous
 62
     1
370
    15
100
AcDbLine
 10
13.111044507
 20
8.3388647887
 30
0.0
 11
16.111044507
 21
8.3388647887
 31
0.0
  0
LINE
  5
88
330
1F
100
AcDbEntity
  8
0
  6
Continuous
 62
     1
370
    15
100
AcDbLine
 10
16.111044507
 20
8.3388647887
 30
0.0
 11
16.111044507
 21
8.1373647887
 31
0.0
  0
LINE
  5
89
330
1F
100
AcDbEntity
  8
0
  6
Continuous
 62
     1
370
    15
100
AcDbLine
 10
18.111044507
 20
8.1373647887
 30
0.0
 11
16.111044507
 21
8.1373647887
 31
0.0
  0
LINE
  5
8A
330
1F
100
AcDbEntity
  8
0
  6
Continuous
 62
     1
370
    15
100
AcDbLine
 10
18.111044507
 20
8.3388647887
 30
0.0
 11
18.111044507
 21
8.1373647887
 31
0.0
  0
LINE
  5
8B
330
1F
100
AcDbEntity
  8
0
  6
Continuous
 62
     1
370
    15
100
AcDbLine
 10
18.111044507
 20
8.3388647887
 30
0.0
 11
19.611044507
 21
8.3388647887
 31
0.0
  0
LINE
  5
8C
330
1F
100
AcDbEntity
  8
0
  6
Continuous
 62
     1
370
    15
100
AcDbLine
 10
19.611044507
 20
8.3388647887
 30
0.0
 11
19.611044507
 21
5.4638647887
 31
0.0
  0
LINE
  5
8D
330
1F
100
AcDbEntity
  8
0
  6
Continuous
 62
     1
370
    15
100
AcDbLine
 10
19.611044507
 20
5.4638647887
 30
0.0
 11
19.208044507
 21
5.4638647887
 31
0.0
  0
LINE
  5
8E
330
1F
100
AcDbEntity
  8
0
  6
Continuous
 62
     1
370
    15
100
AcDbLine
 10
19.208044507
 20
5.4638647887
 30
0.0
 11
19.208044507
 21
3.4638647887
 31
0.0
  0
LINE
  5
8F
330
1F
100
AcDbEntity
  8
0
  6
Continuous
 62
     1
370
    15
100
AcDbLine
 10
19.208044507
 20
3.4638647887
 30
0.0
 11
19.611044507
 21
3.4638647887
 31
0.0
  0
LINE
  5
90
330
1F
100
AcDbEntity
  8
0
  6
Continuous
 62
     1
370
    15
100
AcDbLine
 10
19.611044507
 20
3.4638647887
 30
0.0
 11
19.611044507
 21
0.5888647887
 31
0.0
  0
LINE
  5
91
330
1F
100
AcDbEntity
  8
0
  6
Continuous
 62
     1
370
    15
100
AcDbLine
 10
19.611044507
 20
0.5888647887
 30
0.0
 11
18.111044507
 21
0.5888647887
 31
0.0
  0
LINE
  5
92
330
1F
100
AcDbEntity
  8
0
  6
Continuous
 62
     1
370
    15
100
AcDbLine
 10
18.111044507
 20
0.7138647887
 30
0.0
 11
18.111044507
 21
0.5888647887
 31
0.0
  0
LINE
  5
93
330
1F
100
AcDbEntity
  8
0
  6
Continuous
 62
     1
370
    15
100
AcDbLine
 10
18.111044507
 20
0.7138647887
 30
0.0
 11
16.111044507
 21
0.7138647887
 31
0.0
  0
LINE
  5
94
330
1F
100
AcDbEntity
  8
0
  6
Continuous
 62
     1
370
    15
100
AcDbLine
 10
16.111044507
 20
0.5888647887
 30
0.0
 11
16.111044507
 21
0.7138647887
 31
0.0
  0
LINE
  5
95
330
1F
100
AcDbEntity
  8
0
  6
Continuous
 62
     1
370
    15
100
AcDbLine
 10
16.111044507
 20
0.5888647887
 30
0.0
 11
13.111044507
 21
0.5888647887
 31
0.0
  0
LINE
  5
96
330
1F
100
AcDbEntity
  8
0
  6
Continuous
 62
     1
370
    15
100
AcDbLine
 10
13.111044507
 20
0.5888647887
 30
0.0
 11
13.111044507
 21
0.7138647887
 31
0.0
  0
LINE
  5
97
330
1F
100
AcDbEntity
  8
0
  6
Continuous
 62
     1
370
    15
100
AcDbLine
 10
13.111044507
 20
0.7138647887
 30
0.0
 11
11.111044507
 21
0.7138647887
 31
0.0
  0
LINE
  5
98
330
1F
100
AcDbEntity
  8
0
  6
Continuous
 62
     1
370
    15
100
AcDbLine
 10
11.111044507
 20
0.7138647887
 30
0.0
 11
11.111044507
 21
0.5888647887
 31
0.0
  0
LINE
  5
99
330
1F
100
AcDbEntity
  8
0
  6
Continuous
 62
     1
370
    15
100
AcDbLine
 10
11.111044507
 20
0.5888647887
 30
0.0
 11
9.611044507
 21
0.5888647887
 31
0.0
  0
LINE
  5
9A
330
1F
100
AcDbEntity
  8
0
  6
Continuous
 62
     1
370
    15
100
AcDbLine
 10
9.611044507
 20
0.5888647887
 30
0.0
 11
6.1015367802
 21
1.0762964175
 31
0.0
  0
LINE
  5
9B
330
1F
100
AcDbEntity
  8
0
  6
Continuous
 62
     1
370
    15
100
AcDbLine
 10
6.1015367802
 20
1.0762964175
 30
0.0
 11
6.1187328266
 21
1.2001079516
 31
0.0
  0
LINE
  5
9C
330
1B
100
AcDbEntity
 67
     1
  8
0
  6
Continuous
 62
     1
370
    15
100
AcDbLine
 10
13.9476663966
 20
1.201646051
 30
0.0
 11
15.9286508188
 21
1.4767824993
 31
0.0
  0
LINE
  5
9D
330
1B
100
AcDbEntity
 67
     1
  8
0
  6
Continuous
 62
     1
370
    15
100
AcDbLine
 10
10.5178543914
 20
5.0940003662
 30
0.0
 11
10.5178543914
 21
3.0940002437
 31
0.0
  0
LINE
  5
9E
330
1B
100
AcDbEntity
 67
     1
  8
0
  6
Continuous
 62
     1
370
    15
100
AcDbLine
 10
10.3928547688
 20
3.0940002437
 30
0.0
 11
10.5178543914
 21
3.0940002437
 31
0.0
  0
LINE
  5
9F
330
1B
100
AcDbEntity
 67
     1
  8
0
  6
Continuous
 62
     1
370
    15
100
AcDbLine
 10
10.3928547688
 20
5.0940003662
 30
0.0
 11
10.3928547688
 21
3.0940002437
 31
0.0
  0
LINE
  5
A0
330
1B
100
AcDbEntity
 67
     1
  8
0
  6
Continuous
 62
     1
370
    15
100
AcDbLine
 10
10.3928547688
 20
5.0940003662
 30
0.0
 11
10.5178543914
 21
5.0940003662
 31
0.0
  0
LINE
  5
A1
330
1B
100
AcDbEntity
 67
     1
  8
0
  6
Continuous
 62
     1
370
    15
100
AcDbLine
 10
15.9458469935
 20
1.3529708629
 30
0.0
 11
15.9286508188
 21
1.4767824993
 31
0.0
  0
LINE
  5
A2
330
1B
100
AcDbEntity
 67
     1
  8
0
  6
Continuous
 62
     1
370
    15
100
AcDbLine
 10
15.9458469935
 20
1.3529708629
 30
0.0
 11
19.455354838
 21
1.840402512
 31
0.0
  0
LINE
  5
A3
330
1B
100
AcDbEntity
 67
     1
  8
0
  6
Continuous
 62
     1
370
    15
100
AcDbLine
 10
19.455354838
 20
1.840402512
 30
0.0
 11
19.455354838
 21
4.0904024665
 31
0.0
  0
LINE
  5
A4
330
1B
100
AcDbEntity
 67
     1
  8
0
  6
Continuous
 62
     1
370
    15
100
AcDbLine
 10
19.3303547753
 20
4.0904024665
 30
0.0
 11
19.455354838
 21
4.0904024665
 31
0.0
  0
LINE
  5
A5
330
1B
100
AcDbEntity
 67
     1
  8
0
  6
Continuous
 62
     1
370
    15
100
AcDbLine
 10
19.3303547753
 20
6.090402589
 30
0.0
 11
19.3303547753
 21
4.0904024665
 31
0.0
  0
LINE
  5
A6
330
1B
100
AcDbEntity
 67
     1
  8
0
  6
Continuous
 62
     1
370
    15
100
AcDbLine
 10
19.455354838
 20
6.090402589
 30
0.0
 11
19.3303547753
 21
6.090402589
 31
0.0
  0
LINE
  5
A7
330
1B
100
AcDbEntity
 67
     1
  8
0
  6
Continuous
 62
     1
370
    15
100
AcDbLine
 10
19.455354838
 20
6.090402589
 30
0.0
 11
19.455354838
 21
8.3404026168
 31
0.0
  0
LINE
  5
A8
330
1B
100
AcDbEntity
 67
     1
  8
0
  6
Continuous
 62
     1
370
    15
100
AcDbLine
 10
19.455354838
 20
8.3404026168
 30
0.0
 11
15.9553549903
 21
8.3404026168
 31
0.0
  0
LINE
  5
A9
330
1B
100
AcDbEntity
 67
     1
  8
0
  6
Continuous
 62
     1
370
    15
100
AcDbLine
 10
15.9553549903
 20
8.3404026168
 30
0.0
 11
15.9553549903
 21
8.1389026179
 31
0.0
  0
LINE
  5
AA
330
1B
100
AcDbEntity
 67
     1
  8
0
  6
Continuous
 62
     1
370
    15
100
AcDbLine
 10
15.9553549903
 20
8.1389026179
 30
0.0
 11
13.9553545745
 21
8.1389026179
 31
0.0
  0
LINE
  5
AB
330
1B
100
AcDbEntity
 67
     1
  8
0
  6
Continuous
 62
     1
370
    15
100
AcDbLine
 10
13.9553545745
 20
8.3404026168
 30
0.0
 11
13.9553545745
 21
8.1389026179
 31
0.0
  0
LINE
  5
AC
330
1B
100
AcDbEntity
 67
     1
  8
0
  6
Continuous
 62
     1
370
    15
100
AcDbLine
 10
13.9553545745
 20
8.3404026168
 30
0.0
 11
8.9553550015
 21
8.3404026168
 31
0.0
  0
LINE
  5
AD
330
1B
100
AcDbEntity
 67
     1
  8
0
  6
Continuous
 62
     1
370
    15
100
AcDbLine
 10
8.9553550015
 20
8.3404026168
 30
0.0
 11
8.9553550015
 21
8.1389026179
 31
0.0
  0
LINE
  5
AE
330
1B
100
AcDbEntity
 67
     1
  8
0
  6
Continuous
 62
     1
370
    15
100
AcDbLine
 10
6.9553551724
 20
8.1389026179
 30
0.0
 11
8.9553550015
 21
8.1389026179
 31
0.0
  0
LINE
  5
AF
330
1B
100
AcDbEntity
 67
     1
  8
0
  6
Continuous
 62
     1
370
    15
100
AcDbLine
 10
6.9553551724
 20
8.3404026168
 30
0.0
 11
6.9553551724
 21
8.1389026179
 31
0.0
  0
LINE
  5
B0
330
1B
100
AcDbEntity
 67
     1
  8
0
  6
Continuous
 62
     1
370
    15
100
AcDbLine
 10
6.9553551724
 20
8.3404026168
 30
0.0
 11
3.955354842
 21
8.3404026168
 31
0.0
  0
LINE
  5
B1
330
1B
100
AcDbEntity
 67
     1
  8
0
  6
Continuous
 62
     1
370
    15
100
AcDbLine
 10
3.955354842
 20
8.3404026168
 30
0.0
 11
3.955354842
 21
8.1389026179
 31
0.0
  0
LINE
  5
B2
330
1B
100
AcDbEntity
 67
     1
  8
0
  6
Continuous
 62
     1
370
    15
100
AcDbLine
 10
1.9553550128
 20
8.1389026179
 30
0.0
 11
3.955354842
 21
8.1389026179
 31
0.0
  0
LINE
  5
B3
330
1B
100
AcDbEntity
 67
     1
  8
0
  6
Continuous
 62
     1
370
    15
100
AcDbLine
 10
1.9553550128
 20
8.3404026168
 30
0.0
 11
1.9553550128
 21
8.1389026179
 31
0.0
  0
LINE
  5
B4
330
1B
100
AcDbEntity
 67
     1
  8
0
  6
Continuous
 62
     1
370
    15
100
AcDbLine
 10
1.9553550128
 20
8.3404026168
 30
0.0
 11
0.4553548476
 21
8.3404026168
 31
0.0
  0
LINE
  5
B5
330
1B
100
AcDbEntity
 67
     1
  8
0
  6
Continuous
 62
     1
370
    15
100
AcDbLine
 10
0.4553548476
 20
8.3404026168
 30
0.0
 11
0.4553548476
 21
5.465402569
 31
0.0
  0
LINE
  5
B6
330
1B
100
AcDbEntity
 67
     1
  8
0
  6
Continuous
 62
     1
370
    15
100
AcDbLine
 10
0.4553548476
 20
3.4654025932
 30
0.0
 11
0.4553548476
 21
0.5904027655
 31
0.0
  0
LINE
  5
B7
330
1B
100
AcDbEntity
 67
     1
  8
0
  6
Continuous
 62
     1
370
    15
100
AcDbLine
 10
0.4553548476
 20
0.5904027655
 30
0.0
 11
1.9553550128
 21
0.5904027655
 31
0.0
  0
LINE
  5
B8
330
1B
100
AcDbEntity
 67
     1
  8
0
  6
Continuous
 62
     1
370
    15
100
AcDbLine
 10
1.9553550128
 20
0.7154023881
 30
0.0
 11
1.9553550128
 21
0.5904027655
 31
0.0
  0
LINE
  5
B9
330
1B
100
AcDbEntity
 67
     1
  8
0
  6
Continuous
 62
     1
370
    15
100
AcDbLine
 10
1.9553550128
 20
0.7154023881
 30
0.0
 11
3.955354842
 21
0.7154023881
 31
0.0
  0
LINE
  5
BA
330
1B
100
AcDbEntity
 67
     1
  8
0
  6
Continuous
 62
     1
370
    15
100
AcDbLine
 10
3.955354842
 20
0.5904027655
 30
0.0
 11
3.955354842
 21
0.7154023881
 31
0.0
  0
LINE
  5
BB
330
1B
100
AcDbEntity
 67
     1
  8
0
  6
Continuous
 62
     1
370
    15
100
AcDbLine
 10
3.955354842
 20
0.5904027655
 30
0.0
 11
6.9553551724
 21
0.5904027655
 31
0.0
  0
LINE
  5
BC
330
1B
100
AcDbEntity
 67
     1
  8
0
  6
Continuous
 62
     1
370
    15
100
AcDbLine
 10
6.9553551724
 20
0.5904027655
 30
0.0
 11
6.9553551724
 21
0.7154023881
 31
0.0
  0
LINE
  5
BD
330
1B
100
AcDbEntity
 67
     1
  8
0
  6
Continuous
 62
     1
370
    15
100
AcDbLine
 10
6.9553551724
 20
0.7154023881
 30
0.0
 11
8.9553550015
 21
0.7154023881
 31
0.0
  0
LINE
  5
BE
330
1B
100
AcDbEntity
 67
     1
  8
0
  6
Continuous
 62
     1
370
    15
100
AcDbLine
 10
8.9553550015
 20
0.7154023881
 30
0.0
 11
8.9553550015
 21
0.5904027655
 31
0.0
  0
LINE
  5
BF
330
1B
100
AcDbEntity
 67
     1
  8
0
  6
Continuous
 62
     1
370
    15
100
AcDbLine
 10
8.9553550015
 20
0.5904027655
 30
0.0
 11
10.4553551668
 21
0.5904027655
 31
0.0
  0
LINE
  5
C0
330
1B
100
AcDbEntity
 67
     1
  8
0
  6
Continuous
 62
     1
370
    15
100
AcDbLine
 10
10.4553551668
 20
0.5904027655
 30
0.0
 11
13.9648625713
 21
1.0778344146
 31
0.0
  0
LINE
  5
C1
330
1B
100
AcDbEntity
 67
     1
  8
0
  6
Continuous
 62
     1
370
    15
100
AcDbLine
 10
13.9648625713
 20
1.0778344146
 30
0.0
 11
13.9476663966
 21
1.201646051
 31
0.0
  0
LINE
  5
C2
330
1B
100
AcDbEntity
 67
     1
  8
0
  6
Continuous
 62
     1
370
    15
100
AcDbLine
 10
23.3807963342
 20
0.7555614972
 30
0.0
 11
23.3807963342
 21
8.042864967
 31
0.0
  0
LINE
  5
C3
330
1B
100
AcDbEntity
 67
     1
  8
0
  6
Continuous
 62
     1
370
    15
100
AcDbLine
 10
20.015068735
 20
6.9053648808
 30
0.0
 11
20.015068735
 21
1.8930614367
 31
0.0
  0
LINE
  5
C4
330
1B
100
AcDbEntity
 67
     1
  8
0
  6
Continuous
 62
     1
370
    15
100
AcDbLine
 10
23.3807963342
 20
8.042864967
 30
0.0
 11
20.015068735
 21
6.9053648808
 31
0.0
  0
LINE
  5
C5
330
1B
100
AcDbEntity
 67
     1
  8
0
  6
Continuous
 62
     1
370
    15
100
AcDbLine
 10
20.015068735
 20
1.8930614367
 30
0.0
 11
23.3807963342
 21
0.7555614972
 31
0.0
  0
ENDSEC
  0
SECTION
  2
OBJECTS
  0
DICTIONARY
  5
C
330
0
100
AcDbDictionary
281
     1
  3
ACAD_GROUP
350
D
  3
ACAD_LAYOUT
350
1A
  3
ACAD_MLINESTYLE
350
17
  3
ACAD_PLOTSETTINGS
350
19
  3
ACAD_PLOTSTYLENAME
350
E
  3
ACAD_SCALELIST
350
47
  0
DICTIONARY
  5
D
102
{ACAD_REACTORS
330
C
102
}
330
C
100
AcDbDictionary
281
     1
  0
DICTIONARY
  5
1A
102
{ACAD_REACTORS
330
C
102
}
330
C
100
AcDbDictionary
281
     1
  3
Model
350
22
  3
Sheet2
350
1E
  3
Sheet3
350
26
  3
Sheet4
350
12B
  3
Sheet5
350
16F
  3
Sheet6
350
1B5
  0
DICTIONARY
  5
17
102
{ACAD_REACTORS
330
C
102
}
330
C
100
AcDbDictionary
281
     1
  3
Standard
350
18
  0
DICTIONARY
  5
19
102
{ACAD_REACTORS
330
C
102
}
330
C
100
AcDbDictionary
281
     1
  0
ACDBDICTIONARYWDFLT
  5
E
102
{ACAD_REACTORS
330
C
102
}
330
C
100
AcDbDictionary
281
     1
  3
Normal
350
F
100
AcDbDictionaryWithDefault
340
F
  0
DICTIONARY
  5
47
102
{ACAD_REACTORS
330
C
102
}
330
C
100
AcDbDictionary
281
     1
  3
A0
350
48
  3
A1
350
49
  3
A2
350
4A
  3
A3
350
4B
  3
A4
350
4C
  3
A5
350
4D
  3
A6
350
4E
  3
A7
350
4F
  3
A8
350
50
  3
A9
350
51
  3
B0
350
52
  3
B1
350
53
  3
B2
350
54
  3
B3
350
55
  3
B4
350
56
  3
B5
350
57
  3
B6
350
58
  3
B7
350
59
  3
B8
350
5A
  3
B9
350
5B
  3
C0
350
5C
  3
C1
350
5D
  3
C2
350
5E
  3
C3
350
5F
  3
C4
350
60
  3
C5
350
61
  3
C6
350
62
  3
C7
350
63
  3
C8
350
64
  3
C9
350
65
  3
D0
350
66
  3
D1
350
67
  3
D2
350
68
  0
LAYOUT
  5
22
102
{ACAD_REACTORS
330
1A
102
}
330
1A
100
AcDbPlotSettings
  1

  2
none_device
  4
Letter_(8.50_x_11.00_Inches)
  6

 40
6.35
 41
6.35
 42
6.35000508
 43
6.35000508
 44
215.9
 45
279.4
 46
0.0
 47
0.0
 48
0.0
 49
0.0
140
0.0
141
0.0
142
1.0
143
1.0
 70
  1712
 72
     0
 73
     0
 74
     0
  7

 75
     0
147
1.0
148
0.0
149
0.0
100
AcDbLayout
  1
Model
 70
     1
 71
     0
 10
0.0
 20
0.0
 11
24.0
 21
9.0
 12
0.0
 22
0.0
 32
0.0
 14
0.0
 24
0.0
 34
0.0
 15
24.0
 25
9.0
 35
0.0
146
0.0
 13
0.0
 23
0.0
 33
0.0
 16
1.0
 26
0.0
 36
0.0
 17
0.0
 27
1.0
 37
0.0
 76
     0
330
1F
331
29
  0
LAYOUT
  5
1E
102
{ACAD_REACTORS
330
1A
102
}
330
1A
100
AcDbPlotSettings
  1

  2
none_device
  4
ANSI_D_(34.00_x_22.00_Inches)
  6

 40
6.35
 41
19.05
 42
6.3499746
 43
19.0499873
 44
863.6
 45
558.8
 46
0.0
 47
0.0
 48
0.0
 49
0.0
140
0.0
141
0.0
142
1.0
143
1.0
 70
  4832
 72
     0
 73
     0
 74
     1
  7

 75
     0
147
1.0
148
0.0
149
0.0
100
AcDbLayout
  1
Sheet2
 70
     1
 71
     1
 10
0.0
 20
0.0
 11
24.0
 21
9.0
 12
0.0
 22
0.0
 32
0.0
 14
0.0
 24
0.0
 34
0.0
 15
24.0
 25
9.0
 35
0.0
146
0.0
 13
0.0
 23
0.0
 33
0.0
 16
1.0
 26
0.0
 36
0.0
 17
0.0
 27
1.0
 37
0.0
 76
     0
330
1B
  0
LAYOUT
  5
26
102
{ACAD_REACTORS
330
1A
102
}
330
1A
100
AcDbPlotSettings
  1

  2
none_device
  4
ANSI_D_(34.00_x_22.00_Inches)
  6

 40
6.35
 41
19.05
 42
6.3499746
 43
19.0499873
 44
863.6
 45
558.8
 46
0.0
 47
0.0
 48
0.0
 49
0.0
140
0.0
141
0.0
142
1.0
143
1.0
 70
  4832
 72
     0
 73
     0
 74
     1
  7

 75
    16
147
1.0
148
0.0
149
0.0
100
AcDbLayout
  1
Sheet3
 70
     1
 71
     2
 10
0.0
 20
0.0
 11
24.0
 21
9.0
 12
0.0
 22
0.0
 32
0.0
 14
0.0
 24
0.0
 34
0.0
 15
24.0
 25
9.0
 35
0.0
146
0.0
 13
0.0
 23
0.0
 33
0.0
 16
1.0
 26
0.0
 36
0.0
 17
0.0
 27
1.0
 37
0.0
 76
     0
330
23
  0
LAYOUT
  5
12B
102
{ACAD_REACTORS
330
1A
102
}
330
1A
100
AcDbPlotSettings
  1

  2
none_device
  4
ANSI_D_(34.00_x_22.00_Inches)
  6

 40
6.35
 41
19.05
 42
6.3499746
 43
19.0499873
 44
863.6
 45
558.8
 46
0.0
 47
0.0
 48
0.0
 49
0.0
140
0.0
141
0.0
142
1.0
143
1.0
 70
  4832
 72
     0
 73
     0
 74
     1
  7

 75
    16
147
1.0
148
0.0
149
0.0
100
AcDbLayout
  1
Sheet4
 70
     1
 71
     3
 10
0.0
 20
0.0
 11
24.0
 21
9.0
 12
0.0
 22
0.0
 32
0.0
 14
0.0
 24
0.0
 34
0.0
 15
24.0
 25
9.0
 35
0.0
146
0.0
 13
0.0
 23
0.0
 33
0.0
 16
1.0
 26
0.0
 36
0.0
 17
0.0
 27
1.0
 37
0.0
 76
     0
330
12A
  0
LAYOUT
  5
16F
102
{ACAD_REACTORS
330
1A
102
}
330
1A
100
AcDbPlotSettings
  1

  2
none_device
  4
ANSI_D_(34.00_x_22.00_Inches)
  6

 40
6.35
 41
19.05
 42
6.3499746
 43
19.0499873
 44
863.6
 45
558.8
 46
0.0
 47
0.0
 48
0.0
 49
0.0
140
0.0
141
0.0
142
1.0
143
1.0
 70
  4832
 72
     0
 73
     0
 74
     1
  7

 75
    16
147
1.0
148
0.0
149
0.0
100
AcDbLayout
  1
Sheet5
 70
     1
 71
     4
 10
0.0
 20
0.0
 11
24.0
 21
9.0
 12
0.0
 22
0.0
 32
0.0
 14
0.0
 24
0.0
 34
0.0
 15
24.0
 25
9.0
 35
0.0
146
0.0
 13
0.0
 23
0.0
 33
0.0
 16
1.0
 26
0.0
 36
0.0
 17
0.0
 27
1.0
 37
0.0
 76
     0
330
16E
  0
LAYOUT
  5
1B5
102
{ACAD_REACTORS
330
1A
102
}
330
1A
100
AcDbPlotSettings
  1

  2
none_device
  4
ANSI_D_(34.00_x_22.00_Inches)
  6

 40
6.35
 41
19.05
 42
6.3499746
 43
19.0499873
 44
863.6
 45
558.8
 46
0.0
 47
0.0
 48
0.0
 49
0.0
140
0.0
141
0.0
142
1.0
143
1.0
 70
  4832
 72
     0
 73
     0
 74
     1
  7

 75
    16
147
1.0
148
0.0
149
0.0
100
AcDbLayout
  1
Sheet6
 70
     1
 71
     5
 10
0.0
 20
0.0
 11
24.0
 21
9.0
 12
0.0
 22
0.0
 32
0.0
 14
0.0
 24
0.0
 34
0.0
 15
24.0
 25
9.0
 35
0.0
146
0.0
 13
0.0
 23
0.0
 33
0.0
 16
1.0
 26
0.0
 36
0.0
 17
0.0
 27
1.0
 37
0.0
 76
     0
330
1B4
  0
MLINESTYLE
  5
18
102
{ACAD_REACTORS
330
17
102
}
330
17
100
AcDbMlineStyle
  2
Standard
 70
     0
  3

 62
   256
 51
90.0
 52
90.0
 71
     2
 49
0.5
 62
   256
  6
BYLAYER
 49
-0.5
 62
   256
  6
BYLAYER
  0
ACDBPLACEHOLDER
  5
F
102
{ACAD_REACTORS
330
E
102
}
330
E
  0
SCALE
  5
48
102
{ACAD_REACTORS
330
47
102
}
330
47
100
AcDbScale
 70
     0
300
1:1
140
1.0
141
1.0
290
     1
  0
SCALE
  5
49
102
{ACAD_REACTORS
330
47
102
}
330
47
100
AcDbScale
 70
     0
300
1:2
140
1.0
141
2.0
290
     0
  0
SCALE
  5
4A
102
{ACAD_REACTORS
330
47
102
}
330
47
100
AcDbScale
 70
     0
300
1:4
140
1.0
141
4.0
290
     0
  0
SCALE
  5
4B
102
{ACAD_REACTORS
330
47
102
}
330
47
100
AcDbScale
 70
     0
300
1:5
140
1.0
141
5.0
290
     0
  0
SCALE
  5
4C
102
{ACAD_REACTORS
330
47
102
}
330
47
100
AcDbScale
 70
     0
300
1:8
140
1.0
141
8.0
290
     0
  0
SCALE
  5
4D
102
{ACAD_REACTORS
330
47
102
}
330
47
100
AcDbScale
 70
     0
300
1:10
140
1.0
141
10.0
290
     0
  0
SCALE
  5
4E
102
{ACAD_REACTORS
330
47
102
}
330
47
100
AcDbScale
 70
     0
300
1:16
140
1.0
141
16.0
290
     0
  0
SCALE
  5
4F
102
{ACAD_REACTORS
330
47
102
}
330
47
100
AcDbScale
 70
     0
300
1:20
140
1.0
141
20.0
290
     0
  0
SCALE
  5
50
102
{ACAD_REACTORS
330
47
102
}
330
47
100
AcDbScale
 70
     0
300
1:30
140
1.0
141
30.0
290
     0
  0
SCALE
  5
51
102
{ACAD_REACTORS
330
47
102
}
330
47
100
AcDbScale
 70
     0
300
1:40
140
1.0
141
40.0
290
     0
  0
SCALE
  5
52
102
{ACAD_REACTORS
330
47
102
}
330
47
100
AcDbScale
 70
     0
300
1:50
140
1.0
141
50.0
290
     0
  0
SCALE
  5
53
102
{ACAD_REACTORS
330
47
102
}
330
47
100
AcDbScale
 70
     0
300
1:100
140
1.0
141
100.0
290
     0
  0
SCALE
  5
54
102
{ACAD_REACTORS
330
47
102
}
330
47
100
AcDbScale
 70
     0
300
2:1
140
2.0
141
1.0
290
     0
  0
SCALE
  5
55
102
{ACAD_REACTORS
330
47
102
}
330
47
100
AcDbScale
 70
     0
300
4:1
140
4.0
141
1.0
290
     0
  0
SCALE
  5
56
102
{ACAD_REACTORS
330
47
102
}
330
47
100
AcDbScale
 70
     0
300
8:1
140
8.0
141
1.0
290
     0
  0
SCALE
  5
57
102
{ACAD_REACTORS
330
47
102
}
330
47
100
AcDbScale
 70
     0
300
10:1
140
10.0
141
1.0
290
     0
  0
SCALE
  5
58
102
{ACAD_REACTORS
330
47
102
}
330
47
100
AcDbScale
 70
     0
300
100:1
140
100.0
141
1.0
290
     0
  0
SCALE
  5
59
102
{ACAD_REACTORS
330
47
102
}
330
47
100
AcDbScale
 70
     0
300
1/128" = 1'-0"
140
0.0078125
141
12.0
290
     0
  0
SCALE
  5
5A
102
{ACAD_REACTORS
330
47
102
}
330
47
100
AcDbScale
 70
     0
300
1/64" = 1'-0"
140
0.015625
141
12.0
290
     0
  0
SCALE
  5
5B
102
{ACAD_REACTORS
330
47
102
}
330
47
100
AcDbScale
 70
     0
300
1/32" = 1'-0"
140
0.03125
141
12.0
290
     0
  0
SCALE
  5
5C
102
{ACAD_REACTORS
330
47
102
}
330
47
100
AcDbScale
 70
     0
300
1/16" = 1'-0"
140
0.0625
141
12.0
290
     0
  0
SCALE
  5
5D
102
{ACAD_REACTORS
330
47
102
}
330
47
100
AcDbScale
 70
     0
300
3/32" = 1'-0"
140
0.09375
141
12.0
290
     0
  0
SCALE
  5
5E
102
{ACAD_REACTORS
330
47
102
}
330
47
100
AcDbScale
 70
     0
300
1/8" = 1'-0"
140
0.125
141
12.0
290
     0
  0
SCALE
  5
5F
102
{ACAD_REACTORS
330
47
102
}
330
47
100
AcDbScale
 70
     0
300
3/16" = 1'-0"
140
0.1875
141
12.0
290
     0
  0
SCALE
  5
60
102
{ACAD_REACTORS
330
47
102
}
330
47
100
AcDbScale
 70
     0
300
1/4" = 1'-0"
140
0.25
141
12.0
290
     0
  0
SCALE
  5
61
102
{ACAD_REACTORS
330
47
102
}
330
47
100
AcDbScale
 70
     0
300
3/8" = 1'-0"
140
0.375
141
12.0
290
     0
  0
SCALE
  5
62
102
{ACAD_REACTORS
330
47
102
}
330
47
100
AcDbScale
 70
     0
300
1/2" = 1'-0"
140
0.5
141
12.0
290
     0
  0
SCALE
  5
63
102
{ACAD_REACTORS
330
47
102
}
330
47
100
AcDbScale
 70
     0
300
3/4" = 1'-0"
140
0.75
141
12.0
290
     0
  0
SCALE
  5
64
102
{ACAD_REACTORS
330
47
102
}
330
47
100
AcDbScale
 70
     0
300
1" = 1'-0"
140
1.0
141
12.0
290
     0
  0
SCALE
  5
65
102
{ACAD_REACTORS
330
47
102
}
330
47
100
AcDbScale
 70
     0
300
1-1/2" = 1'-0"
140
1.5
141
12.0
290
     0
  0
SCALE
  5
66
102
{ACAD_REACTORS
330
47
102
}
330
47
100
AcDbScale
 70
     0
300
3" = 1'-0"
140
3.0
141
12.0
290
     0
  0
SCALE
  5
67
102
{ACAD_REACTORS
330
47
102
}
330
47
100
AcDbScale
 70
     0
300
6" = 1'-0"
140
6.0
141
12.0
290
     0
  0
SCALE
  5
68
102
{ACAD_REACTORS
330
47
102
}
330
47
100
AcDbScale
 70
     0
300
1'-0" = 1'-0"
140
12.0
141
12.0
290
     0
  0
ENDSEC
  0
EOF
