  0
SECTION
  2
HEADER
  9
$ACADVER
  1
AC1015
  9
$ACADMAINTVER
 70
     6
  9
$DWGCODEPAGE
  3
ANSI_1252
  9
$INSBASE
 10
0.0
 20
0.0
 30
0.0
  9
$EXTMIN
 10
0.0
 20
0.0
 30
0.0
  9
$EXTMAX
 10
24.0
 20
12.0
 30
0.0
  9
$LIMMIN
 10
0.0
 20
0.0
  9
$LIMMAX
 10
24.0
 20
12.0
  9
$ORTHOMODE
 70
     0
  9
$REGENMODE
 70
     1
  9
$FILLMODE
 70
     1
  9
$QTEXTMODE
 70
     0
  9
$MIRRTEXT
 70
     1
  9
$LTSCALE
 40
1.0
  9
$ATTMODE
 70
     1
  9
$TEXTSIZE
 40
0.1377952756
  9
$TRACEWID
 40
0.05
  9
$TEXTSTYLE
  7
Standard
  9
$CLAYER
  8
0
  9
$CELTYPE
  6
ByLayer
  9
$CECOLOR
 62
   256
  9
$CELTSCALE
 40
1.0
  9
$DISPSILH
 70
     0
  9
$DIMSCALE
 40
1.0
  9
$DIMASZ
 40
0.13
  9
$DIMEXO
 40
0.0393700787
  9
$DIMDLI
 40
0.38
  9
$DIMRND
 40
0.0
  9
$DIMDLE
 40
0.0
  9
$DIMEXE
 40
0.0393700787
  9
$DIMTP
 40
0.0
  9
$DIMTM
 40
0.0
  9
$DIMTXT
 40
0.1377952756
  9
$DIMCEN
 40
0.09
  9
$DIMTSZ
 40
0.0
  9
$DIMTOL
 70
     0
  9
$DIMLIM
 70
     0
  9
$DIMTIH
 70
     1
  9
$DIMTOH
 70
     1
  9
$DIMSE1
 70
     0
  9
$DIMSE2
 70
     0
  9
$DIMTAD
 70
     1
  9
$DIMZIN
 70
     0
  9
$DIMBLK
  1

  9
$DIMASO
 70
     1
  9
$DIMSHO
 70
     1
  9
$DIMPOST
  1

  9
$DIMAPOST
  1

  9
$DIMALT
 70
     0
  9
$DIMALTD
 70
     2
  9
$DIMALTF
 40
25.4
  9
$DIMLFAC
 40
1.0
  9
$DIMTOFL
 70
     0
  9
$DIMTVP
 40
0.0
  9
$DIMTIX
 70
     0
  9
$DIMSOXD
 70
     0
  9
$DIMSAH
 70
     0
  9
$DIMBLK1
  1

  9
$DIMBLK2
  1

  9
$DIMSTYLE
  2
Standard
  9
$DIMCLRD
 70
     0
  9
$DIMCLRE
 70
     0
  9
$DIMCLRT
 70
     0
  9
$DIMTFAC
 40
1.0
  9
$DIMGAP
 40
0.06
  9
$DIMJUST
 70
     0
  9
$DIMSD1
 70
     0
  9
$DIMSD2
 70
     0
  9
$DIMTOLJ
 70
     1
  9
$DIMTZIN
 70
     0
  9
$DIMALTZ
 70
     0
  9
$DIMALTTZ
 70
     0
  9
$DIMUPT
 70
     0
  9
$DIMDEC
 70
     2
  9
$DIMTDEC
 70
     2
  9
$DIMALTU
 70
     2
  9
$DIMALTTD
 70
     2
  9
$DIMTXSTY
  7
Standard
  9
$DIMAUNIT
 70
     0
  9
$DIMADEC
 70
     2
  9
$DIMALTRND
 40
0.0
  9
$DIMAZIN
 70
     0
  9
$DIMDSEP
 70
    46
  9
$DIMATFIT
 70
     3
  9
$DIMFRAC
 70
     0
  9
$DIMLDRBLK
  1

  9
$DIMLUNIT
 70
     2
  9
$DIMLWD
 70
    -2
  9
$DIMLWE
 70
    -2
  9
$DIMTMOVE
 70
     0
  9
$LUNITS
 70
     2
  9
$LUPREC
 70
     2
  9
$SKETCHINC
 40
0.1
  9
$FILLETRAD
 40
0.5
  9
$AUNITS
 70
     0
  9
$AUPREC
 70
     2
  9
$MENU
  1
.
  9
$ELEVATION
 40
0.0
  9
$PELEVATION
 40
0.0
  9
$THICKNESS
 40
0.0
  9
$LIMCHECK
 70
     0
  9
$CHAMFERA
 40
0.0
  9
$CHAMFERB
 40
0.0
  9
$CHAMFERC
 40
0.0
  9
$CHAMFERD
 40
0.0
  9
$SKPOLY
 70
     0
  9
$TDCREATE
 40
2457053.764379271
  9
$TDUCREATE
 40
2457053.972712604
  9
$TDUPDATE
 40
2457053.764387361
  9
$TDUUPDATE
 40
2457053.972720694
  9
$TDINDWG
 40
0.0000000116
  9
$TDUSRTIMER
 40
0.0000000116
  9
$USRTIMER
 70
     1
  9
$ANGBASE
 50
0.0
  9
$ANGDIR
 70
     0
  9
$PDMODE
 70
     0
  9
$PDSIZE
 40
-1.0
  9
$PLINEWID
 40
0.0
  9
$SPLFRAME
 70
     0
  9
$SPLINETYPE
 70
     6
  9
$SPLINESEGS
 70
     8
  9
$HANDSEED
  5
2EC
  9
$SURFTAB1
 70
     6
  9
$SURFTAB2
 70
     6
  9
$SURFTYPE
 70
     6
  9
$SURFU
 70
     6
  9
$SURFV
 70
     6
  9
$UCSBASE
  2

  9
$UCSNAME
  2

  9
$UCSORG
 10
0.0
 20
0.0
 30
0.0
  9
$UCSXDIR
 10
1.0
 20
0.0
 30
0.0
  9
$UCSYDIR
 10
0.0
 20
1.0
 30
0.0
  9
$UCSORTHOREF
  2

  9
$UCSORTHOVIEW
 70
     0
  9
$UCSORGTOP
 10
0.0
 20
0.0
 30
0.0
  9
$UCSORGBOTTOM
 10
0.0
 20
0.0
 30
0.0
  9
$UCSORGLEFT
 10
0.0
 20
0.0
 30
0.0
  9
$UCSORGRIGHT
 10
0.0
 20
0.0
 30
0.0
  9
$UCSORGFRONT
 10
0.0
 20
0.0
 30
0.0
  9
$UCSORGBACK
 10
0.0
 20
0.0
 30
0.0
  9
$PUCSBASE
  2

  9
$PUCSNAME
  2

  9
$PUCSORG
 10
0.0
 20
0.0
 30
0.0
  9
$PUCSXDIR
 10
1.0
 20
0.0
 30
0.0
  9
$PUCSYDIR
 10
0.0
 20
1.0
 30
0.0
  9
$PUCSORTHOREF
  2

  9
$PUCSORTHOVIEW
 70
     0
  9
$PUCSORGTOP
 10
0.0
 20
0.0
 30
0.0
  9
$PUCSORGBOTTOM
 10
0.0
 20
0.0
 30
0.0
  9
$PUCSORGLEFT
 10
0.0
 20
0.0
 30
0.0
  9
$PUCSORGRIGHT
 10
0.0
 20
0.0
 30
0.0
  9
$PUCSORGFRONT
 10
0.0
 20
0.0
 30
0.0
  9
$PUCSORGBACK
 10
0.0
 20
0.0
 30
0.0
  9
$USERI1
 70
     0
  9
$USERI2
 70
     0
  9
$USERI3
 70
     0
  9
$USERI4
 70
     0
  9
$USERI5
 70
     0
  9
$USERR1
 40
0.0
  9
$USERR2
 40
0.0
  9
$USERR3
 40
0.0
  9
$USERR4
 40
0.0
  9
$USERR5
 40
0.0
  9
$WORLDVIEW
 70
     1
  9
$SHADEDGE
 70
     3
  9
$SHADEDIF
 70
    70
  9
$TILEMODE
 70
     1
  9
$MAXACTVP
 70
    64
  9
$PINSBASE
 10
0.0
 20
0.0
 30
0.0
  9
$PLIMCHECK
 70
     0
  9
$PEXTMIN
 10
0.0
 20
0.0
 30
0.0
  9
$PEXTMAX
 10
24.0
 20
12.0
 30
0.0
  9
$PLIMMIN
 10
0.0
 20
0.0
  9
$PLIMMAX
 10
24.0
 20
12.0
  9
$UNITMODE
 70
     0
  9
$VISRETAIN
 70
     1
  9
$PLINEGEN
 70
     0
  9
$PSLTSCALE
 70
     1
  9
$TREEDEPTH
 70
  3020
  9
$CMLSTYLE
  2
Standard
  9
$CMLJUST
 70
     0
  9
$CMLSCALE
 40
1.0
  9
$PROXYGRAPHICS
 70
     1
  9
$MEASUREMENT
 70
     0
  9
$CELWEIGHT
370
    -1
  9
$ENDCAPS
280
     0
  9
$JOINSTYLE
280
     0
  9
$LWDISPLAY
290
     1
  9
$INSUNITS
 70
     1
  9
$HYPERLINKBASE
  1

  9
$STYLESHEET
  1

  9
$XEDIT
290
     1
  9
$CEPSNTYPE
380
     0
  9
$PSTYLEMODE
290
     1
  9
$FINGERPRINTGUID
  2
{46C404C2-39C6-4781-B3BD-00CA00533130}
  9
$VERSIONGUID
  2
{FAEB1C32-E019-11D5-929B-00C0DF256EC4}
  9
$EXTNAMES
290
     1
  9
$PSVPSCALE
 40
0.0
  9
$OLESTARTUP
290
     0
  0
ENDSEC
  0
SECTION
  2
CLASSES
  0
CLASS
  1
ACDBDICTIONARYWDFLT
  2
AcDbDictionaryWithDefault
  3
ObjectDBX Classes
 90
        0
280
     0
281
     0
  0
CLASS
  1
VISUALSTYLE
  2
AcDbVisualStyle
  3
ObjectDBX Classes
 90
     4095
280
     0
281
     0
  0
CLASS
  1
MATERIAL
  2
AcDbMaterial
  3
ObjectDBX Classes
 90
     1153
280
     0
281
     0
  0
CLASS
  1
SCALE
  2
AcDbScale
  3
ObjectDBX Classes
 90
     1153
280
     0
281
     0
  0
CLASS
  1
SUN
  2
AcDbSun
  3
SCENEOE
 90
     1153
280
     0
281
     0
  0
CLASS
  1
ACDBPLACEHOLDER
  2
AcDbPlaceHolder
  3
ObjectDBX Classes
 90
        0
280
     0
281
     0
  0
CLASS
  1
LAYOUT
  2
AcDbLayout
  3
ObjectDBX Classes
 90
        0
280
     0
281
     0
  0
ENDSEC
  0
SECTION
  2
TABLES
  0
TABLE
  2
VPORT
  5
8
330
0
100
AcDbSymbolTable
 70
     1
  0
VPORT
  5
29
330
8
100
AcDbSymbolTableRecord
100
AcDbViewportTableRecord
  2
*Active
 70
     0
 10
0.0
 20
0.0
 11
1.0
 21
1.0
 12
12.0
 22
6.0
 13
0.0
 23
0.0
 14
0.5
 24
0.5
 15
0.5
 25
0.5
 16
0.0
 26
0.0
 36
1.0
 17
0.0
 27
0.0
 37
0.0
 40
12.0
 41
2.0
 42
50.0
 43
0.0
 44
0.0
 50
0.0
 51
0.0
 71
     0
 72
  2000
 73
     1
 74
     3
 75
     0
 76
     0
 77
     0
 78
     0
281
     0
 65
     1
110
0.0
120
0.0
130
0.0
111
1.0
121
0.0
131
0.0
112
0.0
122
1.0
132
0.0
 79
     0
146
0.0
  0
ENDTAB
  0
TABLE
  2
LTYPE
  5
5
330
0
100
AcDbSymbolTable
 70
     6
  0
LTYPE
  5
14
330
5
100
AcDbSymbolTableRecord
100
AcDbLinetypeTableRecord
  2
ByBlock
 70
     0
  3

 72
    65
 73
     0
 40
0.0
  0
LTYPE
  5
15
330
5
100
AcDbSymbolTableRecord
100
AcDbLinetypeTableRecord
  2
ByLayer
 70
     0
  3

 72
    65
 73
     0
 40
0.0
  0
LTYPE
  5
16
330
5
100
AcDbSymbolTableRecord
100
AcDbLinetypeTableRecord
  2
Continuous
 70
     0
  3
Solid line
 72
    65
 73
     0
 40
0.0
  0
LTYPE
  5
6A
330
5
100
AcDbSymbolTableRecord
100
AcDbLinetypeTableRecord
  2
HIDDEN
 70
     0
  3
Hidden __ __ __ __ __ __ __ __ __ __ __ __ __ __
 72
    65
 73
     2
 40
0.075
 49
0.05
 74
     0
 49
-0.025
 74
     0
  0
LTYPE
  5
6B
330
5
100
AcDbSymbolTableRecord
100
AcDbLinetypeTableRecord
  2
PHANTOM
 70
     0
  3
Phantom ______  __  __  ______  __  __  ______
 72
    65
 73
     6
 40
0.5
 49
0.25
 74
     0
 49
-0.05
 74
     0
 49
0.05
 74
     0
 49
-0.05
 74
     0
 49
0.05
 74
     0
 49
-0.05
 74
     0
  0
LTYPE
  5
6C
330
5
100
AcDbSymbolTableRecord
100
AcDbLinetypeTableRecord
  2
CENTER
 70
     0
  3
Center ____ _ ____ _ ____ _ ____ _ ____ _ ____
 72
    65
 73
     4
 40
0.4
 49
0.25
 74
     0
 49
-0.05
 74
     0
 49
0.05
 74
     0
 49
-0.05
 74
     0
  0
LTYPE
  5
6D
330
5
100
AcDbSymbolTableRecord
100
AcDbLinetypeTableRecord
  2
CENTERX2
 70
     0
  3
Center (2x) ________  __  ________  __  _____
 72
    65
 73
     4
 40
0.8
 49
0.5
 74
     0
 49
-0.1
 74
     0
 49
0.1
 74
     0
 49
-0.1
 74
     0
  0
LTYPE
  5
6E
330
5
100
AcDbSymbolTableRecord
100
AcDbLinetypeTableRecord
  2
DOT2
 70
     0
  3
Dot (.5x) ........................................
 72
    65
 73
     2
 40
0.025
 49
0.0
 74
     0
 49
-0.025
 74
     0
  0
ENDTAB
  0
TABLE
  2
LAYER
  5
2
330
0
100
AcDbSymbolTable
 70
     1
  0
LAYER
  5
10
330
2
100
AcDbSymbolTableRecord
100
AcDbLayerTableRecord
  2
0
 70
     0
 62
     7
  6
Continuous
370
    -3
390
F
  0
ENDTAB
  0
TABLE
  2
STYLE
  5
3
330
0
100
AcDbSymbolTable
 70
     1
  0
STYLE
  5
11
330
3
100
AcDbSymbolTableRecord
100
AcDbTextStyleTableRecord
  2
Standard
 70
     0
 40
0.0
 41
1.0
 50
0.0
 71
     0
 42
0.1377952756
  3
txt
  4

  0
ENDTAB
  0
TABLE
  2
VIEW
  5
6
330
0
100
AcDbSymbolTable
 70
     0
  0
ENDTAB
  0
TABLE
  2
UCS
  5
7
330
0
100
AcDbSymbolTable
 70
     0
  0
ENDTAB
  0
TABLE
  2
APPID
  5
9
330
0
100
AcDbSymbolTable
 70
     1
  0
APPID
  5
12
330
9
100
AcDbSymbolTableRecord
100
AcDbRegAppTableRecord
  2
ACAD
 70
     0
  0
ENDTAB
  0
TABLE
  2
DIMSTYLE
  5
A
330
0
100
AcDbSymbolTable
 70
     1
100
AcDbDimStyleTable
  0
DIMSTYLE
105
27
330
A
100
AcDbSymbolTableRecord
100
AcDbDimStyleTableRecord
  2
Standard
 70
     0
178
     0
340
11
  0
ENDTAB
  0
TABLE
  2
BLOCK_RECORD
  5
1
330
0
100
AcDbSymbolTable
 70
     4
  0
BLOCK_RECORD
  5
1F
330
1
100
AcDbSymbolTableRecord
100
AcDbBlockTableRecord
  2
*Model_Space
340
22
  0
BLOCK_RECORD
  5
1B
330
1
100
AcDbSymbolTableRecord
100
AcDbBlockTableRecord
  2
*Paper_Space
340
1E
  0
BLOCK_RECORD
  5
23
330
1
100
AcDbSymbolTableRecord
100
AcDbBlockTableRecord
  2
*Paper_Space0
340
26
  0
BLOCK_RECORD
  5
1C4
330
1
100
AcDbSymbolTableRecord
100
AcDbBlockTableRecord
  2
*Paper_Space1
340
1C5
  0
BLOCK_RECORD
  5
220
330
1
100
AcDbSymbolTableRecord
100
AcDbBlockTableRecord
  2
*Paper_Space2
340
221
  0
BLOCK_RECORD
  5
2A4
330
1
100
AcDbSymbolTableRecord
100
AcDbBlockTableRecord
  2
*Paper_Space3
340
2A5
  0
ENDTAB
  0
ENDSEC
  0
SECTION
  2
BLOCKS
  0
BLOCK
  5
20
330
1F
100
AcDbEntity
  8
0
100
AcDbBlockBegin
  2
*Model_Space
 70
     0
 10
0.0
 20
0.0
 30
0.0
  3
*Model_Space
  1
*Model_Space
  0
ENDBLK
  5
21
330
1F
100
AcDbEntity
  8
0
100
AcDbBlockEnd
  0
BLOCK
  5
1C
330
1B
100
AcDbEntity
 67
     1
  8
0
100
AcDbBlockBegin
  2
*Paper_Space
 70
     0
 10
0.0
 20
0.0
 30
0.0
  3
*Paper_Space
  1
*Paper_Space
  0
ENDBLK
  5
1D
330
1B
100
AcDbEntity
 67
     1
  8
0
100
AcDbBlockEnd
  0
BLOCK
  5
24
330
23
100
AcDbEntity
  8
0
100
AcDbBlockBegin
  2
*Paper_Space0
 70
     0
 10
0.0
 20
0.0
 30
0.0
  3
*Paper_Space0
  1
*Paper_Space0
  0
LINE
  5
16A
330
23
100
AcDbEntity
  8
0
  6
Continuous
 62
     1
370
    15
100
AcDbLine
 10
10.398612086
 20
9.7290711936
 30
0.0
 11
10.5555302755
 21
7.7352365502
 31
0.0
  0
LINE
  5
16B
330
23
100
AcDbEntity
  8
0
  6
Continuous
 62
     1
370
    15
100
AcDbLine
 10
10.5555302755
 20
7.7352365502
 30
0.0
 11
10.6801447554
 21
7.7450439225
 31
0.0
  0
LINE
  5
16C
330
23
100
AcDbEntity
  8
0
  6
Continuous
 62
     1
370
    15
100
AcDbLine
 10
10.5232265658
 20
9.7388785658
 30
0.0
 11
10.6801447554
 21
7.7450439225
 31
0.0
  0
LINE
  5
16D
330
23
100
AcDbEntity
  8
0
  6
Continuous
 62
     1
370
    15
100
AcDbLine
 10
10.398612086
 20
9.7290711936
 30
0.0
 11
10.5232265658
 21
9.7388785658
 31
0.0
  0
CIRCLE
  5
16E
330
23
100
AcDbEntity
  8
0
  6
Continuous
 62
     1
370
    15
100
AcDbCircle
 10
3.9861673195
 20
9.3648337654
 30
0.0
 40
0.0624999999999997
  0
CIRCLE
  5
16F
330
23
100
AcDbEntity
  8
0
  6
Continuous
 62
     1
370
    15
100
AcDbCircle
 10
9.5067964385
 20
9.7993166999
 30
0.0
 40
0.0624999999999988
  0
CIRCLE
  5
170
330
23
100
AcDbEntity
  8
0
  6
Continuous
 62
     1
370
    15
100
AcDbCircle
 10
9.6856831768
 20
7.5263451789
 30
0.0
 40
0.0625000000000005
  0
CIRCLE
  5
171
330
23
100
AcDbEntity
  8
0
  6
Continuous
 62
     1
370
    15
100
AcDbCircle
 10
4.1650540578
 20
7.0918622445
 30
0.0
 40
0.0624999999999997
  0
LINE
  5
172
330
23
100
AcDbEntity
  8
0
  6
Continuous
 62
     1
370
    15
100
AcDbLine
 10
4.7570181333
 20
8.658135513
 30
0.0
 11
5.0345126917
 21
9.2399150989
 31
0.0
  0
ARC
  5
173
330
23
100
AcDbEntity
  8
0
  6
Continuous
 62
     1
370
    15
100
AcDbCircle
 10
5.4339570474
 20
8.3352521819
 30
0.0
 40
0.75
100
AcDbArc
 50
154.5
 51
214.5
  0
LINE
  5
174
330
23
100
AcDbEntity
  8
0
  6
Continuous
 62
     1
370
    15
100
AcDbLine
 10
5.180950974
 20
7.3792403025
 30
0.0
 11
4.8158624558
 21
7.9104475035
 31
0.0
  0
ARC
  5
175
330
23
100
AcDbEntity
  8
0
  6
Continuous
 62
     1
370
    15
100
AcDbCircle
 10
5.799045632
 20
7.804044995
 30
0.0
 40
0.7500000000000014
100
AcDbArc
 50
214.5
 51
279.0434867696
  0
LINE
  5
176
330
23
100
AcDbEntity
  8
0
  6
Continuous
 62
     1
370
    15
100
AcDbLine
 10
8.1680496414
 20
7.4216613382
 30
0.0
 11
5.9169337883
 21
7.063368058
 31
0.0
  0
ARC
  5
177
330
23
100
AcDbEntity
  8
0
  6
Continuous
 62
     1
370
    15
100
AcDbCircle
 10
8.0501614045
 20
8.1623383465
 30
0.0
 40
0.7500000000000021
100
AcDbArc
 50
279.0434867696
 51
334.5
  0
LINE
  5
178
330
23
100
AcDbEntity
  8
0
  6
Continuous
 62
     1
370
    15
100
AcDbLine
 10
8.9148322159
 20
8.2330434198
 30
0.0
 11
8.7271002783
 21
7.8394549993
 31
0.0
  0
ARC
  5
179
330
23
100
AcDbEntity
  8
0
  6
Continuous
 62
     1
370
    15
100
AcDbCircle
 10
8.2378934489
 20
8.5559267625
 30
0.0
 40
0.7499999999999996
100
AcDbArc
 50
334.5
 51
34.5
  0
LINE
  5
17A
330
23
100
AcDbEntity
  8
0
  6
Continuous
 62
     1
370
    15
100
AcDbLine
 10
8.6089964535
 20
9.3401063781
 30
0.0
 11
8.8559878934
 21
8.9807314293
 31
0.0
  0
ARC
  5
17B
330
23
100
AcDbEntity
  8
0
  6
Continuous
 62
     1
370
    15
100
AcDbCircle
 10
7.9909019042
 20
8.9153016901
 30
0.0
 40
0.750000000000002
100
AcDbArc
 50
34.5
 51
89.9565132304
  0
LINE
  5
17C
330
23
100
AcDbEntity
  8
0
  6
Continuous
 62
     1
370
    15
100
AcDbLine
 10
5.7120210306
 20
9.6670315097
 30
0.0
 11
7.9914713297
 21
9.6653015186
 31
0.0
  0
ARC
  5
17D
330
23
100
AcDbEntity
  8
0
  6
Continuous
 62
     1
370
    15
100
AcDbCircle
 10
5.7114516735
 20
8.9170317642
 30
0.0
 40
0.749999999999999
100
AcDbArc
 50
89.9565132304
 51
154.5
  0
LINE
  5
17E
330
23
100
AcDbEntity
  8
0
  6
Continuous
 62
     1
370
    15
100
AcDbLine
 10
0.5783267499
 20
6.9500136034
 30
0.0
 11
0.7029413766
 21
6.9598209872
 31
0.0
  0
LINE
  5
17F
330
23
100
AcDbEntity
  8
0
  6
Continuous
 62
     1
370
    15
100
AcDbLine
 10
0.5783267499
 20
6.9500136034
 30
0.0
 11
0.4214085603
 21
8.9438482468
 31
0.0
  0
LINE
  5
180
330
23
100
AcDbEntity
  8
0
  6
Continuous
 62
     1
370
    15
100
AcDbLine
 10
0.4214085603
 20
8.9438482468
 30
0.0
 11
0.5460231871
 21
8.9536556306
 31
0.0
  0
LINE
  5
181
330
23
100
AcDbEntity
  8
0
  6
Continuous
 62
     1
370
    15
100
AcDbLine
 10
0.5460231871
 20
8.9536556306
 30
0.0
 11
0.351831073
 21
11.4211003894
 31
0.0
  0
LINE
  5
182
330
23
100
AcDbEntity
  8
0
  6
Continuous
 62
     1
370
    15
100
AcDbLine
 10
2.372409292
 20
11.4195667573
 30
0.0
 11
0.351831073
 21
11.4211003894
 31
0.0
  0
LINE
  5
183
330
23
100
AcDbEntity
  8
0
  6
Continuous
 62
     1
370
    15
100
AcDbLine
 10
2.3726096741
 20
11.6835666492
 30
0.0
 11
2.372409292
 21
11.4195667573
 31
0.0
  0
LINE
  5
184
330
23
100
AcDbEntity
  8
0
  6
Continuous
 62
     1
370
    15
100
AcDbLine
 10
4.372609095
 20
11.6820487997
 30
0.0
 11
2.3726096741
 21
11.6835666492
 31
0.0
  0
LINE
  5
185
330
23
100
AcDbEntity
  8
0
  6
Continuous
 62
     1
370
    15
100
AcDbLine
 10
4.372609095
 20
11.6820487997
 30
0.0
 11
4.3724086491
 21
11.4180489028
 31
0.0
  0
LINE
  5
186
330
23
100
AcDbEntity
  8
0
  6
Continuous
 62
     1
370
    15
100
AcDbLine
 10
8.1874782709
 20
11.4151531534
 30
0.0
 11
4.3724086491
 21
11.4180489028
 31
0.0
  0
LINE
  5
187
330
23
100
AcDbEntity
  8
0
  6
Continuous
 62
     1
370
    15
100
AcDbLine
 10
8.1876788625
 20
11.6791530618
 30
0.0
 11
8.1874782709
 21
11.4151531534
 31
0.0
  0
LINE
  5
188
330
23
100
AcDbEntity
  8
0
  6
Continuous
 62
     1
370
    15
100
AcDbLine
 10
10.1876784667
 20
11.6776352267
 30
0.0
 11
8.1876788625
 21
11.6791530618
 31
0.0
  0
LINE
  5
189
330
23
100
AcDbEntity
  8
0
  6
Continuous
 62
     1
370
    15
100
AcDbLine
 10
10.1876784667
 20
11.6776352267
 30
0.0
 11
10.1874778742
 21
11.4136353183
 31
0.0
  0
LINE
  5
18A
330
23
100
AcDbEntity
  8
0
  6
Continuous
 62
     1
370
    15
100
AcDbLine
 10
12.7624295556
 20
11.4116807231
 30
0.0
 11
10.1874778742
 21
11.4136353183
 31
0.0
  0
LINE
  5
18B
330
23
100
AcDbEntity
  8
0
  6
Continuous
 62
     1
370
    15
100
AcDbLine
 10
12.7624295556
 20
11.4116807231
 30
0.0
 11
13.1534633512
 21
6.4431252574
 31
0.0
  0
LINE
  5
18C
330
23
100
AcDbEntity
  8
0
  6
Continuous
 62
     1
370
    15
100
AcDbLine
 10
10.610519364
 20
6.0383835377
 30
0.0
 11
13.1534633512
 21
6.4431252574
 31
0.0
  0
LINE
  5
18D
330
23
100
AcDbEntity
  8
0
  6
Continuous
 62
     1
370
    15
100
AcDbLine
 10
10.610519364
 20
6.0383835377
 30
0.0
 11
10.6520161712
 21
5.7776652859
 31
0.0
  0
LINE
  5
18E
330
23
100
AcDbEntity
  8
0
  6
Continuous
 62
     1
370
    15
100
AcDbLine
 10
8.6768773227
 20
5.4632972697
 30
0.0
 11
10.6520161712
 21
5.7776652859
 31
0.0
  0
LINE
  5
18F
330
23
100
AcDbEntity
  8
0
  6
Continuous
 62
     1
370
    15
100
AcDbLine
 10
8.6353805163
 20
5.7240155217
 30
0.0
 11
8.6768773227
 21
5.4632972697
 31
0.0
  0
LINE
  5
190
330
23
100
AcDbEntity
  8
0
  6
Continuous
 62
     1
370
    15
100
AcDbLine
 10
4.8677337273
 20
5.1243470484
 30
0.0
 11
8.6353805163
 21
5.7240155217
 31
0.0
  0
LINE
  5
191
330
23
100
AcDbEntity
  8
0
  6
Continuous
 62
     1
370
    15
100
AcDbLine
 10
4.909230388
 20
4.8636287849
 30
0.0
 11
4.8677337273
 21
5.1243470484
 31
0.0
  0
LINE
  5
192
330
23
100
AcDbEntity
  8
0
  6
Continuous
 62
     1
370
    15
100
AcDbLine
 10
2.9340917227
 20
4.5492607832
 30
0.0
 11
4.909230388
 21
4.8636287849
 31
0.0
  0
LINE
  5
193
330
23
100
AcDbEntity
  8
0
  6
Continuous
 62
     1
370
    15
100
AcDbLine
 10
2.8925951258
 20
4.8099790517
 30
0.0
 11
2.9340917227
 21
4.5492607832
 31
0.0
  0
LINE
  5
194
330
23
100
AcDbEntity
  8
0
  6
Continuous
 62
     1
370
    15
100
AcDbLine
 10
0.8971334906
 20
4.4923762284
 30
0.0
 11
2.8925951258
 21
4.8099790517
 31
0.0
  0
LINE
  5
195
330
23
100
AcDbEntity
  8
0
  6
Continuous
 62
     1
370
    15
100
AcDbLine
 10
0.8971334906
 20
4.4923762284
 30
0.0
 11
0.7029413766
 21
6.9598209872
 31
0.0
  0
CIRCLE
  5
196
330
23
100
AcDbEntity
  8
0
  6
Continuous
 62
     1
370
    15
100
AcDbCircle
 10
1.7818887111
 20
5.6041895964
 30
0.0
 40
0.0624999999999996
  0
LINE
  5
197
330
23
100
AcDbEntity
  8
0
  6
Continuous
 62
     1
370
    15
100
AcDbLine
 10
13.3141838307
 20
2.2802571857
 30
0.0
 11
13.1572656412
 21
4.274091829
 31
0.0
  0
LINE
  5
198
330
23
100
AcDbEntity
  8
0
  6
Continuous
 62
     1
370
    15
100
AcDbLine
 10
13.1572656412
 20
4.274091829
 30
0.0
 11
13.0326511613
 21
4.2642844568
 31
0.0
  0
LINE
  5
199
330
23
100
AcDbEntity
  8
0
  6
Continuous
 62
     1
370
    15
100
AcDbLine
 10
13.1895693509
 20
2.2704498134
 30
0.0
 11
13.0326511613
 21
4.2642844568
 31
0.0
  0
LINE
  5
19A
330
23
100
AcDbEntity
  8
0
  6
Continuous
 62
     1
370
    15
100
AcDbLine
 10
13.3141838307
 20
2.2802571857
 30
0.0
 11
13.1895693509
 21
2.2704498134
 31
0.0
  0
CIRCLE
  5
19B
330
23
100
AcDbEntity
  8
0
  6
Continuous
 62
     1
370
    15
100
AcDbCircle
 10
19.7266285972
 20
2.6444946138
 30
0.0
 40
0.0625000000000024
  0
CIRCLE
  5
19C
330
23
100
AcDbEntity
  8
0
  6
Continuous
 62
     1
370
    15
100
AcDbCircle
 10
14.2059994782
 20
2.2100116794
 30
0.0
 40
0.0624999999999988
  0
CIRCLE
  5
19D
330
23
100
AcDbEntity
  8
0
  6
Continuous
 62
     1
370
    15
100
AcDbCircle
 10
14.0271127399
 20
4.4829832003
 30
0.0
 40
0.0624999999999988
  0
CIRCLE
  5
19E
330
23
100
AcDbEntity
  8
0
  6
Continuous
 62
     1
370
    15
100
AcDbCircle
 10
19.5477418589
 20
4.9174661347
 30
0.0
 40
0.0625000000000024
  0
LINE
  5
19F
330
23
100
AcDbEntity
  8
0
  6
Continuous
 62
     1
370
    15
100
AcDbLine
 10
18.9557777834
 20
3.3511928662
 30
0.0
 11
18.678283225
 21
2.7694132803
 31
0.0
  0
ARC
  5
1A0
330
23
100
AcDbEntity
  8
0
  6
Continuous
 62
     1
370
    15
100
AcDbCircle
 10
18.2788388693
 20
3.6740761973
 30
0.0
 40
0.750000000000003
100
AcDbArc
 50
334.5
 51
34.5
  0
LINE
  5
1A1
330
23
100
AcDbEntity
  8
0
  6
Continuous
 62
     1
370
    15
100
AcDbLine
 10
18.5318449427
 20
4.6300880767
 30
0.0
 11
18.8969334609
 21
4.0988808758
 31
0.0
  0
ARC
  5
1A2
330
23
100
AcDbEntity
  8
0
  6
Continuous
 62
     1
370
    15
100
AcDbCircle
 10
17.9137502847
 20
4.2052833842
 30
0.0
 40
0.7499999999999997
100
AcDbArc
 50
34.5
 51
99.0434867696
  0
LINE
  5
1A3
330
23
100
AcDbEntity
  8
0
  6
Continuous
 62
     1
370
    15
100
AcDbLine
 10
15.5447462753
 20
4.587667041
 30
0.0
 11
17.7958621284
 21
4.9459603212
 31
0.0
  0
ARC
  5
1A4
330
23
100
AcDbEntity
  8
0
  6
Continuous
 62
     1
370
    15
100
AcDbCircle
 10
15.6626345122
 20
3.8469900327
 30
0.0
 40
0.7500000000000012
100
AcDbArc
 50
99.0434867696
 51
154.5
  0
LINE
  5
1A5
330
23
100
AcDbEntity
  8
0
  6
Continuous
 62
     1
370
    15
100
AcDbLine
 10
14.7979637008
 20
3.7762849594
 30
0.0
 11
14.9856956384
 21
4.16987338
 31
0.0
  0
ARC
  5
1A6
330
23
100
AcDbEntity
  8
0
  6
Continuous
 62
     1
370
    15
100
AcDbCircle
 10
15.4749024678
 20
3.4534016167
 30
0.0
 40
0.7500000000000003
100
AcDbArc
 50
154.5
 51
214.5
  0
LINE
  5
1A7
330
23
100
AcDbEntity
  8
0
  6
Continuous
 62
     1
370
    15
100
AcDbLine
 10
15.1037994632
 20
2.6692220011
 30
0.0
 11
14.8568080233
 21
3.0285969499
 31
0.0
  0
ARC
  5
1A8
330
23
100
AcDbEntity
  8
0
  6
Continuous
 62
     1
370
    15
100
AcDbCircle
 10
15.7218940125
 20
3.0940266892
 30
0.0
 40
0.7500000000000011
100
AcDbArc
 50
214.5
 51
269.9565132304
  0
LINE
  5
1A9
330
23
100
AcDbEntity
  8
0
  6
Continuous
 62
     1
370
    15
100
AcDbLine
 10
18.0007748861
 20
2.3422968695
 30
0.0
 11
15.721324587
 21
2.3440268607
 31
0.0
  0
ARC
  5
1AA
330
23
100
AcDbEntity
  8
0
  6
Continuous
 62
     1
370
    15
100
AcDbCircle
 10
18.0013442432
 20
3.092296615
 30
0.0
 40
0.7499999999999998
100
AcDbArc
 50
269.9565132304
 51
334.5
  0
LINE
  5
1AB
330
23
100
AcDbEntity
  8
0
  6
Continuous
 62
     1
370
    15
100
AcDbLine
 10
23.1344691668
 20
5.0593147758
 30
0.0
 11
23.0098545401
 21
5.049507392
 31
0.0
  0
LINE
  5
1AC
330
23
100
AcDbEntity
  8
0
  6
Continuous
 62
     1
370
    15
100
AcDbLine
 10
23.1344691668
 20
5.0593147758
 30
0.0
 11
23.2913873564
 21
3.0654801325
 31
0.0
  0
LINE
  5
1AD
330
23
100
AcDbEntity
  8
0
  6
Continuous
 62
     1
370
    15
100
AcDbLine
 10
23.2913873564
 20
3.0654801325
 30
0.0
 11
23.1667727296
 21
3.0556727486
 31
0.0
  0
LINE
  5
1AE
330
23
100
AcDbEntity
  8
0
  6
Continuous
 62
     1
370
    15
100
AcDbLine
 10
23.1667727296
 20
3.0556727486
 30
0.0
 11
23.3609648437
 21
0.5882279899
 31
0.0
  0
LINE
  5
1AF
330
23
100
AcDbEntity
  8
0
  6
Continuous
 62
     1
370
    15
100
AcDbLine
 10
21.3403866247
 20
0.5897616219
 30
0.0
 11
23.3609648437
 21
0.5882279899
 31
0.0
  0
LINE
  5
1B0
330
23
100
AcDbEntity
  8
0
  6
Continuous
 62
     1
370
    15
100
AcDbLine
 10
21.3401862426
 20
0.3257617301
 30
0.0
 11
21.3403866247
 21
0.5897616219
 31
0.0
  0
LINE
  5
1B1
330
23
100
AcDbEntity
  8
0
  6
Continuous
 62
     1
370
    15
100
AcDbLine
 10
19.3401868217
 20
0.3272795795
 30
0.0
 11
21.3401862426
 21
0.3257617301
 31
0.0
  0
LINE
  5
1B2
330
23
100
AcDbEntity
  8
0
  6
Continuous
 62
     1
370
    15
100
AcDbLine
 10
19.3401868217
 20
0.3272795795
 30
0.0
 11
19.3403872676
 21
0.5912794764
 31
0.0
  0
LINE
  5
1B3
330
23
100
AcDbEntity
  8
0
  6
Continuous
 62
     1
370
    15
100
AcDbLine
 10
15.5253176458
 20
0.5941752258
 30
0.0
 11
19.3403872676
 21
0.5912794764
 31
0.0
  0
LINE
  5
1B4
330
23
100
AcDbEntity
  8
0
  6
Continuous
 62
     1
370
    15
100
AcDbLine
 10
15.5251170542
 20
0.3301753175
 30
0.0
 11
15.5253176458
 21
0.5941752258
 31
0.0
  0
LINE
  5
1B5
330
23
100
AcDbEntity
  8
0
  6
Continuous
 62
     1
370
    15
100
AcDbLine
 10
13.52511745
 20
0.3316931525
 30
0.0
 11
15.5251170542
 21
0.3301753175
 31
0.0
  0
LINE
  5
1B6
330
23
100
AcDbEntity
  8
0
  6
Continuous
 62
     1
370
    15
100
AcDbLine
 10
13.52511745
 20
0.3316931525
 30
0.0
 11
13.5253180425
 21
0.5956930609
 31
0.0
  0
LINE
  5
1B7
330
23
100
AcDbEntity
  8
0
  6
Continuous
 62
     1
370
    15
100
AcDbLine
 10
10.9503663611
 20
0.5976476561
 30
0.0
 11
13.5253180425
 21
0.5956930609
 31
0.0
  0
LINE
  5
1B8
330
23
100
AcDbEntity
  8
0
  6
Continuous
 62
     1
370
    15
100
AcDbLine
 10
10.9503663611
 20
0.5976476561
 30
0.0
 11
10.5593325655
 21
5.5662031218
 31
0.0
  0
LINE
  5
1B9
330
23
100
AcDbEntity
  8
0
  6
Continuous
 62
     1
370
    15
100
AcDbLine
 10
13.1022765527
 20
5.9709448415
 30
0.0
 11
10.5593325655
 21
5.5662031218
 31
0.0
  0
LINE
  5
1BA
330
23
100
AcDbEntity
  8
0
  6
Continuous
 62
     1
370
    15
100
AcDbLine
 10
13.1022765527
 20
5.9709448415
 30
0.0
 11
13.0607797455
 21
6.2316630934
 31
0.0
  0
LINE
  5
1BB
330
23
100
AcDbEntity
  8
0
  6
Continuous
 62
     1
370
    15
100
AcDbLine
 10
15.035918594
 20
6.5460311095
 30
0.0
 11
13.0607797455
 21
6.2316630934
 31
0.0
  0
LINE
  5
1BC
330
23
100
AcDbEntity
  8
0
  6
Continuous
 62
     1
370
    15
100
AcDbLine
 10
15.0774154004
 20
6.2853128575
 30
0.0
 11
15.035918594
 21
6.5460311095
 31
0.0
  0
LINE
  5
1BD
330
23
100
AcDbEntity
  8
0
  6
Continuous
 62
     1
370
    15
100
AcDbLine
 10
18.8450621894
 20
6.8849813309
 30
0.0
 11
15.0774154004
 21
6.2853128575
 31
0.0
  0
LINE
  5
1BE
330
23
100
AcDbEntity
  8
0
  6
Continuous
 62
     1
370
    15
100
AcDbLine
 10
18.8035655287
 20
7.1456995943
 30
0.0
 11
18.8450621894
 21
6.8849813309
 31
0.0
  0
LINE
  5
1BF
330
23
100
AcDbEntity
  8
0
  6
Continuous
 62
     1
370
    15
100
AcDbLine
 10
20.778704194
 20
7.460067596
 30
0.0
 11
18.8035655287
 21
7.1456995943
 31
0.0
  0
LINE
  5
1C0
330
23
100
AcDbEntity
  8
0
  6
Continuous
 62
     1
370
    15
100
AcDbLine
 10
20.8202007909
 20
7.1993493275
 30
0.0
 11
20.778704194
 21
7.460067596
 31
0.0
  0
LINE
  5
1C1
330
23
100
AcDbEntity
  8
0
  6
Continuous
 62
     1
370
    15
100
AcDbLine
 10
22.8156624261
 20
7.5169521508
 30
0.0
 11
20.8202007909
 21
7.1993493275
 31
0.0
  0
LINE
  5
1C2
330
23
100
AcDbEntity
  8
0
  6
Continuous
 62
     1
370
    15
100
AcDbLine
 10
22.8156624261
 20
7.5169521508
 30
0.0
 11
23.0098545401
 21
5.049507392
 31
0.0
  0
CIRCLE
  5
1C3
330
23
100
AcDbEntity
  8
0
  6
Continuous
 62
     1
370
    15
100
AcDbCircle
 10
21.9309072056
 20
6.4051387828
 30
0.0
 40
0.0625000000000024
  0
ENDBLK
  5
25
330
23
100
AcDbEntity
  8
0
100
AcDbBlockEnd
  0
BLOCK
  5
1C6
330
1C4
100
AcDbEntity
  8
0
100
AcDbBlockBegin
  2
*Paper_Space1
 70
     0
 10
0.0
 20
0.0
 30
0.0
  3
*Paper_Space1
  1
*Paper_Space1
  0
LINE
  5
1C8
330
1C4
100
AcDbEntity
  8
0
  6
Continuous
 62
     1
370
    15
100
AcDbLine
 10
10.6010741116
 20
9.8192969701
 30
0.0
 11
10.725688987
 21
9.8291043734
 31
0.0
  0
LINE
  5
1C9
330
1C4
100
AcDbEntity
  8
0
  6
Continuous
 62
     1
370
    15
100
AcDbLine
 10
0.7565154777
 20
9.0445134026
 30
0.0
 11
0.9134336673
 21
7.0506787593
 31
0.0
  0
CIRCLE
  5
1CA
330
1C4
100
AcDbEntity
  8
0
  6
Continuous
 62
     1
370
    15
100
AcDbCircle
 10
10.0535786054
 20
10.4031407754
 30
0.0
 40
0.0624999999999988
  0
CIRCLE
  5
1CB
330
1C4
100
AcDbEntity
  8
0
  6
Continuous
 62
     1
370
    15
100
AcDbCircle
 10
9.3058906051
 20
10.3442964536
 30
0.0
 40
0.0624999999999972
  0
CIRCLE
  5
1CC
330
1C4
100
AcDbEntity
  8
0
  6
Continuous
 62
     1
370
    15
100
AcDbCircle
 10
10.3085706665
 20
7.1631594408
 30
0.0
 40
0.0625000000000006
  0
CIRCLE
  5
1CD
330
1C4
100
AcDbEntity
  8
0
  6
Continuous
 62
     1
370
    15
100
AcDbCircle
 10
9.5608826662
 20
7.104315119
 30
0.0
 40
0.0624999999999988
  0
LINE
  5
1CE
330
1C4
100
AcDbEntity
  8
0
  6
Continuous
 62
     1
370
    15
100
AcDbLine
 10
0.6319008948
 20
9.0347060223
 30
0.0
 11
0.7565154777
 21
9.0445134026
 31
0.0
  0
LINE
  5
1CF
330
1C4
100
AcDbEntity
  8
0
  6
Continuous
 62
     1
370
    15
100
AcDbLine
 10
0.6319008948
 20
9.0347060223
 30
0.0
 11
0.4369170163
 21
11.5122111026
 31
0.0
  0
LINE
  5
1D0
330
1C4
100
AcDbEntity
  8
0
  6
Continuous
 62
     1
370
    15
100
AcDbLine
 10
0.4369170163
 20
11.5122111026
 30
0.0
 11
2.4557553372
 21
11.5105184699
 31
0.0
  0
LINE
  5
1D1
330
1C4
100
AcDbEntity
  8
0
  6
Continuous
 62
     1
370
    15
100
AcDbLine
 10
2.4557553372
 20
11.5105184699
 30
0.0
 11
2.45597671
 21
11.7745182483
 31
0.0
  0
LINE
  5
1D2
330
1C4
100
AcDbEntity
  8
0
  6
Continuous
 62
     1
370
    15
100
AcDbLine
 10
2.45597671
 20
11.7745182483
 30
0.0
 11
4.455976083
 21
11.7728412129
 31
0.0
  0
LINE
  5
1D3
330
1C4
100
AcDbEntity
  8
0
  6
Continuous
 62
     1
370
    15
100
AcDbLine
 10
4.4557546532
 20
11.5088414299
 30
0.0
 11
4.455976083
 21
11.7728412129
 31
0.0
  0
LINE
  5
1D4
330
1C4
100
AcDbEntity
  8
0
  6
Continuous
 62
     1
370
    15
100
AcDbLine
 10
4.4557546532
 20
11.5088414299
 30
0.0
 11
7.963763936
 21
11.5058998783
 31
0.0
  0
LINE
  5
1D5
330
1C4
100
AcDbEntity
  8
0
  6
Continuous
 62
     1
370
    15
100
AcDbLine
 10
7.963763936
 20
11.5058998783
 30
0.0
 11
7.9639851966
 21
11.7698999422
 31
0.0
  0
LINE
  5
1D6
330
1C4
100
AcDbEntity
  8
0
  6
Continuous
 62
     1
370
    15
100
AcDbLine
 10
7.9639851966
 20
11.7698999422
 30
0.0
 11
9.9639841425
 21
11.7682228731
 31
0.0
  0
LINE
  5
1D7
330
1C4
100
AcDbEntity
  8
0
  6
Continuous
 62
     1
370
    15
100
AcDbLine
 10
9.9637628818
 20
11.5042228093
 30
0.0
 11
9.9639841425
 21
11.7682228731
 31
0.0
  0
LINE
  5
1D8
330
1C4
100
AcDbEntity
  8
0
  6
Continuous
 62
     1
370
    15
100
AcDbLine
 10
9.9637628818
 20
11.5042228093
 30
0.0
 11
13.471771703
 21
11.5012815156
 31
0.0
  0
LINE
  5
1D9
330
1C4
100
AcDbEntity
  8
0
  6
Continuous
 62
     1
370
    15
100
AcDbLine
 10
13.471771703
 20
11.5012815156
 30
0.0
 11
13.4719935715
 21
11.765281333
 31
0.0
  0
LINE
  5
1DA
330
1C4
100
AcDbEntity
  8
0
  6
Continuous
 62
     1
370
    15
100
AcDbLine
 10
13.4719935715
 20
11.765281333
 30
0.0
 11
15.4719931022
 21
11.76360431
 31
0.0
  0
LINE
  5
1DB
330
1C4
100
AcDbEntity
  8
0
  6
Continuous
 62
     1
370
    15
100
AcDbLine
 10
15.4717712337
 20
11.4996044926
 30
0.0
 11
15.4719931022
 21
11.76360431
 31
0.0
  0
LINE
  5
1DC
330
1C4
100
AcDbEntity
  8
0
  6
Continuous
 62
     1
370
    15
100
AcDbLine
 10
15.4717712337
 20
11.4996044926
 30
0.0
 11
17.4906102287
 21
11.4979117657
 31
0.0
  0
LINE
  5
1DD
330
1C4
100
AcDbEntity
  8
0
  6
Continuous
 62
     1
370
    15
100
AcDbLine
 10
17.4906102287
 20
11.4979117657
 30
0.0
 11
17.5794960214
 21
10.3685106853
 31
0.0
  0
LINE
  5
1DE
330
1C4
100
AcDbEntity
  8
0
  6
Continuous
 62
     1
370
    15
100
AcDbLine
 10
17.5794960214
 20
10.3685106853
 30
0.0
 11
17.4548805611
 21
10.3587032359
 31
0.0
  0
LINE
  5
1DF
330
1C4
100
AcDbEntity
  8
0
  6
Continuous
 62
     1
370
    15
100
AcDbLine
 10
17.4548805611
 20
10.3587032359
 30
0.0
 11
17.6117987507
 21
8.3648685925
 31
0.0
  0
LINE
  5
1E0
330
1C4
100
AcDbEntity
  8
0
  6
Continuous
 62
     1
370
    15
100
AcDbLine
 10
17.6117987507
 20
8.3648685925
 30
0.0
 11
17.7364142109
 21
8.3746760419
 31
0.0
  0
LINE
  5
1E1
330
1C4
100
AcDbEntity
  8
0
  6
Continuous
 62
     1
370
    15
100
AcDbLine
 10
17.7364142109
 20
8.3746760419
 30
0.0
 11
17.8253000037
 21
7.2452749615
 31
0.0
  0
LINE
  5
1E2
330
1C4
100
AcDbEntity
  8
0
  6
Continuous
 62
     1
370
    15
100
AcDbLine
 10
17.8253000037
 20
7.2452749615
 30
0.0
 11
15.8315810676
 21
6.9277870768
 31
0.0
  0
LINE
  5
1E3
330
1C4
100
AcDbEntity
  8
0
  6
Continuous
 62
     1
370
    15
100
AcDbLine
 10
15.8315810676
 20
6.9277870768
 30
0.0
 11
15.8730988747
 21
6.667072243
 31
0.0
  0
LINE
  5
1E4
330
1C4
100
AcDbEntity
  8
0
  6
Continuous
 62
     1
370
    15
100
AcDbLine
 10
15.8730988747
 20
6.667072243
 30
0.0
 11
13.8979850013
 21
6.3525470103
 31
0.0
  0
LINE
  5
1E5
330
1C4
100
AcDbEntity
  8
0
  6
Continuous
 62
     1
370
    15
100
AcDbLine
 10
13.8564671941
 20
6.613261844
 30
0.0
 11
13.8979850013
 21
6.3525470103
 31
0.0
  0
LINE
  5
1E6
330
1C4
100
AcDbEntity
  8
0
  6
Continuous
 62
     1
370
    15
100
AcDbLine
 10
13.8564671941
 20
6.613261844
 30
0.0
 11
10.3921079025
 21
6.0615832792
 31
0.0
  0
LINE
  5
1E7
330
1C4
100
AcDbEntity
  8
0
  6
Continuous
 62
     1
370
    15
100
AcDbLine
 10
10.3921079025
 20
6.0615832792
 30
0.0
 11
10.4336251478
 21
5.800868107
 31
0.0
  0
LINE
  5
1E8
330
1C4
100
AcDbEntity
  8
0
  6
Continuous
 62
     1
370
    15
100
AcDbLine
 10
10.4336251478
 20
5.800868107
 30
0.0
 11
8.4585118592
 21
5.4863429203
 31
0.0
  0
LINE
  5
1E9
330
1C4
100
AcDbEntity
  8
0
  6
Continuous
 62
     1
370
    15
100
AcDbLine
 10
8.4169946139
 20
5.7470580925
 30
0.0
 11
8.4585118592
 21
5.4863429203
 31
0.0
  0
LINE
  5
1EA
330
1C4
100
AcDbEntity
  8
0
  6
Continuous
 62
     1
370
    15
100
AcDbLine
 10
8.4169946139
 20
5.7470580925
 30
0.0
 11
4.9526349066
 21
5.1953792008
 31
0.0
  0
LINE
  5
1EB
330
1C4
100
AcDbEntity
  8
0
  6
Continuous
 62
     1
370
    15
100
AcDbLine
 10
4.9526349066
 20
5.1953792008
 30
0.0
 11
4.9941522751
 21
4.9346643325
 31
0.0
  0
LINE
  5
1EC
330
1C4
100
AcDbEntity
  8
0
  6
Continuous
 62
     1
370
    15
100
AcDbLine
 10
4.9941522751
 20
4.9346643325
 30
0.0
 11
3.0190385593
 21
4.6201391122
 31
0.0
  0
LINE
  5
1ED
330
1C4
100
AcDbEntity
  8
0
  6
Continuous
 62
     1
370
    15
100
AcDbLine
 10
2.9775212479
 20
4.8808539849
 30
0.0
 11
3.0190385593
 21
4.6201391122
 31
0.0
  0
LINE
  5
1EE
330
1C4
100
AcDbEntity
  8
0
  6
Continuous
 62
     1
370
    15
100
AcDbLine
 10
2.9775212479
 20
4.8808539849
 30
0.0
 11
0.9838029628
 21
4.5633662985
 31
0.0
  0
LINE
  5
1EF
330
1C4
100
AcDbEntity
  8
0
  6
Continuous
 62
     1
370
    15
100
AcDbLine
 10
0.9838029628
 20
4.5633662985
 30
0.0
 11
0.7888190843
 21
7.0408713789
 31
0.0
  0
LINE
  5
1F0
330
1C4
100
AcDbEntity
  8
0
  6
Continuous
 62
     1
370
    15
100
AcDbLine
 10
0.9134336673
 20
7.0506787593
 30
0.0
 11
0.7888190843
 21
7.0408713789
 31
0.0
  0
LINE
  5
1F1
330
1C4
100
AcDbEntity
  8
0
  6
Continuous
 62
     1
370
    15
100
AcDbLine
 10
10.6010741116
 20
9.8192969701
 30
0.0
 11
10.7579923012
 21
7.8254623267
 31
0.0
  0
LINE
  5
1F2
330
1C4
100
AcDbEntity
  8
0
  6
Continuous
 62
     1
370
    15
100
AcDbLine
 10
10.7579923012
 20
7.8254623267
 30
0.0
 11
10.8826071766
 21
7.8352697301
 31
0.0
  0
LINE
  5
1F3
330
1C4
100
AcDbEntity
  8
0
  6
Continuous
 62
     1
370
    15
100
AcDbLine
 10
10.725688987
 20
9.8291043734
 30
0.0
 11
10.8826071766
 21
7.8352697301
 31
0.0
  0
LINE
  5
1F4
330
1C4
100
AcDbEntity
  8
0
  6
Continuous
 62
     1
370
    15
100
AcDbLine
 10
11.4969970486
 20
2.1313022809
 30
0.0
 11
11.3723821732
 21
2.1214948775
 31
0.0
  0
LINE
  5
1F5
330
1C4
100
AcDbEntity
  8
0
  6
Continuous
 62
     1
370
    15
100
AcDbLine
 10
21.3415556825
 20
2.9060858483
 30
0.0
 11
21.1846374929
 21
4.8999204917
 31
0.0
  0
CIRCLE
  5
1F6
330
1C4
100
AcDbEntity
  8
0
  6
Continuous
 62
     1
370
    15
100
AcDbCircle
 10
12.0444925549
 20
1.5474584755
 30
0.0
 40
0.0624999999999995
  0
CIRCLE
  5
1F7
330
1C4
100
AcDbEntity
  8
0
  6
Continuous
 62
     1
370
    15
100
AcDbCircle
 10
12.7921805552
 20
1.6063027973
 30
0.0
 40
0.0624999999999993
  0
CIRCLE
  5
1F8
330
1C4
100
AcDbEntity
  8
0
  6
Continuous
 62
     1
370
    15
100
AcDbCircle
 10
11.7895004938
 20
4.7874398101
 30
0.0
 40
0.0624999999999997
  0
CIRCLE
  5
1F9
330
1C4
100
AcDbEntity
  8
0
  6
Continuous
 62
     1
370
    15
100
AcDbCircle
 10
12.5371884941
 20
4.8462841319
 30
0.0
 40
0.0624999999999997
  0
LINE
  5
1FA
330
1C4
100
AcDbEntity
  8
0
  6
Continuous
 62
     1
370
    15
100
AcDbLine
 10
21.4661702655
 20
2.9158932287
 30
0.0
 11
21.3415556825
 21
2.9060858483
 31
0.0
  0
LINE
  5
1FB
330
1C4
100
AcDbEntity
  8
0
  6
Continuous
 62
     1
370
    15
100
AcDbLine
 10
21.4661702655
 20
2.9158932287
 30
0.0
 11
21.661154144
 21
0.4383881483
 31
0.0
  0
LINE
  5
1FC
330
1C4
100
AcDbEntity
  8
0
  6
Continuous
 62
     1
370
    15
100
AcDbLine
 10
21.661154144
 20
0.4383881483
 30
0.0
 11
19.642315823
 21
0.4400807811
 31
0.0
  0
LINE
  5
1FD
330
1C4
100
AcDbEntity
  8
0
  6
Continuous
 62
     1
370
    15
100
AcDbLine
 10
19.642315823
 20
0.4400807811
 30
0.0
 11
19.6420944503
 21
0.1760810026
 31
0.0
  0
LINE
  5
1FE
330
1C4
100
AcDbEntity
  8
0
  6
Continuous
 62
     1
370
    15
100
AcDbLine
 10
19.6420944503
 20
0.1760810026
 30
0.0
 11
17.6420950772
 21
0.1777580381
 31
0.0
  0
LINE
  5
1FF
330
1C4
100
AcDbEntity
  8
0
  6
Continuous
 62
     1
370
    15
100
AcDbLine
 10
17.6423165071
 20
0.441757821
 30
0.0
 11
17.6420950772
 21
0.1777580381
 31
0.0
  0
LINE
  5
200
330
1C4
100
AcDbEntity
  8
0
  6
Continuous
 62
     1
370
    15
100
AcDbLine
 10
17.6423165071
 20
0.441757821
 30
0.0
 11
14.1343072243
 21
0.4446993726
 31
0.0
  0
LINE
  5
201
330
1C4
100
AcDbEntity
  8
0
  6
Continuous
 62
     1
370
    15
100
AcDbLine
 10
14.1343072243
 20
0.4446993726
 30
0.0
 11
14.1340859636
 21
0.1806993087
 31
0.0
  0
LINE
  5
202
330
1C4
100
AcDbEntity
  8
0
  6
Continuous
 62
     1
370
    15
100
AcDbLine
 10
14.1340859636
 20
0.1806993087
 30
0.0
 11
12.1340870178
 21
0.1823763778
 31
0.0
  0
LINE
  5
203
330
1C4
100
AcDbEntity
  8
0
  6
Continuous
 62
     1
370
    15
100
AcDbLine
 10
12.1343082784
 20
0.4463764416
 30
0.0
 11
12.1340870178
 21
0.1823763778
 31
0.0
  0
LINE
  5
204
330
1C4
100
AcDbEntity
  8
0
  6
Continuous
 62
     1
370
    15
100
AcDbLine
 10
12.1343082784
 20
0.4463764416
 30
0.0
 11
8.6262994573
 21
0.4493177353
 31
0.0
  0
LINE
  5
205
330
1C4
100
AcDbEntity
  8
0
  6
Continuous
 62
     1
370
    15
100
AcDbLine
 10
8.6262994573
 20
0.4493177353
 30
0.0
 11
8.6260775888
 21
0.1853179179
 31
0.0
  0
LINE
  5
206
330
1C4
100
AcDbEntity
  8
0
  6
Continuous
 62
     1
370
    15
100
AcDbLine
 10
8.6260775888
 20
0.1853179179
 30
0.0
 11
6.6260780581
 21
0.1869949409
 31
0.0
  0
LINE
  5
207
330
1C4
100
AcDbEntity
  8
0
  6
Continuous
 62
     1
370
    15
100
AcDbLine
 10
6.6262999266
 20
0.4509947584
 30
0.0
 11
6.6260780581
 21
0.1869949409
 31
0.0
  0
LINE
  5
208
330
1C4
100
AcDbEntity
  8
0
  6
Continuous
 62
     1
370
    15
100
AcDbLine
 10
6.6262999266
 20
0.4509947584
 30
0.0
 11
4.6074609316
 21
0.4526874852
 31
0.0
  0
LINE
  5
209
330
1C4
100
AcDbEntity
  8
0
  6
Continuous
 62
     1
370
    15
100
AcDbLine
 10
4.6074609316
 20
0.4526874852
 30
0.0
 11
4.5185751389
 21
1.5820885656
 31
0.0
  0
LINE
  5
20A
330
1C4
100
AcDbEntity
  8
0
  6
Continuous
 62
     1
370
    15
100
AcDbLine
 10
4.5185751389
 20
1.5820885656
 30
0.0
 11
4.6431905991
 21
1.591896015
 31
0.0
  0
LINE
  5
20B
330
1C4
100
AcDbEntity
  8
0
  6
Continuous
 62
     1
370
    15
100
AcDbLine
 10
4.6431905991
 20
1.591896015
 30
0.0
 11
4.4862724096
 21
3.5857306584
 31
0.0
  0
LINE
  5
20C
330
1C4
100
AcDbEntity
  8
0
  6
Continuous
 62
     1
370
    15
100
AcDbLine
 10
4.4862724096
 20
3.5857306584
 30
0.0
 11
4.3616569493
 21
3.575923209
 31
0.0
  0
LINE
  5
20D
330
1C4
100
AcDbEntity
  8
0
  6
Continuous
 62
     1
370
    15
100
AcDbLine
 10
4.3616569493
 20
3.575923209
 30
0.0
 11
4.2727711566
 21
4.7053242894
 31
0.0
  0
LINE
  5
20E
330
1C4
100
AcDbEntity
  8
0
  6
Continuous
 62
     1
370
    15
100
AcDbLine
 10
4.2727711566
 20
4.7053242894
 30
0.0
 11
6.2664900927
 21
5.0228121742
 31
0.0
  0
LINE
  5
20F
330
1C4
100
AcDbEntity
  8
0
  6
Continuous
 62
     1
370
    15
100
AcDbLine
 10
6.2664900927
 20
5.0228121742
 30
0.0
 11
6.2249722855
 21
5.2835270079
 31
0.0
  0
LINE
  5
210
330
1C4
100
AcDbEntity
  8
0
  6
Continuous
 62
     1
370
    15
100
AcDbLine
 10
6.2249722855
 20
5.2835270079
 30
0.0
 11
8.200086159
 21
5.5980522406
 31
0.0
  0
LINE
  5
211
330
1C4
100
AcDbEntity
  8
0
  6
Continuous
 62
     1
370
    15
100
AcDbLine
 10
8.2416039661
 20
5.3373374069
 30
0.0
 11
8.200086159
 21
5.5980522406
 31
0.0
  0
LINE
  5
212
330
1C4
100
AcDbEntity
  8
0
  6
Continuous
 62
     1
370
    15
100
AcDbLine
 10
8.2416039661
 20
5.3373374069
 30
0.0
 11
11.7059632578
 21
5.8890159717
 31
0.0
  0
LINE
  5
213
330
1C4
100
AcDbEntity
  8
0
  6
Continuous
 62
     1
370
    15
100
AcDbLine
 10
11.7059632578
 20
5.8890159717
 30
0.0
 11
11.6644460125
 21
6.1497311439
 31
0.0
  0
LINE
  5
214
330
1C4
100
AcDbEntity
  8
0
  6
Continuous
 62
     1
370
    15
100
AcDbLine
 10
11.6644460125
 20
6.1497311439
 30
0.0
 11
13.6395593011
 21
6.4642563306
 31
0.0
  0
LINE
  5
215
330
1C4
100
AcDbEntity
  8
0
  6
Continuous
 62
     1
370
    15
100
AcDbLine
 10
13.6810765464
 20
6.2035411584
 30
0.0
 11
13.6395593011
 21
6.4642563306
 31
0.0
  0
LINE
  5
216
330
1C4
100
AcDbEntity
  8
0
  6
Continuous
 62
     1
370
    15
100
AcDbLine
 10
13.6810765464
 20
6.2035411584
 30
0.0
 11
17.1454362537
 21
6.7552200501
 31
0.0
  0
LINE
  5
217
330
1C4
100
AcDbEntity
  8
0
  6
Continuous
 62
     1
370
    15
100
AcDbLine
 10
17.1454362537
 20
6.7552200501
 30
0.0
 11
17.1039188852
 21
7.0159349184
 31
0.0
  0
LINE
  5
218
330
1C4
100
AcDbEntity
  8
0
  6
Continuous
 62
     1
370
    15
100
AcDbLine
 10
17.1039188852
 20
7.0159349184
 30
0.0
 11
19.079032601
 21
7.3304601388
 31
0.0
  0
LINE
  5
219
330
1C4
100
AcDbEntity
  8
0
  6
Continuous
 62
     1
370
    15
100
AcDbLine
 10
19.1205499124
 20
7.069745266
 30
0.0
 11
19.079032601
 21
7.3304601388
 31
0.0
  0
LINE
  5
21A
330
1C4
100
AcDbEntity
  8
0
  6
Continuous
 62
     1
370
    15
100
AcDbLine
 10
19.1205499124
 20
7.069745266
 30
0.0
 11
21.1142681974
 21
7.3872329524
 31
0.0
  0
LINE
  5
21B
330
1C4
100
AcDbEntity
  8
0
  6
Continuous
 62
     1
370
    15
100
AcDbLine
 10
21.1142681974
 20
7.3872329524
 30
0.0
 11
21.3092520759
 21
4.909727872
 31
0.0
  0
LINE
  5
21C
330
1C4
100
AcDbEntity
  8
0
  6
Continuous
 62
     1
370
    15
100
AcDbLine
 10
21.1846374929
 20
4.8999204917
 30
0.0
 11
21.3092520759
 21
4.909727872
 31
0.0
  0
LINE
  5
21D
330
1C4
100
AcDbEntity
  8
0
  6
Continuous
 62
     1
370
    15
100
AcDbLine
 10
11.4969970486
 20
2.1313022809
 30
0.0
 11
11.3400788591
 21
4.1251369242
 31
0.0
  0
LINE
  5
21E
330
1C4
100
AcDbEntity
  8
0
  6
Continuous
 62
     1
370
    15
100
AcDbLine
 10
11.3400788591
 20
4.1251369242
 30
0.0
 11
11.2154639837
 21
4.1153295208
 31
0.0
  0
LINE
  5
21F
330
1C4
100
AcDbEntity
  8
0
  6
Continuous
 62
     1
370
    15
100
AcDbLine
 10
11.3723821732
 20
2.1214948775
 30
0.0
 11
11.2154639837
 21
4.1153295208
 31
0.0
  0
ENDBLK
  5
1C7
330
1C4
100
AcDbEntity
  8
0
100
AcDbBlockEnd
  0
BLOCK
  5
222
330
220
100
AcDbEntity
  8
0
100
AcDbBlockBegin
  2
*Paper_Space2
 70
     0
 10
0.0
 20
0.0
 30
0.0
  3
*Paper_Space2
  1
*Paper_Space2
  0
LINE
  5
224
330
220
100
AcDbEntity
  8
0
  6
Continuous
 62
     1
370
    15
100
AcDbLine
 10
9.4810693105
 20
9.0678066661
 30
0.0
 11
13.5780693683
 21
9.0678066661
 31
0.0
  0
LINE
  5
225
330
220
100
AcDbEntity
  8
0
  6
Continuous
 62
     1
370
    15
100
AcDbLine
 10
10.7310693504
 20
7.1928066063
 30
0.0
 11
10.7310693504
 21
5.5642088333
 31
0.0
  0
LINE
  5
226
330
220
100
AcDbEntity
  8
0
  6
Continuous
 62
     1
370
    15
100
AcDbLine
 10
10.5295693515
 20
8.5678065621
 30
0.0
 11
10.5295693515
 21
8.4428066461
 31
0.0
  0
LINE
  5
227
330
220
100
AcDbEntity
  8
0
  6
Continuous
 62
     1
370
    15
100
AcDbLine
 10
15.0780693868
 20
4.0642086681
 30
0.0
 11
15.0780693868
 21
8.4428066461
 31
0.0
  0
ARC
  5
228
330
220
100
AcDbEntity
  8
0
  6
Continuous
 62
     1
370
    15
100
AcDbCircle
 10
11.4810693394
 20
5.5642088856
 30
0.0
 40
0.7500000000000009
100
AcDbArc
 50
180.0
 51
270.0
  0
LINE
  5
229
330
220
100
AcDbEntity
  8
0
  6
Continuous
 62
     1
370
    15
100
AcDbLine
 10
11.4810693413
 20
4.8142087507
 30
0.0
 11
13.3280693896
 21
4.8142087507
 31
0.0
  0
ARC
  5
22A
330
220
100
AcDbEntity
  8
0
  6
Continuous
 62
     1
370
    15
100
AcDbCircle
 10
13.3280693394
 20
5.5642088856
 30
0.0
 40
0.7500000000000018
100
AcDbArc
 50
270.0
 51
0.0
  0
LINE
  5
22B
330
220
100
AcDbEntity
  8
0
  6
Continuous
 62
     1
370
    15
100
AcDbLine
 10
14.0780694722
 20
7.1928066063
 30
0.0
 11
14.0780694722
 21
5.5642088333
 31
0.0
  0
ARC
  5
22C
330
220
100
AcDbEntity
  8
0
  6
Continuous
 62
     1
370
    15
100
AcDbCircle
 10
13.3280693394
 20
7.1928066419
 30
0.0
 40
0.75
100
AcDbArc
 50
0.0
 51
90.0
  0
LINE
  5
22D
330
220
100
AcDbEntity
  8
0
  6
Continuous
 62
     1
370
    15
100
AcDbLine
 10
11.4810693413
 20
7.9428066889
 30
0.0
 11
13.3280693896
 21
7.9428066889
 31
0.0
  0
ARC
  5
22E
330
220
100
AcDbEntity
  8
0
  6
Continuous
 62
     1
370
    15
100
AcDbCircle
 10
11.4810693394
 20
7.1928066419
 30
0.0
 40
0.75
100
AcDbArc
 50
90.0
 51
180.0
  0
LINE
  5
22F
330
220
100
AcDbEntity
  8
0
  6
Continuous
 62
     1
370
    15
100
AcDbLine
 10
10.5295693515
 20
8.4428066461
 30
0.0
 11
12.5295693273
 21
8.4428066461
 31
0.0
  0
LINE
  5
230
330
220
100
AcDbEntity
  8
0
  6
Continuous
 62
     1
370
    15
100
AcDbLine
 10
12.5295693273
 20
8.5678065621
 30
0.0
 11
12.5295693273
 21
8.4428066461
 31
0.0
  0
LINE
  5
231
330
220
100
AcDbEntity
  8
0
  6
Continuous
 62
     1
370
    15
100
AcDbLine
 10
10.5295693515
 20
8.5678065621
 30
0.0
 11
12.5295693273
 21
8.5678065621
 31
0.0
  0
LINE
  5
232
330
220
100
AcDbEntity
  8
0
  6
Continuous
 62
     1
370
    15
100
AcDbLine
 10
12.5295693273
 20
4.0642086681
 30
0.0
 11
15.0780693868
 21
4.0642086681
 31
0.0
  0
LINE
  5
233
330
220
100
AcDbEntity
  8
0
  6
Continuous
 62
     1
370
    15
100
AcDbLine
 10
12.5295693273
 20
3.9392090454
 30
0.0
 11
12.5295693273
 21
4.0642086681
 31
0.0
  0
LINE
  5
234
330
220
100
AcDbEntity
  8
0
  6
Continuous
 62
     1
370
    15
100
AcDbLine
 10
10.5295693515
 20
3.9392090454
 30
0.0
 11
12.5295693273
 21
3.9392090454
 31
0.0
  0
LINE
  5
235
330
220
100
AcDbEntity
  8
0
  6
Continuous
 62
     1
370
    15
100
AcDbLine
 10
10.5295693515
 20
4.0642086681
 30
0.0
 11
10.5295693515
 21
3.9392090454
 31
0.0
  0
LINE
  5
236
330
220
100
AcDbEntity
  8
0
  6
Continuous
 62
     1
370
    15
100
AcDbLine
 10
7.981069292
 20
4.0642086681
 30
0.0
 11
10.5295693515
 21
4.0642086681
 31
0.0
  0
LINE
  5
237
330
220
100
AcDbEntity
  8
0
  6
Continuous
 62
     1
370
    15
100
AcDbLine
 10
7.981069292
 20
4.0642086681
 30
0.0
 11
7.981069292
 21
8.4428066461
 31
0.0
  0
LINE
  5
238
330
220
100
AcDbEntity
  8
0
  6
Continuous
 62
     1
370
    15
100
AcDbLine
 10
8.9810692066
 20
8.4428066461
 30
0.0
 11
7.981069292
 21
8.4428066461
 31
0.0
  0
LINE
  5
239
330
220
100
AcDbEntity
  8
0
  6
Continuous
 62
     1
370
    15
100
AcDbLine
 10
8.9810692066
 20
8.5678065621
 30
0.0
 11
8.9810692066
 21
8.4428066461
 31
0.0
  0
LINE
  5
23A
330
220
100
AcDbEntity
  8
0
  6
Continuous
 62
     1
370
    15
100
AcDbLine
 10
7.981069292
 20
8.5678065621
 30
0.0
 11
8.9810692066
 21
8.5678065621
 31
0.0
  0
LINE
  5
23B
330
220
100
AcDbEntity
  8
0
  6
Continuous
 62
     1
370
    15
100
AcDbLine
 10
7.981069292
 20
8.5678065621
 30
0.0
 11
7.981069292
 21
11.4877088978
 31
0.0
  0
LINE
  5
23C
330
220
100
AcDbEntity
  8
0
  6
Continuous
 62
     1
370
    15
100
AcDbLine
 10
10.5295693515
 20
11.4877088978
 30
0.0
 11
7.981069292
 21
11.4877088978
 31
0.0
  0
LINE
  5
23D
330
220
100
AcDbEntity
  8
0
  6
Continuous
 62
     1
370
    15
100
AcDbLine
 10
10.5295693515
 20
11.4877088978
 30
0.0
 11
10.5295693515
 21
11.6892088968
 31
0.0
  0
LINE
  5
23E
330
220
100
AcDbEntity
  8
0
  6
Continuous
 62
     1
370
    15
100
AcDbLine
 10
10.5295693515
 20
11.6892088968
 30
0.0
 11
12.5295693273
 21
11.6892088968
 31
0.0
  0
LINE
  5
23F
330
220
100
AcDbEntity
  8
0
  6
Continuous
 62
     1
370
    15
100
AcDbLine
 10
12.5295693273
 20
11.6892088968
 30
0.0
 11
12.5295693273
 21
11.4877088978
 31
0.0
  0
LINE
  5
240
330
220
100
AcDbEntity
  8
0
  6
Continuous
 62
     1
370
    15
100
AcDbLine
 10
15.0780693868
 20
11.4877088978
 30
0.0
 11
12.5295693273
 21
11.4877088978
 31
0.0
  0
LINE
  5
241
330
220
100
AcDbEntity
  8
0
  6
Continuous
 62
     1
370
    15
100
AcDbLine
 10
15.0780693868
 20
8.5678065621
 30
0.0
 11
15.0780693868
 21
11.4877088978
 31
0.0
  0
LINE
  5
242
330
220
100
AcDbEntity
  8
0
  6
Continuous
 62
     1
370
    15
100
AcDbLine
 10
15.0780693868
 20
8.5678065621
 30
0.0
 11
14.0780694722
 21
8.5678065621
 31
0.0
  0
LINE
  5
243
330
220
100
AcDbEntity
  8
0
  6
Continuous
 62
     1
370
    15
100
AcDbLine
 10
14.0780694722
 20
8.5678065621
 30
0.0
 11
14.0780694722
 21
8.4428066461
 31
0.0
  0
LINE
  5
244
330
220
100
AcDbEntity
  8
0
  6
Continuous
 62
     1
370
    15
100
AcDbLine
 10
14.0780694722
 20
8.4428066461
 30
0.0
 11
15.0780693868
 21
8.4428066461
 31
0.0
  0
ARC
  5
245
330
220
100
AcDbEntity
  8
0
  6
Continuous
 62
     1
370
    15
100
AcDbCircle
 10
13.5780693394
 20
9.8178066419
 30
0.0
 40
0.7500000000000018
100
AcDbArc
 50
270.0
 51
0.0
  0
LINE
  5
246
330
220
100
AcDbEntity
  8
0
  6
Continuous
 62
     1
370
    15
100
AcDbLine
 10
14.3280693042
 20
9.9877088793
 30
0.0
 11
14.3280693042
 21
9.817806602
 31
0.0
  0
ARC
  5
247
330
220
100
AcDbEntity
  8
0
  6
Continuous
 62
     1
370
    15
100
AcDbCircle
 10
13.5780693394
 20
9.9877088856
 30
0.0
 40
0.7500000000000018
100
AcDbArc
 50
0.0
 51
90.0
  0
LINE
  5
248
330
220
100
AcDbEntity
  8
0
  6
Continuous
 62
     1
370
    15
100
AcDbLine
 10
9.4810693105
 20
10.7377088886
 30
0.0
 11
13.5780693683
 21
10.7377088886
 31
0.0
  0
ARC
  5
249
330
220
100
AcDbEntity
  8
0
  6
Continuous
 62
     1
370
    15
100
AcDbCircle
 10
9.4810693394
 20
9.9877088856
 30
0.0
 40
0.7500000000000018
100
AcDbArc
 50
90.0
 51
180.0
  0
LINE
  5
24A
330
220
100
AcDbEntity
  8
0
  6
Continuous
 62
     1
370
    15
100
AcDbLine
 10
8.7310693746
 20
9.9877088793
 30
0.0
 11
8.7310693746
 21
9.817806602
 31
0.0
  0
ARC
  5
24B
330
220
100
AcDbEntity
  8
0
  6
Continuous
 62
     1
370
    15
100
AcDbCircle
 10
9.4810693394
 20
9.8178066419
 30
0.0
 40
0.7500000000000018
100
AcDbArc
 50
180.0
 51
270.0
  0
LINE
  5
24C
330
220
100
AcDbEntity
  8
0
  6
Continuous
 62
     1
370
    15
100
AcDbLine
 10
21.5957704249
 20
8.5555088912
 30
0.0
 11
21.5957704249
 21
8.4305089752
 31
0.0
  0
CIRCLE
  5
24D
330
220
100
AcDbEntity
  8
0
  6
Continuous
 62
     1
370
    15
100
AcDbCircle
 10
19.7985202921
 20
5.6510842931
 30
0.0
 40
0.0624999999999964
  0
CIRCLE
  5
24E
330
220
100
AcDbEntity
  8
0
  6
Continuous
 62
     1
370
    15
100
AcDbCircle
 10
18.2960202921
 20
5.6510842931
 30
0.0
 40
0.0625
  0
CIRCLE
  5
24F
330
220
100
AcDbEntity
  8
0
  6
Continuous
 62
     1
370
    15
100
AcDbCircle
 10
19.7985202921
 20
6.7735842931
 30
0.0
 40
0.0624999999999964
  0
CIRCLE
  5
250
330
220
100
AcDbEntity
  8
0
  6
Continuous
 62
     1
370
    15
100
AcDbCircle
 10
18.2960202921
 20
6.7735842931
 30
0.0
 40
0.0625
  0
LINE
  5
251
330
220
100
AcDbEntity
  8
0
  6
Continuous
 62
     1
370
    15
100
AcDbLine
 10
16.4987701592
 20
9.8055089311
 30
0.0
 11
16.4987701592
 21
9.9754112084
 31
0.0
  0
LINE
  5
252
330
220
100
AcDbEntity
  8
0
  6
Continuous
 62
     1
370
    15
100
AcDbLine
 10
20.04727028
 20
9.9754112084
 30
0.0
 11
20.04727028
 21
9.8055089311
 31
0.0
  0
ARC
  5
253
330
220
100
AcDbEntity
  8
0
  6
Continuous
 62
     1
370
    15
100
AcDbCircle
 10
16.9987702921
 20
9.9754112146
 30
0.0
 40
0.5000000000000018
100
AcDbArc
 50
90.0
 51
180.0
  0
LINE
  5
254
330
220
100
AcDbEntity
  8
0
  6
Continuous
 62
     1
370
    15
100
AcDbLine
 10
16.9987702632
 20
10.4754112023
 30
0.0
 11
17.5472702735
 21
10.4754112023
 31
0.0
  0
ARC
  5
255
330
220
100
AcDbEntity
  8
0
  6
Continuous
 62
     1
370
    15
100
AcDbCircle
 10
17.5472702921
 20
9.9754112146
 30
0.0
 40
0.5000000000000036
100
AcDbArc
 50
0.0
 51
90.0
  0
LINE
  5
256
330
220
100
AcDbEntity
  8
0
  6
Continuous
 62
     1
370
    15
100
AcDbLine
 10
18.0472703042
 20
9.9754112084
 30
0.0
 11
18.0472703042
 21
9.8055089311
 31
0.0
  0
ARC
  5
257
330
220
100
AcDbEntity
  8
0
  6
Continuous
 62
     1
370
    15
100
AcDbCircle
 10
17.5472702921
 20
9.805508971
 30
0.0
 40
0.5000000000000036
100
AcDbArc
 50
270.0
 51
0.0
  0
LINE
  5
258
330
220
100
AcDbEntity
  8
0
  6
Continuous
 62
     1
370
    15
100
AcDbLine
 10
17.5472702735
 20
9.3055089738
 30
0.0
 11
16.9987702632
 21
9.3055089738
 31
0.0
  0
ARC
  5
259
330
220
100
AcDbEntity
  8
0
  6
Continuous
 62
     1
370
    15
100
AcDbCircle
 10
16.9987702921
 20
9.805508971
 30
0.0
 40
0.5
100
AcDbArc
 50
180.0
 51
270.0
  0
ARC
  5
25A
330
220
100
AcDbEntity
  8
0
  6
Continuous
 62
     1
370
    15
100
AcDbCircle
 10
20.5472702921
 20
9.9754112146
 30
0.0
 40
0.5000000000000036
100
AcDbArc
 50
90.0
 51
180.0
  0
LINE
  5
25B
330
220
100
AcDbEntity
  8
0
  6
Continuous
 62
     1
370
    15
100
AcDbLine
 10
21.095770321
 20
10.4754112023
 30
0.0
 11
20.5472703106
 21
10.4754112023
 31
0.0
  0
ARC
  5
25C
330
220
100
AcDbEntity
  8
0
  6
Continuous
 62
     1
370
    15
100
AcDbCircle
 10
21.0957702921
 20
9.9754112146
 30
0.0
 40
0.5000000000000036
100
AcDbArc
 50
0.0
 51
90.0
  0
LINE
  5
25D
330
220
100
AcDbEntity
  8
0
  6
Continuous
 62
     1
370
    15
100
AcDbLine
 10
21.5957704249
 20
9.8055089311
 30
0.0
 11
21.5957704249
 21
9.9754112084
 31
0.0
  0
ARC
  5
25E
330
220
100
AcDbEntity
  8
0
  6
Continuous
 62
     1
370
    15
100
AcDbCircle
 10
21.0957702921
 20
9.805508971
 30
0.0
 40
0.5000000000000036
100
AcDbArc
 50
270.0
 51
0.0
  0
LINE
  5
25F
330
220
100
AcDbEntity
  8
0
  6
Continuous
 62
     1
370
    15
100
AcDbLine
 10
20.5472703106
 20
9.3055089738
 30
0.0
 11
21.095770321
 21
9.3055089738
 31
0.0
  0
ARC
  5
260
330
220
100
AcDbEntity
  8
0
  6
Continuous
 62
     1
370
    15
100
AcDbCircle
 10
20.5472702921
 20
9.805508971
 30
0.0
 40
0.5000000000000036
100
AcDbArc
 50
180.0
 51
270.0
  0
LINE
  5
261
330
220
100
AcDbEntity
  8
0
  6
Continuous
 62
     1
370
    15
100
AcDbLine
 10
21.5957704249
 20
8.5555088912
 30
0.0
 11
22.5957703395
 21
8.5555088912
 31
0.0
  0
LINE
  5
262
330
220
100
AcDbEntity
  8
0
  6
Continuous
 62
     1
370
    15
100
AcDbLine
 10
22.5957703395
 20
11.4754112269
 30
0.0
 11
22.5957703395
 21
8.5555088912
 31
0.0
  0
LINE
  5
263
330
220
100
AcDbEntity
  8
0
  6
Continuous
 62
     1
370
    15
100
AcDbLine
 10
20.04727028
 20
11.4754112269
 30
0.0
 11
22.5957703395
 21
11.4754112269
 31
0.0
  0
LINE
  5
264
330
220
100
AcDbEntity
  8
0
  6
Continuous
 62
     1
370
    15
100
AcDbLine
 10
20.04727028
 20
11.4754112269
 30
0.0
 11
20.04727028
 21
11.6769112258
 31
0.0
  0
LINE
  5
265
330
220
100
AcDbEntity
  8
0
  6
Continuous
 62
     1
370
    15
100
AcDbLine
 10
20.04727028
 20
11.6769112258
 30
0.0
 11
18.0472703042
 21
11.6769112258
 31
0.0
  0
LINE
  5
266
330
220
100
AcDbEntity
  8
0
  6
Continuous
 62
     1
370
    15
100
AcDbLine
 10
18.0472703042
 20
11.4754112269
 30
0.0
 11
18.0472703042
 21
11.6769112258
 31
0.0
  0
LINE
  5
267
330
220
100
AcDbEntity
  8
0
  6
Continuous
 62
     1
370
    15
100
AcDbLine
 10
18.0472703042
 20
11.4754112269
 30
0.0
 11
15.4987702447
 21
11.4754112269
 31
0.0
  0
LINE
  5
268
330
220
100
AcDbEntity
  8
0
  6
Continuous
 62
     1
370
    15
100
AcDbLine
 10
15.4987702447
 20
11.4754112269
 30
0.0
 11
15.4987702447
 21
8.5555088912
 31
0.0
  0
LINE
  5
269
330
220
100
AcDbEntity
  8
0
  6
Continuous
 62
     1
370
    15
100
AcDbLine
 10
16.4987701592
 20
8.5555088912
 30
0.0
 11
15.4987702447
 21
8.5555088912
 31
0.0
  0
LINE
  5
26A
330
220
100
AcDbEntity
  8
0
  6
Continuous
 62
     1
370
    15
100
AcDbLine
 10
16.4987701592
 20
8.5555088912
 30
0.0
 11
16.4987701592
 21
8.4305089752
 31
0.0
  0
LINE
  5
26B
330
220
100
AcDbEntity
  8
0
  6
Continuous
 62
     1
370
    15
100
AcDbLine
 10
16.4987701592
 20
8.4305089752
 30
0.0
 11
15.2972701724
 21
8.4305089752
 31
0.0
  0
LINE
  5
26C
330
220
100
AcDbEntity
  8
0
  6
Continuous
 62
     1
370
    15
100
AcDbLine
 10
15.2972701724
 20
8.4305089752
 30
0.0
 11
15.2972701724
 21
6.4305088527
 31
0.0
  0
LINE
  5
26D
330
220
100
AcDbEntity
  8
0
  6
Continuous
 62
     1
370
    15
100
AcDbLine
 10
15.4987702447
 20
6.4305088527
 30
0.0
 11
15.2972701724
 21
6.4305088527
 31
0.0
  0
LINE
  5
26E
330
220
100
AcDbEntity
  8
0
  6
Continuous
 62
     1
370
    15
100
AcDbLine
 10
15.4987702447
 20
4.0679185989
 30
0.0
 11
15.4987702447
 21
6.4305088527
 31
0.0
  0
LINE
  5
26F
330
220
100
AcDbEntity
  8
0
  6
Continuous
 62
     1
370
    15
100
AcDbLine
 10
18.0472703042
 20
4.0679185989
 30
0.0
 11
15.4987702447
 21
4.0679185989
 31
0.0
  0
LINE
  5
270
330
220
100
AcDbEntity
  8
0
  6
Continuous
 62
     1
370
    15
100
AcDbLine
 10
18.0472703042
 20
4.0679185989
 30
0.0
 11
18.0472703042
 21
3.9269113745
 31
0.0
  0
LINE
  5
271
330
220
100
AcDbEntity
  8
0
  6
Continuous
 62
     1
370
    15
100
AcDbLine
 10
20.04727028
 20
3.9269113745
 30
0.0
 11
18.0472703042
 21
3.9269113745
 31
0.0
  0
LINE
  5
272
330
220
100
AcDbEntity
  8
0
  6
Continuous
 62
     1
370
    15
100
AcDbLine
 10
20.04727028
 20
4.0679185989
 30
0.0
 11
20.04727028
 21
3.9269113745
 31
0.0
  0
LINE
  5
273
330
220
100
AcDbEntity
  8
0
  6
Continuous
 62
     1
370
    15
100
AcDbLine
 10
20.04727028
 20
4.0679185989
 30
0.0
 11
22.5957703395
 21
4.0679185989
 31
0.0
  0
LINE
  5
274
330
220
100
AcDbEntity
  8
0
  6
Continuous
 62
     1
370
    15
100
AcDbLine
 10
22.5957703395
 20
4.0679185989
 30
0.0
 11
22.5957703395
 21
6.4305088527
 31
0.0
  0
LINE
  5
275
330
220
100
AcDbEntity
  8
0
  6
Continuous
 62
     1
370
    15
100
AcDbLine
 10
22.5957703395
 20
6.4305088527
 30
0.0
 11
22.7972704118
 21
6.4305088527
 31
0.0
  0
LINE
  5
276
330
220
100
AcDbEntity
  8
0
  6
Continuous
 62
     1
370
    15
100
AcDbLine
 10
22.7972704118
 20
8.4305089752
 30
0.0
 11
22.7972704118
 21
6.4305088527
 31
0.0
  0
LINE
  5
277
330
220
100
AcDbEntity
  8
0
  6
Continuous
 62
     1
370
    15
100
AcDbLine
 10
21.5957704249
 20
8.4305089752
 30
0.0
 11
22.7972704118
 21
8.4305089752
 31
0.0
  0
LINE
  5
278
330
220
100
AcDbEntity
  8
0
  6
Continuous
 62
     1
370
    15
100
AcDbLine
 10
6.4851748281
 20
8.5693625289
 30
0.0
 11
6.4851748281
 21
8.4443626129
 31
0.0
  0
CIRCLE
  5
279
330
220
100
AcDbEntity
  8
0
  6
Continuous
 62
     1
370
    15
100
AcDbCircle
 10
4.6879246952
 20
5.6649379307
 30
0.0
 40
0.0625
  0
CIRCLE
  5
27A
330
220
100
AcDbEntity
  8
0
  6
Continuous
 62
     1
370
    15
100
AcDbCircle
 10
3.1854246952
 20
5.6649379307
 30
0.0
 40
0.0624999999999996
  0
CIRCLE
  5
27B
330
220
100
AcDbEntity
  8
0
  6
Continuous
 62
     1
370
    15
100
AcDbCircle
 10
4.6879246952
 20
6.7874379307
 30
0.0
 40
0.0625
  0
CIRCLE
  5
27C
330
220
100
AcDbEntity
  8
0
  6
Continuous
 62
     1
370
    15
100
AcDbCircle
 10
3.1854246952
 20
6.7874379307
 30
0.0
 40
0.0625000000000004
  0
LINE
  5
27D
330
220
100
AcDbEntity
  8
0
  6
Continuous
 62
     1
370
    15
100
AcDbLine
 10
1.3881745624
 20
9.8193625688
 30
0.0
 11
1.3881745624
 21
9.989264846
 31
0.0
  0
LINE
  5
27E
330
220
100
AcDbEntity
  8
0
  6
Continuous
 62
     1
370
    15
100
AcDbLine
 10
4.9366746832
 20
9.989264846
 30
0.0
 11
4.9366746832
 21
9.8193625688
 31
0.0
  0
ARC
  5
27F
330
220
100
AcDbEntity
  8
0
  6
Continuous
 62
     1
370
    15
100
AcDbCircle
 10
1.8881746952
 20
9.9892648523
 30
0.0
 40
0.5000000000000002
100
AcDbArc
 50
90.0
 51
180.0
  0
LINE
  5
280
330
220
100
AcDbEntity
  8
0
  6
Continuous
 62
     1
370
    15
100
AcDbLine
 10
1.8881746664
 20
10.48926484
 30
0.0
 11
2.4366746767
 21
10.48926484
 31
0.0
  0
ARC
  5
281
330
220
100
AcDbEntity
  8
0
  6
Continuous
 62
     1
370
    15
100
AcDbCircle
 10
2.4366746952
 20
9.9892648523
 30
0.0
 40
0.5
100
AcDbArc
 50
0.0
 51
90.0
  0
LINE
  5
282
330
220
100
AcDbEntity
  8
0
  6
Continuous
 62
     1
370
    15
100
AcDbLine
 10
2.9366747073
 20
9.989264846
 30
0.0
 11
2.9366747073
 21
9.8193625688
 31
0.0
  0
ARC
  5
283
330
220
100
AcDbEntity
  8
0
  6
Continuous
 62
     1
370
    15
100
AcDbCircle
 10
2.4366746952
 20
9.8193626086
 30
0.0
 40
0.5
100
AcDbArc
 50
270.0
 51
0.0
  0
LINE
  5
284
330
220
100
AcDbEntity
  8
0
  6
Continuous
 62
     1
370
    15
100
AcDbLine
 10
2.4366746767
 20
9.3193626115
 30
0.0
 11
1.8881746664
 21
9.3193626115
 31
0.0
  0
ARC
  5
285
330
220
100
AcDbEntity
  8
0
  6
Continuous
 62
     1
370
    15
100
AcDbCircle
 10
1.8881746952
 20
9.8193626086
 30
0.0
 40
0.5000000000000002
100
AcDbArc
 50
180.0
 51
270.0
  0
ARC
  5
286
330
220
100
AcDbEntity
  8
0
  6
Continuous
 62
     1
370
    15
100
AcDbCircle
 10
5.4366746952
 20
9.9892648523
 30
0.0
 40
0.5000000000000018
100
AcDbArc
 50
90.0
 51
180.0
  0
LINE
  5
287
330
220
100
AcDbEntity
  8
0
  6
Continuous
 62
     1
370
    15
100
AcDbLine
 10
5.9851747241
 20
10.48926484
 30
0.0
 11
5.4366747138
 21
10.48926484
 31
0.0
  0
ARC
  5
288
330
220
100
AcDbEntity
  8
0
  6
Continuous
 62
     1
370
    15
100
AcDbCircle
 10
5.9851746952
 20
9.9892648523
 30
0.0
 40
0.5000000000000018
100
AcDbArc
 50
0.0
 51
90.0
  0
LINE
  5
289
330
220
100
AcDbEntity
  8
0
  6
Continuous
 62
     1
370
    15
100
AcDbLine
 10
6.4851748281
 20
9.8193625688
 30
0.0
 11
6.4851748281
 21
9.989264846
 31
0.0
  0
ARC
  5
28A
330
220
100
AcDbEntity
  8
0
  6
Continuous
 62
     1
370
    15
100
AcDbCircle
 10
5.9851746952
 20
9.8193626086
 30
0.0
 40
0.5000000000000009
100
AcDbArc
 50
270.0
 51
0.0
  0
LINE
  5
28B
330
220
100
AcDbEntity
  8
0
  6
Continuous
 62
     1
370
    15
100
AcDbLine
 10
5.4366747138
 20
9.3193626115
 30
0.0
 11
5.9851747241
 21
9.3193626115
 31
0.0
  0
ARC
  5
28C
330
220
100
AcDbEntity
  8
0
  6
Continuous
 62
     1
370
    15
100
AcDbCircle
 10
5.4366746952
 20
9.8193626086
 30
0.0
 40
0.5000000000000009
100
AcDbArc
 50
180.0
 51
270.0
  0
LINE
  5
28D
330
220
100
AcDbEntity
  8
0
  6
Continuous
 62
     1
370
    15
100
AcDbLine
 10
6.4851748281
 20
8.5693625289
 30
0.0
 11
7.4851747427
 21
8.5693625289
 31
0.0
  0
LINE
  5
28E
330
220
100
AcDbEntity
  8
0
  6
Continuous
 62
     1
370
    15
100
AcDbLine
 10
7.4851747427
 20
11.4892648646
 30
0.0
 11
7.4851747427
 21
8.5693625289
 31
0.0
  0
LINE
  5
28F
330
220
100
AcDbEntity
  8
0
  6
Continuous
 62
     1
370
    15
100
AcDbLine
 10
4.9366746832
 20
11.4892648646
 30
0.0
 11
7.4851747427
 21
11.4892648646
 31
0.0
  0
LINE
  5
290
330
220
100
AcDbEntity
  8
0
  6
Continuous
 62
     1
370
    15
100
AcDbLine
 10
4.9366746832
 20
11.4892648646
 30
0.0
 11
4.9366746832
 21
11.6907648635
 31
0.0
  0
LINE
  5
291
330
220
100
AcDbEntity
  8
0
  6
Continuous
 62
     1
370
    15
100
AcDbLine
 10
4.9366746832
 20
11.6907648635
 30
0.0
 11
2.9366747073
 21
11.6907648635
 31
0.0
  0
LINE
  5
292
330
220
100
AcDbEntity
  8
0
  6
Continuous
 62
     1
370
    15
100
AcDbLine
 10
2.9366747073
 20
11.4892648646
 30
0.0
 11
2.9366747073
 21
11.6907648635
 31
0.0
  0
LINE
  5
293
330
220
100
AcDbEntity
  8
0
  6
Continuous
 62
     1
370
    15
100
AcDbLine
 10
2.9366747073
 20
11.4892648646
 30
0.0
 11
0.3881746478
 21
11.4892648646
 31
0.0
  0
LINE
  5
294
330
220
100
AcDbEntity
  8
0
  6
Continuous
 62
     1
370
    15
100
AcDbLine
 10
0.3881746478
 20
11.4892648646
 30
0.0
 11
0.3881746478
 21
8.5693625289
 31
0.0
  0
LINE
  5
295
330
220
100
AcDbEntity
  8
0
  6
Continuous
 62
     1
370
    15
100
AcDbLine
 10
1.3881745624
 20
8.5693625289
 30
0.0
 11
0.3881746478
 21
8.5693625289
 31
0.0
  0
LINE
  5
296
330
220
100
AcDbEntity
  8
0
  6
Continuous
 62
     1
370
    15
100
AcDbLine
 10
1.3881745624
 20
8.5693625289
 30
0.0
 11
1.3881745624
 21
8.4443626129
 31
0.0
  0
LINE
  5
297
330
220
100
AcDbEntity
  8
0
  6
Continuous
 62
     1
370
    15
100
AcDbLine
 10
1.3881745624
 20
8.4443626129
 30
0.0
 11
0.1866745756
 21
8.4443626129
 31
0.0
  0
LINE
  5
298
330
220
100
AcDbEntity
  8
0
  6
Continuous
 62
     1
370
    15
100
AcDbLine
 10
0.1866745756
 20
8.4443626129
 30
0.0
 11
0.1866745756
 21
6.4443624904
 31
0.0
  0
LINE
  5
299
330
220
100
AcDbEntity
  8
0
  6
Continuous
 62
     1
370
    15
100
AcDbLine
 10
0.3881746478
 20
6.4443624904
 30
0.0
 11
0.1866745756
 21
6.4443624904
 31
0.0
  0
LINE
  5
29A
330
220
100
AcDbEntity
  8
0
  6
Continuous
 62
     1
370
    15
100
AcDbLine
 10
0.3881746478
 20
4.0817722366
 30
0.0
 11
0.3881746478
 21
6.4443624904
 31
0.0
  0
LINE
  5
29B
330
220
100
AcDbEntity
  8
0
  6
Continuous
 62
     1
370
    15
100
AcDbLine
 10
2.9366747073
 20
4.0817722366
 30
0.0
 11
0.3881746478
 21
4.0817722366
 31
0.0
  0
LINE
  5
29C
330
220
100
AcDbEntity
  8
0
  6
Continuous
 62
     1
370
    15
100
AcDbLine
 10
2.9366747073
 20
4.0817722366
 30
0.0
 11
2.9366747073
 21
3.9407650121
 31
0.0
  0
LINE
  5
29D
330
220
100
AcDbEntity
  8
0
  6
Continuous
 62
     1
370
    15
100
AcDbLine
 10
4.9366746832
 20
3.9407650121
 30
0.0
 11
2.9366747073
 21
3.9407650121
 31
0.0
  0
LINE
  5
29E
330
220
100
AcDbEntity
  8
0
  6
Continuous
 62
     1
370
    15
100
AcDbLine
 10
4.9366746832
 20
4.0817722366
 30
0.0
 11
4.9366746832
 21
3.9407650121
 31
0.0
  0
LINE
  5
29F
330
220
100
AcDbEntity
  8
0
  6
Continuous
 62
     1
370
    15
100
AcDbLine
 10
4.9366746832
 20
4.0817722366
 30
0.0
 11
7.4851747427
 21
4.0817722366
 31
0.0
  0
LINE
  5
2A0
330
220
100
AcDbEntity
  8
0
  6
Continuous
 62
     1
370
    15
100
AcDbLine
 10
7.4851747427
 20
4.0817722366
 30
0.0
 11
7.4851747427
 21
6.4443624904
 31
0.0
  0
LINE
  5
2A1
330
220
100
AcDbEntity
  8
0
  6
Continuous
 62
     1
370
    15
100
AcDbLine
 10
7.4851747427
 20
6.4443624904
 30
0.0
 11
7.6866748149
 21
6.4443624904
 31
0.0
  0
LINE
  5
2A2
330
220
100
AcDbEntity
  8
0
  6
Continuous
 62
     1
370
    15
100
AcDbLine
 10
7.6866748149
 20
8.4443626129
 30
0.0
 11
7.6866748149
 21
6.4443624904
 31
0.0
  0
LINE
  5
2A3
330
220
100
AcDbEntity
  8
0
  6
Continuous
 62
     1
370
    15
100
AcDbLine
 10
6.4851748281
 20
8.4443626129
 30
0.0
 11
7.6866748149
 21
8.4443626129
 31
0.0
  0
ENDBLK
  5
223
330
220
100
AcDbEntity
  8
0
100
AcDbBlockEnd
  0
BLOCK
  5
2A6
330
2A4
100
AcDbEntity
  8
0
100
AcDbBlockBegin
  2
*Paper_Space3
 70
     0
 10
0.0
 20
0.0
 30
0.0
  3
*Paper_Space3
  1
*Paper_Space3
  0
LINE
  5
2A8
330
2A4
100
AcDbEntity
  8
0
  6
Continuous
 62
     1
370
    15
100
AcDbLine
 10
10.1272727394
 20
6.2556092456
 30
0.0
 11
12.1272727152
 21
6.2556092456
 31
0.0
  0
LINE
  5
2A9
330
2A4
100
AcDbEntity
  8
0
  6
Continuous
 62
     1
370
    15
100
AcDbLine
 10
9.9358959968
 20
10.7619455213
 30
0.0
 11
12.693649499
 21
10.7619455213
 31
0.0
  0
ARC
  5
2AA
330
2A4
100
AcDbEntity
  8
0
  6
Continuous
 62
     1
370
    15
100
AcDbCircle
 10
9.9358959883
 20
10.0119455074
 30
0.0
 40
0.75
100
AcDbArc
 50
90.0
 51
180.0
  0
LINE
  5
2AB
330
2A4
100
AcDbEntity
  8
0
  6
Continuous
 62
     1
370
    15
100
AcDbLine
 10
9.1858960609
 20
10.0119454387
 30
0.0
 11
9.1858960609
 21
8.0187779973
 31
0.0
  0
ARC
  5
2AC
330
2A4
100
AcDbEntity
  8
0
  6
Continuous
 62
     1
370
    15
100
AcDbCircle
 10
9.9358959883
 20
8.0187780548
 30
0.0
 40
0.75
100
AcDbArc
 50
180.0
 51
270.0
  0
LINE
  5
2AD
330
2A4
100
AcDbEntity
  8
0
  6
Continuous
 62
     1
370
    15
100
AcDbLine
 10
9.9358959968
 20
7.2687779147
 30
0.0
 11
12.3186494577
 21
7.2687779147
 31
0.0
  0
ARC
  5
2AE
330
2A4
100
AcDbEntity
  8
0
  6
Continuous
 62
     1
370
    15
100
AcDbCircle
 10
12.3186494662
 20
8.0187780548
 30
0.0
 40
0.75
100
AcDbArc
 50
270.0
 51
0.0
  0
LINE
  5
2AF
330
2A4
100
AcDbEntity
  8
0
  6
Continuous
 62
     1
370
    15
100
AcDbLine
 10
13.0686493937
 20
8.0187779973
 30
0.0
 11
13.0686493937
 21
9.7150676683
 31
0.0
  0
ARC
  5
2B0
330
2A4
100
AcDbEntity
  8
0
  6
Continuous
 62
     1
370
    15
100
AcDbCircle
 10
12.9436494662
 20
9.7150677396
 30
0.0
 40
0.1250000000000007
100
AcDbArc
 50
0.0
 51
75.0
  0
LINE
  5
2B1
330
2A4
100
AcDbEntity
  8
0
  6
Continuous
 62
     1
370
    15
100
AcDbLine
 10
12.4112971341
 20
9.9871206322
 30
0.0
 11
12.9760018639
 21
9.8358084335
 31
0.0
  0
ARC
  5
2B2
330
2A4
100
AcDbEntity
  8
0
  6
Continuous
 62
     1
370
    15
100
AcDbCircle
 10
12.4436494662
 20
10.1078613809
 30
0.0
 40
0.125
100
AcDbArc
 50
180.0
 51
255.0
  0
LINE
  5
2B3
330
2A4
100
AcDbEntity
  8
0
  6
Continuous
 62
     1
370
    15
100
AcDbLine
 10
12.3186494577
 20
10.1078613974
 30
0.0
 11
12.3186494577
 21
10.5119455427
 31
0.0
  0
ARC
  5
2B4
330
2A4
100
AcDbEntity
  8
0
  6
Continuous
 62
     1
370
    15
100
AcDbCircle
 10
12.4436494662
 20
10.5119455074
 30
0.0
 40
0.125
100
AcDbArc
 50
90.0
 51
180.0
  0
LINE
  5
2B5
330
2A4
100
AcDbEntity
  8
0
  6
Continuous
 62
     1
370
    15
100
AcDbLine
 10
12.4436495204
 20
10.6369454587
 30
0.0
 11
12.5686494364
 21
10.6369454587
 31
0.0
  0
LINE
  5
2B6
330
2A4
100
AcDbEntity
  8
0
  6
Continuous
 62
     1
370
    15
100
AcDbLine
 10
12.5686494364
 20
10.6369454587
 30
0.0
 11
12.5686494364
 21
10.38694548
 31
0.0
  0
ARC
  5
2B7
330
2A4
100
AcDbEntity
  8
0
  6
Continuous
 62
     1
370
    15
100
AcDbCircle
 10
12.6936494662
 20
10.3869455074
 30
0.0
 40
0.1250000000000018
100
AcDbArc
 50
180.0
 51
270.0
  0
LINE
  5
2B8
330
2A4
100
AcDbEntity
  8
0
  6
Continuous
 62
     1
370
    15
100
AcDbLine
 10
12.693649499
 20
10.261945564
 30
0.0
 11
12.9436494777
 21
10.261945564
 31
0.0
  0
ARC
  5
2B9
330
2A4
100
AcDbEntity
  8
0
  6
Continuous
 62
     1
370
    15
100
AcDbCircle
 10
12.9436494662
 20
10.3869455074
 30
0.0
 40
0.1250000000000018
100
AcDbArc
 50
270.0
 51
0.0
  0
ARC
  5
2BA
330
2A4
100
AcDbEntity
  8
0
  6
Continuous
 62
     1
370
    15
100
AcDbCircle
 10
12.6936494662
 20
10.3869455074
 30
0.0
 40
0.375
100
AcDbArc
 50
0.0
 51
90.0
  0
LINE
  5
2BB
330
2A4
100
AcDbEntity
  8
0
  6
Continuous
 62
     1
370
    15
100
AcDbLine
 10
10.1272727394
 20
6.5056090775
 30
0.0
 11
10.1272727394
 21
6.2556092456
 31
0.0
  0
LINE
  5
2BC
330
2A4
100
AcDbEntity
  8
0
  6
Continuous
 62
     1
370
    15
100
AcDbLine
 10
8.4358959783
 20
6.5056090775
 30
0.0
 11
10.1272727394
 21
6.5056090775
 31
0.0
  0
LINE
  5
2BD
330
2A4
100
AcDbEntity
  8
0
  6
Continuous
 62
     1
370
    15
100
AcDbLine
 10
8.4358959783
 20
8.0124400172
 30
0.0
 11
8.4358959783
 21
6.5056090775
 31
0.0
  0
LINE
  5
2BE
330
2A4
100
AcDbEntity
  8
0
  6
Continuous
 62
     1
370
    15
100
AcDbLine
 10
8.1727273918
 20
8.0124400172
 30
0.0
 11
8.4358959783
 21
8.0124400172
 31
0.0
  0
LINE
  5
2BF
330
2A4
100
AcDbEntity
  8
0
  6
Continuous
 62
     1
370
    15
100
AcDbLine
 10
8.1727273918
 20
10.0124401397
 30
0.0
 11
8.1727273918
 21
8.0124400172
 31
0.0
  0
LINE
  5
2C0
330
2A4
100
AcDbEntity
  8
0
  6
Continuous
 62
     1
370
    15
100
AcDbLine
 10
8.4358959783
 20
10.0124401397
 30
0.0
 11
8.1727273918
 21
10.0124401397
 31
0.0
  0
LINE
  5
2C1
330
2A4
100
AcDbEntity
  8
0
  6
Continuous
 62
     1
370
    15
100
AcDbLine
 10
8.4358959783
 20
11.5253657056
 30
0.0
 11
8.4358959783
 21
10.0124401397
 31
0.0
  0
LINE
  5
2C2
330
2A4
100
AcDbEntity
  8
0
  6
Continuous
 62
     1
370
    15
100
AcDbLine
 10
10.1272727394
 20
11.5253657056
 30
0.0
 11
8.4358959783
 21
11.5253657056
 31
0.0
  0
LINE
  5
2C3
330
2A4
100
AcDbEntity
  8
0
  6
Continuous
 62
     1
370
    15
100
AcDbLine
 10
10.1272727394
 20
11.7751142271
 30
0.0
 11
10.1272727394
 21
11.5253657056
 31
0.0
  0
LINE
  5
2C4
330
2A4
100
AcDbEntity
  8
0
  6
Continuous
 62
     1
370
    15
100
AcDbLine
 10
10.1272727394
 20
11.7751142271
 30
0.0
 11
12.1272727152
 21
11.7751142271
 31
0.0
  0
LINE
  5
2C5
330
2A4
100
AcDbEntity
  8
0
  6
Continuous
 62
     1
370
    15
100
AcDbLine
 10
12.1272727152
 20
11.7751142271
 30
0.0
 11
12.1272727152
 21
11.5253657056
 31
0.0
  0
LINE
  5
2C6
330
2A4
100
AcDbEntity
  8
0
  6
Continuous
 62
     1
370
    15
100
AcDbLine
 10
12.1272727152
 20
11.5253657056
 30
0.0
 11
13.8186494763
 21
11.5253657056
 31
0.0
  0
LINE
  5
2C7
330
2A4
100
AcDbEntity
  8
0
  6
Continuous
 62
     1
370
    15
100
AcDbLine
 10
13.8186494763
 20
11.5253657056
 30
0.0
 11
13.8186494763
 21
10.0124401397
 31
0.0
  0
LINE
  5
2C8
330
2A4
100
AcDbEntity
  8
0
  6
Continuous
 62
     1
370
    15
100
AcDbLine
 10
13.8186494763
 20
10.0124401397
 30
0.0
 11
14.0818180628
 21
10.0124401397
 31
0.0
  0
LINE
  5
2C9
330
2A4
100
AcDbEntity
  8
0
  6
Continuous
 62
     1
370
    15
100
AcDbLine
 10
14.0818180628
 20
10.0124401397
 30
0.0
 11
14.0818180628
 21
8.0124400172
 31
0.0
  0
LINE
  5
2CA
330
2A4
100
AcDbEntity
  8
0
  6
Continuous
 62
     1
370
    15
100
AcDbLine
 10
14.0818180628
 20
8.0124400172
 30
0.0
 11
13.8186494763
 21
8.0124400172
 31
0.0
  0
LINE
  5
2CB
330
2A4
100
AcDbEntity
  8
0
  6
Continuous
 62
     1
370
    15
100
AcDbLine
 10
13.8186494763
 20
8.0124400172
 30
0.0
 11
13.8186494763
 21
6.5056090775
 31
0.0
  0
LINE
  5
2CC
330
2A4
100
AcDbEntity
  8
0
  6
Continuous
 62
     1
370
    15
100
AcDbLine
 10
13.8186494763
 20
6.5056090775
 30
0.0
 11
12.1272727152
 21
6.5056090775
 31
0.0
  0
LINE
  5
2CD
330
2A4
100
AcDbEntity
  8
0
  6
Continuous
 62
     1
370
    15
100
AcDbLine
 10
12.1272727152
 20
6.5056090775
 30
0.0
 11
12.1272727152
 21
6.2556092456
 31
0.0
  0
LINE
  5
2CE
330
2A4
100
AcDbEntity
  8
0
  6
Continuous
 62
     1
370
    15
100
AcDbLine
 10
5.2011131605
 20
11.5147724991
 30
0.0
 11
5.2011131605
 21
11.3897723802
 31
0.0
  0
LINE
  5
2CF
330
2A4
100
AcDbEntity
  8
0
  6
Continuous
 62
     1
370
    15
100
AcDbLine
 10
5.2011131605
 20
11.5147724991
 30
0.0
 11
7.74961322
 21
11.5147724991
 31
0.0
  0
LINE
  5
2D0
330
2A4
100
AcDbEntity
  8
0
  6
Continuous
 62
     1
370
    15
100
AcDbLine
 10
7.74961322
 20
7.9715767731
 30
0.0
 11
7.74961322
 21
11.5147724991
 31
0.0
  0
LINE
  5
2D1
330
2A4
100
AcDbEntity
  8
0
  6
Continuous
 62
     1
370
    15
100
AcDbLine
 10
7.9511132922
 20
7.9715767731
 30
0.0
 11
7.74961322
 21
7.9715767731
 31
0.0
  0
LINE
  5
2D2
330
2A4
100
AcDbEntity
  8
0
  6
Continuous
 62
     1
370
    15
100
AcDbLine
 10
7.9511132922
 20
7.9715767731
 30
0.0
 11
7.9511132922
 21
5.9715769366
 31
0.0
  0
LINE
  5
2D3
330
2A4
100
AcDbEntity
  8
0
  6
Continuous
 62
     1
370
    15
100
AcDbLine
 10
7.9511132922
 20
5.9715769366
 30
0.0
 11
7.74961322
 21
5.9715769366
 31
0.0
  0
LINE
  5
2D4
330
2A4
100
AcDbEntity
  8
0
  6
Continuous
 62
     1
370
    15
100
AcDbLine
 10
7.74961322
 20
2.4283817917
 30
0.0
 11
7.74961322
 21
5.9715769366
 31
0.0
  0
LINE
  5
2D5
330
2A4
100
AcDbEntity
  8
0
  6
Continuous
 62
     1
370
    15
100
AcDbLine
 10
7.74961322
 20
2.4283817917
 30
0.0
 11
5.2011131605
 21
2.4283817917
 31
0.0
  0
LINE
  5
2D6
330
2A4
100
AcDbEntity
  8
0
  6
Continuous
 62
     1
370
    15
100
AcDbLine
 10
5.2011131605
 20
2.4283817917
 30
0.0
 11
5.2011131605
 21
2.5533812488
 31
0.0
  0
LINE
  5
2D7
330
2A4
100
AcDbEntity
  8
0
  6
Continuous
 62
     1
370
    15
100
AcDbLine
 10
5.2011131605
 20
2.5533812488
 30
0.0
 11
4.3408674198
 21
2.5533812488
 31
0.0
  0
ARC
  5
2D8
330
2A4
100
AcDbEntity
  8
0
  6
Continuous
 62
     1
370
    15
100
AcDbCircle
 10
4.2011131725
 20
2.6783815331
 30
0.0
 40
0.1875000000000012
100
AcDbArc
 50
318.1896851042
 51
221.8103148958
  0
LINE
  5
2D9
330
2A4
100
AcDbEntity
  8
0
  6
Continuous
 62
     1
370
    15
100
AcDbLine
 10
4.0613589253
 20
2.5533812488
 30
0.0
 11
3.2011131846
 21
2.5533812488
 31
0.0
  0
LINE
  5
2DA
330
2A4
100
AcDbEntity
  8
0
  6
Continuous
 62
     1
370
    15
100
AcDbLine
 10
3.2011131846
 20
2.5533812488
 30
0.0
 11
3.2011131846
 21
2.4283817917
 31
0.0
  0
LINE
  5
2DB
330
2A4
100
AcDbEntity
  8
0
  6
Continuous
 62
     1
370
    15
100
AcDbLine
 10
3.2011131846
 20
2.4283817917
 30
0.0
 11
0.6526131251
 21
2.4283817917
 31
0.0
  0
LINE
  5
2DC
330
2A4
100
AcDbEntity
  8
0
  6
Continuous
 62
     1
370
    15
100
AcDbLine
 10
0.6526131251
 20
2.4283817917
 30
0.0
 11
0.6526131251
 21
5.9715769366
 31
0.0
  0
LINE
  5
2DD
330
2A4
100
AcDbEntity
  8
0
  6
Continuous
 62
     1
370
    15
100
AcDbLine
 10
0.6526131251
 20
5.9715769366
 30
0.0
 11
0.4511130529
 21
5.9715769366
 31
0.0
  0
LINE
  5
2DE
330
2A4
100
AcDbEntity
  8
0
  6
Continuous
 62
     1
370
    15
100
AcDbLine
 10
0.4511130529
 20
5.9715769366
 30
0.0
 11
0.4511130529
 21
7.9715767731
 31
0.0
  0
LINE
  5
2DF
330
2A4
100
AcDbEntity
  8
0
  6
Continuous
 62
     1
370
    15
100
AcDbLine
 10
0.6526131251
 20
7.9715767731
 30
0.0
 11
0.4511130529
 21
7.9715767731
 31
0.0
  0
LINE
  5
2E0
330
2A4
100
AcDbEntity
  8
0
  6
Continuous
 62
     1
370
    15
100
AcDbLine
 10
0.6526131251
 20
7.9715767731
 30
0.0
 11
0.6526131251
 21
11.5147724991
 31
0.0
  0
LINE
  5
2E1
330
2A4
100
AcDbEntity
  8
0
  6
Continuous
 62
     1
370
    15
100
AcDbLine
 10
0.6526131251
 20
11.5147724991
 30
0.0
 11
3.2011131846
 21
11.5147724991
 31
0.0
  0
LINE
  5
2E2
330
2A4
100
AcDbEntity
  8
0
  6
Continuous
 62
     1
370
    15
100
AcDbLine
 10
3.2011131846
 20
11.3897723802
 30
0.0
 11
3.2011131846
 21
11.5147724991
 31
0.0
  0
LINE
  5
2E3
330
2A4
100
AcDbEntity
  8
0
  6
Continuous
 62
     1
370
    15
100
AcDbLine
 10
5.2011131605
 20
11.3897723802
 30
0.0
 11
3.2011131846
 21
11.3897723802
 31
0.0
  0
LINE
  5
2E4
330
2A4
100
AcDbEntity
  8
0
  6
Continuous
 62
     1
370
    15
100
AcDbLine
 10
6.2496132014
 20
10.5147725809
 30
0.0
 11
2.1526131437
 21
10.5147725809
 31
0.0
  0
ARC
  5
2E5
330
2A4
100
AcDbEntity
  8
0
  6
Continuous
 62
     1
370
    15
100
AcDbCircle
 10
2.1526131725
 20
9.7647724558
 30
0.0
 40
0.7500000000000002
100
AcDbArc
 50
90.0
 51
180.0
  0
LINE
  5
2E6
330
2A4
100
AcDbEntity
  8
0
  6
Continuous
 62
     1
370
    15
100
AcDbLine
 10
1.4026132077
 20
4.1783813904
 30
0.0
 11
1.4026132077
 21
9.7647725292
 31
0.0
  0
ARC
  5
2E7
330
2A4
100
AcDbEntity
  8
0
  6
Continuous
 62
     1
370
    15
100
AcDbCircle
 10
2.1526131725
 20
4.1783815331
 30
0.0
 40
0.75
100
AcDbArc
 50
180.0
 51
270.0
  0
LINE
  5
2E8
330
2A4
100
AcDbEntity
  8
0
  6
Continuous
 62
     1
370
    15
100
AcDbLine
 10
6.2496132014
 20
3.4283814194
 30
0.0
 11
2.1526131437
 21
3.4283814194
 31
0.0
  0
ARC
  5
2E9
330
2A4
100
AcDbEntity
  8
0
  6
Continuous
 62
     1
370
    15
100
AcDbCircle
 10
6.2496131725
 20
4.1783815331
 30
0.0
 40
0.7500000000000009
100
AcDbArc
 50
270.0
 51
0.0
  0
LINE
  5
2EA
330
2A4
100
AcDbEntity
  8
0
  6
Continuous
 62
     1
370
    15
100
AcDbLine
 10
6.9996131374
 20
4.1783813904
 30
0.0
 11
6.9996131374
 21
9.7647725292
 31
0.0
  0
ARC
  5
2EB
330
2A4
100
AcDbEntity
  8
0
  6
Continuous
 62
     1
370
    15
100
AcDbCircle
 10
6.2496131725
 20
9.7647724558
 30
0.0
 40
0.7500000000000009
100
AcDbArc
 50
0.0
 51
90.0
  0
ENDBLK
  5
2A7
330
2A4
100
AcDbEntity
  8
0
100
AcDbBlockEnd
  0
ENDSEC
  0
SECTION
  2
ENTITIES
  0
LINE
  5
6F
330
1F
100
AcDbEntity
  8
0
  6
Continuous
 62
     1
370
    15
100
AcDbLine
 10
3.8557564294
 20
4.6743858124
 30
0.0
 11
4.7672944859
 21
4.3553478446
 31
0.0
  0
LINE
  5
70
330
1F
100
AcDbEntity
  8
0
  6
Continuous
 62
     1
370
    15
100
AcDbLine
 10
14.8580499166
 20
10.4523480249
 30
0.0
 11
4.7330499748
 21
10.4523480249
 31
0.0
  0
LINE
  5
71
330
1F
100
AcDbEntity
  8
0
  6
Continuous
 62
     1
370
    15
100
AcDbLine
 10
14.8580499166
 20
10.4523480249
 30
0.0
 11
14.8580499166
 21
5.3553477592
 31
0.0
  0
LINE
  5
72
330
1F
100
AcDbEntity
  8
0
  6
Continuous
 62
     1
370
    15
100
AcDbLine
 10
4.7330499748
 20
5.3553477592
 30
0.0
 11
14.8580499166
 21
5.3553477592
 31
0.0
  0
LINE
  5
73
330
1F
100
AcDbEntity
  8
0
  6
Continuous
 62
     1
370
    15
100
AcDbLine
 10
4.7330499748
 20
6.9038479041
 30
0.0
 11
4.7330499748
 21
5.3553477592
 31
0.0
  0
LINE
  5
74
330
1F
100
AcDbEntity
  8
0
  6
Continuous
 62
     1
370
    15
100
AcDbLine
 10
5.8580500987
 20
6.9038479041
 30
0.0
 11
4.7330499748
 21
6.9038479041
 31
0.0
  0
LINE
  5
75
330
1F
100
AcDbEntity
  8
0
  6
Continuous
 62
     1
370
    15
100
AcDbLine
 10
4.7330499748
 20
8.9038478799
 30
0.0
 11
5.8580500987
 21
8.9038478799
 31
0.0
  0
LINE
  5
76
330
1F
100
AcDbEntity
  8
0
  6
Continuous
 62
     1
370
    15
100
AcDbLine
 10
4.7330499748
 20
10.4523480249
 30
0.0
 11
4.7330499748
 21
8.9038478799
 31
0.0
  0
LINE
  5
77
330
1F
100
AcDbEntity
  8
0
  6
Continuous
 62
     1
370
    15
100
AcDbLine
 10
4.7672944859
 20
4.3553478446
 30
0.0
 11
23.6080499026
 21
4.3553478446
 31
0.0
  0
LINE
  5
78
330
1F
100
AcDbEntity
  8
0
  6
Continuous
 62
     1
370
    15
100
AcDbLine
 10
23.6080499026
 20
6.9038479041
 30
0.0
 11
23.6080499026
 21
4.3553478446
 31
0.0
  0
LINE
  5
79
330
1F
100
AcDbEntity
  8
0
  6
Continuous
 62
     1
370
    15
100
AcDbLine
 10
23.7330499652
 20
6.9038479041
 30
0.0
 11
23.6080499026
 21
6.9038479041
 31
0.0
  0
LINE
  5
7A
330
1F
100
AcDbEntity
  8
0
  6
Continuous
 62
     1
370
    15
100
AcDbLine
 10
23.7330499652
 20
8.9038478799
 30
0.0
 11
23.7330499652
 21
6.9038479041
 31
0.0
  0
LINE
  5
7B
330
1F
100
AcDbEntity
  8
0
  6
Continuous
 62
     1
370
    15
100
AcDbLine
 10
23.6080499026
 20
8.9038478799
 30
0.0
 11
23.7330499652
 21
8.9038478799
 31
0.0
  0
LINE
  5
7C
330
1F
100
AcDbEntity
  8
0
  6
Continuous
 62
     1
370
    15
100
AcDbLine
 10
23.6080499026
 20
11.4523479394
 30
0.0
 11
23.6080499026
 21
8.9038478799
 31
0.0
  0
LINE
  5
7D
330
1F
100
AcDbEntity
  8
0
  6
Continuous
 62
     1
370
    15
100
AcDbLine
 10
23.6080499026
 20
11.4523479394
 30
0.0
 11
4.7672944859
 21
11.4523479394
 31
0.0
  0
LINE
  5
7E
330
1F
100
AcDbEntity
  8
0
  6
Continuous
 62
     1
370
    15
100
AcDbLine
 10
4.7672944859
 20
11.4523479394
 30
0.0
 11
0.3976474711
 21
9.9229719536
 31
0.0
  0
LINE
  5
7F
330
1F
100
AcDbEntity
  8
0
  6
Continuous
 62
     1
370
    15
100
AcDbLine
 10
0.3976474711
 20
9.9229719536
 30
0.0
 11
0.3976474711
 21
5.8847238304
 31
0.0
  0
LINE
  5
80
330
1F
100
AcDbEntity
  8
0
  6
Continuous
 62
     1
370
    15
100
AcDbLine
 10
0.3976474711
 20
5.8847238304
 30
0.0
 11
1.9680397831
 21
5.3350865799
 31
0.0
  0
LINE
  5
81
330
1F
100
AcDbEntity
  8
0
  6
Continuous
 62
     1
370
    15
100
AcDbLine
 10
1.9680397831
 20
5.3350865799
 30
0.0
 11
1.7930414847
 21
4.8350866226
 31
0.0
  0
LINE
  5
82
330
1F
100
AcDbEntity
  8
0
  6
Continuous
 62
     1
370
    15
100
AcDbLine
 10
1.7930414847
 20
4.8350866226
 30
0.0
 11
0.1726493236
 21
4.8350866226
 31
0.0
  0
LINE
  5
83
330
1F
100
AcDbEntity
  8
0
  6
Continuous
 62
     1
370
    15
100
AcDbLine
 10
0.1726493236
 20
4.8350866226
 30
0.0
 11
0.1726493236
 21
4.08508654
 31
0.0
  0
LINE
  5
84
330
1F
100
AcDbEntity
  8
0
  6
Continuous
 62
     1
370
    15
100
AcDbLine
 10
0.1726493236
 20
4.08508654
 30
0.0
 11
3.5292895874
 21
4.08508654
 31
0.0
  0
ARC
  5
85
330
1F
100
AcDbEntity
  8
0
  6
Continuous
 62
     1
370
    15
100
AcDbCircle
 10
1.9680404825
 20
5.335086625
 30
0.0
 40
1.999999999999999
100
AcDbArc
 50
321.3178125465
 51
340.7099537808
  0
LINE
  5
86
330
1F
100
AcDbEntity
  8
0
  6
Continuous
 62
     1
370
    15
100
AcDbLine
 10
6.1176881479
 20
5.858090066
 30
0.0
 11
10.0274730084
 21
5.858090066
 31
0.0
  0
LINE
  5
87
330
1F
100
AcDbEntity
  8
0
  6
Continuous
 62
     1
370
    15
100
AcDbLine
 10
7.9163305732
 20
9.2542569798
 30
0.0
 11
8.2288305832
 21
9.2542569798
 31
0.0
  0
CIRCLE
  5
88
330
1F
100
AcDbEntity
  8
0
  6
Continuous
 62
     1
370
    15
100
AcDbCircle
 10
7.2618826535
 20
7.0932243523
 30
0.0
 40
0.0624999999999991
  0
CIRCLE
  5
89
330
1F
100
AcDbEntity
  8
0
  6
Continuous
 62
     1
370
    15
100
AcDbCircle
 10
8.8832785028
 20
7.0932243523
 30
0.0
 40
0.0625
  0
CIRCLE
  5
8A
330
1F
100
AcDbEntity
  8
0
  6
Continuous
 62
     1
370
    15
100
AcDbCircle
 10
8.8832785028
 20
8.7146202016
 30
0.0
 40
0.0625
  0
CIRCLE
  5
8B
330
1F
100
AcDbEntity
  8
0
  6
Continuous
 62
     1
370
    15
100
AcDbCircle
 10
7.2618826535
 20
8.7146202016
 30
0.0
 40
0.0625
  0
CIRCLE
  5
8C
330
1F
100
AcDbEntity
  8
0
  6
Continuous
 62
     1
370
    15
100
AcDbCircle
 10
8.9269112868
 20
6.6157701618
 30
0.0
 40
0.0625
  0
CIRCLE
  5
8D
330
1F
100
AcDbEntity
  8
0
  6
Continuous
 62
     1
370
    15
100
AcDbCircle
 10
8.9269112868
 20
7.4850615004
 30
0.0
 40
0.0625
  0
CIRCLE
  5
8E
330
1F
100
AcDbEntity
  8
0
  6
Continuous
 62
     1
370
    15
100
AcDbCircle
 10
7.2182498695
 20
7.4850615004
 30
0.0
 40
0.0625
  0
CIRCLE
  5
8F
330
1F
100
AcDbEntity
  8
0
  6
Continuous
 62
     1
370
    15
100
AcDbCircle
 10
7.2182498695
 20
6.6157701618
 30
0.0
 40
0.0625
  0
CIRCLE
  5
90
330
1F
100
AcDbEntity
  8
0
  6
Continuous
 62
     1
370
    15
100
AcDbCircle
 10
8.0725805782
 20
7.903922277
 30
0.0
 40
0.28125
  0
ARC
  5
91
330
1F
100
AcDbEntity
  8
0
  6
Continuous
 62
     1
370
    15
100
AcDbCircle
 10
7.9163305782
 20
9.37925691
 30
0.0
 40
0.1250000000000018
100
AcDbArc
 50
90.0
 51
270.0
  0
LINE
  5
92
330
1F
100
AcDbEntity
  8
0
  6
Continuous
 62
     1
370
    15
100
AcDbLine
 10
7.9163305732
 20
9.5042569585
 30
0.0
 11
8.2288305832
 21
9.5042569585
 31
0.0
  0
ARC
  5
93
330
1F
100
AcDbEntity
  8
0
  6
Continuous
 62
     1
370
    15
100
AcDbCircle
 10
8.2288305782
 20
9.37925691
 30
0.0
 40
0.1250000000000018
100
AcDbArc
 50
270.0
 51
90.0
  0
LINE
  5
94
330
1F
100
AcDbEntity
  8
0
  6
Continuous
 62
     1
370
    15
100
AcDbLine
 10
10.0274730084
 20
6.9039221978
 30
0.0
 11
10.0274730084
 21
5.858090066
 31
0.0
  0
LINE
  5
95
330
1F
100
AcDbEntity
  8
0
  6
Continuous
 62
     1
370
    15
100
AcDbLine
 10
10.291330627
 20
6.9039221978
 30
0.0
 11
10.0274730084
 21
6.9039221978
 31
0.0
  0
LINE
  5
96
330
1F
100
AcDbEntity
  8
0
  6
Continuous
 62
     1
370
    15
100
AcDbLine
 10
10.291330627
 20
6.9039221978
 30
0.0
 11
10.291330627
 21
8.9039223203
 31
0.0
  0
LINE
  5
97
330
1F
100
AcDbEntity
  8
0
  6
Continuous
 62
     1
370
    15
100
AcDbLine
 10
10.0274730084
 20
8.9039223203
 30
0.0
 11
10.291330627
 21
8.9039223203
 31
0.0
  0
LINE
  5
98
330
1F
100
AcDbEntity
  8
0
  6
Continuous
 62
     1
370
    15
100
AcDbLine
 10
10.0274730084
 20
8.9039223203
 30
0.0
 11
10.0274730084
 21
9.9497546721
 31
0.0
  0
LINE
  5
99
330
1F
100
AcDbEntity
  8
0
  6
Continuous
 62
     1
370
    15
100
AcDbLine
 10
6.1176881479
 20
9.9497546721
 30
0.0
 11
10.0274730084
 21
9.9497546721
 31
0.0
  0
LINE
  5
9A
330
1F
100
AcDbEntity
  8
0
  6
Continuous
 62
     1
370
    15
100
AcDbLine
 10
6.1176881479
 20
8.9039223203
 30
0.0
 11
6.1176881479
 21
9.9497546721
 31
0.0
  0
LINE
  5
9B
330
1F
100
AcDbEntity
  8
0
  6
Continuous
 62
     1
370
    15
100
AcDbLine
 10
6.1176881479
 20
8.9039223203
 30
0.0
 11
5.8538305294
 21
8.9039223203
 31
0.0
  0
LINE
  5
9C
330
1F
100
AcDbEntity
  8
0
  6
Continuous
 62
     1
370
    15
100
AcDbLine
 10
5.8538305294
 20
8.9039223203
 30
0.0
 11
5.8538305294
 21
6.9039221978
 31
0.0
  0
LINE
  5
9D
330
1F
100
AcDbEntity
  8
0
  6
Continuous
 62
     1
370
    15
100
AcDbLine
 10
5.8538305294
 20
6.9039221978
 30
0.0
 11
6.1176881479
 21
6.9039221978
 31
0.0
  0
LINE
  5
9E
330
1F
100
AcDbEntity
  8
0
  6
Continuous
 62
     1
370
    15
100
AcDbLine
 10
6.1176881479
 20
6.9039221978
 30
0.0
 11
6.1176881479
 21
5.858090066
 31
0.0
  0
LINE
  5
9F
330
1F
100
AcDbEntity
  8
0
  6
Continuous
 62
     1
370
    15
100
AcDbLine
 10
10.6182399815
 20
5.8621241792
 30
0.0
 11
14.528024842
 21
5.8621241792
 31
0.0
  0
LINE
  5
A0
330
1F
100
AcDbEntity
  8
0
  6
Continuous
 62
     1
370
    15
100
AcDbLine
 10
12.4168824067
 20
9.2582910931
 30
0.0
 11
12.7293824167
 21
9.2582910931
 31
0.0
  0
CIRCLE
  5
A1
330
1F
100
AcDbEntity
  8
0
  6
Continuous
 62
     1
370
    15
100
AcDbCircle
 10
11.7624344871
 20
7.0972584656
 30
0.0
 40
0.0625000000000018
  0
CIRCLE
  5
A2
330
1F
100
AcDbEntity
  8
0
  6
Continuous
 62
     1
370
    15
100
AcDbCircle
 10
13.3838303363
 20
7.0972584656
 30
0.0
 40
0.0625
  0
CIRCLE
  5
A3
330
1F
100
AcDbEntity
  8
0
  6
Continuous
 62
     1
370
    15
100
AcDbCircle
 10
13.3838303363
 20
8.7186543148
 30
0.0
 40
0.0624999999999982
  0
CIRCLE
  5
A4
330
1F
100
AcDbEntity
  8
0
  6
Continuous
 62
     1
370
    15
100
AcDbCircle
 10
11.7624344871
 20
8.7186543148
 30
0.0
 40
0.0624999999999982
  0
CIRCLE
  5
A5
330
1F
100
AcDbEntity
  8
0
  6
Continuous
 62
     1
370
    15
100
AcDbCircle
 10
13.4274631204
 20
6.6198042751
 30
0.0
 40
0.0625
  0
CIRCLE
  5
A6
330
1F
100
AcDbEntity
  8
0
  6
Continuous
 62
     1
370
    15
100
AcDbCircle
 10
13.4274631204
 20
7.4890956136
 30
0.0
 40
0.0625
  0
CIRCLE
  5
A7
330
1F
100
AcDbEntity
  8
0
  6
Continuous
 62
     1
370
    15
100
AcDbCircle
 10
11.718801703
 20
7.4890956136
 30
0.0
 40
0.0625
  0
CIRCLE
  5
A8
330
1F
100
AcDbEntity
  8
0
  6
Continuous
 62
     1
370
    15
100
AcDbCircle
 10
11.718801703
 20
6.6198042751
 30
0.0
 40
0.0625
  0
CIRCLE
  5
A9
330
1F
100
AcDbEntity
  8
0
  6
Continuous
 62
     1
370
    15
100
AcDbCircle
 10
12.5731324117
 20
7.9079563902
 30
0.0
 40
0.28125
  0
ARC
  5
AA
330
1F
100
AcDbEntity
  8
0
  6
Continuous
 62
     1
370
    15
100
AcDbCircle
 10
12.4168824117
 20
9.3832910232
 30
0.0
 40
0.1250000000000018
100
AcDbArc
 50
90.0
 51
270.0
  0
LINE
  5
AB
330
1F
100
AcDbEntity
  8
0
  6
Continuous
 62
     1
370
    15
100
AcDbLine
 10
12.4168824067
 20
9.5082910717
 30
0.0
 11
12.7293824167
 21
9.5082910717
 31
0.0
  0
ARC
  5
AC
330
1F
100
AcDbEntity
  8
0
  6
Continuous
 62
     1
370
    15
100
AcDbCircle
 10
12.7293824117
 20
9.3832910232
 30
0.0
 40
0.1250000000000018
100
AcDbArc
 50
270.0
 51
90.0
  0
LINE
  5
AD
330
1F
100
AcDbEntity
  8
0
  6
Continuous
 62
     1
370
    15
100
AcDbLine
 10
14.528024842
 20
6.907956311
 30
0.0
 11
14.528024842
 21
5.8621241792
 31
0.0
  0
LINE
  5
AE
330
1F
100
AcDbEntity
  8
0
  6
Continuous
 62
     1
370
    15
100
AcDbLine
 10
14.7918824605
 20
6.907956311
 30
0.0
 11
14.528024842
 21
6.907956311
 31
0.0
  0
LINE
  5
AF
330
1F
100
AcDbEntity
  8
0
  6
Continuous
 62
     1
370
    15
100
AcDbLine
 10
14.7918824605
 20
6.907956311
 30
0.0
 11
14.7918824605
 21
8.9079564335
 31
0.0
  0
LINE
  5
B0
330
1F
100
AcDbEntity
  8
0
  6
Continuous
 62
     1
370
    15
100
AcDbLine
 10
14.528024842
 20
8.9079564335
 30
0.0
 11
14.7918824605
 21
8.9079564335
 31
0.0
  0
LINE
  5
B1
330
1F
100
AcDbEntity
  8
0
  6
Continuous
 62
     1
370
    15
100
AcDbLine
 10
14.528024842
 20
8.9079564335
 30
0.0
 11
14.528024842
 21
9.9537887853
 31
0.0
  0
LINE
  5
B2
330
1F
100
AcDbEntity
  8
0
  6
Continuous
 62
     1
370
    15
100
AcDbLine
 10
10.6182399815
 20
9.9537887853
 30
0.0
 11
14.528024842
 21
9.9537887853
 31
0.0
  0
LINE
  5
B3
330
1F
100
AcDbEntity
  8
0
  6
Continuous
 62
     1
370
    15
100
AcDbLine
 10
10.6182399815
 20
8.9079564335
 30
0.0
 11
10.6182399815
 21
9.9537887853
 31
0.0
  0
LINE
  5
B4
330
1F
100
AcDbEntity
  8
0
  6
Continuous
 62
     1
370
    15
100
AcDbLine
 10
10.6182399815
 20
8.9079564335
 30
0.0
 11
10.3543823629
 21
8.9079564335
 31
0.0
  0
LINE
  5
B5
330
1F
100
AcDbEntity
  8
0
  6
Continuous
 62
     1
370
    15
100
AcDbLine
 10
10.3543823629
 20
8.9079564335
 30
0.0
 11
10.3543823629
 21
6.907956311
 31
0.0
  0
LINE
  5
B6
330
1F
100
AcDbEntity
  8
0
  6
Continuous
 62
     1
370
    15
100
AcDbLine
 10
10.3543823629
 20
6.907956311
 30
0.0
 11
10.6182399815
 21
6.907956311
 31
0.0
  0
LINE
  5
B7
330
1F
100
AcDbEntity
  8
0
  6
Continuous
 62
     1
370
    15
100
AcDbLine
 10
10.6182399815
 20
6.907956311
 30
0.0
 11
10.6182399815
 21
5.8621241792
 31
0.0
  0
LINE
  5
B8
330
1B
100
AcDbEntity
 67
     1
  8
0
  6
Continuous
 62
     1
370
    15
100
AcDbLine
 10
3.0126704572
 20
10.8884464879
 30
0.0
 11
1.8315679014
 21
10.8884464879
 31
0.0
  0
ARC
  5
B9
330
1B
100
AcDbEntity
 67
     1
  8
0
  6
Continuous
 62
     1
370
    15
100
AcDbCircle
 10
7.0660788497
 20
8.3009415584
 30
0.0
 40
0.5
100
AcDbArc
 50
270.0
 51
0.0
  0
LINE
  5
BA
330
1B
100
AcDbEntity
 67
     1
  8
0
  6
Continuous
 62
     1
370
    15
100
AcDbLine
 10
7.0660788986
 20
7.1759418551
 30
0.0
 11
1.7190788009
 21
7.1759418551
 31
0.0
  0
LINE
  5
BB
330
1B
100
AcDbEntity
 67
     1
  8
0
  6
Continuous
 62
     1
370
    15
100
AcDbLine
 10
5.3925788376
 20
11.1134411154
 30
0.0
 11
3.3925788618
 21
11.1134411154
 31
0.0
  0
LINE
  5
BC
330
1B
100
AcDbEntity
 67
     1
  8
0
  6
Continuous
 62
     1
370
    15
100
AcDbLine
 10
7.5660788558
 20
8.300941979
 30
0.0
 11
7.5660788558
 21
9.4884413275
 31
0.0
  0
ARC
  5
BD
330
1B
100
AcDbEntity
 67
     1
  8
0
  6
Continuous
 62
     1
370
    15
100
AcDbCircle
 10
7.0660788497
 20
9.4884415584
 30
0.0
 40
0.4999999999999991
100
AcDbArc
 50
0.0
 51
90.0
  0
LINE
  5
BE
330
1B
100
AcDbEntity
 67
     1
  8
0
  6
Continuous
 62
     1
370
    15
100
AcDbLine
 10
7.0660788986
 20
9.9884409915
 30
0.0
 11
1.7190788009
 21
9.9884409915
 31
0.0
  0
ARC
  5
BF
330
1B
100
AcDbEntity
 67
     1
  8
0
  6
Continuous
 62
     1
370
    15
100
AcDbCircle
 10
1.7190788497
 20
9.4884415584
 30
0.0
 40
0.5000000000000002
100
AcDbArc
 50
90.0
 51
180.0
  0
LINE
  5
C0
330
1B
100
AcDbEntity
 67
     1
  8
0
  6
Continuous
 62
     1
370
    15
100
AcDbLine
 10
1.2190788436
 20
8.300941979
 30
0.0
 11
1.2190788436
 21
9.4884413275
 31
0.0
  0
ARC
  5
C1
330
1B
100
AcDbEntity
 67
     1
  8
0
  6
Continuous
 62
     1
370
    15
100
AcDbCircle
 10
1.7190788497
 20
8.3009415584
 30
0.0
 40
0.5000000000000002
100
AcDbArc
 50
180.0
 51
270.0
  0
LINE
  5
C2
330
1B
100
AcDbEntity
 67
     1
  8
0
  6
Continuous
 62
     1
370
    15
100
AcDbLine
 10
7.0660788986
 20
7.8009411417
 30
0.0
 11
1.7190788009
 21
7.8009411417
 31
0.0
  0
ARC
  5
C3
330
1B
100
AcDbEntity
 67
     1
  8
0
  6
Continuous
 62
     1
370
    15
100
AcDbCircle
 10
1.7190788497
 20
6.6759415584
 30
0.0
 40
0.5000000000000002
100
AcDbArc
 50
90.0
 51
180.0
  0
LINE
  5
C4
330
1B
100
AcDbEntity
 67
     1
  8
0
  6
Continuous
 62
     1
370
    15
100
AcDbLine
 10
1.2190788436
 20
2.4884425121
 30
0.0
 11
1.2190788436
 21
6.6759410178
 31
0.0
  0
ARC
  5
C5
330
1B
100
AcDbEntity
 67
     1
  8
0
  6
Continuous
 62
     1
370
    15
100
AcDbCircle
 10
1.7190788497
 20
2.4884415584
 30
0.0
 40
0.5000000000000016
100
AcDbArc
 50
180.0
 51
270.0
  0
LINE
  5
C6
330
1B
100
AcDbEntity
 67
     1
  8
0
  6
Continuous
 62
     1
370
    15
100
AcDbLine
 10
7.0660788986
 20
1.9884416748
 30
0.0
 11
1.7190788009
 21
1.9884416748
 31
0.0
  0
ARC
  5
C7
330
1B
100
AcDbEntity
 67
     1
  8
0
  6
Continuous
 62
     1
370
    15
100
AcDbCircle
 10
7.0660788497
 20
2.4884415584
 30
0.0
 40
0.5000000000000016
100
AcDbArc
 50
270.0
 51
0.0
  0
LINE
  5
C8
330
1B
100
AcDbEntity
 67
     1
  8
0
  6
Continuous
 62
     1
370
    15
100
AcDbLine
 10
7.5660788558
 20
2.4884425121
 30
0.0
 11
7.5660788558
 21
6.6759410178
 31
0.0
  0
ARC
  5
C9
330
1B
100
AcDbEntity
 67
     1
  8
0
  6
Continuous
 62
     1
370
    15
100
AcDbCircle
 10
7.0660788497
 20
6.6759415584
 30
0.0
 40
0.5
100
AcDbArc
 50
0.0
 51
90.0
  0
LINE
  5
CA
330
1B
100
AcDbEntity
 67
     1
  8
0
  6
Continuous
 62
     1
370
    15
100
AcDbLine
 10
5.3925788376
 20
11.2384419114
 30
0.0
 11
5.3925788376
 21
11.1134411154
 31
0.0
  0
LINE
  5
CB
330
1B
100
AcDbEntity
 67
     1
  8
0
  6
Continuous
 62
     1
370
    15
100
AcDbLine
 10
5.3925788376
 20
11.2384419114
 30
0.0
 11
7.9410788971
 21
11.2384419114
 31
0.0
  0
LINE
  5
CC
330
1B
100
AcDbEntity
 67
     1
  8
0
  6
Continuous
 62
     1
370
    15
100
AcDbLine
 10
7.9410788971
 20
9.7384417462
 30
0.0
 11
7.9410788971
 21
11.2384419114
 31
0.0
  0
LINE
  5
CD
330
1B
100
AcDbEntity
 67
     1
  8
0
  6
Continuous
 62
     1
370
    15
100
AcDbLine
 10
8.1425789694
 20
9.7384417462
 30
0.0
 11
7.9410788971
 21
9.7384417462
 31
0.0
  0
LINE
  5
CE
330
1B
100
AcDbEntity
 67
     1
  8
0
  6
Continuous
 62
     1
370
    15
100
AcDbLine
 10
8.1425789694
 20
9.7384417462
 30
0.0
 11
8.1425789694
 21
7.738441917
 31
0.0
  0
LINE
  5
CF
330
1B
100
AcDbEntity
 67
     1
  8
0
  6
Continuous
 62
     1
370
    15
100
AcDbLine
 10
8.1425789694
 20
7.738441917
 30
0.0
 11
7.9410788971
 21
7.738441917
 31
0.0
  0
LINE
  5
D0
330
1B
100
AcDbEntity
 67
     1
  8
0
  6
Continuous
 62
     1
370
    15
100
AcDbLine
 10
7.9410788971
 20
4.7384415866
 30
0.0
 11
7.9410788971
 21
7.738441917
 31
0.0
  0
LINE
  5
D1
330
1B
100
AcDbEntity
 67
     1
  8
0
  6
Continuous
 62
     1
370
    15
100
AcDbLine
 10
8.1425789694
 20
4.7384415866
 30
0.0
 11
7.9410788971
 21
4.7384415866
 31
0.0
  0
LINE
  5
D2
330
1B
100
AcDbEntity
 67
     1
  8
0
  6
Continuous
 62
     1
370
    15
100
AcDbLine
 10
8.1425789694
 20
4.7384415866
 30
0.0
 11
8.1425789694
 21
2.7384417574
 31
0.0
  0
LINE
  5
D3
330
1B
100
AcDbEntity
 67
     1
  8
0
  6
Continuous
 62
     1
370
    15
100
AcDbLine
 10
8.1425789694
 20
2.7384417574
 30
0.0
 11
7.9410788971
 21
2.7384417574
 31
0.0
  0
LINE
  5
D4
330
1B
100
AcDbEntity
 67
     1
  8
0
  6
Continuous
 62
     1
370
    15
100
AcDbLine
 10
7.9410788971
 20
1.2384415922
 30
0.0
 11
7.9410788971
 21
2.7384417574
 31
0.0
  0
LINE
  5
D5
330
1B
100
AcDbEntity
 67
     1
  8
0
  6
Continuous
 62
     1
370
    15
100
AcDbLine
 10
7.9410788971
 20
1.2384415922
 30
0.0
 11
5.3925788376
 21
1.2384415922
 31
0.0
  0
LINE
  5
D6
330
1B
100
AcDbEntity
 67
     1
  8
0
  6
Continuous
 62
     1
370
    15
100
AcDbLine
 10
5.3925788376
 20
1.2384415922
 30
0.0
 11
5.3925788376
 21
1.3634423882
 31
0.0
  0
LINE
  5
D7
330
1B
100
AcDbEntity
 67
     1
  8
0
  6
Continuous
 62
     1
370
    15
100
AcDbLine
 10
5.3925788376
 20
1.3634423882
 30
0.0
 11
3.3925788618
 21
1.3634423882
 31
0.0
  0
LINE
  5
D8
330
1B
100
AcDbEntity
 67
     1
  8
0
  6
Continuous
 62
     1
370
    15
100
AcDbLine
 10
3.3925788618
 20
1.3634423882
 30
0.0
 11
3.3925788618
 21
1.2384415922
 31
0.0
  0
LINE
  5
D9
330
1B
100
AcDbEntity
 67
     1
  8
0
  6
Continuous
 62
     1
370
    15
100
AcDbLine
 10
3.3925788618
 20
1.2384415922
 30
0.0
 11
0.8440788023
 21
1.2384415922
 31
0.0
  0
LINE
  5
DA
330
1B
100
AcDbEntity
 67
     1
  8
0
  6
Continuous
 62
     1
370
    15
100
AcDbLine
 10
0.8440788023
 20
1.2384415922
 30
0.0
 11
0.8440788023
 21
2.7384417574
 31
0.0
  0
LINE
  5
DB
330
1B
100
AcDbEntity
 67
     1
  8
0
  6
Continuous
 62
     1
370
    15
100
AcDbLine
 10
0.8440788023
 20
2.7384417574
 30
0.0
 11
0.64257873
 21
2.7384417574
 31
0.0
  0
LINE
  5
DC
330
1B
100
AcDbEntity
 67
     1
  8
0
  6
Continuous
 62
     1
370
    15
100
AcDbLine
 10
0.64257873
 20
2.7384417574
 30
0.0
 11
0.64257873
 21
4.7384415866
 31
0.0
  0
LINE
  5
DD
330
1B
100
AcDbEntity
 67
     1
  8
0
  6
Continuous
 62
     1
370
    15
100
AcDbLine
 10
0.8440788023
 20
4.7384415866
 30
0.0
 11
0.64257873
 21
4.7384415866
 31
0.0
  0
LINE
  5
DE
330
1B
100
AcDbEntity
 67
     1
  8
0
  6
Continuous
 62
     1
370
    15
100
AcDbLine
 10
0.8440788023
 20
4.7384415866
 30
0.0
 11
0.8440788023
 21
7.738441917
 31
0.0
  0
LINE
  5
DF
330
1B
100
AcDbEntity
 67
     1
  8
0
  6
Continuous
 62
     1
370
    15
100
AcDbLine
 10
0.8440788023
 20
7.738441917
 30
0.0
 11
0.64257873
 21
7.738441917
 31
0.0
  0
LINE
  5
E0
330
1B
100
AcDbEntity
 67
     1
  8
0
  6
Continuous
 62
     1
370
    15
100
AcDbLine
 10
0.64257873
 20
7.738441917
 30
0.0
 11
0.64257873
 21
9.7384417462
 31
0.0
  0
LINE
  5
E1
330
1B
100
AcDbEntity
 67
     1
  8
0
  6
Continuous
 62
     1
370
    15
100
AcDbLine
 10
0.8440788023
 20
9.7384417462
 30
0.0
 11
0.64257873
 21
9.7384417462
 31
0.0
  0
LINE
  5
E2
330
1B
100
AcDbEntity
 67
     1
  8
0
  6
Continuous
 62
     1
370
    15
100
AcDbLine
 10
0.8440788023
 20
9.7384417462
 30
0.0
 11
0.8440788023
 21
11.2384419114
 31
0.0
  0
LINE
  5
E3
330
1B
100
AcDbEntity
 67
     1
  8
0
  6
Continuous
 62
     1
370
    15
100
AcDbLine
 10
0.8440788023
 20
11.2384419114
 30
0.0
 11
3.3925788618
 21
11.2384419114
 31
0.0
  0
LINE
  5
E4
330
1B
100
AcDbEntity
 67
     1
  8
0
  6
Continuous
 62
     1
370
    15
100
AcDbLine
 10
3.3925788618
 20
11.1134411154
 30
0.0
 11
3.3925788618
 21
11.2384419114
 31
0.0
  0
LINE
  5
E5
330
1B
100
AcDbEntity
 67
     1
  8
0
  6
Continuous
 62
     1
370
    15
100
AcDbLine
 10
1.8315679014
 20
10.4947460759
 30
0.0
 11
1.8315679014
 21
10.8884464879
 31
0.0
  0
LINE
  5
E6
330
1B
100
AcDbEntity
 67
     1
  8
0
  6
Continuous
 62
     1
370
    15
100
AcDbLine
 10
3.0126704572
 20
10.4947460759
 30
0.0
 11
1.8315679014
 21
10.4947460759
 31
0.0
  0
LINE
  5
E7
330
1B
100
AcDbEntity
 67
     1
  8
0
  6
Continuous
 62
     1
370
    15
100
AcDbLine
 10
3.0126704572
 20
10.4947460759
 30
0.0
 11
3.0126704572
 21
10.8884464879
 31
0.0
  0
LINE
  5
E8
330
1B
100
AcDbEntity
 67
     1
  8
0
  6
Continuous
 62
     1
370
    15
100
AcDbLine
 10
18.7947082097
 20
10.792963072
 30
0.0
 11
20.7947081855
 21
10.792963072
 31
0.0
  0
ARC
  5
E9
330
1B
100
AcDbEntity
 67
     1
  8
0
  6
Continuous
 62
     1
370
    15
100
AcDbCircle
 10
22.281539482
 20
7.0942269905
 30
0.0
 40
0.25
100
AcDbArc
 50
235.2507061376
 51
0.0
  0
LINE
  5
EA
330
1B
100
AcDbEntity
 67
     1
  8
0
  6
Continuous
 62
     1
370
    15
100
AcDbLine
 10
18.2487284169
 20
6.5298445466
 30
0.0
 11
19.6522115354
 21
7.5034497528
 31
0.0
  0
ARC
  5
EB
330
1B
100
AcDbEntity
 67
     1
  8
0
  6
Continuous
 62
     1
370
    15
100
AcDbCircle
 10
17.3078769132
 20
9.0231669934
 30
0.0
 40
0.2500000000000013
100
AcDbArc
 50
55.2507061376
 51
180.0
  0
LINE
  5
EC
330
1B
100
AcDbEntity
 67
     1
  8
0
  6
Continuous
 62
     1
370
    15
100
AcDbLine
 10
19.9372048598
 20
8.6139444176
 30
0.0
 11
21.3406879783
 21
9.5875496237
 31
0.0
  0
CIRCLE
  5
ED
330
1B
100
AcDbEntity
 67
     1
  8
0
  6
Continuous
 62
     1
370
    15
100
AcDbCircle
 10
22.281539482
 20
6.3244309199
 30
0.0
 40
0.0625
  0
CIRCLE
  5
EE
330
1B
100
AcDbEntity
 67
     1
  8
0
  6
Continuous
 62
     1
370
    15
100
AcDbCircle
 10
22.281539482
 20
9.792963064
 30
0.0
 40
0.0625
  0
CIRCLE
  5
EF
330
1B
100
AcDbEntity
 67
     1
  8
0
  6
Continuous
 62
     1
370
    15
100
AcDbCircle
 10
17.3078769132
 20
9.792963064
 30
0.0
 40
0.0625
  0
CIRCLE
  5
F0
330
1B
100
AcDbEntity
 67
     1
  8
0
  6
Continuous
 62
     1
370
    15
100
AcDbCircle
 10
17.3078769132
 20
6.3244309199
 30
0.0
 40
0.0625
  0
LINE
  5
F1
330
1B
100
AcDbEntity
 67
     1
  8
0
  6
Continuous
 62
     1
370
    15
100
AcDbLine
 10
18.7947082097
 20
5.0744308263
 30
0.0
 11
20.7947081855
 21
5.0744308263
 31
0.0
  0
LINE
  5
F2
330
1B
100
AcDbEntity
 67
     1
  8
0
  6
Continuous
 62
     1
370
    15
100
AcDbLine
 10
22.5315393549
 20
9.0231669702
 30
0.0
 11
22.5315393549
 21
7.0942269068
 31
0.0
  0
ARC
  5
F3
330
1B
100
AcDbEntity
 67
     1
  8
0
  6
Continuous
 62
     1
370
    15
100
AcDbCircle
 10
22.281539482
 20
9.0231669934
 30
0.0
 40
0.2500000000000033
100
AcDbArc
 50
0.0
 51
124.7492938624
  0
LINE
  5
F4
330
1B
100
AcDbEntity
 67
     1
  8
0
  6
Continuous
 62
     1
370
    15
100
AcDbLine
 10
20.7487284967
 20
8.2641106189
 30
0.0
 11
22.139042769
 21
9.2285805039
 31
0.0
  0
ARC
  5
F5
330
1B
100
AcDbEntity
 67
     1
  8
0
  6
Continuous
 62
     1
370
    15
100
AcDbCircle
 10
20.8912251338
 20
8.0586969919
 30
0.0
 40
0.2500000000000013
100
AcDbArc
 50
124.7492938624
 51
235.2507061376
  0
LINE
  5
F6
330
1B
100
AcDbEntity
 67
     1
  8
0
  6
Continuous
 62
     1
370
    15
100
AcDbLine
 10
20.7487284967
 20
7.8532835515
 30
0.0
 11
22.139042769
 21
6.8888135198
 31
0.0
  0
ARC
  5
F7
330
1B
100
AcDbEntity
 67
     1
  8
0
  6
Continuous
 62
     1
370
    15
100
AcDbCircle
 10
18.3912251338
 20
6.3244309199
 30
0.0
 40
0.2500000000000013
100
AcDbArc
 50
124.7492938624
 51
270.0
  0
LINE
  5
F8
330
1B
100
AcDbEntity
 67
     1
  8
0
  6
Continuous
 62
     1
370
    15
100
AcDbLine
 10
18.3912251708
 20
6.0744310343
 30
0.0
 11
21.1981912245
 21
6.0744310343
 31
0.0
  0
ARC
  5
F9
330
1B
100
AcDbEntity
 67
     1
  8
0
  6
Continuous
 62
     1
370
    15
100
AcDbCircle
 10
21.1981912615
 20
6.3244309199
 30
0.0
 40
0.2500000000000013
100
AcDbArc
 50
270.0
 51
55.2507061376
  0
LINE
  5
FA
330
1B
100
AcDbEntity
 67
     1
  8
0
  6
Continuous
 62
     1
370
    15
100
AcDbLine
 10
19.9372048598
 20
7.5034497528
 30
0.0
 11
21.3406879783
 21
6.5298445466
 31
0.0
  0
ARC
  5
FB
330
1B
100
AcDbEntity
 67
     1
  8
0
  6
Continuous
 62
     1
370
    15
100
AcDbCircle
 10
19.7947081976
 20
7.298036144
 30
0.0
 40
0.2500000000000013
100
AcDbArc
 50
55.2507061376
 51
124.7492938624
  0
LINE
  5
FC
330
1B
100
AcDbEntity
 67
     1
  8
0
  6
Continuous
 62
     1
370
    15
100
AcDbLine
 10
17.0578770404
 20
9.0231669702
 30
0.0
 11
17.0578770404
 21
7.0942269068
 31
0.0
  0
ARC
  5
FD
330
1B
100
AcDbEntity
 67
     1
  8
0
  6
Continuous
 62
     1
370
    15
100
AcDbCircle
 10
17.3078769132
 20
7.0942269905
 30
0.0
 40
0.2500000000000013
100
AcDbArc
 50
180.0
 51
304.7492938624
  0
LINE
  5
FE
330
1B
100
AcDbEntity
 67
     1
  8
0
  6
Continuous
 62
     1
370
    15
100
AcDbLine
 10
17.4503736263
 20
6.8888135198
 30
0.0
 11
18.8406878986
 21
7.8532835515
 31
0.0
  0
ARC
  5
FF
330
1B
100
AcDbEntity
 67
     1
  8
0
  6
Continuous
 62
     1
370
    15
100
AcDbCircle
 10
18.6981912615
 20
8.0586969919
 30
0.0
 40
0.2500000000000006
100
AcDbArc
 50
304.7492938624
 51
55.2507061376
  0
LINE
  5
100
330
1B
100
AcDbEntity
 67
     1
  8
0
  6
Continuous
 62
     1
370
    15
100
AcDbLine
 10
17.4503736263
 20
9.2285805039
 30
0.0
 11
18.8406878986
 21
8.2641106189
 31
0.0
  0
ARC
  5
101
330
1B
100
AcDbEntity
 67
     1
  8
0
  6
Continuous
 62
     1
370
    15
100
AcDbCircle
 10
21.1981912615
 20
9.792963064
 30
0.0
 40
0.2500000000000013
100
AcDbArc
 50
304.7492938624
 51
90.0
  0
LINE
  5
102
330
1B
100
AcDbEntity
 67
     1
  8
0
  6
Continuous
 62
     1
370
    15
100
AcDbLine
 10
18.3912251708
 20
10.0429630628
 30
0.0
 11
21.1981912245
 21
10.0429630628
 31
0.0
  0
ARC
  5
103
330
1B
100
AcDbEntity
 67
     1
  8
0
  6
Continuous
 62
     1
370
    15
100
AcDbCircle
 10
18.3912251338
 20
9.792963064
 30
0.0
 40
0.25
100
AcDbArc
 50
90.0
 51
235.2507061376
  0
LINE
  5
104
330
1B
100
AcDbEntity
 67
     1
  8
0
  6
Continuous
 62
     1
370
    15
100
AcDbLine
 10
18.2487284169
 20
9.5875496237
 30
0.0
 11
19.6522115354
 21
8.6139444176
 31
0.0
  0
ARC
  5
105
330
1B
100
AcDbEntity
 67
     1
  8
0
  6
Continuous
 62
     1
370
    15
100
AcDbCircle
 10
19.7947081976
 20
8.8193578399
 30
0.0
 40
0.2499999999999999
100
AcDbArc
 50
235.2507061376
 51
304.7492938624
  0
LINE
  5
106
330
1B
100
AcDbEntity
 67
     1
  8
0
  6
Continuous
 62
     1
370
    15
100
AcDbLine
 10
18.7947082097
 20
5.3244306583
 30
0.0
 11
18.7947082097
 21
5.0744308263
 31
0.0
  0
LINE
  5
107
330
1B
100
AcDbEntity
 67
     1
  8
0
  6
Continuous
 62
     1
370
    15
100
AcDbLine
 10
16.3078769578
 20
5.3244306583
 30
0.0
 11
18.7947082097
 21
5.3244306583
 31
0.0
  0
LINE
  5
108
330
1B
100
AcDbEntity
 67
     1
  8
0
  6
Continuous
 62
     1
370
    15
100
AcDbLine
 10
16.3078769578
 20
7.3244307808
 30
0.0
 11
16.3078769578
 21
5.3244306583
 31
0.0
  0
LINE
  5
109
330
1B
100
AcDbEntity
 67
     1
  8
0
  6
Continuous
 62
     1
370
    15
100
AcDbLine
 10
16.044708078
 20
7.3244307808
 30
0.0
 11
16.3078769578
 21
7.3244307808
 31
0.0
  0
LINE
  5
10A
330
1B
100
AcDbEntity
 67
     1
  8
0
  6
Continuous
 62
     1
370
    15
100
AcDbLine
 10
16.044708078
 20
9.3244309033
 30
0.0
 11
16.044708078
 21
7.3244307808
 31
0.0
  0
LINE
  5
10B
330
1B
100
AcDbEntity
 67
     1
  8
0
  6
Continuous
 62
     1
370
    15
100
AcDbLine
 10
16.3078769578
 20
9.3244309033
 30
0.0
 11
16.044708078
 21
9.3244309033
 31
0.0
  0
LINE
  5
10C
330
1B
100
AcDbEntity
 67
     1
  8
0
  6
Continuous
 62
     1
370
    15
100
AcDbLine
 10
16.3078769578
 20
11.5744309311
 30
0.0
 11
16.3078769578
 21
9.3244309033
 31
0.0
  0
LINE
  5
10D
330
1B
100
AcDbEntity
 67
     1
  8
0
  6
Continuous
 62
     1
370
    15
100
AcDbLine
 10
23.2815394375
 20
11.5744309311
 30
0.0
 11
16.3078769578
 21
11.5744309311
 31
0.0
  0
LINE
  5
10E
330
1B
100
AcDbEntity
 67
     1
  8
0
  6
Continuous
 62
     1
370
    15
100
AcDbLine
 10
23.2815394375
 20
11.5744309311
 30
0.0
 11
23.2815394375
 21
9.3244309033
 31
0.0
  0
LINE
  5
10F
330
1B
100
AcDbEntity
 67
     1
  8
0
  6
Continuous
 62
     1
370
    15
100
AcDbLine
 10
23.2815394375
 20
9.3244309033
 30
0.0
 11
23.5447083173
 21
9.3244309033
 31
0.0
  0
LINE
  5
110
330
1B
100
AcDbEntity
 67
     1
  8
0
  6
Continuous
 62
     1
370
    15
100
AcDbLine
 10
23.5447083173
 20
9.3244309033
 30
0.0
 11
23.5447083173
 21
7.3244307808
 31
0.0
  0
LINE
  5
111
330
1B
100
AcDbEntity
 67
     1
  8
0
  6
Continuous
 62
     1
370
    15
100
AcDbLine
 10
23.5447083173
 20
7.3244307808
 30
0.0
 11
23.2815394375
 21
7.3244307808
 31
0.0
  0
LINE
  5
112
330
1B
100
AcDbEntity
 67
     1
  8
0
  6
Continuous
 62
     1
370
    15
100
AcDbLine
 10
23.2815394375
 20
7.3244307808
 30
0.0
 11
23.2815394375
 21
5.3244306583
 31
0.0
  0
LINE
  5
113
330
1B
100
AcDbEntity
 67
     1
  8
0
  6
Continuous
 62
     1
370
    15
100
AcDbLine
 10
23.2815394375
 20
5.3244306583
 30
0.0
 11
20.7947081855
 21
5.3244306583
 31
0.0
  0
LINE
  5
114
330
1B
100
AcDbEntity
 67
     1
  8
0
  6
Continuous
 62
     1
370
    15
100
AcDbLine
 10
20.7947081855
 20
5.3244306583
 30
0.0
 11
20.7947081855
 21
5.0744308263
 31
0.0
  0
LINE
  5
115
330
1B
100
AcDbEntity
 67
     1
  8
0
  6
Continuous
 62
     1
370
    15
100
AcDbLine
 10
20.7947081855
 20
10.792963072
 30
0.0
 11
20.7947081855
 21
11.0427115936
 31
0.0
  0
LINE
  5
116
330
1B
100
AcDbEntity
 67
     1
  8
0
  6
Continuous
 62
     1
370
    15
100
AcDbLine
 10
20.7947081855
 20
11.0427115936
 30
0.0
 11
18.7947082097
 21
11.0427115936
 31
0.0
  0
LINE
  5
117
330
1B
100
AcDbEntity
 67
     1
  8
0
  6
Continuous
 62
     1
370
    15
100
AcDbLine
 10
18.7947082097
 20
11.0427115936
 30
0.0
 11
18.7947082097
 21
10.792963072
 31
0.0
  0
CIRCLE
  5
118
330
1B
100
AcDbEntity
 67
     1
  8
0
  6
Continuous
 62
     1
370
    15
100
AcDbCircle
 10
14.6266466781
 20
9.8978246092
 30
0.0
 40
0.0625000000000018
  0
CIRCLE
  5
119
330
1B
100
AcDbEntity
 67
     1
  8
0
  6
Continuous
 62
     1
370
    15
100
AcDbCircle
 10
9.6529841093
 20
9.8978246092
 30
0.0
 40
0.0625
  0
CIRCLE
  5
11A
330
1B
100
AcDbEntity
 67
     1
  8
0
  6
Continuous
 62
     1
370
    15
100
AcDbCircle
 10
14.6266466781
 20
6.4292924652
 30
0.0
 40
0.0625
  0
CIRCLE
  5
11B
330
1B
100
AcDbEntity
 67
     1
  8
0
  6
Continuous
 62
     1
370
    15
100
AcDbCircle
 10
9.6529841093
 20
6.4292924652
 30
0.0
 40
0.0625
  0
LINE
  5
11C
330
1B
100
AcDbEntity
 67
     1
  8
0
  6
Continuous
 62
     1
370
    15
100
AcDbLine
 10
10.2919551003
 20
9.9018276298
 30
0.0
 11
11.3919486998
 21
9.1387550049
 31
0.0
  0
ARC
  5
11D
330
1B
100
AcDbEntity
 67
     1
  8
0
  6
Continuous
 62
     1
370
    15
100
AcDbCircle
 10
11.6503891124
 20
9.5113050209
 30
0.0
 40
0.453414799383153
100
AcDbArc
 50
235.2507061376
 51
270.0
  0
LINE
  5
11E
330
1B
100
AcDbEntity
 67
     1
  8
0
  6
Continuous
 62
     1
370
    15
100
AcDbLine
 10
11.6503891009
 20
9.0578902457
 30
0.0
 11
12.6292416865
 21
9.0578902457
 31
0.0
  0
ARC
  5
11F
330
1B
100
AcDbEntity
 67
     1
  8
0
  6
Continuous
 62
     1
370
    15
100
AcDbCircle
 10
12.629241675
 20
9.5113050209
 30
0.0
 40
0.453414799383153
100
AcDbArc
 50
270.0
 51
304.7492938624
  0
LINE
  5
120
330
1B
100
AcDbEntity
 67
     1
  8
0
  6
Continuous
 62
     1
370
    15
100
AcDbLine
 10
12.8876820876
 20
9.1387550049
 30
0.0
 11
13.987675687
 21
9.9018276298
 31
0.0
  0
ARC
  5
121
330
1B
100
AcDbEntity
 67
     1
  8
0
  6
Continuous
 62
     1
370
    15
100
AcDbCircle
 10
13.7292352936
 20
10.2743776658
 30
0.0
 40
0.453414799383153
100
AcDbArc
 50
304.7492938624
 51
90.0
  0
LINE
  5
122
330
1B
100
AcDbEntity
 67
     1
  8
0
  6
Continuous
 62
     1
370
    15
100
AcDbLine
 10
13.7292352859
 20
10.7277924682
 30
0.0
 11
10.5503955015
 21
10.7277924682
 31
0.0
  0
ARC
  5
123
330
1B
100
AcDbEntity
 67
     1
  8
0
  6
Continuous
 62
     1
370
    15
100
AcDbCircle
 10
10.5503954938
 20
10.2743776658
 30
0.0
 40
0.453414799383154
100
AcDbArc
 50
90.0
 51
235.2507061376
  0
LINE
  5
124
330
1B
100
AcDbEntity
 67
     1
  8
0
  6
Continuous
 62
     1
370
    15
100
AcDbLine
 10
9.7954808223
 20
6.993675065
 30
0.0
 11
10.2966366462
 21
7.3413300089
 31
0.0
  0
ARC
  5
125
330
1B
100
AcDbEntity
 67
     1
  8
0
  6
Continuous
 62
     1
370
    15
100
AcDbCircle
 10
10.1897641579
 20
7.4953902215
 30
0.0
 40
0.1875000000000005
100
AcDbArc
 50
304.7492938624
 51
90.0
  0
LINE
  5
126
330
1B
100
AcDbEntity
 67
     1
  8
0
  6
Continuous
 62
     1
370
    15
100
AcDbLine
 10
10.1897642275
 20
7.6828901432
 30
0.0
 11
9.5904839638
 21
7.6828901432
 31
0.0
  0
ARC
  5
127
330
1B
100
AcDbEntity
 67
     1
  8
0
  6
Continuous
 62
     1
370
    15
100
AcDbCircle
 10
9.5904841093
 20
7.4953902215
 30
0.0
 40
0.1875
100
AcDbArc
 50
90.0
 51
180.0
  0
LINE
  5
128
330
1B
100
AcDbEntity
 67
     1
  8
0
  6
Continuous
 62
     1
370
    15
100
AcDbLine
 10
9.4029842365
 20
7.4953901225
 30
0.0
 11
9.4029842365
 21
7.1990884521
 31
0.0
  0
ARC
  5
129
330
1B
100
AcDbEntity
 67
     1
  8
0
  6
Continuous
 62
     1
370
    15
100
AcDbCircle
 10
9.6529841093
 20
7.1990885358
 30
0.0
 40
0.2500000000000006
100
AcDbArc
 50
180.0
 51
304.7492938624
  0
LINE
  5
12A
330
1B
100
AcDbEntity
 67
     1
  8
0
  6
Continuous
 62
     1
370
    15
100
AcDbLine
 10
13.6857951744
 20
6.6347060919
 30
0.0
 11
12.2823120559
 21
7.608311298
 31
0.0
  0
ARC
  5
12B
330
1B
100
AcDbEntity
 67
     1
  8
0
  6
Continuous
 62
     1
370
    15
100
AcDbCircle
 10
12.1398153937
 20
7.4028976893
 30
0.0
 40
0.2500000000000006
100
AcDbArc
 50
55.2507061376
 51
124.7492938624
  0
LINE
  5
12C
330
1B
100
AcDbEntity
 67
     1
  8
0
  6
Continuous
 62
     1
370
    15
100
AcDbLine
 10
11.9973187315
 20
7.608311298
 30
0.0
 11
10.593835613
 21
6.6347060919
 31
0.0
  0
ARC
  5
12D
330
1B
100
AcDbEntity
 67
     1
  8
0
  6
Continuous
 62
     1
370
    15
100
AcDbCircle
 10
10.7363323298
 20
6.4292924652
 30
0.0
 40
0.2500000000000013
100
AcDbArc
 50
124.7492938624
 51
270.0
  0
LINE
  5
12E
330
1B
100
AcDbEntity
 67
     1
  8
0
  6
Continuous
 62
     1
370
    15
100
AcDbLine
 10
10.7363323668
 20
6.1792925795
 30
0.0
 11
13.5432984205
 21
6.1792925795
 31
0.0
  0
ARC
  5
12F
330
1B
100
AcDbEntity
 67
     1
  8
0
  6
Continuous
 62
     1
370
    15
100
AcDbCircle
 10
13.5432984575
 20
6.4292924652
 30
0.0
 40
0.2500000000000009
100
AcDbArc
 50
270.0
 51
55.2507061376
  0
LINE
  5
130
330
1B
100
AcDbEntity
 67
     1
  8
0
  6
Continuous
 62
     1
370
    15
100
AcDbLine
 10
14.8766465509
 20
7.1990884521
 30
0.0
 11
14.8766465509
 21
7.4953901225
 31
0.0
  0
ARC
  5
131
330
1B
100
AcDbEntity
 67
     1
  8
0
  6
Continuous
 62
     1
370
    15
100
AcDbCircle
 10
14.6891466781
 20
7.4953902215
 30
0.0
 40
0.1875
100
AcDbArc
 50
0.0
 51
90.0
  0
LINE
  5
132
330
1B
100
AcDbEntity
 67
     1
  8
0
  6
Continuous
 62
     1
370
    15
100
AcDbLine
 10
14.6891468236
 20
7.6828901432
 30
0.0
 11
14.0898665599
 21
7.6828901432
 31
0.0
  0
LINE
  5
133
330
1B
100
AcDbEntity
 67
     1
  8
0
  6
Continuous
 62
     1
370
    15
100
AcDbLine
 10
13.9829941411
 20
7.3413300089
 30
0.0
 11
14.4841499651
 21
6.993675065
 31
0.0
  0
ARC
  5
134
330
1B
100
AcDbEntity
 67
     1
  8
0
  6
Continuous
 62
     1
370
    15
100
AcDbCircle
 10
14.6266466781
 20
7.1990885358
 30
0.0
 40
0.2500000000000006
100
AcDbArc
 50
235.2507061376
 51
0.0
  0
LINE
  5
135
330
1B
100
AcDbEntity
 67
     1
  8
0
  6
Continuous
 62
     1
370
    15
100
AcDbLine
 10
11.1398154058
 20
8.4328902258
 30
0.0
 11
13.1398153816
 21
8.4328902258
 31
0.0
  0
LINE
  5
136
330
1B
100
AcDbEntity
 67
     1
  8
0
  6
Continuous
 62
     1
370
    15
100
AcDbLine
 10
13.1398153816
 20
8.4328902258
 30
0.0
 11
13.1398153816
 21
8.5578901417
 31
0.0
  0
LINE
  5
137
330
1B
100
AcDbEntity
 67
     1
  8
0
  6
Continuous
 62
     1
370
    15
100
AcDbLine
 10
13.1398153816
 20
8.5578901417
 30
0.0
 11
11.1398154058
 21
8.5578901417
 31
0.0
  0
LINE
  5
138
330
1B
100
AcDbEntity
 67
     1
  8
0
  6
Continuous
 62
     1
370
    15
100
AcDbLine
 10
11.1398154058
 20
8.5578901417
 30
0.0
 11
11.1398154058
 21
8.4328902258
 31
0.0
  0
ARC
  5
139
330
1B
100
AcDbEntity
 67
     1
  8
0
  6
Continuous
 62
     1
370
    15
100
AcDbCircle
 10
14.0898666295
 20
7.4953902215
 30
0.0
 40
0.1875
100
AcDbArc
 50
90.0
 51
235.2507061376
  0
LINE
  5
13A
330
1B
100
AcDbEntity
 67
     1
  8
0
  6
Continuous
 62
     1
370
    15
100
AcDbLine
 10
8.389815274
 20
9.4292924486
 30
0.0
 11
8.389815274
 21
7.4292923261
 31
0.0
  0
LINE
  5
13B
330
1B
100
AcDbEntity
 67
     1
  8
0
  6
Continuous
 62
     1
370
    15
100
AcDbLine
 10
8.389815274
 20
7.4292923261
 30
0.0
 11
8.5913153463
 21
7.4292923261
 31
0.0
  0
LINE
  5
13C
330
1B
100
AcDbEntity
 67
     1
  8
0
  6
Continuous
 62
     1
370
    15
100
AcDbLine
 10
8.5913153463
 20
7.4292923261
 30
0.0
 11
8.5913153463
 21
5.303104008
 31
0.0
  0
LINE
  5
13D
330
1B
100
AcDbEntity
 67
     1
  8
0
  6
Continuous
 62
     1
370
    15
100
AcDbLine
 10
8.5913153463
 20
5.303104008
 30
0.0
 11
11.1398154058
 21
5.303104008
 31
0.0
  0
LINE
  5
13E
330
1B
100
AcDbEntity
 67
     1
  8
0
  6
Continuous
 62
     1
370
    15
100
AcDbLine
 10
11.1398154058
 20
5.303104008
 30
0.0
 11
11.1398154058
 21
5.1792923716
 31
0.0
  0
LINE
  5
13F
330
1B
100
AcDbEntity
 67
     1
  8
0
  6
Continuous
 62
     1
370
    15
100
AcDbLine
 10
11.1398154058
 20
5.1792923716
 30
0.0
 11
13.1398153816
 21
5.1792923716
 31
0.0
  0
LINE
  5
140
330
1B
100
AcDbEntity
 67
     1
  8
0
  6
Continuous
 62
     1
370
    15
100
AcDbLine
 10
13.1398153816
 20
5.1792923716
 30
0.0
 11
13.1398153816
 21
5.303104008
 31
0.0
  0
LINE
  5
141
330
1B
100
AcDbEntity
 67
     1
  8
0
  6
Continuous
 62
     1
370
    15
100
AcDbLine
 10
13.1398153816
 20
5.303104008
 30
0.0
 11
15.6883154411
 21
5.303104008
 31
0.0
  0
LINE
  5
142
330
1B
100
AcDbEntity
 67
     1
  8
0
  6
Continuous
 62
     1
370
    15
100
AcDbLine
 10
15.6883154411
 20
5.303104008
 30
0.0
 11
15.6883154411
 21
7.4292923261
 31
0.0
  0
LINE
  5
143
330
1B
100
AcDbEntity
 67
     1
  8
0
  6
Continuous
 62
     1
370
    15
100
AcDbLine
 10
15.6883154411
 20
7.4292923261
 30
0.0
 11
15.8898155134
 21
7.4292923261
 31
0.0
  0
LINE
  5
144
330
1B
100
AcDbEntity
 67
     1
  8
0
  6
Continuous
 62
     1
370
    15
100
AcDbLine
 10
15.8898155134
 20
7.4292923261
 30
0.0
 11
15.8898155134
 21
9.4292924486
 31
0.0
  0
LINE
  5
145
330
1B
100
AcDbEntity
 67
     1
  8
0
  6
Continuous
 62
     1
370
    15
100
AcDbLine
 10
15.8898155134
 20
9.4292924486
 30
0.0
 11
15.6883154411
 21
9.4292924486
 31
0.0
  0
LINE
  5
146
330
1B
100
AcDbEntity
 67
     1
  8
0
  6
Continuous
 62
     1
370
    15
100
AcDbLine
 10
15.6883154411
 20
9.4292924486
 30
0.0
 11
15.6883154411
 21
11.4777924775
 31
0.0
  0
LINE
  5
147
330
1B
100
AcDbEntity
 67
     1
  8
0
  6
Continuous
 62
     1
370
    15
100
AcDbLine
 10
15.6883154411
 20
11.4777924775
 30
0.0
 11
13.1398153816
 21
11.4777924775
 31
0.0
  0
LINE
  5
148
330
1B
100
AcDbEntity
 67
     1
  8
0
  6
Continuous
 62
     1
370
    15
100
AcDbLine
 10
13.1398153816
 20
11.4777924775
 30
0.0
 11
13.1398153816
 21
11.6792924764
 31
0.0
  0
LINE
  5
149
330
1B
100
AcDbEntity
 67
     1
  8
0
  6
Continuous
 62
     1
370
    15
100
AcDbLine
 10
13.1398153816
 20
11.6792924764
 30
0.0
 11
11.1398154058
 21
11.6792924764
 31
0.0
  0
LINE
  5
14A
330
1B
100
AcDbEntity
 67
     1
  8
0
  6
Continuous
 62
     1
370
    15
100
AcDbLine
 10
11.1398154058
 20
11.6792924764
 30
0.0
 11
11.1398154058
 21
11.4777924775
 31
0.0
  0
LINE
  5
14B
330
1B
100
AcDbEntity
 67
     1
  8
0
  6
Continuous
 62
     1
370
    15
100
AcDbLine
 10
11.1398154058
 20
11.4777924775
 30
0.0
 11
8.5913153463
 21
11.4777924775
 31
0.0
  0
LINE
  5
14C
330
1B
100
AcDbEntity
 67
     1
  8
0
  6
Continuous
 62
     1
370
    15
100
AcDbLine
 10
8.5913153463
 20
11.4777924775
 30
0.0
 11
8.5913153463
 21
9.4292924486
 31
0.0
  0
LINE
  5
14D
330
1B
100
AcDbEntity
 67
     1
  8
0
  6
Continuous
 62
     1
370
    15
100
AcDbLine
 10
8.5913153463
 20
9.4292924486
 30
0.0
 11
8.389815274
 21
9.4292924486
 31
0.0
  0
LINE
  5
14E
330
1B
100
AcDbEntity
 67
     1
  8
0
  6
Continuous
 62
     1
370
    15
100
AcDbLine
 10
3.2774245046
 20
2.4305679387
 30
0.0
 11
3.2774245046
 21
2.1673992056
 31
0.0
  0
LINE
  5
14F
330
1B
100
AcDbEntity
 67
     1
  8
0
  6
Continuous
 62
     1
370
    15
100
AcDbLine
 10
3.2389426958
 20
5.4496849483
 30
0.0
 11
3.2389426958
 21
5.6996850003
 31
0.0
  0
CIRCLE
  5
150
330
1B
100
AcDbEntity
 67
     1
  8
0
  6
Continuous
 62
     1
370
    15
100
AcDbCircle
 10
4.7988754193
 20
3.7107957181
 30
0.0
 40
0.0624999999999996
  0
CIRCLE
  5
151
330
1B
100
AcDbEntity
 67
     1
  8
0
  6
Continuous
 62
     1
370
    15
100
AcDbCircle
 10
4.7988754193
 20
5.4194571355
 30
0.0
 40
0.0624999999999991
  0
CIRCLE
  5
152
330
1B
100
AcDbEntity
 67
     1
  8
0
  6
Continuous
 62
     1
370
    15
100
AcDbCircle
 10
5.6681667579
 20
5.4194571355
 30
0.0
 40
0.0624999999999991
  0
CIRCLE
  5
153
330
1B
100
AcDbEntity
 67
     1
  8
0
  6
Continuous
 62
     1
370
    15
100
AcDbCircle
 10
5.6681667579
 20
3.7107957181
 30
0.0
 40
0.0624999999999996
  0
ARC
  5
154
330
1B
100
AcDbEntity
 67
     1
  8
0
  6
Continuous
 62
     1
370
    15
100
AcDbCircle
 10
2.988942696
 20
5.4496849839
 30
0.0
 40
0.25
100
AcDbArc
 50
180.0
 51
0.0
  0
LINE
  5
155
330
1B
100
AcDbEntity
 67
     1
  8
0
  6
Continuous
 62
     1
370
    15
100
AcDbLine
 10
2.7389427385
 20
5.4496849483
 30
0.0
 11
2.7389427385
 21
5.6996850003
 31
0.0
  0
ARC
  5
156
330
1B
100
AcDbEntity
 67
     1
  8
0
  6
Continuous
 62
     1
370
    15
100
AcDbCircle
 10
2.988942696
 20
5.6996849839
 30
0.0
 40
0.25
100
AcDbArc
 50
0.0
 51
180.0
  0
LINE
  5
157
330
1B
100
AcDbEntity
 67
     1
  8
0
  6
Continuous
 62
     1
370
    15
100
AcDbLine
 10
3.2774245046
 20
2.1673992056
 30
0.0
 11
5.2774246271
 21
2.1673992056
 31
0.0
  0
LINE
  5
158
330
1B
100
AcDbEntity
 67
     1
  8
0
  6
Continuous
 62
     1
370
    15
100
AcDbLine
 10
5.2774246271
 20
2.4305679387
 30
0.0
 11
5.2774246271
 21
2.1673992056
 31
0.0
  0
LINE
  5
159
330
1B
100
AcDbEntity
 67
     1
  8
0
  6
Continuous
 62
     1
370
    15
100
AcDbLine
 10
6.7842555667
 20
2.4322330262
 30
0.0
 11
5.2774246271
 21
2.4305679387
 31
0.0
  0
LINE
  5
15A
330
1B
100
AcDbEntity
 67
     1
  8
0
  6
Continuous
 62
     1
370
    15
100
AcDbLine
 10
6.7842555667
 20
3.5651264389
 30
0.0
 11
6.7842555667
 21
2.4322330262
 31
0.0
  0
LINE
  5
15B
330
1B
100
AcDbEntity
 67
     1
  8
0
  6
Continuous
 62
     1
370
    15
100
AcDbLine
 10
6.7842555667
 20
3.5651264389
 30
0.0
 11
7.0342553987
 21
3.5651264389
 31
0.0
  0
LINE
  5
15C
330
1B
100
AcDbEntity
 67
     1
  8
0
  6
Continuous
 62
     1
370
    15
100
AcDbLine
 10
7.0342553987
 20
5.5651264147
 30
0.0
 11
7.0342553987
 21
3.5651264389
 31
0.0
  0
LINE
  5
15D
330
1B
100
AcDbEntity
 67
     1
  8
0
  6
Continuous
 62
     1
370
    15
100
AcDbLine
 10
6.7842555667
 20
5.5651264147
 30
0.0
 11
7.0342553987
 21
5.5651264147
 31
0.0
  0
LINE
  5
15E
330
1B
100
AcDbEntity
 67
     1
  8
0
  6
Continuous
 62
     1
370
    15
100
AcDbLine
 10
6.7842555667
 20
6.6980198274
 30
0.0
 11
6.7842555667
 21
5.5651264147
 31
0.0
  0
LINE
  5
15F
330
1B
100
AcDbEntity
 67
     1
  8
0
  6
Continuous
 62
     1
370
    15
100
AcDbLine
 10
6.7842555667
 20
6.6980198274
 30
0.0
 11
5.2774246271
 21
6.6980198274
 31
0.0
  0
LINE
  5
160
330
1B
100
AcDbEntity
 67
     1
  8
0
  6
Continuous
 62
     1
370
    15
100
AcDbLine
 10
5.2774246271
 20
6.6980198274
 30
0.0
 11
5.2774246271
 21
6.9628536481
 31
0.0
  0
LINE
  5
161
330
1B
100
AcDbEntity
 67
     1
  8
0
  6
Continuous
 62
     1
370
    15
100
AcDbLine
 10
5.2774246271
 20
6.9628536481
 30
0.0
 11
3.2774245046
 21
6.9628536481
 31
0.0
  0
LINE
  5
162
330
1B
100
AcDbEntity
 67
     1
  8
0
  6
Continuous
 62
     1
370
    15
100
AcDbLine
 10
3.2774245046
 20
6.698026134
 30
0.0
 11
3.2774245046
 21
6.9628536481
 31
0.0
  0
LINE
  5
163
330
1B
100
AcDbEntity
 67
     1
  8
0
  6
Continuous
 62
     1
370
    15
100
AcDbLine
 10
1.9265072305
 20
6.698026134
 30
0.0
 11
3.2774245046
 21
6.698026134
 31
0.0
  0
LINE
  5
164
330
1B
100
AcDbEntity
 67
     1
  8
0
  6
Continuous
 62
     1
370
    15
100
AcDbLine
 10
1.9265072305
 20
5.5651264147
 30
0.0
 11
1.9265072305
 21
6.698026134
 31
0.0
  0
LINE
  5
165
330
1B
100
AcDbEntity
 67
     1
  8
0
  6
Continuous
 62
     1
370
    15
100
AcDbLine
 10
1.9265072305
 20
5.5651264147
 30
0.0
 11
1.7257739961
 21
5.5651264147
 31
0.0
  0
LINE
  5
166
330
1B
100
AcDbEntity
 67
     1
  8
0
  6
Continuous
 62
     1
370
    15
100
AcDbLine
 10
1.7257739961
 20
5.5651264147
 30
0.0
 11
1.7257739961
 21
3.5651264389
 31
0.0
  0
LINE
  5
167
330
1B
100
AcDbEntity
 67
     1
  8
0
  6
Continuous
 62
     1
370
    15
100
AcDbLine
 10
1.9265072305
 20
3.5651264389
 30
0.0
 11
1.7257739961
 21
3.5651264389
 31
0.0
  0
LINE
  5
168
330
1B
100
AcDbEntity
 67
     1
  8
0
  6
Continuous
 62
     1
370
    15
100
AcDbLine
 10
1.9265072305
 20
2.4322267196
 30
0.0
 11
1.9265072305
 21
3.5651264389
 31
0.0
  0
LINE
  5
169
330
1B
100
AcDbEntity
 67
     1
  8
0
  6
Continuous
 62
     1
370
    15
100
AcDbLine
 10
1.9265072305
 20
2.4322267196
 30
0.0
 11
3.2774245046
 21
2.4305679387
 31
0.0
  0
ENDSEC
  0
SECTION
  2
OBJECTS
  0
DICTIONARY
  5
C
330
0
100
AcDbDictionary
281
     1
  3
ACAD_GROUP
350
D
  3
ACAD_LAYOUT
350
1A
  3
ACAD_MLINESTYLE
350
17
  3
ACAD_PLOTSETTINGS
350
19
  3
ACAD_PLOTSTYLENAME
350
E
  3
ACAD_SCALELIST
350
47
  0
DICTIONARY
  5
D
102
{ACAD_REACTORS
330
C
102
}
330
C
100
AcDbDictionary
281
     1
  0
DICTIONARY
  5
1A
102
{ACAD_REACTORS
330
C
102
}
330
C
100
AcDbDictionary
281
     1
  3
Model
350
22
  3
Sheet2
350
1E
  3
Sheet3
350
26
  3
Sheet4
350
1C5
  3
Sheet5
350
221
  3
Sheet6
350
2A5
  0
DICTIONARY
  5
17
102
{ACAD_REACTORS
330
C
102
}
330
C
100
AcDbDictionary
281
     1
  3
Standard
350
18
  0
DICTIONARY
  5
19
102
{ACAD_REACTORS
330
C
102
}
330
C
100
AcDbDictionary
281
     1
  0
ACDBDICTIONARYWDFLT
  5
E
102
{ACAD_REACTORS
330
C
102
}
330
C
100
AcDbDictionary
281
     1
  3
Normal
350
F
100
AcDbDictionaryWithDefault
340
F
  0
DICTIONARY
  5
47
102
{ACAD_REACTORS
330
C
102
}
330
C
100
AcDbDictionary
281
     1
  3
A0
350
48
  3
A1
350
49
  3
A2
350
4A
  3
A3
350
4B
  3
A4
350
4C
  3
A5
350
4D
  3
A6
350
4E
  3
A7
350
4F
  3
A8
350
50
  3
A9
350
51
  3
B0
350
52
  3
B1
350
53
  3
B2
350
54
  3
B3
350
55
  3
B4
350
56
  3
B5
350
57
  3
B6
350
58
  3
B7
350
59
  3
B8
350
5A
  3
B9
350
5B
  3
C0
350
5C
  3
C1
350
5D
  3
C2
350
5E
  3
C3
350
5F
  3
C4
350
60
  3
C5
350
61
  3
C6
350
62
  3
C7
350
63
  3
C8
350
64
  3
C9
350
65
  3
D0
350
66
  3
D1
350
67
  3
D2
350
68
  0
LAYOUT
  5
22
102
{ACAD_REACTORS
330
1A
102
}
330
1A
100
AcDbPlotSettings
  1

  2
none_device
  4
Letter_(8.50_x_11.00_Inches)
  6

 40
6.35
 41
6.35
 42
6.35000508
 43
6.35000508
 44
215.9
 45
279.4
 46
0.0
 47
0.0
 48
0.0
 49
0.0
140
0.0
141
0.0
142
1.0
143
1.0
 70
  1712
 72
     0
 73
     0
 74
     0
  7

 75
     0
147
1.0
148
0.0
149
0.0
100
AcDbLayout
  1
Model
 70
     1
 71
     0
 10
0.0
 20
0.0
 11
24.0
 21
12.0
 12
0.0
 22
0.0
 32
0.0
 14
0.0
 24
0.0
 34
0.0
 15
24.0
 25
12.0
 35
0.0
146
0.0
 13
0.0
 23
0.0
 33
0.0
 16
1.0
 26
0.0
 36
0.0
 17
0.0
 27
1.0
 37
0.0
 76
     0
330
1F
331
29
  0
LAYOUT
  5
1E
102
{ACAD_REACTORS
330
1A
102
}
330
1A
100
AcDbPlotSettings
  1

  2
none_device
  4
ANSI_D_(34.00_x_22.00_Inches)
  6

 40
6.35
 41
19.05
 42
6.3499746
 43
19.0499873
 44
863.6
 45
558.8
 46
0.0
 47
0.0
 48
0.0
 49
0.0
140
0.0
141
0.0
142
1.0
143
1.0
 70
  4832
 72
     0
 73
     0
 74
     1
  7

 75
     0
147
1.0
148
0.0
149
0.0
100
AcDbLayout
  1
Sheet2
 70
     1
 71
     1
 10
0.0
 20
0.0
 11
24.0
 21
12.0
 12
0.0
 22
0.0
 32
0.0
 14
0.0
 24
0.0
 34
0.0
 15
24.0
 25
12.0
 35
0.0
146
0.0
 13
0.0
 23
0.0
 33
0.0
 16
1.0
 26
0.0
 36
0.0
 17
0.0
 27
1.0
 37
0.0
 76
     0
330
1B
  0
LAYOUT
  5
26
102
{ACAD_REACTORS
330
1A
102
}
330
1A
100
AcDbPlotSettings
  1

  2
none_device
  4
ANSI_D_(34.00_x_22.00_Inches)
  6

 40
6.35
 41
19.05
 42
6.3499746
 43
19.0499873
 44
863.6
 45
558.8
 46
0.0
 47
0.0
 48
0.0
 49
0.0
140
0.0
141
0.0
142
1.0
143
1.0
 70
  4832
 72
     0
 73
     0
 74
     1
  7

 75
    16
147
1.0
148
0.0
149
0.0
100
AcDbLayout
  1
Sheet3
 70
     1
 71
     2
 10
0.0
 20
0.0
 11
24.0
 21
12.0
 12
0.0
 22
0.0
 32
0.0
 14
0.0
 24
0.0
 34
0.0
 15
24.0
 25
12.0
 35
0.0
146
0.0
 13
0.0
 23
0.0
 33
0.0
 16
1.0
 26
0.0
 36
0.0
 17
0.0
 27
1.0
 37
0.0
 76
     0
330
23
  0
LAYOUT
  5
1C5
102
{ACAD_REACTORS
330
1A
102
}
330
1A
100
AcDbPlotSettings
  1

  2
none_device
  4
ANSI_D_(34.00_x_22.00_Inches)
  6

 40
6.35
 41
19.05
 42
6.3499746
 43
19.0499873
 44
863.6
 45
558.8
 46
0.0
 47
0.0
 48
0.0
 49
0.0
140
0.0
141
0.0
142
1.0
143
1.0
 70
  4832
 72
     0
 73
     0
 74
     1
  7

 75
    16
147
1.0
148
0.0
149
0.0
100
AcDbLayout
  1
Sheet4
 70
     1
 71
     3
 10
0.0
 20
0.0
 11
24.0
 21
12.0
 12
0.0
 22
0.0
 32
0.0
 14
0.0
 24
0.0
 34
0.0
 15
24.0
 25
12.0
 35
0.0
146
0.0
 13
0.0
 23
0.0
 33
0.0
 16
1.0
 26
0.0
 36
0.0
 17
0.0
 27
1.0
 37
0.0
 76
     0
330
1C4
  0
LAYOUT
  5
221
102
{ACAD_REACTORS
330
1A
102
}
330
1A
100
AcDbPlotSettings
  1

  2
none_device
  4
ANSI_D_(34.00_x_22.00_Inches)
  6

 40
6.35
 41
19.05
 42
6.3499746
 43
19.0499873
 44
863.6
 45
558.8
 46
0.0
 47
0.0
 48
0.0
 49
0.0
140
0.0
141
0.0
142
1.0
143
1.0
 70
  4832
 72
     0
 73
     0
 74
     1
  7

 75
    16
147
1.0
148
0.0
149
0.0
100
AcDbLayout
  1
Sheet5
 70
     1
 71
     4
 10
0.0
 20
0.0
 11
24.0
 21
12.0
 12
0.0
 22
0.0
 32
0.0
 14
0.0
 24
0.0
 34
0.0
 15
24.0
 25
12.0
 35
0.0
146
0.0
 13
0.0
 23
0.0
 33
0.0
 16
1.0
 26
0.0
 36
0.0
 17
0.0
 27
1.0
 37
0.0
 76
     0
330
220
  0
LAYOUT
  5
2A5
102
{ACAD_REACTORS
330
1A
102
}
330
1A
100
AcDbPlotSettings
  1

  2
none_device
  4
ANSI_D_(34.00_x_22.00_Inches)
  6

 40
6.35
 41
19.05
 42
6.3499746
 43
19.0499873
 44
863.6
 45
558.8
 46
0.0
 47
0.0
 48
0.0
 49
0.0
140
0.0
141
0.0
142
1.0
143
1.0
 70
  4832
 72
     0
 73
     0
 74
     1
  7

 75
    16
147
1.0
148
0.0
149
0.0
100
AcDbLayout
  1
Sheet6
 70
     1
 71
     5
 10
0.0
 20
0.0
 11
24.0
 21
12.0
 12
0.0
 22
0.0
 32
0.0
 14
0.0
 24
0.0
 34
0.0
 15
24.0
 25
12.0
 35
0.0
146
0.0
 13
0.0
 23
0.0
 33
0.0
 16
1.0
 26
0.0
 36
0.0
 17
0.0
 27
1.0
 37
0.0
 76
     0
330
2A4
  0
MLINESTYLE
  5
18
102
{ACAD_REACTORS
330
17
102
}
330
17
100
AcDbMlineStyle
  2
Standard
 70
     0
  3

 62
   256
 51
90.0
 52
90.0
 71
     2
 49
0.5
 62
   256
  6
BYLAYER
 49
-0.5
 62
   256
  6
BYLAYER
  0
ACDBPLACEHOLDER
  5
F
102
{ACAD_REACTORS
330
E
102
}
330
E
  0
SCALE
  5
48
102
{ACAD_REACTORS
330
47
102
}
330
47
100
AcDbScale
 70
     0
300
1:1
140
1.0
141
1.0
290
     1
  0
SCALE
  5
49
102
{ACAD_REACTORS
330
47
102
}
330
47
100
AcDbScale
 70
     0
300
1:2
140
1.0
141
2.0
290
     0
  0
SCALE
  5
4A
102
{ACAD_REACTORS
330
47
102
}
330
47
100
AcDbScale
 70
     0
300
1:4
140
1.0
141
4.0
290
     0
  0
SCALE
  5
4B
102
{ACAD_REACTORS
330
47
102
}
330
47
100
AcDbScale
 70
     0
300
1:5
140
1.0
141
5.0
290
     0
  0
SCALE
  5
4C
102
{ACAD_REACTORS
330
47
102
}
330
47
100
AcDbScale
 70
     0
300
1:8
140
1.0
141
8.0
290
     0
  0
SCALE
  5
4D
102
{ACAD_REACTORS
330
47
102
}
330
47
100
AcDbScale
 70
     0
300
1:10
140
1.0
141
10.0
290
     0
  0
SCALE
  5
4E
102
{ACAD_REACTORS
330
47
102
}
330
47
100
AcDbScale
 70
     0
300
1:16
140
1.0
141
16.0
290
     0
  0
SCALE
  5
4F
102
{ACAD_REACTORS
330
47
102
}
330
47
100
AcDbScale
 70
     0
300
1:20
140
1.0
141
20.0
290
     0
  0
SCALE
  5
50
102
{ACAD_REACTORS
330
47
102
}
330
47
100
AcDbScale
 70
     0
300
1:30
140
1.0
141
30.0
290
     0
  0
SCALE
  5
51
102
{ACAD_REACTORS
330
47
102
}
330
47
100
AcDbScale
 70
     0
300
1:40
140
1.0
141
40.0
290
     0
  0
SCALE
  5
52
102
{ACAD_REACTORS
330
47
102
}
330
47
100
AcDbScale
 70
     0
300
1:50
140
1.0
141
50.0
290
     0
  0
SCALE
  5
53
102
{ACAD_REACTORS
330
47
102
}
330
47
100
AcDbScale
 70
     0
300
1:100
140
1.0
141
100.0
290
     0
  0
SCALE
  5
54
102
{ACAD_REACTORS
330
47
102
}
330
47
100
AcDbScale
 70
     0
300
2:1
140
2.0
141
1.0
290
     0
  0
SCALE
  5
55
102
{ACAD_REACTORS
330
47
102
}
330
47
100
AcDbScale
 70
     0
300
4:1
140
4.0
141
1.0
290
     0
  0
SCALE
  5
56
102
{ACAD_REACTORS
330
47
102
}
330
47
100
AcDbScale
 70
     0
300
8:1
140
8.0
141
1.0
290
     0
  0
SCALE
  5
57
102
{ACAD_REACTORS
330
47
102
}
330
47
100
AcDbScale
 70
     0
300
10:1
140
10.0
141
1.0
290
     0
  0
SCALE
  5
58
102
{ACAD_REACTORS
330
47
102
}
330
47
100
AcDbScale
 70
     0
300
100:1
140
100.0
141
1.0
290
     0
  0
SCALE
  5
59
102
{ACAD_REACTORS
330
47
102
}
330
47
100
AcDbScale
 70
     0
300
1/128" = 1'-0"
140
0.0078125
141
12.0
290
     0
  0
SCALE
  5
5A
102
{ACAD_REACTORS
330
47
102
}
330
47
100
AcDbScale
 70
     0
300
1/64" = 1'-0"
140
0.015625
141
12.0
290
     0
  0
SCALE
  5
5B
102
{ACAD_REACTORS
330
47
102
}
330
47
100
AcDbScale
 70
     0
300
1/32" = 1'-0"
140
0.03125
141
12.0
290
     0
  0
SCALE
  5
5C
102
{ACAD_REACTORS
330
47
102
}
330
47
100
AcDbScale
 70
     0
300
1/16" = 1'-0"
140
0.0625
141
12.0
290
     0
  0
SCALE
  5
5D
102
{ACAD_REACTORS
330
47
102
}
330
47
100
AcDbScale
 70
     0
300
3/32" = 1'-0"
140
0.09375
141
12.0
290
     0
  0
SCALE
  5
5E
102
{ACAD_REACTORS
330
47
102
}
330
47
100
AcDbScale
 70
     0
300
1/8" = 1'-0"
140
0.125
141
12.0
290
     0
  0
SCALE
  5
5F
102
{ACAD_REACTORS
330
47
102
}
330
47
100
AcDbScale
 70
     0
300
3/16" = 1'-0"
140
0.1875
141
12.0
290
     0
  0
SCALE
  5
60
102
{ACAD_REACTORS
330
47
102
}
330
47
100
AcDbScale
 70
     0
300
1/4" = 1'-0"
140
0.25
141
12.0
290
     0
  0
SCALE
  5
61
102
{ACAD_REACTORS
330
47
102
}
330
47
100
AcDbScale
 70
     0
300
3/8" = 1'-0"
140
0.375
141
12.0
290
     0
  0
SCALE
  5
62
102
{ACAD_REACTORS
330
47
102
}
330
47
100
AcDbScale
 70
     0
300
1/2" = 1'-0"
140
0.5
141
12.0
290
     0
  0
SCALE
  5
63
102
{ACAD_REACTORS
330
47
102
}
330
47
100
AcDbScale
 70
     0
300
3/4" = 1'-0"
140
0.75
141
12.0
290
     0
  0
SCALE
  5
64
102
{ACAD_REACTORS
330
47
102
}
330
47
100
AcDbScale
 70
     0
300
1" = 1'-0"
140
1.0
141
12.0
290
     0
  0
SCALE
  5
65
102
{ACAD_REACTORS
330
47
102
}
330
47
100
AcDbScale
 70
     0
300
1-1/2" = 1'-0"
140
1.5
141
12.0
290
     0
  0
SCALE
  5
66
102
{ACAD_REACTORS
330
47
102
}
330
47
100
AcDbScale
 70
     0
300
3" = 1'-0"
140
3.0
141
12.0
290
     0
  0
SCALE
  5
67
102
{ACAD_REACTORS
330
47
102
}
330
47
100
AcDbScale
 70
     0
300
6" = 1'-0"
140
6.0
141
12.0
290
     0
  0
SCALE
  5
68
102
{ACAD_REACTORS
330
47
102
}
330
47
100
AcDbScale
 70
     0
300
1'-0" = 1'-0"
140
12.0
141
12.0
290
     0
  0
ENDSEC
  0
EOF
