  0
SECTION
  2
HEADER
  9
$ACADVER
  1
AC1015
  9
$ACADMAINTVER
 70
     6
  9
$DWGCODEPAGE
  3
ANSI_1252
  9
$INSBASE
 10
0.0
 20
0.0
 30
0.0
  9
$EXTMIN
 10
0.0
 20
0.0
 30
0.0
  9
$EXTMAX
 10
24.0
 20
12.0
 30
0.0
  9
$LIMMIN
 10
0.0
 20
0.0
  9
$LIMMAX
 10
24.0
 20
12.0
  9
$ORTHOMODE
 70
     0
  9
$REGENMODE
 70
     1
  9
$FILLMODE
 70
     1
  9
$QTEXTMODE
 70
     0
  9
$MIRRTEXT
 70
     1
  9
$LTSCALE
 40
1.0
  9
$ATTMODE
 70
     1
  9
$TEXTSIZE
 40
0.1377952756
  9
$TRACEWID
 40
0.05
  9
$TEXTSTYLE
  7
Standard
  9
$CLAYER
  8
0
  9
$CELTYPE
  6
ByLayer
  9
$CECOLOR
 62
   256
  9
$CELTSCALE
 40
1.0
  9
$DISPSILH
 70
     0
  9
$DIMSCALE
 40
1.0
  9
$DIMASZ
 40
0.13
  9
$DIMEXO
 40
0.0393700787
  9
$DIMDLI
 40
0.38
  9
$DIMRND
 40
0.0
  9
$DIMDLE
 40
0.0
  9
$DIMEXE
 40
0.0393700787
  9
$DIMTP
 40
0.0
  9
$DIMTM
 40
0.0
  9
$DIMTXT
 40
0.1377952756
  9
$DIMCEN
 40
0.09
  9
$DIMTSZ
 40
0.0
  9
$DIMTOL
 70
     0
  9
$DIMLIM
 70
     0
  9
$DIMTIH
 70
     1
  9
$DIMTOH
 70
     1
  9
$DIMSE1
 70
     0
  9
$DIMSE2
 70
     0
  9
$DIMTAD
 70
     1
  9
$DIMZIN
 70
     0
  9
$DIMBLK
  1

  9
$DIMASO
 70
     1
  9
$DIMSHO
 70
     1
  9
$DIMPOST
  1

  9
$DIMAPOST
  1

  9
$DIMALT
 70
     0
  9
$DIMALTD
 70
     2
  9
$DIMALTF
 40
25.4
  9
$DIMLFAC
 40
2.0
  9
$DIMTOFL
 70
     0
  9
$DIMTVP
 40
0.0
  9
$DIMTIX
 70
     0
  9
$DIMSOXD
 70
     0
  9
$DIMSAH
 70
     0
  9
$DIMBLK1
  1

  9
$DIMBLK2
  1

  9
$DIMSTYLE
  2
Standard
  9
$DIMCLRD
 70
     0
  9
$DIMCLRE
 70
     0
  9
$DIMCLRT
 70
     0
  9
$DIMTFAC
 40
1.0
  9
$DIMGAP
 40
0.06
  9
$DIMJUST
 70
     0
  9
$DIMSD1
 70
     0
  9
$DIMSD2
 70
     0
  9
$DIMTOLJ
 70
     1
  9
$DIMTZIN
 70
     0
  9
$DIMALTZ
 70
     0
  9
$DIMALTTZ
 70
     0
  9
$DIMUPT
 70
     0
  9
$DIMDEC
 70
     2
  9
$DIMTDEC
 70
     2
  9
$DIMALTU
 70
     2
  9
$DIMALTTD
 70
     2
  9
$DIMTXSTY
  7
Standard
  9
$DIMAUNIT
 70
     0
  9
$DIMADEC
 70
     2
  9
$DIMALTRND
 40
0.0
  9
$DIMAZIN
 70
     0
  9
$DIMDSEP
 70
    46
  9
$DIMATFIT
 70
     3
  9
$DIMFRAC
 70
     0
  9
$DIMLDRBLK
  1

  9
$DIMLUNIT
 70
     2
  9
$DIMLWD
 70
    -2
  9
$DIMLWE
 70
    -2
  9
$DIMTMOVE
 70
     0
  9
$LUNITS
 70
     2
  9
$LUPREC
 70
     2
  9
$SKETCHINC
 40
0.1
  9
$FILLETRAD
 40
0.5
  9
$AUNITS
 70
     0
  9
$AUPREC
 70
     2
  9
$MENU
  1
.
  9
$ELEVATION
 40
0.0
  9
$PELEVATION
 40
0.0
  9
$THICKNESS
 40
0.0
  9
$LIMCHECK
 70
     0
  9
$CHAMFERA
 40
0.0
  9
$CHAMFERB
 40
0.0
  9
$CHAMFERC
 40
0.0
  9
$CHAMFERD
 40
0.0
  9
$SKPOLY
 70
     0
  9
$TDCREATE
 40
2457341.117341539
  9
$TDUCREATE
 40
2457341.325674873
  9
$TDUPDATE
 40
2457341.117346562
  9
$TDUUPDATE
 40
2457341.325679896
  9
$TDINDWG
 40
0.0000000116
  9
$TDUSRTIMER
 40
0.0000000116
  9
$USRTIMER
 70
     1
  9
$ANGBASE
 50
0.0
  9
$ANGDIR
 70
     0
  9
$PDMODE
 70
     0
  9
$PDSIZE
 40
-1.0
  9
$PLINEWID
 40
0.0
  9
$SPLFRAME
 70
     0
  9
$SPLINETYPE
 70
     6
  9
$SPLINESEGS
 70
     8
  9
$HANDSEED
  5
106
  9
$SURFTAB1
 70
     6
  9
$SURFTAB2
 70
     6
  9
$SURFTYPE
 70
     6
  9
$SURFU
 70
     6
  9
$SURFV
 70
     6
  9
$UCSBASE
  2

  9
$UCSNAME
  2

  9
$UCSORG
 10
0.0
 20
0.0
 30
0.0
  9
$UCSXDIR
 10
1.0
 20
0.0
 30
0.0
  9
$UCSYDIR
 10
0.0
 20
1.0
 30
0.0
  9
$UCSORTHOREF
  2

  9
$UCSORTHOVIEW
 70
     0
  9
$UCSORGTOP
 10
0.0
 20
0.0
 30
0.0
  9
$UCSORGBOTTOM
 10
0.0
 20
0.0
 30
0.0
  9
$UCSORGLEFT
 10
0.0
 20
0.0
 30
0.0
  9
$UCSORGRIGHT
 10
0.0
 20
0.0
 30
0.0
  9
$UCSORGFRONT
 10
0.0
 20
0.0
 30
0.0
  9
$UCSORGBACK
 10
0.0
 20
0.0
 30
0.0
  9
$PUCSBASE
  2

  9
$PUCSNAME
  2

  9
$PUCSORG
 10
0.0
 20
0.0
 30
0.0
  9
$PUCSXDIR
 10
1.0
 20
0.0
 30
0.0
  9
$PUCSYDIR
 10
0.0
 20
1.0
 30
0.0
  9
$PUCSORTHOREF
  2

  9
$PUCSORTHOVIEW
 70
     0
  9
$PUCSORGTOP
 10
0.0
 20
0.0
 30
0.0
  9
$PUCSORGBOTTOM
 10
0.0
 20
0.0
 30
0.0
  9
$PUCSORGLEFT
 10
0.0
 20
0.0
 30
0.0
  9
$PUCSORGRIGHT
 10
0.0
 20
0.0
 30
0.0
  9
$PUCSORGFRONT
 10
0.0
 20
0.0
 30
0.0
  9
$PUCSORGBACK
 10
0.0
 20
0.0
 30
0.0
  9
$USERI1
 70
     0
  9
$USERI2
 70
     0
  9
$USERI3
 70
     0
  9
$USERI4
 70
     0
  9
$USERI5
 70
     0
  9
$USERR1
 40
0.0
  9
$USERR2
 40
0.0
  9
$USERR3
 40
0.0
  9
$USERR4
 40
0.0
  9
$USERR5
 40
0.0
  9
$WORLDVIEW
 70
     1
  9
$SHADEDGE
 70
     3
  9
$SHADEDIF
 70
    70
  9
$TILEMODE
 70
     0
  9
$MAXACTVP
 70
    64
  9
$PINSBASE
 10
0.0
 20
0.0
 30
0.0
  9
$PLIMCHECK
 70
     0
  9
$PEXTMIN
 10
0.0
 20
0.0
 30
0.0
  9
$PEXTMAX
 10
24.0
 20
12.0
 30
0.0
  9
$PLIMMIN
 10
0.0
 20
0.0
  9
$PLIMMAX
 10
24.0
 20
12.0
  9
$UNITMODE
 70
     0
  9
$VISRETAIN
 70
     1
  9
$PLINEGEN
 70
     0
  9
$PSLTSCALE
 70
     1
  9
$TREEDEPTH
 70
  3020
  9
$CMLSTYLE
  2
Standard
  9
$CMLJUST
 70
     0
  9
$CMLSCALE
 40
1.0
  9
$PROXYGRAPHICS
 70
     1
  9
$MEASUREMENT
 70
     0
  9
$CELWEIGHT
370
    -1
  9
$ENDCAPS
280
     0
  9
$JOINSTYLE
280
     0
  9
$LWDISPLAY
290
     1
  9
$INSUNITS
 70
     1
  9
$HYPERLINKBASE
  1

  9
$STYLESHEET
  1

  9
$XEDIT
290
     1
  9
$CEPSNTYPE
380
     0
  9
$PSTYLEMODE
290
     1
  9
$FINGERPRINTGUID
  2
{2BC5F86F-99A9-46EA-8121-9C8293129744}
  9
$VERSIONGUID
  2
{FAEB1C32-E019-11D5-929B-00C0DF256EC4}
  9
$EXTNAMES
290
     1
  9
$PSVPSCALE
 40
0.0
  9
$OLESTARTUP
290
     0
  0
ENDSEC
  0
SECTION
  2
CLASSES
  0
CLASS
  1
ACDBDICTIONARYWDFLT
  2
AcDbDictionaryWithDefault
  3
ObjectDBX Classes
 90
        0
280
     0
281
     0
  0
CLASS
  1
VISUALSTYLE
  2
AcDbVisualStyle
  3
ObjectDBX Classes
 90
     4095
280
     0
281
     0
  0
CLASS
  1
MATERIAL
  2
AcDbMaterial
  3
ObjectDBX Classes
 90
     1153
280
     0
281
     0
  0
CLASS
  1
SCALE
  2
AcDbScale
  3
ObjectDBX Classes
 90
     1153
280
     0
281
     0
  0
CLASS
  1
SUN
  2
AcDbSun
  3
SCENEOE
 90
     1153
280
     0
281
     0
  0
CLASS
  1
ACDBPLACEHOLDER
  2
AcDbPlaceHolder
  3
ObjectDBX Classes
 90
        0
280
     0
281
     0
  0
CLASS
  1
LAYOUT
  2
AcDbLayout
  3
ObjectDBX Classes
 90
        0
280
     0
281
     0
  0
ENDSEC
  0
SECTION
  2
TABLES
  0
TABLE
  2
VPORT
  5
8
330
0
100
AcDbSymbolTable
 70
     1
  0
VPORT
  5
29
330
8
100
AcDbSymbolTableRecord
100
AcDbViewportTableRecord
  2
*Active
 70
     0
 10
0.0
 20
0.0
 11
1.0
 21
1.0
 12
12.0
 22
6.0
 13
0.0
 23
0.0
 14
0.5
 24
0.5
 15
0.5
 25
0.5
 16
0.0
 26
0.0
 36
1.0
 17
0.0
 27
0.0
 37
0.0
 40
12.0
 41
2.0
 42
50.0
 43
0.0
 44
0.0
 50
0.0
 51
0.0
 71
     0
 72
  2000
 73
     1
 74
     3
 75
     0
 76
     0
 77
     0
 78
     0
281
     0
 65
     1
110
0.0
120
0.0
130
0.0
111
1.0
121
0.0
131
0.0
112
0.0
122
1.0
132
0.0
 79
     0
146
0.0
  0
ENDTAB
  0
TABLE
  2
LTYPE
  5
5
330
0
100
AcDbSymbolTable
 70
     6
  0
LTYPE
  5
14
330
5
100
AcDbSymbolTableRecord
100
AcDbLinetypeTableRecord
  2
ByBlock
 70
     0
  3

 72
    65
 73
     0
 40
0.0
  0
LTYPE
  5
15
330
5
100
AcDbSymbolTableRecord
100
AcDbLinetypeTableRecord
  2
ByLayer
 70
     0
  3

 72
    65
 73
     0
 40
0.0
  0
LTYPE
  5
16
330
5
100
AcDbSymbolTableRecord
100
AcDbLinetypeTableRecord
  2
Continuous
 70
     0
  3
Solid line
 72
    65
 73
     0
 40
0.0
  0
LTYPE
  5
6A
330
5
100
AcDbSymbolTableRecord
100
AcDbLinetypeTableRecord
  2
HIDDEN
 70
     0
  3
Hidden __ __ __ __ __ __ __ __ __ __ __ __ __ __
 72
    65
 73
     2
 40
0.075
 49
0.05
 74
     0
 49
-0.025
 74
     0
  0
LTYPE
  5
6B
330
5
100
AcDbSymbolTableRecord
100
AcDbLinetypeTableRecord
  2
PHANTOM
 70
     0
  3
Phantom ______  __  __  ______  __  __  ______
 72
    65
 73
     6
 40
0.5
 49
0.25
 74
     0
 49
-0.05
 74
     0
 49
0.05
 74
     0
 49
-0.05
 74
     0
 49
0.05
 74
     0
 49
-0.05
 74
     0
  0
LTYPE
  5
6C
330
5
100
AcDbSymbolTableRecord
100
AcDbLinetypeTableRecord
  2
CENTER
 70
     0
  3
Center ____ _ ____ _ ____ _ ____ _ ____ _ ____
 72
    65
 73
     4
 40
0.4
 49
0.25
 74
     0
 49
-0.05
 74
     0
 49
0.05
 74
     0
 49
-0.05
 74
     0
  0
LTYPE
  5
6D
330
5
100
AcDbSymbolTableRecord
100
AcDbLinetypeTableRecord
  2
CENTERX2
 70
     0
  3
Center (2x) ________  __  ________  __  _____
 72
    65
 73
     4
 40
0.8
 49
0.5
 74
     0
 49
-0.1
 74
     0
 49
0.1
 74
     0
 49
-0.1
 74
     0
  0
LTYPE
  5
6E
330
5
100
AcDbSymbolTableRecord
100
AcDbLinetypeTableRecord
  2
DOT2
 70
     0
  3
Dot (.5x) ........................................
 72
    65
 73
     2
 40
0.025
 49
0.0
 74
     0
 49
-0.025
 74
     0
  0
ENDTAB
  0
TABLE
  2
LAYER
  5
2
330
0
100
AcDbSymbolTable
 70
     1
  0
LAYER
  5
10
330
2
100
AcDbSymbolTableRecord
100
AcDbLayerTableRecord
  2
0
 70
     0
 62
     7
  6
Continuous
370
    -3
390
F
  0
ENDTAB
  0
TABLE
  2
STYLE
  5
3
330
0
100
AcDbSymbolTable
 70
     1
  0
STYLE
  5
11
330
3
100
AcDbSymbolTableRecord
100
AcDbTextStyleTableRecord
  2
Standard
 70
     0
 40
0.0
 41
1.0
 50
0.0
 71
     0
 42
0.1377952756
  3
txt
  4

  0
ENDTAB
  0
TABLE
  2
VIEW
  5
6
330
0
100
AcDbSymbolTable
 70
     0
  0
ENDTAB
  0
TABLE
  2
UCS
  5
7
330
0
100
AcDbSymbolTable
 70
     0
  0
ENDTAB
  0
TABLE
  2
APPID
  5
9
330
0
100
AcDbSymbolTable
 70
     1
  0
APPID
  5
12
330
9
100
AcDbSymbolTableRecord
100
AcDbRegAppTableRecord
  2
ACAD
 70
     0
  0
ENDTAB
  0
TABLE
  2
DIMSTYLE
  5
A
330
0
100
AcDbSymbolTable
 70
     1
100
AcDbDimStyleTable
  0
DIMSTYLE
105
27
330
A
100
AcDbSymbolTableRecord
100
AcDbDimStyleTableRecord
  2
Standard
 70
     0
178
     0
340
11
  0
ENDTAB
  0
TABLE
  2
BLOCK_RECORD
  5
1
330
0
100
AcDbSymbolTable
 70
     1
  0
BLOCK_RECORD
  5
1F
330
1
100
AcDbSymbolTableRecord
100
AcDbBlockTableRecord
  2
*Model_Space
340
22
  0
BLOCK_RECORD
  5
23
330
1
100
AcDbSymbolTableRecord
100
AcDbBlockTableRecord
  2
*Paper_Space
340
26
  0
BLOCK_RECORD
  5
1B
330
1
100
AcDbSymbolTableRecord
100
AcDbBlockTableRecord
  2
*Paper_Space0
340
1E
  0
ENDTAB
  0
ENDSEC
  0
SECTION
  2
BLOCKS
  0
BLOCK
  5
20
330
1F
100
AcDbEntity
  8
0
100
AcDbBlockBegin
  2
*Model_Space
 70
     0
 10
0.0
 20
0.0
 30
0.0
  3
*Model_Space
  1
*Model_Space
  0
ENDBLK
  5
21
330
1F
100
AcDbEntity
  8
0
100
AcDbBlockEnd
  0
BLOCK
  5
24
330
23
100
AcDbEntity
 67
     1
  8
0
100
AcDbBlockBegin
  2
*Paper_Space
 70
     0
 10
0.0
 20
0.0
 30
0.0
  3
*Paper_Space
  1
*Paper_Space
  0
ENDBLK
  5
25
330
23
100
AcDbEntity
 67
     1
  8
0
100
AcDbBlockEnd
  0
BLOCK
  5
1C
330
1B
100
AcDbEntity
  8
0
100
AcDbBlockBegin
  2
*Paper_Space0
 70
     0
 10
0.0
 20
0.0
 30
0.0
  3
*Paper_Space0
  1
*Paper_Space0
  0
LINE
  5
9C
330
1B
100
AcDbEntity
  8
0
  6
Continuous
 62
     1
370
    15
100
AcDbLine
 10
10.2678464823
 20
9.9763524562
 30
0.0
 11
10.3924611491
 21
9.9861598432
 31
0.0
  0
LINE
  5
9D
330
1B
100
AcDbEntity
  8
0
  6
Continuous
 62
     1
370
    15
100
AcDbLine
 10
0.4232878117
 20
9.2015688859
 30
0.0
 11
0.5802060032
 21
7.2077342184
 31
0.0
  0
CIRCLE
  5
9E
330
1B
100
AcDbEntity
  8
0
  6
Continuous
 62
     1
370
    15
100
AcDbCircle
 10
9.7203508806
 20
10.5601962419
 30
0.0
 40
0.0624999999999988
  0
CIRCLE
  5
9F
330
1B
100
AcDbEntity
  8
0
  6
Continuous
 62
     1
370
    15
100
AcDbCircle
 10
8.9726628803
 20
10.5013519201
 30
0.0
 40
0.0625000000000006
  0
CIRCLE
  5
A0
330
1B
100
AcDbEntity
  8
0
  6
Continuous
 62
     1
370
    15
100
AcDbCircle
 10
9.9753429418
 20
7.3202149073
 30
0.0
 40
0.0624999999999979
  0
CIRCLE
  5
A1
330
1B
100
AcDbEntity
  8
0
  6
Continuous
 62
     1
370
    15
100
AcDbCircle
 10
9.2276549415
 20
7.2613705855
 30
0.0
 40
0.0624999999999997
  0
LINE
  5
A2
330
1B
100
AcDbEntity
  8
0
  6
Continuous
 62
     1
370
    15
100
AcDbLine
 10
0.298673145
 20
9.1917614989
 30
0.0
 11
0.4232878117
 21
9.2015688859
 31
0.0
  0
LINE
  5
A3
330
1B
100
AcDbEntity
  8
0
  6
Continuous
 62
     1
370
    15
100
AcDbLine
 10
0.298673145
 20
9.1917614989
 30
0.0
 11
0.1036892609
 21
11.669266651
 31
0.0
  0
LINE
  5
A4
330
1B
100
AcDbEntity
  8
0
  6
Continuous
 62
     1
370
    15
100
AcDbLine
 10
0.1036892609
 20
11.669266651
 30
0.0
 11
2.1225276186
 21
11.6675738583
 31
0.0
  0
LINE
  5
A5
330
1B
100
AcDbEntity
  8
0
  6
Continuous
 62
     1
370
    15
100
AcDbLine
 10
2.1225276186
 20
11.6675738583
 30
0.0
 11
2.1227489821
 21
11.9315737655
 31
0.0
  0
LINE
  5
A6
330
1B
100
AcDbEntity
  8
0
  6
Continuous
 62
     1
370
    15
100
AcDbLine
 10
2.1227489821
 20
11.9315737655
 30
0.0
 11
4.122748279
 21
11.9298967692
 31
0.0
  0
LINE
  5
A7
330
1B
100
AcDbEntity
  8
0
  6
Continuous
 62
     1
370
    15
100
AcDbLine
 10
4.1225269155
 20
11.665896862
 30
0.0
 11
4.122748279
 21
11.9298967692
 31
0.0
  0
LINE
  5
A8
330
1B
100
AcDbEntity
  8
0
  6
Continuous
 62
     1
370
    15
100
AcDbLine
 10
4.1225269155
 20
11.665896862
 30
0.0
 11
7.6305359968
 21
11.662955402
 31
0.0
  0
LINE
  5
A9
330
1B
100
AcDbEntity
  8
0
  6
Continuous
 62
     1
370
    15
100
AcDbLine
 10
7.6305359968
 20
11.662955402
 30
0.0
 11
7.6307573603
 21
11.9269553092
 31
0.0
  0
LINE
  5
AA
330
1B
100
AcDbEntity
  8
0
  6
Continuous
 62
     1
370
    15
100
AcDbLine
 10
7.6307573603
 20
11.9269553092
 30
0.0
 11
9.6307566572
 21
11.9252783129
 31
0.0
  0
LINE
  5
AB
330
1B
100
AcDbEntity
  8
0
  6
Continuous
 62
     1
370
    15
100
AcDbLine
 10
9.6305352937
 20
11.6612784057
 30
0.0
 11
9.6307566572
 21
11.9252783129
 31
0.0
  0
LINE
  5
AC
330
1B
100
AcDbEntity
  8
0
  6
Continuous
 62
     1
370
    15
100
AcDbLine
 10
9.6305352937
 20
11.6612784057
 30
0.0
 11
13.138544375
 21
11.6583369457
 31
0.0
  0
LINE
  5
AD
330
1B
100
AcDbEntity
  8
0
  6
Continuous
 62
     1
370
    15
100
AcDbLine
 10
13.138544375
 20
11.6583369457
 30
0.0
 11
13.1387657385
 21
11.9223368529
 31
0.0
  0
LINE
  5
AE
330
1B
100
AcDbEntity
  8
0
  6
Continuous
 62
     1
370
    15
100
AcDbLine
 10
13.1387657385
 20
11.9223368529
 30
0.0
 11
15.1387650354
 21
11.9206598566
 31
0.0
  0
LINE
  5
AF
330
1B
100
AcDbEntity
  8
0
  6
Continuous
 62
     1
370
    15
100
AcDbLine
 10
15.1385436719
 20
11.6566599494
 30
0.0
 11
15.1387650354
 21
11.9206598566
 31
0.0
  0
LINE
  5
B0
330
1B
100
AcDbEntity
  8
0
  6
Continuous
 62
     1
370
    15
100
AcDbLine
 10
15.1385436719
 20
11.6566599494
 30
0.0
 11
17.1573820297
 21
11.6549671567
 31
0.0
  0
LINE
  5
B1
330
1B
100
AcDbEntity
  8
0
  6
Continuous
 62
     1
370
    15
100
AcDbLine
 10
17.1573820297
 20
11.6549671567
 30
0.0
 11
17.2462678185
 21
10.5255661263
 31
0.0
  0
LINE
  5
B2
330
1B
100
AcDbEntity
  8
0
  6
Continuous
 62
     1
370
    15
100
AcDbLine
 10
17.2462678185
 20
10.5255661263
 30
0.0
 11
17.1216531518
 21
10.5157587393
 31
0.0
  0
LINE
  5
B3
330
1B
100
AcDbEntity
  8
0
  6
Continuous
 62
     1
370
    15
100
AcDbLine
 10
17.1216531518
 20
10.5157587393
 30
0.0
 11
17.2785713432
 21
8.5219240719
 31
0.0
  0
LINE
  5
B4
330
1B
100
AcDbEntity
  8
0
  6
Continuous
 62
     1
370
    15
100
AcDbLine
 10
17.2785713432
 20
8.5219240719
 30
0.0
 11
17.4031860099
 21
8.5317314588
 31
0.0
  0
LINE
  5
B5
330
1B
100
AcDbEntity
  8
0
  6
Continuous
 62
     1
370
    15
100
AcDbLine
 10
17.4031860099
 20
8.5317314588
 30
0.0
 11
17.4920717987
 21
7.4023304285
 31
0.0
  0
LINE
  5
B6
330
1B
100
AcDbEntity
  8
0
  6
Continuous
 62
     1
370
    15
100
AcDbLine
 10
17.4920717987
 20
7.4023304285
 30
0.0
 11
15.4983535023
 21
7.0848425783
 31
0.0
  0
LINE
  5
B7
330
1B
100
AcDbEntity
  8
0
  6
Continuous
 62
     1
370
    15
100
AcDbLine
 10
15.4983535023
 20
7.0848425783
 30
0.0
 11
15.5398708247
 21
6.8241275769
 31
0.0
  0
LINE
  5
B8
330
1B
100
AcDbEntity
  8
0
  6
Continuous
 62
     1
370
    15
100
AcDbLine
 10
15.5398708247
 20
6.8241275769
 30
0.0
 11
13.564757178
 21
6.5096024072
 31
0.0
  0
LINE
  5
B9
330
1B
100
AcDbEntity
  8
0
  6
Continuous
 62
     1
370
    15
100
AcDbLine
 10
13.5232398556
 20
6.7703174086
 30
0.0
 11
13.564757178
 21
6.5096024072
 31
0.0
  0
LINE
  5
BA
330
1B
100
AcDbEntity
  8
0
  6
Continuous
 62
     1
370
    15
100
AcDbLine
 10
13.5232398556
 20
6.7703174086
 30
0.0
 11
10.058880333
 21
6.2186386388
 31
0.0
  0
LINE
  5
BB
330
1B
100
AcDbEntity
  8
0
  6
Continuous
 62
     1
370
    15
100
AcDbLine
 10
10.058880333
 20
6.2186386388
 30
0.0
 11
10.1003976554
 21
5.9579236374
 31
0.0
  0
LINE
  5
BC
330
1B
100
AcDbEntity
  8
0
  6
Continuous
 62
     1
370
    15
100
AcDbLine
 10
10.1003976554
 20
5.9579236374
 30
0.0
 11
8.1252840087
 21
5.6433984677
 31
0.0
  0
LINE
  5
BD
330
1B
100
AcDbEntity
  8
0
  6
Continuous
 62
     1
370
    15
100
AcDbLine
 10
8.0837666863
 20
5.904113469
 30
0.0
 11
8.1252840087
 21
5.6433984677
 31
0.0
  0
LINE
  5
BE
330
1B
100
AcDbEntity
  8
0
  6
Continuous
 62
     1
370
    15
100
AcDbLine
 10
8.0837666863
 20
5.904113469
 30
0.0
 11
4.6194071637
 21
5.3524346992
 31
0.0
  0
LINE
  5
BF
330
1B
100
AcDbEntity
  8
0
  6
Continuous
 62
     1
370
    15
100
AcDbLine
 10
4.6194071637
 20
5.3524346992
 30
0.0
 11
4.6609244861
 21
5.0917196979
 31
0.0
  0
LINE
  5
C0
330
1B
100
AcDbEntity
  8
0
  6
Continuous
 62
     1
370
    15
100
AcDbLine
 10
4.6609244861
 20
5.0917196979
 30
0.0
 11
2.6858108394
 21
4.7771945281
 31
0.0
  0
LINE
  5
C1
330
1B
100
AcDbEntity
  8
0
  6
Continuous
 62
     1
370
    15
100
AcDbLine
 10
2.644293517
 20
5.0379095295
 30
0.0
 11
2.6858108394
 21
4.7771945281
 31
0.0
  0
LINE
  5
C2
330
1B
100
AcDbEntity
  8
0
  6
Continuous
 62
     1
370
    15
100
AcDbLine
 10
2.644293517
 20
5.0379095295
 30
0.0
 11
0.6505752206
 21
4.7204216793
 31
0.0
  0
LINE
  5
C3
330
1B
100
AcDbEntity
  8
0
  6
Continuous
 62
     1
370
    15
100
AcDbLine
 10
0.6505752206
 20
4.7204216793
 30
0.0
 11
0.4555913365
 21
7.1979268315
 31
0.0
  0
LINE
  5
C4
330
1B
100
AcDbEntity
  8
0
  6
Continuous
 62
     1
370
    15
100
AcDbLine
 10
0.5802060032
 20
7.2077342184
 30
0.0
 11
0.4555913365
 21
7.1979268315
 31
0.0
  0
LINE
  5
C5
330
1B
100
AcDbEntity
  8
0
  6
Continuous
 62
     1
370
    15
100
AcDbLine
 10
10.2678464823
 20
9.9763524562
 30
0.0
 11
10.4247646738
 21
7.9825177887
 31
0.0
  0
LINE
  5
C6
330
1B
100
AcDbEntity
  8
0
  6
Continuous
 62
     1
370
    15
100
AcDbLine
 10
10.4247646738
 20
7.9825177887
 30
0.0
 11
10.5493793405
 21
7.9923251757
 31
0.0
  0
LINE
  5
C7
330
1B
100
AcDbEntity
  8
0
  6
Continuous
 62
     1
370
    15
100
AcDbLine
 10
10.3924611491
 20
9.9861598432
 30
0.0
 11
10.5493793405
 21
7.9923251757
 31
0.0
  0
ENDBLK
  5
1D
330
1B
100
AcDbEntity
  8
0
100
AcDbBlockEnd
  0
ENDSEC
  0
SECTION
  2
ENTITIES
  0
LINE
  5
6F
330
1F
100
AcDbEntity
  8
0
  6
Continuous
 62
     1
370
    15
100
AcDbLine
 10
10.2992379129
 20
9.867856878
 30
0.0
 11
10.4561561043
 21
7.8740222105
 31
0.0
  0
LINE
  5
70
330
1F
100
AcDbEntity
  8
0
  6
Continuous
 62
     1
370
    15
100
AcDbLine
 10
10.4561561043
 20
7.8740222105
 30
0.0
 11
10.5807707711
 21
7.8838295975
 31
0.0
  0
LINE
  5
71
330
1F
100
AcDbEntity
  8
0
  6
Continuous
 62
     1
370
    15
100
AcDbLine
 10
10.4238525796
 20
9.877664265
 30
0.0
 11
10.5807707711
 21
7.8838295975
 31
0.0
  0
LINE
  5
72
330
1F
100
AcDbEntity
  8
0
  6
Continuous
 62
     1
370
    15
100
AcDbLine
 10
10.2992379129
 20
9.867856878
 30
0.0
 11
10.4238525796
 21
9.877664265
 31
0.0
  0
CIRCLE
  5
73
330
1F
100
AcDbEntity
  8
0
  6
Continuous
 62
     1
370
    15
100
AcDbCircle
 10
3.8867930509
 20
9.5036194302
 30
0.0
 40
0.0625000000000001
  0
CIRCLE
  5
74
330
1F
100
AcDbEntity
  8
0
  6
Continuous
 62
     1
370
    15
100
AcDbCircle
 10
9.4074221699
 20
9.9381023646
 30
0.0
 40
0.0625000000000006
  0
CIRCLE
  5
75
330
1F
100
AcDbEntity
  8
0
  6
Continuous
 62
     1
370
    15
100
AcDbCircle
 10
9.5863089082
 20
7.6651308437
 30
0.0
 40
0.0624999999999988
  0
CIRCLE
  5
76
330
1F
100
AcDbEntity
  8
0
  6
Continuous
 62
     1
370
    15
100
AcDbCircle
 10
4.0656797891
 20
7.2306479093
 30
0.0
 40
0.0625000000000006
  0
LINE
  5
77
330
1F
100
AcDbEntity
  8
0
  6
Continuous
 62
     1
370
    15
100
AcDbLine
 10
4.6576438155
 20
8.7969211693
 30
0.0
 11
4.9351384417
 21
9.3787007516
 31
0.0
  0
ARC
  5
78
330
1F
100
AcDbEntity
  8
0
  6
Continuous
 62
     1
370
    15
100
AcDbCircle
 10
5.3345827787
 20
8.4740378467
 30
0.0
 40
0.7500000000000006
100
AcDbArc
 50
154.5
 51
214.5
  0
LINE
  5
79
330
1F
100
AcDbEntity
  8
0
  6
Continuous
 62
     1
370
    15
100
AcDbLine
 10
5.0815767219
 20
7.5180259821
 30
0.0
 11
4.7164881373
 21
8.049233169
 31
0.0
  0
ARC
  5
7A
330
1F
100
AcDbEntity
  8
0
  6
Continuous
 62
     1
370
    15
100
AcDbCircle
 10
5.6996713633
 20
7.9428306598
 30
0.0
 40
0.7500000000000008
100
AcDbArc
 50
214.5
 51
279.0434867696
  0
LINE
  5
7B
330
1F
100
AcDbEntity
  8
0
  6
Continuous
 62
     1
370
    15
100
AcDbLine
 10
8.068675183
 20
7.560447018
 30
0.0
 11
5.8175594105
 21
7.2021536666
 31
0.0
  0
ARC
  5
7C
330
1F
100
AcDbEntity
  8
0
  6
Continuous
 62
     1
370
    15
100
AcDbCircle
 10
7.9507871359
 20
8.3011240113
 30
0.0
 40
0.7500000000000019
100
AcDbArc
 50
279.0434867696
 51
334.5
  0
LINE
  5
7D
330
1F
100
AcDbEntity
  8
0
  6
Continuous
 62
     1
370
    15
100
AcDbLine
 10
8.8154581436
 20
8.3718291047
 30
0.0
 11
8.6277260992
 21
7.9782406887
 31
0.0
  0
ARC
  5
7E
330
1F
100
AcDbEntity
  8
0
  6
Continuous
 62
     1
370
    15
100
AcDbCircle
 10
8.1385191803
 20
8.6947124273
 30
0.0
 40
0.7499999999999982
100
AcDbArc
 50
334.5
 51
34.5
  0
LINE
  5
7F
330
1F
100
AcDbEntity
  8
0
  6
Continuous
 62
     1
370
    15
100
AcDbLine
 10
8.5096222771
 20
9.4788920325
 30
0.0
 11
8.7566138218
 21
9.119517105
 31
0.0
  0
ARC
  5
80
330
1F
100
AcDbEntity
  8
0
  6
Continuous
 62
     1
370
    15
100
AcDbCircle
 10
7.8915276356
 20
9.0540873548
 30
0.0
 40
0.7499999999999996
100
AcDbArc
 50
34.5
 51
89.9565132304
  0
LINE
  5
81
330
1F
100
AcDbEntity
  8
0
  6
Continuous
 62
     1
370
    15
100
AcDbLine
 10
5.6126466454
 20
9.8058172129
 30
0.0
 11
7.892096876
 21
9.8040871388
 31
0.0
  0
ARC
  5
82
330
1F
100
AcDbEntity
  8
0
  6
Continuous
 62
     1
370
    15
100
AcDbCircle
 10
5.6120774049
 20
9.055817429
 30
0.0
 40
0.7500000000000002
100
AcDbArc
 50
89.9565132304
 51
154.5
  0
LINE
  5
83
330
1F
100
AcDbEntity
  8
0
  6
Continuous
 62
     1
370
    15
100
AcDbLine
 10
0.4789524231
 20
7.0887992515
 30
0.0
 11
0.6035670898
 21
7.0986066384
 31
0.0
  0
LINE
  5
84
330
1F
100
AcDbEntity
  8
0
  6
Continuous
 62
     1
370
    15
100
AcDbLine
 10
0.4789524231
 20
7.0887992515
 30
0.0
 11
0.3220342317
 21
9.0826339189
 31
0.0
  0
LINE
  5
85
330
1F
100
AcDbEntity
  8
0
  6
Continuous
 62
     1
370
    15
100
AcDbLine
 10
0.3220342317
 20
9.0826339189
 30
0.0
 11
0.4466488984
 21
9.0924413059
 31
0.0
  0
LINE
  5
86
330
1F
100
AcDbEntity
  8
0
  6
Continuous
 62
     1
370
    15
100
AcDbLine
 10
0.4466488984
 20
9.0924413059
 30
0.0
 11
0.2524567868
 21
11.5598860339
 31
0.0
  0
LINE
  5
87
330
1F
100
AcDbEntity
  8
0
  6
Continuous
 62
     1
370
    15
100
AcDbLine
 10
2.2730350235
 20
11.5583524403
 30
0.0
 11
0.2524567868
 21
11.5598860339
 31
0.0
  0
LINE
  5
88
330
1F
100
AcDbEntity
  8
0
  6
Continuous
 62
     1
370
    15
100
AcDbLine
 10
2.2732353962
 20
11.8223523643
 30
0.0
 11
2.2730350235
 21
11.5583524403
 31
0.0
  0
LINE
  5
89
330
1F
100
AcDbEntity
  8
0
  6
Continuous
 62
     1
370
    15
100
AcDbLine
 10
4.2732348201
 20
11.8208343898
 30
0.0
 11
2.2732353962
 21
11.8223523643
 31
0.0
  0
LINE
  5
8A
330
1F
100
AcDbEntity
  8
0
  6
Continuous
 62
     1
370
    15
100
AcDbLine
 10
4.2732348201
 20
11.8208343898
 30
0.0
 11
4.2730344475
 21
11.5568344659
 31
0.0
  0
LINE
  5
8B
330
1F
100
AcDbEntity
  8
0
  6
Continuous
 62
     1
370
    15
100
AcDbLine
 10
8.0881042061
 20
11.5539388758
 30
0.0
 11
4.2730344475
 21
11.5568344659
 31
0.0
  0
LINE
  5
8C
330
1F
100
AcDbEntity
  8
0
  6
Continuous
 62
     1
370
    15
100
AcDbLine
 10
8.0883045788
 20
11.8179387997
 30
0.0
 11
8.0881042061
 21
11.5539388758
 31
0.0
  0
LINE
  5
8D
330
1F
100
AcDbEntity
  8
0
  6
Continuous
 62
     1
370
    15
100
AcDbLine
 10
10.0883040027
 20
11.8164208253
 30
0.0
 11
8.0883045788
 21
11.8179387997
 31
0.0
  0
LINE
  5
8E
330
1F
100
AcDbEntity
  8
0
  6
Continuous
 62
     1
370
    15
100
AcDbLine
 10
10.0883040027
 20
11.8164208253
 30
0.0
 11
10.0881036301
 21
11.5524209013
 31
0.0
  0
LINE
  5
8F
330
1F
100
AcDbEntity
  8
0
  6
Continuous
 62
     1
370
    15
100
AcDbLine
 10
12.6630557002
 20
11.550466545
 30
0.0
 11
10.0881036301
 21
11.5524209013
 31
0.0
  0
LINE
  5
90
330
1F
100
AcDbEntity
  8
0
  6
Continuous
 62
     1
370
    15
100
AcDbLine
 10
12.6630557002
 20
11.550466545
 30
0.0
 11
13.0540895153
 21
6.5819108317
 31
0.0
  0
LINE
  5
91
330
1F
100
AcDbEntity
  8
0
  6
Continuous
 62
     1
370
    15
100
AcDbLine
 10
10.5111451067
 20
6.1771692872
 30
0.0
 11
13.0540895153
 21
6.5819108317
 31
0.0
  0
LINE
  5
92
330
1F
100
AcDbEntity
  8
0
  6
Continuous
 62
     1
370
    15
100
AcDbLine
 10
10.5111451067
 20
6.1771692872
 30
0.0
 11
10.5526416993
 21
5.9164509855
 31
0.0
  0
LINE
  5
93
330
1F
100
AcDbEntity
  8
0
  6
Continuous
 62
     1
370
    15
100
AcDbLine
 10
8.5775030506
 20
5.6020828599
 30
0.0
 11
10.5526416993
 21
5.9164509855
 31
0.0
  0
LINE
  5
94
330
1F
100
AcDbEntity
  8
0
  6
Continuous
 62
     1
370
    15
100
AcDbLine
 10
8.536006458
 20
5.8628011615
 30
0.0
 11
8.5775030506
 21
5.6020828599
 31
0.0
  0
LINE
  5
95
330
1F
100
AcDbEntity
  8
0
  6
Continuous
 62
     1
370
    15
100
AcDbLine
 10
4.7683595089
 20
5.2631328241
 30
0.0
 11
8.536006458
 21
5.8628011615
 31
0.0
  0
LINE
  5
96
330
1F
100
AcDbEntity
  8
0
  6
Continuous
 62
     1
370
    15
100
AcDbLine
 10
4.8098561015
 20
5.0024145225
 30
0.0
 11
4.7683595089
 21
5.2631328241
 31
0.0
  0
LINE
  5
97
330
1F
100
AcDbEntity
  8
0
  6
Continuous
 62
     1
370
    15
100
AcDbLine
 10
2.8347174528
 20
4.6880463969
 30
0.0
 11
4.8098561015
 21
5.0024145225
 31
0.0
  0
LINE
  5
98
330
1F
100
AcDbEntity
  8
0
  6
Continuous
 62
     1
370
    15
100
AcDbLine
 10
2.7932208602
 20
4.9487646985
 30
0.0
 11
2.8347174528
 21
4.6880463969
 31
0.0
  0
LINE
  5
99
330
1F
100
AcDbEntity
  8
0
  6
Continuous
 62
     1
370
    15
100
AcDbLine
 10
0.7977592014
 20
4.6311619105
 30
0.0
 11
2.7932208602
 21
4.9487646985
 31
0.0
  0
LINE
  5
9A
330
1F
100
AcDbEntity
  8
0
  6
Continuous
 62
     1
370
    15
100
AcDbLine
 10
0.7977592014
 20
4.6311619105
 30
0.0
 11
0.6035670898
 21
7.0986066384
 31
0.0
  0
CIRCLE
  5
9B
330
1F
100
AcDbEntity
  8
0
  6
Continuous
 62
     1
370
    15
100
AcDbCircle
 10
1.6825144425
 20
5.7429752612
 30
0.0
 40
0.0624999999999996
  0
VIEWPORT
  5
C8
330
23
100
AcDbEntity
 67
     1
  8
0
100
AcDbViewport
 10
12.0
 20
6.0
 30
0.0
 40
25.392
 41
12.696
 68
     1
 69
     1
 12
12.0
 22
6.0
 13
0.0
 23
0.0
 14
0.5
 24
0.5
 15
0.5
 25
0.5
 16
0.0
 26
0.0
 36
1.0
 17
0.0
 27
0.0
 37
0.0
 42
50.0
 43
0.0
 44
0.0
 45
12.696
 50
0.0
 51
0.0
 72
   100
 90
   557152
  1

281
     0
 71
     1
 74
     0
110
0.0
120
0.0
130
0.0
111
1.0
121
0.0
131
0.0
112
0.0
122
1.0
132
0.0
 79
     0
146
0.0
  0
LINE
  5
CA
330
23
100
AcDbEntity
 67
     1
  8
0
  6
Continuous
 62
     1
370
    15
100
AcDbLine
 10
6.9703732394
 20
4.413565102
 30
0.0
 11
6.9703732394
 21
9.9999560247
 31
0.0
  0
ARC
  5
CB
330
23
100
AcDbEntity
 67
     1
  8
0
  6
Continuous
 62
     1
370
    15
100
AcDbCircle
 10
6.2203732394
 20
9.9999560247
 30
0.0
 40
0.7500000000000009
100
AcDbArc
 50
0.0
 51
90.0
  0
LINE
  5
CC
330
23
100
AcDbEntity
 67
     1
  8
0
  6
Continuous
 62
     1
370
    15
100
AcDbLine
 10
6.2203732394
 20
10.7499560247
 30
0.0
 11
1.8733732394
 21
10.7499560247
 31
0.0
  0
ARC
  5
CD
330
23
100
AcDbEntity
 67
     1
  8
0
  6
Continuous
 62
     1
370
    15
100
AcDbCircle
 10
1.8733732394
 20
9.9999560247
 30
0.0
 40
0.7500000000000002
100
AcDbArc
 50
90.0
 51
180.0
  0
LINE
  5
CE
330
23
100
AcDbEntity
 67
     1
  8
0
  6
Continuous
 62
     1
370
    15
100
AcDbLine
 10
1.1233732394
 20
4.413565102
 30
0.0
 11
1.1233732394
 21
9.9999560247
 31
0.0
  0
ARC
  5
CF
330
23
100
AcDbEntity
 67
     1
  8
0
  6
Continuous
 62
     1
370
    15
100
AcDbCircle
 10
1.8733732394
 20
4.413565102
 30
0.0
 40
0.7499999999999996
100
AcDbArc
 50
180.0
 51
270.0
  0
LINE
  5
D0
330
23
100
AcDbEntity
 67
     1
  8
0
  6
Continuous
 62
     1
370
    15
100
AcDbLine
 10
6.2203732394
 20
3.663565102
 30
0.0
 11
1.8733732394
 21
3.663565102
 31
0.0
  0
ARC
  5
D1
330
23
100
AcDbEntity
 67
     1
  8
0
  6
Continuous
 62
     1
370
    15
100
AcDbCircle
 10
6.2203732394
 20
4.413565102
 30
0.0
 40
0.75
100
AcDbArc
 50
270.0
 51
0.0
  0
LINE
  5
D2
330
23
100
AcDbEntity
 67
     1
  8
0
  6
Continuous
 62
     1
370
    15
100
AcDbLine
 10
5.0468732394
 20
2.726065102
 30
0.0
 11
3.0468732394
 21
2.726065102
 31
0.0
  0
LINE
  5
D3
330
23
100
AcDbEntity
 67
     1
  8
0
  6
Continuous
 62
     1
370
    15
100
AcDbLine
 10
3.0468732394
 20
2.726065102
 30
0.0
 11
3.0468732394
 21
2.663565102
 31
0.0
  0
LINE
  5
D4
330
23
100
AcDbEntity
 67
     1
  8
0
  6
Continuous
 62
     1
370
    15
100
AcDbLine
 10
3.0468732394
 20
2.663565102
 30
0.0
 11
0.4983732394
 21
2.663565102
 31
0.0
  0
LINE
  5
D5
330
23
100
AcDbEntity
 67
     1
  8
0
  6
Continuous
 62
     1
370
    15
100
AcDbLine
 10
0.4983732394
 20
2.663565102
 30
0.0
 11
0.4983732394
 21
6.2067605634
 31
0.0
  0
LINE
  5
D6
330
23
100
AcDbEntity
 67
     1
  8
0
  6
Continuous
 62
     1
370
    15
100
AcDbLine
 10
0.4983732394
 20
6.2067605634
 30
0.0
 11
0.2968732394
 21
6.2067605634
 31
0.0
  0
LINE
  5
D7
330
23
100
AcDbEntity
 67
     1
  8
0
  6
Continuous
 62
     1
370
    15
100
AcDbLine
 10
0.2968732394
 20
6.2067605634
 30
0.0
 11
0.2968732394
 21
8.2067605634
 31
0.0
  0
LINE
  5
D8
330
23
100
AcDbEntity
 67
     1
  8
0
  6
Continuous
 62
     1
370
    15
100
AcDbLine
 10
0.4983732394
 20
8.2067605634
 30
0.0
 11
0.2968732394
 21
8.2067605634
 31
0.0
  0
LINE
  5
D9
330
23
100
AcDbEntity
 67
     1
  8
0
  6
Continuous
 62
     1
370
    15
100
AcDbLine
 10
0.4983732394
 20
8.2067605634
 30
0.0
 11
0.4983732394
 21
11.7499560247
 31
0.0
  0
LINE
  5
DA
330
23
100
AcDbEntity
 67
     1
  8
0
  6
Continuous
 62
     1
370
    15
100
AcDbLine
 10
0.4983732394
 20
11.7499560247
 30
0.0
 11
3.0468732394
 21
11.7499560247
 31
0.0
  0
LINE
  5
DB
330
23
100
AcDbEntity
 67
     1
  8
0
  6
Continuous
 62
     1
370
    15
100
AcDbLine
 10
3.0468732394
 20
11.6249560247
 30
0.0
 11
3.0468732394
 21
11.7499560247
 31
0.0
  0
LINE
  5
DC
330
23
100
AcDbEntity
 67
     1
  8
0
  6
Continuous
 62
     1
370
    15
100
AcDbLine
 10
5.0468732394
 20
11.6249560247
 30
0.0
 11
3.0468732394
 21
11.6249560247
 31
0.0
  0
LINE
  5
DD
330
23
100
AcDbEntity
 67
     1
  8
0
  6
Continuous
 62
     1
370
    15
100
AcDbLine
 10
5.0468732394
 20
11.7499560247
 30
0.0
 11
5.0468732394
 21
11.6249560247
 31
0.0
  0
LINE
  5
DE
330
23
100
AcDbEntity
 67
     1
  8
0
  6
Continuous
 62
     1
370
    15
100
AcDbLine
 10
5.0468732394
 20
11.7499560247
 30
0.0
 11
7.5953732394
 21
11.7499560247
 31
0.0
  0
LINE
  5
DF
330
23
100
AcDbEntity
 67
     1
  8
0
  6
Continuous
 62
     1
370
    15
100
AcDbLine
 10
7.5953732394
 20
8.2067605634
 30
0.0
 11
7.5953732394
 21
11.7499560247
 31
0.0
  0
LINE
  5
E0
330
23
100
AcDbEntity
 67
     1
  8
0
  6
Continuous
 62
     1
370
    15
100
AcDbLine
 10
7.7968732394
 20
8.2067605634
 30
0.0
 11
7.5953732394
 21
8.2067605634
 31
0.0
  0
LINE
  5
E1
330
23
100
AcDbEntity
 67
     1
  8
0
  6
Continuous
 62
     1
370
    15
100
AcDbLine
 10
7.7968732394
 20
8.2067605634
 30
0.0
 11
7.7968732394
 21
6.2067605634
 31
0.0
  0
LINE
  5
E2
330
23
100
AcDbEntity
 67
     1
  8
0
  6
Continuous
 62
     1
370
    15
100
AcDbLine
 10
7.7968732394
 20
6.2067605634
 30
0.0
 11
7.5953732394
 21
6.2067605634
 31
0.0
  0
LINE
  5
E3
330
23
100
AcDbEntity
 67
     1
  8
0
  6
Continuous
 62
     1
370
    15
100
AcDbLine
 10
7.5953732394
 20
2.663565102
 30
0.0
 11
7.5953732394
 21
6.2067605634
 31
0.0
  0
LINE
  5
E4
330
23
100
AcDbEntity
 67
     1
  8
0
  6
Continuous
 62
     1
370
    15
100
AcDbLine
 10
7.5953732394
 20
2.663565102
 30
0.0
 11
5.0468732394
 21
2.663565102
 31
0.0
  0
LINE
  5
E5
330
23
100
AcDbEntity
 67
     1
  8
0
  6
Continuous
 62
     1
370
    15
100
AcDbLine
 10
5.0468732394
 20
2.663565102
 30
0.0
 11
5.0468732394
 21
2.726065102
 31
0.0
  0
CIRCLE
  5
E6
330
23
100
AcDbEntity
 67
     1
  8
0
  6
Continuous
 62
     1
370
    15
100
AcDbCircle
 10
1.8717464789
 20
8.4141760563
 30
0.0
 40
0.0625
  0
CIRCLE
  5
E7
330
23
100
AcDbEntity
 67
     1
  8
0
  6
Continuous
 62
     1
370
    15
100
AcDbCircle
 10
3.3717464789
 20
9.5391760563
 30
0.0
 40
0.0625
  0
LINE
  5
E8
330
23
100
AcDbEntity
 67
     1
  8
0
  6
Continuous
 62
     1
370
    15
100
AcDbLine
 10
3.9967464789
 20
10.2266760563
 30
0.0
 11
1.2467464789
 21
10.2266760563
 31
0.0
  0
LINE
  5
E9
330
23
100
AcDbEntity
 67
     1
  8
0
  6
Continuous
 62
     1
370
    15
100
AcDbLine
 10
3.9967464789
 20
7.7266760563
 30
0.0
 11
3.9967464789
 21
10.2266760563
 31
0.0
  0
LINE
  5
EA
330
23
100
AcDbEntity
 67
     1
  8
0
  6
Continuous
 62
     1
370
    15
100
AcDbLine
 10
1.2467464789
 20
7.7266760563
 30
0.0
 11
3.9967464789
 21
7.7266760563
 31
0.0
  0
LINE
  5
EB
330
23
100
AcDbEntity
 67
     1
  8
0
  6
Continuous
 62
     1
370
    15
100
AcDbLine
 10
1.2467464789
 20
10.2266760563
 30
0.0
 11
1.2467464789
 21
7.7266760563
 31
0.0
  0
CIRCLE
  5
EC
330
23
100
AcDbEntity
 67
     1
  8
0
  6
Continuous
 62
     1
370
    15
100
AcDbCircle
 10
1.8717464789
 20
9.5391760563
 30
0.0
 40
0.0625
  0
CIRCLE
  5
ED
330
23
100
AcDbEntity
 67
     1
  8
0
  6
Continuous
 62
     1
370
    15
100
AcDbCircle
 10
3.3717464789
 20
8.4141760563
 30
0.0
 40
0.0625
  0
CIRCLE
  5
EE
330
23
100
AcDbEntity
 67
     1
  8
0
  6
Continuous
 62
     1
370
    15
100
AcDbCircle
 10
4.722
 20
8.4141760563
 30
0.0
 40
0.0625
  0
CIRCLE
  5
EF
330
23
100
AcDbEntity
 67
     1
  8
0
  6
Continuous
 62
     1
370
    15
100
AcDbCircle
 10
6.222
 20
9.5391760563
 30
0.0
 40
0.0625
  0
LINE
  5
F0
330
23
100
AcDbEntity
 67
     1
  8
0
  6
Continuous
 62
     1
370
    15
100
AcDbLine
 10
6.847
 20
10.2266760563
 30
0.0
 11
4.097
 21
10.2266760563
 31
0.0
  0
LINE
  5
F1
330
23
100
AcDbEntity
 67
     1
  8
0
  6
Continuous
 62
     1
370
    15
100
AcDbLine
 10
6.847
 20
7.7266760563
 30
0.0
 11
6.847
 21
10.2266760563
 31
0.0
  0
LINE
  5
F2
330
23
100
AcDbEntity
 67
     1
  8
0
  6
Continuous
 62
     1
370
    15
100
AcDbLine
 10
4.097
 20
7.7266760563
 30
0.0
 11
6.847
 21
7.7266760563
 31
0.0
  0
LINE
  5
F3
330
23
100
AcDbEntity
 67
     1
  8
0
  6
Continuous
 62
     1
370
    15
100
AcDbLine
 10
4.097
 20
10.2266760563
 30
0.0
 11
4.097
 21
7.7266760563
 31
0.0
  0
CIRCLE
  5
F4
330
23
100
AcDbEntity
 67
     1
  8
0
  6
Continuous
 62
     1
370
    15
100
AcDbCircle
 10
4.722
 20
9.5391760563
 30
0.0
 40
0.0625
  0
CIRCLE
  5
F5
330
23
100
AcDbEntity
 67
     1
  8
0
  6
Continuous
 62
     1
370
    15
100
AcDbCircle
 10
6.222
 20
8.4141760563
 30
0.0
 40
0.0625
  0
CIRCLE
  5
F6
330
23
100
AcDbEntity
 67
     1
  8
0
  6
Continuous
 62
     1
370
    15
100
AcDbCircle
 10
1.8717464789
 20
5.7707957746
 30
0.0
 40
0.0625
  0
CIRCLE
  5
F7
330
23
100
AcDbEntity
 67
     1
  8
0
  6
Continuous
 62
     1
370
    15
100
AcDbCircle
 10
3.3717464789
 20
6.8957957746
 30
0.0
 40
0.0625
  0
LINE
  5
F8
330
23
100
AcDbEntity
 67
     1
  8
0
  6
Continuous
 62
     1
370
    15
100
AcDbLine
 10
3.9967464789
 20
7.5832957746
 30
0.0
 11
1.2467464789
 21
7.5832957746
 31
0.0
  0
LINE
  5
F9
330
23
100
AcDbEntity
 67
     1
  8
0
  6
Continuous
 62
     1
370
    15
100
AcDbLine
 10
3.9967464789
 20
5.0832957746
 30
0.0
 11
3.9967464789
 21
7.5832957746
 31
0.0
  0
LINE
  5
FA
330
23
100
AcDbEntity
 67
     1
  8
0
  6
Continuous
 62
     1
370
    15
100
AcDbLine
 10
1.2467464789
 20
5.0832957746
 30
0.0
 11
3.9967464789
 21
5.0832957746
 31
0.0
  0
LINE
  5
FB
330
23
100
AcDbEntity
 67
     1
  8
0
  6
Continuous
 62
     1
370
    15
100
AcDbLine
 10
1.2467464789
 20
7.5832957746
 30
0.0
 11
1.2467464789
 21
5.0832957746
 31
0.0
  0
CIRCLE
  5
FC
330
23
100
AcDbEntity
 67
     1
  8
0
  6
Continuous
 62
     1
370
    15
100
AcDbCircle
 10
1.8717464789
 20
6.8957957746
 30
0.0
 40
0.0625
  0
CIRCLE
  5
FD
330
23
100
AcDbEntity
 67
     1
  8
0
  6
Continuous
 62
     1
370
    15
100
AcDbCircle
 10
3.3717464789
 20
5.7707957746
 30
0.0
 40
0.0625
  0
CIRCLE
  5
FE
330
23
100
AcDbEntity
 67
     1
  8
0
  6
Continuous
 62
     1
370
    15
100
AcDbCircle
 10
4.722
 20
5.7478098592
 30
0.0
 40
0.0625
  0
CIRCLE
  5
FF
330
23
100
AcDbEntity
 67
     1
  8
0
  6
Continuous
 62
     1
370
    15
100
AcDbCircle
 10
6.222
 20
6.8728098592
 30
0.0
 40
0.0625
  0
LINE
  5
100
330
23
100
AcDbEntity
 67
     1
  8
0
  6
Continuous
 62
     1
370
    15
100
AcDbLine
 10
6.847
 20
7.5603098592
 30
0.0
 11
4.097
 21
7.5603098592
 31
0.0
  0
LINE
  5
101
330
23
100
AcDbEntity
 67
     1
  8
0
  6
Continuous
 62
     1
370
    15
100
AcDbLine
 10
6.847
 20
5.0603098592
 30
0.0
 11
6.847
 21
7.5603098592
 31
0.0
  0
LINE
  5
102
330
23
100
AcDbEntity
 67
     1
  8
0
  6
Continuous
 62
     1
370
    15
100
AcDbLine
 10
4.097
 20
5.0603098592
 30
0.0
 11
6.847
 21
5.0603098592
 31
0.0
  0
LINE
  5
103
330
23
100
AcDbEntity
 67
     1
  8
0
  6
Continuous
 62
     1
370
    15
100
AcDbLine
 10
4.097
 20
7.5603098592
 30
0.0
 11
4.097
 21
5.0603098592
 31
0.0
  0
CIRCLE
  5
104
330
23
100
AcDbEntity
 67
     1
  8
0
  6
Continuous
 62
     1
370
    15
100
AcDbCircle
 10
4.722
 20
6.8728098592
 30
0.0
 40
0.0625
  0
CIRCLE
  5
105
330
23
100
AcDbEntity
 67
     1
  8
0
  6
Continuous
 62
     1
370
    15
100
AcDbCircle
 10
6.222
 20
5.7478098592
 30
0.0
 40
0.0625
  0
ENDSEC
  0
SECTION
  2
OBJECTS
  0
DICTIONARY
  5
C
330
0
100
AcDbDictionary
281
     1
  3
ACAD_GROUP
350
D
  3
ACAD_LAYOUT
350
1A
  3
ACAD_MLINESTYLE
350
17
  3
ACAD_PLOTSETTINGS
350
19
  3
ACAD_PLOTSTYLENAME
350
E
  3
ACAD_SCALELIST
350
47
  0
DICTIONARY
  5
D
102
{ACAD_REACTORS
330
C
102
}
330
C
100
AcDbDictionary
281
     1
  0
DICTIONARY
  5
1A
102
{ACAD_REACTORS
330
C
102
}
330
C
100
AcDbDictionary
281
     1
  3
Model
350
22
  3
Sheet2
350
1E
  3
Sheet3
350
26
  0
DICTIONARY
  5
17
102
{ACAD_REACTORS
330
C
102
}
330
C
100
AcDbDictionary
281
     1
  3
Standard
350
18
  0
DICTIONARY
  5
19
102
{ACAD_REACTORS
330
C
102
}
330
C
100
AcDbDictionary
281
     1
  0
ACDBDICTIONARYWDFLT
  5
E
102
{ACAD_REACTORS
330
C
102
}
330
C
100
AcDbDictionary
281
     1
  3
Normal
350
F
100
AcDbDictionaryWithDefault
340
F
  0
DICTIONARY
  5
47
102
{ACAD_REACTORS
330
C
102
}
330
C
100
AcDbDictionary
281
     1
  3
A0
350
48
  3
A1
350
49
  3
A2
350
4A
  3
A3
350
4B
  3
A4
350
4C
  3
A5
350
4D
  3
A6
350
4E
  3
A7
350
4F
  3
A8
350
50
  3
A9
350
51
  3
B0
350
52
  3
B1
350
53
  3
B2
350
54
  3
B3
350
55
  3
B4
350
56
  3
B5
350
57
  3
B6
350
58
  3
B7
350
59
  3
B8
350
5A
  3
B9
350
5B
  3
C0
350
5C
  3
C1
350
5D
  3
C2
350
5E
  3
C3
350
5F
  3
C4
350
60
  3
C5
350
61
  3
C6
350
62
  3
C7
350
63
  3
C8
350
64
  3
C9
350
65
  3
D0
350
66
  3
D1
350
67
  3
D2
350
68
  0
LAYOUT
  5
22
102
{ACAD_REACTORS
330
1A
102
}
330
1A
100
AcDbPlotSettings
  1

  2
none_device
  4
Letter_(8.50_x_11.00_Inches)
  6

 40
6.35
 41
6.35
 42
6.35000508
 43
6.35000508
 44
215.9
 45
279.4
 46
0.0
 47
0.0
 48
0.0
 49
0.0
140
0.0
141
0.0
142
1.0
143
1.0
 70
  1712
 72
     0
 73
     0
 74
     0
  7

 75
     0
147
1.0
148
0.0
149
0.0
100
AcDbLayout
  1
Model
 70
     1
 71
     0
 10
0.0
 20
0.0
 11
24.0
 21
12.0
 12
0.0
 22
0.0
 32
0.0
 14
0.0
 24
0.0
 34
0.0
 15
24.0
 25
12.0
 35
0.0
146
0.0
 13
0.0
 23
0.0
 33
0.0
 16
1.0
 26
0.0
 36
0.0
 17
0.0
 27
1.0
 37
0.0
 76
     0
330
1F
331
29
  0
LAYOUT
  5
1E
102
{ACAD_REACTORS
330
1A
102
}
330
1A
100
AcDbPlotSettings
  1

  2
none_device
  4
ANSI_D_(34.00_x_22.00_Inches)
  6

 40
6.35
 41
19.05
 42
6.3499746
 43
19.0499873
 44
863.6
 45
558.8
 46
0.0
 47
0.0
 48
0.0
 49
0.0
140
0.0
141
0.0
142
1.0
143
1.0
 70
  4832
 72
     0
 73
     0
 74
     1
  7

 75
     0
147
1.0
148
0.0
149
0.0
100
AcDbLayout
  1
Sheet2
 70
     1
 71
     1
 10
0.0
 20
0.0
 11
24.0
 21
12.0
 12
0.0
 22
0.0
 32
0.0
 14
0.0
 24
0.0
 34
0.0
 15
24.0
 25
12.0
 35
0.0
146
0.0
 13
0.0
 23
0.0
 33
0.0
 16
1.0
 26
0.0
 36
0.0
 17
0.0
 27
1.0
 37
0.0
 76
     0
330
1B
  0
LAYOUT
  5
26
102
{ACAD_REACTORS
330
1A
102
}
330
1A
100
AcDbPlotSettings
  1

  2
none_device
  4
ANSI_D_(34.00_x_22.00_Inches)
  6

 40
6.35
 41
19.05
 42
6.3499746
 43
19.0499873
 44
863.6
 45
558.8
 46
0.0
 47
0.0
 48
0.0
 49
0.0
140
0.0
141
0.0
142
1.0
143
1.0
 70
  4832
 72
     0
 73
     0
 74
     1
  7

 75
    16
147
1.0
148
0.0
149
0.0
100
AcDbLayout
  1
Sheet3
 70
     1
 71
     2
 10
0.0
 20
0.0
 11
24.0
 21
12.0
 12
0.0
 22
0.0
 32
0.0
 14
0.0
 24
0.0
 34
0.0
 15
24.0
 25
12.0
 35
0.0
146
0.0
 13
0.0
 23
0.0
 33
0.0
 16
1.0
 26
0.0
 36
0.0
 17
0.0
 27
1.0
 37
0.0
 76
     0
330
23
331
C8
  0
MLINESTYLE
  5
18
102
{ACAD_REACTORS
330
17
102
}
330
17
100
AcDbMlineStyle
  2
Standard
 70
     0
  3

 62
   256
 51
90.0
 52
90.0
 71
     2
 49
0.5
 62
   256
  6
BYLAYER
 49
-0.5
 62
   256
  6
BYLAYER
  0
ACDBPLACEHOLDER
  5
F
102
{ACAD_REACTORS
330
E
102
}
330
E
  0
SCALE
  5
48
102
{ACAD_REACTORS
330
47
102
}
330
47
100
AcDbScale
 70
     0
300
1:1
140
1.0
141
1.0
290
     1
  0
SCALE
  5
49
102
{ACAD_REACTORS
330
47
102
}
330
47
100
AcDbScale
 70
     0
300
1:2
140
1.0
141
2.0
290
     0
  0
SCALE
  5
4A
102
{ACAD_REACTORS
330
47
102
}
330
47
100
AcDbScale
 70
     0
300
1:4
140
1.0
141
4.0
290
     0
  0
SCALE
  5
4B
102
{ACAD_REACTORS
330
47
102
}
330
47
100
AcDbScale
 70
     0
300
1:5
140
1.0
141
5.0
290
     0
  0
SCALE
  5
4C
102
{ACAD_REACTORS
330
47
102
}
330
47
100
AcDbScale
 70
     0
300
1:8
140
1.0
141
8.0
290
     0
  0
SCALE
  5
4D
102
{ACAD_REACTORS
330
47
102
}
330
47
100
AcDbScale
 70
     0
300
1:10
140
1.0
141
10.0
290
     0
  0
SCALE
  5
4E
102
{ACAD_REACTORS
330
47
102
}
330
47
100
AcDbScale
 70
     0
300
1:16
140
1.0
141
16.0
290
     0
  0
SCALE
  5
4F
102
{ACAD_REACTORS
330
47
102
}
330
47
100
AcDbScale
 70
     0
300
1:20
140
1.0
141
20.0
290
     0
  0
SCALE
  5
50
102
{ACAD_REACTORS
330
47
102
}
330
47
100
AcDbScale
 70
     0
300
1:30
140
1.0
141
30.0
290
     0
  0
SCALE
  5
51
102
{ACAD_REACTORS
330
47
102
}
330
47
100
AcDbScale
 70
     0
300
1:40
140
1.0
141
40.0
290
     0
  0
SCALE
  5
52
102
{ACAD_REACTORS
330
47
102
}
330
47
100
AcDbScale
 70
     0
300
1:50
140
1.0
141
50.0
290
     0
  0
SCALE
  5
53
102
{ACAD_REACTORS
330
47
102
}
330
47
100
AcDbScale
 70
     0
300
1:100
140
1.0
141
100.0
290
     0
  0
SCALE
  5
54
102
{ACAD_REACTORS
330
47
102
}
330
47
100
AcDbScale
 70
     0
300
2:1
140
2.0
141
1.0
290
     0
  0
SCALE
  5
55
102
{ACAD_REACTORS
330
47
102
}
330
47
100
AcDbScale
 70
     0
300
4:1
140
4.0
141
1.0
290
     0
  0
SCALE
  5
56
102
{ACAD_REACTORS
330
47
102
}
330
47
100
AcDbScale
 70
     0
300
8:1
140
8.0
141
1.0
290
     0
  0
SCALE
  5
57
102
{ACAD_REACTORS
330
47
102
}
330
47
100
AcDbScale
 70
     0
300
10:1
140
10.0
141
1.0
290
     0
  0
SCALE
  5
58
102
{ACAD_REACTORS
330
47
102
}
330
47
100
AcDbScale
 70
     0
300
100:1
140
100.0
141
1.0
290
     0
  0
SCALE
  5
59
102
{ACAD_REACTORS
330
47
102
}
330
47
100
AcDbScale
 70
     0
300
1/128" = 1'-0"
140
0.0078125
141
12.0
290
     0
  0
SCALE
  5
5A
102
{ACAD_REACTORS
330
47
102
}
330
47
100
AcDbScale
 70
     0
300
1/64" = 1'-0"
140
0.015625
141
12.0
290
     0
  0
SCALE
  5
5B
102
{ACAD_REACTORS
330
47
102
}
330
47
100
AcDbScale
 70
     0
300
1/32" = 1'-0"
140
0.03125
141
12.0
290
     0
  0
SCALE
  5
5C
102
{ACAD_REACTORS
330
47
102
}
330
47
100
AcDbScale
 70
     0
300
1/16" = 1'-0"
140
0.0625
141
12.0
290
     0
  0
SCALE
  5
5D
102
{ACAD_REACTORS
330
47
102
}
330
47
100
AcDbScale
 70
     0
300
3/32" = 1'-0"
140
0.09375
141
12.0
290
     0
  0
SCALE
  5
5E
102
{ACAD_REACTORS
330
47
102
}
330
47
100
AcDbScale
 70
     0
300
1/8" = 1'-0"
140
0.125
141
12.0
290
     0
  0
SCALE
  5
5F
102
{ACAD_REACTORS
330
47
102
}
330
47
100
AcDbScale
 70
     0
300
3/16" = 1'-0"
140
0.1875
141
12.0
290
     0
  0
SCALE
  5
60
102
{ACAD_REACTORS
330
47
102
}
330
47
100
AcDbScale
 70
     0
300
1/4" = 1'-0"
140
0.25
141
12.0
290
     0
  0
SCALE
  5
61
102
{ACAD_REACTORS
330
47
102
}
330
47
100
AcDbScale
 70
     0
300
3/8" = 1'-0"
140
0.375
141
12.0
290
     0
  0
SCALE
  5
62
102
{ACAD_REACTORS
330
47
102
}
330
47
100
AcDbScale
 70
     0
300
1/2" = 1'-0"
140
0.5
141
12.0
290
     0
  0
SCALE
  5
63
102
{ACAD_REACTORS
330
47
102
}
330
47
100
AcDbScale
 70
     0
300
3/4" = 1'-0"
140
0.75
141
12.0
290
     0
  0
SCALE
  5
64
102
{ACAD_REACTORS
330
47
102
}
330
47
100
AcDbScale
 70
     0
300
1" = 1'-0"
140
1.0
141
12.0
290
     0
  0
SCALE
  5
65
102
{ACAD_REACTORS
330
47
102
}
330
47
100
AcDbScale
 70
     0
300
1-1/2" = 1'-0"
140
1.5
141
12.0
290
     0
  0
SCALE
  5
66
102
{ACAD_REACTORS
330
47
102
}
330
47
100
AcDbScale
 70
     0
300
3" = 1'-0"
140
3.0
141
12.0
290
     0
  0
SCALE
  5
67
102
{ACAD_REACTORS
330
47
102
}
330
47
100
AcDbScale
 70
     0
300
6" = 1'-0"
140
6.0
141
12.0
290
     0
  0
SCALE
  5
68
102
{ACAD_REACTORS
330
47
102
}
330
47
100
AcDbScale
 70
     0
300
1'-0" = 1'-0"
140
12.0
141
12.0
290
     0
  0
ENDSEC
  0
EOF
