solid Default
  facet normal 5.567028e-02 -9.645374e-01 -2.580087e-01
    outer loop
      vertex 6.620247e+01 -7.543127e+00 4.202832e+00
      vertex 6.847466e+01 -7.432559e+00 4.279758e+00
      vertex 5.580282e+01 -8.629616e+00 6.020631e+00
    endloop
  endfacet
  facet normal 6.553122e-02 -9.612669e-01 -2.677153e-01
    outer loop
      vertex 4.076184e+01 -9.648080e+00 6.236294e+00
      vertex 3.731441e+01 -8.944167e+00 2.972226e+00
      vertex 3.846460e+01 -8.883472e+00 3.040455e+00
    endloop
  endfacet
  facet normal 6.217076e-02 -9.624037e-01 -2.644124e-01
    outer loop
      vertex 4.076184e+01 -9.648080e+00 6.236294e+00
      vertex 3.846460e+01 -8.883472e+00 3.040455e+00
      vertex 5.128320e+01 -9.056565e+00 6.641541e+00
    endloop
  endfacet
  facet normal 5.920018e-02 -9.633889e-01 -2.614905e-01
    outer loop
      vertex 3.846460e+01 -8.883472e+00 3.040455e+00
      vertex 4.707260e+01 -8.455723e+00 3.458841e+00
      vertex 5.128320e+01 -9.056565e+00 6.641541e+00
    endloop
  endfacet
  facet normal 5.606105e-02 -9.644110e-01 -2.583960e-01
    outer loop
      vertex 5.128320e+01 -9.056565e+00 6.641541e+00
      vertex 4.707260e+01 -8.455723e+00 3.458841e+00
      vertex 4.857766e+01 -8.380933e+00 3.531993e+00
    endloop
  endfacet
  facet normal 5.567028e-02 -9.645374e-01 -2.580087e-01
    outer loop
      vertex 5.128320e+01 -9.056565e+00 6.641541e+00
      vertex 4.857766e+01 -8.380933e+00 3.531993e+00
      vertex 5.580282e+01 -8.629616e+00 6.020631e+00
    endloop
  endfacet
  facet normal 5.567028e-02 -9.645374e-01 -2.580087e-01
    outer loop
      vertex 5.580282e+01 -8.629616e+00 6.020631e+00
      vertex 4.857766e+01 -8.380933e+00 3.531993e+00
      vertex 5.335149e+01 -8.154006e+00 3.713696e+00
    endloop
  endfacet
  facet normal 5.567028e-02 -9.645374e-01 -2.580087e-01
    outer loop
      vertex 5.580282e+01 -8.629616e+00 6.020631e+00
      vertex 5.335149e+01 -8.154006e+00 3.713696e+00
      vertex 6.620247e+01 -7.543127e+00 4.202832e+00
    endloop
  endfacet
  facet normal 6.751850e-02 -9.605839e-01 -2.696662e-01
    outer loop
      vertex 3.165542e+01 -9.242785e+00 2.636534e+00
      vertex 3.033366e+01 -1.023436e+01 5.834636e+00
      vertex 2.681905e+01 -9.487151e+00 2.308709e+00
    endloop
  endfacet
  facet normal 6.663284e-02 -9.608874e-01 -2.688035e-01
    outer loop
      vertex 2.681905e+01 -9.487151e+00 2.308709e+00
      vertex 3.033366e+01 -1.023436e+01 5.834636e+00
      vertex 2.473099e+01 -1.053253e+01 5.630405e+00
    endloop
  endfacet
  facet normal 6.638842e-02 -9.609740e-01 -2.685545e-01
    outer loop
      vertex 3.731441e+01 -8.944167e+00 2.972226e+00
      vertex 4.076184e+01 -9.648080e+00 6.236294e+00
      vertex 3.165542e+01 -9.242785e+00 2.636534e+00
    endloop
  endfacet
  facet normal 6.698216e-02 -9.607695e-01 -2.691382e-01
    outer loop
      vertex 3.165542e+01 -9.242785e+00 2.636534e+00
      vertex 4.076184e+01 -9.648080e+00 6.236294e+00
      vertex 3.083524e+01 -1.020616e+01 5.853955e+00
    endloop
  endfacet
  facet normal 6.754158e-02 -9.605760e-01 -2.696886e-01
    outer loop
      vertex 3.165542e+01 -9.242785e+00 2.636534e+00
      vertex 3.083524e+01 -1.020616e+01 5.853955e+00
      vertex 3.033366e+01 -1.023436e+01 5.834636e+00
    endloop
  endfacet
  facet normal 6.043375e-02 -9.629833e-01 -2.626994e-01
    outer loop
      vertex 8.259674e+00 -1.032529e+01 1.012777e+00
      vertex 1.970299e+01 -9.846702e+00 1.826358e+00
      vertex 2.473099e+01 -1.053253e+01 5.630405e+00
    endloop
  endfacet
  facet normal 6.475336e-02 -9.615282e-01 -2.669652e-01
    outer loop
      vertex 2.473099e+01 -1.053253e+01 5.630405e+00
      vertex 1.970299e+01 -9.846702e+00 1.826358e+00
      vertex 2.083400e+01 -9.789556e+00 1.903022e+00
    endloop
  endfacet
  facet normal 6.582297e-02 -9.611644e-01 -2.680119e-01
    outer loop
      vertex 2.473099e+01 -1.053253e+01 5.630405e+00
      vertex 2.083400e+01 -9.789556e+00 1.903022e+00
      vertex 2.681905e+01 -9.487151e+00 2.308709e+00
    endloop
  endfacet
  facet normal 5.674263e-02 -9.641961e-01 -2.590483e-01
    outer loop
      vertex 2.473099e+01 -1.053253e+01 5.630405e+00
      vertex 1.346949e+01 -1.113186e+01 5.219895e+00
      vertex 8.259674e+00 -1.032529e+01 1.012777e+00
    endloop
  endfacet
  facet normal 5.169894e-02 -9.658094e-01 -2.540460e-01
    outer loop
      vertex 8.259674e+00 -1.032529e+01 1.012777e+00
      vertex 1.346949e+01 -1.113186e+01 5.219895e+00
      vertex 1.129743e+01 -1.124746e+01 5.140718e+00
    endloop
  endfacet
  facet normal 5.130342e-02 -9.659340e-01 -2.536520e-01
    outer loop
      vertex 8.259674e+00 -1.032529e+01 1.012777e+00
      vertex 1.129743e+01 -1.124746e+01 5.140718e+00
      vertex 8.234329e+00 -1.032606e+01 1.011164e+00
    endloop
  endfacet
  facet normal 4.906847e-02 -9.666339e-01 -2.514182e-01
    outer loop
      vertex 8.234329e+00 -1.032606e+01 1.011164e+00
      vertex 1.129743e+01 -1.124746e+01 5.140718e+00
      vertex 8.626080e+00 -1.133751e+01 5.079193e+00
    endloop
  endfacet
  facet normal 4.755218e-02 -9.671032e-01 -2.499003e-01
    outer loop
      vertex 8.234329e+00 -1.032606e+01 1.011164e+00
      vertex 8.626080e+00 -1.133751e+01 5.079193e+00
      vertex 4.000618e+00 -1.045487e+01 7.418794e-01
    endloop
  endfacet
  facet normal 4.104399e-02 -9.690713e-01 -2.433440e-01
    outer loop
      vertex 4.000618e+00 -1.045487e+01 7.418794e-01
      vertex 8.626080e+00 -1.133751e+01 5.079193e+00
      vertex 2.266462e+00 -1.155191e+01 4.932722e+00
    endloop
  endfacet
  facet normal 3.846819e-02 -9.698263e-01 -2.407429e-01
    outer loop
      vertex 4.000618e+00 -1.045487e+01 7.418794e-01
      vertex 2.266462e+00 -1.155191e+01 4.932722e+00
      vertex -1.847417e-01 -1.058221e+01 4.756695e-01
    endloop
  endfacet
  facet normal 3.288729e-02 -9.714208e-01 -2.350745e-01
    outer loop
      vertex -1.847417e-01 -1.058221e+01 4.756695e-01
      vertex 2.266462e+00 -1.155191e+01 4.932722e+00
      vertex 5.613772e-01 -1.160939e+01 4.893451e+00
    endloop
  endfacet
  facet normal 3.159163e-02 -9.717836e-01 -2.337488e-01
    outer loop
      vertex -1.847417e-01 -1.058221e+01 4.756695e-01
      vertex 5.613772e-01 -1.160939e+01 4.893451e+00
      vertex -4.437871e+00 -1.066694e+01 2.719527e-01
    endloop
  endfacet
  facet normal 2.735178e-02 -9.729458e-01 -2.294088e-01
    outer loop
      vertex -4.437871e+00 -1.066694e+01 2.719527e-01
      vertex 5.613772e-01 -1.160939e+01 4.893451e+00
      vertex -9.733125e-01 -1.166113e+01 4.858105e+00
    endloop
  endfacet
  facet normal 2.547956e-02 -9.734493e-01 -2.274803e-01
    outer loop
      vertex -4.437871e+00 -1.066694e+01 2.719527e-01
      vertex -9.733125e-01 -1.166113e+01 4.858105e+00
      vertex -6.848586e+00 -1.071497e+01 1.564840e-01
    endloop
  endfacet
  facet normal 1.841910e-02 -9.752932e-01 -2.201454e-01
    outer loop
      vertex -6.848586e+00 -1.071497e+01 1.564840e-01
      vertex -9.733125e-01 -1.166113e+01 4.858105e+00
      vertex -7.501964e+00 -1.171970e+01 4.818863e+00
    endloop
  endfacet
  facet normal 1.287276e-02 -9.766696e-01 -2.143612e-01
    outer loop
      vertex -6.848586e+00 -1.071497e+01 1.564840e-01
      vertex -7.501964e+00 -1.171970e+01 4.818863e+00
      vertex -1.248089e+01 -1.077258e+01 6.727520e-03
    endloop
  endfacet
  facet normal 7.684379e-03 -9.779000e-01 -2.089320e-01
    outer loop
      vertex -1.248089e+01 -1.077258e+01 6.727520e-03
      vertex -7.501964e+00 -1.171970e+01 4.818863e+00
      vertex -1.277818e+01 -1.077276e+01 6.329770e-03
    endloop
  endfacet
  facet normal 7.141941e-03 -9.780261e-01 -2.083600e-01
    outer loop
      vertex -7.501964e+00 -1.171970e+01 4.818863e+00
      vertex -7.751712e+00 -1.172194e+01 4.817362e+00
      vertex -1.277818e+01 -1.077276e+01 6.329770e-03
    endloop
  endfacet
  facet normal 2.657349e-03 -9.790506e-01 -2.035999e-01
    outer loop
      vertex -1.277818e+01 -1.077276e+01 6.329770e-03
      vertex -7.751712e+00 -1.172194e+01 4.817362e+00
      vertex -1.193097e+01 -1.175944e+01 4.792241e+00
    endloop
  endfacet
  facet normal -1.817606e-03 -9.800307e-01 -1.988381e-01
    outer loop
      vertex -1.277818e+01 -1.077276e+01 6.329770e-03
      vertex -1.193097e+01 -1.175944e+01 4.792241e+00
      vertex -1.751118e+01 -1.077553e+01 0.000000e+00
    endloop
  endfacet
  facet normal -1.028068e-02 -9.817749e-01 -1.897693e-01
    outer loop
      vertex -1.751118e+01 -1.077553e+01 0.000000e+00
      vertex -1.193097e+01 -1.175944e+01 4.792241e+00
      vertex -1.555550e+01 -1.168385e+01 4.844836e+00
    endloop
  endfacet
  facet normal -1.425924e-02 -9.825463e-01 -1.854711e-01
    outer loop
      vertex -1.751118e+01 -1.077553e+01 0.000000e+00
      vertex -1.555550e+01 -1.168385e+01 4.844836e+00
      vertex -2.089414e+01 -1.074514e+01 8.155593e-02
    endloop
  endfacet
  facet normal -1.959427e-02 -9.835294e-01 -1.796829e-01
    outer loop
      vertex -2.089414e+01 -1.074514e+01 8.155593e-02
      vertex -1.555550e+01 -1.168385e+01 4.844836e+00
      vertex -1.693432e+01 -1.165509e+01 4.864844e+00
    endloop
  endfacet
  facet normal -2.026137e-02 -9.836485e-01 -1.789557e-01
    outer loop
      vertex -2.089414e+01 -1.074514e+01 8.155593e-02
      vertex -1.693432e+01 -1.165509e+01 4.864844e+00
      vertex -2.147692e+01 -1.073990e+01 9.560588e-02
    endloop
  endfacet
  facet normal -2.792770e-02 -9.849604e-01 -1.705084e-01
    outer loop
      vertex -2.147692e+01 -1.073990e+01 9.560588e-02
      vertex -1.693432e+01 -1.165509e+01 4.864844e+00
      vertex -2.196350e+01 -1.155020e+01 4.937822e+00
    endloop
  endfacet
  facet normal -3.257953e-02 -9.856935e-01 -1.653686e-01
    outer loop
      vertex -2.147692e+01 -1.073990e+01 9.560588e-02
      vertex -2.196350e+01 -1.155020e+01 4.937822e+00
      vertex -2.607939e+01 -1.064781e+01 3.275527e-01
    endloop
  endfacet
  facet normal -4.165164e-02 -9.869916e-01 -1.552828e-01
    outer loop
      vertex -2.607939e+01 -1.064781e+01 3.275527e-01
      vertex -2.196350e+01 -1.155020e+01 4.937822e+00
      vertex -2.359432e+01 -1.146068e+01 4.999672e+00
    endloop
  endfacet
  facet normal -4.372836e-02 -9.872664e-01 -1.529475e-01
    outer loop
      vertex -2.607939e+01 -1.064781e+01 3.275527e-01
      vertex -2.359432e+01 -1.146068e+01 4.999672e+00
      vertex -2.874017e+01 -1.055615e+01 5.360806e-01
    endloop
  endfacet
  facet normal -4.970443e-02 -9.880046e-01 -1.462066e-01
    outer loop
      vertex -2.874017e+01 -1.055615e+01 5.360806e-01
      vertex -2.359432e+01 -1.146068e+01 4.999672e+00
      vertex -2.548565e+01 -1.135686e+01 5.071402e+00
    endloop
  endfacet
  facet normal -5.231746e-02 -9.883042e-01 -1.432401e-01
    outer loop
      vertex -2.874017e+01 -1.055615e+01 5.360806e-01
      vertex -2.548565e+01 -1.135686e+01 5.071402e+00
      vertex -3.067218e+01 -1.048960e+01 6.874949e-01
    endloop
  endfacet
  facet normal -6.272024e-02 -9.893596e-01 -1.312777e-01
    outer loop
      vertex -3.067218e+01 -1.048960e+01 6.874949e-01
      vertex -2.548565e+01 -1.135686e+01 5.071402e+00
      vertex -3.129545e+01 -1.103795e+01 5.291744e+00
    endloop
  endfacet
  facet normal -6.732935e-02 -9.897469e-01 -1.259671e-01
    outer loop
      vertex -3.067218e+01 -1.048960e+01 6.874949e-01
      vertex -3.129545e+01 -1.103795e+01 5.291744e+00
      vertex -3.383544e+01 -1.032477e+01 1.015231e+00
    endloop
  endfacet
  facet normal -7.555471e-02 -9.903225e-01 -1.164163e-01
    outer loop
      vertex -3.383544e+01 -1.032477e+01 1.015231e+00
      vertex -3.129545e+01 -1.103795e+01 5.291744e+00
      vertex -3.161232e+01 -1.100861e+01 5.311984e+00
    endloop
  endfacet
  facet normal -1.382451e-01 -9.896013e-01 -3.972068e-02
    outer loop
      vertex -4.116429e+01 -1.007756e+01 5.954073e+00
      vertex -4.754652e+01 -9.218272e+00 6.546283e+00
      vertex -4.933465e+01 -8.873314e+00 3.066774e+00
    endloop
  endfacet
  facet normal -1.270530e-01 -9.904295e-01 -5.391561e-02
    outer loop
      vertex -4.933465e+01 -8.873314e+00 3.066774e+00
      vertex -4.461297e+01 -9.455878e+00 2.385405e+00
      vertex -4.116429e+01 -1.007756e+01 5.954073e+00
    endloop
  endfacet
  facet normal -1.187336e-01 -9.908382e-01 -6.435796e-02
    outer loop
      vertex -4.116429e+01 -1.007756e+01 5.954073e+00
      vertex -4.461297e+01 -9.455878e+00 2.385405e+00
      vertex -4.417195e+01 -9.498677e+00 2.324666e+00
    endloop
  endfacet
  facet normal -1.183430e-01 -9.908534e-01 -6.484228e-02
    outer loop
      vertex -4.116429e+01 -1.007756e+01 5.954073e+00
      vertex -4.417195e+01 -9.498677e+00 2.324666e+00
      vertex -4.005920e+01 -1.022635e+01 5.851531e+00
    endloop
  endfacet
  facet normal -1.159396e-01 -9.909379e-01 -6.782308e-02
    outer loop
      vertex -4.005920e+01 -1.022635e+01 5.851531e+00
      vertex -4.417195e+01 -9.498677e+00 2.324666e+00
      vertex -4.393355e+01 -9.521814e+00 2.291831e+00
    endloop
  endfacet
  facet normal -1.155557e-01 -9.909502e-01 -6.829752e-02
    outer loop
      vertex -4.005920e+01 -1.022635e+01 5.851531e+00
      vertex -4.393355e+01 -9.521814e+00 2.291831e+00
      vertex -3.959910e+01 -1.026896e+01 5.822142e+00
    endloop
  endfacet
  facet normal -1.085869e-01 -9.911138e-01 -7.682628e-02
    outer loop
      vertex -3.959910e+01 -1.026896e+01 5.822142e+00
      vertex -4.393355e+01 -9.521814e+00 2.291831e+00
      vertex -3.994145e+01 -9.909235e+00 1.742011e+00
    endloop
  endfacet
  facet normal -9.966383e-02 -9.911523e-01 -8.765953e-02
    outer loop
      vertex -3.959910e+01 -1.026896e+01 5.822142e+00
      vertex -3.994145e+01 -9.909235e+00 1.742011e+00
      vertex -3.353473e+01 -1.083058e+01 5.434779e+00
    endloop
  endfacet
  facet normal -8.794724e-02 -9.909130e-01 -1.017685e-01
    outer loop
      vertex -3.353473e+01 -1.083058e+01 5.434779e+00
      vertex -3.994145e+01 -9.909235e+00 1.742011e+00
      vertex -3.638357e+01 -1.016929e+01 1.301191e+00
    endloop
  endfacet
  facet normal -8.252127e-02 -9.906958e-01 -1.082223e-01
    outer loop
      vertex -3.353473e+01 -1.083058e+01 5.434779e+00
      vertex -3.638357e+01 -1.016929e+01 1.301191e+00
      vertex -3.161232e+01 -1.100861e+01 5.311984e+00
    endloop
  endfacet
  facet normal -7.813153e-02 -9.904723e-01 -1.134028e-01
    outer loop
      vertex -3.161232e+01 -1.100861e+01 5.311984e+00
      vertex -3.638357e+01 -1.016929e+01 1.301191e+00
      vertex -3.530165e+01 -1.024837e+01 1.167142e+00
    endloop
  endfacet
  facet normal -7.439306e-02 -9.902495e-01 -1.177781e-01
    outer loop
      vertex -3.161232e+01 -1.100861e+01 5.311984e+00
      vertex -3.530165e+01 -1.024837e+01 1.167142e+00
      vertex -3.383544e+01 -1.032477e+01 1.015231e+00
    endloop
  endfacet
  facet normal -1.571524e-01 -9.874547e-01 -1.537538e-02
    outer loop
      vertex -5.868332e+01 -7.437828e+00 4.296713e+00
      vertex -5.332399e+01 -8.280522e+00 3.639072e+00
      vertex -4.871680e+01 -9.060709e+00 6.654874e+00
    endloop
  endfacet
  facet normal -1.562639e-01 -9.875769e-01 -1.653727e-02
    outer loop
      vertex -4.871680e+01 -9.060709e+00 6.654874e+00
      vertex -5.332399e+01 -8.280522e+00 3.639072e+00
      vertex -5.213757e+01 -8.456816e+00 3.468873e+00
    endloop
  endfacet
  facet normal -1.544342e-01 -9.878218e-01 -1.892513e-02
    outer loop
      vertex -4.871680e+01 -9.060709e+00 6.654874e+00
      vertex -5.213757e+01 -8.456816e+00 3.468873e+00
      vertex -4.754652e+01 -9.218272e+00 6.546283e+00
    endloop
  endfacet
  facet normal -1.526025e-01 -9.880578e-01 -2.131385e-02
    outer loop
      vertex -4.754652e+01 -9.218272e+00 6.546283e+00
      vertex -5.213757e+01 -8.456816e+00 3.468873e+00
      vertex -5.155877e+01 -8.542823e+00 3.385840e+00
    endloop
  endfacet
  facet normal -1.480873e-01 -9.886014e-01 -2.715607e-02
    outer loop
      vertex -4.754652e+01 -9.218272e+00 6.546283e+00
      vertex -5.155877e+01 -8.542823e+00 3.385840e+00
      vertex -4.933465e+01 -8.873314e+00 3.066774e+00
    endloop
  endfacet
  facet normal -1.570842e-01 3.673609e-01 9.167172e-01
    outer loop
      vertex -5.749899e+01 -7.237028e+00 4.419187e+00
      vertex -5.868332e+01 -7.437828e+00 4.296713e+00
      vertex -4.871680e+01 -9.060709e+00 6.654874e+00
    endloop
  endfacet
  facet normal 6.089891e-02 5.898955e-01 8.051798e-01
    outer loop
      vertex 4.342740e+01 -6.087484e+00 5.047600e+00
      vertex 4.076193e+01 -8.466180e+00 7.049420e+00
      vertex 5.336493e+01 -6.655277e+00 4.759251e+00
    endloop
  endfacet
  facet normal 5.911078e-02 5.884591e-01 8.063635e-01
    outer loop
      vertex 5.336493e+01 -6.655277e+00 4.759251e+00
      vertex 4.076193e+01 -8.466180e+00 7.049420e+00
      vertex 5.128320e+01 -9.056565e+00 6.641541e+00
    endloop
  endfacet
  facet normal 5.574825e-02 5.857548e-01 8.085688e-01
    outer loop
      vertex 5.336493e+01 -6.655277e+00 4.759251e+00
      vertex 5.128320e+01 -9.056565e+00 6.641541e+00
      vertex 5.580282e+01 -8.629616e+00 6.020631e+00
    endloop
  endfacet
  facet normal 6.359510e-02 5.920513e-01 8.033872e-01
    outer loop
      vertex 4.342740e+01 -6.087484e+00 5.047600e+00
      vertex 4.034388e+01 -5.869862e+00 5.136477e+00
      vertex 4.076193e+01 -8.466180e+00 7.049420e+00
    endloop
  endfacet
  facet normal 6.516836e-02 5.933007e-01 8.023387e-01
    outer loop
      vertex 4.076193e+01 -8.466180e+00 7.049420e+00
      vertex 4.034388e+01 -5.869862e+00 5.136477e+00
      vertex 3.730391e+01 -5.655314e+00 5.224098e+00
    endloop
  endfacet
  facet normal 6.650810e-02 5.943626e-01 8.014424e-01
    outer loop
      vertex 4.076193e+01 -8.466180e+00 7.049420e+00
      vertex 3.730391e+01 -5.655314e+00 5.224098e+00
      vertex 3.366161e+01 -8.067757e+00 7.324679e+00
    endloop
  endfacet
  facet normal 6.706777e-02 5.948052e-01 8.010672e-01
    outer loop
      vertex 3.366161e+01 -8.067757e+00 7.324679e+00
      vertex 3.730391e+01 -5.655314e+00 5.224098e+00
      vertex 3.292301e+01 -5.346128e+00 5.350369e+00
    endloop
  endfacet
  facet normal 6.597113e-02 5.939436e-01 8.017972e-01
    outer loop
      vertex 2.124798e+01 -4.403028e+00 5.628863e+00
      vertex 2.473157e+01 -7.578373e+00 7.662814e+00
      vertex 3.292301e+01 -5.346128e+00 5.350369e+00
    endloop
  endfacet
  facet normal 6.671310e-02 5.945297e-01 8.013012e-01
    outer loop
      vertex 3.292301e+01 -5.346128e+00 5.350369e+00
      vertex 2.473157e+01 -7.578373e+00 7.662814e+00
      vertex 3.052147e+01 -7.891553e+00 7.446414e+00
    endloop
  endfacet
  facet normal 6.764024e-02 5.952602e-01 8.006811e-01
    outer loop
      vertex 3.292301e+01 -5.346128e+00 5.350369e+00
      vertex 3.052147e+01 -7.891553e+00 7.446414e+00
      vertex 3.366161e+01 -8.067757e+00 7.324679e+00
    endloop
  endfacet
  facet normal -1.368124e-01 3.925340e-01 9.095051e-01
    outer loop
      vertex -4.754627e+01 -8.904310e+00 6.762285e+00
      vertex -4.132892e+01 -8.073580e+00 7.332806e+00
      vertex -4.832788e+01 -5.592018e+00 5.271083e+00
    endloop
  endfacet
  facet normal -1.245315e-01 4.073480e-01 9.047428e-01
    outer loop
      vertex -4.832788e+01 -5.592018e+00 5.271083e+00
      vertex -4.132892e+01 -8.073580e+00 7.332806e+00
      vertex -4.393554e+01 -4.823710e+00 5.520724e+00
    endloop
  endfacet
  facet normal -1.436082e-01 3.842438e-01 9.119942e-01
    outer loop
      vertex -4.832788e+01 -5.592018e+00 5.271083e+00
      vertex -4.982568e+01 -5.870758e+00 5.142754e+00
      vertex -4.754627e+01 -8.904310e+00 6.762285e+00
    endloop
  endfacet
  facet normal -1.488076e-01 3.777924e-01 9.138540e-01
    outer loop
      vertex -4.754627e+01 -8.904310e+00 6.762285e+00
      vertex -4.982568e+01 -5.870758e+00 5.142754e+00
      vertex -5.156513e+01 -6.194467e+00 4.993721e+00
    endloop
  endfacet
  facet normal -1.534240e-01 3.719968e-01 9.154668e-01
    outer loop
      vertex -4.754627e+01 -8.904310e+00 6.762285e+00
      vertex -5.156513e+01 -6.194467e+00 4.993721e+00
      vertex -4.871680e+01 -9.060709e+00 6.654874e+00
    endloop
  endfacet
  facet normal -1.552544e-01 3.696810e-01 9.160960e-01
    outer loop
      vertex -4.871680e+01 -9.060709e+00 6.654874e+00
      vertex -5.156513e+01 -6.194467e+00 4.993721e+00
      vertex -5.376976e+01 -6.604747e+00 4.804832e+00
    endloop
  endfacet
  facet normal -1.570842e-01 3.673609e-01 9.167172e-01
    outer loop
      vertex -4.871680e+01 -9.060709e+00 6.654874e+00
      vertex -5.376976e+01 -6.604747e+00 4.804832e+00
      vertex -5.749899e+01 -7.237028e+00 4.419187e+00
    endloop
  endfacet
  facet normal -1.008867e-01 4.347148e-01 8.948995e-01
    outer loop
      vertex -3.761391e+01 -3.825793e+00 5.755003e+00
      vertex -4.135478e+01 -4.404176e+00 5.630438e+00
      vertex -3.959999e+01 -7.843442e+00 7.490857e+00
    endloop
  endfacet
  facet normal -9.325568e-02 4.432276e-01 8.915451e-01
    outer loop
      vertex -3.761391e+01 -3.825793e+00 5.755003e+00
      vertex -3.959999e+01 -7.843442e+00 7.490857e+00
      vertex -3.638121e+01 -3.668850e+00 5.775202e+00
    endloop
  endfacet
  facet normal -1.174896e-01 4.156846e-01 9.018884e-01
    outer loop
      vertex -4.132892e+01 -8.073580e+00 7.332806e+00
      vertex -3.962031e+01 -7.845285e+00 7.489592e+00
      vertex -4.393554e+01 -4.823710e+00 5.520724e+00
    endloop
  endfacet
  facet normal -1.148209e-01 4.188067e-01 9.007869e-01
    outer loop
      vertex -4.393554e+01 -4.823710e+00 5.520724e+00
      vertex -3.962031e+01 -7.845285e+00 7.489592e+00
      vertex -3.959999e+01 -7.843442e+00 7.490857e+00
    endloop
  endfacet
  facet normal -1.131887e-01 4.207004e-01 9.001108e-01
    outer loop
      vertex -4.393554e+01 -4.823710e+00 5.520724e+00
      vertex -3.959999e+01 -7.843442e+00 7.490857e+00
      vertex -4.292531e+01 -4.646999e+00 5.578142e+00
    endloop
  endfacet
  facet normal -1.091259e-01 4.253822e-01 8.984106e-01
    outer loop
      vertex -4.292531e+01 -4.646999e+00 5.578142e+00
      vertex -3.959999e+01 -7.843442e+00 7.490857e+00
      vertex -4.135478e+01 -4.404176e+00 5.630438e+00
    endloop
  endfacet
  facet normal -9.453455e-02 4.418115e-01 8.921132e-01
    outer loop
      vertex -3.959999e+01 -7.843442e+00 7.490857e+00
      vertex -3.377534e+01 -7.315252e+00 7.853304e+00
      vertex -3.638121e+01 -3.668850e+00 5.775202e+00
    endloop
  endfacet
  facet normal -8.280250e-02 4.548391e-01 8.867159e-01
    outer loop
      vertex -3.638121e+01 -3.668850e+00 5.775202e+00
      vertex -3.377534e+01 -7.315252e+00 7.853304e+00
      vertex -3.161102e+01 -7.118987e+00 7.987981e+00
    endloop
  endfacet
  facet normal -7.384859e-02 4.644728e-01 8.825029e-01
    outer loop
      vertex -3.638121e+01 -3.668850e+00 5.775202e+00
      vertex -3.161102e+01 -7.118987e+00 7.987981e+00
      vertex -3.239008e+01 -3.160717e+00 5.840600e+00
    endloop
  endfacet
  facet normal -7.275256e-02 4.656473e-01 8.819748e-01
    outer loop
      vertex -3.239008e+01 -3.160717e+00 5.840600e+00
      vertex -3.161102e+01 -7.118987e+00 7.987981e+00
      vertex -3.083712e+01 -7.048809e+00 8.036137e+00
    endloop
  endfacet
  facet normal -6.284355e-02 4.760766e-01 8.771555e-01
    outer loop
      vertex -3.239008e+01 -3.160717e+00 5.840600e+00
      vertex -3.083712e+01 -7.048809e+00 8.036137e+00
      vertex -2.942824e+01 -2.873949e+00 5.859435e+00
    endloop
  endfacet
  facet normal -6.068772e-02 4.783177e-01 8.760875e-01
    outer loop
      vertex -2.942824e+01 -2.873949e+00 5.859435e+00
      vertex -3.083712e+01 -7.048809e+00 8.036137e+00
      vertex -2.576132e+01 -6.779663e+00 8.220485e+00
    endloop
  endfacet
  facet normal -5.092866e-02 4.884147e-01 8.711241e-01
    outer loop
      vertex -2.942824e+01 -2.873949e+00 5.859435e+00
      vertex -2.576132e+01 -6.779663e+00 8.220485e+00
      vertex -2.874312e+01 -2.807616e+00 5.863792e+00
    endloop
  endfacet
  facet normal -4.999767e-02 4.893610e-01 8.706469e-01
    outer loop
      vertex -2.874312e+01 -2.807616e+00 5.863792e+00
      vertex -2.576132e+01 -6.779663e+00 8.220485e+00
      vertex -2.359356e+01 -6.664716e+00 8.299216e+00
    endloop
  endfacet
  facet normal -4.585506e-02 4.935620e-01 8.685009e-01
    outer loop
      vertex -2.874312e+01 -2.807616e+00 5.863792e+00
      vertex -2.359356e+01 -6.664716e+00 8.299216e+00
      vertex -2.778280e+01 -2.714636e+00 5.869899e+00
    endloop
  endfacet
  facet normal -3.972865e-02 4.996748e-01 8.653015e-01
    outer loop
      vertex -2.778280e+01 -2.714636e+00 5.869899e+00
      vertex -2.359356e+01 -6.664716e+00 8.299216e+00
      vertex -2.395456e+01 -2.452702e+00 5.876617e+00
    endloop
  endfacet
  facet normal -3.822943e-02 5.011677e-01 8.645054e-01
    outer loop
      vertex -2.395456e+01 -2.452702e+00 5.876617e+00
      vertex -2.359356e+01 -6.664716e+00 8.299216e+00
      vertex -2.140209e+01 -6.548513e+00 8.378809e+00
    endloop
  endfacet
  facet normal -2.848897e-02 5.107301e-01 8.592690e-01
    outer loop
      vertex -2.395456e+01 -2.452702e+00 5.876617e+00
      vertex -2.140209e+01 -6.548513e+00 8.378809e+00
      vertex -2.088787e+01 -2.330387e+00 5.876563e+00
    endloop
  endfacet
  facet normal -4.612852e-03 5.333631e-01 8.458738e-01
    outer loop
      vertex -1.111546e+01 -6.355405e+00 8.509999e+00
      vertex -1.277161e+01 -2.251888e+00 5.875440e+00
      vertex -1.555513e+01 -6.438750e+00 8.453378e+00
    endloop
  endfacet
  facet normal -2.881481e-03 5.349578e-01 8.448739e-01
    outer loop
      vertex -1.555513e+01 -6.438750e+00 8.453378e+00
      vertex -1.277161e+01 -2.251888e+00 5.875440e+00
      vertex -1.474225e+01 -2.221278e+00 5.875440e+00
    endloop
  endfacet
  facet normal -2.676208e-02 5.124041e-01 8.583273e-01
    outer loop
      vertex -2.140209e+01 -6.548513e+00 8.378809e+00
      vertex -1.717259e+01 -6.469114e+00 8.432750e+00
      vertex -2.088787e+01 -2.330387e+00 5.876563e+00
    endloop
  endfacet
  facet normal -1.979679e-02 5.191326e-01 8.544644e-01
    outer loop
      vertex -2.088787e+01 -2.330387e+00 5.876563e+00
      vertex -1.717259e+01 -6.469114e+00 8.432750e+00
      vertex -1.555513e+01 -6.438750e+00 8.453378e+00
    endloop
  endfacet
  facet normal -1.619285e-02 5.225612e-01 8.524480e-01
    outer loop
      vertex -2.088787e+01 -2.330387e+00 5.876563e+00
      vertex -1.555513e+01 -6.438750e+00 8.453378e+00
      vertex -1.936833e+01 -2.269780e+00 5.876537e+00
    endloop
  endfacet
  facet normal -9.627034e-03 5.287158e-01 8.487444e-01
    outer loop
      vertex -1.936833e+01 -2.269780e+00 5.876537e+00
      vertex -1.555513e+01 -6.438750e+00 8.453378e+00
      vertex -1.474225e+01 -2.221278e+00 5.875440e+00
    endloop
  endfacet
  facet normal 2.097092e-02 5.564027e-01 8.306481e-01
    outer loop
      vertex -4.442680e+00 -2.516875e+00 5.872380e+00
      vertex -5.274034e+00 -2.471803e+00 5.873845e+00
      vertex -7.501696e+00 -6.396903e+00 8.480864e+00
    endloop
  endfacet
  facet normal 3.510909e-03 5.408453e-01 8.411148e-01
    outer loop
      vertex -1.111546e+01 -6.355405e+00 8.509999e+00
      vertex -7.834467e+00 -6.393082e+00 8.483547e+00
      vertex -1.277161e+01 -2.251888e+00 5.875440e+00
    endloop
  endfacet
  facet normal 7.139032e-03 5.441402e-01 8.389639e-01
    outer loop
      vertex -1.277161e+01 -2.251888e+00 5.875440e+00
      vertex -7.834467e+00 -6.393082e+00 8.483547e+00
      vertex -7.501696e+00 -6.396903e+00 8.480864e+00
    endloop
  endfacet
  facet normal 9.966793e-03 5.466793e-01 8.372827e-01
    outer loop
      vertex -1.277161e+01 -2.251888e+00 5.875440e+00
      vertex -7.501696e+00 -6.396903e+00 8.480864e+00
      vertex -1.005175e+01 -2.294138e+00 5.875440e+00
    endloop
  endfacet
  facet normal 1.639696e-02 5.523875e-01 8.334262e-01
    outer loop
      vertex -1.005175e+01 -2.294138e+00 5.875440e+00
      vertex -7.501696e+00 -6.396903e+00 8.480864e+00
      vertex -5.274034e+00 -2.471803e+00 5.873845e+00
    endloop
  endfacet
  facet normal 2.142222e-02 5.567956e-01 8.303732e-01
    outer loop
      vertex -7.501696e+00 -6.396903e+00 8.480864e+00
      vertex 3.341606e-01 -6.486888e+00 8.417688e+00
      vertex -4.442680e+00 -2.516875e+00 5.872380e+00
    endloop
  endfacet
  facet normal 2.848127e-02 5.629611e-01 8.259925e-01
    outer loop
      vertex -4.442680e+00 -2.516875e+00 5.872380e+00
      vertex 3.341606e-01 -6.486888e+00 8.417688e+00
      vertex 5.623706e-01 -6.495182e+00 8.411945e+00
    endloop
  endfacet
  facet normal 3.153365e-02 5.655748e-01 8.240939e-01
    outer loop
      vertex -4.442680e+00 -2.516875e+00 5.872380e+00
      vertex 5.623706e-01 -6.495182e+00 8.411945e+00
      vertex -3.886710e-01 -2.736666e+00 5.865239e+00
    endloop
  endfacet
  facet normal 3.302366e-02 5.668490e-01 8.231596e-01
    outer loop
      vertex -3.886710e-01 -2.736666e+00 5.865239e+00
      vertex 5.623706e-01 -6.495182e+00 8.411945e+00
      vertex 2.525372e+00 -6.566528e+00 8.362542e+00
    endloop
  endfacet
  facet normal 4.899495e-02 5.802218e-01 8.129835e-01
    outer loop
      vertex 1.045374e+01 -3.515103e+00 5.794929e+00
      vertex 4.622380e+00 -3.071770e+00 5.843284e+00
      vertex 8.625851e+00 -6.788254e+00 8.209011e+00
    endloop
  endfacet
  facet normal 4.575551e-02 5.775533e-01 8.150699e-01
    outer loop
      vertex 8.625851e+00 -6.788254e+00 8.209011e+00
      vertex 4.622380e+00 -3.071770e+00 5.843284e+00
      vertex 3.999702e+00 -3.030130e+00 5.846012e+00
    endloop
  endfacet
  facet normal 4.131575e-02 5.738445e-01 8.179216e-01
    outer loop
      vertex 8.625851e+00 -6.788254e+00 8.209011e+00
      vertex 3.999702e+00 -3.030130e+00 5.846012e+00
      vertex 2.525372e+00 -6.566528e+00 8.362542e+00
    endloop
  endfacet
  facet normal 3.990893e-02 5.726684e-01 8.188152e-01
    outer loop
      vertex 2.525372e+00 -6.566528e+00 8.362542e+00
      vertex 3.999702e+00 -3.030130e+00 5.846012e+00
      vertex 1.646017e+00 -2.872732e+00 5.856325e+00
    endloop
  endfacet
  facet normal 3.719983e-02 5.703931e-01 8.205289e-01
    outer loop
      vertex 2.525372e+00 -6.566528e+00 8.362542e+00
      vertex 1.646017e+00 -2.872732e+00 5.856325e+00
      vertex -3.886710e-01 -2.736666e+00 5.865239e+00
    endloop
  endfacet
  facet normal 6.518871e-02 5.933272e-01 8.023174e-01
    outer loop
      vertex 2.124798e+01 -4.403028e+00 5.628863e+00
      vertex 2.097767e+01 -4.381193e+00 5.635310e+00
      vertex 2.473157e+01 -7.578373e+00 7.662814e+00
    endloop
  endfacet
  facet normal 6.510697e-02 5.932621e-01 8.023722e-01
    outer loop
      vertex 2.473157e+01 -7.578373e+00 7.662814e+00
      vertex 2.097767e+01 -4.381193e+00 5.635310e+00
      vertex 2.084047e+01 -4.369902e+00 5.637391e+00
    endloop
  endfacet
  facet normal 6.141562e-02 5.903070e-01 8.048390e-01
    outer loop
      vertex 2.473157e+01 -7.578373e+00 7.662814e+00
      vertex 2.084047e+01 -4.369902e+00 5.637391e+00
      vertex 1.403799e+01 -6.999950e+00 8.062491e+00
    endloop
  endfacet
  facet normal 5.809555e-02 5.876367e-01 8.070365e-01
    outer loop
      vertex 1.403799e+01 -6.999950e+00 8.062491e+00
      vertex 2.084047e+01 -4.369902e+00 5.637391e+00
      vertex 1.045374e+01 -3.515103e+00 5.794929e+00
    endloop
  endfacet
  facet normal 5.402377e-02 5.843425e-01 8.097069e-01
    outer loop
      vertex 1.403799e+01 -6.999950e+00 8.062491e+00
      vertex 1.045374e+01 -3.515103e+00 5.794929e+00
      vertex 1.319326e+01 -6.954259e+00 8.094062e+00
    endloop
  endfacet
  facet normal 5.113266e-02 5.819770e-01 8.115960e-01
    outer loop
      vertex 1.319326e+01 -6.954259e+00 8.094062e+00
      vertex 1.045374e+01 -3.515103e+00 5.794929e+00
      vertex 8.625851e+00 -6.788254e+00 8.209011e+00
    endloop
  endfacet
  facet normal 5.574825e-02 5.857548e-01 8.085688e-01
    outer loop
      vertex 6.847466e+01 -7.432559e+00 4.279758e+00
      vertex 6.457158e+01 -7.232625e+00 4.404025e+00
      vertex 5.580282e+01 -8.629616e+00 6.020631e+00
    endloop
  endfacet
  facet normal 5.574825e-02 5.857548e-01 8.085688e-01
    outer loop
      vertex 5.580282e+01 -8.629616e+00 6.020631e+00
      vertex 6.457158e+01 -7.232625e+00 4.404025e+00
      vertex 5.392134e+01 -6.687069e+00 4.743106e+00
    endloop
  endfacet
  facet normal 5.574825e-02 5.857548e-01 8.085688e-01
    outer loop
      vertex 5.580282e+01 -8.629616e+00 6.020631e+00
      vertex 5.392134e+01 -6.687069e+00 4.743106e+00
      vertex 5.336493e+01 -6.655277e+00 4.759251e+00
    endloop
  endfacet
  facet normal -1.710516e-01 -9.084434e-01 -3.814078e-01
    outer loop
      vertex -2.889217e+01 -1.867365e+01 2.062602e+01
      vertex -4.871680e+01 -9.060709e+00 6.654874e+00
      vertex -2.357064e+01 -2.113460e+01 2.411840e+01
    endloop
  endfacet
  facet normal -1.740095e-01 -9.091731e-01 -3.783186e-01
    outer loop
      vertex -2.357064e+01 -2.113460e+01 2.411840e+01
      vertex -4.871680e+01 -9.060709e+00 6.654874e+00
      vertex -4.754652e+01 -9.218272e+00 6.546283e+00
    endloop
  endfacet
  facet normal -1.595466e-01 -9.054546e-01 -3.933150e-01
    outer loop
      vertex -2.357064e+01 -2.113460e+01 2.411840e+01
      vertex -4.754652e+01 -9.218272e+00 6.546283e+00
      vertex -4.116429e+01 -1.007756e+01 5.954073e+00
    endloop
  endfacet
  facet normal -1.379728e-01 -8.992000e-01 -4.152142e-01
    outer loop
      vertex -4.005920e+01 -1.022635e+01 5.851531e+00
      vertex 2.584695e+00 -3.362832e+01 4.236064e+01
      vertex -4.116429e+01 -1.007756e+01 5.954073e+00
    endloop
  endfacet
  facet normal -1.403272e-01 -8.999226e-01 -4.128530e-01
    outer loop
      vertex -4.116429e+01 -1.007756e+01 5.954073e+00
      vertex 2.584695e+00 -3.362832e+01 4.236064e+01
      vertex 1.558298e+00 -3.314458e+01 4.165760e+01
    endloop
  endfacet
  facet normal -1.476367e-01 -9.021048e-01 -4.054755e-01
    outer loop
      vertex -4.116429e+01 -1.007756e+01 5.954073e+00
      vertex 1.558298e+00 -3.314458e+01 4.165760e+01
      vertex -2.357064e+01 -2.113460e+01 2.411840e+01
    endloop
  endfacet
  facet normal -1.521134e-01 -9.033929e-01 -4.009274e-01
    outer loop
      vertex -2.357064e+01 -2.113460e+01 2.411840e+01
      vertex 1.558298e+00 -3.314458e+01 4.165760e+01
      vertex -1.213143e+01 -2.669268e+01 3.228063e+01
    endloop
  endfacet
  facet normal -1.610369e-01 -9.058532e-01 -3.917871e-01
    outer loop
      vertex -2.357064e+01 -2.113460e+01 2.411840e+01
      vertex -1.213143e+01 -2.669268e+01 3.228063e+01
      vertex -2.889217e+01 -1.867365e+01 2.062602e+01
    endloop
  endfacet
  facet normal -1.218321e-01 -8.939862e-01 -4.312142e-01
    outer loop
      vertex 1.624788e+01 -3.996727e+01 5.157344e+01
      vertex 3.429310e+00 -3.402638e+01 4.293918e+01
      vertex -3.353473e+01 -1.083058e+01 5.434779e+00
    endloop
  endfacet
  facet normal -1.262648e-01 -8.954657e-01 -4.268470e-01
    outer loop
      vertex -3.353473e+01 -1.083058e+01 5.434779e+00
      vertex 3.429310e+00 -3.402638e+01 4.293918e+01
      vertex 2.584695e+00 -3.362832e+01 4.236064e+01
    endloop
  endfacet
  facet normal -1.236326e-01 -8.945912e-01 -4.294434e-01
    outer loop
      vertex -3.353473e+01 -1.083058e+01 5.434779e+00
      vertex 2.584695e+00 -3.362832e+01 4.236064e+01
      vertex -3.959910e+01 -1.026896e+01 5.822142e+00
    endloop
  endfacet
  facet normal -1.350953e-01 -8.983036e-01 -4.180909e-01
    outer loop
      vertex -3.959910e+01 -1.026896e+01 5.822142e+00
      vertex 2.584695e+00 -3.362832e+01 4.236064e+01
      vertex -4.005920e+01 -1.022635e+01 5.851531e+00
    endloop
  endfacet
  facet normal -1.136778e-01 -8.911749e-01 -4.391862e-01
    outer loop
      vertex 1.624788e+01 -3.996727e+01 5.157344e+01
      vertex -3.353473e+01 -1.083058e+01 5.434779e+00
      vertex 2.771609e+01 -4.518624e+01 5.915848e+01
    endloop
  endfacet
  facet normal -1.073078e-01 -8.888990e-01 -4.453578e-01
    outer loop
      vertex 2.771609e+01 -4.518624e+01 5.915848e+01
      vertex -3.353473e+01 -1.083058e+01 5.434779e+00
      vertex 3.407389e+01 -4.801189e+01 6.325409e+01
    endloop
  endfacet
  facet normal -1.086936e-01 -8.893996e-01 -4.440203e-01
    outer loop
      vertex 2.771609e+01 -4.518624e+01 5.915848e+01
      vertex 3.407389e+01 -4.801189e+01 6.325409e+01
      vertex 3.795414e+01 -4.974984e+01 6.579101e+01
    endloop
  endfacet
  facet normal -1.039471e-01 -8.876702e-01 -4.485940e-01
    outer loop
      vertex 3.795414e+01 -4.974984e+01 6.579101e+01
      vertex 3.407389e+01 -4.801189e+01 6.325409e+01
      vertex 4.043103e+01 -5.082809e+01 6.735810e+01
    endloop
  endfacet
  facet normal -1.025598e-01 -8.871576e-01 -4.499255e-01
    outer loop
      vertex 4.043103e+01 -5.082809e+01 6.735810e+01
      vertex 3.407389e+01 -4.801189e+01 6.325409e+01
      vertex -3.353473e+01 -1.083058e+01 5.434779e+00
    endloop
  endfacet
  facet normal -9.979435e-02 -8.861254e-01 -4.525734e-01
    outer loop
      vertex 4.043103e+01 -5.082809e+01 6.735810e+01
      vertex -3.353473e+01 -1.083058e+01 5.434779e+00
      vertex 4.147227e+01 -5.128138e+01 6.801688e+01
    endloop
  endfacet
  facet normal -9.616791e-02 -8.847526e-01 -4.560312e-01
    outer loop
      vertex 4.147227e+01 -5.128138e+01 6.801688e+01
      vertex -3.353473e+01 -1.083058e+01 5.434779e+00
      vertex -3.161232e+01 -1.100861e+01 5.311984e+00
    endloop
  endfacet
  facet normal -9.242642e-02 -8.833125e-01 -4.595829e-01
    outer loop
      vertex 4.147227e+01 -5.128138e+01 6.801688e+01
      vertex -3.161232e+01 -1.100861e+01 5.311984e+00
      vertex -3.129545e+01 -1.103795e+01 5.291744e+00
    endloop
  endfacet
  facet normal -8.278953e-02 -8.794963e-01 -4.686492e-01
    outer loop
      vertex -3.129545e+01 -1.103795e+01 5.291744e+00
      vertex -2.548565e+01 -1.135686e+01 5.071402e+00
      vertex 4.147227e+01 -5.128138e+01 6.801688e+01
    endloop
  endfacet
  facet normal -7.365888e-02 -8.757331e-01 -4.771435e-01
    outer loop
      vertex 4.147227e+01 -5.128138e+01 6.801688e+01
      vertex -2.548565e+01 -1.135686e+01 5.071402e+00
      vertex 5.975713e+01 -5.741583e+01 7.636452e+01
    endloop
  endfacet
  facet normal -8.435193e-02 -8.801266e-01 -4.671851e-01
    outer loop
      vertex 4.147227e+01 -5.128138e+01 6.801688e+01
      vertex 5.975713e+01 -5.741583e+01 7.636452e+01
      vertex 4.707239e+01 -5.371927e+01 7.156000e+01
    endloop
  endfacet
  facet normal -7.878885e-02 -8.778631e-01 -4.723860e-01
    outer loop
      vertex 4.707239e+01 -5.371927e+01 7.156000e+01
      vertex 5.975713e+01 -5.741583e+01 7.636452e+01
      vertex 5.517235e+01 -5.715098e+01 7.654747e+01
    endloop
  endfacet
  facet normal -2.744141e-02 -8.545280e-01 -5.186799e-01
    outer loop
      vertex 6.813010e+01 -5.770195e+01 7.616631e+01
      vertex 6.627516e+01 -5.767245e+01 7.618691e+01
      vertex -1.693432e+01 -1.165509e+01 4.864844e+00
    endloop
  endfacet
  facet normal -3.812363e-02 -8.597472e-01 -5.092949e-01
    outer loop
      vertex -1.693432e+01 -1.165509e+01 4.864844e+00
      vertex 6.627516e+01 -5.767245e+01 7.618691e+01
      vertex 6.058014e+01 -5.746337e+01 7.633167e+01
    endloop
  endfacet
  facet normal -4.243876e-02 -8.618005e-01 -5.054689e-01
    outer loop
      vertex -1.693432e+01 -1.165509e+01 4.864844e+00
      vertex 6.058014e+01 -5.746337e+01 7.633167e+01
      vertex -2.196350e+01 -1.155020e+01 4.937822e+00
    endloop
  endfacet
  facet normal -5.436301e-02 -8.673117e-01 -4.947879e-01
    outer loop
      vertex -2.196350e+01 -1.155020e+01 4.937822e+00
      vertex 6.058014e+01 -5.746337e+01 7.633167e+01
      vertex 5.975713e+01 -5.741583e+01 7.636452e+01
    endloop
  endfacet
  facet normal -5.282482e-02 -8.666137e-01 -4.961755e-01
    outer loop
      vertex -2.196350e+01 -1.155020e+01 4.937822e+00
      vertex 5.975713e+01 -5.741583e+01 7.636452e+01
      vertex -2.359432e+01 -1.146068e+01 4.999672e+00
    endloop
  endfacet
  facet normal -5.796507e-02 -8.689300e-01 -4.915290e-01
    outer loop
      vertex -2.359432e+01 -1.146068e+01 4.999672e+00
      vertex 5.975713e+01 -5.741583e+01 7.636452e+01
      vertex -2.548565e+01 -1.135686e+01 5.071402e+00
    endloop
  endfacet
  facet normal -2.322182e-02 -8.524153e-01 -5.223495e-01
    outer loop
      vertex -1.693432e+01 -1.165509e+01 4.864844e+00
      vertex -1.555550e+01 -1.168385e+01 4.844836e+00
      vertex 6.813010e+01 -5.770195e+01 7.616631e+01
    endloop
  endfacet
  facet normal -1.711257e-02 -8.493050e-01 -5.276250e-01
    outer loop
      vertex 6.813010e+01 -5.770195e+01 7.616631e+01
      vertex -1.555550e+01 -1.168385e+01 4.844836e+00
      vertex -1.193097e+01 -1.175944e+01 4.792241e+00
    endloop
  endfacet
  facet normal -1.284503e-02 -8.470954e-01 -5.312856e-01
    outer loop
      vertex 6.813010e+01 -5.770195e+01 7.616631e+01
      vertex -1.193097e+01 -1.175944e+01 4.792241e+00
      vertex 7.295836e+01 -5.777872e+01 7.611271e+01
    endloop
  endfacet
  facet normal -2.133187e-03 -8.414155e-01 -5.403845e-01
    outer loop
      vertex 7.295836e+01 -5.777872e+01 7.611271e+01
      vertex -1.193097e+01 -1.175944e+01 4.792241e+00
      vertex -7.751712e+00 -1.172194e+01 4.817362e+00
    endloop
  endfacet
  facet normal 2.469086e-03 -8.389172e-01 -5.442535e-01
    outer loop
      vertex 7.295836e+01 -5.777872e+01 7.611271e+01
      vertex -7.751712e+00 -1.172194e+01 4.817362e+00
      vertex 7.715245e+01 -5.776140e+01 7.612395e+01
    endloop
  endfacet
  facet normal 2.445881e-02 -8.264977e-01 -5.624086e-01
    outer loop
      vertex -9.733125e-01 -1.166113e+01 4.858105e+00
      vertex 5.613772e-01 -1.160939e+01 4.893451e+00
      vertex 8.005750e+01 -5.774940e+01 7.613174e+01
    endloop
  endfacet
  facet normal 2.714883e-02 -8.249241e-01 -5.645911e-01
    outer loop
      vertex 8.005750e+01 -5.774940e+01 7.613174e+01
      vertex 5.613772e-01 -1.160939e+01 4.893451e+00
      vertex 2.266462e+00 -1.155191e+01 4.932722e+00
    endloop
  endfacet
  facet normal 2.853233e-02 -8.241103e-01 -5.657104e-01
    outer loop
      vertex 8.005750e+01 -5.774940e+01 7.613174e+01
      vertex 2.266462e+00 -1.155191e+01 4.932722e+00
      vertex 8.703190e+01 -5.759606e+01 7.623610e+01
    endloop
  endfacet
  facet normal 1.014430e-02 -8.346725e-01 -5.506532e-01
    outer loop
      vertex 7.715245e+01 -5.776140e+01 7.612395e+01
      vertex -7.751712e+00 -1.172194e+01 4.817362e+00
      vertex 8.005750e+01 -5.774940e+01 7.613174e+01
    endloop
  endfacet
  facet normal 1.040631e-02 -8.345259e-01 -5.508704e-01
    outer loop
      vertex 8.005750e+01 -5.774940e+01 7.613174e+01
      vertex -7.751712e+00 -1.172194e+01 4.817362e+00
      vertex -7.501964e+00 -1.171970e+01 4.818863e+00
    endloop
  endfacet
  facet normal 1.690903e-02 -8.308519e-01 -5.562367e-01
    outer loop
      vertex 8.005750e+01 -5.774940e+01 7.613174e+01
      vertex -7.501964e+00 -1.171970e+01 4.818863e+00
      vertex -9.733125e-01 -1.166113e+01 4.858105e+00
    endloop
  endfacet
  facet normal 3.924296e-02 -8.176999e-01 -5.743055e-01
    outer loop
      vertex 2.266462e+00 -1.155191e+01 4.932722e+00
      vertex 8.626080e+00 -1.133751e+01 5.079193e+00
      vertex 8.703190e+01 -5.759606e+01 7.623610e+01
    endloop
  endfacet
  facet normal 4.531743e-02 -8.139810e-01 -5.791211e-01
    outer loop
      vertex 8.703190e+01 -5.759606e+01 7.623610e+01
      vertex 8.626080e+00 -1.133751e+01 5.079193e+00
      vertex 1.129743e+01 -1.124746e+01 5.140718e+00
    endloop
  endfacet
  facet normal 4.134123e-02 -8.164226e-01 -5.759732e-01
    outer loop
      vertex 8.703190e+01 -5.759606e+01 7.623610e+01
      vertex 1.129743e+01 -1.124746e+01 5.140718e+00
      vertex 8.768524e+01 -5.758169e+01 7.624588e+01
    endloop
  endfacet
  facet normal 4.856662e-02 -8.119669e-01 -5.816795e-01
    outer loop
      vertex 8.768524e+01 -5.758169e+01 7.624588e+01
      vertex 1.129743e+01 -1.124746e+01 5.140718e+00
      vertex 1.346949e+01 -1.113186e+01 5.219895e+00
    endloop
  endfacet
  facet normal 4.860215e-02 -8.119448e-01 -5.817074e-01
    outer loop
      vertex 8.768524e+01 -5.758169e+01 7.624588e+01
      vertex 1.346949e+01 -1.113186e+01 5.219895e+00
      vertex 9.602969e+01 -5.727031e+01 7.645876e+01
    endloop
  endfacet
  facet normal 5.530689e-02 -8.077311e-01 -5.869511e-01
    outer loop
      vertex 9.602969e+01 -5.727031e+01 7.645876e+01
      vertex 1.346949e+01 -1.113186e+01 5.219895e+00
      vertex 9.812587e+01 -5.717462e+01 7.652425e+01
    endloop
  endfacet
  facet normal 6.049212e-02 -8.044224e-01 -5.909697e-01
    outer loop
      vertex 9.812587e+01 -5.717462e+01 7.652425e+01
      vertex 1.346949e+01 -1.113186e+01 5.219895e+00
      vertex 2.473099e+01 -1.053253e+01 5.630405e+00
    endloop
  endfacet
  facet normal 6.539259e-02 -8.012543e-01 -5.947398e-01
    outer loop
      vertex 9.812587e+01 -5.717462e+01 7.652425e+01
      vertex 2.473099e+01 -1.053253e+01 5.630405e+00
      vertex 3.033366e+01 -1.023436e+01 5.834636e+00
    endloop
  endfacet
  facet normal 6.944745e-02 -7.986017e-01 -5.978398e-01
    outer loop
      vertex 3.033366e+01 -1.023436e+01 5.834636e+00
      vertex 8.356824e+01 -4.133548e+01 5.355724e+01
      vertex 8.854063e+01 -4.628580e+01 6.075227e+01
    endloop
  endfacet
  facet normal 6.761789e-02 -7.998018e-01 -5.964436e-01
    outer loop
      vertex 8.854063e+01 -4.628580e+01 6.075227e+01
      vertex 9.268430e+01 -5.054611e+01 6.694442e+01
      vertex 3.033366e+01 -1.023436e+01 5.834636e+00
    endloop
  endfacet
  facet normal 6.545361e-02 -8.012142e-01 -5.947870e-01
    outer loop
      vertex 3.033366e+01 -1.023436e+01 5.834636e+00
      vertex 9.268430e+01 -5.054611e+01 6.694442e+01
      vertex 9.601608e+01 -5.412326e+01 7.214362e+01
    endloop
  endfacet
  facet normal 6.281963e-02 -8.029228e-01 -5.927636e-01
    outer loop
      vertex 3.033366e+01 -1.023436e+01 5.834636e+00
      vertex 9.601608e+01 -5.412326e+01 7.214362e+01
      vertex 9.812587e+01 -5.717462e+01 7.652425e+01
    endloop
  endfacet
  facet normal 5.819876e-02 -8.058912e-01 -5.891964e-01
    outer loop
      vertex 9.812587e+01 -5.717462e+01 7.652425e+01
      vertex 9.601608e+01 -5.412326e+01 7.214362e+01
      vertex 9.867760e+01 -5.714269e+01 7.653224e+01
    endloop
  endfacet
  facet normal 5.698306e-02 -8.066663e-01 -5.882537e-01
    outer loop
      vertex 9.812587e+01 -5.717462e+01 7.652425e+01
      vertex 9.867760e+01 -5.714269e+01 7.653224e+01
      vertex 9.868332e+01 -5.714918e+01 7.654167e+01
    endloop
  endfacet
  facet normal 6.313238e-02 -8.027200e-01 -5.930049e-01
    outer loop
      vertex 5.128320e+01 -9.056565e+00 6.641541e+00
      vertex 5.282202e+01 -1.077685e+01 9.141892e+00
      vertex 4.076184e+01 -9.648080e+00 6.236294e+00
    endloop
  endfacet
  facet normal 6.721316e-02 -8.000667e-01 -5.961339e-01
    outer loop
      vertex 4.076184e+01 -9.648080e+00 6.236294e+00
      vertex 5.282202e+01 -1.077685e+01 9.141892e+00
      vertex 3.083524e+01 -1.020616e+01 5.853955e+00
    endloop
  endfacet
  facet normal 6.545658e-02 -8.012121e-01 -5.947896e-01
    outer loop
      vertex 5.282202e+01 -1.077685e+01 9.141892e+00
      vertex 5.578077e+01 -1.395606e+01 1.376273e+01
      vertex 3.083524e+01 -1.020616e+01 5.853955e+00
    endloop
  endfacet
  facet normal 6.735382e-02 -7.999746e-01 -5.962418e-01
    outer loop
      vertex 3.083524e+01 -1.020616e+01 5.853955e+00
      vertex 5.578077e+01 -1.395606e+01 1.376273e+01
      vertex 5.900677e+01 -1.729257e+01 1.861217e+01
    endloop
  endfacet
  facet normal 6.888862e-02 -7.989691e-01 -5.974134e-01
    outer loop
      vertex 3.083524e+01 -1.020616e+01 5.853955e+00
      vertex 5.900677e+01 -1.729257e+01 1.861217e+01
      vertex 6.248779e+01 -2.079468e+01 2.370231e+01
    endloop
  endfacet
  facet normal 7.006697e-02 -7.981945e-01 -5.983111e-01
    outer loop
      vertex 6.248779e+01 -2.079468e+01 2.370231e+01
      vertex 6.621609e+01 -2.447307e+01 2.904865e+01
      vertex 3.083524e+01 -1.020616e+01 5.853955e+00
    endloop
  endfacet
  facet normal 7.087877e-02 -7.976595e-01 -5.989286e-01
    outer loop
      vertex 3.083524e+01 -1.020616e+01 5.853955e+00
      vertex 6.621609e+01 -2.447307e+01 2.904865e+01
      vertex 7.018750e+01 -2.834189e+01 3.467178e+01
    endloop
  endfacet
  facet normal 7.129569e-02 -7.973843e-01 -5.992456e-01
    outer loop
      vertex 3.083524e+01 -1.020616e+01 5.853955e+00
      vertex 7.018750e+01 -2.834189e+01 3.467178e+01
      vertex 7.390351e+01 -3.193903e+01 3.990002e+01
    endloop
  endfacet
  facet normal 7.140141e-02 -7.973143e-01 -5.993260e-01
    outer loop
      vertex 7.390351e+01 -3.193903e+01 3.990002e+01
      vertex 7.440111e+01 -3.242071e+01 4.060010e+01
      vertex 3.083524e+01 -1.020616e+01 5.853955e+00
    endloop
  endfacet
  facet normal 7.131853e-02 -7.973690e-01 -5.992631e-01
    outer loop
      vertex 3.083524e+01 -1.020616e+01 5.853955e+00
      vertex 7.440111e+01 -3.242071e+01 4.060010e+01
      vertex 7.792248e+01 -3.583053e+01 4.555610e+01
    endloop
  endfacet
  facet normal 7.119681e-02 -7.974494e-01 -5.991707e-01
    outer loop
      vertex 3.083524e+01 -1.020616e+01 5.853955e+00
      vertex 7.792248e+01 -3.583053e+01 4.555610e+01
      vertex 3.033366e+01 -1.023436e+01 5.834636e+00
    endloop
  endfacet
  facet normal 7.115022e-02 -7.974800e-01 -5.991354e-01
    outer loop
      vertex 3.033366e+01 -1.023436e+01 5.834636e+00
      vertex 7.792248e+01 -3.583053e+01 4.555610e+01
      vertex 7.885920e+01 -3.673760e+01 4.687447e+01
    endloop
  endfacet
  facet normal 7.067776e-02 -7.977917e-01 -5.987763e-01
    outer loop
      vertex 3.033366e+01 -1.023436e+01 5.834636e+00
      vertex 7.885920e+01 -3.673760e+01 4.687447e+01
      vertex 8.356824e+01 -4.133548e+01 5.355724e+01
    endloop
  endfacet
  facet normal 6.905457e-02 8.435846e-01 5.325377e-01
    outer loop
      vertex 6.248779e+01 -2.079468e+01 2.370231e+01
      vertex 5.900677e+01 -1.729257e+01 1.861217e+01
      vertex 3.366161e+01 -8.067757e+00 7.324679e+00
    endloop
  endfacet
  facet normal 7.023290e-02 8.441459e-01 5.314932e-01
    outer loop
      vertex 6.248779e+01 -2.079468e+01 2.370231e+01
      vertex 3.366161e+01 -8.067757e+00 7.324679e+00
      vertex 6.621609e+01 -2.447307e+01 2.904865e+01
    endloop
  endfacet
  facet normal 6.751980e-02 8.428501e-01 5.338957e-01
    outer loop
      vertex 5.900677e+01 -1.729257e+01 1.861217e+01
      vertex 5.578077e+01 -1.395606e+01 1.376273e+01
      vertex 3.366161e+01 -8.067757e+00 7.324679e+00
    endloop
  endfacet
  facet normal 6.562259e-02 8.419368e-01 5.355709e-01
    outer loop
      vertex 3.366161e+01 -8.067757e+00 7.324679e+00
      vertex 5.578077e+01 -1.395606e+01 1.376273e+01
      vertex 5.282202e+01 -1.077685e+01 9.141892e+00
    endloop
  endfacet
  facet normal 6.737912e-02 8.427824e-01 5.340204e-01
    outer loop
      vertex 3.366161e+01 -8.067757e+00 7.324679e+00
      vertex 5.282202e+01 -1.077685e+01 9.141892e+00
      vertex 4.076193e+01 -8.466180e+00 7.049420e+00
    endloop
  endfacet
  facet normal 6.321502e-02 8.407691e-01 5.376907e-01
    outer loop
      vertex 4.076193e+01 -8.466180e+00 7.049420e+00
      vertex 5.282202e+01 -1.077685e+01 9.141892e+00
      vertex 5.128320e+01 -9.056565e+00 6.641541e+00
    endloop
  endfacet
  facet normal 7.124701e-02 8.446274e-01 5.305925e-01
    outer loop
      vertex 7.885920e+01 -3.673760e+01 4.687447e+01
      vertex 7.792248e+01 -3.583053e+01 4.555610e+01
      vertex 3.052147e+01 -7.891553e+00 7.446414e+00
    endloop
  endfacet
  facet normal 7.077458e-02 8.444035e-01 5.310119e-01
    outer loop
      vertex 7.885920e+01 -3.673760e+01 4.687447e+01
      vertex 3.052147e+01 -7.891553e+00 7.446414e+00
      vertex 8.356824e+01 -4.133548e+01 5.355724e+01
    endloop
  endfacet
  facet normal 6.555048e-02 8.419018e-01 5.356347e-01
    outer loop
      vertex 9.601608e+01 -5.412326e+01 7.214362e+01
      vertex 9.268430e+01 -5.054611e+01 6.694442e+01
      vertex 3.052147e+01 -7.891553e+00 7.446414e+00
    endloop
  endfacet
  facet normal 6.771474e-02 8.429438e-01 5.337232e-01
    outer loop
      vertex 3.052147e+01 -7.891553e+00 7.446414e+00
      vertex 9.268430e+01 -5.054611e+01 6.694442e+01
      vertex 8.854063e+01 -4.628580e+01 6.075227e+01
    endloop
  endfacet
  facet normal 6.954427e-02 8.438185e-01 5.321033e-01
    outer loop
      vertex 3.052147e+01 -7.891553e+00 7.446414e+00
      vertex 8.854063e+01 -4.628580e+01 6.075227e+01
      vertex 8.356824e+01 -4.133548e+01 5.355724e+01
    endloop
  endfacet
  facet normal 7.137935e-02 8.446900e-01 5.304751e-01
    outer loop
      vertex 7.792248e+01 -3.583053e+01 4.555610e+01
      vertex 7.440111e+01 -3.242071e+01 4.060010e+01
      vertex 3.052147e+01 -7.891553e+00 7.446414e+00
    endloop
  endfacet
  facet normal 7.146224e-02 8.447292e-01 5.304015e-01
    outer loop
      vertex 3.052147e+01 -7.891553e+00 7.446414e+00
      vertex 7.440111e+01 -3.242071e+01 4.060010e+01
      vertex 7.390351e+01 -3.193903e+01 3.990002e+01
    endloop
  endfacet
  facet normal 7.145979e-02 8.447280e-01 5.304037e-01
    outer loop
      vertex 3.052147e+01 -7.891553e+00 7.446414e+00
      vertex 7.390351e+01 -3.193903e+01 3.990002e+01
      vertex 3.366161e+01 -8.067757e+00 7.324679e+00
    endloop
  endfacet
  facet normal 7.146158e-02 8.447288e-01 5.304023e-01
    outer loop
      vertex 3.366161e+01 -8.067757e+00 7.324679e+00
      vertex 7.390351e+01 -3.193903e+01 3.990002e+01
      vertex 7.018750e+01 -2.834189e+01 3.467178e+01
    endloop
  endfacet
  facet normal 7.104467e-02 8.445312e-01 5.307727e-01
    outer loop
      vertex 3.366161e+01 -8.067757e+00 7.324679e+00
      vertex 7.018750e+01 -2.834189e+01 3.467178e+01
      vertex 6.621609e+01 -2.447307e+01 2.904865e+01
    endloop
  endfacet
  facet normal 6.319711e-02 8.407599e-01 5.377071e-01
    outer loop
      vertex 9.601608e+01 -5.412326e+01 7.214362e+01
      vertex 3.052147e+01 -7.891553e+00 7.446414e+00
      vertex 9.867760e+01 -5.714269e+01 7.653224e+01
    endloop
  endfacet
  facet normal 6.576991e-02 8.420075e-01 5.354415e-01
    outer loop
      vertex 9.867760e+01 -5.714269e+01 7.653224e+01
      vertex 3.052147e+01 -7.891553e+00 7.446414e+00
      vertex 2.473157e+01 -7.578373e+00 7.662814e+00
    endloop
  endfacet
  facet normal 6.113656e-02 8.397529e-01 5.395159e-01
    outer loop
      vertex 9.867760e+01 -5.714269e+01 7.653224e+01
      vertex 2.473157e+01 -7.578373e+00 7.662814e+00
      vertex 1.403799e+01 -6.999950e+00 8.062491e+00
    endloop
  endfacet
  facet normal 5.385159e-02 8.361359e-01 5.458724e-01
    outer loop
      vertex 9.868332e+01 -5.714918e+01 7.654167e+01
      vertex 9.867760e+01 -5.714269e+01 7.653224e+01
      vertex 9.256456e+01 -5.688532e+01 7.672419e+01
    endloop
  endfacet
  facet normal 5.385458e-02 8.361374e-01 5.458699e-01
    outer loop
      vertex 9.256456e+01 -5.688532e+01 7.672419e+01
      vertex 9.867760e+01 -5.714269e+01 7.653224e+01
      vertex 1.403799e+01 -6.999950e+00 8.062491e+00
    endloop
  endfacet
  facet normal 4.655463e-02 8.324242e-01 5.521799e-01
    outer loop
      vertex 9.256456e+01 -5.688532e+01 7.672419e+01
      vertex 1.403799e+01 -6.999950e+00 8.062491e+00
      vertex 8.728724e+01 -5.670931e+01 7.684614e+01
    endloop
  endfacet
  facet normal 4.963050e-02 8.339988e-01 5.495296e-01
    outer loop
      vertex 8.728724e+01 -5.670931e+01 7.684614e+01
      vertex 1.403799e+01 -6.999950e+00 8.062491e+00
      vertex 1.319326e+01 -6.954259e+00 8.094062e+00
    endloop
  endfacet
  facet normal 2.017395e-02 8.182731e-01 5.744756e-01
    outer loop
      vertex 8.071039e+01 -5.655967e+01 7.695015e+01
      vertex 2.525372e+00 -6.566528e+00 8.362542e+00
      vertex 7.707042e+01 -5.653207e+01 7.696973e+01
    endloop
  endfacet
  facet normal 2.437356e-02 8.206023e-01 5.709797e-01
    outer loop
      vertex 7.707042e+01 -5.653207e+01 7.696973e+01
      vertex 2.525372e+00 -6.566528e+00 8.362542e+00
      vertex 5.623706e-01 -6.495182e+00 8.411945e+00
    endloop
  endfacet
  facet normal 2.259773e-02 8.196214e-01 5.724598e-01
    outer loop
      vertex 7.707042e+01 -5.653207e+01 7.696973e+01
      vertex 5.623706e-01 -6.495182e+00 8.411945e+00
      vertex 3.341606e-01 -6.486888e+00 8.417688e+00
    endloop
  endfacet
  facet normal 4.661599e-02 8.324559e-01 5.521269e-01
    outer loop
      vertex 1.319326e+01 -6.954259e+00 8.094062e+00
      vertex 8.625851e+00 -6.788254e+00 8.209011e+00
      vertex 8.728724e+01 -5.670931e+01 7.684614e+01
    endloop
  endfacet
  facet normal 3.973171e-02 8.288755e-01 5.580204e-01
    outer loop
      vertex 8.728724e+01 -5.670931e+01 7.684614e+01
      vertex 8.625851e+00 -6.788254e+00 8.209011e+00
      vertex 2.525372e+00 -6.566528e+00 8.362542e+00
    endloop
  endfacet
  facet normal 3.487128e-02 8.263007e-01 5.621486e-01
    outer loop
      vertex 8.728724e+01 -5.670931e+01 7.684614e+01
      vertex 2.525372e+00 -6.566528e+00 8.362542e+00
      vertex 8.657666e+01 -5.668561e+01 7.686256e+01
    endloop
  endfacet
  facet normal 2.908852e-02 8.231846e-01 5.670282e-01
    outer loop
      vertex 8.657666e+01 -5.668561e+01 7.686256e+01
      vertex 2.525372e+00 -6.566528e+00 8.362542e+00
      vertex 8.071039e+01 -5.655967e+01 7.695015e+01
    endloop
  endfacet
  facet normal -2.375384e-02 7.921656e-01 6.098437e-01
    outer loop
      vertex -1.555513e+01 -6.438750e+00 8.453378e+00
      vertex -1.717259e+01 -6.469114e+00 8.432750e+00
      vertex 6.789610e+01 -5.659935e+01 7.692492e+01
    endloop
  endfacet
  facet normal -1.303101e-02 7.988293e-01 6.014165e-01
    outer loop
      vertex 6.931262e+01 -5.656257e+01 7.695000e+01
      vertex -7.834467e+00 -6.393082e+00 8.483547e+00
      vertex 6.789610e+01 -5.659935e+01 7.692492e+01
    endloop
  endfacet
  facet normal -7.521772e-03 8.021813e-01 5.970331e-01
    outer loop
      vertex 6.789610e+01 -5.659935e+01 7.692492e+01
      vertex -7.834467e+00 -6.393082e+00 8.483547e+00
      vertex -1.111546e+01 -6.355405e+00 8.509999e+00
    endloop
  endfacet
  facet normal -1.640390e-02 7.967547e-01 6.040801e-01
    outer loop
      vertex 6.789610e+01 -5.659935e+01 7.692492e+01
      vertex -1.111546e+01 -6.355405e+00 8.509999e+00
      vertex -1.555513e+01 -6.438750e+00 8.453378e+00
    endloop
  endfacet
  facet normal 1.504665e-02 8.153899e-01 5.787166e-01
    outer loop
      vertex 3.341606e-01 -6.486888e+00 8.417688e+00
      vertex -7.501696e+00 -6.396903e+00 8.480864e+00
      vertex 7.707042e+01 -5.653207e+01 7.696973e+01
    endloop
  endfacet
  facet normal 7.338930e-03 8.109756e-01 5.850340e-01
    outer loop
      vertex 7.707042e+01 -5.653207e+01 7.696973e+01
      vertex -7.501696e+00 -6.396903e+00 8.480864e+00
      vertex -7.834467e+00 -6.393082e+00 8.483547e+00
    endloop
  endfacet
  facet normal 4.678779e-03 8.094285e-01 5.871999e-01
    outer loop
      vertex 7.707042e+01 -5.653207e+01 7.696973e+01
      vertex -7.834467e+00 -6.393082e+00 8.483547e+00
      vertex 7.495798e+01 -5.651605e+01 7.698109e+01
    endloop
  endfacet
  facet normal -4.411256e-03 8.040524e-01 5.945421e-01
    outer loop
      vertex 7.495798e+01 -5.651605e+01 7.698109e+01
      vertex -7.834467e+00 -6.393082e+00 8.483547e+00
      vertex 6.931262e+01 -5.656257e+01 7.695000e+01
    endloop
  endfacet
  facet normal -4.354904e-02 7.793531e-01 6.250697e-01
    outer loop
      vertex -2.140209e+01 -6.548513e+00 8.378809e+00
      vertex 5.948759e+01 -5.690153e+01 7.671839e+01
      vertex -1.717259e+01 -6.469114e+00 8.432750e+00
    endloop
  endfacet
  facet normal -4.352423e-02 7.793696e-01 6.250510e-01
    outer loop
      vertex -1.717259e+01 -6.469114e+00 8.432750e+00
      vertex 5.948759e+01 -5.690153e+01 7.671839e+01
      vertex 6.376820e+01 -5.670652e+01 7.685186e+01
    endloop
  endfacet
  facet normal -3.147530e-02 7.872458e-01 6.158355e-01
    outer loop
      vertex -1.717259e+01 -6.469114e+00 8.432750e+00
      vertex 6.376820e+01 -5.670652e+01 7.685186e+01
      vertex 6.789610e+01 -5.659935e+01 7.692492e+01
    endloop
  endfacet
  facet normal -8.278196e-02 7.520319e-01 6.539076e-01
    outer loop
      vertex -3.083712e+01 -7.048809e+00 8.036137e+00
      vertex 4.043103e+01 -5.082809e+01 6.735810e+01
      vertex -2.576132e+01 -6.779663e+00 8.220485e+00
    endloop
  endfacet
  facet normal -8.728223e-02 7.487308e-01 6.571028e-01
    outer loop
      vertex -2.576132e+01 -6.779663e+00 8.220485e+00
      vertex 4.043103e+01 -5.082809e+01 6.735810e+01
      vertex 4.147227e+01 -5.128138e+01 6.801688e+01
    endloop
  endfacet
  facet normal -8.468670e-02 7.506393e-01 6.552625e-01
    outer loop
      vertex -2.576132e+01 -6.779663e+00 8.220485e+00
      vertex 4.147227e+01 -5.128138e+01 6.801688e+01
      vertex 4.707239e+01 -5.371927e+01 7.156000e+01
    endloop
  endfacet
  facet normal -5.237002e-02 7.734384e-01 6.317043e-01
    outer loop
      vertex -2.140209e+01 -6.548513e+00 8.378809e+00
      vertex -2.359356e+01 -6.664716e+00 8.299216e+00
      vertex 5.948759e+01 -5.690153e+01 7.671839e+01
    endloop
  endfacet
  facet normal -5.871480e-02 7.691023e-01 6.364230e-01
    outer loop
      vertex 5.948759e+01 -5.690153e+01 7.671839e+01
      vertex -2.359356e+01 -6.664716e+00 8.299216e+00
      vertex -2.576132e+01 -6.779663e+00 8.220485e+00
    endloop
  endfacet
  facet normal -6.374540e-02 7.656160e-01 6.401317e-01
    outer loop
      vertex 5.948759e+01 -5.690153e+01 7.671839e+01
      vertex -2.576132e+01 -6.779663e+00 8.220485e+00
      vertex 5.831892e+01 -5.695477e+01 7.668195e+01
    endloop
  endfacet
  facet normal -7.403716e-02 7.583472e-01 6.476326e-01
    outer loop
      vertex 5.831892e+01 -5.695477e+01 7.668195e+01
      vertex -2.576132e+01 -6.779663e+00 8.220485e+00
      vertex 4.707239e+01 -5.371927e+01 7.156000e+01
    endloop
  endfacet
  facet normal -8.093787e-02 7.533771e-01 6.525888e-01
    outer loop
      vertex 5.831892e+01 -5.695477e+01 7.668195e+01
      vertex 4.707239e+01 -5.371927e+01 7.156000e+01
      vertex 5.517235e+01 -5.715098e+01 7.654747e+01
    endloop
  endfacet
  facet normal -1.271574e-01 7.179739e-01 6.843570e-01
    outer loop
      vertex 2.584695e+00 -3.362832e+01 4.236064e+01
      vertex -3.377534e+01 -7.315252e+00 7.853304e+00
      vertex 1.558298e+00 -3.314458e+01 4.165760e+01
    endloop
  endfacet
  facet normal -1.242656e-01 7.202983e-01 6.824430e-01
    outer loop
      vertex 1.558298e+00 -3.314458e+01 4.165760e+01
      vertex -3.377534e+01 -7.315252e+00 7.853304e+00
      vertex -3.959999e+01 -7.843442e+00 7.490857e+00
    endloop
  endfacet
  facet normal -1.265918e-01 7.184297e-01 6.839834e-01
    outer loop
      vertex 2.584695e+00 -3.362832e+01 4.236064e+01
      vertex 3.429310e+00 -3.402638e+01 4.293918e+01
      vertex -3.377534e+01 -7.315252e+00 7.853304e+00
    endloop
  endfacet
  facet normal -1.221581e-01 7.219830e-01 6.810419e-01
    outer loop
      vertex -3.377534e+01 -7.315252e+00 7.853304e+00
      vertex 3.429310e+00 -3.402638e+01 4.293918e+01
      vertex 1.624788e+01 -3.996727e+01 5.157344e+01
    endloop
  endfacet
  facet normal -1.140045e-01 7.284276e-01 6.755710e-01
    outer loop
      vertex -3.377534e+01 -7.315252e+00 7.853304e+00
      vertex 1.624788e+01 -3.996727e+01 5.157344e+01
      vertex 2.771609e+01 -4.518624e+01 5.915848e+01
    endloop
  endfacet
  facet normal -9.200690e-02 7.452350e-01 6.604237e-01
    outer loop
      vertex -3.083712e+01 -7.048809e+00 8.036137e+00
      vertex -3.161102e+01 -7.118987e+00 7.987981e+00
      vertex 4.043103e+01 -5.082809e+01 6.735810e+01
    endloop
  endfacet
  facet normal -9.690694e-02 7.415637e-01 6.638466e-01
    outer loop
      vertex 4.043103e+01 -5.082809e+01 6.735810e+01
      vertex -3.161102e+01 -7.118987e+00 7.987981e+00
      vertex -3.377534e+01 -7.315252e+00 7.853304e+00
    endloop
  endfacet
  facet normal -1.015089e-01 7.380785e-01 6.670353e-01
    outer loop
      vertex 4.043103e+01 -5.082809e+01 6.735810e+01
      vertex -3.377534e+01 -7.315252e+00 7.853304e+00
      vertex 3.795414e+01 -4.974984e+01 6.579101e+01
    endloop
  endfacet
  facet normal -1.062598e-01 7.344411e-01 6.703023e-01
    outer loop
      vertex 3.795414e+01 -4.974984e+01 6.579101e+01
      vertex -3.377534e+01 -7.315252e+00 7.853304e+00
      vertex 2.771609e+01 -4.518624e+01 5.915848e+01
    endloop
  endfacet
  facet normal -1.345195e-01 7.120004e-01 6.891733e-01
    outer loop
      vertex -3.959999e+01 -7.843442e+00 7.490857e+00
      vertex -3.962031e+01 -7.845285e+00 7.489592e+00
      vertex 1.558298e+00 -3.314458e+01 4.165760e+01
    endloop
  endfacet
  facet normal -1.377105e-01 7.093786e-01 6.912437e-01
    outer loop
      vertex 1.558298e+00 -3.314458e+01 4.165760e+01
      vertex -3.962031e+01 -7.845285e+00 7.489592e+00
      vertex -4.132892e+01 -8.073580e+00 7.332806e+00
    endloop
  endfacet
  facet normal -1.450386e-01 7.032886e-01 6.959518e-01
    outer loop
      vertex 1.558298e+00 -3.314458e+01 4.165760e+01
      vertex -4.132892e+01 -8.073580e+00 7.332806e+00
      vertex -1.213143e+01 -2.669268e+01 3.228063e+01
    endloop
  endfacet
  facet normal -1.539855e-01 6.957221e-01 7.016119e-01
    outer loop
      vertex -1.213143e+01 -2.669268e+01 3.228063e+01
      vertex -4.132892e+01 -8.073580e+00 7.332806e+00
      vertex -2.889217e+01 -1.867365e+01 2.062602e+01
    endloop
  endfacet
  facet normal -1.617255e-01 6.890590e-01 7.064294e-01
    outer loop
      vertex -2.889217e+01 -1.867365e+01 2.062602e+01
      vertex -4.132892e+01 -8.073580e+00 7.332806e+00
      vertex -4.754627e+01 -8.904310e+00 6.762285e+00
    endloop
  endfacet
  facet normal -1.758711e-01 6.766090e-01 7.150311e-01
    outer loop
      vertex -2.889217e+01 -1.867365e+01 2.062602e+01
      vertex -4.754627e+01 -8.904310e+00 6.762285e+00
      vertex -4.871680e+01 -9.060709e+00 6.654874e+00
    endloop
  endfacet
  facet normal 1.333334e-04 -5.668001e-01 8.238554e-01
    outer loop
      vertex 9.812587e+01 -5.717462e+01 7.652425e+01
      vertex 9.868332e+01 -5.714918e+01 7.654167e+01
      vertex 9.256456e+01 -5.688532e+01 7.672419e+01
    endloop
  endfacet
  facet normal 1.333334e-04 -5.668001e-01 8.238554e-01
    outer loop
      vertex 6.931262e+01 -5.656257e+01 7.695000e+01
      vertex 6.789610e+01 -5.659935e+01 7.692492e+01
      vertex 6.813010e+01 -5.770195e+01 7.616631e+01
    endloop
  endfacet
  facet normal 1.333334e-04 -5.668001e-01 8.238554e-01
    outer loop
      vertex 6.813010e+01 -5.770195e+01 7.616631e+01
      vertex 6.789610e+01 -5.659935e+01 7.692492e+01
      vertex 6.627516e+01 -5.767245e+01 7.618691e+01
    endloop
  endfacet
  facet normal 1.333334e-04 -5.668001e-01 8.238554e-01
    outer loop
      vertex 6.627516e+01 -5.767245e+01 7.618691e+01
      vertex 6.789610e+01 -5.659935e+01 7.692492e+01
      vertex 6.376820e+01 -5.670652e+01 7.685186e+01
    endloop
  endfacet
  facet normal 1.333334e-04 -5.668001e-01 8.238554e-01
    outer loop
      vertex 6.627516e+01 -5.767245e+01 7.618691e+01
      vertex 6.376820e+01 -5.670652e+01 7.685186e+01
      vertex 6.058014e+01 -5.746337e+01 7.633167e+01
    endloop
  endfacet
  facet normal 1.333334e-04 -5.668001e-01 8.238554e-01
    outer loop
      vertex 6.058014e+01 -5.746337e+01 7.633167e+01
      vertex 6.376820e+01 -5.670652e+01 7.685186e+01
      vertex 5.948759e+01 -5.690153e+01 7.671839e+01
    endloop
  endfacet
  facet normal 1.333334e-04 -5.668001e-01 8.238554e-01
    outer loop
      vertex 6.058014e+01 -5.746337e+01 7.633167e+01
      vertex 5.948759e+01 -5.690153e+01 7.671839e+01
      vertex 5.975713e+01 -5.741583e+01 7.636452e+01
    endloop
  endfacet
  facet normal 1.333334e-04 -5.668001e-01 8.238554e-01
    outer loop
      vertex 5.975713e+01 -5.741583e+01 7.636452e+01
      vertex 5.948759e+01 -5.690153e+01 7.671839e+01
      vertex 5.831892e+01 -5.695477e+01 7.668195e+01
    endloop
  endfacet
  facet normal 1.333334e-04 -5.668001e-01 8.238554e-01
    outer loop
      vertex 5.975713e+01 -5.741583e+01 7.636452e+01
      vertex 5.831892e+01 -5.695477e+01 7.668195e+01
      vertex 5.517235e+01 -5.715098e+01 7.654747e+01
    endloop
  endfacet
  facet normal 1.333334e-04 -5.668001e-01 8.238554e-01
    outer loop
      vertex 6.931262e+01 -5.656257e+01 7.695000e+01
      vertex 6.813010e+01 -5.770195e+01 7.616631e+01
      vertex 7.495798e+01 -5.651605e+01 7.698109e+01
    endloop
  endfacet
  facet normal 1.333334e-04 -5.668001e-01 8.238554e-01
    outer loop
      vertex 7.495798e+01 -5.651605e+01 7.698109e+01
      vertex 6.813010e+01 -5.770195e+01 7.616631e+01
      vertex 7.295836e+01 -5.777872e+01 7.611271e+01
    endloop
  endfacet
  facet normal 1.333334e-04 -5.668001e-01 8.238554e-01
    outer loop
      vertex 7.495798e+01 -5.651605e+01 7.698109e+01
      vertex 7.295836e+01 -5.777872e+01 7.611271e+01
      vertex 7.707042e+01 -5.653207e+01 7.696973e+01
    endloop
  endfacet
  facet normal 1.333334e-04 -5.668001e-01 8.238554e-01
    outer loop
      vertex 7.707042e+01 -5.653207e+01 7.696973e+01
      vertex 7.295836e+01 -5.777872e+01 7.611271e+01
      vertex 7.715245e+01 -5.776140e+01 7.612395e+01
    endloop
  endfacet
  facet normal 1.333334e-04 -5.668001e-01 8.238554e-01
    outer loop
      vertex 7.707042e+01 -5.653207e+01 7.696973e+01
      vertex 7.715245e+01 -5.776140e+01 7.612395e+01
      vertex 8.071039e+01 -5.655967e+01 7.695015e+01
    endloop
  endfacet
  facet normal 1.333334e-04 -5.668001e-01 8.238554e-01
    outer loop
      vertex 8.071039e+01 -5.655967e+01 7.695015e+01
      vertex 7.715245e+01 -5.776140e+01 7.612395e+01
      vertex 8.005750e+01 -5.774940e+01 7.613174e+01
    endloop
  endfacet
  facet normal 1.333334e-04 -5.668001e-01 8.238554e-01
    outer loop
      vertex 8.071039e+01 -5.655967e+01 7.695015e+01
      vertex 8.005750e+01 -5.774940e+01 7.613174e+01
      vertex 8.657666e+01 -5.668561e+01 7.686256e+01
    endloop
  endfacet
  facet normal 1.333334e-04 -5.668001e-01 8.238554e-01
    outer loop
      vertex 8.657666e+01 -5.668561e+01 7.686256e+01
      vertex 8.005750e+01 -5.774940e+01 7.613174e+01
      vertex 8.703190e+01 -5.759606e+01 7.623610e+01
    endloop
  endfacet
  facet normal 1.333334e-04 -5.668001e-01 8.238554e-01
    outer loop
      vertex 8.657666e+01 -5.668561e+01 7.686256e+01
      vertex 8.703190e+01 -5.759606e+01 7.623610e+01
      vertex 8.728724e+01 -5.670931e+01 7.684614e+01
    endloop
  endfacet
  facet normal 1.333334e-04 -5.668001e-01 8.238554e-01
    outer loop
      vertex 8.728724e+01 -5.670931e+01 7.684614e+01
      vertex 8.703190e+01 -5.759606e+01 7.623610e+01
      vertex 8.768524e+01 -5.758169e+01 7.624588e+01
    endloop
  endfacet
  facet normal 1.333334e-04 -5.668001e-01 8.238554e-01
    outer loop
      vertex 8.728724e+01 -5.670931e+01 7.684614e+01
      vertex 8.768524e+01 -5.758169e+01 7.624588e+01
      vertex 9.256456e+01 -5.688532e+01 7.672419e+01
    endloop
  endfacet
  facet normal 1.333334e-04 -5.668001e-01 8.238554e-01
    outer loop
      vertex 9.256456e+01 -5.688532e+01 7.672419e+01
      vertex 8.768524e+01 -5.758169e+01 7.624588e+01
      vertex 9.602969e+01 -5.727031e+01 7.645876e+01
    endloop
  endfacet
  facet normal 1.333334e-04 -5.668001e-01 8.238554e-01
    outer loop
      vertex 9.256456e+01 -5.688532e+01 7.672419e+01
      vertex 9.602969e+01 -5.727031e+01 7.645876e+01
      vertex 9.812587e+01 -5.717462e+01 7.652425e+01
    endloop
  endfacet
  facet normal -1.301011e-04 6.231523e-01 -7.821005e-01
    outer loop
      vertex 5.335149e+01 -8.154006e+00 3.713696e+00
      vertex 4.857766e+01 -8.380933e+00 3.531993e+00
      vertex -5.749899e+01 -7.237028e+00 4.419187e+00
    endloop
  endfacet
  facet normal -1.334866e-04 5.637315e-01 -8.259581e-01
    outer loop
      vertex 6.457158e+01 -7.232625e+00 4.404025e+00
      vertex 6.847466e+01 -7.432559e+00 4.279758e+00
      vertex 6.620247e+01 -7.543127e+00 4.202832e+00
    endloop
  endfacet
  facet normal -1.319911e-04 5.919564e-01 -8.059700e-01
    outer loop
      vertex -5.868332e+01 -7.437828e+00 4.296713e+00
      vertex -5.749899e+01 -7.237028e+00 4.419187e+00
      vertex -5.332399e+01 -8.280522e+00 3.639072e+00
    endloop
  endfacet
  facet normal -1.298159e-04 6.275121e-01 -7.786068e-01
    outer loop
      vertex -5.332399e+01 -8.280522e+00 3.639072e+00
      vertex -5.749899e+01 -7.237028e+00 4.419187e+00
      vertex 4.857766e+01 -8.380933e+00 3.531993e+00
    endloop
  endfacet
  facet normal -1.266563e-04 6.711052e-01 -7.413620e-01
    outer loop
      vertex -5.332399e+01 -8.280522e+00 3.639072e+00
      vertex 4.857766e+01 -8.380933e+00 3.531993e+00
      vertex 4.707260e+01 -8.455723e+00 3.458841e+00
    endloop
  endfacet
  facet normal -1.238050e-04 7.046532e-01 -7.095518e-01
    outer loop
      vertex 3.846460e+01 -8.883472e+00 3.040455e+00
      vertex -6.836480e+00 -8.676374e+00 3.261053e+00
      vertex 4.707260e+01 -8.455723e+00 3.458841e+00
    endloop
  endfacet
  facet normal -1.252069e-04 6.887354e-01 -7.250128e-01
    outer loop
      vertex 4.707260e+01 -8.455723e+00 3.458841e+00
      vertex -6.836480e+00 -8.676374e+00 3.261053e+00
      vertex -5.213757e+01 -8.456816e+00 3.468873e+00
    endloop
  endfacet
  facet normal -1.264276e-04 6.739736e-01 -7.387555e-01
    outer loop
      vertex 4.707260e+01 -8.455723e+00 3.458841e+00
      vertex -5.213757e+01 -8.456816e+00 3.468873e+00
      vertex -5.332399e+01 -8.280522e+00 3.639072e+00
    endloop
  endfacet
  facet normal -1.201484e-04 7.418482e-01 -6.705679e-01
    outer loop
      vertex -4.461297e+01 -9.455878e+00 2.385405e+00
      vertex -4.933465e+01 -8.873314e+00 3.066774e+00
      vertex -6.836480e+00 -8.676374e+00 3.261053e+00
    endloop
  endfacet
  facet normal -1.235664e-04 7.072627e-01 -7.069508e-01
    outer loop
      vertex -6.836480e+00 -8.676374e+00 3.261053e+00
      vertex -4.933465e+01 -8.873314e+00 3.066774e+00
      vertex -5.155877e+01 -8.542823e+00 3.385840e+00
    endloop
  endfacet
  facet normal -1.249320e-04 6.919399e-01 -7.219551e-01
    outer loop
      vertex -6.836480e+00 -8.676374e+00 3.261053e+00
      vertex -5.155877e+01 -8.542823e+00 3.385840e+00
      vertex -5.213757e+01 -8.456816e+00 3.468873e+00
    endloop
  endfacet
  facet normal -1.221138e-04 7.225673e-01 -6.913006e-01
    outer loop
      vertex 3.846460e+01 -8.883472e+00 3.040455e+00
      vertex 3.731441e+01 -8.944167e+00 2.972226e+00
      vertex -6.836480e+00 -8.676374e+00 3.261053e+00
    endloop
  endfacet
  facet normal -1.207325e-04 7.362765e-01 -6.766807e-01
    outer loop
      vertex -6.836480e+00 -8.676374e+00 3.261053e+00
      vertex 3.731441e+01 -8.944167e+00 2.972226e+00
      vertex 3.165542e+01 -9.242785e+00 2.636534e+00
    endloop
  endfacet
  facet normal -1.184391e-04 7.574422e-01 -6.529022e-01
    outer loop
      vertex -6.836480e+00 -8.676374e+00 3.261053e+00
      vertex 3.165542e+01 -9.242785e+00 2.636534e+00
      vertex 2.681905e+01 -9.487151e+00 2.308709e+00
    endloop
  endfacet
  facet normal -1.044718e-04 8.555961e-01 -5.176440e-01
    outer loop
      vertex -3.530165e+01 -1.024837e+01 1.167142e+00
      vertex -3.638357e+01 -1.016929e+01 1.301191e+00
      vertex -1.166897e+01 -9.650227e+00 2.118147e+00
    endloop
  endfacet
  facet normal -1.175107e-04 7.655013e-01 -6.434345e-01
    outer loop
      vertex -4.461297e+01 -9.455878e+00 2.385405e+00
      vertex -6.836480e+00 -8.676374e+00 3.261053e+00
      vertex -4.417195e+01 -9.498677e+00 2.324666e+00
    endloop
  endfacet
  facet normal -1.173028e-04 7.672684e-01 -6.413261e-01
    outer loop
      vertex -4.417195e+01 -9.498677e+00 2.324666e+00
      vertex -6.836480e+00 -8.676374e+00 3.261053e+00
      vertex 2.681905e+01 -9.487151e+00 2.308709e+00
    endloop
  endfacet
  facet normal -1.129085e-04 8.017564e-01 -5.976509e-01
    outer loop
      vertex -4.417195e+01 -9.498677e+00 2.324666e+00
      vertex 2.681905e+01 -9.487151e+00 2.308709e+00
      vertex -1.166897e+01 -9.650227e+00 2.118147e+00
    endloop
  endfacet
  facet normal -1.113464e-04 8.128365e-01 -5.824919e-01
    outer loop
      vertex -1.166897e+01 -9.650227e+00 2.118147e+00
      vertex 2.681905e+01 -9.487151e+00 2.308709e+00
      vertex 2.083400e+01 -9.789556e+00 1.903022e+00
    endloop
  endfacet
  facet normal -1.094386e-04 8.256338e-01 -5.642064e-01
    outer loop
      vertex -1.166897e+01 -9.650227e+00 2.118147e+00
      vertex 2.083400e+01 -9.789556e+00 1.903022e+00
      vertex 1.970299e+01 -9.846702e+00 1.826358e+00
    endloop
  endfacet
  facet normal -1.033469e-04 8.617777e-01 -5.072862e-01
    outer loop
      vertex -3.530165e+01 -1.024837e+01 1.167142e+00
      vertex -1.166897e+01 -9.650227e+00 2.118147e+00
      vertex -3.383544e+01 -1.032477e+01 1.015231e+00
    endloop
  endfacet
  facet normal -1.067303e-04 8.425349e-01 -5.386419e-01
    outer loop
      vertex -3.638357e+01 -1.016929e+01 1.301191e+00
      vertex -3.994145e+01 -9.909235e+00 1.742011e+00
      vertex -1.166897e+01 -9.650227e+00 2.118147e+00
    endloop
  endfacet
  facet normal -1.105747e-04 8.181067e-01 -5.750666e-01
    outer loop
      vertex -1.166897e+01 -9.650227e+00 2.118147e+00
      vertex -3.994145e+01 -9.909235e+00 1.742011e+00
      vertex -4.393355e+01 -9.521814e+00 2.291831e+00
    endloop
  endfacet
  facet normal -1.127861e-04 8.026447e-01 -5.964574e-01
    outer loop
      vertex -1.166897e+01 -9.650227e+00 2.118147e+00
      vertex -4.393355e+01 -9.521814e+00 2.291831e+00
      vertex -4.417195e+01 -9.498677e+00 2.324666e+00
    endloop
  endfacet
  facet normal -9.492470e-05 9.020652e-01 -4.315998e-01
    outer loop
      vertex 8.234329e+00 -1.032606e+01 1.011164e+00
      vertex 4.000618e+00 -1.045487e+01 7.418794e-01
      vertex -2.330681e+01 -1.056574e+01 5.183935e-01
    endloop
  endfacet
  facet normal -9.264705e-05 9.113501e-01 -4.116319e-01
    outer loop
      vertex -2.330681e+01 -1.056574e+01 5.183935e-01
      vertex 4.000618e+00 -1.045487e+01 7.418794e-01
      vertex -1.847417e-01 -1.058221e+01 4.756695e-01
    endloop
  endfacet
  facet normal -9.063131e-05 9.190599e-01 -3.941180e-01
    outer loop
      vertex -1.847417e-01 -1.058221e+01 4.756695e-01
      vertex -4.437871e+00 -1.066694e+01 2.719527e-01
      vertex -2.330681e+01 -1.056574e+01 5.183935e-01
    endloop
  endfacet
  facet normal -8.926106e-05 9.240412e-01 -3.822930e-01
    outer loop
      vertex -2.330681e+01 -1.056574e+01 5.183935e-01
      vertex -4.437871e+00 -1.066694e+01 2.719527e-01
      vertex -6.848586e+00 -1.071497e+01 1.564840e-01
    endloop
  endfacet
  facet normal -8.811710e-05 9.280446e-01 -3.724692e-01
    outer loop
      vertex -2.330681e+01 -1.056574e+01 5.183935e-01
      vertex -6.848586e+00 -1.071497e+01 1.564840e-01
      vertex -1.248089e+01 -1.077258e+01 6.727520e-03
    endloop
  endfacet
  facet normal -8.746736e-05 9.302570e-01 -3.669086e-01
    outer loop
      vertex -1.248089e+01 -1.077258e+01 6.727520e-03
      vertex -1.277818e+01 -1.077276e+01 6.329770e-03
      vertex -2.330681e+01 -1.056574e+01 5.183935e-01
    endloop
  endfacet
  facet normal -8.743555e-05 9.303642e-01 -3.666367e-01
    outer loop
      vertex -2.330681e+01 -1.056574e+01 5.183935e-01
      vertex -1.277818e+01 -1.077276e+01 6.329770e-03
      vertex -1.751118e+01 -1.077553e+01 0.000000e+00
    endloop
  endfacet
  facet normal -8.775471e-05 9.292839e-01 -3.693661e-01
    outer loop
      vertex -2.330681e+01 -1.056574e+01 5.183935e-01
      vertex -1.751118e+01 -1.077553e+01 0.000000e+00
      vertex -2.089414e+01 -1.074514e+01 8.155593e-02
    endloop
  endfacet
  facet normal -8.816278e-05 9.278874e-01 -3.728606e-01
    outer loop
      vertex -2.089414e+01 -1.074514e+01 8.155593e-02
      vertex -2.147692e+01 -1.073990e+01 9.560588e-02
      vertex -2.330681e+01 -1.056574e+01 5.183935e-01
    endloop
  endfacet
  facet normal -8.921735e-05 9.241967e-01 -3.819169e-01
    outer loop
      vertex -2.330681e+01 -1.056574e+01 5.183935e-01
      vertex -2.147692e+01 -1.073990e+01 9.560588e-02
      vertex -2.607939e+01 -1.064781e+01 3.275527e-01
    endloop
  endfacet
  facet normal -9.109915e-05 9.173116e-01 -3.981700e-01
    outer loop
      vertex -2.330681e+01 -1.056574e+01 5.183935e-01
      vertex -2.607939e+01 -1.064781e+01 3.275527e-01
      vertex -2.874017e+01 -1.055615e+01 5.360806e-01
    endloop
  endfacet
  facet normal -1.060167e-04 8.467587e-01 -5.319773e-01
    outer loop
      vertex 1.970299e+01 -9.846702e+00 1.826358e+00
      vertex 8.259674e+00 -1.032529e+01 1.012777e+00
      vertex -1.166897e+01 -9.650227e+00 2.118147e+00
    endloop
  endfacet
  facet normal -1.027594e-04 8.649243e-01 -5.019023e-01
    outer loop
      vertex -1.166897e+01 -9.650227e+00 2.118147e+00
      vertex 8.259674e+00 -1.032529e+01 1.012777e+00
      vertex 8.234329e+00 -1.032606e+01 1.011164e+00
    endloop
  endfacet
  facet normal -1.027532e-04 8.649572e-01 -5.018457e-01
    outer loop
      vertex -1.166897e+01 -9.650227e+00 2.118147e+00
      vertex 8.234329e+00 -1.032606e+01 1.011164e+00
      vertex -3.383544e+01 -1.032477e+01 1.015231e+00
    endloop
  endfacet
  facet normal -9.605316e-05 8.972288e-01 -4.415662e-01
    outer loop
      vertex -3.383544e+01 -1.032477e+01 1.015231e+00
      vertex 8.234329e+00 -1.032606e+01 1.011164e+00
      vertex -2.330681e+01 -1.056574e+01 5.183935e-01
    endloop
  endfacet
  facet normal -9.466808e-05 9.031428e-01 -4.293402e-01
    outer loop
      vertex -3.383544e+01 -1.032477e+01 1.015231e+00
      vertex -2.330681e+01 -1.056574e+01 5.183935e-01
      vertex -3.067218e+01 -1.048960e+01 6.874949e-01
    endloop
  endfacet
  facet normal -9.262848e-05 9.114233e-01 -4.114699e-01
    outer loop
      vertex -3.067218e+01 -1.048960e+01 6.874949e-01
      vertex -2.330681e+01 -1.056574e+01 5.183935e-01
      vertex -2.874017e+01 -1.055615e+01 5.360806e-01
    endloop
  endfacet
  facet normal -1.361550e-04 5.009306e-01 -8.654874e-01
    outer loop
      vertex -7.035781e+00 -6.676393e+00 4.758520e+00
      vertex -5.749899e+01 -7.237028e+00 4.419187e+00
      vertex -5.376976e+01 -6.604747e+00 4.804832e+00
    endloop
  endfacet
  facet normal -1.381640e-04 4.313885e-01 -9.021663e-01
    outer loop
      vertex 4.034388e+01 -5.869862e+00 5.136477e+00
      vertex 4.342740e+01 -6.087484e+00 5.047600e+00
      vertex -7.035781e+00 -6.676393e+00 4.758520e+00
    endloop
  endfacet
  facet normal -1.320171e-04 5.914959e-01 -8.063080e-01
    outer loop
      vertex 6.620247e+01 -7.543127e+00 4.202832e+00
      vertex 5.335149e+01 -8.154006e+00 3.713696e+00
      vertex 6.457158e+01 -7.232625e+00 4.404025e+00
    endloop
  endfacet
  facet normal -1.326282e-04 5.803795e-01 -8.143463e-01
    outer loop
      vertex 6.457158e+01 -7.232625e+00 4.404025e+00
      vertex 5.335149e+01 -8.154006e+00 3.713696e+00
      vertex -5.749899e+01 -7.237028e+00 4.419187e+00
    endloop
  endfacet
  facet normal -1.352350e-04 5.249829e-01 -8.511128e-01
    outer loop
      vertex 6.457158e+01 -7.232625e+00 4.404025e+00
      vertex -5.749899e+01 -7.237028e+00 4.419187e+00
      vertex 5.392134e+01 -6.687069e+00 4.743106e+00
    endloop
  endfacet
  facet normal -1.360408e-04 5.040974e-01 -8.636468e-01
    outer loop
      vertex 5.392134e+01 -6.687069e+00 4.743106e+00
      vertex -5.749899e+01 -7.237028e+00 4.419187e+00
      vertex -7.035781e+00 -6.676393e+00 4.758520e+00
    endloop
  endfacet
  facet normal -1.367869e-04 4.822566e-01 -8.760300e-01
    outer loop
      vertex 5.392134e+01 -6.687069e+00 4.743106e+00
      vertex -7.035781e+00 -6.676393e+00 4.758520e+00
      vertex 5.336493e+01 -6.655277e+00 4.759251e+00
    endloop
  endfacet
  facet normal -1.374416e-04 4.602975e-01 -8.877648e-01
    outer loop
      vertex 5.336493e+01 -6.655277e+00 4.759251e+00
      vertex -7.035781e+00 -6.676393e+00 4.758520e+00
      vertex 4.342740e+01 -6.087484e+00 5.047600e+00
    endloop
  endfacet
  facet normal -1.395130e-04 3.345375e-01 -9.423824e-01
    outer loop
      vertex -4.393554e+01 -4.823710e+00 5.520724e+00
      vertex -8.451343e+00 -5.612894e+00 5.256990e+00
      vertex -4.832788e+01 -5.592018e+00 5.271083e+00
    endloop
  endfacet
  facet normal -1.391646e-04 3.731591e-01 -9.277675e-01
    outer loop
      vertex -4.832788e+01 -5.592018e+00 5.271083e+00
      vertex -8.451343e+00 -5.612894e+00 5.256990e+00
      vertex -4.982568e+01 -5.870758e+00 5.142754e+00
    endloop
  endfacet
  facet normal -1.396096e-04 3.102548e-01 -9.506534e-01
    outer loop
      vertex 2.124798e+01 -4.403028e+00 5.628863e+00
      vertex 3.292301e+01 -5.346128e+00 5.350369e+00
      vertex -8.451343e+00 -5.612894e+00 5.256990e+00
    endloop
  endfacet
  facet normal -1.373882e-04 4.622141e-01 -8.867683e-01
    outer loop
      vertex -5.376976e+01 -6.604747e+00 4.804832e+00
      vertex -5.156513e+01 -6.194467e+00 4.993721e+00
      vertex -7.035781e+00 -6.676393e+00 4.758520e+00
    endloop
  endfacet
  facet normal -1.380720e-04 4.354401e-01 -9.002178e-01
    outer loop
      vertex -7.035781e+00 -6.676393e+00 4.758520e+00
      vertex -5.156513e+01 -6.194467e+00 4.993721e+00
      vertex -4.982568e+01 -5.870758e+00 5.142754e+00
    endloop
  endfacet
  facet normal -1.383343e-04 4.235022e-01 -9.058951e-01
    outer loop
      vertex -7.035781e+00 -6.676393e+00 4.758520e+00
      vertex -4.982568e+01 -5.870758e+00 5.142754e+00
      vertex 4.034388e+01 -5.869862e+00 5.136477e+00
    endloop
  endfacet
  facet normal -1.390269e-04 3.836907e-01 -9.234617e-01
    outer loop
      vertex 4.034388e+01 -5.869862e+00 5.136477e+00
      vertex -4.982568e+01 -5.870758e+00 5.142754e+00
      vertex -8.451343e+00 -5.612894e+00 5.256990e+00
    endloop
  endfacet
  facet normal -1.391324e-04 3.757558e-01 -9.267187e-01
    outer loop
      vertex 4.034388e+01 -5.869862e+00 5.136477e+00
      vertex -8.451343e+00 -5.612894e+00 5.256990e+00
      vertex 3.730391e+01 -5.655314e+00 5.224098e+00
    endloop
  endfacet
  facet normal -1.393471e-04 3.562514e-01 -9.343901e-01
    outer loop
      vertex 3.730391e+01 -5.655314e+00 5.224098e+00
      vertex -8.451343e+00 -5.612894e+00 5.256990e+00
      vertex 3.292301e+01 -5.346128e+00 5.350369e+00
    endloop
  endfacet
  facet normal -1.374015e-04 1.223530e-01 -9.924867e-01
    outer loop
      vertex 1.646017e+00 -2.872732e+00 5.856325e+00
      vertex 3.999702e+00 -3.030130e+00 5.846012e+00
      vertex -1.018855e+01 -4.393574e+00 5.636867e+00
    endloop
  endfacet
  facet normal -1.386304e-04 1.809573e-01 -9.834909e-01
    outer loop
      vertex -3.638121e+01 -3.668850e+00 5.775202e+00
      vertex -1.018855e+01 -4.393574e+00 5.636867e+00
      vertex -3.761391e+01 -3.825793e+00 5.755003e+00
    endloop
  endfacet
  facet normal -1.390387e-04 2.082144e-01 -9.780832e-01
    outer loop
      vertex -3.761391e+01 -3.825793e+00 5.755003e+00
      vertex -1.018855e+01 -4.393574e+00 5.636867e+00
      vertex -4.135478e+01 -4.404176e+00 5.630438e+00
    endloop
  endfacet
  facet normal -1.375813e-04 1.296946e-01 -9.915540e-01
    outer loop
      vertex 3.999702e+00 -3.030130e+00 5.846012e+00
      vertex 4.622380e+00 -3.071770e+00 5.843284e+00
      vertex -1.018855e+01 -4.393574e+00 5.636867e+00
    endloop
  endfacet
  facet normal -1.379894e-04 1.476178e-01 -9.890445e-01
    outer loop
      vertex -1.018855e+01 -4.393574e+00 5.636867e+00
      vertex 4.622380e+00 -3.071770e+00 5.843284e+00
      vertex 1.045374e+01 -3.515103e+00 5.794929e+00
    endloop
  endfacet
  facet normal -1.388636e-04 1.956525e-01 -9.806733e-01
    outer loop
      vertex -1.018855e+01 -4.393574e+00 5.636867e+00
      vertex 1.045374e+01 -3.515103e+00 5.794929e+00
      vertex 2.084047e+01 -4.369902e+00 5.637391e+00
    endloop
  endfacet
  facet normal -1.396230e-04 2.995985e-01 -9.540653e-01
    outer loop
      vertex -4.393554e+01 -4.823710e+00 5.520724e+00
      vertex -4.292531e+01 -4.646999e+00 5.578142e+00
      vertex -8.451343e+00 -5.612894e+00 5.256990e+00
    endloop
  endfacet
  facet normal -1.396116e-04 2.842125e-01 -9.587613e-01
    outer loop
      vertex -8.451343e+00 -5.612894e+00 5.256990e+00
      vertex -4.292531e+01 -4.646999e+00 5.578142e+00
      vertex -4.135478e+01 -4.404176e+00 5.630438e+00
    endloop
  endfacet
  facet normal -1.395887e-04 2.753647e-01 -9.613398e-01
    outer loop
      vertex -8.451343e+00 -5.612894e+00 5.256990e+00
      vertex -4.135478e+01 -4.404176e+00 5.630438e+00
      vertex 2.124798e+01 -4.403028e+00 5.628863e+00
    endloop
  endfacet
  facet normal -1.392851e-04 2.295963e-01 -9.732860e-01
    outer loop
      vertex 2.124798e+01 -4.403028e+00 5.628863e+00
      vertex -4.135478e+01 -4.404176e+00 5.630438e+00
      vertex -1.018855e+01 -4.393574e+00 5.636867e+00
    endloop
  endfacet
  facet normal -1.392768e-04 2.287712e-01 -9.734802e-01
    outer loop
      vertex 2.124798e+01 -4.403028e+00 5.628863e+00
      vertex -1.018855e+01 -4.393574e+00 5.636867e+00
      vertex 2.097767e+01 -4.381193e+00 5.635310e+00
    endloop
  endfacet
  facet normal -1.392642e-04 2.275377e-01 -9.737692e-01
    outer loop
      vertex 2.097767e+01 -4.381193e+00 5.635310e+00
      vertex -1.018855e+01 -4.393574e+00 5.636867e+00
      vertex 2.084047e+01 -4.369902e+00 5.637391e+00
    endloop
  endfacet
  facet normal -1.340799e-04 1.857159e-02 -9.998275e-01
    outer loop
      vertex -2.634884e+01 -2.630264e+00 5.872868e+00
      vertex -2.395456e+01 -2.452702e+00 5.876617e+00
      vertex -1.266527e+01 -2.423642e+00 5.875440e+00
    endloop
  endfacet
  facet normal -1.336393e-04 7.472620e-03 -9.999720e-01
    outer loop
      vertex -1.266527e+01 -2.423642e+00 5.875440e+00
      vertex -2.395456e+01 -2.452702e+00 5.876617e+00
      vertex -2.088787e+01 -2.330387e+00 5.876563e+00
    endloop
  endfacet
  facet normal -1.333626e-04 7.046637e-04 -9.999998e-01
    outer loop
      vertex -1.266527e+01 -2.423642e+00 5.875440e+00
      vertex -2.088787e+01 -2.330387e+00 5.876563e+00
      vertex -1.936833e+01 -2.269780e+00 5.876537e+00
    endloop
  endfacet
  facet normal -1.331948e-04 -3.327131e-03 -9.999945e-01
    outer loop
      vertex -1.936833e+01 -2.269780e+00 5.876537e+00
      vertex -1.474225e+01 -2.221278e+00 5.875440e+00
      vertex -1.266527e+01 -2.423642e+00 5.875440e+00
    endloop
  endfacet
  facet normal -1.331675e-04 -3.979712e-03 -9.999921e-01
    outer loop
      vertex -1.266527e+01 -2.423642e+00 5.875440e+00
      vertex -1.474225e+01 -2.221278e+00 5.875440e+00
      vertex -1.277161e+01 -2.251888e+00 5.875440e+00
    endloop
  endfacet
  facet normal -1.332805e-04 -1.273813e-03 -9.999992e-01
    outer loop
      vertex -1.266527e+01 -2.423642e+00 5.875440e+00
      vertex -1.277161e+01 -2.251888e+00 5.875440e+00
      vertex -1.005175e+01 -2.294138e+00 5.875440e+00
    endloop
  endfacet
  facet normal -1.336155e-04 6.883061e-03 -9.999763e-01
    outer loop
      vertex -1.005175e+01 -2.294138e+00 5.875440e+00
      vertex -5.274034e+00 -2.471803e+00 5.873845e+00
      vertex -1.266527e+01 -2.423642e+00 5.875440e+00
    endloop
  endfacet
  facet normal -1.339455e-04 1.514145e-02 -9.998854e-01
    outer loop
      vertex -1.266527e+01 -2.423642e+00 5.875440e+00
      vertex -5.274034e+00 -2.471803e+00 5.873845e+00
      vertex -4.442680e+00 -2.516875e+00 5.872380e+00
    endloop
  endfacet
  facet normal -1.341733e-04 2.097879e-02 -9.997799e-01
    outer loop
      vertex -1.266527e+01 -2.423642e+00 5.875440e+00
      vertex -4.442680e+00 -2.516875e+00 5.872380e+00
      vertex -2.634884e+01 -2.630264e+00 5.872868e+00
    endloop
  endfacet
  facet normal -1.346131e-04 3.259189e-02 -9.994687e-01
    outer loop
      vertex -2.634884e+01 -2.630264e+00 5.872868e+00
      vertex -4.442680e+00 -2.516875e+00 5.872380e+00
      vertex -3.886710e-01 -2.736666e+00 5.865239e+00
    endloop
  endfacet
  facet normal -1.350908e-04 4.578529e-02 -9.989513e-01
    outer loop
      vertex -2.634884e+01 -2.630264e+00 5.872868e+00
      vertex -3.886710e-01 -2.736666e+00 5.865239e+00
      vertex 1.646017e+00 -2.872732e+00 5.856325e+00
    endloop
  endfacet
  facet normal -1.381747e-04 1.564749e-01 -9.876819e-01
    outer loop
      vertex -3.638121e+01 -3.668850e+00 5.775202e+00
      vertex -3.239008e+01 -3.160717e+00 5.840600e+00
      vertex -1.018855e+01 -4.393574e+00 5.636867e+00
    endloop
  endfacet
  facet normal -1.375191e-04 1.271209e-01 -9.918872e-01
    outer loop
      vertex -1.018855e+01 -4.393574e+00 5.636867e+00
      vertex -3.239008e+01 -3.160717e+00 5.840600e+00
      vertex -2.942824e+01 -2.873949e+00 5.859435e+00
    endloop
  endfacet
  facet normal -1.372538e-04 1.165386e-01 -9.931862e-01
    outer loop
      vertex -1.018855e+01 -4.393574e+00 5.636867e+00
      vertex -2.942824e+01 -2.873949e+00 5.859435e+00
      vertex 1.646017e+00 -2.872732e+00 5.856325e+00
    endloop
  endfacet
  facet normal -1.354919e-04 5.739679e-02 -9.983514e-01
    outer loop
      vertex 1.646017e+00 -2.872732e+00 5.856325e+00
      vertex -2.942824e+01 -2.873949e+00 5.859435e+00
      vertex -2.874312e+01 -2.807616e+00 5.863792e+00
    endloop
  endfacet
  facet normal -1.351817e-04 4.837336e-02 -9.988293e-01
    outer loop
      vertex 1.646017e+00 -2.872732e+00 5.856325e+00
      vertex -2.874312e+01 -2.807616e+00 5.863792e+00
      vertex -2.634884e+01 -2.630264e+00 5.872868e+00
    endloop
  endfacet
  facet normal -1.349728e-04 4.246765e-02 -9.990978e-01
    outer loop
      vertex -2.634884e+01 -2.630264e+00 5.872868e+00
      vertex -2.874312e+01 -2.807616e+00 5.863792e+00
      vertex -2.778280e+01 -2.714636e+00 5.869899e+00
    endloop
  endfacet
  facet normal -1.344913e-04 2.932726e-02 -9.995698e-01
    outer loop
      vertex -2.634884e+01 -2.630264e+00 5.872868e+00
      vertex -2.778280e+01 -2.714636e+00 5.869899e+00
      vertex -2.395456e+01 -2.452702e+00 5.876617e+00
    endloop
  endfacet
endsolid Default
